<svg viewBox="0 0 95 95" width="500" xmlns="http://www.w3.org/2000/svg">
<polygon fill="grey" points="55,80 65,95 95,95 35,5 5,5 35,50 5,95 35,95 45,80 "/>
<path d="M20 30L20 40M20 30L45 25M20 40L40 35M30 95L40 65M30 95L40 95M40 15L45 5M40 15L45 25M40 15L50 15M40 35L40 65M40 35L45 25M40 65L50 70M40 95L50 70M45 5L50 15M45 5L55 5M45 25L50 15M45 25L55 25M50 15L55 5M50 15L55 25M50 15L60 15M50 70L60 65M50 70L60 95M55 5L60 15M55 25L60 15M55 25L60 35M55 25L80 30M60 35L60 65M60 35L80 40M60 65L70 95M60 95L70 95M80 30L80 40" style="fill:none;stroke:#ff0000;stroke-linecap:round"/>
</svg>