<svg height="500" viewBox="3 3 94 94" width="500" xmlns="http://www.w3.org/2000/svg">
<path class="hole" d="M55 80L65 95L95 95L35 5L5 5L35 50L5 95L35 95L45 80M3 3L97 3L97 97L3 97" style="fill:#00000066;fill-rule:evenodd;stroke:none;"/>
<circle cx="62" cy="46" r="5" style="fill:#ffff0066;stroke:none;"/>
<path class="ok" d="M30 95L40 65M40 15L45 25M40 35L40 65M40 35L45 25M40 65L50 70M50 70L60 65M60 65L70 95" style="fill:none;stroke:#0000ff;stroke-linecap:round"/>
<path class="out" d="M20 30L20 40M20 30L45 25M20 40L40 35M30 95L40 95M40 15L45 5M40 15L50 15M40 95L50 70M45 5L50 15M45 5L55 5M45 25L50 15M45 25L55 25M50 15L55 5M50 15L55 25M50 15L60 15M50 70L60 95M55 5L60 15M55 25L60 15M55 25L60 35M55 25L80 30M60 35L60 65M60 35L80 40M60 95L70 95M80 30L80 40" style="fill:none;stroke:#ff0000;stroke-linecap:round"/>
</svg>