<svg height="500" viewBox="0 0 95 95" width="500" xmlns="http://www.w3.org/2000/svg">
<polygon fill="grey" points="55,80 65,95 95,95 35,5 5,5 35,50 5,95 35,95 45,80 "/>
<path d="M30 95L40 65M40 65L40 35M40 35L20 40M20 40L20 30M20 30L45 25M45 25L40 15M40 15L45 5M45 5L55 5M55 5L60 15M60 15L55 25M55 25L80 30M80 30L80 40M80 40L60 35M60 35L60 65M60 65L70 95M70 95L60 95M60 95L50 70M50 70L40 95M40 95L30 95M45 25L55 25M45 5L50 15M50 15L40 15M45 25L50 15M50 15L55 25M60 15L50 15M50 15L55 5M40 35L45 25M55 25L60 35M40 65L50 70M50 70L60 65" stroke="red"/>
</svg>