<svg height="500" viewBox="5 3 94 94" width="500" xmlns="http://www.w3.org/2000/svg">
<path class="hole" d="M57 80L67 95L97 95L37 5L7 5L37 50L7 95L37 95L47 80M5 3L99 3L99 97L5 97" style="fill:#00000066;fill-rule:evenodd;"/>
<circle cx="64" cy="46" r="5" style="fill:#ffff0066;" title="Globalist"/>
<circle cx="79" cy="68" r="5" style="fill:#ffff0066;" title="WallHack"/>
<path class="ok" d="M30 95L40 65M40 15L45 25M40 35L40 65M40 35L45 25M40 65L50 70M50 70L60 65M60 65L70 95" style="stroke:#0000ff;stroke-linecap:round"/>
<path class="out" d="M20 30L20 40M20 30L45 25M20 40L40 35M30 95L40 95M40 15L45 5M40 15L50 15M40 95L50 70M45 5L50 15M45 5L55 5M45 25L50 15M45 25L55 25M50 15L55 5M50 15L55 25M50 15L60 15M50 70L60 95M55 5L60 15M55 25L60 15M55 25L60 35M55 25L80 30M60 35L60 65M60 35L80 40M60 95L70 95M80 30L80 40" style="stroke:#ff0000;stroke-linecap:round"/>
<g fill="#333333">
<circle cx="57" cy="80" r="0.5" tabindex="0">
<title>
hole:0
</title>
</circle>
<circle cx="67" cy="95" r="0.5" tabindex="1">
<title>
hole:1
</title>
</circle>
<circle cx="97" cy="95" r="0.5" tabindex="2">
<title>
hole:2
</title>
</circle>
<circle cx="37" cy="5" r="0.5" tabindex="3">
<title>
hole:3
</title>
</circle>
<circle cx="7" cy="5" r="0.5" tabindex="4">
<title>
hole:4
</title>
</circle>
<circle cx="37" cy="50" r="0.5" tabindex="5">
<title>
hole:5
</title>
</circle>
<circle cx="7" cy="95" r="0.5" tabindex="6">
<title>
hole:6
</title>
</circle>
<circle cx="37" cy="95" r="0.5" tabindex="7">
<title>
hole:7
</title>
</circle>
<circle cx="47" cy="80" r="0.5" tabindex="8">
<title>
hole:8
</title>
</circle>
</g>
<g fill="#999999">
<circle cx="20" cy="30" r="0.5" tabindex="9">
<title>
v:0
</title>
</circle>
<circle cx="20" cy="40" r="0.5" tabindex="10">
<title>
v:1
</title>
</circle>
<circle cx="30" cy="95" r="0.5" tabindex="11">
<title>
v:2
</title>
</circle>
<circle cx="40" cy="15" r="0.5" tabindex="12">
<title>
v:3
</title>
</circle>
<circle cx="40" cy="35" r="0.5" tabindex="13">
<title>
v:4
</title>
</circle>
<circle cx="40" cy="65" r="0.5" tabindex="14">
<title>
v:5
</title>
</circle>
<circle cx="40" cy="95" r="0.5" tabindex="15">
<title>
v:6
</title>
</circle>
<circle cx="45" cy="5" r="0.5" tabindex="16">
<title>
v:7
</title>
</circle>
<circle cx="45" cy="25" r="0.5" tabindex="17">
<title>
v:8
</title>
</circle>
<circle cx="50" cy="15" r="0.5" tabindex="18">
<title>
v:9
</title>
</circle>
<circle cx="50" cy="70" r="0.5" tabindex="19">
<title>
v:10
</title>
</circle>
<circle cx="55" cy="5" r="0.5" tabindex="20">
<title>
v:11
</title>
</circle>
<circle cx="55" cy="25" r="0.5" tabindex="21">
<title>
v:12
</title>
</circle>
<circle cx="60" cy="15" r="0.5" tabindex="22">
<title>
v:13
</title>
</circle>
<circle cx="60" cy="35" r="0.5" tabindex="23">
<title>
v:14
</title>
</circle>
<circle cx="60" cy="65" r="0.5" tabindex="24">
<title>
v:15
</title>
</circle>
<circle cx="60" cy="95" r="0.5" tabindex="25">
<title>
v:16
</title>
</circle>
<circle cx="70" cy="95" r="0.5" tabindex="26">
<title>
v:17
</title>
</circle>
<circle cx="80" cy="30" r="0.5" tabindex="27">
<title>
v:18
</title>
</circle>
<circle cx="80" cy="40" r="0.5" tabindex="28">
<title>
v:19
</title>
</circle>
</g>
</svg>