<svg xmlns="http://www.w3.org/2000/svg">
<polygon fill="grey" points="5,86 17,27 10,9 55,5 58,31 79,45 83,76 64,71 57,87 "/>
<path d="M10 76L21 78M21 78L23 67M23 67L12 66M12 66L10 76M12 66L18 56M18 56L23 67M18 56L24 42M24 42L30 48M30 48L26 34M26 34L24 42M26 34L35 33M35 33L37 41M37 41L30 48M35 33L58 34M58 34L58 48M58 48L30 48M30 48L33 62M33 62L55 62M55 62L58 48M33 62L32 71M32 71L39 67M39 67L33 62M55 62L50 68M50 68L56 70M56 70L55 62M39 67L37 73M37 73L32 71M50 68L51 73M51 73L56 70M37 73L41 74M51 73L48 74M41 74L42 69M42 69L47 69M47 69L48 74M48 74L47 80M47 80L42 80M42 80L41 74M58 48L63 45M63 45L60 42M60 42L63 39M63 39L58 34M63 39L79 31M79 31L84 22M84 22L84 31M84 31L79 31M84 31L89 31M89 31L89 22M89 22L84 22M80 13L80 16M80 16L94 16M94 16L94 13M94 13L80 13M80 16L84 22M63 45L71 53M71 53L78 56M78 56L72 60M72 60L71 53M72 60L75 63M75 63L83 59M83 59L78 56M78 56L84 47M84 47L91 55M91 55L83 59M35 33L45 32M45 32L58 34M45 32L52 30M52 30L45 24M45 24L42 24M42 24L38 31M38 31L45 32M42 24L40 21M40 21L31 26M31 26L38 31M40 21L37 18M37 18L30 22M30 22L31 26M45 24L46 19M46 19L56 21M56 21L52 30M56 21L56 17M56 17L49 15M49 15L46 19" stroke="red"/>
</svg>