<svg height="500" viewBox="5 3 93 86" width="500" xmlns="http://www.w3.org/2000/svg">
<path class="hole" d="M59 87L66 71L85 76L81 45L60 31L57 5L12 9L19 27L7 86M5 3L98 3L98 89L5 89" style="fill:#00000066;fill-rule:evenodd;"/>
<circle cx="28" cy="86" fill="#ffff0066" r="5">
<title>
Globalist@62
</title>
</circle>
<circle cx="43" cy="86" fill="#ffff0066" r="5">
<title>
SuperFlex@85
</title>
</circle>
<circle cx="31" cy="8" fill="#ffff0066" r="5">
<title>
Globalist@76
</title>
</circle>
<path class="ok" d="M12 76L14 66M12 76L23 78M14 66L20 56M14 66L25 67M20 56L25 67M20 56L26 42M23 78L25 67M26 42L28 34M26 42L32 48M28 34L32 48M28 34L37 33M32 22L33 26M32 22L39 18M32 48L35 62M32 48L39 41M32 48L60 48M33 26L40 31M33 26L42 21M34 71L35 62M34 71L39 73M34 71L41 67M35 62L41 67M35 62L57 62M37 33L39 41M37 33L47 32M37 33L60 34M39 18L42 21M39 73L41 67M39 73L43 74M40 31L44 24M40 31L47 32M42 21L44 24M43 74L44 69M43 74L44 80M44 24L47 24M44 69L49 69M44 80L49 80M47 24L48 19M47 24L54 30M47 32L54 30M47 32L60 34M48 19L51 15M48 19L58 21M49 69L50 74M49 80L50 74M50 74L53 73M51 15L58 17M52 68L53 73M52 68L57 62M52 68L58 70M53 73L58 70M54 30L58 21M57 62L58 70M57 62L60 48M58 17L58 21M60 34L60 48M60 34L65 39M60 48L65 45M62 42L65 39M62 42L65 45M65 45L73 53M73 53L74 60M73 53L80 56M74 60L77 63M74 60L80 56" style="stroke:#0000ff;stroke-linecap:round"/>
<path class="out" d="M65 39L81 31M77 63L85 59M80 56L85 59M80 56L86 47M81 31L86 22M81 31L86 31M82 13L82 16M82 13L96 13M82 16L86 22M82 16L96 16M85 59L93 55M86 22L86 31M86 22L91 22M86 31L91 31M86 47L93 55M91 22L91 31M96 13L96 16" style="stroke:#ff0000;stroke-linecap:round"/>
<g fill="#333333">
<circle cx="59" cy="87" r="0.5">
<title>
hole:0
</title>
</circle>
<circle cx="66" cy="71" r="0.5">
<title>
hole:1
</title>
</circle>
<circle cx="85" cy="76" r="0.5">
<title>
hole:2
</title>
</circle>
<circle cx="81" cy="45" r="0.5">
<title>
hole:3
</title>
</circle>
<circle cx="60" cy="31" r="0.5">
<title>
hole:4
</title>
</circle>
<circle cx="57" cy="5" r="0.5">
<title>
hole:5
</title>
</circle>
<circle cx="12" cy="9" r="0.5">
<title>
hole:6
</title>
</circle>
<circle cx="19" cy="27" r="0.5">
<title>
hole:7
</title>
</circle>
<circle cx="7" cy="86" r="0.5">
<title>
hole:8
</title>
</circle>
</g>
<g fill="#999999">
<circle cx="12" cy="76" i="0" r="0.5" tabindex="0">
<title>
v:0
</title>
</circle>
<circle cx="14" cy="66" i="1" r="0.5" tabindex="1">
<title>
v:1
</title>
</circle>
<circle cx="20" cy="56" i="2" r="0.5" tabindex="2">
<title>
v:2
</title>
</circle>
<circle cx="23" cy="78" i="3" r="0.5" tabindex="3">
<title>
v:3
</title>
</circle>
<circle cx="25" cy="67" i="4" r="0.5" tabindex="4">
<title>
v:4
</title>
</circle>
<circle cx="26" cy="42" i="5" r="0.5" tabindex="5">
<title>
v:5
</title>
</circle>
<circle cx="28" cy="34" i="6" r="0.5" tabindex="6">
<title>
v:6
</title>
</circle>
<circle cx="32" cy="22" i="7" r="0.5" tabindex="7">
<title>
v:7
</title>
</circle>
<circle cx="32" cy="48" i="8" r="0.5" tabindex="8">
<title>
v:8
</title>
</circle>
<circle cx="33" cy="26" i="9" r="0.5" tabindex="9">
<title>
v:9
</title>
</circle>
<circle cx="34" cy="71" i="10" r="0.5" tabindex="10">
<title>
v:10
</title>
</circle>
<circle cx="35" cy="62" i="11" r="0.5" tabindex="11">
<title>
v:11
</title>
</circle>
<circle cx="37" cy="33" i="12" r="0.5" tabindex="12">
<title>
v:12
</title>
</circle>
<circle cx="39" cy="18" i="13" r="0.5" tabindex="13">
<title>
v:13
</title>
</circle>
<circle cx="39" cy="41" i="14" r="0.5" tabindex="14">
<title>
v:14
</title>
</circle>
<circle cx="39" cy="73" i="15" r="0.5" tabindex="15">
<title>
v:15
</title>
</circle>
<circle cx="40" cy="31" i="16" r="0.5" tabindex="16">
<title>
v:16
</title>
</circle>
<circle cx="41" cy="67" i="17" r="0.5" tabindex="17">
<title>
v:17
</title>
</circle>
<circle cx="42" cy="21" i="18" r="0.5" tabindex="18">
<title>
v:18
</title>
</circle>
<circle cx="43" cy="74" i="19" r="0.5" tabindex="19">
<title>
v:19
</title>
</circle>
<circle cx="44" cy="24" i="20" r="0.5" tabindex="20">
<title>
v:20
</title>
</circle>
<circle cx="44" cy="69" i="21" r="0.5" tabindex="21">
<title>
v:21
</title>
</circle>
<circle cx="44" cy="80" i="22" r="0.5" tabindex="22">
<title>
v:22
</title>
</circle>
<circle cx="47" cy="24" i="23" r="0.5" tabindex="23">
<title>
v:23
</title>
</circle>
<circle cx="47" cy="32" i="24" r="0.5" tabindex="24">
<title>
v:24
</title>
</circle>
<circle cx="48" cy="19" i="25" r="0.5" tabindex="25">
<title>
v:25
</title>
</circle>
<circle cx="49" cy="69" i="26" r="0.5" tabindex="26">
<title>
v:26
</title>
</circle>
<circle cx="49" cy="80" i="27" r="0.5" tabindex="27">
<title>
v:27
</title>
</circle>
<circle cx="50" cy="74" i="28" r="0.5" tabindex="28">
<title>
v:28
</title>
</circle>
<circle cx="51" cy="15" i="29" r="0.5" tabindex="29">
<title>
v:29
</title>
</circle>
<circle cx="52" cy="68" i="30" r="0.5" tabindex="30">
<title>
v:30
</title>
</circle>
<circle cx="53" cy="73" i="31" r="0.5" tabindex="31">
<title>
v:31
</title>
</circle>
<circle cx="54" cy="30" i="32" r="0.5" tabindex="32">
<title>
v:32
</title>
</circle>
<circle cx="57" cy="62" i="33" r="0.5" tabindex="33">
<title>
v:33
</title>
</circle>
<circle cx="58" cy="17" i="34" r="0.5" tabindex="34">
<title>
v:34
</title>
</circle>
<circle cx="58" cy="21" i="35" r="0.5" tabindex="35">
<title>
v:35
</title>
</circle>
<circle cx="58" cy="70" i="36" r="0.5" tabindex="36">
<title>
v:36
</title>
</circle>
<circle cx="60" cy="34" i="37" r="0.5" tabindex="37">
<title>
v:37
</title>
</circle>
<circle cx="60" cy="48" i="38" r="0.5" tabindex="38">
<title>
v:38
</title>
</circle>
<circle cx="62" cy="42" i="39" r="0.5" tabindex="39">
<title>
v:39
</title>
</circle>
<circle cx="65" cy="39" i="40" r="0.5" tabindex="40">
<title>
v:40
</title>
</circle>
<circle cx="65" cy="45" i="41" r="0.5" tabindex="41">
<title>
v:41
</title>
</circle>
<circle cx="73" cy="53" i="42" r="0.5" tabindex="42">
<title>
v:42
</title>
</circle>
<circle cx="74" cy="60" i="43" r="0.5" tabindex="43">
<title>
v:43
</title>
</circle>
<circle cx="77" cy="63" i="44" r="0.5" tabindex="44">
<title>
v:44
</title>
</circle>
<circle cx="80" cy="56" i="45" r="0.5" tabindex="45">
<title>
v:45
</title>
</circle>
<circle cx="81" cy="31" i="46" r="0.5" tabindex="46">
<title>
v:46
</title>
</circle>
<circle cx="82" cy="13" i="47" r="0.5" tabindex="47">
<title>
v:47
</title>
</circle>
<circle cx="82" cy="16" i="48" r="0.5" tabindex="48">
<title>
v:48
</title>
</circle>
<circle cx="85" cy="59" i="49" r="0.5" tabindex="49">
<title>
v:49
</title>
</circle>
<circle cx="86" cy="22" i="50" r="0.5" tabindex="50">
<title>
v:50
</title>
</circle>
<circle cx="86" cy="31" i="51" r="0.5" tabindex="51">
<title>
v:51
</title>
</circle>
<circle cx="86" cy="47" i="52" r="0.5" tabindex="52">
<title>
v:52
</title>
</circle>
<circle cx="91" cy="22" i="53" r="0.5" tabindex="53">
<title>
v:53
</title>
</circle>
<circle cx="91" cy="31" i="54" r="0.5" tabindex="54">
<title>
v:54
</title>
</circle>
<circle cx="93" cy="55" i="55" r="0.5" tabindex="55">
<title>
v:55
</title>
</circle>
<circle cx="96" cy="13" i="56" r="0.5" tabindex="56">
<title>
v:56
</title>
</circle>
<circle cx="96" cy="16" i="57" r="0.5" tabindex="57">
<title>
v:57
</title>
</circle>
</g>
</svg>