<svg height="500" viewBox="-2 2 149 176" width="500" xmlns="http://www.w3.org/2000/svg">
<path class="hole" d="M8 164L39 174L82 176L120 173L145 159L121 143L95 137L96 105L89 74L79 55L102 61L127 71L114 45L89 36L76 40L92 24L119 4L83 4L63 22L64 42L47 24L16 28L0 49L48 49L24 55L12 77L17 99L37 82L37 103L52 119L60 78L63 100L62 135L32 140M-2 2L147 2L147 178L-2 178" style="fill:#00000066;fill-rule:evenodd;"/>
<circle cx="99" cy="160" r="5" style="fill:#ffff0066;" title="BreakALeg"/>
<path class="ok" d="M34 83L48 71M39 95L62 66M41 146L52 147M41 146L58 158M46 107L57 93M48 71L62 66M51 108L57 93M56 82L57 93M56 82L62 66M58 158L70 153M62 66L70 75M62 66L79 62M64 96L75 100M65 79L70 75M65 79L72 80M65 87L67 93M65 141L70 153M65 141L79 134M67 93L75 96M70 75L72 80M70 153L84 152M72 80L72 84M72 84L77 91M72 84L81 86M75 96L75 100M75 96L77 91M75 96L82 96M75 100L79 134M75 100L85 99M77 91L81 86M79 134L95 132M81 86L83 81M82 96L88 91M83 81L88 77M83 81L90 84M84 152L95 132M84 152L99 154M85 99L91 98M85 99L91 115M88 77L90 84M91 115L95 132M99 154L113 145M101 142L113 145" style="stroke:#0000ff;stroke-linecap:round"/>
<path class="out" d="M19 126L20 105M19 126L35 121M20 105L34 83M20 105L39 95M35 121L39 95M35 121L51 108M39 134L41 146M39 134L55 133M44 133L46 107M44 133L56 142M44 133L61 122M46 107L61 112M52 147L55 133M55 116L55 133M55 116L64 96M55 133L65 141M56 82L64 96M56 142L65 131M57 93L64 96M61 112L61 122M61 112L64 96M61 122L65 131M79 62L94 73M85 99L93 90M88 77L94 73M91 98L93 90M91 98L101 104M91 115L97 121M91 115L101 104M93 90L94 73M93 90L94 105M94 73L112 86M94 73L112 108M94 105L108 123M95 132L102 126M97 121L101 133M97 121L118 121M101 104L118 121M101 133L115 133M101 142L102 126M102 126L112 130M108 123L112 108M108 123L129 129M112 86L126 110M112 108L126 110M112 130L113 145M115 133L118 121M126 110L129 129" style="stroke:#ff0000;stroke-linecap:round"/>
<g fill="#333333">
<circle cx="8" cy="164" r="0.5" tabindex="0">
<title>
hole:0
</title>
</circle>
<circle cx="39" cy="174" r="0.5" tabindex="1">
<title>
hole:1
</title>
</circle>
<circle cx="82" cy="176" r="0.5" tabindex="2">
<title>
hole:2
</title>
</circle>
<circle cx="120" cy="173" r="0.5" tabindex="3">
<title>
hole:3
</title>
</circle>
<circle cx="145" cy="159" r="0.5" tabindex="4">
<title>
hole:4
</title>
</circle>
<circle cx="121" cy="143" r="0.5" tabindex="5">
<title>
hole:5
</title>
</circle>
<circle cx="95" cy="137" r="0.5" tabindex="6">
<title>
hole:6
</title>
</circle>
<circle cx="96" cy="105" r="0.5" tabindex="7">
<title>
hole:7
</title>
</circle>
<circle cx="89" cy="74" r="0.5" tabindex="8">
<title>
hole:8
</title>
</circle>
<circle cx="79" cy="55" r="0.5" tabindex="9">
<title>
hole:9
</title>
</circle>
<circle cx="102" cy="61" r="0.5" tabindex="10">
<title>
hole:10
</title>
</circle>
<circle cx="127" cy="71" r="0.5" tabindex="11">
<title>
hole:11
</title>
</circle>
<circle cx="114" cy="45" r="0.5" tabindex="12">
<title>
hole:12
</title>
</circle>
<circle cx="89" cy="36" r="0.5" tabindex="13">
<title>
hole:13
</title>
</circle>
<circle cx="76" cy="40" r="0.5" tabindex="14">
<title>
hole:14
</title>
</circle>
<circle cx="92" cy="24" r="0.5" tabindex="15">
<title>
hole:15
</title>
</circle>
<circle cx="119" cy="4" r="0.5" tabindex="16">
<title>
hole:16
</title>
</circle>
<circle cx="83" cy="4" r="0.5" tabindex="17">
<title>
hole:17
</title>
</circle>
<circle cx="63" cy="22" r="0.5" tabindex="18">
<title>
hole:18
</title>
</circle>
<circle cx="64" cy="42" r="0.5" tabindex="19">
<title>
hole:19
</title>
</circle>
<circle cx="47" cy="24" r="0.5" tabindex="20">
<title>
hole:20
</title>
</circle>
<circle cx="16" cy="28" r="0.5" tabindex="21">
<title>
hole:21
</title>
</circle>
<circle cx="0" cy="49" r="0.5" tabindex="22">
<title>
hole:22
</title>
</circle>
<circle cx="48" cy="49" r="0.5" tabindex="23">
<title>
hole:23
</title>
</circle>
<circle cx="24" cy="55" r="0.5" tabindex="24">
<title>
hole:24
</title>
</circle>
<circle cx="12" cy="77" r="0.5" tabindex="25">
<title>
hole:25
</title>
</circle>
<circle cx="17" cy="99" r="0.5" tabindex="26">
<title>
hole:26
</title>
</circle>
<circle cx="37" cy="82" r="0.5" tabindex="27">
<title>
hole:27
</title>
</circle>
<circle cx="37" cy="103" r="0.5" tabindex="28">
<title>
hole:28
</title>
</circle>
<circle cx="52" cy="119" r="0.5" tabindex="29">
<title>
hole:29
</title>
</circle>
<circle cx="60" cy="78" r="0.5" tabindex="30">
<title>
hole:30
</title>
</circle>
<circle cx="63" cy="100" r="0.5" tabindex="31">
<title>
hole:31
</title>
</circle>
<circle cx="62" cy="135" r="0.5" tabindex="32">
<title>
hole:32
</title>
</circle>
<circle cx="32" cy="140" r="0.5" tabindex="33">
<title>
hole:33
</title>
</circle>
</g>
<g fill="#999999">
<circle cx="19" cy="126" r="0.5" tabindex="34">
<title>
v:0
</title>
</circle>
<circle cx="20" cy="105" r="0.5" tabindex="35">
<title>
v:1
</title>
</circle>
<circle cx="34" cy="83" r="0.5" tabindex="36">
<title>
v:2
</title>
</circle>
<circle cx="35" cy="121" r="0.5" tabindex="37">
<title>
v:3
</title>
</circle>
<circle cx="39" cy="95" r="0.5" tabindex="38">
<title>
v:4
</title>
</circle>
<circle cx="39" cy="134" r="0.5" tabindex="39">
<title>
v:5
</title>
</circle>
<circle cx="41" cy="146" r="0.5" tabindex="40">
<title>
v:6
</title>
</circle>
<circle cx="44" cy="133" r="0.5" tabindex="41">
<title>
v:7
</title>
</circle>
<circle cx="46" cy="107" r="0.5" tabindex="42">
<title>
v:8
</title>
</circle>
<circle cx="48" cy="71" r="0.5" tabindex="43">
<title>
v:9
</title>
</circle>
<circle cx="51" cy="108" r="0.5" tabindex="44">
<title>
v:10
</title>
</circle>
<circle cx="52" cy="147" r="0.5" tabindex="45">
<title>
v:11
</title>
</circle>
<circle cx="55" cy="116" r="0.5" tabindex="46">
<title>
v:12
</title>
</circle>
<circle cx="55" cy="133" r="0.5" tabindex="47">
<title>
v:13
</title>
</circle>
<circle cx="56" cy="82" r="0.5" tabindex="48">
<title>
v:14
</title>
</circle>
<circle cx="56" cy="142" r="0.5" tabindex="49">
<title>
v:15
</title>
</circle>
<circle cx="57" cy="93" r="0.5" tabindex="50">
<title>
v:16
</title>
</circle>
<circle cx="58" cy="158" r="0.5" tabindex="51">
<title>
v:17
</title>
</circle>
<circle cx="61" cy="112" r="0.5" tabindex="52">
<title>
v:18
</title>
</circle>
<circle cx="61" cy="122" r="0.5" tabindex="53">
<title>
v:19
</title>
</circle>
<circle cx="62" cy="66" r="0.5" tabindex="54">
<title>
v:20
</title>
</circle>
<circle cx="64" cy="96" r="0.5" tabindex="55">
<title>
v:21
</title>
</circle>
<circle cx="65" cy="79" r="0.5" tabindex="56">
<title>
v:22
</title>
</circle>
<circle cx="65" cy="87" r="0.5" tabindex="57">
<title>
v:23
</title>
</circle>
<circle cx="65" cy="131" r="0.5" tabindex="58">
<title>
v:24
</title>
</circle>
<circle cx="65" cy="141" r="0.5" tabindex="59">
<title>
v:25
</title>
</circle>
<circle cx="67" cy="93" r="0.5" tabindex="60">
<title>
v:26
</title>
</circle>
<circle cx="70" cy="75" r="0.5" tabindex="61">
<title>
v:27
</title>
</circle>
<circle cx="70" cy="153" r="0.5" tabindex="62">
<title>
v:28
</title>
</circle>
<circle cx="72" cy="80" r="0.5" tabindex="63">
<title>
v:29
</title>
</circle>
<circle cx="72" cy="84" r="0.5" tabindex="64">
<title>
v:30
</title>
</circle>
<circle cx="75" cy="96" r="0.5" tabindex="65">
<title>
v:31
</title>
</circle>
<circle cx="75" cy="100" r="0.5" tabindex="66">
<title>
v:32
</title>
</circle>
<circle cx="77" cy="91" r="0.5" tabindex="67">
<title>
v:33
</title>
</circle>
<circle cx="79" cy="62" r="0.5" tabindex="68">
<title>
v:34
</title>
</circle>
<circle cx="79" cy="134" r="0.5" tabindex="69">
<title>
v:35
</title>
</circle>
<circle cx="81" cy="86" r="0.5" tabindex="70">
<title>
v:36
</title>
</circle>
<circle cx="82" cy="96" r="0.5" tabindex="71">
<title>
v:37
</title>
</circle>
<circle cx="83" cy="81" r="0.5" tabindex="72">
<title>
v:38
</title>
</circle>
<circle cx="84" cy="152" r="0.5" tabindex="73">
<title>
v:39
</title>
</circle>
<circle cx="85" cy="99" r="0.5" tabindex="74">
<title>
v:40
</title>
</circle>
<circle cx="88" cy="77" r="0.5" tabindex="75">
<title>
v:41
</title>
</circle>
<circle cx="88" cy="91" r="0.5" tabindex="76">
<title>
v:42
</title>
</circle>
<circle cx="90" cy="84" r="0.5" tabindex="77">
<title>
v:43
</title>
</circle>
<circle cx="91" cy="98" r="0.5" tabindex="78">
<title>
v:44
</title>
</circle>
<circle cx="91" cy="115" r="0.5" tabindex="79">
<title>
v:45
</title>
</circle>
<circle cx="93" cy="90" r="0.5" tabindex="80">
<title>
v:46
</title>
</circle>
<circle cx="94" cy="73" r="0.5" tabindex="81">
<title>
v:47
</title>
</circle>
<circle cx="94" cy="105" r="0.5" tabindex="82">
<title>
v:48
</title>
</circle>
<circle cx="95" cy="132" r="0.5" tabindex="83">
<title>
v:49
</title>
</circle>
<circle cx="97" cy="121" r="0.5" tabindex="84">
<title>
v:50
</title>
</circle>
<circle cx="99" cy="154" r="0.5" tabindex="85">
<title>
v:51
</title>
</circle>
<circle cx="101" cy="104" r="0.5" tabindex="86">
<title>
v:52
</title>
</circle>
<circle cx="101" cy="133" r="0.5" tabindex="87">
<title>
v:53
</title>
</circle>
<circle cx="101" cy="142" r="0.5" tabindex="88">
<title>
v:54
</title>
</circle>
<circle cx="102" cy="126" r="0.5" tabindex="89">
<title>
v:55
</title>
</circle>
<circle cx="108" cy="123" r="0.5" tabindex="90">
<title>
v:56
</title>
</circle>
<circle cx="112" cy="86" r="0.5" tabindex="91">
<title>
v:57
</title>
</circle>
<circle cx="112" cy="108" r="0.5" tabindex="92">
<title>
v:58
</title>
</circle>
<circle cx="112" cy="130" r="0.5" tabindex="93">
<title>
v:59
</title>
</circle>
<circle cx="113" cy="145" r="0.5" tabindex="94">
<title>
v:60
</title>
</circle>
<circle cx="115" cy="133" r="0.5" tabindex="95">
<title>
v:61
</title>
</circle>
<circle cx="118" cy="121" r="0.5" tabindex="96">
<title>
v:62
</title>
</circle>
<circle cx="126" cy="110" r="0.5" tabindex="97">
<title>
v:63
</title>
</circle>
<circle cx="129" cy="129" r="0.5" tabindex="98">
<title>
v:64
</title>
</circle>
</g>
</svg>