<svg height="500" viewBox="-2 2 149 176" width="500" xmlns="http://www.w3.org/2000/svg">
<path class="hole" d="M8 164L39 174L82 176L120 173L145 159L121 143L95 137L96 105L89 74L79 55L102 61L127 71L114 45L89 36L76 40L92 24L119 4L83 4L63 22L64 42L47 24L16 28L0 49L48 49L24 55L12 77L17 99L37 82L37 103L52 119L60 78L63 100L62 135L32 140M-2 2L147 2L147 178L-2 178" style="fill:#00000066;fill-rule:evenodd;"/>
<circle cx="60" cy="160" fill="#ffff0066" r="5">
<title>
SuperFlex@98
</title>
</circle>
<circle cx="99" cy="160" fill="#ffff0066" r="5">
<title>
BreakALeg@84
</title>
</circle>
<circle cx="78" cy="118" fill="#ffff0066" r="5">
<title>
WallHack@40
</title>
</circle>
<path class="ok" d="M41 95L64 66M43 146L54 147M43 146L60 158M50 71L64 66M58 82L64 66M58 142L67 131M60 158L72 153M63 112L63 122M63 112L66 96M63 122L67 131M64 66L72 75M64 66L81 62M66 96L77 100M67 79L72 75M67 79L74 80M67 87L69 93M67 141L72 153M67 141L81 134M69 93L77 96M72 75L74 80M72 153L86 152M74 80L74 84M74 84L79 91M74 84L83 86M77 96L77 100M77 96L79 91M77 96L84 96M77 100L81 134M77 100L87 99M79 91L83 86M83 86L85 81M84 96L90 91M86 152L101 154M87 99L93 98M87 99L93 115M101 154L115 145M103 142L115 145" style="stroke:#0000ff;stroke-linecap:round"/>
<path class="out" d="M21 126L22 105M21 126L37 121M22 105L36 83M22 105L41 95M36 83L50 71M37 121L41 95M37 121L53 108M41 134L43 146M41 134L57 133M46 133L48 107M46 133L58 142M46 133L63 122M48 107L59 93M48 107L63 112M53 108L59 93M54 147L57 133M57 116L57 133M57 116L66 96M57 133L67 141M58 82L59 93M58 82L66 96M59 93L66 96M81 62L96 73M81 134L97 132M85 81L90 77M85 81L92 84M86 152L97 132M87 99L95 90M90 77L92 84M90 77L96 73M93 98L95 90M93 98L103 104M93 115L97 132M93 115L99 121M93 115L103 104M95 90L96 73M95 90L96 105M96 73L114 86M96 73L114 108M96 105L110 123M97 132L104 126M99 121L103 133M99 121L120 121M103 104L120 121M103 133L117 133M103 142L104 126M104 126L114 130M110 123L114 108M110 123L131 129M114 86L128 110M114 108L128 110M114 130L115 145M117 133L120 121M128 110L131 129" style="stroke:#ff0000;stroke-linecap:round"/>
<g fill="#333333">
<circle cx="8" cy="164" r="0.5">
<title>
hole:0
</title>
</circle>
<circle cx="39" cy="174" r="0.5">
<title>
hole:1
</title>
</circle>
<circle cx="82" cy="176" r="0.5">
<title>
hole:2
</title>
</circle>
<circle cx="120" cy="173" r="0.5">
<title>
hole:3
</title>
</circle>
<circle cx="145" cy="159" r="0.5">
<title>
hole:4
</title>
</circle>
<circle cx="121" cy="143" r="0.5">
<title>
hole:5
</title>
</circle>
<circle cx="95" cy="137" r="0.5">
<title>
hole:6
</title>
</circle>
<circle cx="96" cy="105" r="0.5">
<title>
hole:7
</title>
</circle>
<circle cx="89" cy="74" r="0.5">
<title>
hole:8
</title>
</circle>
<circle cx="79" cy="55" r="0.5">
<title>
hole:9
</title>
</circle>
<circle cx="102" cy="61" r="0.5">
<title>
hole:10
</title>
</circle>
<circle cx="127" cy="71" r="0.5">
<title>
hole:11
</title>
</circle>
<circle cx="114" cy="45" r="0.5">
<title>
hole:12
</title>
</circle>
<circle cx="89" cy="36" r="0.5">
<title>
hole:13
</title>
</circle>
<circle cx="76" cy="40" r="0.5">
<title>
hole:14
</title>
</circle>
<circle cx="92" cy="24" r="0.5">
<title>
hole:15
</title>
</circle>
<circle cx="119" cy="4" r="0.5">
<title>
hole:16
</title>
</circle>
<circle cx="83" cy="4" r="0.5">
<title>
hole:17
</title>
</circle>
<circle cx="63" cy="22" r="0.5">
<title>
hole:18
</title>
</circle>
<circle cx="64" cy="42" r="0.5">
<title>
hole:19
</title>
</circle>
<circle cx="47" cy="24" r="0.5">
<title>
hole:20
</title>
</circle>
<circle cx="16" cy="28" r="0.5">
<title>
hole:21
</title>
</circle>
<circle cx="0" cy="49" r="0.5">
<title>
hole:22
</title>
</circle>
<circle cx="48" cy="49" r="0.5">
<title>
hole:23
</title>
</circle>
<circle cx="24" cy="55" r="0.5">
<title>
hole:24
</title>
</circle>
<circle cx="12" cy="77" r="0.5">
<title>
hole:25
</title>
</circle>
<circle cx="17" cy="99" r="0.5">
<title>
hole:26
</title>
</circle>
<circle cx="37" cy="82" r="0.5">
<title>
hole:27
</title>
</circle>
<circle cx="37" cy="103" r="0.5">
<title>
hole:28
</title>
</circle>
<circle cx="52" cy="119" r="0.5">
<title>
hole:29
</title>
</circle>
<circle cx="60" cy="78" r="0.5">
<title>
hole:30
</title>
</circle>
<circle cx="63" cy="100" r="0.5">
<title>
hole:31
</title>
</circle>
<circle cx="62" cy="135" r="0.5">
<title>
hole:32
</title>
</circle>
<circle cx="32" cy="140" r="0.5">
<title>
hole:33
</title>
</circle>
</g>
<g fill="#999999">
<circle cx="21" cy="126" i="0" r="0.5" tabindex="0">
<title>
v:0
</title>
</circle>
<circle cx="22" cy="105" i="1" r="0.5" tabindex="1">
<title>
v:1
</title>
</circle>
<circle cx="36" cy="83" i="2" r="0.5" tabindex="2">
<title>
v:2
</title>
</circle>
<circle cx="37" cy="121" i="3" r="0.5" tabindex="3">
<title>
v:3
</title>
</circle>
<circle cx="41" cy="95" i="4" r="0.5" tabindex="4">
<title>
v:4
</title>
</circle>
<circle cx="41" cy="134" i="5" r="0.5" tabindex="5">
<title>
v:5
</title>
</circle>
<circle cx="43" cy="146" i="6" r="0.5" tabindex="6">
<title>
v:6
</title>
</circle>
<circle cx="46" cy="133" i="7" r="0.5" tabindex="7">
<title>
v:7
</title>
</circle>
<circle cx="48" cy="107" i="8" r="0.5" tabindex="8">
<title>
v:8
</title>
</circle>
<circle cx="50" cy="71" i="9" r="0.5" tabindex="9">
<title>
v:9
</title>
</circle>
<circle cx="53" cy="108" i="10" r="0.5" tabindex="10">
<title>
v:10
</title>
</circle>
<circle cx="54" cy="147" i="11" r="0.5" tabindex="11">
<title>
v:11
</title>
</circle>
<circle cx="57" cy="116" i="12" r="0.5" tabindex="12">
<title>
v:12
</title>
</circle>
<circle cx="57" cy="133" i="13" r="0.5" tabindex="13">
<title>
v:13
</title>
</circle>
<circle cx="58" cy="82" i="14" r="0.5" tabindex="14">
<title>
v:14
</title>
</circle>
<circle cx="58" cy="142" i="15" r="0.5" tabindex="15">
<title>
v:15
</title>
</circle>
<circle cx="59" cy="93" i="16" r="0.5" tabindex="16">
<title>
v:16
</title>
</circle>
<circle cx="60" cy="158" i="17" r="0.5" tabindex="17">
<title>
v:17
</title>
</circle>
<circle cx="63" cy="112" i="18" r="0.5" tabindex="18">
<title>
v:18
</title>
</circle>
<circle cx="63" cy="122" i="19" r="0.5" tabindex="19">
<title>
v:19
</title>
</circle>
<circle cx="64" cy="66" i="20" r="0.5" tabindex="20">
<title>
v:20
</title>
</circle>
<circle cx="66" cy="96" i="21" r="0.5" tabindex="21">
<title>
v:21
</title>
</circle>
<circle cx="67" cy="79" i="22" r="0.5" tabindex="22">
<title>
v:22
</title>
</circle>
<circle cx="67" cy="87" i="23" r="0.5" tabindex="23">
<title>
v:23
</title>
</circle>
<circle cx="67" cy="131" i="24" r="0.5" tabindex="24">
<title>
v:24
</title>
</circle>
<circle cx="67" cy="141" i="25" r="0.5" tabindex="25">
<title>
v:25
</title>
</circle>
<circle cx="69" cy="93" i="26" r="0.5" tabindex="26">
<title>
v:26
</title>
</circle>
<circle cx="72" cy="75" i="27" r="0.5" tabindex="27">
<title>
v:27
</title>
</circle>
<circle cx="72" cy="153" i="28" r="0.5" tabindex="28">
<title>
v:28
</title>
</circle>
<circle cx="74" cy="80" i="29" r="0.5" tabindex="29">
<title>
v:29
</title>
</circle>
<circle cx="74" cy="84" i="30" r="0.5" tabindex="30">
<title>
v:30
</title>
</circle>
<circle cx="77" cy="96" i="31" r="0.5" tabindex="31">
<title>
v:31
</title>
</circle>
<circle cx="77" cy="100" i="32" r="0.5" tabindex="32">
<title>
v:32
</title>
</circle>
<circle cx="79" cy="91" i="33" r="0.5" tabindex="33">
<title>
v:33
</title>
</circle>
<circle cx="81" cy="62" i="34" r="0.5" tabindex="34">
<title>
v:34
</title>
</circle>
<circle cx="81" cy="134" i="35" r="0.5" tabindex="35">
<title>
v:35
</title>
</circle>
<circle cx="83" cy="86" i="36" r="0.5" tabindex="36">
<title>
v:36
</title>
</circle>
<circle cx="84" cy="96" i="37" r="0.5" tabindex="37">
<title>
v:37
</title>
</circle>
<circle cx="85" cy="81" i="38" r="0.5" tabindex="38">
<title>
v:38
</title>
</circle>
<circle cx="86" cy="152" i="39" r="0.5" tabindex="39">
<title>
v:39
</title>
</circle>
<circle cx="87" cy="99" i="40" r="0.5" tabindex="40">
<title>
v:40
</title>
</circle>
<circle cx="90" cy="77" i="41" r="0.5" tabindex="41">
<title>
v:41
</title>
</circle>
<circle cx="90" cy="91" i="42" r="0.5" tabindex="42">
<title>
v:42
</title>
</circle>
<circle cx="92" cy="84" i="43" r="0.5" tabindex="43">
<title>
v:43
</title>
</circle>
<circle cx="93" cy="98" i="44" r="0.5" tabindex="44">
<title>
v:44
</title>
</circle>
<circle cx="93" cy="115" i="45" r="0.5" tabindex="45">
<title>
v:45
</title>
</circle>
<circle cx="95" cy="90" i="46" r="0.5" tabindex="46">
<title>
v:46
</title>
</circle>
<circle cx="96" cy="73" i="47" r="0.5" tabindex="47">
<title>
v:47
</title>
</circle>
<circle cx="96" cy="105" i="48" r="0.5" tabindex="48">
<title>
v:48
</title>
</circle>
<circle cx="97" cy="132" i="49" r="0.5" tabindex="49">
<title>
v:49
</title>
</circle>
<circle cx="99" cy="121" i="50" r="0.5" tabindex="50">
<title>
v:50
</title>
</circle>
<circle cx="101" cy="154" i="51" r="0.5" tabindex="51">
<title>
v:51
</title>
</circle>
<circle cx="103" cy="104" i="52" r="0.5" tabindex="52">
<title>
v:52
</title>
</circle>
<circle cx="103" cy="133" i="53" r="0.5" tabindex="53">
<title>
v:53
</title>
</circle>
<circle cx="103" cy="142" i="54" r="0.5" tabindex="54">
<title>
v:54
</title>
</circle>
<circle cx="104" cy="126" i="55" r="0.5" tabindex="55">
<title>
v:55
</title>
</circle>
<circle cx="110" cy="123" i="56" r="0.5" tabindex="56">
<title>
v:56
</title>
</circle>
<circle cx="114" cy="86" i="57" r="0.5" tabindex="57">
<title>
v:57
</title>
</circle>
<circle cx="114" cy="108" i="58" r="0.5" tabindex="58">
<title>
v:58
</title>
</circle>
<circle cx="114" cy="130" i="59" r="0.5" tabindex="59">
<title>
v:59
</title>
</circle>
<circle cx="115" cy="145" i="60" r="0.5" tabindex="60">
<title>
v:60
</title>
</circle>
<circle cx="117" cy="133" i="61" r="0.5" tabindex="61">
<title>
v:61
</title>
</circle>
<circle cx="120" cy="121" i="62" r="0.5" tabindex="62">
<title>
v:62
</title>
</circle>
<circle cx="128" cy="110" i="63" r="0.5" tabindex="63">
<title>
v:63
</title>
</circle>
<circle cx="131" cy="129" i="64" r="0.5" tabindex="64">
<title>
v:64
</title>
</circle>
</g>
</svg>