<svg height="500" viewBox="0 -2 248 293" width="500" xmlns="http://www.w3.org/2000/svg">
<path class="hole" d="M2 36L2 71L42 45L45 73L49 101L73 138L24 120L22 159L15 199L34 214L44 246L14 231L19 273L59 289L85 248L130 289L123 236L77 194L142 171L166 212L152 243L172 289L234 273L200 245L192 200L220 205L246 204L246 106L196 93L246 79L233 24L195 38L214 6L183 0L139 9L166 33L159 73L138 56L103 99L115 38L92 9L68 4L37 20L13 0M0 -2L248 -2L248 291L0 291" style="fill:#00000066;fill-rule:evenodd;"/>
<circle cx="83" cy="63" r="5" style="fill:#ffff0066;" title="Globalist"/>
<circle cx="245" cy="165" r="5" style="fill:#ffff0066;" title="WallHack"/>
<path class="ok" d="M59 91L70 111M59 91L79 80M61 148L82 169M61 148L86 143M70 111L90 100M70 111L90 124M70 111L91 98M72 148L92 145M76 81L90 63M76 81L90 100M79 80L91 98M79 80L97 80M81 182L94 163M81 182L102 184M82 116L91 98M82 116L99 125M82 169L86 143M86 143L90 124M86 143L94 163M86 143L106 135M90 63L98 40M90 100L90 124M90 124L92 145M90 124L94 108M90 124L106 135M90 124L112 131M91 98L97 80M91 98L108 107M92 145L112 131M94 108L113 103M94 163L102 184M94 163L117 156M99 125L108 107M102 184L127 176M106 135L117 156M106 135L122 126M108 107L122 98M112 93L126 112M112 93L131 97M112 131L126 112M112 131L131 145M113 103L122 126M117 156L127 176M119 161L131 145M119 161L134 172M126 112L145 126M131 97L146 84M131 97L153 102M131 145L145 126M131 145L147 157M134 172L147 157M136 63L146 84M145 126L164 140M146 84L153 102M146 84L164 76M147 157L164 140M147 157L174 165M153 102L159 122M153 102L173 99M159 122L180 118M164 76L173 99M164 76L179 59M164 140L174 165M173 99L180 118M173 99L199 98M179 59L204 42M179 59L204 75M204 42L204 75" style="stroke:#0000ff;stroke-linecap:round"/>
<path class="out" d="M40 107L53 124M40 107L59 91M53 124L61 148M53 124L70 111M66 129L72 148M66 129L90 124M81 182L81 204M81 204L96 203M90 63L113 71M90 100L112 93M96 203L102 184M97 80L117 80M98 40L121 48M102 184L105 207M102 238L105 207M102 238L129 249M105 207L135 201M112 93L113 71M113 71L121 48M113 71L136 63M117 80L122 98M127 176L135 201M129 249L150 227M135 201L150 227M199 98L204 75" style="stroke:#ff0000;stroke-linecap:round"/>
<g fill="#333333">
<circle cx="2" cy="36" r="0.5" tabindex="0">
<title>
hole:0
</title>
</circle>
<circle cx="2" cy="71" r="0.5" tabindex="1">
<title>
hole:1
</title>
</circle>
<circle cx="42" cy="45" r="0.5" tabindex="2">
<title>
hole:2
</title>
</circle>
<circle cx="45" cy="73" r="0.5" tabindex="3">
<title>
hole:3
</title>
</circle>
<circle cx="49" cy="101" r="0.5" tabindex="4">
<title>
hole:4
</title>
</circle>
<circle cx="73" cy="138" r="0.5" tabindex="5">
<title>
hole:5
</title>
</circle>
<circle cx="24" cy="120" r="0.5" tabindex="6">
<title>
hole:6
</title>
</circle>
<circle cx="22" cy="159" r="0.5" tabindex="7">
<title>
hole:7
</title>
</circle>
<circle cx="15" cy="199" r="0.5" tabindex="8">
<title>
hole:8
</title>
</circle>
<circle cx="34" cy="214" r="0.5" tabindex="9">
<title>
hole:9
</title>
</circle>
<circle cx="44" cy="246" r="0.5" tabindex="10">
<title>
hole:10
</title>
</circle>
<circle cx="14" cy="231" r="0.5" tabindex="11">
<title>
hole:11
</title>
</circle>
<circle cx="19" cy="273" r="0.5" tabindex="12">
<title>
hole:12
</title>
</circle>
<circle cx="59" cy="289" r="0.5" tabindex="13">
<title>
hole:13
</title>
</circle>
<circle cx="85" cy="248" r="0.5" tabindex="14">
<title>
hole:14
</title>
</circle>
<circle cx="130" cy="289" r="0.5" tabindex="15">
<title>
hole:15
</title>
</circle>
<circle cx="123" cy="236" r="0.5" tabindex="16">
<title>
hole:16
</title>
</circle>
<circle cx="77" cy="194" r="0.5" tabindex="17">
<title>
hole:17
</title>
</circle>
<circle cx="142" cy="171" r="0.5" tabindex="18">
<title>
hole:18
</title>
</circle>
<circle cx="166" cy="212" r="0.5" tabindex="19">
<title>
hole:19
</title>
</circle>
<circle cx="152" cy="243" r="0.5" tabindex="20">
<title>
hole:20
</title>
</circle>
<circle cx="172" cy="289" r="0.5" tabindex="21">
<title>
hole:21
</title>
</circle>
<circle cx="234" cy="273" r="0.5" tabindex="22">
<title>
hole:22
</title>
</circle>
<circle cx="200" cy="245" r="0.5" tabindex="23">
<title>
hole:23
</title>
</circle>
<circle cx="192" cy="200" r="0.5" tabindex="24">
<title>
hole:24
</title>
</circle>
<circle cx="220" cy="205" r="0.5" tabindex="25">
<title>
hole:25
</title>
</circle>
<circle cx="246" cy="204" r="0.5" tabindex="26">
<title>
hole:26
</title>
</circle>
<circle cx="246" cy="106" r="0.5" tabindex="27">
<title>
hole:27
</title>
</circle>
<circle cx="196" cy="93" r="0.5" tabindex="28">
<title>
hole:28
</title>
</circle>
<circle cx="246" cy="79" r="0.5" tabindex="29">
<title>
hole:29
</title>
</circle>
<circle cx="233" cy="24" r="0.5" tabindex="30">
<title>
hole:30
</title>
</circle>
<circle cx="195" cy="38" r="0.5" tabindex="31">
<title>
hole:31
</title>
</circle>
<circle cx="214" cy="6" r="0.5" tabindex="32">
<title>
hole:32
</title>
</circle>
<circle cx="183" cy="0" r="0.5" tabindex="33">
<title>
hole:33
</title>
</circle>
<circle cx="139" cy="9" r="0.5" tabindex="34">
<title>
hole:34
</title>
</circle>
<circle cx="166" cy="33" r="0.5" tabindex="35">
<title>
hole:35
</title>
</circle>
<circle cx="159" cy="73" r="0.5" tabindex="36">
<title>
hole:36
</title>
</circle>
<circle cx="138" cy="56" r="0.5" tabindex="37">
<title>
hole:37
</title>
</circle>
<circle cx="103" cy="99" r="0.5" tabindex="38">
<title>
hole:38
</title>
</circle>
<circle cx="115" cy="38" r="0.5" tabindex="39">
<title>
hole:39
</title>
</circle>
<circle cx="92" cy="9" r="0.5" tabindex="40">
<title>
hole:40
</title>
</circle>
<circle cx="68" cy="4" r="0.5" tabindex="41">
<title>
hole:41
</title>
</circle>
<circle cx="37" cy="20" r="0.5" tabindex="42">
<title>
hole:42
</title>
</circle>
<circle cx="13" cy="0" r="0.5" tabindex="43">
<title>
hole:43
</title>
</circle>
</g>
<g fill="#999999">
<circle cx="40" cy="107" r="0.5" tabindex="44">
<title>
v:0
</title>
</circle>
<circle cx="53" cy="124" r="0.5" tabindex="45">
<title>
v:1
</title>
</circle>
<circle cx="59" cy="91" r="0.5" tabindex="46">
<title>
v:2
</title>
</circle>
<circle cx="61" cy="148" r="0.5" tabindex="47">
<title>
v:3
</title>
</circle>
<circle cx="66" cy="129" r="0.5" tabindex="48">
<title>
v:4
</title>
</circle>
<circle cx="70" cy="111" r="0.5" tabindex="49">
<title>
v:5
</title>
</circle>
<circle cx="72" cy="148" r="0.5" tabindex="50">
<title>
v:6
</title>
</circle>
<circle cx="76" cy="81" r="0.5" tabindex="51">
<title>
v:7
</title>
</circle>
<circle cx="79" cy="80" r="0.5" tabindex="52">
<title>
v:8
</title>
</circle>
<circle cx="81" cy="182" r="0.5" tabindex="53">
<title>
v:9
</title>
</circle>
<circle cx="81" cy="204" r="0.5" tabindex="54">
<title>
v:10
</title>
</circle>
<circle cx="82" cy="116" r="0.5" tabindex="55">
<title>
v:11
</title>
</circle>
<circle cx="82" cy="169" r="0.5" tabindex="56">
<title>
v:12
</title>
</circle>
<circle cx="86" cy="143" r="0.5" tabindex="57">
<title>
v:13
</title>
</circle>
<circle cx="90" cy="63" r="0.5" tabindex="58">
<title>
v:14
</title>
</circle>
<circle cx="90" cy="100" r="0.5" tabindex="59">
<title>
v:15
</title>
</circle>
<circle cx="90" cy="124" r="0.5" tabindex="60">
<title>
v:16
</title>
</circle>
<circle cx="91" cy="98" r="0.5" tabindex="61">
<title>
v:17
</title>
</circle>
<circle cx="92" cy="145" r="0.5" tabindex="62">
<title>
v:18
</title>
</circle>
<circle cx="94" cy="108" r="0.5" tabindex="63">
<title>
v:19
</title>
</circle>
<circle cx="94" cy="163" r="0.5" tabindex="64">
<title>
v:20
</title>
</circle>
<circle cx="96" cy="203" r="0.5" tabindex="65">
<title>
v:21
</title>
</circle>
<circle cx="97" cy="80" r="0.5" tabindex="66">
<title>
v:22
</title>
</circle>
<circle cx="98" cy="40" r="0.5" tabindex="67">
<title>
v:23
</title>
</circle>
<circle cx="99" cy="125" r="0.5" tabindex="68">
<title>
v:24
</title>
</circle>
<circle cx="102" cy="184" r="0.5" tabindex="69">
<title>
v:25
</title>
</circle>
<circle cx="102" cy="238" r="0.5" tabindex="70">
<title>
v:26
</title>
</circle>
<circle cx="105" cy="207" r="0.5" tabindex="71">
<title>
v:27
</title>
</circle>
<circle cx="106" cy="135" r="0.5" tabindex="72">
<title>
v:28
</title>
</circle>
<circle cx="108" cy="107" r="0.5" tabindex="73">
<title>
v:29
</title>
</circle>
<circle cx="112" cy="93" r="0.5" tabindex="74">
<title>
v:30
</title>
</circle>
<circle cx="112" cy="131" r="0.5" tabindex="75">
<title>
v:31
</title>
</circle>
<circle cx="113" cy="71" r="0.5" tabindex="76">
<title>
v:32
</title>
</circle>
<circle cx="113" cy="103" r="0.5" tabindex="77">
<title>
v:33
</title>
</circle>
<circle cx="117" cy="80" r="0.5" tabindex="78">
<title>
v:34
</title>
</circle>
<circle cx="117" cy="156" r="0.5" tabindex="79">
<title>
v:35
</title>
</circle>
<circle cx="119" cy="161" r="0.5" tabindex="80">
<title>
v:36
</title>
</circle>
<circle cx="121" cy="48" r="0.5" tabindex="81">
<title>
v:37
</title>
</circle>
<circle cx="122" cy="98" r="0.5" tabindex="82">
<title>
v:38
</title>
</circle>
<circle cx="122" cy="126" r="0.5" tabindex="83">
<title>
v:39
</title>
</circle>
<circle cx="126" cy="112" r="0.5" tabindex="84">
<title>
v:40
</title>
</circle>
<circle cx="127" cy="176" r="0.5" tabindex="85">
<title>
v:41
</title>
</circle>
<circle cx="129" cy="249" r="0.5" tabindex="86">
<title>
v:42
</title>
</circle>
<circle cx="131" cy="97" r="0.5" tabindex="87">
<title>
v:43
</title>
</circle>
<circle cx="131" cy="145" r="0.5" tabindex="88">
<title>
v:44
</title>
</circle>
<circle cx="134" cy="172" r="0.5" tabindex="89">
<title>
v:45
</title>
</circle>
<circle cx="135" cy="201" r="0.5" tabindex="90">
<title>
v:46
</title>
</circle>
<circle cx="136" cy="63" r="0.5" tabindex="91">
<title>
v:47
</title>
</circle>
<circle cx="145" cy="126" r="0.5" tabindex="92">
<title>
v:48
</title>
</circle>
<circle cx="146" cy="84" r="0.5" tabindex="93">
<title>
v:49
</title>
</circle>
<circle cx="147" cy="157" r="0.5" tabindex="94">
<title>
v:50
</title>
</circle>
<circle cx="150" cy="227" r="0.5" tabindex="95">
<title>
v:51
</title>
</circle>
<circle cx="153" cy="102" r="0.5" tabindex="96">
<title>
v:52
</title>
</circle>
<circle cx="159" cy="122" r="0.5" tabindex="97">
<title>
v:53
</title>
</circle>
<circle cx="164" cy="76" r="0.5" tabindex="98">
<title>
v:54
</title>
</circle>
<circle cx="164" cy="140" r="0.5" tabindex="99">
<title>
v:55
</title>
</circle>
<circle cx="173" cy="99" r="0.5" tabindex="100">
<title>
v:56
</title>
</circle>
<circle cx="174" cy="165" r="0.5" tabindex="101">
<title>
v:57
</title>
</circle>
<circle cx="179" cy="59" r="0.5" tabindex="102">
<title>
v:58
</title>
</circle>
<circle cx="180" cy="118" r="0.5" tabindex="103">
<title>
v:59
</title>
</circle>
<circle cx="199" cy="98" r="0.5" tabindex="104">
<title>
v:60
</title>
</circle>
<circle cx="204" cy="42" r="0.5" tabindex="105">
<title>
v:61
</title>
</circle>
<circle cx="204" cy="75" r="0.5" tabindex="106">
<title>
v:62
</title>
</circle>
</g>
</svg>