<svg height="500" viewBox="0 -2 248 293" width="500" xmlns="http://www.w3.org/2000/svg">
<path class="hole" d="M2 36L2 71L42 45L45 73L49 101L73 138L24 120L22 159L15 199L34 214L44 246L14 231L19 273L59 289L85 248L130 289L123 236L77 194L142 171L166 212L152 243L172 289L234 273L200 245L192 200L220 205L246 204L246 106L196 93L246 79L233 24L195 38L214 6L183 0L139 9L166 33L159 73L138 56L103 99L115 38L92 9L68 4L37 20L13 0M0 -2L248 -2L248 291L0 291" style="fill:#00000066;fill-rule:evenodd;"/>
<circle cx="83" cy="63" fill="#ffff0066" r="5">
<title>
Globalist@92
</title>
</circle>
<circle cx="245" cy="165" fill="#ffff0066" r="5">
<title>
WallHack@66
</title>
</circle>
<circle cx="53" cy="171" fill="#ffff0066" r="5">
<title>
WallHack@33
</title>
</circle>
<path class="ok" d="M61 91L72 111M61 91L81 80M63 148L84 169M63 148L88 143M68 129L92 124M72 111L92 100M72 111L92 124M72 111L93 98M74 148L94 145M78 81L92 63M78 81L92 100M81 80L93 98M81 80L99 80M83 182L96 163M83 182L104 184M84 116L93 98M84 116L101 125M84 169L88 143M88 143L92 124M88 143L96 163M88 143L108 135M92 63L100 40M92 100L92 124M92 124L94 145M92 124L96 108M92 124L108 135M92 124L114 131M93 98L99 80M93 98L110 107M94 145L114 131M96 108L115 103M96 163L104 184M96 163L119 156M101 125L110 107M108 135L119 156M108 135L124 126M110 107L124 98M114 93L128 112M114 93L133 97M114 131L128 112M114 131L133 145M115 103L124 126M119 80L124 98M121 161L133 145M121 161L136 172M128 112L147 126M133 97L148 84M133 97L155 102M133 145L147 126M133 145L149 157M136 172L149 157M138 63L148 84M147 126L166 140M148 84L155 102M148 84L166 76M149 157L166 140M149 157L176 165M155 102L161 122M155 102L175 99M161 122L182 118M166 76L175 99M166 76L181 59M166 140L176 165M175 99L182 118M175 99L201 98M181 59L206 42M181 59L206 75M206 42L206 75" style="stroke:#0000ff;stroke-linecap:round"/>
<path class="out" d="M42 107L55 124M42 107L61 91M55 124L63 148M55 124L72 111M68 129L74 148M83 182L83 204M83 204L98 203M92 63L115 71M92 100L114 93M98 203L104 184M99 80L119 80M100 40L123 48M104 184L107 207M104 184L129 176M104 238L107 207M104 238L131 249M107 207L137 201M114 93L115 71M115 71L123 48M115 71L138 63M119 156L129 176M129 176L137 201M131 249L152 227M137 201L152 227M201 98L206 75" style="stroke:#ff0000;stroke-linecap:round"/>
<g fill="#333333">
<circle cx="2" cy="36" r="0.5">
<title>
hole:0
</title>
</circle>
<circle cx="2" cy="71" r="0.5">
<title>
hole:1
</title>
</circle>
<circle cx="42" cy="45" r="0.5">
<title>
hole:2
</title>
</circle>
<circle cx="45" cy="73" r="0.5">
<title>
hole:3
</title>
</circle>
<circle cx="49" cy="101" r="0.5">
<title>
hole:4
</title>
</circle>
<circle cx="73" cy="138" r="0.5">
<title>
hole:5
</title>
</circle>
<circle cx="24" cy="120" r="0.5">
<title>
hole:6
</title>
</circle>
<circle cx="22" cy="159" r="0.5">
<title>
hole:7
</title>
</circle>
<circle cx="15" cy="199" r="0.5">
<title>
hole:8
</title>
</circle>
<circle cx="34" cy="214" r="0.5">
<title>
hole:9
</title>
</circle>
<circle cx="44" cy="246" r="0.5">
<title>
hole:10
</title>
</circle>
<circle cx="14" cy="231" r="0.5">
<title>
hole:11
</title>
</circle>
<circle cx="19" cy="273" r="0.5">
<title>
hole:12
</title>
</circle>
<circle cx="59" cy="289" r="0.5">
<title>
hole:13
</title>
</circle>
<circle cx="85" cy="248" r="0.5">
<title>
hole:14
</title>
</circle>
<circle cx="130" cy="289" r="0.5">
<title>
hole:15
</title>
</circle>
<circle cx="123" cy="236" r="0.5">
<title>
hole:16
</title>
</circle>
<circle cx="77" cy="194" r="0.5">
<title>
hole:17
</title>
</circle>
<circle cx="142" cy="171" r="0.5">
<title>
hole:18
</title>
</circle>
<circle cx="166" cy="212" r="0.5">
<title>
hole:19
</title>
</circle>
<circle cx="152" cy="243" r="0.5">
<title>
hole:20
</title>
</circle>
<circle cx="172" cy="289" r="0.5">
<title>
hole:21
</title>
</circle>
<circle cx="234" cy="273" r="0.5">
<title>
hole:22
</title>
</circle>
<circle cx="200" cy="245" r="0.5">
<title>
hole:23
</title>
</circle>
<circle cx="192" cy="200" r="0.5">
<title>
hole:24
</title>
</circle>
<circle cx="220" cy="205" r="0.5">
<title>
hole:25
</title>
</circle>
<circle cx="246" cy="204" r="0.5">
<title>
hole:26
</title>
</circle>
<circle cx="246" cy="106" r="0.5">
<title>
hole:27
</title>
</circle>
<circle cx="196" cy="93" r="0.5">
<title>
hole:28
</title>
</circle>
<circle cx="246" cy="79" r="0.5">
<title>
hole:29
</title>
</circle>
<circle cx="233" cy="24" r="0.5">
<title>
hole:30
</title>
</circle>
<circle cx="195" cy="38" r="0.5">
<title>
hole:31
</title>
</circle>
<circle cx="214" cy="6" r="0.5">
<title>
hole:32
</title>
</circle>
<circle cx="183" cy="0" r="0.5">
<title>
hole:33
</title>
</circle>
<circle cx="139" cy="9" r="0.5">
<title>
hole:34
</title>
</circle>
<circle cx="166" cy="33" r="0.5">
<title>
hole:35
</title>
</circle>
<circle cx="159" cy="73" r="0.5">
<title>
hole:36
</title>
</circle>
<circle cx="138" cy="56" r="0.5">
<title>
hole:37
</title>
</circle>
<circle cx="103" cy="99" r="0.5">
<title>
hole:38
</title>
</circle>
<circle cx="115" cy="38" r="0.5">
<title>
hole:39
</title>
</circle>
<circle cx="92" cy="9" r="0.5">
<title>
hole:40
</title>
</circle>
<circle cx="68" cy="4" r="0.5">
<title>
hole:41
</title>
</circle>
<circle cx="37" cy="20" r="0.5">
<title>
hole:42
</title>
</circle>
<circle cx="13" cy="0" r="0.5">
<title>
hole:43
</title>
</circle>
</g>
<g fill="#999999">
<circle cx="42" cy="107" i="0" r="0.5" tabindex="0">
<title>
v:0
</title>
</circle>
<circle cx="55" cy="124" i="1" r="0.5" tabindex="1">
<title>
v:1
</title>
</circle>
<circle cx="61" cy="91" i="2" r="0.5" tabindex="2">
<title>
v:2
</title>
</circle>
<circle cx="63" cy="148" i="3" r="0.5" tabindex="3">
<title>
v:3
</title>
</circle>
<circle cx="68" cy="129" i="4" r="0.5" tabindex="4">
<title>
v:4
</title>
</circle>
<circle cx="72" cy="111" i="5" r="0.5" tabindex="5">
<title>
v:5
</title>
</circle>
<circle cx="74" cy="148" i="6" r="0.5" tabindex="6">
<title>
v:6
</title>
</circle>
<circle cx="78" cy="81" i="7" r="0.5" tabindex="7">
<title>
v:7
</title>
</circle>
<circle cx="81" cy="80" i="8" r="0.5" tabindex="8">
<title>
v:8
</title>
</circle>
<circle cx="83" cy="182" i="9" r="0.5" tabindex="9">
<title>
v:9
</title>
</circle>
<circle cx="83" cy="204" i="10" r="0.5" tabindex="10">
<title>
v:10
</title>
</circle>
<circle cx="84" cy="116" i="11" r="0.5" tabindex="11">
<title>
v:11
</title>
</circle>
<circle cx="84" cy="169" i="12" r="0.5" tabindex="12">
<title>
v:12
</title>
</circle>
<circle cx="88" cy="143" i="13" r="0.5" tabindex="13">
<title>
v:13
</title>
</circle>
<circle cx="92" cy="63" i="14" r="0.5" tabindex="14">
<title>
v:14
</title>
</circle>
<circle cx="92" cy="100" i="15" r="0.5" tabindex="15">
<title>
v:15
</title>
</circle>
<circle cx="92" cy="124" i="16" r="0.5" tabindex="16">
<title>
v:16
</title>
</circle>
<circle cx="93" cy="98" i="17" r="0.5" tabindex="17">
<title>
v:17
</title>
</circle>
<circle cx="94" cy="145" i="18" r="0.5" tabindex="18">
<title>
v:18
</title>
</circle>
<circle cx="96" cy="108" i="19" r="0.5" tabindex="19">
<title>
v:19
</title>
</circle>
<circle cx="96" cy="163" i="20" r="0.5" tabindex="20">
<title>
v:20
</title>
</circle>
<circle cx="98" cy="203" i="21" r="0.5" tabindex="21">
<title>
v:21
</title>
</circle>
<circle cx="99" cy="80" i="22" r="0.5" tabindex="22">
<title>
v:22
</title>
</circle>
<circle cx="100" cy="40" i="23" r="0.5" tabindex="23">
<title>
v:23
</title>
</circle>
<circle cx="101" cy="125" i="24" r="0.5" tabindex="24">
<title>
v:24
</title>
</circle>
<circle cx="104" cy="184" i="25" r="0.5" tabindex="25">
<title>
v:25
</title>
</circle>
<circle cx="104" cy="238" i="26" r="0.5" tabindex="26">
<title>
v:26
</title>
</circle>
<circle cx="107" cy="207" i="27" r="0.5" tabindex="27">
<title>
v:27
</title>
</circle>
<circle cx="108" cy="135" i="28" r="0.5" tabindex="28">
<title>
v:28
</title>
</circle>
<circle cx="110" cy="107" i="29" r="0.5" tabindex="29">
<title>
v:29
</title>
</circle>
<circle cx="114" cy="93" i="30" r="0.5" tabindex="30">
<title>
v:30
</title>
</circle>
<circle cx="114" cy="131" i="31" r="0.5" tabindex="31">
<title>
v:31
</title>
</circle>
<circle cx="115" cy="71" i="32" r="0.5" tabindex="32">
<title>
v:32
</title>
</circle>
<circle cx="115" cy="103" i="33" r="0.5" tabindex="33">
<title>
v:33
</title>
</circle>
<circle cx="119" cy="80" i="34" r="0.5" tabindex="34">
<title>
v:34
</title>
</circle>
<circle cx="119" cy="156" i="35" r="0.5" tabindex="35">
<title>
v:35
</title>
</circle>
<circle cx="121" cy="161" i="36" r="0.5" tabindex="36">
<title>
v:36
</title>
</circle>
<circle cx="123" cy="48" i="37" r="0.5" tabindex="37">
<title>
v:37
</title>
</circle>
<circle cx="124" cy="98" i="38" r="0.5" tabindex="38">
<title>
v:38
</title>
</circle>
<circle cx="124" cy="126" i="39" r="0.5" tabindex="39">
<title>
v:39
</title>
</circle>
<circle cx="128" cy="112" i="40" r="0.5" tabindex="40">
<title>
v:40
</title>
</circle>
<circle cx="129" cy="176" i="41" r="0.5" tabindex="41">
<title>
v:41
</title>
</circle>
<circle cx="131" cy="249" i="42" r="0.5" tabindex="42">
<title>
v:42
</title>
</circle>
<circle cx="133" cy="97" i="43" r="0.5" tabindex="43">
<title>
v:43
</title>
</circle>
<circle cx="133" cy="145" i="44" r="0.5" tabindex="44">
<title>
v:44
</title>
</circle>
<circle cx="136" cy="172" i="45" r="0.5" tabindex="45">
<title>
v:45
</title>
</circle>
<circle cx="137" cy="201" i="46" r="0.5" tabindex="46">
<title>
v:46
</title>
</circle>
<circle cx="138" cy="63" i="47" r="0.5" tabindex="47">
<title>
v:47
</title>
</circle>
<circle cx="147" cy="126" i="48" r="0.5" tabindex="48">
<title>
v:48
</title>
</circle>
<circle cx="148" cy="84" i="49" r="0.5" tabindex="49">
<title>
v:49
</title>
</circle>
<circle cx="149" cy="157" i="50" r="0.5" tabindex="50">
<title>
v:50
</title>
</circle>
<circle cx="152" cy="227" i="51" r="0.5" tabindex="51">
<title>
v:51
</title>
</circle>
<circle cx="155" cy="102" i="52" r="0.5" tabindex="52">
<title>
v:52
</title>
</circle>
<circle cx="161" cy="122" i="53" r="0.5" tabindex="53">
<title>
v:53
</title>
</circle>
<circle cx="166" cy="76" i="54" r="0.5" tabindex="54">
<title>
v:54
</title>
</circle>
<circle cx="166" cy="140" i="55" r="0.5" tabindex="55">
<title>
v:55
</title>
</circle>
<circle cx="175" cy="99" i="56" r="0.5" tabindex="56">
<title>
v:56
</title>
</circle>
<circle cx="176" cy="165" i="57" r="0.5" tabindex="57">
<title>
v:57
</title>
</circle>
<circle cx="181" cy="59" i="58" r="0.5" tabindex="58">
<title>
v:58
</title>
</circle>
<circle cx="182" cy="118" i="59" r="0.5" tabindex="59">
<title>
v:59
</title>
</circle>
<circle cx="201" cy="98" i="60" r="0.5" tabindex="60">
<title>
v:60
</title>
</circle>
<circle cx="206" cy="42" i="61" r="0.5" tabindex="61">
<title>
v:61
</title>
</circle>
<circle cx="206" cy="75" i="62" r="0.5" tabindex="62">
<title>
v:62
</title>
</circle>
</g>
</svg>