<svg height="500" viewBox="0 -2 213 213" width="500" xmlns="http://www.w3.org/2000/svg">
<path class="hole" d="M23 51L35 60L18 70L25 89L2 100L4 117L17 124L31 135L42 146L54 96L84 114L60 156L48 158L31 164L5 160L35 209L55 201L56 187L58 174L83 166L100 168L106 198L121 203L117 172L143 198L161 188L164 206L179 209L180 196L182 183L197 175L203 209L211 169L196 155L158 163L177 141L186 130L198 103L210 146L211 98L211 74L197 76L184 79L185 98L172 124L151 128L129 152L142 117L147 99L148 53L171 69L183 63L196 52L211 45L200 31L205 15L211 0L109 10L134 32L110 34L117 51L125 68L101 82L92 26L75 20L65 28L57 43L50 55L40 44L31 34L44 21L58 9L45 3L28 0L2 0L6 21L11 43M0 -2L213 -2L213 211L0 211" style="fill:#00000066;fill-rule:evenodd;"/>
<circle cx="164" cy="6" r="5" style="fill:#ffff0066;" title="Globalist"/>
<circle cx="170" cy="36" r="5" style="fill:#ffff0066;" title="BreakALeg"/>
<path class="ok" d="M46 96L61 66M46 96L81 91M46 166L51 166M51 166L66 151M61 66L81 91M66 151L81 166M66 151L96 151M81 91L81 106M81 91L96 91M81 106L96 106M81 141L96 141M81 166L96 166M96 91L96 106M96 106L101 126M96 141L101 126M96 151L96 166M96 151L116 151M101 126L111 126M111 126L116 106M111 126L116 141M116 91L116 106M116 91L131 91M116 106L131 106M116 141L131 141M116 151L116 166M116 166L131 166M131 91L131 106M131 141L136 126M131 166L146 151M146 151L161 166M146 151L166 151M161 166L166 166" style="stroke:#0000ff;stroke-linecap:round"/>
<path class="out" d="M46 96L46 151M46 151L46 166M46 151L66 151M56 141L66 126M61 66L106 46M66 126L76 126M76 126L81 141M106 46L151 66M116 151L146 151M131 91L151 66M131 91L166 96M136 126L146 126M146 126L156 141M151 66L166 96M166 96L166 151M166 151L166 166" style="stroke:#ff0000;stroke-linecap:round"/>
<g fill="#333333">
<circle cx="23" cy="51" r="0.5" tabindex="0">
<title>
hole:0
</title>
</circle>
<circle cx="35" cy="60" r="0.5" tabindex="1">
<title>
hole:1
</title>
</circle>
<circle cx="18" cy="70" r="0.5" tabindex="2">
<title>
hole:2
</title>
</circle>
<circle cx="25" cy="89" r="0.5" tabindex="3">
<title>
hole:3
</title>
</circle>
<circle cx="2" cy="100" r="0.5" tabindex="4">
<title>
hole:4
</title>
</circle>
<circle cx="4" cy="117" r="0.5" tabindex="5">
<title>
hole:5
</title>
</circle>
<circle cx="17" cy="124" r="0.5" tabindex="6">
<title>
hole:6
</title>
</circle>
<circle cx="31" cy="135" r="0.5" tabindex="7">
<title>
hole:7
</title>
</circle>
<circle cx="42" cy="146" r="0.5" tabindex="8">
<title>
hole:8
</title>
</circle>
<circle cx="54" cy="96" r="0.5" tabindex="9">
<title>
hole:9
</title>
</circle>
<circle cx="84" cy="114" r="0.5" tabindex="10">
<title>
hole:10
</title>
</circle>
<circle cx="60" cy="156" r="0.5" tabindex="11">
<title>
hole:11
</title>
</circle>
<circle cx="48" cy="158" r="0.5" tabindex="12">
<title>
hole:12
</title>
</circle>
<circle cx="31" cy="164" r="0.5" tabindex="13">
<title>
hole:13
</title>
</circle>
<circle cx="5" cy="160" r="0.5" tabindex="14">
<title>
hole:14
</title>
</circle>
<circle cx="35" cy="209" r="0.5" tabindex="15">
<title>
hole:15
</title>
</circle>
<circle cx="55" cy="201" r="0.5" tabindex="16">
<title>
hole:16
</title>
</circle>
<circle cx="56" cy="187" r="0.5" tabindex="17">
<title>
hole:17
</title>
</circle>
<circle cx="58" cy="174" r="0.5" tabindex="18">
<title>
hole:18
</title>
</circle>
<circle cx="83" cy="166" r="0.5" tabindex="19">
<title>
hole:19
</title>
</circle>
<circle cx="100" cy="168" r="0.5" tabindex="20">
<title>
hole:20
</title>
</circle>
<circle cx="106" cy="198" r="0.5" tabindex="21">
<title>
hole:21
</title>
</circle>
<circle cx="121" cy="203" r="0.5" tabindex="22">
<title>
hole:22
</title>
</circle>
<circle cx="117" cy="172" r="0.5" tabindex="23">
<title>
hole:23
</title>
</circle>
<circle cx="143" cy="198" r="0.5" tabindex="24">
<title>
hole:24
</title>
</circle>
<circle cx="161" cy="188" r="0.5" tabindex="25">
<title>
hole:25
</title>
</circle>
<circle cx="164" cy="206" r="0.5" tabindex="26">
<title>
hole:26
</title>
</circle>
<circle cx="179" cy="209" r="0.5" tabindex="27">
<title>
hole:27
</title>
</circle>
<circle cx="180" cy="196" r="0.5" tabindex="28">
<title>
hole:28
</title>
</circle>
<circle cx="182" cy="183" r="0.5" tabindex="29">
<title>
hole:29
</title>
</circle>
<circle cx="197" cy="175" r="0.5" tabindex="30">
<title>
hole:30
</title>
</circle>
<circle cx="203" cy="209" r="0.5" tabindex="31">
<title>
hole:31
</title>
</circle>
<circle cx="211" cy="169" r="0.5" tabindex="32">
<title>
hole:32
</title>
</circle>
<circle cx="196" cy="155" r="0.5" tabindex="33">
<title>
hole:33
</title>
</circle>
<circle cx="158" cy="163" r="0.5" tabindex="34">
<title>
hole:34
</title>
</circle>
<circle cx="177" cy="141" r="0.5" tabindex="35">
<title>
hole:35
</title>
</circle>
<circle cx="186" cy="130" r="0.5" tabindex="36">
<title>
hole:36
</title>
</circle>
<circle cx="198" cy="103" r="0.5" tabindex="37">
<title>
hole:37
</title>
</circle>
<circle cx="210" cy="146" r="0.5" tabindex="38">
<title>
hole:38
</title>
</circle>
<circle cx="211" cy="98" r="0.5" tabindex="39">
<title>
hole:39
</title>
</circle>
<circle cx="211" cy="74" r="0.5" tabindex="40">
<title>
hole:40
</title>
</circle>
<circle cx="197" cy="76" r="0.5" tabindex="41">
<title>
hole:41
</title>
</circle>
<circle cx="184" cy="79" r="0.5" tabindex="42">
<title>
hole:42
</title>
</circle>
<circle cx="185" cy="98" r="0.5" tabindex="43">
<title>
hole:43
</title>
</circle>
<circle cx="172" cy="124" r="0.5" tabindex="44">
<title>
hole:44
</title>
</circle>
<circle cx="151" cy="128" r="0.5" tabindex="45">
<title>
hole:45
</title>
</circle>
<circle cx="129" cy="152" r="0.5" tabindex="46">
<title>
hole:46
</title>
</circle>
<circle cx="142" cy="117" r="0.5" tabindex="47">
<title>
hole:47
</title>
</circle>
<circle cx="147" cy="99" r="0.5" tabindex="48">
<title>
hole:48
</title>
</circle>
<circle cx="148" cy="53" r="0.5" tabindex="49">
<title>
hole:49
</title>
</circle>
<circle cx="171" cy="69" r="0.5" tabindex="50">
<title>
hole:50
</title>
</circle>
<circle cx="183" cy="63" r="0.5" tabindex="51">
<title>
hole:51
</title>
</circle>
<circle cx="196" cy="52" r="0.5" tabindex="52">
<title>
hole:52
</title>
</circle>
<circle cx="211" cy="45" r="0.5" tabindex="53">
<title>
hole:53
</title>
</circle>
<circle cx="200" cy="31" r="0.5" tabindex="54">
<title>
hole:54
</title>
</circle>
<circle cx="205" cy="15" r="0.5" tabindex="55">
<title>
hole:55
</title>
</circle>
<circle cx="211" cy="0" r="0.5" tabindex="56">
<title>
hole:56
</title>
</circle>
<circle cx="109" cy="10" r="0.5" tabindex="57">
<title>
hole:57
</title>
</circle>
<circle cx="134" cy="32" r="0.5" tabindex="58">
<title>
hole:58
</title>
</circle>
<circle cx="110" cy="34" r="0.5" tabindex="59">
<title>
hole:59
</title>
</circle>
<circle cx="117" cy="51" r="0.5" tabindex="60">
<title>
hole:60
</title>
</circle>
<circle cx="125" cy="68" r="0.5" tabindex="61">
<title>
hole:61
</title>
</circle>
<circle cx="101" cy="82" r="0.5" tabindex="62">
<title>
hole:62
</title>
</circle>
<circle cx="92" cy="26" r="0.5" tabindex="63">
<title>
hole:63
</title>
</circle>
<circle cx="75" cy="20" r="0.5" tabindex="64">
<title>
hole:64
</title>
</circle>
<circle cx="65" cy="28" r="0.5" tabindex="65">
<title>
hole:65
</title>
</circle>
<circle cx="57" cy="43" r="0.5" tabindex="66">
<title>
hole:66
</title>
</circle>
<circle cx="50" cy="55" r="0.5" tabindex="67">
<title>
hole:67
</title>
</circle>
<circle cx="40" cy="44" r="0.5" tabindex="68">
<title>
hole:68
</title>
</circle>
<circle cx="31" cy="34" r="0.5" tabindex="69">
<title>
hole:69
</title>
</circle>
<circle cx="44" cy="21" r="0.5" tabindex="70">
<title>
hole:70
</title>
</circle>
<circle cx="58" cy="9" r="0.5" tabindex="71">
<title>
hole:71
</title>
</circle>
<circle cx="45" cy="3" r="0.5" tabindex="72">
<title>
hole:72
</title>
</circle>
<circle cx="28" cy="0" r="0.5" tabindex="73">
<title>
hole:73
</title>
</circle>
<circle cx="2" cy="0" r="0.5" tabindex="74">
<title>
hole:74
</title>
</circle>
<circle cx="6" cy="21" r="0.5" tabindex="75">
<title>
hole:75
</title>
</circle>
<circle cx="11" cy="43" r="0.5" tabindex="76">
<title>
hole:76
</title>
</circle>
</g>
<g fill="#999999">
<circle cx="46" cy="96" r="0.5" tabindex="77">
<title>
v:0
</title>
</circle>
<circle cx="46" cy="151" r="0.5" tabindex="78">
<title>
v:1
</title>
</circle>
<circle cx="46" cy="166" r="0.5" tabindex="79">
<title>
v:2
</title>
</circle>
<circle cx="51" cy="166" r="0.5" tabindex="80">
<title>
v:3
</title>
</circle>
<circle cx="56" cy="141" r="0.5" tabindex="81">
<title>
v:4
</title>
</circle>
<circle cx="61" cy="66" r="0.5" tabindex="82">
<title>
v:5
</title>
</circle>
<circle cx="66" cy="126" r="0.5" tabindex="83">
<title>
v:6
</title>
</circle>
<circle cx="66" cy="151" r="0.5" tabindex="84">
<title>
v:7
</title>
</circle>
<circle cx="76" cy="126" r="0.5" tabindex="85">
<title>
v:8
</title>
</circle>
<circle cx="81" cy="91" r="0.5" tabindex="86">
<title>
v:9
</title>
</circle>
<circle cx="81" cy="106" r="0.5" tabindex="87">
<title>
v:10
</title>
</circle>
<circle cx="81" cy="141" r="0.5" tabindex="88">
<title>
v:11
</title>
</circle>
<circle cx="81" cy="166" r="0.5" tabindex="89">
<title>
v:12
</title>
</circle>
<circle cx="96" cy="91" r="0.5" tabindex="90">
<title>
v:13
</title>
</circle>
<circle cx="96" cy="106" r="0.5" tabindex="91">
<title>
v:14
</title>
</circle>
<circle cx="96" cy="141" r="0.5" tabindex="92">
<title>
v:15
</title>
</circle>
<circle cx="96" cy="151" r="0.5" tabindex="93">
<title>
v:16
</title>
</circle>
<circle cx="96" cy="166" r="0.5" tabindex="94">
<title>
v:17
</title>
</circle>
<circle cx="101" cy="126" r="0.5" tabindex="95">
<title>
v:18
</title>
</circle>
<circle cx="106" cy="46" r="0.5" tabindex="96">
<title>
v:19
</title>
</circle>
<circle cx="111" cy="126" r="0.5" tabindex="97">
<title>
v:20
</title>
</circle>
<circle cx="116" cy="91" r="0.5" tabindex="98">
<title>
v:21
</title>
</circle>
<circle cx="116" cy="106" r="0.5" tabindex="99">
<title>
v:22
</title>
</circle>
<circle cx="116" cy="141" r="0.5" tabindex="100">
<title>
v:23
</title>
</circle>
<circle cx="116" cy="151" r="0.5" tabindex="101">
<title>
v:24
</title>
</circle>
<circle cx="116" cy="166" r="0.5" tabindex="102">
<title>
v:25
</title>
</circle>
<circle cx="131" cy="91" r="0.5" tabindex="103">
<title>
v:26
</title>
</circle>
<circle cx="131" cy="106" r="0.5" tabindex="104">
<title>
v:27
</title>
</circle>
<circle cx="131" cy="141" r="0.5" tabindex="105">
<title>
v:28
</title>
</circle>
<circle cx="131" cy="166" r="0.5" tabindex="106">
<title>
v:29
</title>
</circle>
<circle cx="136" cy="126" r="0.5" tabindex="107">
<title>
v:30
</title>
</circle>
<circle cx="146" cy="126" r="0.5" tabindex="108">
<title>
v:31
</title>
</circle>
<circle cx="146" cy="151" r="0.5" tabindex="109">
<title>
v:32
</title>
</circle>
<circle cx="151" cy="66" r="0.5" tabindex="110">
<title>
v:33
</title>
</circle>
<circle cx="156" cy="141" r="0.5" tabindex="111">
<title>
v:34
</title>
</circle>
<circle cx="161" cy="166" r="0.5" tabindex="112">
<title>
v:35
</title>
</circle>
<circle cx="166" cy="96" r="0.5" tabindex="113">
<title>
v:36
</title>
</circle>
<circle cx="166" cy="151" r="0.5" tabindex="114">
<title>
v:37
</title>
</circle>
<circle cx="166" cy="166" r="0.5" tabindex="115">
<title>
v:38
</title>
</circle>
</g>
</svg>