<svg height="500" viewBox="0 -2 213 213" width="500" xmlns="http://www.w3.org/2000/svg">
<path class="hole" d="M23 51L35 60L18 70L25 89L2 100L4 117L17 124L31 135L42 146L54 96L84 114L60 156L48 158L31 164L5 160L35 209L55 201L56 187L58 174L83 166L100 168L106 198L121 203L117 172L143 198L161 188L164 206L179 209L180 196L182 183L197 175L203 209L211 169L196 155L158 163L177 141L186 130L198 103L210 146L211 98L211 74L197 76L184 79L185 98L172 124L151 128L129 152L142 117L147 99L148 53L171 69L183 63L196 52L211 45L200 31L205 15L211 0L109 10L134 32L110 34L117 51L125 68L101 82L92 26L75 20L65 28L57 43L50 55L40 44L31 34L44 21L58 9L45 3L28 0L2 0L6 21L11 43M0 -2L213 -2L213 211L0 211" style="fill:#00000066;fill-rule:evenodd;"/>
<circle cx="164" cy="6" fill="#ffff0066" r="5">
<title>
Globalist@104
</title>
</circle>
<circle cx="170" cy="36" fill="#ffff0066" r="5">
<title>
BreakALeg@3
</title>
</circle>
<circle cx="140" cy="9" fill="#ffff0066" r="5">
<title>
WallHack@28
</title>
</circle>
<path class="ok" d="M48 96L63 66M48 96L83 91M48 166L53 166M53 166L68 151M63 66L83 91M68 151L83 166M68 151L98 151M78 126L83 141M83 91L83 106M83 91L98 91M83 106L98 106M83 141L98 141M83 166L98 166M98 91L98 106M98 106L103 126M98 141L103 126M98 151L98 166M98 151L118 151M103 126L113 126M113 126L118 106M113 126L118 141M118 91L118 106M118 91L133 91M118 106L133 106M118 141L133 141M118 151L118 166M118 166L133 166M133 91L133 106M133 141L138 126M133 166L148 151M148 151L168 151M163 166L168 166" style="stroke:#0000ff;stroke-linecap:round"/>
<path class="out" d="M48 96L48 151M48 151L48 166M48 151L68 151M58 141L68 126M63 66L108 46M68 126L78 126M108 46L153 66M118 151L148 151M133 91L153 66M133 91L168 96M138 126L148 126M148 126L158 141M148 151L163 166M153 66L168 96M168 96L168 151M168 151L168 166" style="stroke:#ff0000;stroke-linecap:round"/>
<g fill="#333333">
<circle cx="23" cy="51" r="0.5">
<title>
hole:0
</title>
</circle>
<circle cx="35" cy="60" r="0.5">
<title>
hole:1
</title>
</circle>
<circle cx="18" cy="70" r="0.5">
<title>
hole:2
</title>
</circle>
<circle cx="25" cy="89" r="0.5">
<title>
hole:3
</title>
</circle>
<circle cx="2" cy="100" r="0.5">
<title>
hole:4
</title>
</circle>
<circle cx="4" cy="117" r="0.5">
<title>
hole:5
</title>
</circle>
<circle cx="17" cy="124" r="0.5">
<title>
hole:6
</title>
</circle>
<circle cx="31" cy="135" r="0.5">
<title>
hole:7
</title>
</circle>
<circle cx="42" cy="146" r="0.5">
<title>
hole:8
</title>
</circle>
<circle cx="54" cy="96" r="0.5">
<title>
hole:9
</title>
</circle>
<circle cx="84" cy="114" r="0.5">
<title>
hole:10
</title>
</circle>
<circle cx="60" cy="156" r="0.5">
<title>
hole:11
</title>
</circle>
<circle cx="48" cy="158" r="0.5">
<title>
hole:12
</title>
</circle>
<circle cx="31" cy="164" r="0.5">
<title>
hole:13
</title>
</circle>
<circle cx="5" cy="160" r="0.5">
<title>
hole:14
</title>
</circle>
<circle cx="35" cy="209" r="0.5">
<title>
hole:15
</title>
</circle>
<circle cx="55" cy="201" r="0.5">
<title>
hole:16
</title>
</circle>
<circle cx="56" cy="187" r="0.5">
<title>
hole:17
</title>
</circle>
<circle cx="58" cy="174" r="0.5">
<title>
hole:18
</title>
</circle>
<circle cx="83" cy="166" r="0.5">
<title>
hole:19
</title>
</circle>
<circle cx="100" cy="168" r="0.5">
<title>
hole:20
</title>
</circle>
<circle cx="106" cy="198" r="0.5">
<title>
hole:21
</title>
</circle>
<circle cx="121" cy="203" r="0.5">
<title>
hole:22
</title>
</circle>
<circle cx="117" cy="172" r="0.5">
<title>
hole:23
</title>
</circle>
<circle cx="143" cy="198" r="0.5">
<title>
hole:24
</title>
</circle>
<circle cx="161" cy="188" r="0.5">
<title>
hole:25
</title>
</circle>
<circle cx="164" cy="206" r="0.5">
<title>
hole:26
</title>
</circle>
<circle cx="179" cy="209" r="0.5">
<title>
hole:27
</title>
</circle>
<circle cx="180" cy="196" r="0.5">
<title>
hole:28
</title>
</circle>
<circle cx="182" cy="183" r="0.5">
<title>
hole:29
</title>
</circle>
<circle cx="197" cy="175" r="0.5">
<title>
hole:30
</title>
</circle>
<circle cx="203" cy="209" r="0.5">
<title>
hole:31
</title>
</circle>
<circle cx="211" cy="169" r="0.5">
<title>
hole:32
</title>
</circle>
<circle cx="196" cy="155" r="0.5">
<title>
hole:33
</title>
</circle>
<circle cx="158" cy="163" r="0.5">
<title>
hole:34
</title>
</circle>
<circle cx="177" cy="141" r="0.5">
<title>
hole:35
</title>
</circle>
<circle cx="186" cy="130" r="0.5">
<title>
hole:36
</title>
</circle>
<circle cx="198" cy="103" r="0.5">
<title>
hole:37
</title>
</circle>
<circle cx="210" cy="146" r="0.5">
<title>
hole:38
</title>
</circle>
<circle cx="211" cy="98" r="0.5">
<title>
hole:39
</title>
</circle>
<circle cx="211" cy="74" r="0.5">
<title>
hole:40
</title>
</circle>
<circle cx="197" cy="76" r="0.5">
<title>
hole:41
</title>
</circle>
<circle cx="184" cy="79" r="0.5">
<title>
hole:42
</title>
</circle>
<circle cx="185" cy="98" r="0.5">
<title>
hole:43
</title>
</circle>
<circle cx="172" cy="124" r="0.5">
<title>
hole:44
</title>
</circle>
<circle cx="151" cy="128" r="0.5">
<title>
hole:45
</title>
</circle>
<circle cx="129" cy="152" r="0.5">
<title>
hole:46
</title>
</circle>
<circle cx="142" cy="117" r="0.5">
<title>
hole:47
</title>
</circle>
<circle cx="147" cy="99" r="0.5">
<title>
hole:48
</title>
</circle>
<circle cx="148" cy="53" r="0.5">
<title>
hole:49
</title>
</circle>
<circle cx="171" cy="69" r="0.5">
<title>
hole:50
</title>
</circle>
<circle cx="183" cy="63" r="0.5">
<title>
hole:51
</title>
</circle>
<circle cx="196" cy="52" r="0.5">
<title>
hole:52
</title>
</circle>
<circle cx="211" cy="45" r="0.5">
<title>
hole:53
</title>
</circle>
<circle cx="200" cy="31" r="0.5">
<title>
hole:54
</title>
</circle>
<circle cx="205" cy="15" r="0.5">
<title>
hole:55
</title>
</circle>
<circle cx="211" cy="0" r="0.5">
<title>
hole:56
</title>
</circle>
<circle cx="109" cy="10" r="0.5">
<title>
hole:57
</title>
</circle>
<circle cx="134" cy="32" r="0.5">
<title>
hole:58
</title>
</circle>
<circle cx="110" cy="34" r="0.5">
<title>
hole:59
</title>
</circle>
<circle cx="117" cy="51" r="0.5">
<title>
hole:60
</title>
</circle>
<circle cx="125" cy="68" r="0.5">
<title>
hole:61
</title>
</circle>
<circle cx="101" cy="82" r="0.5">
<title>
hole:62
</title>
</circle>
<circle cx="92" cy="26" r="0.5">
<title>
hole:63
</title>
</circle>
<circle cx="75" cy="20" r="0.5">
<title>
hole:64
</title>
</circle>
<circle cx="65" cy="28" r="0.5">
<title>
hole:65
</title>
</circle>
<circle cx="57" cy="43" r="0.5">
<title>
hole:66
</title>
</circle>
<circle cx="50" cy="55" r="0.5">
<title>
hole:67
</title>
</circle>
<circle cx="40" cy="44" r="0.5">
<title>
hole:68
</title>
</circle>
<circle cx="31" cy="34" r="0.5">
<title>
hole:69
</title>
</circle>
<circle cx="44" cy="21" r="0.5">
<title>
hole:70
</title>
</circle>
<circle cx="58" cy="9" r="0.5">
<title>
hole:71
</title>
</circle>
<circle cx="45" cy="3" r="0.5">
<title>
hole:72
</title>
</circle>
<circle cx="28" cy="0" r="0.5">
<title>
hole:73
</title>
</circle>
<circle cx="2" cy="0" r="0.5">
<title>
hole:74
</title>
</circle>
<circle cx="6" cy="21" r="0.5">
<title>
hole:75
</title>
</circle>
<circle cx="11" cy="43" r="0.5">
<title>
hole:76
</title>
</circle>
</g>
<g fill="#999999">
<circle cx="48" cy="96" i="0" r="0.5" tabindex="0">
<title>
v:0
</title>
</circle>
<circle cx="48" cy="151" i="1" r="0.5" tabindex="1">
<title>
v:1
</title>
</circle>
<circle cx="48" cy="166" i="2" r="0.5" tabindex="2">
<title>
v:2
</title>
</circle>
<circle cx="53" cy="166" i="3" r="0.5" tabindex="3">
<title>
v:3
</title>
</circle>
<circle cx="58" cy="141" i="4" r="0.5" tabindex="4">
<title>
v:4
</title>
</circle>
<circle cx="63" cy="66" i="5" r="0.5" tabindex="5">
<title>
v:5
</title>
</circle>
<circle cx="68" cy="126" i="6" r="0.5" tabindex="6">
<title>
v:6
</title>
</circle>
<circle cx="68" cy="151" i="7" r="0.5" tabindex="7">
<title>
v:7
</title>
</circle>
<circle cx="78" cy="126" i="8" r="0.5" tabindex="8">
<title>
v:8
</title>
</circle>
<circle cx="83" cy="91" i="9" r="0.5" tabindex="9">
<title>
v:9
</title>
</circle>
<circle cx="83" cy="106" i="10" r="0.5" tabindex="10">
<title>
v:10
</title>
</circle>
<circle cx="83" cy="141" i="11" r="0.5" tabindex="11">
<title>
v:11
</title>
</circle>
<circle cx="83" cy="166" i="12" r="0.5" tabindex="12">
<title>
v:12
</title>
</circle>
<circle cx="98" cy="91" i="13" r="0.5" tabindex="13">
<title>
v:13
</title>
</circle>
<circle cx="98" cy="106" i="14" r="0.5" tabindex="14">
<title>
v:14
</title>
</circle>
<circle cx="98" cy="141" i="15" r="0.5" tabindex="15">
<title>
v:15
</title>
</circle>
<circle cx="98" cy="151" i="16" r="0.5" tabindex="16">
<title>
v:16
</title>
</circle>
<circle cx="98" cy="166" i="17" r="0.5" tabindex="17">
<title>
v:17
</title>
</circle>
<circle cx="103" cy="126" i="18" r="0.5" tabindex="18">
<title>
v:18
</title>
</circle>
<circle cx="108" cy="46" i="19" r="0.5" tabindex="19">
<title>
v:19
</title>
</circle>
<circle cx="113" cy="126" i="20" r="0.5" tabindex="20">
<title>
v:20
</title>
</circle>
<circle cx="118" cy="91" i="21" r="0.5" tabindex="21">
<title>
v:21
</title>
</circle>
<circle cx="118" cy="106" i="22" r="0.5" tabindex="22">
<title>
v:22
</title>
</circle>
<circle cx="118" cy="141" i="23" r="0.5" tabindex="23">
<title>
v:23
</title>
</circle>
<circle cx="118" cy="151" i="24" r="0.5" tabindex="24">
<title>
v:24
</title>
</circle>
<circle cx="118" cy="166" i="25" r="0.5" tabindex="25">
<title>
v:25
</title>
</circle>
<circle cx="133" cy="91" i="26" r="0.5" tabindex="26">
<title>
v:26
</title>
</circle>
<circle cx="133" cy="106" i="27" r="0.5" tabindex="27">
<title>
v:27
</title>
</circle>
<circle cx="133" cy="141" i="28" r="0.5" tabindex="28">
<title>
v:28
</title>
</circle>
<circle cx="133" cy="166" i="29" r="0.5" tabindex="29">
<title>
v:29
</title>
</circle>
<circle cx="138" cy="126" i="30" r="0.5" tabindex="30">
<title>
v:30
</title>
</circle>
<circle cx="148" cy="126" i="31" r="0.5" tabindex="31">
<title>
v:31
</title>
</circle>
<circle cx="148" cy="151" i="32" r="0.5" tabindex="32">
<title>
v:32
</title>
</circle>
<circle cx="153" cy="66" i="33" r="0.5" tabindex="33">
<title>
v:33
</title>
</circle>
<circle cx="158" cy="141" i="34" r="0.5" tabindex="34">
<title>
v:34
</title>
</circle>
<circle cx="163" cy="166" i="35" r="0.5" tabindex="35">
<title>
v:35
</title>
</circle>
<circle cx="168" cy="96" i="36" r="0.5" tabindex="36">
<title>
v:36
</title>
</circle>
<circle cx="168" cy="151" i="37" r="0.5" tabindex="37">
<title>
v:37
</title>
</circle>
<circle cx="168" cy="166" i="38" r="0.5" tabindex="38">
<title>
v:38
</title>
</circle>
</g>
</svg>