<svg height="500" viewBox="0 -2 129 134" width="500" xmlns="http://www.w3.org/2000/svg">
<path class="hole" d="M2 51L15 52L14 63L16 78L2 73L2 83L5 97L4 116L16 105L24 125L25 100L24 86L32 68L50 60L64 94L47 85L42 99L52 101L41 113L33 130L51 128L58 117L74 103L63 129L74 130L85 121L95 129L127 130L110 119L102 117L85 105L127 107L105 92L116 82L127 82L127 71L87 67L70 58L54 50L79 47L93 34L122 59L127 49L120 40L120 30L121 21L119 0L103 24L103 1L90 7L70 0L87 22L69 28L50 37L59 16L62 8L59 0L45 3L40 18L24 11L31 28L2 34M0 -2L129 -2L129 132L0 132" style="fill:#00000066;fill-rule:evenodd;"/>
<path class="ok" d="M40 45L50 50M45 20L50 35M50 50L60 60M55 45L60 35M60 35L70 30M60 60L60 70M60 70L65 75M65 75L65 80M65 80L75 80M70 30L80 35M70 115L80 105M75 75L75 80M75 75L80 70M75 75L95 85M75 80L80 85M80 35L90 35M80 85L80 105M90 35L95 20" style="stroke:#0000ff;stroke-linecap:round"/>
<path class="out" d="M25 80L40 65M35 110L45 85M40 65L60 70M45 85L65 75M50 35L60 35M55 45L65 55M60 60L65 55M60 85L60 105M60 85L65 80M60 105L70 115M65 55L75 55M75 55L80 60M75 55L85 45M80 35L85 45M80 60L80 70M80 60L90 50M80 70L100 65M90 50L100 45M95 85L105 110M100 65L115 80" style="stroke:#ff0000;stroke-linecap:round"/>
<g fill="#333333">
<circle cx="2" cy="51" r="0.5" tabindex="0">
<title>
hole:0
</title>
</circle>
<circle cx="15" cy="52" r="0.5" tabindex="1">
<title>
hole:1
</title>
</circle>
<circle cx="14" cy="63" r="0.5" tabindex="2">
<title>
hole:2
</title>
</circle>
<circle cx="16" cy="78" r="0.5" tabindex="3">
<title>
hole:3
</title>
</circle>
<circle cx="2" cy="73" r="0.5" tabindex="4">
<title>
hole:4
</title>
</circle>
<circle cx="2" cy="83" r="0.5" tabindex="5">
<title>
hole:5
</title>
</circle>
<circle cx="5" cy="97" r="0.5" tabindex="6">
<title>
hole:6
</title>
</circle>
<circle cx="4" cy="116" r="0.5" tabindex="7">
<title>
hole:7
</title>
</circle>
<circle cx="16" cy="105" r="0.5" tabindex="8">
<title>
hole:8
</title>
</circle>
<circle cx="24" cy="125" r="0.5" tabindex="9">
<title>
hole:9
</title>
</circle>
<circle cx="25" cy="100" r="0.5" tabindex="10">
<title>
hole:10
</title>
</circle>
<circle cx="24" cy="86" r="0.5" tabindex="11">
<title>
hole:11
</title>
</circle>
<circle cx="32" cy="68" r="0.5" tabindex="12">
<title>
hole:12
</title>
</circle>
<circle cx="50" cy="60" r="0.5" tabindex="13">
<title>
hole:13
</title>
</circle>
<circle cx="64" cy="94" r="0.5" tabindex="14">
<title>
hole:14
</title>
</circle>
<circle cx="47" cy="85" r="0.5" tabindex="15">
<title>
hole:15
</title>
</circle>
<circle cx="42" cy="99" r="0.5" tabindex="16">
<title>
hole:16
</title>
</circle>
<circle cx="52" cy="101" r="0.5" tabindex="17">
<title>
hole:17
</title>
</circle>
<circle cx="41" cy="113" r="0.5" tabindex="18">
<title>
hole:18
</title>
</circle>
<circle cx="33" cy="130" r="0.5" tabindex="19">
<title>
hole:19
</title>
</circle>
<circle cx="51" cy="128" r="0.5" tabindex="20">
<title>
hole:20
</title>
</circle>
<circle cx="58" cy="117" r="0.5" tabindex="21">
<title>
hole:21
</title>
</circle>
<circle cx="74" cy="103" r="0.5" tabindex="22">
<title>
hole:22
</title>
</circle>
<circle cx="63" cy="129" r="0.5" tabindex="23">
<title>
hole:23
</title>
</circle>
<circle cx="74" cy="130" r="0.5" tabindex="24">
<title>
hole:24
</title>
</circle>
<circle cx="85" cy="121" r="0.5" tabindex="25">
<title>
hole:25
</title>
</circle>
<circle cx="95" cy="129" r="0.5" tabindex="26">
<title>
hole:26
</title>
</circle>
<circle cx="127" cy="130" r="0.5" tabindex="27">
<title>
hole:27
</title>
</circle>
<circle cx="110" cy="119" r="0.5" tabindex="28">
<title>
hole:28
</title>
</circle>
<circle cx="102" cy="117" r="0.5" tabindex="29">
<title>
hole:29
</title>
</circle>
<circle cx="85" cy="105" r="0.5" tabindex="30">
<title>
hole:30
</title>
</circle>
<circle cx="127" cy="107" r="0.5" tabindex="31">
<title>
hole:31
</title>
</circle>
<circle cx="105" cy="92" r="0.5" tabindex="32">
<title>
hole:32
</title>
</circle>
<circle cx="116" cy="82" r="0.5" tabindex="33">
<title>
hole:33
</title>
</circle>
<circle cx="127" cy="82" r="0.5" tabindex="34">
<title>
hole:34
</title>
</circle>
<circle cx="127" cy="71" r="0.5" tabindex="35">
<title>
hole:35
</title>
</circle>
<circle cx="87" cy="67" r="0.5" tabindex="36">
<title>
hole:36
</title>
</circle>
<circle cx="70" cy="58" r="0.5" tabindex="37">
<title>
hole:37
</title>
</circle>
<circle cx="54" cy="50" r="0.5" tabindex="38">
<title>
hole:38
</title>
</circle>
<circle cx="79" cy="47" r="0.5" tabindex="39">
<title>
hole:39
</title>
</circle>
<circle cx="93" cy="34" r="0.5" tabindex="40">
<title>
hole:40
</title>
</circle>
<circle cx="122" cy="59" r="0.5" tabindex="41">
<title>
hole:41
</title>
</circle>
<circle cx="127" cy="49" r="0.5" tabindex="42">
<title>
hole:42
</title>
</circle>
<circle cx="120" cy="40" r="0.5" tabindex="43">
<title>
hole:43
</title>
</circle>
<circle cx="120" cy="30" r="0.5" tabindex="44">
<title>
hole:44
</title>
</circle>
<circle cx="121" cy="21" r="0.5" tabindex="45">
<title>
hole:45
</title>
</circle>
<circle cx="119" cy="0" r="0.5" tabindex="46">
<title>
hole:46
</title>
</circle>
<circle cx="103" cy="24" r="0.5" tabindex="47">
<title>
hole:47
</title>
</circle>
<circle cx="103" cy="1" r="0.5" tabindex="48">
<title>
hole:48
</title>
</circle>
<circle cx="90" cy="7" r="0.5" tabindex="49">
<title>
hole:49
</title>
</circle>
<circle cx="70" cy="0" r="0.5" tabindex="50">
<title>
hole:50
</title>
</circle>
<circle cx="87" cy="22" r="0.5" tabindex="51">
<title>
hole:51
</title>
</circle>
<circle cx="69" cy="28" r="0.5" tabindex="52">
<title>
hole:52
</title>
</circle>
<circle cx="50" cy="37" r="0.5" tabindex="53">
<title>
hole:53
</title>
</circle>
<circle cx="59" cy="16" r="0.5" tabindex="54">
<title>
hole:54
</title>
</circle>
<circle cx="62" cy="8" r="0.5" tabindex="55">
<title>
hole:55
</title>
</circle>
<circle cx="59" cy="0" r="0.5" tabindex="56">
<title>
hole:56
</title>
</circle>
<circle cx="45" cy="3" r="0.5" tabindex="57">
<title>
hole:57
</title>
</circle>
<circle cx="40" cy="18" r="0.5" tabindex="58">
<title>
hole:58
</title>
</circle>
<circle cx="24" cy="11" r="0.5" tabindex="59">
<title>
hole:59
</title>
</circle>
<circle cx="31" cy="28" r="0.5" tabindex="60">
<title>
hole:60
</title>
</circle>
<circle cx="2" cy="34" r="0.5" tabindex="61">
<title>
hole:61
</title>
</circle>
</g>
<g fill="#999999">
<circle cx="25" cy="80" r="0.5" tabindex="62">
<title>
v:0
</title>
</circle>
<circle cx="35" cy="110" r="0.5" tabindex="63">
<title>
v:1
</title>
</circle>
<circle cx="40" cy="45" r="0.5" tabindex="64">
<title>
v:2
</title>
</circle>
<circle cx="40" cy="65" r="0.5" tabindex="65">
<title>
v:3
</title>
</circle>
<circle cx="45" cy="20" r="0.5" tabindex="66">
<title>
v:4
</title>
</circle>
<circle cx="45" cy="85" r="0.5" tabindex="67">
<title>
v:5
</title>
</circle>
<circle cx="50" cy="35" r="0.5" tabindex="68">
<title>
v:6
</title>
</circle>
<circle cx="50" cy="50" r="0.5" tabindex="69">
<title>
v:7
</title>
</circle>
<circle cx="55" cy="45" r="0.5" tabindex="70">
<title>
v:8
</title>
</circle>
<circle cx="60" cy="35" r="0.5" tabindex="71">
<title>
v:9
</title>
</circle>
<circle cx="60" cy="60" r="0.5" tabindex="72">
<title>
v:10
</title>
</circle>
<circle cx="60" cy="70" r="0.5" tabindex="73">
<title>
v:11
</title>
</circle>
<circle cx="60" cy="85" r="0.5" tabindex="74">
<title>
v:12
</title>
</circle>
<circle cx="60" cy="105" r="0.5" tabindex="75">
<title>
v:13
</title>
</circle>
<circle cx="65" cy="55" r="0.5" tabindex="76">
<title>
v:14
</title>
</circle>
<circle cx="65" cy="75" r="0.5" tabindex="77">
<title>
v:15
</title>
</circle>
<circle cx="65" cy="80" r="0.5" tabindex="78">
<title>
v:16
</title>
</circle>
<circle cx="70" cy="30" r="0.5" tabindex="79">
<title>
v:17
</title>
</circle>
<circle cx="70" cy="115" r="0.5" tabindex="80">
<title>
v:18
</title>
</circle>
<circle cx="75" cy="55" r="0.5" tabindex="81">
<title>
v:19
</title>
</circle>
<circle cx="75" cy="75" r="0.5" tabindex="82">
<title>
v:20
</title>
</circle>
<circle cx="75" cy="80" r="0.5" tabindex="83">
<title>
v:21
</title>
</circle>
<circle cx="80" cy="35" r="0.5" tabindex="84">
<title>
v:22
</title>
</circle>
<circle cx="80" cy="60" r="0.5" tabindex="85">
<title>
v:23
</title>
</circle>
<circle cx="80" cy="70" r="0.5" tabindex="86">
<title>
v:24
</title>
</circle>
<circle cx="80" cy="85" r="0.5" tabindex="87">
<title>
v:25
</title>
</circle>
<circle cx="80" cy="105" r="0.5" tabindex="88">
<title>
v:26
</title>
</circle>
<circle cx="85" cy="45" r="0.5" tabindex="89">
<title>
v:27
</title>
</circle>
<circle cx="90" cy="35" r="0.5" tabindex="90">
<title>
v:28
</title>
</circle>
<circle cx="90" cy="50" r="0.5" tabindex="91">
<title>
v:29
</title>
</circle>
<circle cx="95" cy="20" r="0.5" tabindex="92">
<title>
v:30
</title>
</circle>
<circle cx="95" cy="85" r="0.5" tabindex="93">
<title>
v:31
</title>
</circle>
<circle cx="100" cy="45" r="0.5" tabindex="94">
<title>
v:32
</title>
</circle>
<circle cx="100" cy="65" r="0.5" tabindex="95">
<title>
v:33
</title>
</circle>
<circle cx="105" cy="110" r="0.5" tabindex="96">
<title>
v:34
</title>
</circle>
<circle cx="115" cy="80" r="0.5" tabindex="97">
<title>
v:35
</title>
</circle>
</g>
</svg>