<svg height="500" viewBox="0 -2 129 134" width="500" xmlns="http://www.w3.org/2000/svg">
<path class="hole" d="M2 51L15 52L14 63L16 78L2 73L2 83L5 97L4 116L16 105L24 125L25 100L24 86L32 68L50 60L64 94L47 85L42 99L52 101L41 113L33 130L51 128L58 117L74 103L63 129L74 130L85 121L95 129L127 130L110 119L102 117L85 105L127 107L105 92L116 82L127 82L127 71L87 67L70 58L54 50L79 47L93 34L122 59L127 49L120 40L120 30L121 21L119 0L103 24L103 1L90 7L70 0L87 22L69 28L50 37L59 16L62 8L59 0L45 3L40 18L24 11L31 28L2 34M0 -2L129 -2L129 132L0 132" style="fill:#00000066;fill-rule:evenodd;"/>
<circle cx="104" cy="69" fill="#ffff0066" r="5">
<title>
SuperFlex@105
</title>
</circle>
<circle cx="17" cy="36" fill="#ffff0066" r="5">
<title>
SuperFlex@7
</title>
</circle>
<circle cx="113" cy="105" fill="#ffff0066" r="5">
<title>
BreakALeg@58
</title>
</circle>
<path class="ok" d="M42 45L52 50M52 50L62 60M57 45L62 35M62 35L72 30M62 60L62 70M62 70L67 75M62 85L67 80M67 75L67 80M67 80L77 80M72 30L82 35M72 115L82 105M77 75L77 80M77 75L82 70M77 75L97 85M77 80L82 85M82 85L82 105" style="stroke:#0000ff;stroke-linecap:round"/>
<path class="out" d="M27 80L42 65M37 110L47 85M42 65L62 70M47 20L52 35M47 85L67 75M52 35L62 35M57 45L67 55M62 60L67 55M62 85L62 105M62 105L72 115M67 55L77 55M77 55L82 60M77 55L87 45M82 35L87 45M82 35L92 35M82 60L82 70M82 60L92 50M82 70L102 65M92 35L97 20M92 50L102 45M97 85L107 110M102 65L117 80" style="stroke:#ff0000;stroke-linecap:round"/>
<g fill="#333333">
<circle cx="2" cy="51" r="0.5">
<title>
hole:0
</title>
</circle>
<circle cx="15" cy="52" r="0.5">
<title>
hole:1
</title>
</circle>
<circle cx="14" cy="63" r="0.5">
<title>
hole:2
</title>
</circle>
<circle cx="16" cy="78" r="0.5">
<title>
hole:3
</title>
</circle>
<circle cx="2" cy="73" r="0.5">
<title>
hole:4
</title>
</circle>
<circle cx="2" cy="83" r="0.5">
<title>
hole:5
</title>
</circle>
<circle cx="5" cy="97" r="0.5">
<title>
hole:6
</title>
</circle>
<circle cx="4" cy="116" r="0.5">
<title>
hole:7
</title>
</circle>
<circle cx="16" cy="105" r="0.5">
<title>
hole:8
</title>
</circle>
<circle cx="24" cy="125" r="0.5">
<title>
hole:9
</title>
</circle>
<circle cx="25" cy="100" r="0.5">
<title>
hole:10
</title>
</circle>
<circle cx="24" cy="86" r="0.5">
<title>
hole:11
</title>
</circle>
<circle cx="32" cy="68" r="0.5">
<title>
hole:12
</title>
</circle>
<circle cx="50" cy="60" r="0.5">
<title>
hole:13
</title>
</circle>
<circle cx="64" cy="94" r="0.5">
<title>
hole:14
</title>
</circle>
<circle cx="47" cy="85" r="0.5">
<title>
hole:15
</title>
</circle>
<circle cx="42" cy="99" r="0.5">
<title>
hole:16
</title>
</circle>
<circle cx="52" cy="101" r="0.5">
<title>
hole:17
</title>
</circle>
<circle cx="41" cy="113" r="0.5">
<title>
hole:18
</title>
</circle>
<circle cx="33" cy="130" r="0.5">
<title>
hole:19
</title>
</circle>
<circle cx="51" cy="128" r="0.5">
<title>
hole:20
</title>
</circle>
<circle cx="58" cy="117" r="0.5">
<title>
hole:21
</title>
</circle>
<circle cx="74" cy="103" r="0.5">
<title>
hole:22
</title>
</circle>
<circle cx="63" cy="129" r="0.5">
<title>
hole:23
</title>
</circle>
<circle cx="74" cy="130" r="0.5">
<title>
hole:24
</title>
</circle>
<circle cx="85" cy="121" r="0.5">
<title>
hole:25
</title>
</circle>
<circle cx="95" cy="129" r="0.5">
<title>
hole:26
</title>
</circle>
<circle cx="127" cy="130" r="0.5">
<title>
hole:27
</title>
</circle>
<circle cx="110" cy="119" r="0.5">
<title>
hole:28
</title>
</circle>
<circle cx="102" cy="117" r="0.5">
<title>
hole:29
</title>
</circle>
<circle cx="85" cy="105" r="0.5">
<title>
hole:30
</title>
</circle>
<circle cx="127" cy="107" r="0.5">
<title>
hole:31
</title>
</circle>
<circle cx="105" cy="92" r="0.5">
<title>
hole:32
</title>
</circle>
<circle cx="116" cy="82" r="0.5">
<title>
hole:33
</title>
</circle>
<circle cx="127" cy="82" r="0.5">
<title>
hole:34
</title>
</circle>
<circle cx="127" cy="71" r="0.5">
<title>
hole:35
</title>
</circle>
<circle cx="87" cy="67" r="0.5">
<title>
hole:36
</title>
</circle>
<circle cx="70" cy="58" r="0.5">
<title>
hole:37
</title>
</circle>
<circle cx="54" cy="50" r="0.5">
<title>
hole:38
</title>
</circle>
<circle cx="79" cy="47" r="0.5">
<title>
hole:39
</title>
</circle>
<circle cx="93" cy="34" r="0.5">
<title>
hole:40
</title>
</circle>
<circle cx="122" cy="59" r="0.5">
<title>
hole:41
</title>
</circle>
<circle cx="127" cy="49" r="0.5">
<title>
hole:42
</title>
</circle>
<circle cx="120" cy="40" r="0.5">
<title>
hole:43
</title>
</circle>
<circle cx="120" cy="30" r="0.5">
<title>
hole:44
</title>
</circle>
<circle cx="121" cy="21" r="0.5">
<title>
hole:45
</title>
</circle>
<circle cx="119" cy="0" r="0.5">
<title>
hole:46
</title>
</circle>
<circle cx="103" cy="24" r="0.5">
<title>
hole:47
</title>
</circle>
<circle cx="103" cy="1" r="0.5">
<title>
hole:48
</title>
</circle>
<circle cx="90" cy="7" r="0.5">
<title>
hole:49
</title>
</circle>
<circle cx="70" cy="0" r="0.5">
<title>
hole:50
</title>
</circle>
<circle cx="87" cy="22" r="0.5">
<title>
hole:51
</title>
</circle>
<circle cx="69" cy="28" r="0.5">
<title>
hole:52
</title>
</circle>
<circle cx="50" cy="37" r="0.5">
<title>
hole:53
</title>
</circle>
<circle cx="59" cy="16" r="0.5">
<title>
hole:54
</title>
</circle>
<circle cx="62" cy="8" r="0.5">
<title>
hole:55
</title>
</circle>
<circle cx="59" cy="0" r="0.5">
<title>
hole:56
</title>
</circle>
<circle cx="45" cy="3" r="0.5">
<title>
hole:57
</title>
</circle>
<circle cx="40" cy="18" r="0.5">
<title>
hole:58
</title>
</circle>
<circle cx="24" cy="11" r="0.5">
<title>
hole:59
</title>
</circle>
<circle cx="31" cy="28" r="0.5">
<title>
hole:60
</title>
</circle>
<circle cx="2" cy="34" r="0.5">
<title>
hole:61
</title>
</circle>
</g>
<g fill="#999999">
<circle cx="27" cy="80" i="0" r="0.5" tabindex="0">
<title>
v:0
</title>
</circle>
<circle cx="37" cy="110" i="1" r="0.5" tabindex="1">
<title>
v:1
</title>
</circle>
<circle cx="42" cy="45" i="2" r="0.5" tabindex="2">
<title>
v:2
</title>
</circle>
<circle cx="42" cy="65" i="3" r="0.5" tabindex="3">
<title>
v:3
</title>
</circle>
<circle cx="47" cy="20" i="4" r="0.5" tabindex="4">
<title>
v:4
</title>
</circle>
<circle cx="47" cy="85" i="5" r="0.5" tabindex="5">
<title>
v:5
</title>
</circle>
<circle cx="52" cy="35" i="6" r="0.5" tabindex="6">
<title>
v:6
</title>
</circle>
<circle cx="52" cy="50" i="7" r="0.5" tabindex="7">
<title>
v:7
</title>
</circle>
<circle cx="57" cy="45" i="8" r="0.5" tabindex="8">
<title>
v:8
</title>
</circle>
<circle cx="62" cy="35" i="9" r="0.5" tabindex="9">
<title>
v:9
</title>
</circle>
<circle cx="62" cy="60" i="10" r="0.5" tabindex="10">
<title>
v:10
</title>
</circle>
<circle cx="62" cy="70" i="11" r="0.5" tabindex="11">
<title>
v:11
</title>
</circle>
<circle cx="62" cy="85" i="12" r="0.5" tabindex="12">
<title>
v:12
</title>
</circle>
<circle cx="62" cy="105" i="13" r="0.5" tabindex="13">
<title>
v:13
</title>
</circle>
<circle cx="67" cy="55" i="14" r="0.5" tabindex="14">
<title>
v:14
</title>
</circle>
<circle cx="67" cy="75" i="15" r="0.5" tabindex="15">
<title>
v:15
</title>
</circle>
<circle cx="67" cy="80" i="16" r="0.5" tabindex="16">
<title>
v:16
</title>
</circle>
<circle cx="72" cy="30" i="17" r="0.5" tabindex="17">
<title>
v:17
</title>
</circle>
<circle cx="72" cy="115" i="18" r="0.5" tabindex="18">
<title>
v:18
</title>
</circle>
<circle cx="77" cy="55" i="19" r="0.5" tabindex="19">
<title>
v:19
</title>
</circle>
<circle cx="77" cy="75" i="20" r="0.5" tabindex="20">
<title>
v:20
</title>
</circle>
<circle cx="77" cy="80" i="21" r="0.5" tabindex="21">
<title>
v:21
</title>
</circle>
<circle cx="82" cy="35" i="22" r="0.5" tabindex="22">
<title>
v:22
</title>
</circle>
<circle cx="82" cy="60" i="23" r="0.5" tabindex="23">
<title>
v:23
</title>
</circle>
<circle cx="82" cy="70" i="24" r="0.5" tabindex="24">
<title>
v:24
</title>
</circle>
<circle cx="82" cy="85" i="25" r="0.5" tabindex="25">
<title>
v:25
</title>
</circle>
<circle cx="82" cy="105" i="26" r="0.5" tabindex="26">
<title>
v:26
</title>
</circle>
<circle cx="87" cy="45" i="27" r="0.5" tabindex="27">
<title>
v:27
</title>
</circle>
<circle cx="92" cy="35" i="28" r="0.5" tabindex="28">
<title>
v:28
</title>
</circle>
<circle cx="92" cy="50" i="29" r="0.5" tabindex="29">
<title>
v:29
</title>
</circle>
<circle cx="97" cy="20" i="30" r="0.5" tabindex="30">
<title>
v:30
</title>
</circle>
<circle cx="97" cy="85" i="31" r="0.5" tabindex="31">
<title>
v:31
</title>
</circle>
<circle cx="102" cy="45" i="32" r="0.5" tabindex="32">
<title>
v:32
</title>
</circle>
<circle cx="102" cy="65" i="33" r="0.5" tabindex="33">
<title>
v:33
</title>
</circle>
<circle cx="107" cy="110" i="34" r="0.5" tabindex="34">
<title>
v:34
</title>
</circle>
<circle cx="117" cy="80" i="35" r="0.5" tabindex="35">
<title>
v:35
</title>
</circle>
</g>
</svg>