<svg height="500" viewBox="0 -2 843 607" width="500" xmlns="http://www.w3.org/2000/svg">
<path class="hole" d="M2 192L38 224L82 202L128 206L136 256L183 263L214 312L220 371L285 376L291 431L236 425L219 477L252 506L301 484L339 449L329 395L350 354L304 332L364 337L410 320L403 358L420 383L399 421L418 447L471 467L427 498L364 506L343 547L391 598L445 557L468 603L494 562L553 596L576 521L520 501L527 500L636 427L628 474L637 520L672 487L718 466L770 460L806 433L805 394L767 386L806 367L799 346L767 322L746 356L750 339L763 326L750 295L791 285L789 240L841 211L829 169L780 158L753 204L743 195L715 224L705 211L744 165L763 116L778 58L720 74L704 129L664 170L641 149L694 127L687 61L687 0L635 12L635 63L603 108L553 131L519 170L500 192L417 134L473 129L462 87L445 45L418 82L423 36L378 2L373 50L336 90L310 129L300 184L247 189L205 216L171 183L189 142L217 105L184 83L151 113L130 157L77 154L32 149M0 -2L843 -2L843 605L0 605" style="fill:#00000066;fill-rule:evenodd;"/>
<circle cx="395" cy="546" fill="#ffff0066" r="5">
<title>
SuperFlex@89
</title>
</circle>
<circle cx="473" cy="516" fill="#ffff0066" r="5">
<title>
SuperFlex@68
</title>
</circle>
<circle cx="254" cy="339" fill="#ffff0066" r="5">
<title>
Globalist@37
</title>
</circle>
<path class="ok" d="M47 177L94 161M51 165L105 174M58 166L106 160M106 160L56 177M80 162L40 164" style="stroke:#0000ff;stroke-linecap:round"/>
<path class="out" d="M96 89L44 89M96 89L83 135M44 89L25 130M83 135L56 94M25 130L56 94M25 130L54 86M56 94L17 118M17 118L54 86M17 118L52 81M17 118L64 133M54 86L70 132M54 86L64 133M52 81L38 126M70 132L59 89M70 132L36 98M64 133L36 98M64 133L47 177M38 126L47 177M38 126L96 125M59 89L43 52M36 98L43 52M47 177L81 128M96 125L46 157M96 125L79 71M68 73L26 108M68 73L35 102M46 157L110 147M26 108L81 100M94 161L64 110M94 161L114 112M35 102L55 52M81 128L79 71M81 128L64 110M81 128L39 89M79 71L122 113M79 71L126 101M79 71L34 106M49 54L64 110M49 54L66 111M110 147L81 100M110 147L126 101M110 147L133 104M64 110L114 112M64 110L103 63M81 100L55 52M81 100L133 104M81 100L107 56M122 113L103 63M114 112L61 97M114 112L60 99M55 52L107 56M126 101L145 149M126 101L67 105M61 97L81 144M61 97L33 145M39 89L91 113M34 106L91 113M34 106L88 109M133 104L107 56M133 104L145 149M66 111L103 63M39 86L33 145M39 86L93 89M86 81L59 118M86 81L17 91M103 63L60 99M103 63L67 105M103 63L111 127M91 113L74 168M81 144L33 145M81 144L59 96M60 99L33 145M60 99L11 89M60 99L111 127M67 105L113 75M33 145L59 96M33 145L86 138M88 109L74 168M59 118L89 62M93 89L56 120M93 89L42 110M93 89L48 64M56 120L48 64M17 91L76 123M11 89L75 86M79 107L49 138M79 107L35 90M97 119L100 53M97 119L147 92M111 127L59 107M111 127L51 149M113 75L59 107M113 75L62 44M86 138L42 110M86 138L75 86M86 138L41 105M42 110L48 64M42 110L83 131M42 110L80 86M92 59L76 7M92 59L97 116M49 138L35 90M49 138L96 107M89 62L76 123M89 62L97 116M100 53L115 105M100 53L65 93M49 92L73 50M49 92L88 128M76 7L73 64M73 50L59 97M59 107L113 128M59 107L62 44M59 107L51 165M113 128L87 76M51 149L105 174M83 131L80 86M76 123L123 101M76 123L118 149M35 90L73 64M147 92L106 37M147 92L107 55M80 86L41 105M53 86L96 107M53 86L90 61M115 105L65 93M123 101L118 149M97 116L73 64M97 116L151 92M96 107L73 64M96 107L90 61M45 96L90 61M45 96L72 47M106 37L52 76M88 128L34 137M88 128L63 92M65 93L107 55M105 110L52 76M105 110L70 65M59 97L34 137M73 64L46 114M107 55L52 76M107 55L98 114M118 149L151 92M118 149L53 169M64 138L63 92M64 138L97 156M51 165L87 76M51 165L36 107M51 165L16 136M87 76L36 107M105 174L76 118M90 61L98 114M90 61L49 97M34 137L81 135M63 92L81 135M63 92L116 94M97 156L125 113M97 156L76 118M151 92L94 112M151 92L93 101M151 92L2 96M72 47L49 97M52 76L98 114M52 76L90 124M70 65L90 124M36 107L16 136M16 136L49 97M16 136L58 166M16 136L105 118M81 135L116 94M46 114L98 114M46 114L94 112M125 113L76 118M125 113L109 165M53 169L93 101M98 114L49 97M98 114L67 163M49 97L66 70M49 97L105 118M66 70L98 123M66 70L105 118M76 118L116 94M76 118L58 166M76 118L106 160M90 124L42 103M58 166L51 121M58 166L47 117M55 81L104 68M55 81L76 132M104 68L53 103M104 68L54 84M98 123L48 145M98 123L54 84M53 103L2 96M109 165L126 113M109 165L65 131M51 60L47 117M51 60L107 90M106 160L65 131M106 160L104 114M51 121L55 67M51 121L56 177M67 163L105 118M67 163L42 103M67 163L7 130M67 163L64 101M105 118L47 117M105 118L54 84M105 118L118 66M105 118L105 60M47 117L48 60M56 77L93 105M56 77L2 96M56 77L48 122M55 67L98 109M75 120L126 113M75 120L44 76M126 113L104 65M48 145L54 84M48 145L97 113M93 105L48 122M65 131L104 114M65 131L39 79M76 132L54 84M7 130L64 101M54 84L2 96M54 84L105 60M54 84L97 113M54 84L95 113M2 96L52 89M56 177L59 114M56 177L90 90M107 90L50 88M107 90L55 116M118 66L64 101M48 122L99 119M105 60L48 60M105 60L80 109M105 60L95 113M105 60L143 95M48 60L55 116M48 60L100 85M80 109L123 141M44 76L104 65M104 65L39 79M98 109L117 84M98 109L59 114M98 109L88 75M95 113L52 89M95 113L37 120M95 113L143 95M95 113L80 162M52 89L99 119M52 89L61 149M52 89L45 137M117 84L92 80M117 84L88 75M59 114L95 129M59 114L90 90M59 114L64 56M50 88L105 72M50 88L103 80M50 88L92 131M55 116L100 85M55 116L103 80M37 120L80 162M92 80L54 92M95 129L90 90M95 129L58 145M99 119L49 137M105 72L92 131M105 72L48 90M88 75L78 103M88 75L64 56M88 75L54 92M143 95L123 141M90 90L64 56M90 90L104 42M90 90L53 98M90 90L63 63M90 90L55 55M78 103L87 81M58 145L53 98M61 149L105 124M45 137L86 126M45 137L81 118M103 80L92 131M80 162L86 126M64 56L87 81M64 56L68 98M104 42L68 81M104 42L55 55M92 131L48 90M40 164L63 131M86 126L68 92M86 126L48 147M81 118L107 86M49 137L105 124M53 98L63 63M68 81L97 39M55 55L68 98M55 55L78 0M63 131L48 147M68 92L107 86M97 39L78 0" style="stroke:#ff0000;stroke-linecap:round"/>
<g fill="#333333">
<circle cx="2" cy="192" r="0.5">
<title>
hole:0
</title>
</circle>
<circle cx="38" cy="224" r="0.5">
<title>
hole:1
</title>
</circle>
<circle cx="82" cy="202" r="0.5">
<title>
hole:2
</title>
</circle>
<circle cx="128" cy="206" r="0.5">
<title>
hole:3
</title>
</circle>
<circle cx="136" cy="256" r="0.5">
<title>
hole:4
</title>
</circle>
<circle cx="183" cy="263" r="0.5">
<title>
hole:5
</title>
</circle>
<circle cx="214" cy="312" r="0.5">
<title>
hole:6
</title>
</circle>
<circle cx="220" cy="371" r="0.5">
<title>
hole:7
</title>
</circle>
<circle cx="285" cy="376" r="0.5">
<title>
hole:8
</title>
</circle>
<circle cx="291" cy="431" r="0.5">
<title>
hole:9
</title>
</circle>
<circle cx="236" cy="425" r="0.5">
<title>
hole:10
</title>
</circle>
<circle cx="219" cy="477" r="0.5">
<title>
hole:11
</title>
</circle>
<circle cx="252" cy="506" r="0.5">
<title>
hole:12
</title>
</circle>
<circle cx="301" cy="484" r="0.5">
<title>
hole:13
</title>
</circle>
<circle cx="339" cy="449" r="0.5">
<title>
hole:14
</title>
</circle>
<circle cx="329" cy="395" r="0.5">
<title>
hole:15
</title>
</circle>
<circle cx="350" cy="354" r="0.5">
<title>
hole:16
</title>
</circle>
<circle cx="304" cy="332" r="0.5">
<title>
hole:17
</title>
</circle>
<circle cx="364" cy="337" r="0.5">
<title>
hole:18
</title>
</circle>
<circle cx="410" cy="320" r="0.5">
<title>
hole:19
</title>
</circle>
<circle cx="403" cy="358" r="0.5">
<title>
hole:20
</title>
</circle>
<circle cx="420" cy="383" r="0.5">
<title>
hole:21
</title>
</circle>
<circle cx="399" cy="421" r="0.5">
<title>
hole:22
</title>
</circle>
<circle cx="418" cy="447" r="0.5">
<title>
hole:23
</title>
</circle>
<circle cx="471" cy="467" r="0.5">
<title>
hole:24
</title>
</circle>
<circle cx="427" cy="498" r="0.5">
<title>
hole:25
</title>
</circle>
<circle cx="364" cy="506" r="0.5">
<title>
hole:26
</title>
</circle>
<circle cx="343" cy="547" r="0.5">
<title>
hole:27
</title>
</circle>
<circle cx="391" cy="598" r="0.5">
<title>
hole:28
</title>
</circle>
<circle cx="445" cy="557" r="0.5">
<title>
hole:29
</title>
</circle>
<circle cx="468" cy="603" r="0.5">
<title>
hole:30
</title>
</circle>
<circle cx="494" cy="562" r="0.5">
<title>
hole:31
</title>
</circle>
<circle cx="553" cy="596" r="0.5">
<title>
hole:32
</title>
</circle>
<circle cx="576" cy="521" r="0.5">
<title>
hole:33
</title>
</circle>
<circle cx="520" cy="501" r="0.5">
<title>
hole:34
</title>
</circle>
<circle cx="527" cy="500" r="0.5">
<title>
hole:35
</title>
</circle>
<circle cx="636" cy="427" r="0.5">
<title>
hole:36
</title>
</circle>
<circle cx="628" cy="474" r="0.5">
<title>
hole:37
</title>
</circle>
<circle cx="637" cy="520" r="0.5">
<title>
hole:38
</title>
</circle>
<circle cx="672" cy="487" r="0.5">
<title>
hole:39
</title>
</circle>
<circle cx="718" cy="466" r="0.5">
<title>
hole:40
</title>
</circle>
<circle cx="770" cy="460" r="0.5">
<title>
hole:41
</title>
</circle>
<circle cx="806" cy="433" r="0.5">
<title>
hole:42
</title>
</circle>
<circle cx="805" cy="394" r="0.5">
<title>
hole:43
</title>
</circle>
<circle cx="767" cy="386" r="0.5">
<title>
hole:44
</title>
</circle>
<circle cx="806" cy="367" r="0.5">
<title>
hole:45
</title>
</circle>
<circle cx="799" cy="346" r="0.5">
<title>
hole:46
</title>
</circle>
<circle cx="767" cy="322" r="0.5">
<title>
hole:47
</title>
</circle>
<circle cx="746" cy="356" r="0.5">
<title>
hole:48
</title>
</circle>
<circle cx="750" cy="339" r="0.5">
<title>
hole:49
</title>
</circle>
<circle cx="763" cy="326" r="0.5">
<title>
hole:50
</title>
</circle>
<circle cx="750" cy="295" r="0.5">
<title>
hole:51
</title>
</circle>
<circle cx="791" cy="285" r="0.5">
<title>
hole:52
</title>
</circle>
<circle cx="789" cy="240" r="0.5">
<title>
hole:53
</title>
</circle>
<circle cx="841" cy="211" r="0.5">
<title>
hole:54
</title>
</circle>
<circle cx="829" cy="169" r="0.5">
<title>
hole:55
</title>
</circle>
<circle cx="780" cy="158" r="0.5">
<title>
hole:56
</title>
</circle>
<circle cx="753" cy="204" r="0.5">
<title>
hole:57
</title>
</circle>
<circle cx="743" cy="195" r="0.5">
<title>
hole:58
</title>
</circle>
<circle cx="715" cy="224" r="0.5">
<title>
hole:59
</title>
</circle>
<circle cx="705" cy="211" r="0.5">
<title>
hole:60
</title>
</circle>
<circle cx="744" cy="165" r="0.5">
<title>
hole:61
</title>
</circle>
<circle cx="763" cy="116" r="0.5">
<title>
hole:62
</title>
</circle>
<circle cx="778" cy="58" r="0.5">
<title>
hole:63
</title>
</circle>
<circle cx="720" cy="74" r="0.5">
<title>
hole:64
</title>
</circle>
<circle cx="704" cy="129" r="0.5">
<title>
hole:65
</title>
</circle>
<circle cx="664" cy="170" r="0.5">
<title>
hole:66
</title>
</circle>
<circle cx="641" cy="149" r="0.5">
<title>
hole:67
</title>
</circle>
<circle cx="694" cy="127" r="0.5">
<title>
hole:68
</title>
</circle>
<circle cx="687" cy="61" r="0.5">
<title>
hole:69
</title>
</circle>
<circle cx="687" cy="0" r="0.5">
<title>
hole:70
</title>
</circle>
<circle cx="635" cy="12" r="0.5">
<title>
hole:71
</title>
</circle>
<circle cx="635" cy="63" r="0.5">
<title>
hole:72
</title>
</circle>
<circle cx="603" cy="108" r="0.5">
<title>
hole:73
</title>
</circle>
<circle cx="553" cy="131" r="0.5">
<title>
hole:74
</title>
</circle>
<circle cx="519" cy="170" r="0.5">
<title>
hole:75
</title>
</circle>
<circle cx="500" cy="192" r="0.5">
<title>
hole:76
</title>
</circle>
<circle cx="417" cy="134" r="0.5">
<title>
hole:77
</title>
</circle>
<circle cx="473" cy="129" r="0.5">
<title>
hole:78
</title>
</circle>
<circle cx="462" cy="87" r="0.5">
<title>
hole:79
</title>
</circle>
<circle cx="445" cy="45" r="0.5">
<title>
hole:80
</title>
</circle>
<circle cx="418" cy="82" r="0.5">
<title>
hole:81
</title>
</circle>
<circle cx="423" cy="36" r="0.5">
<title>
hole:82
</title>
</circle>
<circle cx="378" cy="2" r="0.5">
<title>
hole:83
</title>
</circle>
<circle cx="373" cy="50" r="0.5">
<title>
hole:84
</title>
</circle>
<circle cx="336" cy="90" r="0.5">
<title>
hole:85
</title>
</circle>
<circle cx="310" cy="129" r="0.5">
<title>
hole:86
</title>
</circle>
<circle cx="300" cy="184" r="0.5">
<title>
hole:87
</title>
</circle>
<circle cx="247" cy="189" r="0.5">
<title>
hole:88
</title>
</circle>
<circle cx="205" cy="216" r="0.5">
<title>
hole:89
</title>
</circle>
<circle cx="171" cy="183" r="0.5">
<title>
hole:90
</title>
</circle>
<circle cx="189" cy="142" r="0.5">
<title>
hole:91
</title>
</circle>
<circle cx="217" cy="105" r="0.5">
<title>
hole:92
</title>
</circle>
<circle cx="184" cy="83" r="0.5">
<title>
hole:93
</title>
</circle>
<circle cx="151" cy="113" r="0.5">
<title>
hole:94
</title>
</circle>
<circle cx="130" cy="157" r="0.5">
<title>
hole:95
</title>
</circle>
<circle cx="77" cy="154" r="0.5">
<title>
hole:96
</title>
</circle>
<circle cx="32" cy="149" r="0.5">
<title>
hole:97
</title>
</circle>
</g>
<g fill="#999999">
<circle cx="96" cy="89" i="0" r="0.5" tabindex="0">
<title>
v:0
</title>
</circle>
<circle cx="44" cy="89" i="1" r="0.5" tabindex="1">
<title>
v:1
</title>
</circle>
<circle cx="83" cy="135" i="2" r="0.5" tabindex="2">
<title>
v:2
</title>
</circle>
<circle cx="25" cy="130" i="3" r="0.5" tabindex="3">
<title>
v:3
</title>
</circle>
<circle cx="56" cy="94" i="4" r="0.5" tabindex="4">
<title>
v:4
</title>
</circle>
<circle cx="17" cy="118" i="5" r="0.5" tabindex="5">
<title>
v:5
</title>
</circle>
<circle cx="54" cy="86" i="6" r="0.5" tabindex="6">
<title>
v:6
</title>
</circle>
<circle cx="52" cy="81" i="7" r="0.5" tabindex="7">
<title>
v:7
</title>
</circle>
<circle cx="70" cy="132" i="8" r="0.5" tabindex="8">
<title>
v:8
</title>
</circle>
<circle cx="64" cy="133" i="9" r="0.5" tabindex="9">
<title>
v:9
</title>
</circle>
<circle cx="38" cy="126" i="10" r="0.5" tabindex="10">
<title>
v:10
</title>
</circle>
<circle cx="59" cy="89" i="11" r="0.5" tabindex="11">
<title>
v:11
</title>
</circle>
<circle cx="36" cy="98" i="12" r="0.5" tabindex="12">
<title>
v:12
</title>
</circle>
<circle cx="47" cy="177" i="13" r="0.5" tabindex="13">
<title>
v:13
</title>
</circle>
<circle cx="96" cy="125" i="14" r="0.5" tabindex="14">
<title>
v:14
</title>
</circle>
<circle cx="43" cy="52" i="15" r="0.5" tabindex="15">
<title>
v:15
</title>
</circle>
<circle cx="68" cy="73" i="16" r="0.5" tabindex="16">
<title>
v:16
</title>
</circle>
<circle cx="46" cy="157" i="17" r="0.5" tabindex="17">
<title>
v:17
</title>
</circle>
<circle cx="26" cy="108" i="18" r="0.5" tabindex="18">
<title>
v:18
</title>
</circle>
<circle cx="94" cy="161" i="19" r="0.5" tabindex="19">
<title>
v:19
</title>
</circle>
<circle cx="35" cy="102" i="20" r="0.5" tabindex="20">
<title>
v:20
</title>
</circle>
<circle cx="81" cy="128" i="21" r="0.5" tabindex="21">
<title>
v:21
</title>
</circle>
<circle cx="79" cy="71" i="22" r="0.5" tabindex="22">
<title>
v:22
</title>
</circle>
<circle cx="49" cy="54" i="23" r="0.5" tabindex="23">
<title>
v:23
</title>
</circle>
<circle cx="110" cy="147" i="24" r="0.5" tabindex="24">
<title>
v:24
</title>
</circle>
<circle cx="64" cy="110" i="25" r="0.5" tabindex="25">
<title>
v:25
</title>
</circle>
<circle cx="81" cy="100" i="26" r="0.5" tabindex="26">
<title>
v:26
</title>
</circle>
<circle cx="122" cy="113" i="27" r="0.5" tabindex="27">
<title>
v:27
</title>
</circle>
<circle cx="114" cy="112" i="28" r="0.5" tabindex="28">
<title>
v:28
</title>
</circle>
<circle cx="55" cy="52" i="29" r="0.5" tabindex="29">
<title>
v:29
</title>
</circle>
<circle cx="126" cy="101" i="30" r="0.5" tabindex="30">
<title>
v:30
</title>
</circle>
<circle cx="61" cy="97" i="31" r="0.5" tabindex="31">
<title>
v:31
</title>
</circle>
<circle cx="39" cy="89" i="32" r="0.5" tabindex="32">
<title>
v:32
</title>
</circle>
<circle cx="34" cy="106" i="33" r="0.5" tabindex="33">
<title>
v:33
</title>
</circle>
<circle cx="133" cy="104" i="34" r="0.5" tabindex="34">
<title>
v:34
</title>
</circle>
<circle cx="66" cy="111" i="35" r="0.5" tabindex="35">
<title>
v:35
</title>
</circle>
<circle cx="39" cy="86" i="36" r="0.5" tabindex="36">
<title>
v:36
</title>
</circle>
<circle cx="107" cy="56" i="37" r="0.5" tabindex="37">
<title>
v:37
</title>
</circle>
<circle cx="86" cy="81" i="38" r="0.5" tabindex="38">
<title>
v:38
</title>
</circle>
<circle cx="103" cy="63" i="39" r="0.5" tabindex="39">
<title>
v:39
</title>
</circle>
<circle cx="91" cy="113" i="40" r="0.5" tabindex="40">
<title>
v:40
</title>
</circle>
<circle cx="81" cy="144" i="41" r="0.5" tabindex="41">
<title>
v:41
</title>
</circle>
<circle cx="145" cy="149" i="42" r="0.5" tabindex="42">
<title>
v:42
</title>
</circle>
<circle cx="60" cy="99" i="43" r="0.5" tabindex="43">
<title>
v:43
</title>
</circle>
<circle cx="67" cy="105" i="44" r="0.5" tabindex="44">
<title>
v:44
</title>
</circle>
<circle cx="33" cy="145" i="45" r="0.5" tabindex="45">
<title>
v:45
</title>
</circle>
<circle cx="88" cy="109" i="46" r="0.5" tabindex="46">
<title>
v:46
</title>
</circle>
<circle cx="59" cy="118" i="47" r="0.5" tabindex="47">
<title>
v:47
</title>
</circle>
<circle cx="93" cy="89" i="48" r="0.5" tabindex="48">
<title>
v:48
</title>
</circle>
<circle cx="56" cy="120" i="49" r="0.5" tabindex="49">
<title>
v:49
</title>
</circle>
<circle cx="17" cy="91" i="50" r="0.5" tabindex="50">
<title>
v:50
</title>
</circle>
<circle cx="11" cy="89" i="51" r="0.5" tabindex="51">
<title>
v:51
</title>
</circle>
<circle cx="74" cy="168" i="52" r="0.5" tabindex="52">
<title>
v:52
</title>
</circle>
<circle cx="79" cy="107" i="53" r="0.5" tabindex="53">
<title>
v:53
</title>
</circle>
<circle cx="59" cy="96" i="54" r="0.5" tabindex="54">
<title>
v:54
</title>
</circle>
<circle cx="97" cy="119" i="55" r="0.5" tabindex="55">
<title>
v:55
</title>
</circle>
<circle cx="111" cy="127" i="56" r="0.5" tabindex="56">
<title>
v:56
</title>
</circle>
<circle cx="113" cy="75" i="57" r="0.5" tabindex="57">
<title>
v:57
</title>
</circle>
<circle cx="86" cy="138" i="58" r="0.5" tabindex="58">
<title>
v:58
</title>
</circle>
<circle cx="42" cy="110" i="59" r="0.5" tabindex="59">
<title>
v:59
</title>
</circle>
<circle cx="92" cy="59" i="60" r="0.5" tabindex="60">
<title>
v:60
</title>
</circle>
<circle cx="49" cy="138" i="61" r="0.5" tabindex="61">
<title>
v:61
</title>
</circle>
<circle cx="48" cy="64" i="62" r="0.5" tabindex="62">
<title>
v:62
</title>
</circle>
<circle cx="89" cy="62" i="63" r="0.5" tabindex="63">
<title>
v:63
</title>
</circle>
<circle cx="100" cy="53" i="64" r="0.5" tabindex="64">
<title>
v:64
</title>
</circle>
<circle cx="49" cy="92" i="65" r="0.5" tabindex="65">
<title>
v:65
</title>
</circle>
<circle cx="76" cy="7" i="66" r="0.5" tabindex="66">
<title>
v:66
</title>
</circle>
<circle cx="73" cy="50" i="67" r="0.5" tabindex="67">
<title>
v:67
</title>
</circle>
<circle cx="59" cy="107" i="68" r="0.5" tabindex="68">
<title>
v:68
</title>
</circle>
<circle cx="113" cy="128" i="69" r="0.5" tabindex="69">
<title>
v:69
</title>
</circle>
<circle cx="51" cy="149" i="70" r="0.5" tabindex="70">
<title>
v:70
</title>
</circle>
<circle cx="83" cy="131" i="71" r="0.5" tabindex="71">
<title>
v:71
</title>
</circle>
<circle cx="76" cy="123" i="72" r="0.5" tabindex="72">
<title>
v:72
</title>
</circle>
<circle cx="35" cy="90" i="73" r="0.5" tabindex="73">
<title>
v:73
</title>
</circle>
<circle cx="147" cy="92" i="74" r="0.5" tabindex="74">
<title>
v:74
</title>
</circle>
<circle cx="75" cy="86" i="75" r="0.5" tabindex="75">
<title>
v:75
</title>
</circle>
<circle cx="80" cy="86" i="76" r="0.5" tabindex="76">
<title>
v:76
</title>
</circle>
<circle cx="53" cy="86" i="77" r="0.5" tabindex="77">
<title>
v:77
</title>
</circle>
<circle cx="115" cy="105" i="78" r="0.5" tabindex="78">
<title>
v:78
</title>
</circle>
<circle cx="123" cy="101" i="79" r="0.5" tabindex="79">
<title>
v:79
</title>
</circle>
<circle cx="62" cy="44" i="80" r="0.5" tabindex="80">
<title>
v:80
</title>
</circle>
<circle cx="97" cy="116" i="81" r="0.5" tabindex="81">
<title>
v:81
</title>
</circle>
<circle cx="41" cy="105" i="82" r="0.5" tabindex="82">
<title>
v:82
</title>
</circle>
<circle cx="96" cy="107" i="83" r="0.5" tabindex="83">
<title>
v:83
</title>
</circle>
<circle cx="45" cy="96" i="84" r="0.5" tabindex="84">
<title>
v:84
</title>
</circle>
<circle cx="106" cy="37" i="85" r="0.5" tabindex="85">
<title>
v:85
</title>
</circle>
<circle cx="88" cy="128" i="86" r="0.5" tabindex="86">
<title>
v:86
</title>
</circle>
<circle cx="65" cy="93" i="87" r="0.5" tabindex="87">
<title>
v:87
</title>
</circle>
<circle cx="105" cy="110" i="88" r="0.5" tabindex="88">
<title>
v:88
</title>
</circle>
<circle cx="59" cy="97" i="89" r="0.5" tabindex="89">
<title>
v:89
</title>
</circle>
<circle cx="73" cy="64" i="90" r="0.5" tabindex="90">
<title>
v:90
</title>
</circle>
<circle cx="107" cy="55" i="91" r="0.5" tabindex="91">
<title>
v:91
</title>
</circle>
<circle cx="118" cy="149" i="92" r="0.5" tabindex="92">
<title>
v:92
</title>
</circle>
<circle cx="64" cy="138" i="93" r="0.5" tabindex="93">
<title>
v:93
</title>
</circle>
<circle cx="51" cy="165" i="94" r="0.5" tabindex="94">
<title>
v:94
</title>
</circle>
<circle cx="87" cy="76" i="95" r="0.5" tabindex="95">
<title>
v:95
</title>
</circle>
<circle cx="105" cy="174" i="96" r="0.5" tabindex="96">
<title>
v:96
</title>
</circle>
<circle cx="90" cy="61" i="97" r="0.5" tabindex="97">
<title>
v:97
</title>
</circle>
<circle cx="34" cy="137" i="98" r="0.5" tabindex="98">
<title>
v:98
</title>
</circle>
<circle cx="63" cy="92" i="99" r="0.5" tabindex="99">
<title>
v:99
</title>
</circle>
<circle cx="97" cy="156" i="100" r="0.5" tabindex="100">
<title>
v:100
</title>
</circle>
<circle cx="151" cy="92" i="101" r="0.5" tabindex="101">
<title>
v:101
</title>
</circle>
<circle cx="72" cy="47" i="102" r="0.5" tabindex="102">
<title>
v:102
</title>
</circle>
<circle cx="52" cy="76" i="103" r="0.5" tabindex="103">
<title>
v:103
</title>
</circle>
<circle cx="70" cy="65" i="104" r="0.5" tabindex="104">
<title>
v:104
</title>
</circle>
<circle cx="36" cy="107" i="105" r="0.5" tabindex="105">
<title>
v:105
</title>
</circle>
<circle cx="16" cy="136" i="106" r="0.5" tabindex="106">
<title>
v:106
</title>
</circle>
<circle cx="81" cy="135" i="107" r="0.5" tabindex="107">
<title>
v:107
</title>
</circle>
<circle cx="46" cy="114" i="108" r="0.5" tabindex="108">
<title>
v:108
</title>
</circle>
<circle cx="125" cy="113" i="109" r="0.5" tabindex="109">
<title>
v:109
</title>
</circle>
<circle cx="53" cy="169" i="110" r="0.5" tabindex="110">
<title>
v:110
</title>
</circle>
<circle cx="98" cy="114" i="111" r="0.5" tabindex="111">
<title>
v:111
</title>
</circle>
<circle cx="49" cy="97" i="112" r="0.5" tabindex="112">
<title>
v:112
</title>
</circle>
<circle cx="66" cy="70" i="113" r="0.5" tabindex="113">
<title>
v:113
</title>
</circle>
<circle cx="76" cy="118" i="114" r="0.5" tabindex="114">
<title>
v:114
</title>
</circle>
<circle cx="94" cy="112" i="115" r="0.5" tabindex="115">
<title>
v:115
</title>
</circle>
<circle cx="116" cy="94" i="116" r="0.5" tabindex="116">
<title>
v:116
</title>
</circle>
<circle cx="90" cy="124" i="117" r="0.5" tabindex="117">
<title>
v:117
</title>
</circle>
<circle cx="93" cy="101" i="118" r="0.5" tabindex="118">
<title>
v:118
</title>
</circle>
<circle cx="58" cy="166" i="119" r="0.5" tabindex="119">
<title>
v:119
</title>
</circle>
<circle cx="55" cy="81" i="120" r="0.5" tabindex="120">
<title>
v:120
</title>
</circle>
<circle cx="104" cy="68" i="121" r="0.5" tabindex="121">
<title>
v:121
</title>
</circle>
<circle cx="98" cy="123" i="122" r="0.5" tabindex="122">
<title>
v:122
</title>
</circle>
<circle cx="53" cy="103" i="123" r="0.5" tabindex="123">
<title>
v:123
</title>
</circle>
<circle cx="109" cy="165" i="124" r="0.5" tabindex="124">
<title>
v:124
</title>
</circle>
<circle cx="51" cy="60" i="125" r="0.5" tabindex="125">
<title>
v:125
</title>
</circle>
<circle cx="106" cy="160" i="126" r="0.5" tabindex="126">
<title>
v:126
</title>
</circle>
<circle cx="51" cy="121" i="127" r="0.5" tabindex="127">
<title>
v:127
</title>
</circle>
<circle cx="67" cy="163" i="128" r="0.5" tabindex="128">
<title>
v:128
</title>
</circle>
<circle cx="105" cy="118" i="129" r="0.5" tabindex="129">
<title>
v:129
</title>
</circle>
<circle cx="42" cy="103" i="130" r="0.5" tabindex="130">
<title>
v:130
</title>
</circle>
<circle cx="47" cy="117" i="131" r="0.5" tabindex="131">
<title>
v:131
</title>
</circle>
<circle cx="56" cy="77" i="132" r="0.5" tabindex="132">
<title>
v:132
</title>
</circle>
<circle cx="55" cy="67" i="133" r="0.5" tabindex="133">
<title>
v:133
</title>
</circle>
<circle cx="75" cy="120" i="134" r="0.5" tabindex="134">
<title>
v:134
</title>
</circle>
<circle cx="126" cy="113" i="135" r="0.5" tabindex="135">
<title>
v:135
</title>
</circle>
<circle cx="48" cy="145" i="136" r="0.5" tabindex="136">
<title>
v:136
</title>
</circle>
<circle cx="93" cy="105" i="137" r="0.5" tabindex="137">
<title>
v:137
</title>
</circle>
<circle cx="65" cy="131" i="138" r="0.5" tabindex="138">
<title>
v:138
</title>
</circle>
<circle cx="76" cy="132" i="139" r="0.5" tabindex="139">
<title>
v:139
</title>
</circle>
<circle cx="7" cy="130" i="140" r="0.5" tabindex="140">
<title>
v:140
</title>
</circle>
<circle cx="54" cy="84" i="141" r="0.5" tabindex="141">
<title>
v:141
</title>
</circle>
<circle cx="2" cy="96" i="142" r="0.5" tabindex="142">
<title>
v:142
</title>
</circle>
<circle cx="56" cy="177" i="143" r="0.5" tabindex="143">
<title>
v:143
</title>
</circle>
<circle cx="104" cy="114" i="144" r="0.5" tabindex="144">
<title>
v:144
</title>
</circle>
<circle cx="107" cy="90" i="145" r="0.5" tabindex="145">
<title>
v:145
</title>
</circle>
<circle cx="118" cy="66" i="146" r="0.5" tabindex="146">
<title>
v:146
</title>
</circle>
<circle cx="48" cy="122" i="147" r="0.5" tabindex="147">
<title>
v:147
</title>
</circle>
<circle cx="105" cy="60" i="148" r="0.5" tabindex="148">
<title>
v:148
</title>
</circle>
<circle cx="64" cy="101" i="149" r="0.5" tabindex="149">
<title>
v:149
</title>
</circle>
<circle cx="48" cy="60" i="150" r="0.5" tabindex="150">
<title>
v:150
</title>
</circle>
<circle cx="80" cy="109" i="151" r="0.5" tabindex="151">
<title>
v:151
</title>
</circle>
<circle cx="44" cy="76" i="152" r="0.5" tabindex="152">
<title>
v:152
</title>
</circle>
<circle cx="104" cy="65" i="153" r="0.5" tabindex="153">
<title>
v:153
</title>
</circle>
<circle cx="97" cy="113" i="154" r="0.5" tabindex="154">
<title>
v:154
</title>
</circle>
<circle cx="98" cy="109" i="155" r="0.5" tabindex="155">
<title>
v:155
</title>
</circle>
<circle cx="39" cy="79" i="156" r="0.5" tabindex="156">
<title>
v:156
</title>
</circle>
<circle cx="95" cy="113" i="157" r="0.5" tabindex="157">
<title>
v:157
</title>
</circle>
<circle cx="52" cy="89" i="158" r="0.5" tabindex="158">
<title>
v:158
</title>
</circle>
<circle cx="117" cy="84" i="159" r="0.5" tabindex="159">
<title>
v:159
</title>
</circle>
<circle cx="59" cy="114" i="160" r="0.5" tabindex="160">
<title>
v:160
</title>
</circle>
<circle cx="50" cy="88" i="161" r="0.5" tabindex="161">
<title>
v:161
</title>
</circle>
<circle cx="55" cy="116" i="162" r="0.5" tabindex="162">
<title>
v:162
</title>
</circle>
<circle cx="37" cy="120" i="163" r="0.5" tabindex="163">
<title>
v:163
</title>
</circle>
<circle cx="92" cy="80" i="164" r="0.5" tabindex="164">
<title>
v:164
</title>
</circle>
<circle cx="95" cy="129" i="165" r="0.5" tabindex="165">
<title>
v:165
</title>
</circle>
<circle cx="99" cy="119" i="166" r="0.5" tabindex="166">
<title>
v:166
</title>
</circle>
<circle cx="105" cy="72" i="167" r="0.5" tabindex="167">
<title>
v:167
</title>
</circle>
<circle cx="88" cy="75" i="168" r="0.5" tabindex="168">
<title>
v:168
</title>
</circle>
<circle cx="143" cy="95" i="169" r="0.5" tabindex="169">
<title>
v:169
</title>
</circle>
<circle cx="123" cy="141" i="170" r="0.5" tabindex="170">
<title>
v:170
</title>
</circle>
<circle cx="100" cy="85" i="171" r="0.5" tabindex="171">
<title>
v:171
</title>
</circle>
<circle cx="90" cy="90" i="172" r="0.5" tabindex="172">
<title>
v:172
</title>
</circle>
<circle cx="78" cy="103" i="173" r="0.5" tabindex="173">
<title>
v:173
</title>
</circle>
<circle cx="58" cy="145" i="174" r="0.5" tabindex="174">
<title>
v:174
</title>
</circle>
<circle cx="61" cy="149" i="175" r="0.5" tabindex="175">
<title>
v:175
</title>
</circle>
<circle cx="45" cy="137" i="176" r="0.5" tabindex="176">
<title>
v:176
</title>
</circle>
<circle cx="103" cy="80" i="177" r="0.5" tabindex="177">
<title>
v:177
</title>
</circle>
<circle cx="80" cy="162" i="178" r="0.5" tabindex="178">
<title>
v:178
</title>
</circle>
<circle cx="64" cy="56" i="179" r="0.5" tabindex="179">
<title>
v:179
</title>
</circle>
<circle cx="54" cy="92" i="180" r="0.5" tabindex="180">
<title>
v:180
</title>
</circle>
<circle cx="104" cy="42" i="181" r="0.5" tabindex="181">
<title>
v:181
</title>
</circle>
<circle cx="92" cy="131" i="182" r="0.5" tabindex="182">
<title>
v:182
</title>
</circle>
<circle cx="87" cy="81" i="183" r="0.5" tabindex="183">
<title>
v:183
</title>
</circle>
<circle cx="40" cy="164" i="184" r="0.5" tabindex="184">
<title>
v:184
</title>
</circle>
<circle cx="86" cy="126" i="185" r="0.5" tabindex="185">
<title>
v:185
</title>
</circle>
<circle cx="81" cy="118" i="186" r="0.5" tabindex="186">
<title>
v:186
</title>
</circle>
<circle cx="49" cy="137" i="187" r="0.5" tabindex="187">
<title>
v:187
</title>
</circle>
<circle cx="53" cy="98" i="188" r="0.5" tabindex="188">
<title>
v:188
</title>
</circle>
<circle cx="63" cy="63" i="189" r="0.5" tabindex="189">
<title>
v:189
</title>
</circle>
<circle cx="48" cy="90" i="190" r="0.5" tabindex="190">
<title>
v:190
</title>
</circle>
<circle cx="68" cy="81" i="191" r="0.5" tabindex="191">
<title>
v:191
</title>
</circle>
<circle cx="105" cy="124" i="192" r="0.5" tabindex="192">
<title>
v:192
</title>
</circle>
<circle cx="55" cy="55" i="193" r="0.5" tabindex="193">
<title>
v:193
</title>
</circle>
<circle cx="68" cy="98" i="194" r="0.5" tabindex="194">
<title>
v:194
</title>
</circle>
<circle cx="63" cy="131" i="195" r="0.5" tabindex="195">
<title>
v:195
</title>
</circle>
<circle cx="68" cy="92" i="196" r="0.5" tabindex="196">
<title>
v:196
</title>
</circle>
<circle cx="48" cy="147" i="197" r="0.5" tabindex="197">
<title>
v:197
</title>
</circle>
<circle cx="107" cy="86" i="198" r="0.5" tabindex="198">
<title>
v:198
</title>
</circle>
<circle cx="97" cy="39" i="199" r="0.5" tabindex="199">
<title>
v:199
</title>
</circle>
<circle cx="78" cy="0" i="200" r="0.5" tabindex="200">
<title>
v:200
</title>
</circle>
</g>
</svg>