<svg height="500" viewBox="0 -2 875 885" width="500" xmlns="http://www.w3.org/2000/svg">
<path class="hole" d="M2 161L78 194L156 212L80 244L150 290L226 317L296 364L337 424L349 446L305 507L286 528L321 592L232 581L199 672L270 730L345 679L378 735L360 801L411 823L430 848L493 861L508 804L529 750L566 701L603 755L563 805L555 869L617 881L626 815L688 804L714 771L707 709L762 694L759 629L710 616L675 661L617 667L636 578L600 528L667 544L725 550L740 490L811 478L873 452L817 416L810 353L753 324L758 389L699 372L711 431L681 373L652 311L620 260L610 200L542 210L558 273L494 248L432 267L428 192L433 175L399 105L326 113L381 71L357 4L288 8L269 74L207 116L217 36L137 0L90 74L131 134L85 70L13 82M0 -2L875 -2L875 883L0 883" style="fill:#00000066;fill-rule:evenodd;"/>
<circle cx="272" cy="651" fill="#ffff0066" r="5">
<title>
BreakALeg@94
</title>
</circle>
<circle cx="158" cy="69" fill="#ffff0066" r="5">
<title>
SuperFlex@51
</title>
</circle>
<circle cx="209" cy="252" fill="#ffff0066" r="5">
<title>
BreakALeg@104
</title>
</circle>
<path class="ok" d="M165 213L156 138M156 138L161 207M156 138L144 70M114 138L181 128M144 70L131 138M181 128L209 64M112 246L165 267M165 267L158 200M165 267L103 240M158 200L172 264M103 240L172 264M103 240L168 247" style="stroke:#0000ff;stroke-linecap:round"/>
<path class="out" d="M123 363L136 285M123 363L83 291M136 285L63 286M83 291L87 211M83 291L155 256M73 252L116 324M73 252L155 256M63 286L87 211M133 267L87 211M133 267L78 199M87 211L155 256M87 211L165 213M78 199L117 277M116 324L155 256M116 324L36 320M155 256L89 216M53 335L87 426M53 335L73 425M165 213L117 277M165 213L89 216M36 320L14 243M36 320L117 343M89 216L14 243M89 216L114 138M87 426L2 455M73 425L69 516M14 243L91 273M14 243L32 323M122 333L53 328M122 333L75 271M122 333L91 273M65 417L2 455M65 417L60 337M161 207L92 198M53 328L91 273M117 343L132 272M117 343L91 273M208 282L141 316M208 282L123 286M75 271L91 202M114 138L144 70M2 455L69 516M2 455L52 403M144 70L165 0M132 272L144 338M91 273L32 323M91 273L125 299M91 273L91 202M91 273L165 267M69 516L4 508M69 516L26 563M141 316L112 246M141 316L66 332M92 198L131 138M125 299L112 246M125 299L165 267M60 337L52 403M40 450L4 508M40 450L60 398M91 202L165 267M91 202L125 268M91 202L158 200M123 286L66 332M4 508L26 563M4 508L61 521M52 403L66 332M52 403L42 481M112 246L143 313M85 236L113 297M85 236L123 284M165 0L26 563M165 0L209 64M144 338L165 267M26 563L61 521M26 563L42 481M66 332L143 313M66 332L120 383M60 398L76 461M125 268L158 200M108 319L159 284M108 319L103 383M113 297L159 284M113 297L54 271M158 200L103 240M61 521L76 461M123 284L54 271M42 481L50 407M158 406L124 357M158 406L174 342M159 284L116 326M143 313L120 383M143 313L168 247M143 313L73 307M103 240L150 292M103 240L138 310M124 357L99 307M124 357L61 352M120 383L50 407M120 383L49 379M54 271L99 307M54 271L113 268M174 342L121 370M103 383L116 326M172 264L195 328M50 407L61 352M50 407L123 404M168 247L143 313M168 247L143 312M73 307L121 370M73 307L143 313M116 326L113 268M99 307L61 352M99 307L157 311M113 268L157 311M150 292L94 272M61 352L121 370M61 352L118 332M61 352L110 313M121 370L109 309M131 314L195 328M131 314L166 255M138 310L195 328M138 310L94 270M49 379L123 404M121 364L135 301M121 364L130 302M143 313L110 375M195 328L135 307M135 301L118 363M135 301L180 346M134 316L92 268M134 316L94 270M157 311L118 363M157 311L103 281M143 312L94 272M123 404L118 332M118 332L103 281M109 309L110 375M109 309L131 367M109 309L40 304M110 313L131 367M92 268L85 327M118 363L180 346M118 363L69 327M94 270L114 347M94 270L80 331M94 270L145 307M166 255L135 307M110 375L47 362M103 281L69 327M103 281L128 334M130 302L180 346M135 307L80 331M180 346L121 324M69 327L102 279M69 327L128 334M69 327L105 281M69 327L94 266M114 347L47 362M114 347L138 295M114 347L73 302M80 331L145 307M80 331L138 295M102 279L50 251M85 327L145 307M40 304L47 362M40 304L50 362M47 362L73 302M47 362L112 355M128 334L105 281M128 334L184 322M138 295L73 302M121 324L94 266M112 348L73 302M112 348L135 291M105 281L50 251M105 281L162 277M184 322L136 337M73 302L112 355M73 302L135 291M50 362L112 355M112 355L182 371M122 355L135 291M122 355L75 312M135 291L75 312M135 291L122 355M136 337L162 277M75 312L122 355M182 371L122 355M182 371L166 305M122 355L166 305" style="stroke:#ff0000;stroke-linecap:round"/>
<g fill="#333333">
<circle cx="2" cy="161" r="0.5">
<title>
hole:0
</title>
</circle>
<circle cx="78" cy="194" r="0.5">
<title>
hole:1
</title>
</circle>
<circle cx="156" cy="212" r="0.5">
<title>
hole:2
</title>
</circle>
<circle cx="80" cy="244" r="0.5">
<title>
hole:3
</title>
</circle>
<circle cx="150" cy="290" r="0.5">
<title>
hole:4
</title>
</circle>
<circle cx="226" cy="317" r="0.5">
<title>
hole:5
</title>
</circle>
<circle cx="296" cy="364" r="0.5">
<title>
hole:6
</title>
</circle>
<circle cx="337" cy="424" r="0.5">
<title>
hole:7
</title>
</circle>
<circle cx="349" cy="446" r="0.5">
<title>
hole:8
</title>
</circle>
<circle cx="305" cy="507" r="0.5">
<title>
hole:9
</title>
</circle>
<circle cx="286" cy="528" r="0.5">
<title>
hole:10
</title>
</circle>
<circle cx="321" cy="592" r="0.5">
<title>
hole:11
</title>
</circle>
<circle cx="232" cy="581" r="0.5">
<title>
hole:12
</title>
</circle>
<circle cx="199" cy="672" r="0.5">
<title>
hole:13
</title>
</circle>
<circle cx="270" cy="730" r="0.5">
<title>
hole:14
</title>
</circle>
<circle cx="345" cy="679" r="0.5">
<title>
hole:15
</title>
</circle>
<circle cx="378" cy="735" r="0.5">
<title>
hole:16
</title>
</circle>
<circle cx="360" cy="801" r="0.5">
<title>
hole:17
</title>
</circle>
<circle cx="411" cy="823" r="0.5">
<title>
hole:18
</title>
</circle>
<circle cx="430" cy="848" r="0.5">
<title>
hole:19
</title>
</circle>
<circle cx="493" cy="861" r="0.5">
<title>
hole:20
</title>
</circle>
<circle cx="508" cy="804" r="0.5">
<title>
hole:21
</title>
</circle>
<circle cx="529" cy="750" r="0.5">
<title>
hole:22
</title>
</circle>
<circle cx="566" cy="701" r="0.5">
<title>
hole:23
</title>
</circle>
<circle cx="603" cy="755" r="0.5">
<title>
hole:24
</title>
</circle>
<circle cx="563" cy="805" r="0.5">
<title>
hole:25
</title>
</circle>
<circle cx="555" cy="869" r="0.5">
<title>
hole:26
</title>
</circle>
<circle cx="617" cy="881" r="0.5">
<title>
hole:27
</title>
</circle>
<circle cx="626" cy="815" r="0.5">
<title>
hole:28
</title>
</circle>
<circle cx="688" cy="804" r="0.5">
<title>
hole:29
</title>
</circle>
<circle cx="714" cy="771" r="0.5">
<title>
hole:30
</title>
</circle>
<circle cx="707" cy="709" r="0.5">
<title>
hole:31
</title>
</circle>
<circle cx="762" cy="694" r="0.5">
<title>
hole:32
</title>
</circle>
<circle cx="759" cy="629" r="0.5">
<title>
hole:33
</title>
</circle>
<circle cx="710" cy="616" r="0.5">
<title>
hole:34
</title>
</circle>
<circle cx="675" cy="661" r="0.5">
<title>
hole:35
</title>
</circle>
<circle cx="617" cy="667" r="0.5">
<title>
hole:36
</title>
</circle>
<circle cx="636" cy="578" r="0.5">
<title>
hole:37
</title>
</circle>
<circle cx="600" cy="528" r="0.5">
<title>
hole:38
</title>
</circle>
<circle cx="667" cy="544" r="0.5">
<title>
hole:39
</title>
</circle>
<circle cx="725" cy="550" r="0.5">
<title>
hole:40
</title>
</circle>
<circle cx="740" cy="490" r="0.5">
<title>
hole:41
</title>
</circle>
<circle cx="811" cy="478" r="0.5">
<title>
hole:42
</title>
</circle>
<circle cx="873" cy="452" r="0.5">
<title>
hole:43
</title>
</circle>
<circle cx="817" cy="416" r="0.5">
<title>
hole:44
</title>
</circle>
<circle cx="810" cy="353" r="0.5">
<title>
hole:45
</title>
</circle>
<circle cx="753" cy="324" r="0.5">
<title>
hole:46
</title>
</circle>
<circle cx="758" cy="389" r="0.5">
<title>
hole:47
</title>
</circle>
<circle cx="699" cy="372" r="0.5">
<title>
hole:48
</title>
</circle>
<circle cx="711" cy="431" r="0.5">
<title>
hole:49
</title>
</circle>
<circle cx="681" cy="373" r="0.5">
<title>
hole:50
</title>
</circle>
<circle cx="652" cy="311" r="0.5">
<title>
hole:51
</title>
</circle>
<circle cx="620" cy="260" r="0.5">
<title>
hole:52
</title>
</circle>
<circle cx="610" cy="200" r="0.5">
<title>
hole:53
</title>
</circle>
<circle cx="542" cy="210" r="0.5">
<title>
hole:54
</title>
</circle>
<circle cx="558" cy="273" r="0.5">
<title>
hole:55
</title>
</circle>
<circle cx="494" cy="248" r="0.5">
<title>
hole:56
</title>
</circle>
<circle cx="432" cy="267" r="0.5">
<title>
hole:57
</title>
</circle>
<circle cx="428" cy="192" r="0.5">
<title>
hole:58
</title>
</circle>
<circle cx="433" cy="175" r="0.5">
<title>
hole:59
</title>
</circle>
<circle cx="399" cy="105" r="0.5">
<title>
hole:60
</title>
</circle>
<circle cx="326" cy="113" r="0.5">
<title>
hole:61
</title>
</circle>
<circle cx="381" cy="71" r="0.5">
<title>
hole:62
</title>
</circle>
<circle cx="357" cy="4" r="0.5">
<title>
hole:63
</title>
</circle>
<circle cx="288" cy="8" r="0.5">
<title>
hole:64
</title>
</circle>
<circle cx="269" cy="74" r="0.5">
<title>
hole:65
</title>
</circle>
<circle cx="207" cy="116" r="0.5">
<title>
hole:66
</title>
</circle>
<circle cx="217" cy="36" r="0.5">
<title>
hole:67
</title>
</circle>
<circle cx="137" cy="0" r="0.5">
<title>
hole:68
</title>
</circle>
<circle cx="90" cy="74" r="0.5">
<title>
hole:69
</title>
</circle>
<circle cx="131" cy="134" r="0.5">
<title>
hole:70
</title>
</circle>
<circle cx="85" cy="70" r="0.5">
<title>
hole:71
</title>
</circle>
<circle cx="13" cy="82" r="0.5">
<title>
hole:72
</title>
</circle>
</g>
<g fill="#999999">
<circle cx="123" cy="363" i="0" r="0.5" tabindex="0">
<title>
v:0
</title>
</circle>
<circle cx="136" cy="285" i="1" r="0.5" tabindex="1">
<title>
v:1
</title>
</circle>
<circle cx="83" cy="291" i="2" r="0.5" tabindex="2">
<title>
v:2
</title>
</circle>
<circle cx="73" cy="252" i="3" r="0.5" tabindex="3">
<title>
v:3
</title>
</circle>
<circle cx="63" cy="286" i="4" r="0.5" tabindex="4">
<title>
v:4
</title>
</circle>
<circle cx="133" cy="267" i="5" r="0.5" tabindex="5">
<title>
v:5
</title>
</circle>
<circle cx="87" cy="211" i="6" r="0.5" tabindex="6">
<title>
v:6
</title>
</circle>
<circle cx="78" cy="199" i="7" r="0.5" tabindex="7">
<title>
v:7
</title>
</circle>
<circle cx="116" cy="324" i="8" r="0.5" tabindex="8">
<title>
v:8
</title>
</circle>
<circle cx="155" cy="256" i="9" r="0.5" tabindex="9">
<title>
v:9
</title>
</circle>
<circle cx="53" cy="335" i="10" r="0.5" tabindex="10">
<title>
v:10
</title>
</circle>
<circle cx="165" cy="213" i="11" r="0.5" tabindex="11">
<title>
v:11
</title>
</circle>
<circle cx="117" cy="277" i="12" r="0.5" tabindex="12">
<title>
v:12
</title>
</circle>
<circle cx="36" cy="320" i="13" r="0.5" tabindex="13">
<title>
v:13
</title>
</circle>
<circle cx="89" cy="216" i="14" r="0.5" tabindex="14">
<title>
v:14
</title>
</circle>
<circle cx="87" cy="426" i="15" r="0.5" tabindex="15">
<title>
v:15
</title>
</circle>
<circle cx="156" cy="138" i="16" r="0.5" tabindex="16">
<title>
v:16
</title>
</circle>
<circle cx="73" cy="425" i="17" r="0.5" tabindex="17">
<title>
v:17
</title>
</circle>
<circle cx="14" cy="243" i="18" r="0.5" tabindex="18">
<title>
v:18
</title>
</circle>
<circle cx="122" cy="333" i="19" r="0.5" tabindex="19">
<title>
v:19
</title>
</circle>
<circle cx="65" cy="417" i="20" r="0.5" tabindex="20">
<title>
v:20
</title>
</circle>
<circle cx="161" cy="207" i="21" r="0.5" tabindex="21">
<title>
v:21
</title>
</circle>
<circle cx="53" cy="328" i="22" r="0.5" tabindex="22">
<title>
v:22
</title>
</circle>
<circle cx="117" cy="343" i="23" r="0.5" tabindex="23">
<title>
v:23
</title>
</circle>
<circle cx="208" cy="282" i="24" r="0.5" tabindex="24">
<title>
v:24
</title>
</circle>
<circle cx="75" cy="271" i="25" r="0.5" tabindex="25">
<title>
v:25
</title>
</circle>
<circle cx="114" cy="138" i="26" r="0.5" tabindex="26">
<title>
v:26
</title>
</circle>
<circle cx="2" cy="455" i="27" r="0.5" tabindex="27">
<title>
v:27
</title>
</circle>
<circle cx="144" cy="70" i="28" r="0.5" tabindex="28">
<title>
v:28
</title>
</circle>
<circle cx="132" cy="272" i="29" r="0.5" tabindex="29">
<title>
v:29
</title>
</circle>
<circle cx="91" cy="273" i="30" r="0.5" tabindex="30">
<title>
v:30
</title>
</circle>
<circle cx="69" cy="516" i="31" r="0.5" tabindex="31">
<title>
v:31
</title>
</circle>
<circle cx="141" cy="316" i="32" r="0.5" tabindex="32">
<title>
v:32
</title>
</circle>
<circle cx="32" cy="323" i="33" r="0.5" tabindex="33">
<title>
v:33
</title>
</circle>
<circle cx="92" cy="198" i="34" r="0.5" tabindex="34">
<title>
v:34
</title>
</circle>
<circle cx="125" cy="299" i="35" r="0.5" tabindex="35">
<title>
v:35
</title>
</circle>
<circle cx="60" cy="337" i="36" r="0.5" tabindex="36">
<title>
v:36
</title>
</circle>
<circle cx="40" cy="450" i="37" r="0.5" tabindex="37">
<title>
v:37
</title>
</circle>
<circle cx="91" cy="202" i="38" r="0.5" tabindex="38">
<title>
v:38
</title>
</circle>
<circle cx="181" cy="128" i="39" r="0.5" tabindex="39">
<title>
v:39
</title>
</circle>
<circle cx="123" cy="286" i="40" r="0.5" tabindex="40">
<title>
v:40
</title>
</circle>
<circle cx="4" cy="508" i="41" r="0.5" tabindex="41">
<title>
v:41
</title>
</circle>
<circle cx="131" cy="138" i="42" r="0.5" tabindex="42">
<title>
v:42
</title>
</circle>
<circle cx="52" cy="403" i="43" r="0.5" tabindex="43">
<title>
v:43
</title>
</circle>
<circle cx="112" cy="246" i="44" r="0.5" tabindex="44">
<title>
v:44
</title>
</circle>
<circle cx="85" cy="236" i="45" r="0.5" tabindex="45">
<title>
v:45
</title>
</circle>
<circle cx="165" cy="0" i="46" r="0.5" tabindex="46">
<title>
v:46
</title>
</circle>
<circle cx="144" cy="338" i="47" r="0.5" tabindex="47">
<title>
v:47
</title>
</circle>
<circle cx="26" cy="563" i="48" r="0.5" tabindex="48">
<title>
v:48
</title>
</circle>
<circle cx="165" cy="267" i="49" r="0.5" tabindex="49">
<title>
v:49
</title>
</circle>
<circle cx="66" cy="332" i="50" r="0.5" tabindex="50">
<title>
v:50
</title>
</circle>
<circle cx="60" cy="398" i="51" r="0.5" tabindex="51">
<title>
v:51
</title>
</circle>
<circle cx="125" cy="268" i="52" r="0.5" tabindex="52">
<title>
v:52
</title>
</circle>
<circle cx="108" cy="319" i="53" r="0.5" tabindex="53">
<title>
v:53
</title>
</circle>
<circle cx="113" cy="297" i="54" r="0.5" tabindex="54">
<title>
v:54
</title>
</circle>
<circle cx="158" cy="200" i="55" r="0.5" tabindex="55">
<title>
v:55
</title>
</circle>
<circle cx="209" cy="64" i="56" r="0.5" tabindex="56">
<title>
v:56
</title>
</circle>
<circle cx="61" cy="521" i="57" r="0.5" tabindex="57">
<title>
v:57
</title>
</circle>
<circle cx="123" cy="284" i="58" r="0.5" tabindex="58">
<title>
v:58
</title>
</circle>
<circle cx="42" cy="481" i="59" r="0.5" tabindex="59">
<title>
v:59
</title>
</circle>
<circle cx="158" cy="406" i="60" r="0.5" tabindex="60">
<title>
v:60
</title>
</circle>
<circle cx="159" cy="284" i="61" r="0.5" tabindex="61">
<title>
v:61
</title>
</circle>
<circle cx="143" cy="313" i="62" r="0.5" tabindex="62">
<title>
v:62
</title>
</circle>
<circle cx="76" cy="461" i="63" r="0.5" tabindex="63">
<title>
v:63
</title>
</circle>
<circle cx="103" cy="240" i="64" r="0.5" tabindex="64">
<title>
v:64
</title>
</circle>
<circle cx="124" cy="357" i="65" r="0.5" tabindex="65">
<title>
v:65
</title>
</circle>
<circle cx="120" cy="383" i="66" r="0.5" tabindex="66">
<title>
v:66
</title>
</circle>
<circle cx="54" cy="271" i="67" r="0.5" tabindex="67">
<title>
v:67
</title>
</circle>
<circle cx="174" cy="342" i="68" r="0.5" tabindex="68">
<title>
v:68
</title>
</circle>
<circle cx="103" cy="383" i="69" r="0.5" tabindex="69">
<title>
v:69
</title>
</circle>
<circle cx="172" cy="264" i="70" r="0.5" tabindex="70">
<title>
v:70
</title>
</circle>
<circle cx="50" cy="407" i="71" r="0.5" tabindex="71">
<title>
v:71
</title>
</circle>
<circle cx="168" cy="247" i="72" r="0.5" tabindex="72">
<title>
v:72
</title>
</circle>
<circle cx="73" cy="307" i="73" r="0.5" tabindex="73">
<title>
v:73
</title>
</circle>
<circle cx="116" cy="326" i="74" r="0.5" tabindex="74">
<title>
v:74
</title>
</circle>
<circle cx="99" cy="307" i="75" r="0.5" tabindex="75">
<title>
v:75
</title>
</circle>
<circle cx="113" cy="268" i="76" r="0.5" tabindex="76">
<title>
v:76
</title>
</circle>
<circle cx="150" cy="292" i="77" r="0.5" tabindex="77">
<title>
v:77
</title>
</circle>
<circle cx="61" cy="352" i="78" r="0.5" tabindex="78">
<title>
v:78
</title>
</circle>
<circle cx="121" cy="370" i="79" r="0.5" tabindex="79">
<title>
v:79
</title>
</circle>
<circle cx="131" cy="314" i="80" r="0.5" tabindex="80">
<title>
v:80
</title>
</circle>
<circle cx="138" cy="310" i="81" r="0.5" tabindex="81">
<title>
v:81
</title>
</circle>
<circle cx="49" cy="379" i="82" r="0.5" tabindex="82">
<title>
v:82
</title>
</circle>
<circle cx="121" cy="364" i="83" r="0.5" tabindex="83">
<title>
v:83
</title>
</circle>
<circle cx="143" cy="313" i="84" r="0.5" tabindex="84">
<title>
v:84
</title>
</circle>
<circle cx="195" cy="328" i="85" r="0.5" tabindex="85">
<title>
v:85
</title>
</circle>
<circle cx="135" cy="301" i="86" r="0.5" tabindex="86">
<title>
v:86
</title>
</circle>
<circle cx="134" cy="316" i="87" r="0.5" tabindex="87">
<title>
v:87
</title>
</circle>
<circle cx="157" cy="311" i="88" r="0.5" tabindex="88">
<title>
v:88
</title>
</circle>
<circle cx="143" cy="312" i="89" r="0.5" tabindex="89">
<title>
v:89
</title>
</circle>
<circle cx="123" cy="404" i="90" r="0.5" tabindex="90">
<title>
v:90
</title>
</circle>
<circle cx="94" cy="272" i="91" r="0.5" tabindex="91">
<title>
v:91
</title>
</circle>
<circle cx="118" cy="332" i="92" r="0.5" tabindex="92">
<title>
v:92
</title>
</circle>
<circle cx="109" cy="309" i="93" r="0.5" tabindex="93">
<title>
v:93
</title>
</circle>
<circle cx="110" cy="313" i="94" r="0.5" tabindex="94">
<title>
v:94
</title>
</circle>
<circle cx="92" cy="268" i="95" r="0.5" tabindex="95">
<title>
v:95
</title>
</circle>
<circle cx="118" cy="363" i="96" r="0.5" tabindex="96">
<title>
v:96
</title>
</circle>
<circle cx="94" cy="270" i="97" r="0.5" tabindex="97">
<title>
v:97
</title>
</circle>
<circle cx="166" cy="255" i="98" r="0.5" tabindex="98">
<title>
v:98
</title>
</circle>
<circle cx="110" cy="375" i="99" r="0.5" tabindex="99">
<title>
v:99
</title>
</circle>
<circle cx="103" cy="281" i="100" r="0.5" tabindex="100">
<title>
v:100
</title>
</circle>
<circle cx="130" cy="302" i="101" r="0.5" tabindex="101">
<title>
v:101
</title>
</circle>
<circle cx="135" cy="307" i="102" r="0.5" tabindex="102">
<title>
v:102
</title>
</circle>
<circle cx="180" cy="346" i="103" r="0.5" tabindex="103">
<title>
v:103
</title>
</circle>
<circle cx="131" cy="367" i="104" r="0.5" tabindex="104">
<title>
v:104
</title>
</circle>
<circle cx="69" cy="327" i="105" r="0.5" tabindex="105">
<title>
v:105
</title>
</circle>
<circle cx="114" cy="347" i="106" r="0.5" tabindex="106">
<title>
v:106
</title>
</circle>
<circle cx="80" cy="331" i="107" r="0.5" tabindex="107">
<title>
v:107
</title>
</circle>
<circle cx="102" cy="279" i="108" r="0.5" tabindex="108">
<title>
v:108
</title>
</circle>
<circle cx="85" cy="327" i="109" r="0.5" tabindex="109">
<title>
v:109
</title>
</circle>
<circle cx="145" cy="307" i="110" r="0.5" tabindex="110">
<title>
v:110
</title>
</circle>
<circle cx="40" cy="304" i="111" r="0.5" tabindex="111">
<title>
v:111
</title>
</circle>
<circle cx="47" cy="362" i="112" r="0.5" tabindex="112">
<title>
v:112
</title>
</circle>
<circle cx="128" cy="334" i="113" r="0.5" tabindex="113">
<title>
v:113
</title>
</circle>
<circle cx="138" cy="295" i="114" r="0.5" tabindex="114">
<title>
v:114
</title>
</circle>
<circle cx="121" cy="324" i="115" r="0.5" tabindex="115">
<title>
v:115
</title>
</circle>
<circle cx="112" cy="348" i="116" r="0.5" tabindex="116">
<title>
v:116
</title>
</circle>
<circle cx="105" cy="281" i="117" r="0.5" tabindex="117">
<title>
v:117
</title>
</circle>
<circle cx="94" cy="266" i="118" r="0.5" tabindex="118">
<title>
v:118
</title>
</circle>
<circle cx="184" cy="322" i="119" r="0.5" tabindex="119">
<title>
v:119
</title>
</circle>
<circle cx="73" cy="302" i="120" r="0.5" tabindex="120">
<title>
v:120
</title>
</circle>
<circle cx="50" cy="251" i="121" r="0.5" tabindex="121">
<title>
v:121
</title>
</circle>
<circle cx="50" cy="362" i="122" r="0.5" tabindex="122">
<title>
v:122
</title>
</circle>
<circle cx="112" cy="355" i="123" r="0.5" tabindex="123">
<title>
v:123
</title>
</circle>
<circle cx="122" cy="355" i="124" r="0.5" tabindex="124">
<title>
v:124
</title>
</circle>
<circle cx="135" cy="291" i="125" r="0.5" tabindex="125">
<title>
v:125
</title>
</circle>
<circle cx="136" cy="337" i="126" r="0.5" tabindex="126">
<title>
v:126
</title>
</circle>
<circle cx="162" cy="277" i="127" r="0.5" tabindex="127">
<title>
v:127
</title>
</circle>
<circle cx="75" cy="312" i="128" r="0.5" tabindex="128">
<title>
v:128
</title>
</circle>
<circle cx="182" cy="371" i="129" r="0.5" tabindex="129">
<title>
v:129
</title>
</circle>
<circle cx="122" cy="355" i="130" r="0.5" tabindex="130">
<title>
v:130
</title>
</circle>
<circle cx="166" cy="305" i="131" r="0.5" tabindex="131">
<title>
v:131
</title>
</circle>
</g>
</svg>