<svg height="500" viewBox="0 -2 192 198" width="500" xmlns="http://www.w3.org/2000/svg">
<path class="hole" d="M9 42L36 67L2 73L47 108L45 137L2 159L21 194L47 180L87 194L99 128L113 194L145 154L151 194L189 185L170 141L144 120L182 103L190 78L161 75L138 87L97 53L167 35L174 10L142 0L114 20L92 0L50 42L41 9L14 17M0 -2L192 -2L192 196L0 196" style="fill:#00000066;fill-rule:evenodd;"/>
<circle cx="137" cy="42" fill="#ffff0066" r="5">
<title>
SuperFlex@125
</title>
</circle>
<circle cx="92" cy="165" fill="#ffff0066" r="5">
<title>
BreakALeg@130
</title>
</circle>
<circle cx="119" cy="165" fill="#ffff0066" r="5">
<title>
WallHack@10
</title>
</circle>
<path class="ok" d="M36 63L41 48M36 63L45 68M39 44L41 48M39 44L62 43M41 48L59 48M45 56L51 58M45 56L52 56M45 68L45 72M45 68L53 64M45 72L56 64M50 83L53 71M50 83L72 105M50 83L80 70M51 58L52 56M51 58L53 64M52 56L56 64M53 64L56 64M53 71L74 92M53 71L76 67M59 48L62 43M59 48L78 87M60 129L68 134M60 129L69 155M60 129L72 105M62 43L88 74M65 27L70 40M65 27L78 20M65 52L75 51M65 52L76 48M67 43L70 40M67 43L82 40M68 134L72 150M68 134L83 113M69 155L72 150M69 155L86 153M70 40L79 38M71 33L78 33M71 33L80 31M72 105L74 92M72 105L83 113M72 150L83 150M74 92L78 87M75 51L76 48M75 51L81 58M76 48L85 58M76 67L80 70M76 67L81 58M78 20L80 15M78 20L97 39M78 33L79 38M78 33L80 31M78 87L88 74M79 38L82 40M80 15L106 39M80 31L82 40M80 70L85 58M81 58L85 58M83 113L88 93M83 113L88 124M83 150L85 136M83 150L86 153M85 136L89 140M86 153L89 140M88 74L90 73M88 93L90 73M88 93L100 86M89 140L97 138M90 73L92 50M90 73L98 68M92 50L97 39M97 39L106 39M98 68L107 73M100 86L111 95M107 73L111 74M107 73L111 95M107 125L116 112M111 74L119 81M111 95L116 112M113 37L119 43M113 37L133 29M114 139L120 139M114 139L124 118M114 139L128 154M116 112L121 103M116 112L124 118M119 43L131 36M119 81L122 93M120 139L131 152M120 139L134 117M121 103L122 93M121 103L134 117M122 93L145 85M124 118L134 117M127 170L128 154M127 170L131 152M128 154L131 152M131 36L133 29M131 36L139 40M133 29L145 38M138 115L140 103M138 115L142 114M139 40L145 38M140 103L142 106M140 103L152 103M142 106L142 114M142 106L149 105M145 85L158 94M149 105L151 113M149 105L152 103M151 113L152 103M158 94L160 111M158 94L165 91" style="stroke:#0000ff;stroke-linecap:round"/>
<path class="out" d="M31 64L36 63M31 64L39 44M31 64L45 72M61 26L65 27M61 26L67 43M61 26L80 15M85 136L99 134M88 124L99 130M92 50L100 53M97 138L99 134M97 138L100 142M98 68L100 53M98 68L113 37M99 130L107 125M99 134L104 142M100 53L106 39M100 142L101 154M100 142L104 142M101 154L104 142M107 73L119 43M111 74L125 57M119 81L129 63M119 81L148 77M125 57L129 63M125 57L143 55M129 63L141 61M138 115L153 124M139 40L142 52M141 61L143 55M141 61L155 72M142 52L146 49M142 52L155 55M142 114L153 119M143 55L157 68M145 38L146 49M145 85L148 77M146 49L154 52M148 77L165 91M149 44L158 41M149 44L162 37M153 119L153 124M153 119L160 111M153 124L166 114M154 52L155 55M154 52L158 41M155 55L162 37M155 72L157 68M155 72L169 69M157 68L167 66M158 41L162 37M160 111L166 114M165 91L166 114M167 66L169 69M167 66L171 56M169 69L171 56" style="stroke:#ff0000;stroke-linecap:round"/>
<g fill="#333333">
<circle cx="9" cy="42" r="0.5">
<title>
hole:0
</title>
</circle>
<circle cx="36" cy="67" r="0.5">
<title>
hole:1
</title>
</circle>
<circle cx="2" cy="73" r="0.5">
<title>
hole:2
</title>
</circle>
<circle cx="47" cy="108" r="0.5">
<title>
hole:3
</title>
</circle>
<circle cx="45" cy="137" r="0.5">
<title>
hole:4
</title>
</circle>
<circle cx="2" cy="159" r="0.5">
<title>
hole:5
</title>
</circle>
<circle cx="21" cy="194" r="0.5">
<title>
hole:6
</title>
</circle>
<circle cx="47" cy="180" r="0.5">
<title>
hole:7
</title>
</circle>
<circle cx="87" cy="194" r="0.5">
<title>
hole:8
</title>
</circle>
<circle cx="99" cy="128" r="0.5">
<title>
hole:9
</title>
</circle>
<circle cx="113" cy="194" r="0.5">
<title>
hole:10
</title>
</circle>
<circle cx="145" cy="154" r="0.5">
<title>
hole:11
</title>
</circle>
<circle cx="151" cy="194" r="0.5">
<title>
hole:12
</title>
</circle>
<circle cx="189" cy="185" r="0.5">
<title>
hole:13
</title>
</circle>
<circle cx="170" cy="141" r="0.5">
<title>
hole:14
</title>
</circle>
<circle cx="144" cy="120" r="0.5">
<title>
hole:15
</title>
</circle>
<circle cx="182" cy="103" r="0.5">
<title>
hole:16
</title>
</circle>
<circle cx="190" cy="78" r="0.5">
<title>
hole:17
</title>
</circle>
<circle cx="161" cy="75" r="0.5">
<title>
hole:18
</title>
</circle>
<circle cx="138" cy="87" r="0.5">
<title>
hole:19
</title>
</circle>
<circle cx="97" cy="53" r="0.5">
<title>
hole:20
</title>
</circle>
<circle cx="167" cy="35" r="0.5">
<title>
hole:21
</title>
</circle>
<circle cx="174" cy="10" r="0.5">
<title>
hole:22
</title>
</circle>
<circle cx="142" cy="0" r="0.5">
<title>
hole:23
</title>
</circle>
<circle cx="114" cy="20" r="0.5">
<title>
hole:24
</title>
</circle>
<circle cx="92" cy="0" r="0.5">
<title>
hole:25
</title>
</circle>
<circle cx="50" cy="42" r="0.5">
<title>
hole:26
</title>
</circle>
<circle cx="41" cy="9" r="0.5">
<title>
hole:27
</title>
</circle>
<circle cx="14" cy="17" r="0.5">
<title>
hole:28
</title>
</circle>
</g>
<g fill="#999999">
<circle cx="31" cy="64" i="0" r="0.5" tabindex="0">
<title>
v:0
</title>
</circle>
<circle cx="36" cy="63" i="1" r="0.5" tabindex="1">
<title>
v:1
</title>
</circle>
<circle cx="39" cy="44" i="2" r="0.5" tabindex="2">
<title>
v:2
</title>
</circle>
<circle cx="41" cy="48" i="3" r="0.5" tabindex="3">
<title>
v:3
</title>
</circle>
<circle cx="45" cy="56" i="4" r="0.5" tabindex="4">
<title>
v:4
</title>
</circle>
<circle cx="45" cy="68" i="5" r="0.5" tabindex="5">
<title>
v:5
</title>
</circle>
<circle cx="45" cy="72" i="6" r="0.5" tabindex="6">
<title>
v:6
</title>
</circle>
<circle cx="50" cy="83" i="7" r="0.5" tabindex="7">
<title>
v:7
</title>
</circle>
<circle cx="51" cy="58" i="8" r="0.5" tabindex="8">
<title>
v:8
</title>
</circle>
<circle cx="52" cy="56" i="9" r="0.5" tabindex="9">
<title>
v:9
</title>
</circle>
<circle cx="53" cy="64" i="10" r="0.5" tabindex="10">
<title>
v:10
</title>
</circle>
<circle cx="53" cy="71" i="11" r="0.5" tabindex="11">
<title>
v:11
</title>
</circle>
<circle cx="56" cy="64" i="12" r="0.5" tabindex="12">
<title>
v:12
</title>
</circle>
<circle cx="59" cy="48" i="13" r="0.5" tabindex="13">
<title>
v:13
</title>
</circle>
<circle cx="60" cy="129" i="14" r="0.5" tabindex="14">
<title>
v:14
</title>
</circle>
<circle cx="61" cy="26" i="15" r="0.5" tabindex="15">
<title>
v:15
</title>
</circle>
<circle cx="62" cy="43" i="16" r="0.5" tabindex="16">
<title>
v:16
</title>
</circle>
<circle cx="65" cy="27" i="17" r="0.5" tabindex="17">
<title>
v:17
</title>
</circle>
<circle cx="65" cy="52" i="18" r="0.5" tabindex="18">
<title>
v:18
</title>
</circle>
<circle cx="67" cy="43" i="19" r="0.5" tabindex="19">
<title>
v:19
</title>
</circle>
<circle cx="68" cy="134" i="20" r="0.5" tabindex="20">
<title>
v:20
</title>
</circle>
<circle cx="69" cy="155" i="21" r="0.5" tabindex="21">
<title>
v:21
</title>
</circle>
<circle cx="70" cy="40" i="22" r="0.5" tabindex="22">
<title>
v:22
</title>
</circle>
<circle cx="71" cy="33" i="23" r="0.5" tabindex="23">
<title>
v:23
</title>
</circle>
<circle cx="72" cy="105" i="24" r="0.5" tabindex="24">
<title>
v:24
</title>
</circle>
<circle cx="72" cy="150" i="25" r="0.5" tabindex="25">
<title>
v:25
</title>
</circle>
<circle cx="74" cy="92" i="26" r="0.5" tabindex="26">
<title>
v:26
</title>
</circle>
<circle cx="75" cy="51" i="27" r="0.5" tabindex="27">
<title>
v:27
</title>
</circle>
<circle cx="76" cy="48" i="28" r="0.5" tabindex="28">
<title>
v:28
</title>
</circle>
<circle cx="76" cy="67" i="29" r="0.5" tabindex="29">
<title>
v:29
</title>
</circle>
<circle cx="78" cy="20" i="30" r="0.5" tabindex="30">
<title>
v:30
</title>
</circle>
<circle cx="78" cy="33" i="31" r="0.5" tabindex="31">
<title>
v:31
</title>
</circle>
<circle cx="78" cy="87" i="32" r="0.5" tabindex="32">
<title>
v:32
</title>
</circle>
<circle cx="79" cy="38" i="33" r="0.5" tabindex="33">
<title>
v:33
</title>
</circle>
<circle cx="80" cy="15" i="34" r="0.5" tabindex="34">
<title>
v:34
</title>
</circle>
<circle cx="80" cy="31" i="35" r="0.5" tabindex="35">
<title>
v:35
</title>
</circle>
<circle cx="80" cy="70" i="36" r="0.5" tabindex="36">
<title>
v:36
</title>
</circle>
<circle cx="81" cy="58" i="37" r="0.5" tabindex="37">
<title>
v:37
</title>
</circle>
<circle cx="82" cy="40" i="38" r="0.5" tabindex="38">
<title>
v:38
</title>
</circle>
<circle cx="83" cy="113" i="39" r="0.5" tabindex="39">
<title>
v:39
</title>
</circle>
<circle cx="83" cy="150" i="40" r="0.5" tabindex="40">
<title>
v:40
</title>
</circle>
<circle cx="85" cy="58" i="41" r="0.5" tabindex="41">
<title>
v:41
</title>
</circle>
<circle cx="85" cy="136" i="42" r="0.5" tabindex="42">
<title>
v:42
</title>
</circle>
<circle cx="86" cy="153" i="43" r="0.5" tabindex="43">
<title>
v:43
</title>
</circle>
<circle cx="88" cy="74" i="44" r="0.5" tabindex="44">
<title>
v:44
</title>
</circle>
<circle cx="88" cy="93" i="45" r="0.5" tabindex="45">
<title>
v:45
</title>
</circle>
<circle cx="88" cy="124" i="46" r="0.5" tabindex="46">
<title>
v:46
</title>
</circle>
<circle cx="89" cy="140" i="47" r="0.5" tabindex="47">
<title>
v:47
</title>
</circle>
<circle cx="90" cy="73" i="48" r="0.5" tabindex="48">
<title>
v:48
</title>
</circle>
<circle cx="92" cy="50" i="49" r="0.5" tabindex="49">
<title>
v:49
</title>
</circle>
<circle cx="97" cy="39" i="50" r="0.5" tabindex="50">
<title>
v:50
</title>
</circle>
<circle cx="97" cy="138" i="51" r="0.5" tabindex="51">
<title>
v:51
</title>
</circle>
<circle cx="98" cy="68" i="52" r="0.5" tabindex="52">
<title>
v:52
</title>
</circle>
<circle cx="99" cy="130" i="53" r="0.5" tabindex="53">
<title>
v:53
</title>
</circle>
<circle cx="99" cy="134" i="54" r="0.5" tabindex="54">
<title>
v:54
</title>
</circle>
<circle cx="100" cy="53" i="55" r="0.5" tabindex="55">
<title>
v:55
</title>
</circle>
<circle cx="100" cy="86" i="56" r="0.5" tabindex="56">
<title>
v:56
</title>
</circle>
<circle cx="100" cy="142" i="57" r="0.5" tabindex="57">
<title>
v:57
</title>
</circle>
<circle cx="101" cy="154" i="58" r="0.5" tabindex="58">
<title>
v:58
</title>
</circle>
<circle cx="104" cy="142" i="59" r="0.5" tabindex="59">
<title>
v:59
</title>
</circle>
<circle cx="106" cy="39" i="60" r="0.5" tabindex="60">
<title>
v:60
</title>
</circle>
<circle cx="107" cy="73" i="61" r="0.5" tabindex="61">
<title>
v:61
</title>
</circle>
<circle cx="107" cy="125" i="62" r="0.5" tabindex="62">
<title>
v:62
</title>
</circle>
<circle cx="111" cy="74" i="63" r="0.5" tabindex="63">
<title>
v:63
</title>
</circle>
<circle cx="111" cy="95" i="64" r="0.5" tabindex="64">
<title>
v:64
</title>
</circle>
<circle cx="113" cy="37" i="65" r="0.5" tabindex="65">
<title>
v:65
</title>
</circle>
<circle cx="114" cy="139" i="66" r="0.5" tabindex="66">
<title>
v:66
</title>
</circle>
<circle cx="116" cy="112" i="67" r="0.5" tabindex="67">
<title>
v:67
</title>
</circle>
<circle cx="119" cy="43" i="68" r="0.5" tabindex="68">
<title>
v:68
</title>
</circle>
<circle cx="119" cy="81" i="69" r="0.5" tabindex="69">
<title>
v:69
</title>
</circle>
<circle cx="120" cy="139" i="70" r="0.5" tabindex="70">
<title>
v:70
</title>
</circle>
<circle cx="121" cy="103" i="71" r="0.5" tabindex="71">
<title>
v:71
</title>
</circle>
<circle cx="122" cy="93" i="72" r="0.5" tabindex="72">
<title>
v:72
</title>
</circle>
<circle cx="124" cy="118" i="73" r="0.5" tabindex="73">
<title>
v:73
</title>
</circle>
<circle cx="125" cy="57" i="74" r="0.5" tabindex="74">
<title>
v:74
</title>
</circle>
<circle cx="127" cy="170" i="75" r="0.5" tabindex="75">
<title>
v:75
</title>
</circle>
<circle cx="128" cy="154" i="76" r="0.5" tabindex="76">
<title>
v:76
</title>
</circle>
<circle cx="129" cy="63" i="77" r="0.5" tabindex="77">
<title>
v:77
</title>
</circle>
<circle cx="131" cy="36" i="78" r="0.5" tabindex="78">
<title>
v:78
</title>
</circle>
<circle cx="131" cy="152" i="79" r="0.5" tabindex="79">
<title>
v:79
</title>
</circle>
<circle cx="133" cy="29" i="80" r="0.5" tabindex="80">
<title>
v:80
</title>
</circle>
<circle cx="134" cy="117" i="81" r="0.5" tabindex="81">
<title>
v:81
</title>
</circle>
<circle cx="138" cy="115" i="82" r="0.5" tabindex="82">
<title>
v:82
</title>
</circle>
<circle cx="139" cy="40" i="83" r="0.5" tabindex="83">
<title>
v:83
</title>
</circle>
<circle cx="140" cy="103" i="84" r="0.5" tabindex="84">
<title>
v:84
</title>
</circle>
<circle cx="141" cy="61" i="85" r="0.5" tabindex="85">
<title>
v:85
</title>
</circle>
<circle cx="142" cy="52" i="86" r="0.5" tabindex="86">
<title>
v:86
</title>
</circle>
<circle cx="142" cy="106" i="87" r="0.5" tabindex="87">
<title>
v:87
</title>
</circle>
<circle cx="142" cy="114" i="88" r="0.5" tabindex="88">
<title>
v:88
</title>
</circle>
<circle cx="143" cy="55" i="89" r="0.5" tabindex="89">
<title>
v:89
</title>
</circle>
<circle cx="145" cy="38" i="90" r="0.5" tabindex="90">
<title>
v:90
</title>
</circle>
<circle cx="145" cy="85" i="91" r="0.5" tabindex="91">
<title>
v:91
</title>
</circle>
<circle cx="146" cy="49" i="92" r="0.5" tabindex="92">
<title>
v:92
</title>
</circle>
<circle cx="148" cy="77" i="93" r="0.5" tabindex="93">
<title>
v:93
</title>
</circle>
<circle cx="149" cy="44" i="94" r="0.5" tabindex="94">
<title>
v:94
</title>
</circle>
<circle cx="149" cy="105" i="95" r="0.5" tabindex="95">
<title>
v:95
</title>
</circle>
<circle cx="151" cy="113" i="96" r="0.5" tabindex="96">
<title>
v:96
</title>
</circle>
<circle cx="152" cy="103" i="97" r="0.5" tabindex="97">
<title>
v:97
</title>
</circle>
<circle cx="153" cy="119" i="98" r="0.5" tabindex="98">
<title>
v:98
</title>
</circle>
<circle cx="153" cy="124" i="99" r="0.5" tabindex="99">
<title>
v:99
</title>
</circle>
<circle cx="154" cy="52" i="100" r="0.5" tabindex="100">
<title>
v:100
</title>
</circle>
<circle cx="155" cy="55" i="101" r="0.5" tabindex="101">
<title>
v:101
</title>
</circle>
<circle cx="155" cy="72" i="102" r="0.5" tabindex="102">
<title>
v:102
</title>
</circle>
<circle cx="157" cy="68" i="103" r="0.5" tabindex="103">
<title>
v:103
</title>
</circle>
<circle cx="158" cy="41" i="104" r="0.5" tabindex="104">
<title>
v:104
</title>
</circle>
<circle cx="158" cy="94" i="105" r="0.5" tabindex="105">
<title>
v:105
</title>
</circle>
<circle cx="160" cy="111" i="106" r="0.5" tabindex="106">
<title>
v:106
</title>
</circle>
<circle cx="162" cy="37" i="107" r="0.5" tabindex="107">
<title>
v:107
</title>
</circle>
<circle cx="165" cy="91" i="108" r="0.5" tabindex="108">
<title>
v:108
</title>
</circle>
<circle cx="166" cy="114" i="109" r="0.5" tabindex="109">
<title>
v:109
</title>
</circle>
<circle cx="167" cy="66" i="110" r="0.5" tabindex="110">
<title>
v:110
</title>
</circle>
<circle cx="169" cy="69" i="111" r="0.5" tabindex="111">
<title>
v:111
</title>
</circle>
<circle cx="171" cy="56" i="112" r="0.5" tabindex="112">
<title>
v:112
</title>
</circle>
</g>
</svg>