<svg height="500" viewBox="0 -2 123 118" width="500" xmlns="http://www.w3.org/2000/svg">
<path class="hole" d="M2 8L6 22L17 38L2 53L15 57L30 60L18 71L19 84L2 96L13 111L26 114L43 93L50 103L60 114L85 110L55 88L77 87L61 53L97 80L113 106L115 81L121 71L103 65L99 52L99 37L96 25L114 28L121 18L121 0L108 13L102 0L80 21L71 1L59 0L39 0L57 12L44 41L35 32L25 26L25 0L12 1M0 -2L123 -2L123 116L0 116" style="fill:#00000066;fill-rule:evenodd;"/>
<circle cx="80" cy="45" fill="#ffff0066" r="5">
<title>
Globalist@131
</title>
</circle>
<circle cx="83" cy="66" fill="#ffff0066" r="5">
<title>
WallHack@128
</title>
</circle>
<circle cx="71" cy="102" fill="#ffff0066" r="5">
<title>
SuperFlex@102
</title>
</circle>
<path class="ok" d="M30 82L32 79M30 82L34 82M32 79L34 82M32 79L37 64M34 82L47 91M35 55L37 64M35 55L44 60M37 64L44 60M42 80L47 78M42 80L47 91M47 78L47 91M47 78L54 65M47 91L53 96M49 57L51 44M49 57L54 65M51 32L56 39M51 44L56 39M53 96L53 100M53 96L56 98M53 100L57 103M54 65L62 59M56 98L57 103M69 57L78 53M76 44L78 53M76 44L84 40M76 44L86 48M78 53L86 48M84 40L86 48" style="stroke:#0000ff;stroke-linecap:round"/>
<path class="out" d="M39 100L40 104M39 100L43 98M40 104L57 103M43 98L53 100M45 38L51 32M45 38L51 44M45 38L56 39M47 78L77 82M56 98L69 98M62 59L67 65M67 65L69 57M67 65L77 82M69 98L69 104M69 98L72 97M69 104L73 100M69 104L81 104M72 97L73 100M72 97L80 93M73 100L80 99M77 82L80 93M77 82L82 78M80 93L84 83M80 99L81 104M82 78L84 83M84 83L93 81M92 94L97 92M92 94L101 97M93 81L96 77M93 81L97 81M96 77L97 81M97 81L97 92M97 92L101 97" style="stroke:#ff0000;stroke-linecap:round"/>
<g fill="#333333">
<circle cx="2" cy="8" r="0.5">
<title>
hole:0
</title>
</circle>
<circle cx="6" cy="22" r="0.5">
<title>
hole:1
</title>
</circle>
<circle cx="17" cy="38" r="0.5">
<title>
hole:2
</title>
</circle>
<circle cx="2" cy="53" r="0.5">
<title>
hole:3
</title>
</circle>
<circle cx="15" cy="57" r="0.5">
<title>
hole:4
</title>
</circle>
<circle cx="30" cy="60" r="0.5">
<title>
hole:5
</title>
</circle>
<circle cx="18" cy="71" r="0.5">
<title>
hole:6
</title>
</circle>
<circle cx="19" cy="84" r="0.5">
<title>
hole:7
</title>
</circle>
<circle cx="2" cy="96" r="0.5">
<title>
hole:8
</title>
</circle>
<circle cx="13" cy="111" r="0.5">
<title>
hole:9
</title>
</circle>
<circle cx="26" cy="114" r="0.5">
<title>
hole:10
</title>
</circle>
<circle cx="43" cy="93" r="0.5">
<title>
hole:11
</title>
</circle>
<circle cx="50" cy="103" r="0.5">
<title>
hole:12
</title>
</circle>
<circle cx="60" cy="114" r="0.5">
<title>
hole:13
</title>
</circle>
<circle cx="85" cy="110" r="0.5">
<title>
hole:14
</title>
</circle>
<circle cx="55" cy="88" r="0.5">
<title>
hole:15
</title>
</circle>
<circle cx="77" cy="87" r="0.5">
<title>
hole:16
</title>
</circle>
<circle cx="61" cy="53" r="0.5">
<title>
hole:17
</title>
</circle>
<circle cx="97" cy="80" r="0.5">
<title>
hole:18
</title>
</circle>
<circle cx="113" cy="106" r="0.5">
<title>
hole:19
</title>
</circle>
<circle cx="115" cy="81" r="0.5">
<title>
hole:20
</title>
</circle>
<circle cx="121" cy="71" r="0.5">
<title>
hole:21
</title>
</circle>
<circle cx="103" cy="65" r="0.5">
<title>
hole:22
</title>
</circle>
<circle cx="99" cy="52" r="0.5">
<title>
hole:23
</title>
</circle>
<circle cx="99" cy="37" r="0.5">
<title>
hole:24
</title>
</circle>
<circle cx="96" cy="25" r="0.5">
<title>
hole:25
</title>
</circle>
<circle cx="114" cy="28" r="0.5">
<title>
hole:26
</title>
</circle>
<circle cx="121" cy="18" r="0.5">
<title>
hole:27
</title>
</circle>
<circle cx="121" cy="0" r="0.5">
<title>
hole:28
</title>
</circle>
<circle cx="108" cy="13" r="0.5">
<title>
hole:29
</title>
</circle>
<circle cx="102" cy="0" r="0.5">
<title>
hole:30
</title>
</circle>
<circle cx="80" cy="21" r="0.5">
<title>
hole:31
</title>
</circle>
<circle cx="71" cy="1" r="0.5">
<title>
hole:32
</title>
</circle>
<circle cx="59" cy="0" r="0.5">
<title>
hole:33
</title>
</circle>
<circle cx="39" cy="0" r="0.5">
<title>
hole:34
</title>
</circle>
<circle cx="57" cy="12" r="0.5">
<title>
hole:35
</title>
</circle>
<circle cx="44" cy="41" r="0.5">
<title>
hole:36
</title>
</circle>
<circle cx="35" cy="32" r="0.5">
<title>
hole:37
</title>
</circle>
<circle cx="25" cy="26" r="0.5">
<title>
hole:38
</title>
</circle>
<circle cx="25" cy="0" r="0.5">
<title>
hole:39
</title>
</circle>
<circle cx="12" cy="1" r="0.5">
<title>
hole:40
</title>
</circle>
</g>
<g fill="#999999">
<circle cx="30" cy="82" i="0" r="0.5" tabindex="0">
<title>
v:0
</title>
</circle>
<circle cx="32" cy="79" i="1" r="0.5" tabindex="1">
<title>
v:1
</title>
</circle>
<circle cx="34" cy="82" i="2" r="0.5" tabindex="2">
<title>
v:2
</title>
</circle>
<circle cx="35" cy="55" i="3" r="0.5" tabindex="3">
<title>
v:3
</title>
</circle>
<circle cx="37" cy="64" i="4" r="0.5" tabindex="4">
<title>
v:4
</title>
</circle>
<circle cx="39" cy="100" i="5" r="0.5" tabindex="5">
<title>
v:5
</title>
</circle>
<circle cx="40" cy="104" i="6" r="0.5" tabindex="6">
<title>
v:6
</title>
</circle>
<circle cx="42" cy="80" i="7" r="0.5" tabindex="7">
<title>
v:7
</title>
</circle>
<circle cx="43" cy="98" i="8" r="0.5" tabindex="8">
<title>
v:8
</title>
</circle>
<circle cx="44" cy="60" i="9" r="0.5" tabindex="9">
<title>
v:9
</title>
</circle>
<circle cx="45" cy="38" i="10" r="0.5" tabindex="10">
<title>
v:10
</title>
</circle>
<circle cx="47" cy="78" i="11" r="0.5" tabindex="11">
<title>
v:11
</title>
</circle>
<circle cx="47" cy="91" i="12" r="0.5" tabindex="12">
<title>
v:12
</title>
</circle>
<circle cx="49" cy="57" i="13" r="0.5" tabindex="13">
<title>
v:13
</title>
</circle>
<circle cx="51" cy="32" i="14" r="0.5" tabindex="14">
<title>
v:14
</title>
</circle>
<circle cx="51" cy="44" i="15" r="0.5" tabindex="15">
<title>
v:15
</title>
</circle>
<circle cx="53" cy="96" i="16" r="0.5" tabindex="16">
<title>
v:16
</title>
</circle>
<circle cx="53" cy="100" i="17" r="0.5" tabindex="17">
<title>
v:17
</title>
</circle>
<circle cx="54" cy="65" i="18" r="0.5" tabindex="18">
<title>
v:18
</title>
</circle>
<circle cx="56" cy="39" i="19" r="0.5" tabindex="19">
<title>
v:19
</title>
</circle>
<circle cx="56" cy="98" i="20" r="0.5" tabindex="20">
<title>
v:20
</title>
</circle>
<circle cx="57" cy="103" i="21" r="0.5" tabindex="21">
<title>
v:21
</title>
</circle>
<circle cx="62" cy="59" i="22" r="0.5" tabindex="22">
<title>
v:22
</title>
</circle>
<circle cx="67" cy="65" i="23" r="0.5" tabindex="23">
<title>
v:23
</title>
</circle>
<circle cx="69" cy="57" i="24" r="0.5" tabindex="24">
<title>
v:24
</title>
</circle>
<circle cx="69" cy="98" i="25" r="0.5" tabindex="25">
<title>
v:25
</title>
</circle>
<circle cx="69" cy="104" i="26" r="0.5" tabindex="26">
<title>
v:26
</title>
</circle>
<circle cx="72" cy="97" i="27" r="0.5" tabindex="27">
<title>
v:27
</title>
</circle>
<circle cx="73" cy="100" i="28" r="0.5" tabindex="28">
<title>
v:28
</title>
</circle>
<circle cx="76" cy="44" i="29" r="0.5" tabindex="29">
<title>
v:29
</title>
</circle>
<circle cx="77" cy="82" i="30" r="0.5" tabindex="30">
<title>
v:30
</title>
</circle>
<circle cx="78" cy="53" i="31" r="0.5" tabindex="31">
<title>
v:31
</title>
</circle>
<circle cx="80" cy="93" i="32" r="0.5" tabindex="32">
<title>
v:32
</title>
</circle>
<circle cx="80" cy="99" i="33" r="0.5" tabindex="33">
<title>
v:33
</title>
</circle>
<circle cx="81" cy="104" i="34" r="0.5" tabindex="34">
<title>
v:34
</title>
</circle>
<circle cx="82" cy="78" i="35" r="0.5" tabindex="35">
<title>
v:35
</title>
</circle>
<circle cx="84" cy="40" i="36" r="0.5" tabindex="36">
<title>
v:36
</title>
</circle>
<circle cx="84" cy="83" i="37" r="0.5" tabindex="37">
<title>
v:37
</title>
</circle>
<circle cx="86" cy="48" i="38" r="0.5" tabindex="38">
<title>
v:38
</title>
</circle>
<circle cx="92" cy="94" i="39" r="0.5" tabindex="39">
<title>
v:39
</title>
</circle>
<circle cx="93" cy="81" i="40" r="0.5" tabindex="40">
<title>
v:40
</title>
</circle>
<circle cx="96" cy="77" i="41" r="0.5" tabindex="41">
<title>
v:41
</title>
</circle>
<circle cx="97" cy="81" i="42" r="0.5" tabindex="42">
<title>
v:42
</title>
</circle>
<circle cx="97" cy="92" i="43" r="0.5" tabindex="43">
<title>
v:43
</title>
</circle>
<circle cx="101" cy="97" i="44" r="0.5" tabindex="44">
<title>
v:44
</title>
</circle>
</g>
</svg>