<svg height="500" viewBox="0 -2 251 173" width="500" xmlns="http://www.w3.org/2000/svg">
<path class="hole" d="M2 36L20 42L39 48L63 39L62 69L34 71L7 73L2 97L34 96L60 93L92 87L84 122L4 152L72 147L88 165L98 146L108 128L127 154L144 169L162 136L179 158L249 169L175 123L192 107L234 107L216 73L249 93L249 42L233 0L222 38L208 1L173 0L177 28L155 34L134 27L114 21L85 52L83 26L90 0L63 16L40 18L22 6L2 17M0 -2L251 -2L251 171L0 171" style="fill:#00000066;fill-rule:evenodd;"/>
<circle cx="215" cy="150" fill="#ffff0066" r="5">
<title>
WallHack@126
</title>
</circle>
<circle cx="38" cy="141" fill="#ffff0066" r="5">
<title>
BreakALeg@117
</title>
</circle>
<circle cx="242" cy="69" fill="#ffff0066" r="5">
<title>
Globalist@26
</title>
</circle>
<path class="ok" d="M12 79L36 86M26 42L46 18M46 18L70 37M67 135L89 154M70 37L84 10M74 73L103 81M77 76L93 54M93 54L96 82M93 54L118 41M96 82L128 86M102 102L113 131M102 102L128 86M103 81L106 104M113 131L138 130M118 41L138 61M128 86L138 61M128 86L149 103M138 61L158 41M138 61L161 64M138 130L149 103M148 77L149 103M148 77L171 62M149 103L167 90M149 103L177 108M161 64L167 90M171 62L191 84M171 62L196 40M177 108L191 84M191 84L205 107M191 84L213 63M196 40L213 63M213 63L238 76M213 63L239 47" style="stroke:#0000ff;stroke-linecap:round"/>
<path class="out" d="M12 79L16 104M12 79L33 64M16 104L28 135M16 104L36 86M26 42L51 61M28 135L56 123M33 64L36 86M36 86L51 61M36 86L62 98M51 61L70 37M51 61L77 76M56 123L62 98M56 123L67 135M56 123L82 117M62 98L74 73M62 98L75 106M62 98L77 76M62 98L82 117M67 135L75 106M70 37L93 54M70 37L161 64M75 106L102 102M82 117L106 104M84 10L112 10M89 154L113 131M112 10L118 41M118 41L138 21M127 159L138 130M127 159L161 153M138 21L158 41M138 130L161 153M161 153L188 135M177 108L188 135M196 40L218 19M205 107L234 110M218 19L239 47M234 110L238 76" style="stroke:#ff0000;stroke-linecap:round"/>
<g fill="#333333">
<circle cx="2" cy="36" r="0.5">
<title>
hole:0
</title>
</circle>
<circle cx="20" cy="42" r="0.5">
<title>
hole:1
</title>
</circle>
<circle cx="39" cy="48" r="0.5">
<title>
hole:2
</title>
</circle>
<circle cx="63" cy="39" r="0.5">
<title>
hole:3
</title>
</circle>
<circle cx="62" cy="69" r="0.5">
<title>
hole:4
</title>
</circle>
<circle cx="34" cy="71" r="0.5">
<title>
hole:5
</title>
</circle>
<circle cx="7" cy="73" r="0.5">
<title>
hole:6
</title>
</circle>
<circle cx="2" cy="97" r="0.5">
<title>
hole:7
</title>
</circle>
<circle cx="34" cy="96" r="0.5">
<title>
hole:8
</title>
</circle>
<circle cx="60" cy="93" r="0.5">
<title>
hole:9
</title>
</circle>
<circle cx="92" cy="87" r="0.5">
<title>
hole:10
</title>
</circle>
<circle cx="84" cy="122" r="0.5">
<title>
hole:11
</title>
</circle>
<circle cx="4" cy="152" r="0.5">
<title>
hole:12
</title>
</circle>
<circle cx="72" cy="147" r="0.5">
<title>
hole:13
</title>
</circle>
<circle cx="88" cy="165" r="0.5">
<title>
hole:14
</title>
</circle>
<circle cx="98" cy="146" r="0.5">
<title>
hole:15
</title>
</circle>
<circle cx="108" cy="128" r="0.5">
<title>
hole:16
</title>
</circle>
<circle cx="127" cy="154" r="0.5">
<title>
hole:17
</title>
</circle>
<circle cx="144" cy="169" r="0.5">
<title>
hole:18
</title>
</circle>
<circle cx="162" cy="136" r="0.5">
<title>
hole:19
</title>
</circle>
<circle cx="179" cy="158" r="0.5">
<title>
hole:20
</title>
</circle>
<circle cx="249" cy="169" r="0.5">
<title>
hole:21
</title>
</circle>
<circle cx="175" cy="123" r="0.5">
<title>
hole:22
</title>
</circle>
<circle cx="192" cy="107" r="0.5">
<title>
hole:23
</title>
</circle>
<circle cx="234" cy="107" r="0.5">
<title>
hole:24
</title>
</circle>
<circle cx="216" cy="73" r="0.5">
<title>
hole:25
</title>
</circle>
<circle cx="249" cy="93" r="0.5">
<title>
hole:26
</title>
</circle>
<circle cx="249" cy="42" r="0.5">
<title>
hole:27
</title>
</circle>
<circle cx="233" cy="0" r="0.5">
<title>
hole:28
</title>
</circle>
<circle cx="222" cy="38" r="0.5">
<title>
hole:29
</title>
</circle>
<circle cx="208" cy="1" r="0.5">
<title>
hole:30
</title>
</circle>
<circle cx="173" cy="0" r="0.5">
<title>
hole:31
</title>
</circle>
<circle cx="177" cy="28" r="0.5">
<title>
hole:32
</title>
</circle>
<circle cx="155" cy="34" r="0.5">
<title>
hole:33
</title>
</circle>
<circle cx="134" cy="27" r="0.5">
<title>
hole:34
</title>
</circle>
<circle cx="114" cy="21" r="0.5">
<title>
hole:35
</title>
</circle>
<circle cx="85" cy="52" r="0.5">
<title>
hole:36
</title>
</circle>
<circle cx="83" cy="26" r="0.5">
<title>
hole:37
</title>
</circle>
<circle cx="90" cy="0" r="0.5">
<title>
hole:38
</title>
</circle>
<circle cx="63" cy="16" r="0.5">
<title>
hole:39
</title>
</circle>
<circle cx="40" cy="18" r="0.5">
<title>
hole:40
</title>
</circle>
<circle cx="22" cy="6" r="0.5">
<title>
hole:41
</title>
</circle>
<circle cx="2" cy="17" r="0.5">
<title>
hole:42
</title>
</circle>
</g>
<g fill="#999999">
<circle cx="12" cy="79" i="0" r="0.5" tabindex="0">
<title>
v:0
</title>
</circle>
<circle cx="16" cy="104" i="1" r="0.5" tabindex="1">
<title>
v:1
</title>
</circle>
<circle cx="26" cy="42" i="2" r="0.5" tabindex="2">
<title>
v:2
</title>
</circle>
<circle cx="28" cy="135" i="3" r="0.5" tabindex="3">
<title>
v:3
</title>
</circle>
<circle cx="33" cy="64" i="4" r="0.5" tabindex="4">
<title>
v:4
</title>
</circle>
<circle cx="36" cy="86" i="5" r="0.5" tabindex="5">
<title>
v:5
</title>
</circle>
<circle cx="46" cy="18" i="6" r="0.5" tabindex="6">
<title>
v:6
</title>
</circle>
<circle cx="51" cy="61" i="7" r="0.5" tabindex="7">
<title>
v:7
</title>
</circle>
<circle cx="56" cy="123" i="8" r="0.5" tabindex="8">
<title>
v:8
</title>
</circle>
<circle cx="62" cy="98" i="9" r="0.5" tabindex="9">
<title>
v:9
</title>
</circle>
<circle cx="67" cy="135" i="10" r="0.5" tabindex="10">
<title>
v:10
</title>
</circle>
<circle cx="70" cy="37" i="11" r="0.5" tabindex="11">
<title>
v:11
</title>
</circle>
<circle cx="74" cy="73" i="12" r="0.5" tabindex="12">
<title>
v:12
</title>
</circle>
<circle cx="75" cy="106" i="13" r="0.5" tabindex="13">
<title>
v:13
</title>
</circle>
<circle cx="77" cy="76" i="14" r="0.5" tabindex="14">
<title>
v:14
</title>
</circle>
<circle cx="82" cy="117" i="15" r="0.5" tabindex="15">
<title>
v:15
</title>
</circle>
<circle cx="84" cy="10" i="16" r="0.5" tabindex="16">
<title>
v:16
</title>
</circle>
<circle cx="89" cy="154" i="17" r="0.5" tabindex="17">
<title>
v:17
</title>
</circle>
<circle cx="93" cy="54" i="18" r="0.5" tabindex="18">
<title>
v:18
</title>
</circle>
<circle cx="96" cy="82" i="19" r="0.5" tabindex="19">
<title>
v:19
</title>
</circle>
<circle cx="102" cy="102" i="20" r="0.5" tabindex="20">
<title>
v:20
</title>
</circle>
<circle cx="103" cy="81" i="21" r="0.5" tabindex="21">
<title>
v:21
</title>
</circle>
<circle cx="106" cy="104" i="22" r="0.5" tabindex="22">
<title>
v:22
</title>
</circle>
<circle cx="112" cy="10" i="23" r="0.5" tabindex="23">
<title>
v:23
</title>
</circle>
<circle cx="113" cy="131" i="24" r="0.5" tabindex="24">
<title>
v:24
</title>
</circle>
<circle cx="118" cy="41" i="25" r="0.5" tabindex="25">
<title>
v:25
</title>
</circle>
<circle cx="127" cy="159" i="26" r="0.5" tabindex="26">
<title>
v:26
</title>
</circle>
<circle cx="128" cy="86" i="27" r="0.5" tabindex="27">
<title>
v:27
</title>
</circle>
<circle cx="138" cy="21" i="28" r="0.5" tabindex="28">
<title>
v:28
</title>
</circle>
<circle cx="138" cy="61" i="29" r="0.5" tabindex="29">
<title>
v:29
</title>
</circle>
<circle cx="138" cy="130" i="30" r="0.5" tabindex="30">
<title>
v:30
</title>
</circle>
<circle cx="148" cy="77" i="31" r="0.5" tabindex="31">
<title>
v:31
</title>
</circle>
<circle cx="149" cy="103" i="32" r="0.5" tabindex="32">
<title>
v:32
</title>
</circle>
<circle cx="158" cy="41" i="33" r="0.5" tabindex="33">
<title>
v:33
</title>
</circle>
<circle cx="161" cy="64" i="34" r="0.5" tabindex="34">
<title>
v:34
</title>
</circle>
<circle cx="161" cy="153" i="35" r="0.5" tabindex="35">
<title>
v:35
</title>
</circle>
<circle cx="167" cy="90" i="36" r="0.5" tabindex="36">
<title>
v:36
</title>
</circle>
<circle cx="171" cy="62" i="37" r="0.5" tabindex="37">
<title>
v:37
</title>
</circle>
<circle cx="177" cy="108" i="38" r="0.5" tabindex="38">
<title>
v:38
</title>
</circle>
<circle cx="188" cy="135" i="39" r="0.5" tabindex="39">
<title>
v:39
</title>
</circle>
<circle cx="191" cy="84" i="40" r="0.5" tabindex="40">
<title>
v:40
</title>
</circle>
<circle cx="196" cy="40" i="41" r="0.5" tabindex="41">
<title>
v:41
</title>
</circle>
<circle cx="205" cy="107" i="42" r="0.5" tabindex="42">
<title>
v:42
</title>
</circle>
<circle cx="213" cy="63" i="43" r="0.5" tabindex="43">
<title>
v:43
</title>
</circle>
<circle cx="218" cy="19" i="44" r="0.5" tabindex="44">
<title>
v:44
</title>
</circle>
<circle cx="234" cy="110" i="45" r="0.5" tabindex="45">
<title>
v:45
</title>
</circle>
<circle cx="238" cy="76" i="46" r="0.5" tabindex="46">
<title>
v:46
</title>
</circle>
<circle cx="239" cy="47" i="47" r="0.5" tabindex="47">
<title>
v:47
</title>
</circle>
</g>
</svg>