<svg height="500" viewBox="0 -2 119 118" width="500" xmlns="http://www.w3.org/2000/svg">
<path class="hole" d="M44 39L25 40L14 27L4 15L2 32L5 50L19 55L34 60L51 63L43 73L36 83L23 74L11 65L5 79L2 96L14 104L15 85L26 98L38 111L52 114L49 98L60 82L68 105L78 105L88 104L103 105L117 113L113 99L109 86L94 92L76 91L89 76L103 73L117 78L114 59L117 49L117 28L107 44L101 52L79 58L66 46L87 43L100 23L116 5L105 2L94 0L76 0L87 12L82 21L66 19L63 0L52 23L40 0L16 5L37 16L23 21M0 -2L119 -2L119 116L0 116" style="fill:#00000066;fill-rule:evenodd;"/>
<circle cx="92" cy="63" fill="#ffff0066" r="5">
<title>
Globalist@112
</title>
</circle>
<circle cx="35" cy="30" fill="#ffff0066" r="5">
<title>
SuperFlex@123
</title>
</circle>
<circle cx="77" cy="78" fill="#ffff0066" r="5">
<title>
SuperFlex@90
</title>
</circle>
<path class="ok" d="M22 45L42 45M27 40L42 40M42 40L42 45M42 45L72 45M42 60L47 55M42 75L52 90M42 75L82 75M47 55L52 55M47 70L52 70M52 30L52 40M52 30L67 30M52 40L72 40M52 55L57 60M52 70L57 65M57 60L57 65M57 60L67 60M67 30L72 40M67 60L67 65M67 60L72 55M67 65L72 70M72 40L72 45M72 70L77 70M72 90L82 75M77 70L82 65M82 60L82 65M82 60L92 60M82 75L92 60" style="stroke:#0000ff;stroke-linecap:round"/>
<path class="out" d="M22 20L22 35M22 20L27 15M22 35L27 40M22 45L32 60M27 15L42 15M32 60L42 60M32 60L42 75M42 60L42 65M42 65L47 70M52 15L52 30M52 15L72 15M52 90L62 105M52 90L72 90M62 105L72 90M67 30L72 15M72 45L92 45M72 55L77 55M77 55L82 60M82 15L92 40M92 40L92 45M92 40L102 15M92 45L102 45M92 60L102 45" style="stroke:#ff0000;stroke-linecap:round"/>
<g fill="#333333">
<circle cx="44" cy="39" r="0.5">
<title>
hole:0
</title>
</circle>
<circle cx="25" cy="40" r="0.5">
<title>
hole:1
</title>
</circle>
<circle cx="14" cy="27" r="0.5">
<title>
hole:2
</title>
</circle>
<circle cx="4" cy="15" r="0.5">
<title>
hole:3
</title>
</circle>
<circle cx="2" cy="32" r="0.5">
<title>
hole:4
</title>
</circle>
<circle cx="5" cy="50" r="0.5">
<title>
hole:5
</title>
</circle>
<circle cx="19" cy="55" r="0.5">
<title>
hole:6
</title>
</circle>
<circle cx="34" cy="60" r="0.5">
<title>
hole:7
</title>
</circle>
<circle cx="51" cy="63" r="0.5">
<title>
hole:8
</title>
</circle>
<circle cx="43" cy="73" r="0.5">
<title>
hole:9
</title>
</circle>
<circle cx="36" cy="83" r="0.5">
<title>
hole:10
</title>
</circle>
<circle cx="23" cy="74" r="0.5">
<title>
hole:11
</title>
</circle>
<circle cx="11" cy="65" r="0.5">
<title>
hole:12
</title>
</circle>
<circle cx="5" cy="79" r="0.5">
<title>
hole:13
</title>
</circle>
<circle cx="2" cy="96" r="0.5">
<title>
hole:14
</title>
</circle>
<circle cx="14" cy="104" r="0.5">
<title>
hole:15
</title>
</circle>
<circle cx="15" cy="85" r="0.5">
<title>
hole:16
</title>
</circle>
<circle cx="26" cy="98" r="0.5">
<title>
hole:17
</title>
</circle>
<circle cx="38" cy="111" r="0.5">
<title>
hole:18
</title>
</circle>
<circle cx="52" cy="114" r="0.5">
<title>
hole:19
</title>
</circle>
<circle cx="49" cy="98" r="0.5">
<title>
hole:20
</title>
</circle>
<circle cx="60" cy="82" r="0.5">
<title>
hole:21
</title>
</circle>
<circle cx="68" cy="105" r="0.5">
<title>
hole:22
</title>
</circle>
<circle cx="78" cy="105" r="0.5">
<title>
hole:23
</title>
</circle>
<circle cx="88" cy="104" r="0.5">
<title>
hole:24
</title>
</circle>
<circle cx="103" cy="105" r="0.5">
<title>
hole:25
</title>
</circle>
<circle cx="117" cy="113" r="0.5">
<title>
hole:26
</title>
</circle>
<circle cx="113" cy="99" r="0.5">
<title>
hole:27
</title>
</circle>
<circle cx="109" cy="86" r="0.5">
<title>
hole:28
</title>
</circle>
<circle cx="94" cy="92" r="0.5">
<title>
hole:29
</title>
</circle>
<circle cx="76" cy="91" r="0.5">
<title>
hole:30
</title>
</circle>
<circle cx="89" cy="76" r="0.5">
<title>
hole:31
</title>
</circle>
<circle cx="103" cy="73" r="0.5">
<title>
hole:32
</title>
</circle>
<circle cx="117" cy="78" r="0.5">
<title>
hole:33
</title>
</circle>
<circle cx="114" cy="59" r="0.5">
<title>
hole:34
</title>
</circle>
<circle cx="117" cy="49" r="0.5">
<title>
hole:35
</title>
</circle>
<circle cx="117" cy="28" r="0.5">
<title>
hole:36
</title>
</circle>
<circle cx="107" cy="44" r="0.5">
<title>
hole:37
</title>
</circle>
<circle cx="101" cy="52" r="0.5">
<title>
hole:38
</title>
</circle>
<circle cx="79" cy="58" r="0.5">
<title>
hole:39
</title>
</circle>
<circle cx="66" cy="46" r="0.5">
<title>
hole:40
</title>
</circle>
<circle cx="87" cy="43" r="0.5">
<title>
hole:41
</title>
</circle>
<circle cx="100" cy="23" r="0.5">
<title>
hole:42
</title>
</circle>
<circle cx="116" cy="5" r="0.5">
<title>
hole:43
</title>
</circle>
<circle cx="105" cy="2" r="0.5">
<title>
hole:44
</title>
</circle>
<circle cx="94" cy="0" r="0.5">
<title>
hole:45
</title>
</circle>
<circle cx="76" cy="0" r="0.5">
<title>
hole:46
</title>
</circle>
<circle cx="87" cy="12" r="0.5">
<title>
hole:47
</title>
</circle>
<circle cx="82" cy="21" r="0.5">
<title>
hole:48
</title>
</circle>
<circle cx="66" cy="19" r="0.5">
<title>
hole:49
</title>
</circle>
<circle cx="63" cy="0" r="0.5">
<title>
hole:50
</title>
</circle>
<circle cx="52" cy="23" r="0.5">
<title>
hole:51
</title>
</circle>
<circle cx="40" cy="0" r="0.5">
<title>
hole:52
</title>
</circle>
<circle cx="16" cy="5" r="0.5">
<title>
hole:53
</title>
</circle>
<circle cx="37" cy="16" r="0.5">
<title>
hole:54
</title>
</circle>
<circle cx="23" cy="21" r="0.5">
<title>
hole:55
</title>
</circle>
</g>
<g fill="#999999">
<circle cx="22" cy="20" i="0" r="0.5" tabindex="0">
<title>
v:0
</title>
</circle>
<circle cx="22" cy="35" i="1" r="0.5" tabindex="1">
<title>
v:1
</title>
</circle>
<circle cx="22" cy="45" i="2" r="0.5" tabindex="2">
<title>
v:2
</title>
</circle>
<circle cx="27" cy="15" i="3" r="0.5" tabindex="3">
<title>
v:3
</title>
</circle>
<circle cx="27" cy="40" i="4" r="0.5" tabindex="4">
<title>
v:4
</title>
</circle>
<circle cx="32" cy="60" i="5" r="0.5" tabindex="5">
<title>
v:5
</title>
</circle>
<circle cx="42" cy="15" i="6" r="0.5" tabindex="6">
<title>
v:6
</title>
</circle>
<circle cx="42" cy="40" i="7" r="0.5" tabindex="7">
<title>
v:7
</title>
</circle>
<circle cx="42" cy="45" i="8" r="0.5" tabindex="8">
<title>
v:8
</title>
</circle>
<circle cx="42" cy="60" i="9" r="0.5" tabindex="9">
<title>
v:9
</title>
</circle>
<circle cx="42" cy="65" i="10" r="0.5" tabindex="10">
<title>
v:10
</title>
</circle>
<circle cx="42" cy="75" i="11" r="0.5" tabindex="11">
<title>
v:11
</title>
</circle>
<circle cx="47" cy="55" i="12" r="0.5" tabindex="12">
<title>
v:12
</title>
</circle>
<circle cx="47" cy="70" i="13" r="0.5" tabindex="13">
<title>
v:13
</title>
</circle>
<circle cx="52" cy="15" i="14" r="0.5" tabindex="14">
<title>
v:14
</title>
</circle>
<circle cx="52" cy="30" i="15" r="0.5" tabindex="15">
<title>
v:15
</title>
</circle>
<circle cx="52" cy="40" i="16" r="0.5" tabindex="16">
<title>
v:16
</title>
</circle>
<circle cx="52" cy="55" i="17" r="0.5" tabindex="17">
<title>
v:17
</title>
</circle>
<circle cx="52" cy="70" i="18" r="0.5" tabindex="18">
<title>
v:18
</title>
</circle>
<circle cx="52" cy="90" i="19" r="0.5" tabindex="19">
<title>
v:19
</title>
</circle>
<circle cx="57" cy="60" i="20" r="0.5" tabindex="20">
<title>
v:20
</title>
</circle>
<circle cx="57" cy="65" i="21" r="0.5" tabindex="21">
<title>
v:21
</title>
</circle>
<circle cx="62" cy="105" i="22" r="0.5" tabindex="22">
<title>
v:22
</title>
</circle>
<circle cx="67" cy="30" i="23" r="0.5" tabindex="23">
<title>
v:23
</title>
</circle>
<circle cx="67" cy="60" i="24" r="0.5" tabindex="24">
<title>
v:24
</title>
</circle>
<circle cx="67" cy="65" i="25" r="0.5" tabindex="25">
<title>
v:25
</title>
</circle>
<circle cx="72" cy="15" i="26" r="0.5" tabindex="26">
<title>
v:26
</title>
</circle>
<circle cx="72" cy="40" i="27" r="0.5" tabindex="27">
<title>
v:27
</title>
</circle>
<circle cx="72" cy="45" i="28" r="0.5" tabindex="28">
<title>
v:28
</title>
</circle>
<circle cx="72" cy="55" i="29" r="0.5" tabindex="29">
<title>
v:29
</title>
</circle>
<circle cx="72" cy="70" i="30" r="0.5" tabindex="30">
<title>
v:30
</title>
</circle>
<circle cx="72" cy="90" i="31" r="0.5" tabindex="31">
<title>
v:31
</title>
</circle>
<circle cx="77" cy="55" i="32" r="0.5" tabindex="32">
<title>
v:32
</title>
</circle>
<circle cx="77" cy="70" i="33" r="0.5" tabindex="33">
<title>
v:33
</title>
</circle>
<circle cx="82" cy="15" i="34" r="0.5" tabindex="34">
<title>
v:34
</title>
</circle>
<circle cx="82" cy="60" i="35" r="0.5" tabindex="35">
<title>
v:35
</title>
</circle>
<circle cx="82" cy="65" i="36" r="0.5" tabindex="36">
<title>
v:36
</title>
</circle>
<circle cx="82" cy="75" i="37" r="0.5" tabindex="37">
<title>
v:37
</title>
</circle>
<circle cx="92" cy="40" i="38" r="0.5" tabindex="38">
<title>
v:38
</title>
</circle>
<circle cx="92" cy="45" i="39" r="0.5" tabindex="39">
<title>
v:39
</title>
</circle>
<circle cx="92" cy="60" i="40" r="0.5" tabindex="40">
<title>
v:40
</title>
</circle>
<circle cx="102" cy="15" i="41" r="0.5" tabindex="41">
<title>
v:41
</title>
</circle>
<circle cx="102" cy="45" i="42" r="0.5" tabindex="42">
<title>
v:42
</title>
</circle>
</g>
</svg>