<svg height="500" viewBox="0 -2 406 663" width="500" xmlns="http://www.w3.org/2000/svg">
<path class="hole" d="M2 185L3 202L7 225L34 234L63 252L79 212L76 248L88 261L121 262L147 284L128 303L107 313L86 340L123 368L150 356L171 398L134 386L86 376L87 356L63 348L62 370L40 399L65 419L70 452L91 486L105 464L96 436L100 441L119 465L145 448L163 458L165 485L167 532L206 529L170 565L119 591L147 639L199 617L216 659L268 647L246 595L251 551L269 598L298 553L343 557L355 528L334 498L312 489L282 491L272 475L271 468L294 432L340 421L363 392L404 389L379 362L340 331L316 349L313 343L338 317L329 251L359 229L375 190L380 165L355 172L335 127L297 145L287 149L281 196L279 247L259 252L224 262L209 253L182 237L150 236L194 223L199 211L195 204L171 183L145 176L151 132L181 154L218 180L223 135L265 144L256 110L250 57L211 94L167 91L179 59L159 33L191 29L192 8L158 0L125 9L126 35L79 39L78 85L125 84L114 116L90 140L85 148L79 102L65 55L20 67L31 114L39 158L9 163M0 -2L406 -2L406 661L0 661" style="fill:#00000066;fill-rule:evenodd;"/>
<circle cx="161" cy="603" fill="#ffff0066" r="5">
<title>
Globalist@128
</title>
</circle>
<circle cx="209" cy="582" fill="#ffff0066" r="5">
<title>
WallHack@116
</title>
</circle>
<circle cx="236" cy="630" fill="#ffff0066" r="5">
<title>
BreakALeg@86
</title>
</circle>
<path class="ok" d="M84 82L96 54M62 85L35 68M35 96L58 65M61 58L56 74M62 83L35 64M35 64L67 71M35 64L67 65M93 52L89 81M89 81L87 52M51 71L66 59M52 59L58 58M64 71L32 83M64 71L28 66M52 80L32 83M66 64L35 91M66 64L52 64M66 64L72 87M66 64L52 106M35 91L52 64M27 75L61 85M32 83L64 94M72 87L63 71M28 66L63 72M28 66L64 94M28 66L66 88M64 94L25 67M25 67L62 68" style="stroke:#0000ff;stroke-linecap:round"/>
<path class="out" d="M104 55L81 22M104 55L77 88M58 52L84 82M58 52L77 88M81 22L85 51M106 71L59 78M106 71L60 75M59 78L96 54M59 78L18 50M85 51L77 88M85 51L56 32M96 54L77 88M96 54L58 27M62 85L52 50M77 88L41 72M52 50L66 33M52 50L28 55M56 32L41 72M66 33L42 40M60 75L18 50M35 68L3 59M35 68L3 64M35 68L21 35M3 59L41 71M3 59L21 35M8 58L41 72M8 58L35 42M52 36L96 21M52 36L99 36M96 21L50 34M18 50L58 27M41 72L2 42M41 72L35 42M41 72L78 62M45 18L45 44M45 18L24 35M58 27L78 62M58 27L80 64M38 0L9 18M38 0L70 34M28 55L42 40M28 55L3 64M30 54L53 42M30 54L69 62M30 54L55 75M2 42L35 42M2 42L16 71M53 42L55 75M45 44L68 55M45 44L24 35M41 71L49 46M3 64L21 35M3 64L39 58M3 64L35 96M21 35L49 46M21 35L39 58M69 62L65 35M68 55L90 75M68 55L39 58M35 42L78 62M35 42L16 71M35 42L65 35M78 62L65 35M78 62L47 60M78 62L47 36M24 35L39 58M9 18L28 54M80 64L99 36M80 64L43 80M55 75L84 66M90 75L72 50M52 40L73 91M52 40L76 92M16 71L48 83M16 71L55 73M39 58L35 96M39 58L72 50M39 58L89 81M65 35L48 57M65 35L84 66M65 35L61 58M65 35L55 73M70 34L43 21M47 60L27 62M39 58L50 34M39 58L62 83M99 36L50 34M99 36L57 39M50 34L35 64M73 30L98 45M73 30L42 55M48 57L73 67M27 62L61 58M84 66L54 67M98 45L63 55M47 36L43 80M61 58L73 67M72 50L93 52M72 50L89 81M48 83L28 54M48 83L38 50M28 54L43 21M28 54L63 55M73 91L22 66M55 73L74 47M55 73L82 39M43 21L58 65M43 21L63 55M43 80L57 39M43 80L80 79M73 67L67 49M56 74L71 59M62 83L54 49M42 55L51 87M93 52L60 61M62 84L17 72M62 84L82 49M62 84L42 43M57 39L67 71M57 39L75 79M17 72L42 43M76 92L22 66M76 92L55 45M54 67L82 39M71 59L67 49M71 59L60 58M67 49L60 58M67 49L54 50M58 65L89 81M58 65L52 32M36 20L60 19M36 20L28 58M38 50L74 47M38 50L57 20M38 50L57 21M38 50L87 38M63 55L51 87M63 55L57 20M63 55L25 61M37 72L31 41M37 72L65 54M31 41L33 56M80 79L97 37M80 79L52 43M60 58L54 50M60 58L74 63M60 19L55 45M74 47L57 21M54 50L65 47M82 69L83 106M82 69L57 39M83 106L82 65M83 106L45 79M82 49L75 5M82 49L50 81M51 87L78 49M76 41L60 61M76 41L52 45M67 65L54 49M30 27L28 58M30 27L52 39M60 61L52 39M65 47L75 55M33 56L47 59M33 56L52 45M74 63L75 55M22 66L67 64M22 66L74 71M57 20L87 38M42 43L50 81M47 59L51 71M47 59L63 55M52 32L87 52M52 32L25 61M52 32L64 71M87 52L90 91M87 52L52 39M87 52L52 80M55 45L28 58M55 45L35 91M73 31L40 27M73 31L58 75M57 21L87 38M65 54L52 45M75 79L52 43M75 79L54 29M75 79L27 75M25 61L47 33M25 61L58 75M25 61L50 31M28 58L52 39M28 58L66 64M52 45L63 55M52 45L58 25M52 45L52 59M90 91L52 80M82 65L45 79M52 39L58 25M52 39L81 51M52 39L72 87M67 64L97 19M97 37L52 43M63 55L52 59M63 55L70 47M63 55L72 78M46 51L47 54M46 51L52 59M58 25L36 4M58 25L36 42M58 25L66 64M47 54L58 58M75 5L40 27M75 5L73 52M36 4L38 41M66 59L72 78M52 43L27 75M52 43L61 85M57 39L45 79M57 39L15 49M50 81L63 52M50 81L73 52M57 86L23 89M57 86L21 85M52 59L36 42M70 47L58 58M23 89L58 75M23 89L29 50M45 79L50 31M45 79L15 49M40 27L8 58M47 33L25 59M78 49L58 75M78 49L100 76M63 52L43 83M58 75L25 59M58 75L62 39M58 75L42 40M64 71L50 31M81 51L52 80M81 51L72 87M81 51L53 53M36 42L34 75M74 71L35 91M74 71L97 19M50 31L28 66M50 31L63 72M54 29L27 75M35 91L41 41M35 91L80 78M73 52L43 83M73 52L34 20M38 41L34 75M21 85L29 50M32 83L53 53M52 64L68 44M25 59L62 39M15 49L25 97M100 76L72 52M100 76L57 74M29 50L62 39M41 41L80 78M53 53L64 94M78 61L42 40M78 61L49 65M42 40L8 58M42 40L57 74M42 40L79 43M8 58L34 20M8 58L48 24M8 58L46 66M72 52L62 1M72 52L39 90M28 66L70 47M62 1L72 48M62 1L51 47M63 71L68 44M63 71L69 42M91 25L52 53M91 25L51 47M68 44L80 78M68 44L48 26M72 48L35 87M63 72L25 97M34 20L70 47M34 20L25 67M64 94L70 47M57 74L23 47M52 106L80 78M52 106L16 84M52 53L67 14M80 78L63 36M49 65L79 43M49 65L14 50M49 65L46 30M66 88L70 47M66 88L26 94M69 42L48 26M79 43L46 66M79 43L46 30M48 24L62 68M48 24L23 59M70 47L62 68M70 47L35 31M51 47L39 90M51 47L35 87M51 47L95 55M51 47L74 78M39 90L23 47M39 90L74 78M14 50L46 30M16 84L40 57M67 14L95 55M26 94L6 49M25 67L35 31M63 36L40 57M62 68L23 59M95 55L76 36M95 55L70 60M74 78L76 36M35 31L6 49M35 31L34 72M76 36L70 60M6 49L34 72" style="stroke:#ff0000;stroke-linecap:round"/>
<g fill="#333333">
<circle cx="2" cy="185" r="0.5">
<title>
hole:0
</title>
</circle>
<circle cx="3" cy="202" r="0.5">
<title>
hole:1
</title>
</circle>
<circle cx="7" cy="225" r="0.5">
<title>
hole:2
</title>
</circle>
<circle cx="34" cy="234" r="0.5">
<title>
hole:3
</title>
</circle>
<circle cx="63" cy="252" r="0.5">
<title>
hole:4
</title>
</circle>
<circle cx="79" cy="212" r="0.5">
<title>
hole:5
</title>
</circle>
<circle cx="76" cy="248" r="0.5">
<title>
hole:6
</title>
</circle>
<circle cx="88" cy="261" r="0.5">
<title>
hole:7
</title>
</circle>
<circle cx="121" cy="262" r="0.5">
<title>
hole:8
</title>
</circle>
<circle cx="147" cy="284" r="0.5">
<title>
hole:9
</title>
</circle>
<circle cx="128" cy="303" r="0.5">
<title>
hole:10
</title>
</circle>
<circle cx="107" cy="313" r="0.5">
<title>
hole:11
</title>
</circle>
<circle cx="86" cy="340" r="0.5">
<title>
hole:12
</title>
</circle>
<circle cx="123" cy="368" r="0.5">
<title>
hole:13
</title>
</circle>
<circle cx="150" cy="356" r="0.5">
<title>
hole:14
</title>
</circle>
<circle cx="171" cy="398" r="0.5">
<title>
hole:15
</title>
</circle>
<circle cx="134" cy="386" r="0.5">
<title>
hole:16
</title>
</circle>
<circle cx="86" cy="376" r="0.5">
<title>
hole:17
</title>
</circle>
<circle cx="87" cy="356" r="0.5">
<title>
hole:18
</title>
</circle>
<circle cx="63" cy="348" r="0.5">
<title>
hole:19
</title>
</circle>
<circle cx="62" cy="370" r="0.5">
<title>
hole:20
</title>
</circle>
<circle cx="40" cy="399" r="0.5">
<title>
hole:21
</title>
</circle>
<circle cx="65" cy="419" r="0.5">
<title>
hole:22
</title>
</circle>
<circle cx="70" cy="452" r="0.5">
<title>
hole:23
</title>
</circle>
<circle cx="91" cy="486" r="0.5">
<title>
hole:24
</title>
</circle>
<circle cx="105" cy="464" r="0.5">
<title>
hole:25
</title>
</circle>
<circle cx="96" cy="436" r="0.5">
<title>
hole:26
</title>
</circle>
<circle cx="100" cy="441" r="0.5">
<title>
hole:27
</title>
</circle>
<circle cx="119" cy="465" r="0.5">
<title>
hole:28
</title>
</circle>
<circle cx="145" cy="448" r="0.5">
<title>
hole:29
</title>
</circle>
<circle cx="163" cy="458" r="0.5">
<title>
hole:30
</title>
</circle>
<circle cx="165" cy="485" r="0.5">
<title>
hole:31
</title>
</circle>
<circle cx="167" cy="532" r="0.5">
<title>
hole:32
</title>
</circle>
<circle cx="206" cy="529" r="0.5">
<title>
hole:33
</title>
</circle>
<circle cx="170" cy="565" r="0.5">
<title>
hole:34
</title>
</circle>
<circle cx="119" cy="591" r="0.5">
<title>
hole:35
</title>
</circle>
<circle cx="147" cy="639" r="0.5">
<title>
hole:36
</title>
</circle>
<circle cx="199" cy="617" r="0.5">
<title>
hole:37
</title>
</circle>
<circle cx="216" cy="659" r="0.5">
<title>
hole:38
</title>
</circle>
<circle cx="268" cy="647" r="0.5">
<title>
hole:39
</title>
</circle>
<circle cx="246" cy="595" r="0.5">
<title>
hole:40
</title>
</circle>
<circle cx="251" cy="551" r="0.5">
<title>
hole:41
</title>
</circle>
<circle cx="269" cy="598" r="0.5">
<title>
hole:42
</title>
</circle>
<circle cx="298" cy="553" r="0.5">
<title>
hole:43
</title>
</circle>
<circle cx="343" cy="557" r="0.5">
<title>
hole:44
</title>
</circle>
<circle cx="355" cy="528" r="0.5">
<title>
hole:45
</title>
</circle>
<circle cx="334" cy="498" r="0.5">
<title>
hole:46
</title>
</circle>
<circle cx="312" cy="489" r="0.5">
<title>
hole:47
</title>
</circle>
<circle cx="282" cy="491" r="0.5">
<title>
hole:48
</title>
</circle>
<circle cx="272" cy="475" r="0.5">
<title>
hole:49
</title>
</circle>
<circle cx="271" cy="468" r="0.5">
<title>
hole:50
</title>
</circle>
<circle cx="294" cy="432" r="0.5">
<title>
hole:51
</title>
</circle>
<circle cx="340" cy="421" r="0.5">
<title>
hole:52
</title>
</circle>
<circle cx="363" cy="392" r="0.5">
<title>
hole:53
</title>
</circle>
<circle cx="404" cy="389" r="0.5">
<title>
hole:54
</title>
</circle>
<circle cx="379" cy="362" r="0.5">
<title>
hole:55
</title>
</circle>
<circle cx="340" cy="331" r="0.5">
<title>
hole:56
</title>
</circle>
<circle cx="316" cy="349" r="0.5">
<title>
hole:57
</title>
</circle>
<circle cx="313" cy="343" r="0.5">
<title>
hole:58
</title>
</circle>
<circle cx="338" cy="317" r="0.5">
<title>
hole:59
</title>
</circle>
<circle cx="329" cy="251" r="0.5">
<title>
hole:60
</title>
</circle>
<circle cx="359" cy="229" r="0.5">
<title>
hole:61
</title>
</circle>
<circle cx="375" cy="190" r="0.5">
<title>
hole:62
</title>
</circle>
<circle cx="380" cy="165" r="0.5">
<title>
hole:63
</title>
</circle>
<circle cx="355" cy="172" r="0.5">
<title>
hole:64
</title>
</circle>
<circle cx="335" cy="127" r="0.5">
<title>
hole:65
</title>
</circle>
<circle cx="297" cy="145" r="0.5">
<title>
hole:66
</title>
</circle>
<circle cx="287" cy="149" r="0.5">
<title>
hole:67
</title>
</circle>
<circle cx="281" cy="196" r="0.5">
<title>
hole:68
</title>
</circle>
<circle cx="279" cy="247" r="0.5">
<title>
hole:69
</title>
</circle>
<circle cx="259" cy="252" r="0.5">
<title>
hole:70
</title>
</circle>
<circle cx="224" cy="262" r="0.5">
<title>
hole:71
</title>
</circle>
<circle cx="209" cy="253" r="0.5">
<title>
hole:72
</title>
</circle>
<circle cx="182" cy="237" r="0.5">
<title>
hole:73
</title>
</circle>
<circle cx="150" cy="236" r="0.5">
<title>
hole:74
</title>
</circle>
<circle cx="194" cy="223" r="0.5">
<title>
hole:75
</title>
</circle>
<circle cx="199" cy="211" r="0.5">
<title>
hole:76
</title>
</circle>
<circle cx="195" cy="204" r="0.5">
<title>
hole:77
</title>
</circle>
<circle cx="171" cy="183" r="0.5">
<title>
hole:78
</title>
</circle>
<circle cx="145" cy="176" r="0.5">
<title>
hole:79
</title>
</circle>
<circle cx="151" cy="132" r="0.5">
<title>
hole:80
</title>
</circle>
<circle cx="181" cy="154" r="0.5">
<title>
hole:81
</title>
</circle>
<circle cx="218" cy="180" r="0.5">
<title>
hole:82
</title>
</circle>
<circle cx="223" cy="135" r="0.5">
<title>
hole:83
</title>
</circle>
<circle cx="265" cy="144" r="0.5">
<title>
hole:84
</title>
</circle>
<circle cx="256" cy="110" r="0.5">
<title>
hole:85
</title>
</circle>
<circle cx="250" cy="57" r="0.5">
<title>
hole:86
</title>
</circle>
<circle cx="211" cy="94" r="0.5">
<title>
hole:87
</title>
</circle>
<circle cx="167" cy="91" r="0.5">
<title>
hole:88
</title>
</circle>
<circle cx="179" cy="59" r="0.5">
<title>
hole:89
</title>
</circle>
<circle cx="159" cy="33" r="0.5">
<title>
hole:90
</title>
</circle>
<circle cx="191" cy="29" r="0.5">
<title>
hole:91
</title>
</circle>
<circle cx="192" cy="8" r="0.5">
<title>
hole:92
</title>
</circle>
<circle cx="158" cy="0" r="0.5">
<title>
hole:93
</title>
</circle>
<circle cx="125" cy="9" r="0.5">
<title>
hole:94
</title>
</circle>
<circle cx="126" cy="35" r="0.5">
<title>
hole:95
</title>
</circle>
<circle cx="79" cy="39" r="0.5">
<title>
hole:96
</title>
</circle>
<circle cx="78" cy="85" r="0.5">
<title>
hole:97
</title>
</circle>
<circle cx="125" cy="84" r="0.5">
<title>
hole:98
</title>
</circle>
<circle cx="114" cy="116" r="0.5">
<title>
hole:99
</title>
</circle>
<circle cx="90" cy="140" r="0.5">
<title>
hole:100
</title>
</circle>
<circle cx="85" cy="148" r="0.5">
<title>
hole:101
</title>
</circle>
<circle cx="79" cy="102" r="0.5">
<title>
hole:102
</title>
</circle>
<circle cx="65" cy="55" r="0.5">
<title>
hole:103
</title>
</circle>
<circle cx="20" cy="67" r="0.5">
<title>
hole:104
</title>
</circle>
<circle cx="31" cy="114" r="0.5">
<title>
hole:105
</title>
</circle>
<circle cx="39" cy="158" r="0.5">
<title>
hole:106
</title>
</circle>
<circle cx="9" cy="163" r="0.5">
<title>
hole:107
</title>
</circle>
</g>
<g fill="#999999">
<circle cx="104" cy="55" i="0" r="0.5" tabindex="0">
<title>
v:0
</title>
</circle>
<circle cx="58" cy="52" i="1" r="0.5" tabindex="1">
<title>
v:1
</title>
</circle>
<circle cx="81" cy="22" i="2" r="0.5" tabindex="2">
<title>
v:2
</title>
</circle>
<circle cx="84" cy="82" i="3" r="0.5" tabindex="3">
<title>
v:3
</title>
</circle>
<circle cx="106" cy="71" i="4" r="0.5" tabindex="4">
<title>
v:4
</title>
</circle>
<circle cx="59" cy="78" i="5" r="0.5" tabindex="5">
<title>
v:5
</title>
</circle>
<circle cx="85" cy="51" i="6" r="0.5" tabindex="6">
<title>
v:6
</title>
</circle>
<circle cx="96" cy="54" i="7" r="0.5" tabindex="7">
<title>
v:7
</title>
</circle>
<circle cx="62" cy="85" i="8" r="0.5" tabindex="8">
<title>
v:8
</title>
</circle>
<circle cx="77" cy="88" i="9" r="0.5" tabindex="9">
<title>
v:9
</title>
</circle>
<circle cx="52" cy="50" i="10" r="0.5" tabindex="10">
<title>
v:10
</title>
</circle>
<circle cx="56" cy="32" i="11" r="0.5" tabindex="11">
<title>
v:11
</title>
</circle>
<circle cx="66" cy="33" i="12" r="0.5" tabindex="12">
<title>
v:12
</title>
</circle>
<circle cx="60" cy="75" i="13" r="0.5" tabindex="13">
<title>
v:13
</title>
</circle>
<circle cx="35" cy="68" i="14" r="0.5" tabindex="14">
<title>
v:14
</title>
</circle>
<circle cx="3" cy="59" i="15" r="0.5" tabindex="15">
<title>
v:15
</title>
</circle>
<circle cx="8" cy="58" i="16" r="0.5" tabindex="16">
<title>
v:16
</title>
</circle>
<circle cx="52" cy="36" i="17" r="0.5" tabindex="17">
<title>
v:17
</title>
</circle>
<circle cx="96" cy="21" i="18" r="0.5" tabindex="18">
<title>
v:18
</title>
</circle>
<circle cx="18" cy="50" i="19" r="0.5" tabindex="19">
<title>
v:19
</title>
</circle>
<circle cx="41" cy="72" i="20" r="0.5" tabindex="20">
<title>
v:20
</title>
</circle>
<circle cx="45" cy="18" i="21" r="0.5" tabindex="21">
<title>
v:21
</title>
</circle>
<circle cx="58" cy="27" i="22" r="0.5" tabindex="22">
<title>
v:22
</title>
</circle>
<circle cx="38" cy="0" i="23" r="0.5" tabindex="23">
<title>
v:23
</title>
</circle>
<circle cx="28" cy="55" i="24" r="0.5" tabindex="24">
<title>
v:24
</title>
</circle>
<circle cx="30" cy="54" i="25" r="0.5" tabindex="25">
<title>
v:25
</title>
</circle>
<circle cx="42" cy="40" i="26" r="0.5" tabindex="26">
<title>
v:26
</title>
</circle>
<circle cx="2" cy="42" i="27" r="0.5" tabindex="27">
<title>
v:27
</title>
</circle>
<circle cx="53" cy="42" i="28" r="0.5" tabindex="28">
<title>
v:28
</title>
</circle>
<circle cx="45" cy="44" i="29" r="0.5" tabindex="29">
<title>
v:29
</title>
</circle>
<circle cx="41" cy="71" i="30" r="0.5" tabindex="30">
<title>
v:30
</title>
</circle>
<circle cx="3" cy="64" i="31" r="0.5" tabindex="31">
<title>
v:31
</title>
</circle>
<circle cx="21" cy="35" i="32" r="0.5" tabindex="32">
<title>
v:32
</title>
</circle>
<circle cx="69" cy="62" i="33" r="0.5" tabindex="33">
<title>
v:33
</title>
</circle>
<circle cx="68" cy="55" i="34" r="0.5" tabindex="34">
<title>
v:34
</title>
</circle>
<circle cx="35" cy="42" i="35" r="0.5" tabindex="35">
<title>
v:35
</title>
</circle>
<circle cx="78" cy="62" i="36" r="0.5" tabindex="36">
<title>
v:36
</title>
</circle>
<circle cx="49" cy="46" i="37" r="0.5" tabindex="37">
<title>
v:37
</title>
</circle>
<circle cx="24" cy="35" i="38" r="0.5" tabindex="38">
<title>
v:38
</title>
</circle>
<circle cx="9" cy="18" i="39" r="0.5" tabindex="39">
<title>
v:39
</title>
</circle>
<circle cx="80" cy="64" i="40" r="0.5" tabindex="40">
<title>
v:40
</title>
</circle>
<circle cx="55" cy="75" i="41" r="0.5" tabindex="41">
<title>
v:41
</title>
</circle>
<circle cx="90" cy="75" i="42" r="0.5" tabindex="42">
<title>
v:42
</title>
</circle>
<circle cx="52" cy="40" i="43" r="0.5" tabindex="43">
<title>
v:43
</title>
</circle>
<circle cx="16" cy="71" i="44" r="0.5" tabindex="44">
<title>
v:44
</title>
</circle>
<circle cx="39" cy="58" i="45" r="0.5" tabindex="45">
<title>
v:45
</title>
</circle>
<circle cx="65" cy="35" i="46" r="0.5" tabindex="46">
<title>
v:46
</title>
</circle>
<circle cx="70" cy="34" i="47" r="0.5" tabindex="47">
<title>
v:47
</title>
</circle>
<circle cx="47" cy="60" i="48" r="0.5" tabindex="48">
<title>
v:48
</title>
</circle>
<circle cx="39" cy="58" i="49" r="0.5" tabindex="49">
<title>
v:49
</title>
</circle>
<circle cx="99" cy="36" i="50" r="0.5" tabindex="50">
<title>
v:50
</title>
</circle>
<circle cx="50" cy="34" i="51" r="0.5" tabindex="51">
<title>
v:51
</title>
</circle>
<circle cx="73" cy="30" i="52" r="0.5" tabindex="52">
<title>
v:52
</title>
</circle>
<circle cx="48" cy="57" i="53" r="0.5" tabindex="53">
<title>
v:53
</title>
</circle>
<circle cx="35" cy="96" i="54" r="0.5" tabindex="54">
<title>
v:54
</title>
</circle>
<circle cx="27" cy="62" i="55" r="0.5" tabindex="55">
<title>
v:55
</title>
</circle>
<circle cx="84" cy="66" i="56" r="0.5" tabindex="56">
<title>
v:56
</title>
</circle>
<circle cx="98" cy="45" i="57" r="0.5" tabindex="57">
<title>
v:57
</title>
</circle>
<circle cx="47" cy="36" i="58" r="0.5" tabindex="58">
<title>
v:58
</title>
</circle>
<circle cx="61" cy="58" i="59" r="0.5" tabindex="59">
<title>
v:59
</title>
</circle>
<circle cx="72" cy="50" i="60" r="0.5" tabindex="60">
<title>
v:60
</title>
</circle>
<circle cx="48" cy="83" i="61" r="0.5" tabindex="61">
<title>
v:61
</title>
</circle>
<circle cx="28" cy="54" i="62" r="0.5" tabindex="62">
<title>
v:62
</title>
</circle>
<circle cx="73" cy="91" i="63" r="0.5" tabindex="63">
<title>
v:63
</title>
</circle>
<circle cx="55" cy="73" i="64" r="0.5" tabindex="64">
<title>
v:64
</title>
</circle>
<circle cx="43" cy="21" i="65" r="0.5" tabindex="65">
<title>
v:65
</title>
</circle>
<circle cx="43" cy="80" i="66" r="0.5" tabindex="66">
<title>
v:66
</title>
</circle>
<circle cx="73" cy="67" i="67" r="0.5" tabindex="67">
<title>
v:67
</title>
</circle>
<circle cx="56" cy="74" i="68" r="0.5" tabindex="68">
<title>
v:68
</title>
</circle>
<circle cx="62" cy="83" i="69" r="0.5" tabindex="69">
<title>
v:69
</title>
</circle>
<circle cx="35" cy="64" i="70" r="0.5" tabindex="70">
<title>
v:70
</title>
</circle>
<circle cx="42" cy="55" i="71" r="0.5" tabindex="71">
<title>
v:71
</title>
</circle>
<circle cx="93" cy="52" i="72" r="0.5" tabindex="72">
<title>
v:72
</title>
</circle>
<circle cx="62" cy="84" i="73" r="0.5" tabindex="73">
<title>
v:73
</title>
</circle>
<circle cx="57" cy="39" i="74" r="0.5" tabindex="74">
<title>
v:74
</title>
</circle>
<circle cx="17" cy="72" i="75" r="0.5" tabindex="75">
<title>
v:75
</title>
</circle>
<circle cx="76" cy="92" i="76" r="0.5" tabindex="76">
<title>
v:76
</title>
</circle>
<circle cx="54" cy="67" i="77" r="0.5" tabindex="77">
<title>
v:77
</title>
</circle>
<circle cx="71" cy="59" i="78" r="0.5" tabindex="78">
<title>
v:78
</title>
</circle>
<circle cx="67" cy="49" i="79" r="0.5" tabindex="79">
<title>
v:79
</title>
</circle>
<circle cx="58" cy="65" i="80" r="0.5" tabindex="80">
<title>
v:80
</title>
</circle>
<circle cx="36" cy="20" i="81" r="0.5" tabindex="81">
<title>
v:81
</title>
</circle>
<circle cx="89" cy="81" i="82" r="0.5" tabindex="82">
<title>
v:82
</title>
</circle>
<circle cx="67" cy="71" i="83" r="0.5" tabindex="83">
<title>
v:83
</title>
</circle>
<circle cx="38" cy="50" i="84" r="0.5" tabindex="84">
<title>
v:84
</title>
</circle>
<circle cx="63" cy="55" i="85" r="0.5" tabindex="85">
<title>
v:85
</title>
</circle>
<circle cx="37" cy="72" i="86" r="0.5" tabindex="86">
<title>
v:86
</title>
</circle>
<circle cx="31" cy="41" i="87" r="0.5" tabindex="87">
<title>
v:87
</title>
</circle>
<circle cx="80" cy="79" i="88" r="0.5" tabindex="88">
<title>
v:88
</title>
</circle>
<circle cx="60" cy="58" i="89" r="0.5" tabindex="89">
<title>
v:89
</title>
</circle>
<circle cx="60" cy="19" i="90" r="0.5" tabindex="90">
<title>
v:90
</title>
</circle>
<circle cx="74" cy="47" i="91" r="0.5" tabindex="91">
<title>
v:91
</title>
</circle>
<circle cx="54" cy="50" i="92" r="0.5" tabindex="92">
<title>
v:92
</title>
</circle>
<circle cx="82" cy="69" i="93" r="0.5" tabindex="93">
<title>
v:93
</title>
</circle>
<circle cx="83" cy="106" i="94" r="0.5" tabindex="94">
<title>
v:94
</title>
</circle>
<circle cx="82" cy="49" i="95" r="0.5" tabindex="95">
<title>
v:95
</title>
</circle>
<circle cx="82" cy="39" i="96" r="0.5" tabindex="96">
<title>
v:96
</title>
</circle>
<circle cx="51" cy="87" i="97" r="0.5" tabindex="97">
<title>
v:97
</title>
</circle>
<circle cx="76" cy="41" i="98" r="0.5" tabindex="98">
<title>
v:98
</title>
</circle>
<circle cx="67" cy="65" i="99" r="0.5" tabindex="99">
<title>
v:99
</title>
</circle>
<circle cx="54" cy="49" i="100" r="0.5" tabindex="100">
<title>
v:100
</title>
</circle>
<circle cx="30" cy="27" i="101" r="0.5" tabindex="101">
<title>
v:101
</title>
</circle>
<circle cx="60" cy="61" i="102" r="0.5" tabindex="102">
<title>
v:102
</title>
</circle>
<circle cx="65" cy="47" i="103" r="0.5" tabindex="103">
<title>
v:103
</title>
</circle>
<circle cx="33" cy="56" i="104" r="0.5" tabindex="104">
<title>
v:104
</title>
</circle>
<circle cx="74" cy="63" i="105" r="0.5" tabindex="105">
<title>
v:105
</title>
</circle>
<circle cx="75" cy="55" i="106" r="0.5" tabindex="106">
<title>
v:106
</title>
</circle>
<circle cx="22" cy="66" i="107" r="0.5" tabindex="107">
<title>
v:107
</title>
</circle>
<circle cx="57" cy="20" i="108" r="0.5" tabindex="108">
<title>
v:108
</title>
</circle>
<circle cx="42" cy="43" i="109" r="0.5" tabindex="109">
<title>
v:109
</title>
</circle>
<circle cx="47" cy="59" i="110" r="0.5" tabindex="110">
<title>
v:110
</title>
</circle>
<circle cx="52" cy="32" i="111" r="0.5" tabindex="111">
<title>
v:111
</title>
</circle>
<circle cx="87" cy="52" i="112" r="0.5" tabindex="112">
<title>
v:112
</title>
</circle>
<circle cx="55" cy="45" i="113" r="0.5" tabindex="113">
<title>
v:113
</title>
</circle>
<circle cx="73" cy="31" i="114" r="0.5" tabindex="114">
<title>
v:114
</title>
</circle>
<circle cx="51" cy="71" i="115" r="0.5" tabindex="115">
<title>
v:115
</title>
</circle>
<circle cx="57" cy="21" i="116" r="0.5" tabindex="116">
<title>
v:116
</title>
</circle>
<circle cx="65" cy="54" i="117" r="0.5" tabindex="117">
<title>
v:117
</title>
</circle>
<circle cx="75" cy="79" i="118" r="0.5" tabindex="118">
<title>
v:118
</title>
</circle>
<circle cx="25" cy="61" i="119" r="0.5" tabindex="119">
<title>
v:119
</title>
</circle>
<circle cx="28" cy="58" i="120" r="0.5" tabindex="120">
<title>
v:120
</title>
</circle>
<circle cx="52" cy="45" i="121" r="0.5" tabindex="121">
<title>
v:121
</title>
</circle>
<circle cx="90" cy="91" i="122" r="0.5" tabindex="122">
<title>
v:122
</title>
</circle>
<circle cx="82" cy="65" i="123" r="0.5" tabindex="123">
<title>
v:123
</title>
</circle>
<circle cx="52" cy="39" i="124" r="0.5" tabindex="124">
<title>
v:124
</title>
</circle>
<circle cx="67" cy="64" i="125" r="0.5" tabindex="125">
<title>
v:125
</title>
</circle>
<circle cx="97" cy="37" i="126" r="0.5" tabindex="126">
<title>
v:126
</title>
</circle>
<circle cx="63" cy="55" i="127" r="0.5" tabindex="127">
<title>
v:127
</title>
</circle>
<circle cx="46" cy="51" i="128" r="0.5" tabindex="128">
<title>
v:128
</title>
</circle>
<circle cx="58" cy="25" i="129" r="0.5" tabindex="129">
<title>
v:129
</title>
</circle>
<circle cx="47" cy="54" i="130" r="0.5" tabindex="130">
<title>
v:130
</title>
</circle>
<circle cx="75" cy="5" i="131" r="0.5" tabindex="131">
<title>
v:131
</title>
</circle>
<circle cx="36" cy="4" i="132" r="0.5" tabindex="132">
<title>
v:132
</title>
</circle>
<circle cx="66" cy="59" i="133" r="0.5" tabindex="133">
<title>
v:133
</title>
</circle>
<circle cx="52" cy="43" i="134" r="0.5" tabindex="134">
<title>
v:134
</title>
</circle>
<circle cx="57" cy="39" i="135" r="0.5" tabindex="135">
<title>
v:135
</title>
</circle>
<circle cx="50" cy="81" i="136" r="0.5" tabindex="136">
<title>
v:136
</title>
</circle>
<circle cx="57" cy="86" i="137" r="0.5" tabindex="137">
<title>
v:137
</title>
</circle>
<circle cx="52" cy="59" i="138" r="0.5" tabindex="138">
<title>
v:138
</title>
</circle>
<circle cx="70" cy="47" i="139" r="0.5" tabindex="139">
<title>
v:139
</title>
</circle>
<circle cx="87" cy="38" i="140" r="0.5" tabindex="140">
<title>
v:140
</title>
</circle>
<circle cx="23" cy="89" i="141" r="0.5" tabindex="141">
<title>
v:141
</title>
</circle>
<circle cx="45" cy="79" i="142" r="0.5" tabindex="142">
<title>
v:142
</title>
</circle>
<circle cx="58" cy="58" i="143" r="0.5" tabindex="143">
<title>
v:143
</title>
</circle>
<circle cx="40" cy="27" i="144" r="0.5" tabindex="144">
<title>
v:144
</title>
</circle>
<circle cx="47" cy="33" i="145" r="0.5" tabindex="145">
<title>
v:145
</title>
</circle>
<circle cx="78" cy="49" i="146" r="0.5" tabindex="146">
<title>
v:146
</title>
</circle>
<circle cx="63" cy="52" i="147" r="0.5" tabindex="147">
<title>
v:147
</title>
</circle>
<circle cx="72" cy="78" i="148" r="0.5" tabindex="148">
<title>
v:148
</title>
</circle>
<circle cx="58" cy="75" i="149" r="0.5" tabindex="149">
<title>
v:149
</title>
</circle>
<circle cx="64" cy="71" i="150" r="0.5" tabindex="150">
<title>
v:150
</title>
</circle>
<circle cx="81" cy="51" i="151" r="0.5" tabindex="151">
<title>
v:151
</title>
</circle>
<circle cx="36" cy="42" i="152" r="0.5" tabindex="152">
<title>
v:152
</title>
</circle>
<circle cx="74" cy="71" i="153" r="0.5" tabindex="153">
<title>
v:153
</title>
</circle>
<circle cx="52" cy="80" i="154" r="0.5" tabindex="154">
<title>
v:154
</title>
</circle>
<circle cx="50" cy="31" i="155" r="0.5" tabindex="155">
<title>
v:155
</title>
</circle>
<circle cx="54" cy="29" i="156" r="0.5" tabindex="156">
<title>
v:156
</title>
</circle>
<circle cx="66" cy="64" i="157" r="0.5" tabindex="157">
<title>
v:157
</title>
</circle>
<circle cx="35" cy="91" i="158" r="0.5" tabindex="158">
<title>
v:158
</title>
</circle>
<circle cx="73" cy="52" i="159" r="0.5" tabindex="159">
<title>
v:159
</title>
</circle>
<circle cx="27" cy="75" i="160" r="0.5" tabindex="160">
<title>
v:160
</title>
</circle>
<circle cx="38" cy="41" i="161" r="0.5" tabindex="161">
<title>
v:161
</title>
</circle>
<circle cx="21" cy="85" i="162" r="0.5" tabindex="162">
<title>
v:162
</title>
</circle>
<circle cx="32" cy="83" i="163" r="0.5" tabindex="163">
<title>
v:163
</title>
</circle>
<circle cx="52" cy="64" i="164" r="0.5" tabindex="164">
<title>
v:164
</title>
</circle>
<circle cx="25" cy="59" i="165" r="0.5" tabindex="165">
<title>
v:165
</title>
</circle>
<circle cx="15" cy="49" i="166" r="0.5" tabindex="166">
<title>
v:166
</title>
</circle>
<circle cx="72" cy="87" i="167" r="0.5" tabindex="167">
<title>
v:167
</title>
</circle>
<circle cx="61" cy="85" i="168" r="0.5" tabindex="168">
<title>
v:168
</title>
</circle>
<circle cx="100" cy="76" i="169" r="0.5" tabindex="169">
<title>
v:169
</title>
</circle>
<circle cx="97" cy="19" i="170" r="0.5" tabindex="170">
<title>
v:170
</title>
</circle>
<circle cx="29" cy="50" i="171" r="0.5" tabindex="171">
<title>
v:171
</title>
</circle>
<circle cx="41" cy="41" i="172" r="0.5" tabindex="172">
<title>
v:172
</title>
</circle>
<circle cx="53" cy="53" i="173" r="0.5" tabindex="173">
<title>
v:173
</title>
</circle>
<circle cx="43" cy="83" i="174" r="0.5" tabindex="174">
<title>
v:174
</title>
</circle>
<circle cx="34" cy="75" i="175" r="0.5" tabindex="175">
<title>
v:175
</title>
</circle>
<circle cx="78" cy="61" i="176" r="0.5" tabindex="176">
<title>
v:176
</title>
</circle>
<circle cx="62" cy="39" i="177" r="0.5" tabindex="177">
<title>
v:177
</title>
</circle>
<circle cx="42" cy="40" i="178" r="0.5" tabindex="178">
<title>
v:178
</title>
</circle>
<circle cx="8" cy="58" i="179" r="0.5" tabindex="179">
<title>
v:179
</title>
</circle>
<circle cx="72" cy="52" i="180" r="0.5" tabindex="180">
<title>
v:180
</title>
</circle>
<circle cx="28" cy="66" i="181" r="0.5" tabindex="181">
<title>
v:181
</title>
</circle>
<circle cx="62" cy="1" i="182" r="0.5" tabindex="182">
<title>
v:182
</title>
</circle>
<circle cx="63" cy="71" i="183" r="0.5" tabindex="183">
<title>
v:183
</title>
</circle>
<circle cx="91" cy="25" i="184" r="0.5" tabindex="184">
<title>
v:184
</title>
</circle>
<circle cx="68" cy="44" i="185" r="0.5" tabindex="185">
<title>
v:185
</title>
</circle>
<circle cx="72" cy="48" i="186" r="0.5" tabindex="186">
<title>
v:186
</title>
</circle>
<circle cx="63" cy="72" i="187" r="0.5" tabindex="187">
<title>
v:187
</title>
</circle>
<circle cx="34" cy="20" i="188" r="0.5" tabindex="188">
<title>
v:188
</title>
</circle>
<circle cx="64" cy="94" i="189" r="0.5" tabindex="189">
<title>
v:189
</title>
</circle>
<circle cx="57" cy="74" i="190" r="0.5" tabindex="190">
<title>
v:190
</title>
</circle>
<circle cx="52" cy="106" i="191" r="0.5" tabindex="191">
<title>
v:191
</title>
</circle>
<circle cx="52" cy="53" i="192" r="0.5" tabindex="192">
<title>
v:192
</title>
</circle>
<circle cx="80" cy="78" i="193" r="0.5" tabindex="193">
<title>
v:193
</title>
</circle>
<circle cx="49" cy="65" i="194" r="0.5" tabindex="194">
<title>
v:194
</title>
</circle>
<circle cx="25" cy="97" i="195" r="0.5" tabindex="195">
<title>
v:195
</title>
</circle>
<circle cx="66" cy="88" i="196" r="0.5" tabindex="196">
<title>
v:196
</title>
</circle>
<circle cx="69" cy="42" i="197" r="0.5" tabindex="197">
<title>
v:197
</title>
</circle>
<circle cx="79" cy="43" i="198" r="0.5" tabindex="198">
<title>
v:198
</title>
</circle>
<circle cx="48" cy="26" i="199" r="0.5" tabindex="199">
<title>
v:199
</title>
</circle>
<circle cx="48" cy="24" i="200" r="0.5" tabindex="200">
<title>
v:200
</title>
</circle>
<circle cx="46" cy="66" i="201" r="0.5" tabindex="201">
<title>
v:201
</title>
</circle>
<circle cx="70" cy="47" i="202" r="0.5" tabindex="202">
<title>
v:202
</title>
</circle>
<circle cx="51" cy="47" i="203" r="0.5" tabindex="203">
<title>
v:203
</title>
</circle>
<circle cx="39" cy="90" i="204" r="0.5" tabindex="204">
<title>
v:204
</title>
</circle>
<circle cx="14" cy="50" i="205" r="0.5" tabindex="205">
<title>
v:205
</title>
</circle>
<circle cx="23" cy="47" i="206" r="0.5" tabindex="206">
<title>
v:206
</title>
</circle>
<circle cx="16" cy="84" i="207" r="0.5" tabindex="207">
<title>
v:207
</title>
</circle>
<circle cx="67" cy="14" i="208" r="0.5" tabindex="208">
<title>
v:208
</title>
</circle>
<circle cx="35" cy="87" i="209" r="0.5" tabindex="209">
<title>
v:209
</title>
</circle>
<circle cx="46" cy="30" i="210" r="0.5" tabindex="210">
<title>
v:210
</title>
</circle>
<circle cx="26" cy="94" i="211" r="0.5" tabindex="211">
<title>
v:211
</title>
</circle>
<circle cx="25" cy="67" i="212" r="0.5" tabindex="212">
<title>
v:212
</title>
</circle>
<circle cx="63" cy="36" i="213" r="0.5" tabindex="213">
<title>
v:213
</title>
</circle>
<circle cx="62" cy="68" i="214" r="0.5" tabindex="214">
<title>
v:214
</title>
</circle>
<circle cx="95" cy="55" i="215" r="0.5" tabindex="215">
<title>
v:215
</title>
</circle>
<circle cx="40" cy="57" i="216" r="0.5" tabindex="216">
<title>
v:216
</title>
</circle>
<circle cx="74" cy="78" i="217" r="0.5" tabindex="217">
<title>
v:217
</title>
</circle>
<circle cx="23" cy="59" i="218" r="0.5" tabindex="218">
<title>
v:218
</title>
</circle>
<circle cx="35" cy="31" i="219" r="0.5" tabindex="219">
<title>
v:219
</title>
</circle>
<circle cx="76" cy="36" i="220" r="0.5" tabindex="220">
<title>
v:220
</title>
</circle>
<circle cx="6" cy="49" i="221" r="0.5" tabindex="221">
<title>
v:221
</title>
</circle>
<circle cx="70" cy="60" i="222" r="0.5" tabindex="222">
<title>
v:222
</title>
</circle>
<circle cx="34" cy="72" i="223" r="0.5" tabindex="223">
<title>
v:223
</title>
</circle>
</g>
</svg>