<svg height="500" viewBox="0 -2 261 200" width="500" xmlns="http://www.w3.org/2000/svg">
<path class="hole" d="M2 0L2 34L7 70L26 99L10 163L54 188L56 139L74 84L128 196L141 123L178 122L222 116L257 92L254 46L252 0L202 39L173 89L157 29L126 0L99 20L73 0L39 6M0 -2L261 -2L261 198L0 198" style="fill:#00000066;fill-rule:evenodd;"/>
<circle cx="131" cy="69" fill="#ffff0066" r="5">
<title>
SuperFlex@117
</title>
</circle>
<circle cx="110" cy="156" fill="#ffff0066" r="5">
<title>
Globalist@120
</title>
</circle>
<circle cx="98" cy="117" fill="#ffff0066" r="5">
<title>
BreakALeg@89
</title>
</circle>
<path class="ok" d="M25 151L47 138M38 112L47 138M41 28L53 56M41 28L70 23M53 56L77 49M62 70L77 49M62 70L81 86M70 23L77 49M70 23L96 29M77 49L96 29M77 49L99 64M78 92L112 86M81 86L99 64M81 86L111 90M96 29L114 43M99 64L111 90M99 64L112 86M99 64L114 43M109 136L126 162M109 136L129 113M112 86L129 113M112 86L134 63M114 43L134 23M114 43L134 63M127 144L129 113M129 113L158 104M134 23L154 43M134 63L152 32M134 63L154 43M134 63L165 78M158 104L165 78M158 104L181 119M164 56L165 78M181 119L205 101M188 73L205 101M188 73L215 60M192 71L215 60M205 101L234 82M215 60L230 35M215 60L234 82" style="stroke:#0000ff;stroke-linecap:round"/>
<path class="out" d="M2 137L15 106M2 137L25 151M15 106L38 112M25 151L28 177M28 177L59 182M41 28L51 0M47 138L67 157M47 138L77 127M51 0L70 23M59 182L67 157M67 157L74 196M67 157L77 127M67 157L100 168M74 196L100 168M77 127L78 92M77 127L109 136M100 168L109 136M126 162L131 191M126 162L155 155M127 144L158 153M129 113L159 126M131 191L164 187M141 151L144 127M141 151L165 139M144 127L158 104M144 127L165 139M152 32L177 8M152 32L181 44M155 155L159 126M155 155L164 187M155 155L183 154M158 104L172 132M158 153L172 132M158 153L183 154M159 126L172 132M164 56L183 49M165 78L181 44M165 78L188 73M165 139L181 119M172 132L183 154M172 132L193 123M177 8L181 44M183 49L188 73M183 154L203 141M188 73L191 44M190 45L192 71M190 45L206 20M190 45L215 60M191 44L215 60M193 123L203 141M206 20L230 35M230 35L257 42M234 82L259 69M257 42L259 69" style="stroke:#ff0000;stroke-linecap:round"/>
<g fill="#333333">
<circle cx="2" cy="0" r="0.5">
<title>
hole:0
</title>
</circle>
<circle cx="2" cy="34" r="0.5">
<title>
hole:1
</title>
</circle>
<circle cx="7" cy="70" r="0.5">
<title>
hole:2
</title>
</circle>
<circle cx="26" cy="99" r="0.5">
<title>
hole:3
</title>
</circle>
<circle cx="10" cy="163" r="0.5">
<title>
hole:4
</title>
</circle>
<circle cx="54" cy="188" r="0.5">
<title>
hole:5
</title>
</circle>
<circle cx="56" cy="139" r="0.5">
<title>
hole:6
</title>
</circle>
<circle cx="74" cy="84" r="0.5">
<title>
hole:7
</title>
</circle>
<circle cx="128" cy="196" r="0.5">
<title>
hole:8
</title>
</circle>
<circle cx="141" cy="123" r="0.5">
<title>
hole:9
</title>
</circle>
<circle cx="178" cy="122" r="0.5">
<title>
hole:10
</title>
</circle>
<circle cx="222" cy="116" r="0.5">
<title>
hole:11
</title>
</circle>
<circle cx="257" cy="92" r="0.5">
<title>
hole:12
</title>
</circle>
<circle cx="254" cy="46" r="0.5">
<title>
hole:13
</title>
</circle>
<circle cx="252" cy="0" r="0.5">
<title>
hole:14
</title>
</circle>
<circle cx="202" cy="39" r="0.5">
<title>
hole:15
</title>
</circle>
<circle cx="173" cy="89" r="0.5">
<title>
hole:16
</title>
</circle>
<circle cx="157" cy="29" r="0.5">
<title>
hole:17
</title>
</circle>
<circle cx="126" cy="0" r="0.5">
<title>
hole:18
</title>
</circle>
<circle cx="99" cy="20" r="0.5">
<title>
hole:19
</title>
</circle>
<circle cx="73" cy="0" r="0.5">
<title>
hole:20
</title>
</circle>
<circle cx="39" cy="6" r="0.5">
<title>
hole:21
</title>
</circle>
</g>
<g fill="#999999">
<circle cx="2" cy="137" i="0" r="0.5" tabindex="0">
<title>
v:0
</title>
</circle>
<circle cx="15" cy="106" i="1" r="0.5" tabindex="1">
<title>
v:1
</title>
</circle>
<circle cx="25" cy="151" i="2" r="0.5" tabindex="2">
<title>
v:2
</title>
</circle>
<circle cx="28" cy="177" i="3" r="0.5" tabindex="3">
<title>
v:3
</title>
</circle>
<circle cx="38" cy="112" i="4" r="0.5" tabindex="4">
<title>
v:4
</title>
</circle>
<circle cx="41" cy="28" i="5" r="0.5" tabindex="5">
<title>
v:5
</title>
</circle>
<circle cx="47" cy="138" i="6" r="0.5" tabindex="6">
<title>
v:6
</title>
</circle>
<circle cx="51" cy="0" i="7" r="0.5" tabindex="7">
<title>
v:7
</title>
</circle>
<circle cx="53" cy="56" i="8" r="0.5" tabindex="8">
<title>
v:8
</title>
</circle>
<circle cx="59" cy="182" i="9" r="0.5" tabindex="9">
<title>
v:9
</title>
</circle>
<circle cx="62" cy="70" i="10" r="0.5" tabindex="10">
<title>
v:10
</title>
</circle>
<circle cx="67" cy="157" i="11" r="0.5" tabindex="11">
<title>
v:11
</title>
</circle>
<circle cx="70" cy="23" i="12" r="0.5" tabindex="12">
<title>
v:12
</title>
</circle>
<circle cx="74" cy="196" i="13" r="0.5" tabindex="13">
<title>
v:13
</title>
</circle>
<circle cx="77" cy="49" i="14" r="0.5" tabindex="14">
<title>
v:14
</title>
</circle>
<circle cx="77" cy="127" i="15" r="0.5" tabindex="15">
<title>
v:15
</title>
</circle>
<circle cx="78" cy="92" i="16" r="0.5" tabindex="16">
<title>
v:16
</title>
</circle>
<circle cx="81" cy="86" i="17" r="0.5" tabindex="17">
<title>
v:17
</title>
</circle>
<circle cx="96" cy="29" i="18" r="0.5" tabindex="18">
<title>
v:18
</title>
</circle>
<circle cx="99" cy="64" i="19" r="0.5" tabindex="19">
<title>
v:19
</title>
</circle>
<circle cx="100" cy="168" i="20" r="0.5" tabindex="20">
<title>
v:20
</title>
</circle>
<circle cx="109" cy="136" i="21" r="0.5" tabindex="21">
<title>
v:21
</title>
</circle>
<circle cx="111" cy="90" i="22" r="0.5" tabindex="22">
<title>
v:22
</title>
</circle>
<circle cx="112" cy="86" i="23" r="0.5" tabindex="23">
<title>
v:23
</title>
</circle>
<circle cx="114" cy="43" i="24" r="0.5" tabindex="24">
<title>
v:24
</title>
</circle>
<circle cx="126" cy="162" i="25" r="0.5" tabindex="25">
<title>
v:25
</title>
</circle>
<circle cx="127" cy="144" i="26" r="0.5" tabindex="26">
<title>
v:26
</title>
</circle>
<circle cx="129" cy="113" i="27" r="0.5" tabindex="27">
<title>
v:27
</title>
</circle>
<circle cx="131" cy="191" i="28" r="0.5" tabindex="28">
<title>
v:28
</title>
</circle>
<circle cx="134" cy="23" i="29" r="0.5" tabindex="29">
<title>
v:29
</title>
</circle>
<circle cx="134" cy="63" i="30" r="0.5" tabindex="30">
<title>
v:30
</title>
</circle>
<circle cx="141" cy="151" i="31" r="0.5" tabindex="31">
<title>
v:31
</title>
</circle>
<circle cx="144" cy="127" i="32" r="0.5" tabindex="32">
<title>
v:32
</title>
</circle>
<circle cx="152" cy="32" i="33" r="0.5" tabindex="33">
<title>
v:33
</title>
</circle>
<circle cx="154" cy="43" i="34" r="0.5" tabindex="34">
<title>
v:34
</title>
</circle>
<circle cx="155" cy="155" i="35" r="0.5" tabindex="35">
<title>
v:35
</title>
</circle>
<circle cx="158" cy="104" i="36" r="0.5" tabindex="36">
<title>
v:36
</title>
</circle>
<circle cx="158" cy="153" i="37" r="0.5" tabindex="37">
<title>
v:37
</title>
</circle>
<circle cx="159" cy="126" i="38" r="0.5" tabindex="38">
<title>
v:38
</title>
</circle>
<circle cx="164" cy="56" i="39" r="0.5" tabindex="39">
<title>
v:39
</title>
</circle>
<circle cx="164" cy="187" i="40" r="0.5" tabindex="40">
<title>
v:40
</title>
</circle>
<circle cx="165" cy="78" i="41" r="0.5" tabindex="41">
<title>
v:41
</title>
</circle>
<circle cx="165" cy="139" i="42" r="0.5" tabindex="42">
<title>
v:42
</title>
</circle>
<circle cx="172" cy="132" i="43" r="0.5" tabindex="43">
<title>
v:43
</title>
</circle>
<circle cx="177" cy="8" i="44" r="0.5" tabindex="44">
<title>
v:44
</title>
</circle>
<circle cx="181" cy="44" i="45" r="0.5" tabindex="45">
<title>
v:45
</title>
</circle>
<circle cx="181" cy="119" i="46" r="0.5" tabindex="46">
<title>
v:46
</title>
</circle>
<circle cx="183" cy="49" i="47" r="0.5" tabindex="47">
<title>
v:47
</title>
</circle>
<circle cx="183" cy="154" i="48" r="0.5" tabindex="48">
<title>
v:48
</title>
</circle>
<circle cx="188" cy="73" i="49" r="0.5" tabindex="49">
<title>
v:49
</title>
</circle>
<circle cx="190" cy="45" i="50" r="0.5" tabindex="50">
<title>
v:50
</title>
</circle>
<circle cx="191" cy="44" i="51" r="0.5" tabindex="51">
<title>
v:51
</title>
</circle>
<circle cx="192" cy="71" i="52" r="0.5" tabindex="52">
<title>
v:52
</title>
</circle>
<circle cx="193" cy="123" i="53" r="0.5" tabindex="53">
<title>
v:53
</title>
</circle>
<circle cx="203" cy="141" i="54" r="0.5" tabindex="54">
<title>
v:54
</title>
</circle>
<circle cx="205" cy="101" i="55" r="0.5" tabindex="55">
<title>
v:55
</title>
</circle>
<circle cx="206" cy="20" i="56" r="0.5" tabindex="56">
<title>
v:56
</title>
</circle>
<circle cx="215" cy="60" i="57" r="0.5" tabindex="57">
<title>
v:57
</title>
</circle>
<circle cx="230" cy="35" i="58" r="0.5" tabindex="58">
<title>
v:58
</title>
</circle>
<circle cx="234" cy="82" i="59" r="0.5" tabindex="59">
<title>
v:59
</title>
</circle>
<circle cx="257" cy="42" i="60" r="0.5" tabindex="60">
<title>
v:60
</title>
</circle>
<circle cx="259" cy="69" i="61" r="0.5" tabindex="61">
<title>
v:61
</title>
</circle>
</g>
</svg>