<svg height="500" viewBox="0 -2 282 369" width="500" xmlns="http://www.w3.org/2000/svg">
<path class="hole" d="M2 36L5 138L8 173L18 199L36 218L158 256L207 260L280 301L272 243L280 190L264 143L274 71L228 63L241 0L124 0L77 4L28 0L6 8M0 -2L282 -2L282 367L0 367" style="fill:#00000066;fill-rule:evenodd;"/>
<circle cx="182" cy="0" fill="#ffff0066" r="5">
<title>
Globalist@116
</title>
</circle>
<circle cx="191" cy="42" fill="#ffff0066" r="5">
<title>
BreakALeg@132
</title>
</circle>
<circle cx="245" cy="279" fill="#ffff0066" r="5">
<title>
Globalist@97
</title>
</circle>
<path class="ok" d="M143 20L121 38M27 126L27 106M27 126L27 153M27 126L48 114M27 106L46 104M27 106L48 114M28 128L24 154M21 128L24 154M21 128L46 138M46 104L70 100M27 153L46 138M170 30L186 52M170 30L152 51M121 38L122 62M121 38L148 49M84 91L100 78M84 91L97 98M100 78L122 67M100 78L115 91M48 114L46 138M48 114L70 100M48 114L72 115M186 52L172 35M116 46L122 67M116 46L136 46M140 20L148 49M122 62L118 90M24 154L46 138M24 154L39 175M46 138L74 140M122 67L115 91M122 67L118 90M136 46L128 70M97 98L115 91M97 98L83 113M72 115L92 125M30 172L58 174M30 172L57 163M148 49L169 34M148 49L135 71M115 91L105 110M115 91L100 102M115 91L116 113M152 51L172 35M152 51L135 71M172 35L186 58M105 110L107 135M39 175L14 184M39 175L56 160M118 90L128 70M118 90L135 71M118 90L116 113M118 90L136 105M83 113L100 102M58 174L49 195M58 174L85 169M169 34L160 56M92 125L74 140M92 125L116 113M92 125L111 138M74 140L56 160M74 140L81 162M135 71L160 56M135 71L160 64M135 71L155 91M116 113L107 135M116 113L136 105M116 113L111 138M57 163L85 169M92 159L97 177M92 159L78 172M186 58L160 64M49 195L56 220M49 195L67 180M49 195L70 204M56 220L70 204M136 105L155 91M136 105L135 134M136 105L159 113M85 169L67 180M111 138L105 161M111 138L135 134M81 162L67 180M81 162L105 161M160 64L155 91M160 64L186 81M97 177L78 172M97 177L107 197M155 91L159 113M155 91L184 90M78 172L85 196M67 180L70 204M67 180L85 196M70 204L56 222M105 161L129 173M105 161L105 187M107 197L85 196M107 197L95 214M129 173L132 201M150 176L177 196M150 176L132 201M186 81L210 90M111 180L101 215M111 180L107 217M85 196L56 222M85 196L105 187M85 196L95 214M85 196L82 217M56 222L82 217M184 90L210 90M184 90L193 115M177 196L149 196M105 187L82 217M105 187L132 201M105 187L107 217M95 214L106 238M210 90L193 115M132 201L107 217M132 201L150 226M149 196L150 226M154 237L178 257M154 237L185 225M178 257L185 225" style="stroke:#0000ff;stroke-linecap:round"/>
<path class="out" d="M143 20L123 0M123 0L140 20M28 128L2 136M21 128L3 145M3 145L24 154M2 136L24 154M2 136L5 162M5 162L14 184M101 215L106 254M82 217L90 240M61 307L78 277M61 307L92 316M78 277L106 254M78 277L111 285M90 240L106 238M107 217L106 254M107 217L124 246M92 316L111 285M106 254L119 285M150 226L124 246M112 250L117 289M112 250L119 285M111 285L134 314M124 246L154 237M124 246L148 266M117 289L117 319M119 285L148 266M119 285L134 314M119 285L149 306M148 266L178 257M148 266L160 297M117 319L149 306M149 306L131 337M149 306L172 330M160 297L172 330M131 337L149 363M172 330L183 365M149 363L183 365" style="stroke:#ff0000;stroke-linecap:round"/>
<g fill="#333333">
<circle cx="2" cy="36" r="0.5">
<title>
hole:0
</title>
</circle>
<circle cx="5" cy="138" r="0.5">
<title>
hole:1
</title>
</circle>
<circle cx="8" cy="173" r="0.5">
<title>
hole:2
</title>
</circle>
<circle cx="18" cy="199" r="0.5">
<title>
hole:3
</title>
</circle>
<circle cx="36" cy="218" r="0.5">
<title>
hole:4
</title>
</circle>
<circle cx="158" cy="256" r="0.5">
<title>
hole:5
</title>
</circle>
<circle cx="207" cy="260" r="0.5">
<title>
hole:6
</title>
</circle>
<circle cx="280" cy="301" r="0.5">
<title>
hole:7
</title>
</circle>
<circle cx="272" cy="243" r="0.5">
<title>
hole:8
</title>
</circle>
<circle cx="280" cy="190" r="0.5">
<title>
hole:9
</title>
</circle>
<circle cx="264" cy="143" r="0.5">
<title>
hole:10
</title>
</circle>
<circle cx="274" cy="71" r="0.5">
<title>
hole:11
</title>
</circle>
<circle cx="228" cy="63" r="0.5">
<title>
hole:12
</title>
</circle>
<circle cx="241" cy="0" r="0.5">
<title>
hole:13
</title>
</circle>
<circle cx="124" cy="0" r="0.5">
<title>
hole:14
</title>
</circle>
<circle cx="77" cy="4" r="0.5">
<title>
hole:15
</title>
</circle>
<circle cx="28" cy="0" r="0.5">
<title>
hole:16
</title>
</circle>
<circle cx="6" cy="8" r="0.5">
<title>
hole:17
</title>
</circle>
</g>
<g fill="#999999">
<circle cx="143" cy="20" i="0" r="0.5" tabindex="0">
<title>
v:0
</title>
</circle>
<circle cx="27" cy="126" i="1" r="0.5" tabindex="1">
<title>
v:1
</title>
</circle>
<circle cx="123" cy="0" i="2" r="0.5" tabindex="2">
<title>
v:2
</title>
</circle>
<circle cx="27" cy="106" i="3" r="0.5" tabindex="3">
<title>
v:3
</title>
</circle>
<circle cx="28" cy="128" i="4" r="0.5" tabindex="4">
<title>
v:4
</title>
</circle>
<circle cx="21" cy="128" i="5" r="0.5" tabindex="5">
<title>
v:5
</title>
</circle>
<circle cx="46" cy="104" i="6" r="0.5" tabindex="6">
<title>
v:6
</title>
</circle>
<circle cx="3" cy="145" i="7" r="0.5" tabindex="7">
<title>
v:7
</title>
</circle>
<circle cx="27" cy="153" i="8" r="0.5" tabindex="8">
<title>
v:8
</title>
</circle>
<circle cx="2" cy="136" i="9" r="0.5" tabindex="9">
<title>
v:9
</title>
</circle>
<circle cx="170" cy="30" i="10" r="0.5" tabindex="10">
<title>
v:10
</title>
</circle>
<circle cx="121" cy="38" i="11" r="0.5" tabindex="11">
<title>
v:11
</title>
</circle>
<circle cx="84" cy="91" i="12" r="0.5" tabindex="12">
<title>
v:12
</title>
</circle>
<circle cx="100" cy="78" i="13" r="0.5" tabindex="13">
<title>
v:13
</title>
</circle>
<circle cx="48" cy="114" i="14" r="0.5" tabindex="14">
<title>
v:14
</title>
</circle>
<circle cx="186" cy="52" i="15" r="0.5" tabindex="15">
<title>
v:15
</title>
</circle>
<circle cx="116" cy="46" i="16" r="0.5" tabindex="16">
<title>
v:16
</title>
</circle>
<circle cx="140" cy="20" i="17" r="0.5" tabindex="17">
<title>
v:17
</title>
</circle>
<circle cx="122" cy="62" i="18" r="0.5" tabindex="18">
<title>
v:18
</title>
</circle>
<circle cx="24" cy="154" i="19" r="0.5" tabindex="19">
<title>
v:19
</title>
</circle>
<circle cx="46" cy="138" i="20" r="0.5" tabindex="20">
<title>
v:20
</title>
</circle>
<circle cx="5" cy="162" i="21" r="0.5" tabindex="21">
<title>
v:21
</title>
</circle>
<circle cx="70" cy="100" i="22" r="0.5" tabindex="22">
<title>
v:22
</title>
</circle>
<circle cx="122" cy="67" i="23" r="0.5" tabindex="23">
<title>
v:23
</title>
</circle>
<circle cx="136" cy="46" i="24" r="0.5" tabindex="24">
<title>
v:24
</title>
</circle>
<circle cx="97" cy="98" i="25" r="0.5" tabindex="25">
<title>
v:25
</title>
</circle>
<circle cx="72" cy="115" i="26" r="0.5" tabindex="26">
<title>
v:26
</title>
</circle>
<circle cx="30" cy="172" i="27" r="0.5" tabindex="27">
<title>
v:27
</title>
</circle>
<circle cx="148" cy="49" i="28" r="0.5" tabindex="28">
<title>
v:28
</title>
</circle>
<circle cx="115" cy="91" i="29" r="0.5" tabindex="29">
<title>
v:29
</title>
</circle>
<circle cx="152" cy="51" i="30" r="0.5" tabindex="30">
<title>
v:30
</title>
</circle>
<circle cx="172" cy="35" i="31" r="0.5" tabindex="31">
<title>
v:31
</title>
</circle>
<circle cx="105" cy="110" i="32" r="0.5" tabindex="32">
<title>
v:32
</title>
</circle>
<circle cx="39" cy="175" i="33" r="0.5" tabindex="33">
<title>
v:33
</title>
</circle>
<circle cx="14" cy="184" i="34" r="0.5" tabindex="34">
<title>
v:34
</title>
</circle>
<circle cx="118" cy="90" i="35" r="0.5" tabindex="35">
<title>
v:35
</title>
</circle>
<circle cx="83" cy="113" i="36" r="0.5" tabindex="36">
<title>
v:36
</title>
</circle>
<circle cx="58" cy="174" i="37" r="0.5" tabindex="37">
<title>
v:37
</title>
</circle>
<circle cx="169" cy="34" i="38" r="0.5" tabindex="38">
<title>
v:38
</title>
</circle>
<circle cx="92" cy="125" i="39" r="0.5" tabindex="39">
<title>
v:39
</title>
</circle>
<circle cx="74" cy="140" i="40" r="0.5" tabindex="40">
<title>
v:40
</title>
</circle>
<circle cx="128" cy="70" i="41" r="0.5" tabindex="41">
<title>
v:41
</title>
</circle>
<circle cx="100" cy="102" i="42" r="0.5" tabindex="42">
<title>
v:42
</title>
</circle>
<circle cx="135" cy="71" i="43" r="0.5" tabindex="43">
<title>
v:43
</title>
</circle>
<circle cx="116" cy="113" i="44" r="0.5" tabindex="44">
<title>
v:44
</title>
</circle>
<circle cx="57" cy="163" i="45" r="0.5" tabindex="45">
<title>
v:45
</title>
</circle>
<circle cx="56" cy="160" i="46" r="0.5" tabindex="46">
<title>
v:46
</title>
</circle>
<circle cx="107" cy="135" i="47" r="0.5" tabindex="47">
<title>
v:47
</title>
</circle>
<circle cx="92" cy="159" i="48" r="0.5" tabindex="48">
<title>
v:48
</title>
</circle>
<circle cx="186" cy="58" i="49" r="0.5" tabindex="49">
<title>
v:49
</title>
</circle>
<circle cx="49" cy="195" i="50" r="0.5" tabindex="50">
<title>
v:50
</title>
</circle>
<circle cx="160" cy="56" i="51" r="0.5" tabindex="51">
<title>
v:51
</title>
</circle>
<circle cx="56" cy="220" i="52" r="0.5" tabindex="52">
<title>
v:52
</title>
</circle>
<circle cx="136" cy="105" i="53" r="0.5" tabindex="53">
<title>
v:53
</title>
</circle>
<circle cx="85" cy="169" i="54" r="0.5" tabindex="54">
<title>
v:54
</title>
</circle>
<circle cx="111" cy="138" i="55" r="0.5" tabindex="55">
<title>
v:55
</title>
</circle>
<circle cx="81" cy="162" i="56" r="0.5" tabindex="56">
<title>
v:56
</title>
</circle>
<circle cx="160" cy="64" i="57" r="0.5" tabindex="57">
<title>
v:57
</title>
</circle>
<circle cx="97" cy="177" i="58" r="0.5" tabindex="58">
<title>
v:58
</title>
</circle>
<circle cx="155" cy="91" i="59" r="0.5" tabindex="59">
<title>
v:59
</title>
</circle>
<circle cx="78" cy="172" i="60" r="0.5" tabindex="60">
<title>
v:60
</title>
</circle>
<circle cx="67" cy="180" i="61" r="0.5" tabindex="61">
<title>
v:61
</title>
</circle>
<circle cx="70" cy="204" i="62" r="0.5" tabindex="62">
<title>
v:62
</title>
</circle>
<circle cx="105" cy="161" i="63" r="0.5" tabindex="63">
<title>
v:63
</title>
</circle>
<circle cx="135" cy="134" i="64" r="0.5" tabindex="64">
<title>
v:64
</title>
</circle>
<circle cx="159" cy="113" i="65" r="0.5" tabindex="65">
<title>
v:65
</title>
</circle>
<circle cx="107" cy="197" i="66" r="0.5" tabindex="66">
<title>
v:66
</title>
</circle>
<circle cx="129" cy="173" i="67" r="0.5" tabindex="67">
<title>
v:67
</title>
</circle>
<circle cx="150" cy="176" i="68" r="0.5" tabindex="68">
<title>
v:68
</title>
</circle>
<circle cx="186" cy="81" i="69" r="0.5" tabindex="69">
<title>
v:69
</title>
</circle>
<circle cx="111" cy="180" i="70" r="0.5" tabindex="70">
<title>
v:70
</title>
</circle>
<circle cx="85" cy="196" i="71" r="0.5" tabindex="71">
<title>
v:71
</title>
</circle>
<circle cx="56" cy="222" i="72" r="0.5" tabindex="72">
<title>
v:72
</title>
</circle>
<circle cx="101" cy="215" i="73" r="0.5" tabindex="73">
<title>
v:73
</title>
</circle>
<circle cx="184" cy="90" i="74" r="0.5" tabindex="74">
<title>
v:74
</title>
</circle>
<circle cx="177" cy="196" i="75" r="0.5" tabindex="75">
<title>
v:75
</title>
</circle>
<circle cx="105" cy="187" i="76" r="0.5" tabindex="76">
<title>
v:76
</title>
</circle>
<circle cx="95" cy="214" i="77" r="0.5" tabindex="77">
<title>
v:77
</title>
</circle>
<circle cx="82" cy="217" i="78" r="0.5" tabindex="78">
<title>
v:78
</title>
</circle>
<circle cx="61" cy="307" i="79" r="0.5" tabindex="79">
<title>
v:79
</title>
</circle>
<circle cx="210" cy="90" i="80" r="0.5" tabindex="80">
<title>
v:80
</title>
</circle>
<circle cx="132" cy="201" i="81" r="0.5" tabindex="81">
<title>
v:81
</title>
</circle>
<circle cx="193" cy="115" i="82" r="0.5" tabindex="82">
<title>
v:82
</title>
</circle>
<circle cx="149" cy="196" i="83" r="0.5" tabindex="83">
<title>
v:83
</title>
</circle>
<circle cx="78" cy="277" i="84" r="0.5" tabindex="84">
<title>
v:84
</title>
</circle>
<circle cx="90" cy="240" i="85" r="0.5" tabindex="85">
<title>
v:85
</title>
</circle>
<circle cx="107" cy="217" i="86" r="0.5" tabindex="86">
<title>
v:86
</title>
</circle>
<circle cx="106" cy="238" i="87" r="0.5" tabindex="87">
<title>
v:87
</title>
</circle>
<circle cx="92" cy="316" i="88" r="0.5" tabindex="88">
<title>
v:88
</title>
</circle>
<circle cx="106" cy="254" i="89" r="0.5" tabindex="89">
<title>
v:89
</title>
</circle>
<circle cx="150" cy="226" i="90" r="0.5" tabindex="90">
<title>
v:90
</title>
</circle>
<circle cx="112" cy="250" i="91" r="0.5" tabindex="91">
<title>
v:91
</title>
</circle>
<circle cx="111" cy="285" i="92" r="0.5" tabindex="92">
<title>
v:92
</title>
</circle>
<circle cx="124" cy="246" i="93" r="0.5" tabindex="93">
<title>
v:93
</title>
</circle>
<circle cx="117" cy="289" i="94" r="0.5" tabindex="94">
<title>
v:94
</title>
</circle>
<circle cx="119" cy="285" i="95" r="0.5" tabindex="95">
<title>
v:95
</title>
</circle>
<circle cx="154" cy="237" i="96" r="0.5" tabindex="96">
<title>
v:96
</title>
</circle>
<circle cx="148" cy="266" i="97" r="0.5" tabindex="97">
<title>
v:97
</title>
</circle>
<circle cx="134" cy="314" i="98" r="0.5" tabindex="98">
<title>
v:98
</title>
</circle>
<circle cx="117" cy="319" i="99" r="0.5" tabindex="99">
<title>
v:99
</title>
</circle>
<circle cx="149" cy="306" i="100" r="0.5" tabindex="100">
<title>
v:100
</title>
</circle>
<circle cx="178" cy="257" i="101" r="0.5" tabindex="101">
<title>
v:101
</title>
</circle>
<circle cx="185" cy="225" i="102" r="0.5" tabindex="102">
<title>
v:102
</title>
</circle>
<circle cx="160" cy="297" i="103" r="0.5" tabindex="103">
<title>
v:103
</title>
</circle>
<circle cx="131" cy="337" i="104" r="0.5" tabindex="104">
<title>
v:104
</title>
</circle>
<circle cx="172" cy="330" i="105" r="0.5" tabindex="105">
<title>
v:105
</title>
</circle>
<circle cx="149" cy="363" i="106" r="0.5" tabindex="106">
<title>
v:106
</title>
</circle>
<circle cx="183" cy="365" i="107" r="0.5" tabindex="107">
<title>
v:107
</title>
</circle>
</g>
</svg>