<svg height="500" viewBox="0 -2 118 111" width="500" xmlns="http://www.w3.org/2000/svg">
<path class="hole" d="M3 14L2 26L8 36L20 43L12 52L5 61L2 71L6 81L2 91L16 107L36 107L34 71L48 102L57 107L69 102L89 107L81 94L99 95L116 94L116 83L101 78L91 76L56 77L114 53L98 48L49 67L97 36L92 25L107 25L116 20L116 4L105 0L90 10L75 21L66 11L66 0L53 0L42 3L47 17L53 31L41 32L33 42L24 29L16 16L26 3L2 1M0 -2L118 -2L118 109L0 109" style="fill:#00000066;fill-rule:evenodd;"/>
<circle cx="74" cy="66" fill="#ffff0066" r="5">
<title>
SuperFlex@132
</title>
</circle>
<circle cx="29" cy="90" fill="#ffff0066" r="5">
<title>
SuperFlex@121
</title>
</circle>
<circle cx="71" cy="81" fill="#ffff0066" r="5">
<title>
WallHack@63
</title>
</circle>
<path class="ok" d="M22 86L24 76M22 86L33 88M24 76L30 66M30 66L36 52M36 52L38 44M36 52L42 58M38 44L42 58M38 44L47 43M42 32L43 36M42 58L45 72M42 58L49 51M43 36L50 41M44 81L45 72M44 81L49 83M44 81L51 77M45 72L51 77M45 72L67 72M47 43L49 51M47 43L57 42M47 43L70 44M49 83L51 77M49 83L53 84M50 41L54 34M50 41L57 42M53 84L54 79M53 84L54 90M54 34L57 34M54 79L59 79M54 90L59 90M57 34L58 29M57 34L64 40M57 42L64 40M57 42L70 44M58 29L61 25M58 29L68 31M59 79L60 84M59 90L60 84M60 84L63 83M61 25L68 27M62 78L63 83M62 78L68 80M63 83L68 80M64 40L68 31M68 27L68 31M70 44L75 49M72 52L75 49M92 23L92 26M92 23L106 23" style="stroke:#0000ff;stroke-linecap:round"/>
<path class="out" d="M24 76L35 77M30 66L35 77M33 88L35 77M42 32L49 28M42 58L70 58M43 36L52 31M49 28L52 31M52 31L54 34M62 78L67 72M67 72L68 80M67 72L70 58M70 44L70 58M70 58L75 55M72 52L75 55M75 49L91 41M75 55L83 63M83 63L84 70M83 63L90 66M84 70L87 73M84 70L90 66M87 73L95 69M90 66L95 69M90 66L96 57M91 41L96 32M91 41L96 41M92 26L96 32M92 26L106 26M95 69L103 65M96 32L96 41M96 32L101 32M96 41L101 41M96 57L103 65M101 32L101 41M106 23L106 26" style="stroke:#ff0000;stroke-linecap:round"/>
<g fill="#333333">
<circle cx="3" cy="14" r="0.5">
<title>
hole:0
</title>
</circle>
<circle cx="2" cy="26" r="0.5">
<title>
hole:1
</title>
</circle>
<circle cx="8" cy="36" r="0.5">
<title>
hole:2
</title>
</circle>
<circle cx="20" cy="43" r="0.5">
<title>
hole:3
</title>
</circle>
<circle cx="12" cy="52" r="0.5">
<title>
hole:4
</title>
</circle>
<circle cx="5" cy="61" r="0.5">
<title>
hole:5
</title>
</circle>
<circle cx="2" cy="71" r="0.5">
<title>
hole:6
</title>
</circle>
<circle cx="6" cy="81" r="0.5">
<title>
hole:7
</title>
</circle>
<circle cx="2" cy="91" r="0.5">
<title>
hole:8
</title>
</circle>
<circle cx="16" cy="107" r="0.5">
<title>
hole:9
</title>
</circle>
<circle cx="36" cy="107" r="0.5">
<title>
hole:10
</title>
</circle>
<circle cx="34" cy="71" r="0.5">
<title>
hole:11
</title>
</circle>
<circle cx="48" cy="102" r="0.5">
<title>
hole:12
</title>
</circle>
<circle cx="57" cy="107" r="0.5">
<title>
hole:13
</title>
</circle>
<circle cx="69" cy="102" r="0.5">
<title>
hole:14
</title>
</circle>
<circle cx="89" cy="107" r="0.5">
<title>
hole:15
</title>
</circle>
<circle cx="81" cy="94" r="0.5">
<title>
hole:16
</title>
</circle>
<circle cx="99" cy="95" r="0.5">
<title>
hole:17
</title>
</circle>
<circle cx="116" cy="94" r="0.5">
<title>
hole:18
</title>
</circle>
<circle cx="116" cy="83" r="0.5">
<title>
hole:19
</title>
</circle>
<circle cx="101" cy="78" r="0.5">
<title>
hole:20
</title>
</circle>
<circle cx="91" cy="76" r="0.5">
<title>
hole:21
</title>
</circle>
<circle cx="56" cy="77" r="0.5">
<title>
hole:22
</title>
</circle>
<circle cx="114" cy="53" r="0.5">
<title>
hole:23
</title>
</circle>
<circle cx="98" cy="48" r="0.5">
<title>
hole:24
</title>
</circle>
<circle cx="49" cy="67" r="0.5">
<title>
hole:25
</title>
</circle>
<circle cx="97" cy="36" r="0.5">
<title>
hole:26
</title>
</circle>
<circle cx="92" cy="25" r="0.5">
<title>
hole:27
</title>
</circle>
<circle cx="107" cy="25" r="0.5">
<title>
hole:28
</title>
</circle>
<circle cx="116" cy="20" r="0.5">
<title>
hole:29
</title>
</circle>
<circle cx="116" cy="4" r="0.5">
<title>
hole:30
</title>
</circle>
<circle cx="105" cy="0" r="0.5">
<title>
hole:31
</title>
</circle>
<circle cx="90" cy="10" r="0.5">
<title>
hole:32
</title>
</circle>
<circle cx="75" cy="21" r="0.5">
<title>
hole:33
</title>
</circle>
<circle cx="66" cy="11" r="0.5">
<title>
hole:34
</title>
</circle>
<circle cx="66" cy="0" r="0.5">
<title>
hole:35
</title>
</circle>
<circle cx="53" cy="0" r="0.5">
<title>
hole:36
</title>
</circle>
<circle cx="42" cy="3" r="0.5">
<title>
hole:37
</title>
</circle>
<circle cx="47" cy="17" r="0.5">
<title>
hole:38
</title>
</circle>
<circle cx="53" cy="31" r="0.5">
<title>
hole:39
</title>
</circle>
<circle cx="41" cy="32" r="0.5">
<title>
hole:40
</title>
</circle>
<circle cx="33" cy="42" r="0.5">
<title>
hole:41
</title>
</circle>
<circle cx="24" cy="29" r="0.5">
<title>
hole:42
</title>
</circle>
<circle cx="16" cy="16" r="0.5">
<title>
hole:43
</title>
</circle>
<circle cx="26" cy="3" r="0.5">
<title>
hole:44
</title>
</circle>
<circle cx="2" cy="1" r="0.5">
<title>
hole:45
</title>
</circle>
</g>
<g fill="#999999">
<circle cx="22" cy="86" i="0" r="0.5" tabindex="0">
<title>
v:0
</title>
</circle>
<circle cx="24" cy="76" i="1" r="0.5" tabindex="1">
<title>
v:1
</title>
</circle>
<circle cx="30" cy="66" i="2" r="0.5" tabindex="2">
<title>
v:2
</title>
</circle>
<circle cx="33" cy="88" i="3" r="0.5" tabindex="3">
<title>
v:3
</title>
</circle>
<circle cx="35" cy="77" i="4" r="0.5" tabindex="4">
<title>
v:4
</title>
</circle>
<circle cx="36" cy="52" i="5" r="0.5" tabindex="5">
<title>
v:5
</title>
</circle>
<circle cx="38" cy="44" i="6" r="0.5" tabindex="6">
<title>
v:6
</title>
</circle>
<circle cx="42" cy="32" i="7" r="0.5" tabindex="7">
<title>
v:7
</title>
</circle>
<circle cx="42" cy="58" i="8" r="0.5" tabindex="8">
<title>
v:8
</title>
</circle>
<circle cx="43" cy="36" i="9" r="0.5" tabindex="9">
<title>
v:9
</title>
</circle>
<circle cx="44" cy="81" i="10" r="0.5" tabindex="10">
<title>
v:10
</title>
</circle>
<circle cx="45" cy="72" i="11" r="0.5" tabindex="11">
<title>
v:11
</title>
</circle>
<circle cx="47" cy="43" i="12" r="0.5" tabindex="12">
<title>
v:12
</title>
</circle>
<circle cx="49" cy="28" i="13" r="0.5" tabindex="13">
<title>
v:13
</title>
</circle>
<circle cx="49" cy="51" i="14" r="0.5" tabindex="14">
<title>
v:14
</title>
</circle>
<circle cx="49" cy="83" i="15" r="0.5" tabindex="15">
<title>
v:15
</title>
</circle>
<circle cx="50" cy="41" i="16" r="0.5" tabindex="16">
<title>
v:16
</title>
</circle>
<circle cx="51" cy="77" i="17" r="0.5" tabindex="17">
<title>
v:17
</title>
</circle>
<circle cx="52" cy="31" i="18" r="0.5" tabindex="18">
<title>
v:18
</title>
</circle>
<circle cx="53" cy="84" i="19" r="0.5" tabindex="19">
<title>
v:19
</title>
</circle>
<circle cx="54" cy="34" i="20" r="0.5" tabindex="20">
<title>
v:20
</title>
</circle>
<circle cx="54" cy="79" i="21" r="0.5" tabindex="21">
<title>
v:21
</title>
</circle>
<circle cx="54" cy="90" i="22" r="0.5" tabindex="22">
<title>
v:22
</title>
</circle>
<circle cx="57" cy="34" i="23" r="0.5" tabindex="23">
<title>
v:23
</title>
</circle>
<circle cx="57" cy="42" i="24" r="0.5" tabindex="24">
<title>
v:24
</title>
</circle>
<circle cx="58" cy="29" i="25" r="0.5" tabindex="25">
<title>
v:25
</title>
</circle>
<circle cx="59" cy="79" i="26" r="0.5" tabindex="26">
<title>
v:26
</title>
</circle>
<circle cx="59" cy="90" i="27" r="0.5" tabindex="27">
<title>
v:27
</title>
</circle>
<circle cx="60" cy="84" i="28" r="0.5" tabindex="28">
<title>
v:28
</title>
</circle>
<circle cx="61" cy="25" i="29" r="0.5" tabindex="29">
<title>
v:29
</title>
</circle>
<circle cx="62" cy="78" i="30" r="0.5" tabindex="30">
<title>
v:30
</title>
</circle>
<circle cx="63" cy="83" i="31" r="0.5" tabindex="31">
<title>
v:31
</title>
</circle>
<circle cx="64" cy="40" i="32" r="0.5" tabindex="32">
<title>
v:32
</title>
</circle>
<circle cx="67" cy="72" i="33" r="0.5" tabindex="33">
<title>
v:33
</title>
</circle>
<circle cx="68" cy="27" i="34" r="0.5" tabindex="34">
<title>
v:34
</title>
</circle>
<circle cx="68" cy="31" i="35" r="0.5" tabindex="35">
<title>
v:35
</title>
</circle>
<circle cx="68" cy="80" i="36" r="0.5" tabindex="36">
<title>
v:36
</title>
</circle>
<circle cx="70" cy="44" i="37" r="0.5" tabindex="37">
<title>
v:37
</title>
</circle>
<circle cx="70" cy="58" i="38" r="0.5" tabindex="38">
<title>
v:38
</title>
</circle>
<circle cx="72" cy="52" i="39" r="0.5" tabindex="39">
<title>
v:39
</title>
</circle>
<circle cx="75" cy="49" i="40" r="0.5" tabindex="40">
<title>
v:40
</title>
</circle>
<circle cx="75" cy="55" i="41" r="0.5" tabindex="41">
<title>
v:41
</title>
</circle>
<circle cx="83" cy="63" i="42" r="0.5" tabindex="42">
<title>
v:42
</title>
</circle>
<circle cx="84" cy="70" i="43" r="0.5" tabindex="43">
<title>
v:43
</title>
</circle>
<circle cx="87" cy="73" i="44" r="0.5" tabindex="44">
<title>
v:44
</title>
</circle>
<circle cx="90" cy="66" i="45" r="0.5" tabindex="45">
<title>
v:45
</title>
</circle>
<circle cx="91" cy="41" i="46" r="0.5" tabindex="46">
<title>
v:46
</title>
</circle>
<circle cx="92" cy="23" i="47" r="0.5" tabindex="47">
<title>
v:47
</title>
</circle>
<circle cx="92" cy="26" i="48" r="0.5" tabindex="48">
<title>
v:48
</title>
</circle>
<circle cx="95" cy="69" i="49" r="0.5" tabindex="49">
<title>
v:49
</title>
</circle>
<circle cx="96" cy="32" i="50" r="0.5" tabindex="50">
<title>
v:50
</title>
</circle>
<circle cx="96" cy="41" i="51" r="0.5" tabindex="51">
<title>
v:51
</title>
</circle>
<circle cx="96" cy="57" i="52" r="0.5" tabindex="52">
<title>
v:52
</title>
</circle>
<circle cx="101" cy="32" i="53" r="0.5" tabindex="53">
<title>
v:53
</title>
</circle>
<circle cx="101" cy="41" i="54" r="0.5" tabindex="54">
<title>
v:54
</title>
</circle>
<circle cx="103" cy="65" i="55" r="0.5" tabindex="55">
<title>
v:55
</title>
</circle>
<circle cx="106" cy="23" i="56" r="0.5" tabindex="56">
<title>
v:56
</title>
</circle>
<circle cx="106" cy="26" i="57" r="0.5" tabindex="57">
<title>
v:57
</title>
</circle>
</g>
</svg>