<svg height="500" viewBox="0 -2 423 461" width="500" xmlns="http://www.w3.org/2000/svg">
<path class="hole" d="M2 324L3 377L56 372L58 421L94 388L125 427L161 414L163 370L184 343L208 363L217 325L246 350L258 310L263 324L257 339L273 352L294 379L304 351L362 362L396 383L421 375L410 332L376 330L377 304L351 316L384 291L348 282L340 239L310 201L304 192L274 174L254 176L219 174L239 163L252 153L223 123L210 102L179 102L178 92L156 93L174 79L175 59L148 67L119 71L103 76L81 77L71 68L82 19L49 0L10 21L26 67L20 97L43 120L21 153L14 192L51 179L73 159L79 177L93 181L108 219L121 237L97 219L69 241L66 253L34 276L51 320M0 -2L423 -2L423 459L0 459" style="fill:#00000066;fill-rule:evenodd;"/>
<circle cx="131" cy="390" fill="#ffff0066" r="5">
<title>
Globalist@115
</title>
</circle>
<circle cx="47" cy="36" fill="#ffff0066" r="5">
<title>
BreakALeg@114
</title>
</circle>
<circle cx="29" cy="348" fill="#ffff0066" r="5">
<title>
WallHack@9
</title>
</circle>
<path class="ok" d="M68 29L23 57M23 57L42 107M42 107L49 147M152 96L136 141M171 93L140 108M171 93L188 125M140 108L106 114M140 108L152 140M106 114L83 144M106 114L118 147M49 147L89 166M49 147L22 189M188 125L186 155M92 122L136 141M92 122L89 166M83 144L118 147M203 140L229 140M203 140L219 167M199 131L203 173M152 140L118 147M152 140L186 155M152 140L156 178M157 181L129 166M157 181L148 220M186 155L205 129M186 155L156 178M89 166L129 166M129 166L114 203M229 140L219 167M229 140L234 158M205 129L190 160M219 167L214 193M203 173L189 200M156 178L130 207M156 178L189 200M148 220L114 203M267 179L237 188M235 190L228 177M235 190L214 193M228 177L241 201M148 184L114 203M148 184L168 203M190 160L189 200M114 203L146 229M200 180L168 203M200 180L225 205M262 190L241 201M262 190L294 198M130 207L146 242M189 200L225 205M189 200L187 240M241 201L263 221M237 188L210 206M237 188L264 201M168 203L146 229M168 203L179 235M261 190L294 198M210 206L190 230M210 206L214 238M278 204L252 229M278 204L309 217M225 205L252 229M225 205L214 238M225 205L223 240M294 198L284 225M294 198L308 224M264 201L286 221M264 201L234 223M146 229L182 218M146 229L111 249M146 229L179 235M146 229L173 252M182 218L173 252M271 196L286 221M73 257L111 249M263 221L284 225M195 218L173 252M195 218L224 253M146 242L187 240M190 230L214 238M190 230L195 259M187 240L223 240M187 240L165 271M152 234L177 243M152 234L158 264M284 225L278 246M111 249L98 286M111 249L140 282M252 229L284 251M252 229L270 259M179 235L214 238M177 243L182 268M309 217L284 251M308 224L278 246M214 238L234 223M214 238L218 263M226 254L258 245M226 254L204 278M223 240L211 268M258 245L234 273M229 256L267 241M229 256L197 287M173 252L140 282M173 252L197 287M267 241L247 276M195 259L179 273M195 259L204 278M158 264L164 287M179 273L172 302M98 286L140 282M182 268L204 266M182 268L164 287M182 268L197 283M204 266L221 274M204 266L197 283M224 253L197 287M165 271L211 268M216 270L237 265M216 270L197 283M218 263L204 278M218 263L270 259M204 278L223 305M204 278L191 306M221 274L223 290M116 311L131 295M116 311L109 344M164 287L167 301M154 298L131 295M154 298L137 312M140 282L102 305M140 282L162 313M237 265L236 293M197 283L223 290M197 283L191 306M197 283L214 299M131 295L137 312M131 295L119 318M234 273L223 305M197 287L162 313M197 287L227 322M172 302L191 306M172 302L157 319M167 301L191 306M102 305L72 323M102 305L99 336M247 276L227 322M144 314L118 317M144 314L165 332M223 305L191 306M137 312L157 319M137 312L119 318M137 312L146 326M118 317L97 337M118 317L130 343M133 311L112 312M133 311L119 318M97 337L130 343M191 306L214 299M191 306L184 333M236 293L214 299M236 293L258 309M236 293L231 318M214 299L188 312M214 299L230 320M214 299L231 318M112 312L108 331M188 312L199 335M157 319L146 326M157 319L158 333M109 344L119 318M162 313L137 350M119 318L108 331M119 318L124 333M146 326L158 333M146 326L124 333M146 326L154 341M146 326L131 346M72 323L99 336M108 331L124 333M165 332L154 354M158 333L184 333M158 333L154 341M158 333L154 354M158 333L213 335M258 309L253 319M99 336L137 350M99 336L104 395M130 343L154 354M130 343L129 379M231 318L253 319M184 333L154 341M184 333L213 335M184 333L203 350M154 341L131 346M154 354L161 388M137 350L129 379M129 379L161 388M129 379L104 395M161 388L137 404M104 395L137 404" style="stroke:#0000ff;stroke-linecap:round"/>
<path class="out" d="M68 29L84 76M356 0L312 19M356 0L394 24M214 36L246 11M214 36L250 51M306 49L312 19M306 49L266 47M246 11L266 47M246 11L250 51M312 19L330 60M130 64L84 76M130 64L152 96M292 50L269 79M292 50L319 72M394 24L380 59M266 47L267 86M266 47L294 70M250 51L267 86M84 76L42 107M84 76L92 122M42 107L2 135M2 135L49 147M269 79L277 106M330 60L294 70M330 60L380 59M319 72L344 74M319 72L301 95M250 85L276 94M250 85L260 108M267 86L241 90M267 86L296 101M241 90L244 133M294 70L296 101M344 74L333 94M276 94L260 108M276 94L301 95M314 86L320 113M314 86L339 98M230 105L199 131M230 105L261 142M260 108L288 113M277 106L301 95M301 95L288 113M301 95L320 113M296 101L325 104M296 101L284 132M333 94L320 113M250 109L238 138M250 109L284 132M325 104L321 145M288 113L292 118M320 113L339 98M320 113L314 133M339 98L326 124M292 118L314 133M244 133L284 132M89 166L60 200M22 189L26 227M238 138L213 157M238 138L243 175M284 132L321 145M284 132L279 169M314 133L293 159M314 133L334 150M219 167L235 190M261 142L243 175M234 158L258 170M234 158L228 177M213 157L243 175M321 145L344 173M321 145L309 178M326 124L334 150M326 124L349 141M258 170L262 190M203 173L243 175M293 159L309 178M334 150L354 161M334 150L334 175M267 179L274 160M26 227L60 200M60 200L81 227M276 178L274 160M276 178L275 165M279 169L243 175M279 169L309 178M279 169L261 190M279 169L278 204M243 175L225 205M114 203L81 227M274 160L257 172M354 161L349 141M275 165L257 172M344 173L309 178M309 178L334 175M309 178L294 198M334 175L333 206M257 172L264 201M257 172L271 196M81 227L73 257M81 227L111 249M300 184L278 204M300 184L309 217M333 206L308 224M162 313L187 347M227 322L230 367M230 320L213 335M231 318L222 340M199 335L222 340M154 354L189 368M187 347L230 367M203 350L189 368M189 368L161 388M189 368L199 404M161 388L160 416M161 388L199 404M104 395L91 433M137 404L160 416M137 404L119 433M91 433L82 457M119 433L82 457" style="stroke:#ff0000;stroke-linecap:round"/>
<g fill="#333333">
<circle cx="2" cy="324" r="0.5">
<title>
hole:0
</title>
</circle>
<circle cx="3" cy="377" r="0.5">
<title>
hole:1
</title>
</circle>
<circle cx="56" cy="372" r="0.5">
<title>
hole:2
</title>
</circle>
<circle cx="58" cy="421" r="0.5">
<title>
hole:3
</title>
</circle>
<circle cx="94" cy="388" r="0.5">
<title>
hole:4
</title>
</circle>
<circle cx="125" cy="427" r="0.5">
<title>
hole:5
</title>
</circle>
<circle cx="161" cy="414" r="0.5">
<title>
hole:6
</title>
</circle>
<circle cx="163" cy="370" r="0.5">
<title>
hole:7
</title>
</circle>
<circle cx="184" cy="343" r="0.5">
<title>
hole:8
</title>
</circle>
<circle cx="208" cy="363" r="0.5">
<title>
hole:9
</title>
</circle>
<circle cx="217" cy="325" r="0.5">
<title>
hole:10
</title>
</circle>
<circle cx="246" cy="350" r="0.5">
<title>
hole:11
</title>
</circle>
<circle cx="258" cy="310" r="0.5">
<title>
hole:12
</title>
</circle>
<circle cx="263" cy="324" r="0.5">
<title>
hole:13
</title>
</circle>
<circle cx="257" cy="339" r="0.5">
<title>
hole:14
</title>
</circle>
<circle cx="273" cy="352" r="0.5">
<title>
hole:15
</title>
</circle>
<circle cx="294" cy="379" r="0.5">
<title>
hole:16
</title>
</circle>
<circle cx="304" cy="351" r="0.5">
<title>
hole:17
</title>
</circle>
<circle cx="362" cy="362" r="0.5">
<title>
hole:18
</title>
</circle>
<circle cx="396" cy="383" r="0.5">
<title>
hole:19
</title>
</circle>
<circle cx="421" cy="375" r="0.5">
<title>
hole:20
</title>
</circle>
<circle cx="410" cy="332" r="0.5">
<title>
hole:21
</title>
</circle>
<circle cx="376" cy="330" r="0.5">
<title>
hole:22
</title>
</circle>
<circle cx="377" cy="304" r="0.5">
<title>
hole:23
</title>
</circle>
<circle cx="351" cy="316" r="0.5">
<title>
hole:24
</title>
</circle>
<circle cx="384" cy="291" r="0.5">
<title>
hole:25
</title>
</circle>
<circle cx="348" cy="282" r="0.5">
<title>
hole:26
</title>
</circle>
<circle cx="340" cy="239" r="0.5">
<title>
hole:27
</title>
</circle>
<circle cx="310" cy="201" r="0.5">
<title>
hole:28
</title>
</circle>
<circle cx="304" cy="192" r="0.5">
<title>
hole:29
</title>
</circle>
<circle cx="274" cy="174" r="0.5">
<title>
hole:30
</title>
</circle>
<circle cx="254" cy="176" r="0.5">
<title>
hole:31
</title>
</circle>
<circle cx="219" cy="174" r="0.5">
<title>
hole:32
</title>
</circle>
<circle cx="239" cy="163" r="0.5">
<title>
hole:33
</title>
</circle>
<circle cx="252" cy="153" r="0.5">
<title>
hole:34
</title>
</circle>
<circle cx="223" cy="123" r="0.5">
<title>
hole:35
</title>
</circle>
<circle cx="210" cy="102" r="0.5">
<title>
hole:36
</title>
</circle>
<circle cx="179" cy="102" r="0.5">
<title>
hole:37
</title>
</circle>
<circle cx="178" cy="92" r="0.5">
<title>
hole:38
</title>
</circle>
<circle cx="156" cy="93" r="0.5">
<title>
hole:39
</title>
</circle>
<circle cx="174" cy="79" r="0.5">
<title>
hole:40
</title>
</circle>
<circle cx="175" cy="59" r="0.5">
<title>
hole:41
</title>
</circle>
<circle cx="148" cy="67" r="0.5">
<title>
hole:42
</title>
</circle>
<circle cx="119" cy="71" r="0.5">
<title>
hole:43
</title>
</circle>
<circle cx="103" cy="76" r="0.5">
<title>
hole:44
</title>
</circle>
<circle cx="81" cy="77" r="0.5">
<title>
hole:45
</title>
</circle>
<circle cx="71" cy="68" r="0.5">
<title>
hole:46
</title>
</circle>
<circle cx="82" cy="19" r="0.5">
<title>
hole:47
</title>
</circle>
<circle cx="49" cy="0" r="0.5">
<title>
hole:48
</title>
</circle>
<circle cx="10" cy="21" r="0.5">
<title>
hole:49
</title>
</circle>
<circle cx="26" cy="67" r="0.5">
<title>
hole:50
</title>
</circle>
<circle cx="20" cy="97" r="0.5">
<title>
hole:51
</title>
</circle>
<circle cx="43" cy="120" r="0.5">
<title>
hole:52
</title>
</circle>
<circle cx="21" cy="153" r="0.5">
<title>
hole:53
</title>
</circle>
<circle cx="14" cy="192" r="0.5">
<title>
hole:54
</title>
</circle>
<circle cx="51" cy="179" r="0.5">
<title>
hole:55
</title>
</circle>
<circle cx="73" cy="159" r="0.5">
<title>
hole:56
</title>
</circle>
<circle cx="79" cy="177" r="0.5">
<title>
hole:57
</title>
</circle>
<circle cx="93" cy="181" r="0.5">
<title>
hole:58
</title>
</circle>
<circle cx="108" cy="219" r="0.5">
<title>
hole:59
</title>
</circle>
<circle cx="121" cy="237" r="0.5">
<title>
hole:60
</title>
</circle>
<circle cx="97" cy="219" r="0.5">
<title>
hole:61
</title>
</circle>
<circle cx="69" cy="241" r="0.5">
<title>
hole:62
</title>
</circle>
<circle cx="66" cy="253" r="0.5">
<title>
hole:63
</title>
</circle>
<circle cx="34" cy="276" r="0.5">
<title>
hole:64
</title>
</circle>
<circle cx="51" cy="320" r="0.5">
<title>
hole:65
</title>
</circle>
</g>
<g fill="#999999">
<circle cx="68" cy="29" i="0" r="0.5" tabindex="0">
<title>
v:0
</title>
</circle>
<circle cx="23" cy="57" i="1" r="0.5" tabindex="1">
<title>
v:1
</title>
</circle>
<circle cx="356" cy="0" i="2" r="0.5" tabindex="2">
<title>
v:2
</title>
</circle>
<circle cx="214" cy="36" i="3" r="0.5" tabindex="3">
<title>
v:3
</title>
</circle>
<circle cx="306" cy="49" i="4" r="0.5" tabindex="4">
<title>
v:4
</title>
</circle>
<circle cx="246" cy="11" i="5" r="0.5" tabindex="5">
<title>
v:5
</title>
</circle>
<circle cx="312" cy="19" i="6" r="0.5" tabindex="6">
<title>
v:6
</title>
</circle>
<circle cx="130" cy="64" i="7" r="0.5" tabindex="7">
<title>
v:7
</title>
</circle>
<circle cx="292" cy="50" i="8" r="0.5" tabindex="8">
<title>
v:8
</title>
</circle>
<circle cx="394" cy="24" i="9" r="0.5" tabindex="9">
<title>
v:9
</title>
</circle>
<circle cx="266" cy="47" i="10" r="0.5" tabindex="10">
<title>
v:10
</title>
</circle>
<circle cx="250" cy="51" i="11" r="0.5" tabindex="11">
<title>
v:11
</title>
</circle>
<circle cx="84" cy="76" i="12" r="0.5" tabindex="12">
<title>
v:12
</title>
</circle>
<circle cx="42" cy="107" i="13" r="0.5" tabindex="13">
<title>
v:13
</title>
</circle>
<circle cx="2" cy="135" i="14" r="0.5" tabindex="14">
<title>
v:14
</title>
</circle>
<circle cx="152" cy="96" i="15" r="0.5" tabindex="15">
<title>
v:15
</title>
</circle>
<circle cx="269" cy="79" i="16" r="0.5" tabindex="16">
<title>
v:16
</title>
</circle>
<circle cx="171" cy="93" i="17" r="0.5" tabindex="17">
<title>
v:17
</title>
</circle>
<circle cx="330" cy="60" i="18" r="0.5" tabindex="18">
<title>
v:18
</title>
</circle>
<circle cx="319" cy="72" i="19" r="0.5" tabindex="19">
<title>
v:19
</title>
</circle>
<circle cx="250" cy="85" i="20" r="0.5" tabindex="20">
<title>
v:20
</title>
</circle>
<circle cx="267" cy="86" i="21" r="0.5" tabindex="21">
<title>
v:21
</title>
</circle>
<circle cx="241" cy="90" i="22" r="0.5" tabindex="22">
<title>
v:22
</title>
</circle>
<circle cx="140" cy="108" i="23" r="0.5" tabindex="23">
<title>
v:23
</title>
</circle>
<circle cx="294" cy="70" i="24" r="0.5" tabindex="24">
<title>
v:24
</title>
</circle>
<circle cx="106" cy="114" i="25" r="0.5" tabindex="25">
<title>
v:25
</title>
</circle>
<circle cx="344" cy="74" i="26" r="0.5" tabindex="26">
<title>
v:26
</title>
</circle>
<circle cx="380" cy="59" i="27" r="0.5" tabindex="27">
<title>
v:27
</title>
</circle>
<circle cx="276" cy="94" i="28" r="0.5" tabindex="28">
<title>
v:28
</title>
</circle>
<circle cx="314" cy="86" i="29" r="0.5" tabindex="29">
<title>
v:29
</title>
</circle>
<circle cx="230" cy="105" i="30" r="0.5" tabindex="30">
<title>
v:30
</title>
</circle>
<circle cx="49" cy="147" i="31" r="0.5" tabindex="31">
<title>
v:31
</title>
</circle>
<circle cx="260" cy="108" i="32" r="0.5" tabindex="32">
<title>
v:32
</title>
</circle>
<circle cx="277" cy="106" i="33" r="0.5" tabindex="33">
<title>
v:33
</title>
</circle>
<circle cx="188" cy="125" i="34" r="0.5" tabindex="34">
<title>
v:34
</title>
</circle>
<circle cx="301" cy="95" i="35" r="0.5" tabindex="35">
<title>
v:35
</title>
</circle>
<circle cx="92" cy="122" i="36" r="0.5" tabindex="36">
<title>
v:36
</title>
</circle>
<circle cx="296" cy="101" i="37" r="0.5" tabindex="37">
<title>
v:37
</title>
</circle>
<circle cx="83" cy="144" i="38" r="0.5" tabindex="38">
<title>
v:38
</title>
</circle>
<circle cx="333" cy="94" i="39" r="0.5" tabindex="39">
<title>
v:39
</title>
</circle>
<circle cx="250" cy="109" i="40" r="0.5" tabindex="40">
<title>
v:40
</title>
</circle>
<circle cx="325" cy="104" i="41" r="0.5" tabindex="41">
<title>
v:41
</title>
</circle>
<circle cx="203" cy="140" i="42" r="0.5" tabindex="42">
<title>
v:42
</title>
</circle>
<circle cx="199" cy="131" i="43" r="0.5" tabindex="43">
<title>
v:43
</title>
</circle>
<circle cx="136" cy="141" i="44" r="0.5" tabindex="44">
<title>
v:44
</title>
</circle>
<circle cx="288" cy="113" i="45" r="0.5" tabindex="45">
<title>
v:45
</title>
</circle>
<circle cx="152" cy="140" i="46" r="0.5" tabindex="46">
<title>
v:46
</title>
</circle>
<circle cx="118" cy="147" i="47" r="0.5" tabindex="47">
<title>
v:47
</title>
</circle>
<circle cx="320" cy="113" i="48" r="0.5" tabindex="48">
<title>
v:48
</title>
</circle>
<circle cx="157" cy="181" i="49" r="0.5" tabindex="49">
<title>
v:49
</title>
</circle>
<circle cx="339" cy="98" i="50" r="0.5" tabindex="50">
<title>
v:50
</title>
</circle>
<circle cx="292" cy="118" i="51" r="0.5" tabindex="51">
<title>
v:51
</title>
</circle>
<circle cx="244" cy="133" i="52" r="0.5" tabindex="52">
<title>
v:52
</title>
</circle>
<circle cx="186" cy="155" i="53" r="0.5" tabindex="53">
<title>
v:53
</title>
</circle>
<circle cx="89" cy="166" i="54" r="0.5" tabindex="54">
<title>
v:54
</title>
</circle>
<circle cx="129" cy="166" i="55" r="0.5" tabindex="55">
<title>
v:55
</title>
</circle>
<circle cx="22" cy="189" i="56" r="0.5" tabindex="56">
<title>
v:56
</title>
</circle>
<circle cx="238" cy="138" i="57" r="0.5" tabindex="57">
<title>
v:57
</title>
</circle>
<circle cx="284" cy="132" i="58" r="0.5" tabindex="58">
<title>
v:58
</title>
</circle>
<circle cx="229" cy="140" i="59" r="0.5" tabindex="59">
<title>
v:59
</title>
</circle>
<circle cx="205" cy="129" i="60" r="0.5" tabindex="60">
<title>
v:60
</title>
</circle>
<circle cx="314" cy="133" i="61" r="0.5" tabindex="61">
<title>
v:61
</title>
</circle>
<circle cx="219" cy="167" i="62" r="0.5" tabindex="62">
<title>
v:62
</title>
</circle>
<circle cx="261" cy="142" i="63" r="0.5" tabindex="63">
<title>
v:63
</title>
</circle>
<circle cx="234" cy="158" i="64" r="0.5" tabindex="64">
<title>
v:64
</title>
</circle>
<circle cx="213" cy="157" i="65" r="0.5" tabindex="65">
<title>
v:65
</title>
</circle>
<circle cx="321" cy="145" i="66" r="0.5" tabindex="66">
<title>
v:66
</title>
</circle>
<circle cx="326" cy="124" i="67" r="0.5" tabindex="67">
<title>
v:67
</title>
</circle>
<circle cx="258" cy="170" i="68" r="0.5" tabindex="68">
<title>
v:68
</title>
</circle>
<circle cx="203" cy="173" i="69" r="0.5" tabindex="69">
<title>
v:69
</title>
</circle>
<circle cx="156" cy="178" i="70" r="0.5" tabindex="70">
<title>
v:70
</title>
</circle>
<circle cx="293" cy="159" i="71" r="0.5" tabindex="71">
<title>
v:71
</title>
</circle>
<circle cx="148" cy="220" i="72" r="0.5" tabindex="72">
<title>
v:72
</title>
</circle>
<circle cx="334" cy="150" i="73" r="0.5" tabindex="73">
<title>
v:73
</title>
</circle>
<circle cx="267" cy="179" i="74" r="0.5" tabindex="74">
<title>
v:74
</title>
</circle>
<circle cx="235" cy="190" i="75" r="0.5" tabindex="75">
<title>
v:75
</title>
</circle>
<circle cx="228" cy="177" i="76" r="0.5" tabindex="76">
<title>
v:76
</title>
</circle>
<circle cx="214" cy="193" i="77" r="0.5" tabindex="77">
<title>
v:77
</title>
</circle>
<circle cx="148" cy="184" i="78" r="0.5" tabindex="78">
<title>
v:78
</title>
</circle>
<circle cx="26" cy="227" i="79" r="0.5" tabindex="79">
<title>
v:79
</title>
</circle>
<circle cx="190" cy="160" i="80" r="0.5" tabindex="80">
<title>
v:80
</title>
</circle>
<circle cx="60" cy="200" i="81" r="0.5" tabindex="81">
<title>
v:81
</title>
</circle>
<circle cx="276" cy="178" i="82" r="0.5" tabindex="82">
<title>
v:82
</title>
</circle>
<circle cx="279" cy="169" i="83" r="0.5" tabindex="83">
<title>
v:83
</title>
</circle>
<circle cx="243" cy="175" i="84" r="0.5" tabindex="84">
<title>
v:84
</title>
</circle>
<circle cx="114" cy="203" i="85" r="0.5" tabindex="85">
<title>
v:85
</title>
</circle>
<circle cx="274" cy="160" i="86" r="0.5" tabindex="86">
<title>
v:86
</title>
</circle>
<circle cx="200" cy="180" i="87" r="0.5" tabindex="87">
<title>
v:87
</title>
</circle>
<circle cx="262" cy="190" i="88" r="0.5" tabindex="88">
<title>
v:88
</title>
</circle>
<circle cx="130" cy="207" i="89" r="0.5" tabindex="89">
<title>
v:89
</title>
</circle>
<circle cx="354" cy="161" i="90" r="0.5" tabindex="90">
<title>
v:90
</title>
</circle>
<circle cx="349" cy="141" i="91" r="0.5" tabindex="91">
<title>
v:91
</title>
</circle>
<circle cx="275" cy="165" i="92" r="0.5" tabindex="92">
<title>
v:92
</title>
</circle>
<circle cx="344" cy="173" i="93" r="0.5" tabindex="93">
<title>
v:93
</title>
</circle>
<circle cx="309" cy="178" i="94" r="0.5" tabindex="94">
<title>
v:94
</title>
</circle>
<circle cx="334" cy="175" i="95" r="0.5" tabindex="95">
<title>
v:95
</title>
</circle>
<circle cx="189" cy="200" i="96" r="0.5" tabindex="96">
<title>
v:96
</title>
</circle>
<circle cx="241" cy="201" i="97" r="0.5" tabindex="97">
<title>
v:97
</title>
</circle>
<circle cx="237" cy="188" i="98" r="0.5" tabindex="98">
<title>
v:98
</title>
</circle>
<circle cx="257" cy="172" i="99" r="0.5" tabindex="99">
<title>
v:99
</title>
</circle>
<circle cx="81" cy="227" i="100" r="0.5" tabindex="100">
<title>
v:100
</title>
</circle>
<circle cx="168" cy="203" i="101" r="0.5" tabindex="101">
<title>
v:101
</title>
</circle>
<circle cx="261" cy="190" i="102" r="0.5" tabindex="102">
<title>
v:102
</title>
</circle>
<circle cx="300" cy="184" i="103" r="0.5" tabindex="103">
<title>
v:103
</title>
</circle>
<circle cx="210" cy="206" i="104" r="0.5" tabindex="104">
<title>
v:104
</title>
</circle>
<circle cx="278" cy="204" i="105" r="0.5" tabindex="105">
<title>
v:105
</title>
</circle>
<circle cx="225" cy="205" i="106" r="0.5" tabindex="106">
<title>
v:106
</title>
</circle>
<circle cx="294" cy="198" i="107" r="0.5" tabindex="107">
<title>
v:107
</title>
</circle>
<circle cx="264" cy="201" i="108" r="0.5" tabindex="108">
<title>
v:108
</title>
</circle>
<circle cx="146" cy="229" i="109" r="0.5" tabindex="109">
<title>
v:109
</title>
</circle>
<circle cx="182" cy="218" i="110" r="0.5" tabindex="110">
<title>
v:110
</title>
</circle>
<circle cx="271" cy="196" i="111" r="0.5" tabindex="111">
<title>
v:111
</title>
</circle>
<circle cx="73" cy="257" i="112" r="0.5" tabindex="112">
<title>
v:112
</title>
</circle>
<circle cx="263" cy="221" i="113" r="0.5" tabindex="113">
<title>
v:113
</title>
</circle>
<circle cx="333" cy="206" i="114" r="0.5" tabindex="114">
<title>
v:114
</title>
</circle>
<circle cx="195" cy="218" i="115" r="0.5" tabindex="115">
<title>
v:115
</title>
</circle>
<circle cx="146" cy="242" i="116" r="0.5" tabindex="116">
<title>
v:116
</title>
</circle>
<circle cx="190" cy="230" i="117" r="0.5" tabindex="117">
<title>
v:117
</title>
</circle>
<circle cx="187" cy="240" i="118" r="0.5" tabindex="118">
<title>
v:118
</title>
</circle>
<circle cx="152" cy="234" i="119" r="0.5" tabindex="119">
<title>
v:119
</title>
</circle>
<circle cx="284" cy="225" i="120" r="0.5" tabindex="120">
<title>
v:120
</title>
</circle>
<circle cx="111" cy="249" i="121" r="0.5" tabindex="121">
<title>
v:121
</title>
</circle>
<circle cx="252" cy="229" i="122" r="0.5" tabindex="122">
<title>
v:122
</title>
</circle>
<circle cx="179" cy="235" i="123" r="0.5" tabindex="123">
<title>
v:123
</title>
</circle>
<circle cx="177" cy="243" i="124" r="0.5" tabindex="124">
<title>
v:124
</title>
</circle>
<circle cx="309" cy="217" i="125" r="0.5" tabindex="125">
<title>
v:125
</title>
</circle>
<circle cx="308" cy="224" i="126" r="0.5" tabindex="126">
<title>
v:126
</title>
</circle>
<circle cx="214" cy="238" i="127" r="0.5" tabindex="127">
<title>
v:127
</title>
</circle>
<circle cx="226" cy="254" i="128" r="0.5" tabindex="128">
<title>
v:128
</title>
</circle>
<circle cx="286" cy="221" i="129" r="0.5" tabindex="129">
<title>
v:129
</title>
</circle>
<circle cx="234" cy="223" i="130" r="0.5" tabindex="130">
<title>
v:130
</title>
</circle>
<circle cx="223" cy="240" i="131" r="0.5" tabindex="131">
<title>
v:131
</title>
</circle>
<circle cx="258" cy="245" i="132" r="0.5" tabindex="132">
<title>
v:132
</title>
</circle>
<circle cx="229" cy="256" i="133" r="0.5" tabindex="133">
<title>
v:133
</title>
</circle>
<circle cx="173" cy="252" i="134" r="0.5" tabindex="134">
<title>
v:134
</title>
</circle>
<circle cx="267" cy="241" i="135" r="0.5" tabindex="135">
<title>
v:135
</title>
</circle>
<circle cx="278" cy="246" i="136" r="0.5" tabindex="136">
<title>
v:136
</title>
</circle>
<circle cx="195" cy="259" i="137" r="0.5" tabindex="137">
<title>
v:137
</title>
</circle>
<circle cx="158" cy="264" i="138" r="0.5" tabindex="138">
<title>
v:138
</title>
</circle>
<circle cx="179" cy="273" i="139" r="0.5" tabindex="139">
<title>
v:139
</title>
</circle>
<circle cx="98" cy="286" i="140" r="0.5" tabindex="140">
<title>
v:140
</title>
</circle>
<circle cx="182" cy="268" i="141" r="0.5" tabindex="141">
<title>
v:141
</title>
</circle>
<circle cx="204" cy="266" i="142" r="0.5" tabindex="142">
<title>
v:142
</title>
</circle>
<circle cx="224" cy="253" i="143" r="0.5" tabindex="143">
<title>
v:143
</title>
</circle>
<circle cx="165" cy="271" i="144" r="0.5" tabindex="144">
<title>
v:144
</title>
</circle>
<circle cx="216" cy="270" i="145" r="0.5" tabindex="145">
<title>
v:145
</title>
</circle>
<circle cx="218" cy="263" i="146" r="0.5" tabindex="146">
<title>
v:146
</title>
</circle>
<circle cx="284" cy="251" i="147" r="0.5" tabindex="147">
<title>
v:147
</title>
</circle>
<circle cx="204" cy="278" i="148" r="0.5" tabindex="148">
<title>
v:148
</title>
</circle>
<circle cx="270" cy="259" i="149" r="0.5" tabindex="149">
<title>
v:149
</title>
</circle>
<circle cx="221" cy="274" i="150" r="0.5" tabindex="150">
<title>
v:150
</title>
</circle>
<circle cx="116" cy="311" i="151" r="0.5" tabindex="151">
<title>
v:151
</title>
</circle>
<circle cx="164" cy="287" i="152" r="0.5" tabindex="152">
<title>
v:152
</title>
</circle>
<circle cx="154" cy="298" i="153" r="0.5" tabindex="153">
<title>
v:153
</title>
</circle>
<circle cx="140" cy="282" i="154" r="0.5" tabindex="154">
<title>
v:154
</title>
</circle>
<circle cx="237" cy="265" i="155" r="0.5" tabindex="155">
<title>
v:155
</title>
</circle>
<circle cx="211" cy="268" i="156" r="0.5" tabindex="156">
<title>
v:156
</title>
</circle>
<circle cx="197" cy="283" i="157" r="0.5" tabindex="157">
<title>
v:157
</title>
</circle>
<circle cx="131" cy="295" i="158" r="0.5" tabindex="158">
<title>
v:158
</title>
</circle>
<circle cx="234" cy="273" i="159" r="0.5" tabindex="159">
<title>
v:159
</title>
</circle>
<circle cx="197" cy="287" i="160" r="0.5" tabindex="160">
<title>
v:160
</title>
</circle>
<circle cx="172" cy="302" i="161" r="0.5" tabindex="161">
<title>
v:161
</title>
</circle>
<circle cx="167" cy="301" i="162" r="0.5" tabindex="162">
<title>
v:162
</title>
</circle>
<circle cx="223" cy="290" i="163" r="0.5" tabindex="163">
<title>
v:163
</title>
</circle>
<circle cx="102" cy="305" i="164" r="0.5" tabindex="164">
<title>
v:164
</title>
</circle>
<circle cx="247" cy="276" i="165" r="0.5" tabindex="165">
<title>
v:165
</title>
</circle>
<circle cx="144" cy="314" i="166" r="0.5" tabindex="166">
<title>
v:166
</title>
</circle>
<circle cx="223" cy="305" i="167" r="0.5" tabindex="167">
<title>
v:167
</title>
</circle>
<circle cx="137" cy="312" i="168" r="0.5" tabindex="168">
<title>
v:168
</title>
</circle>
<circle cx="118" cy="317" i="169" r="0.5" tabindex="169">
<title>
v:169
</title>
</circle>
<circle cx="133" cy="311" i="170" r="0.5" tabindex="170">
<title>
v:170
</title>
</circle>
<circle cx="97" cy="337" i="171" r="0.5" tabindex="171">
<title>
v:171
</title>
</circle>
<circle cx="191" cy="306" i="172" r="0.5" tabindex="172">
<title>
v:172
</title>
</circle>
<circle cx="236" cy="293" i="173" r="0.5" tabindex="173">
<title>
v:173
</title>
</circle>
<circle cx="214" cy="299" i="174" r="0.5" tabindex="174">
<title>
v:174
</title>
</circle>
<circle cx="112" cy="312" i="175" r="0.5" tabindex="175">
<title>
v:175
</title>
</circle>
<circle cx="188" cy="312" i="176" r="0.5" tabindex="176">
<title>
v:176
</title>
</circle>
<circle cx="157" cy="319" i="177" r="0.5" tabindex="177">
<title>
v:177
</title>
</circle>
<circle cx="109" cy="344" i="178" r="0.5" tabindex="178">
<title>
v:178
</title>
</circle>
<circle cx="162" cy="313" i="179" r="0.5" tabindex="179">
<title>
v:179
</title>
</circle>
<circle cx="119" cy="318" i="180" r="0.5" tabindex="180">
<title>
v:180
</title>
</circle>
<circle cx="146" cy="326" i="181" r="0.5" tabindex="181">
<title>
v:181
</title>
</circle>
<circle cx="72" cy="323" i="182" r="0.5" tabindex="182">
<title>
v:182
</title>
</circle>
<circle cx="227" cy="322" i="183" r="0.5" tabindex="183">
<title>
v:183
</title>
</circle>
<circle cx="108" cy="331" i="184" r="0.5" tabindex="184">
<title>
v:184
</title>
</circle>
<circle cx="165" cy="332" i="185" r="0.5" tabindex="185">
<title>
v:185
</title>
</circle>
<circle cx="158" cy="333" i="186" r="0.5" tabindex="186">
<title>
v:186
</title>
</circle>
<circle cx="258" cy="309" i="187" r="0.5" tabindex="187">
<title>
v:187
</title>
</circle>
<circle cx="99" cy="336" i="188" r="0.5" tabindex="188">
<title>
v:188
</title>
</circle>
<circle cx="130" cy="343" i="189" r="0.5" tabindex="189">
<title>
v:189
</title>
</circle>
<circle cx="124" cy="333" i="190" r="0.5" tabindex="190">
<title>
v:190
</title>
</circle>
<circle cx="230" cy="320" i="191" r="0.5" tabindex="191">
<title>
v:191
</title>
</circle>
<circle cx="231" cy="318" i="192" r="0.5" tabindex="192">
<title>
v:192
</title>
</circle>
<circle cx="184" cy="333" i="193" r="0.5" tabindex="193">
<title>
v:193
</title>
</circle>
<circle cx="253" cy="319" i="194" r="0.5" tabindex="194">
<title>
v:194
</title>
</circle>
<circle cx="154" cy="341" i="195" r="0.5" tabindex="195">
<title>
v:195
</title>
</circle>
<circle cx="131" cy="346" i="196" r="0.5" tabindex="196">
<title>
v:196
</title>
</circle>
<circle cx="199" cy="335" i="197" r="0.5" tabindex="197">
<title>
v:197
</title>
</circle>
<circle cx="154" cy="354" i="198" r="0.5" tabindex="198">
<title>
v:198
</title>
</circle>
<circle cx="213" cy="335" i="199" r="0.5" tabindex="199">
<title>
v:199
</title>
</circle>
<circle cx="222" cy="340" i="200" r="0.5" tabindex="200">
<title>
v:200
</title>
</circle>
<circle cx="137" cy="350" i="201" r="0.5" tabindex="201">
<title>
v:201
</title>
</circle>
<circle cx="187" cy="347" i="202" r="0.5" tabindex="202">
<title>
v:202
</title>
</circle>
<circle cx="203" cy="350" i="203" r="0.5" tabindex="203">
<title>
v:203
</title>
</circle>
<circle cx="129" cy="379" i="204" r="0.5" tabindex="204">
<title>
v:204
</title>
</circle>
<circle cx="230" cy="367" i="205" r="0.5" tabindex="205">
<title>
v:205
</title>
</circle>
<circle cx="189" cy="368" i="206" r="0.5" tabindex="206">
<title>
v:206
</title>
</circle>
<circle cx="161" cy="388" i="207" r="0.5" tabindex="207">
<title>
v:207
</title>
</circle>
<circle cx="104" cy="395" i="208" r="0.5" tabindex="208">
<title>
v:208
</title>
</circle>
<circle cx="137" cy="404" i="209" r="0.5" tabindex="209">
<title>
v:209
</title>
</circle>
<circle cx="160" cy="416" i="210" r="0.5" tabindex="210">
<title>
v:210
</title>
</circle>
<circle cx="199" cy="404" i="211" r="0.5" tabindex="211">
<title>
v:211
</title>
</circle>
<circle cx="91" cy="433" i="212" r="0.5" tabindex="212">
<title>
v:212
</title>
</circle>
<circle cx="119" cy="433" i="213" r="0.5" tabindex="213">
<title>
v:213
</title>
</circle>
<circle cx="82" cy="457" i="214" r="0.5" tabindex="214">
<title>
v:214
</title>
</circle>
</g>
</svg>