<svg height="500" viewBox="0 -2 129 134" width="500" xmlns="http://www.w3.org/2000/svg">
<path class="hole" d="M8 45L15 53L27 61L26 73L2 82L11 102L2 107L2 130L13 130L15 118L24 121L36 126L37 92L47 112L47 126L58 116L70 118L76 105L86 109L98 130L109 130L104 116L117 108L127 99L127 76L106 88L108 71L91 69L111 53L127 50L119 38L127 25L127 9L105 39L108 15L116 6L94 0L84 2L74 14L73 28L80 38L60 40L60 26L47 22L71 1L45 3L27 0L2 2L16 11L31 22L40 37L55 58L25 40L12 21L2 27L2 37M0 -2L129 -2L129 132L0 132" style="fill:#00000066;fill-rule:evenodd;"/>
<circle cx="26" cy="105" fill="#ffff0066" r="5">
<title>
BreakALeg@114
</title>
</circle>
<circle cx="92" cy="15" fill="#ffff0066" r="5">
<title>
SuperFlex@113
</title>
</circle>
<circle cx="41" cy="78" fill="#ffff0066" r="5">
<title>
Globalist@24
</title>
</circle>
<path class="ok" d="M27 80L42 65M42 65L62 70M47 85L67 75M52 50L62 60M57 45L67 55M62 60L62 70M62 60L67 55M62 70L67 75M62 85L62 105M62 85L67 80M67 55L77 55M67 75L67 80M67 80L77 80M77 55L82 60M77 55L87 45M77 75L77 80M77 75L82 70M77 75L97 85M77 80L82 85M82 35L87 45M82 35L92 35M82 60L82 70M82 60L92 50M82 85L82 105M92 35L97 20M92 50L102 45M97 85L107 110" style="stroke:#0000ff;stroke-linecap:round"/>
<path class="out" d="M37 110L47 85M42 45L52 50M47 20L52 35M52 35L62 35M57 45L62 35M62 35L72 30M62 105L72 115M72 30L82 35M72 115L82 105M82 70L102 65M102 65L117 80" style="stroke:#ff0000;stroke-linecap:round"/>
<g fill="#333333">
<circle cx="8" cy="45" r="0.5">
<title>
hole:0
</title>
</circle>
<circle cx="15" cy="53" r="0.5">
<title>
hole:1
</title>
</circle>
<circle cx="27" cy="61" r="0.5">
<title>
hole:2
</title>
</circle>
<circle cx="26" cy="73" r="0.5">
<title>
hole:3
</title>
</circle>
<circle cx="2" cy="82" r="0.5">
<title>
hole:4
</title>
</circle>
<circle cx="11" cy="102" r="0.5">
<title>
hole:5
</title>
</circle>
<circle cx="2" cy="107" r="0.5">
<title>
hole:6
</title>
</circle>
<circle cx="2" cy="130" r="0.5">
<title>
hole:7
</title>
</circle>
<circle cx="13" cy="130" r="0.5">
<title>
hole:8
</title>
</circle>
<circle cx="15" cy="118" r="0.5">
<title>
hole:9
</title>
</circle>
<circle cx="24" cy="121" r="0.5">
<title>
hole:10
</title>
</circle>
<circle cx="36" cy="126" r="0.5">
<title>
hole:11
</title>
</circle>
<circle cx="37" cy="92" r="0.5">
<title>
hole:12
</title>
</circle>
<circle cx="47" cy="112" r="0.5">
<title>
hole:13
</title>
</circle>
<circle cx="47" cy="126" r="0.5">
<title>
hole:14
</title>
</circle>
<circle cx="58" cy="116" r="0.5">
<title>
hole:15
</title>
</circle>
<circle cx="70" cy="118" r="0.5">
<title>
hole:16
</title>
</circle>
<circle cx="76" cy="105" r="0.5">
<title>
hole:17
</title>
</circle>
<circle cx="86" cy="109" r="0.5">
<title>
hole:18
</title>
</circle>
<circle cx="98" cy="130" r="0.5">
<title>
hole:19
</title>
</circle>
<circle cx="109" cy="130" r="0.5">
<title>
hole:20
</title>
</circle>
<circle cx="104" cy="116" r="0.5">
<title>
hole:21
</title>
</circle>
<circle cx="117" cy="108" r="0.5">
<title>
hole:22
</title>
</circle>
<circle cx="127" cy="99" r="0.5">
<title>
hole:23
</title>
</circle>
<circle cx="127" cy="76" r="0.5">
<title>
hole:24
</title>
</circle>
<circle cx="106" cy="88" r="0.5">
<title>
hole:25
</title>
</circle>
<circle cx="108" cy="71" r="0.5">
<title>
hole:26
</title>
</circle>
<circle cx="91" cy="69" r="0.5">
<title>
hole:27
</title>
</circle>
<circle cx="111" cy="53" r="0.5">
<title>
hole:28
</title>
</circle>
<circle cx="127" cy="50" r="0.5">
<title>
hole:29
</title>
</circle>
<circle cx="119" cy="38" r="0.5">
<title>
hole:30
</title>
</circle>
<circle cx="127" cy="25" r="0.5">
<title>
hole:31
</title>
</circle>
<circle cx="127" cy="9" r="0.5">
<title>
hole:32
</title>
</circle>
<circle cx="105" cy="39" r="0.5">
<title>
hole:33
</title>
</circle>
<circle cx="108" cy="15" r="0.5">
<title>
hole:34
</title>
</circle>
<circle cx="116" cy="6" r="0.5">
<title>
hole:35
</title>
</circle>
<circle cx="94" cy="0" r="0.5">
<title>
hole:36
</title>
</circle>
<circle cx="84" cy="2" r="0.5">
<title>
hole:37
</title>
</circle>
<circle cx="74" cy="14" r="0.5">
<title>
hole:38
</title>
</circle>
<circle cx="73" cy="28" r="0.5">
<title>
hole:39
</title>
</circle>
<circle cx="80" cy="38" r="0.5">
<title>
hole:40
</title>
</circle>
<circle cx="60" cy="40" r="0.5">
<title>
hole:41
</title>
</circle>
<circle cx="60" cy="26" r="0.5">
<title>
hole:42
</title>
</circle>
<circle cx="47" cy="22" r="0.5">
<title>
hole:43
</title>
</circle>
<circle cx="71" cy="1" r="0.5">
<title>
hole:44
</title>
</circle>
<circle cx="45" cy="3" r="0.5">
<title>
hole:45
</title>
</circle>
<circle cx="27" cy="0" r="0.5">
<title>
hole:46
</title>
</circle>
<circle cx="2" cy="2" r="0.5">
<title>
hole:47
</title>
</circle>
<circle cx="16" cy="11" r="0.5">
<title>
hole:48
</title>
</circle>
<circle cx="31" cy="22" r="0.5">
<title>
hole:49
</title>
</circle>
<circle cx="40" cy="37" r="0.5">
<title>
hole:50
</title>
</circle>
<circle cx="55" cy="58" r="0.5">
<title>
hole:51
</title>
</circle>
<circle cx="25" cy="40" r="0.5">
<title>
hole:52
</title>
</circle>
<circle cx="12" cy="21" r="0.5">
<title>
hole:53
</title>
</circle>
<circle cx="2" cy="27" r="0.5">
<title>
hole:54
</title>
</circle>
<circle cx="2" cy="37" r="0.5">
<title>
hole:55
</title>
</circle>
</g>
<g fill="#999999">
<circle cx="27" cy="80" i="0" r="0.5" tabindex="0">
<title>
v:0
</title>
</circle>
<circle cx="37" cy="110" i="1" r="0.5" tabindex="1">
<title>
v:1
</title>
</circle>
<circle cx="42" cy="45" i="2" r="0.5" tabindex="2">
<title>
v:2
</title>
</circle>
<circle cx="42" cy="65" i="3" r="0.5" tabindex="3">
<title>
v:3
</title>
</circle>
<circle cx="47" cy="20" i="4" r="0.5" tabindex="4">
<title>
v:4
</title>
</circle>
<circle cx="47" cy="85" i="5" r="0.5" tabindex="5">
<title>
v:5
</title>
</circle>
<circle cx="52" cy="35" i="6" r="0.5" tabindex="6">
<title>
v:6
</title>
</circle>
<circle cx="52" cy="50" i="7" r="0.5" tabindex="7">
<title>
v:7
</title>
</circle>
<circle cx="57" cy="45" i="8" r="0.5" tabindex="8">
<title>
v:8
</title>
</circle>
<circle cx="62" cy="35" i="9" r="0.5" tabindex="9">
<title>
v:9
</title>
</circle>
<circle cx="62" cy="60" i="10" r="0.5" tabindex="10">
<title>
v:10
</title>
</circle>
<circle cx="62" cy="70" i="11" r="0.5" tabindex="11">
<title>
v:11
</title>
</circle>
<circle cx="62" cy="85" i="12" r="0.5" tabindex="12">
<title>
v:12
</title>
</circle>
<circle cx="62" cy="105" i="13" r="0.5" tabindex="13">
<title>
v:13
</title>
</circle>
<circle cx="67" cy="55" i="14" r="0.5" tabindex="14">
<title>
v:14
</title>
</circle>
<circle cx="67" cy="75" i="15" r="0.5" tabindex="15">
<title>
v:15
</title>
</circle>
<circle cx="67" cy="80" i="16" r="0.5" tabindex="16">
<title>
v:16
</title>
</circle>
<circle cx="72" cy="30" i="17" r="0.5" tabindex="17">
<title>
v:17
</title>
</circle>
<circle cx="72" cy="115" i="18" r="0.5" tabindex="18">
<title>
v:18
</title>
</circle>
<circle cx="77" cy="55" i="19" r="0.5" tabindex="19">
<title>
v:19
</title>
</circle>
<circle cx="77" cy="75" i="20" r="0.5" tabindex="20">
<title>
v:20
</title>
</circle>
<circle cx="77" cy="80" i="21" r="0.5" tabindex="21">
<title>
v:21
</title>
</circle>
<circle cx="82" cy="35" i="22" r="0.5" tabindex="22">
<title>
v:22
</title>
</circle>
<circle cx="82" cy="60" i="23" r="0.5" tabindex="23">
<title>
v:23
</title>
</circle>
<circle cx="82" cy="70" i="24" r="0.5" tabindex="24">
<title>
v:24
</title>
</circle>
<circle cx="82" cy="85" i="25" r="0.5" tabindex="25">
<title>
v:25
</title>
</circle>
<circle cx="82" cy="105" i="26" r="0.5" tabindex="26">
<title>
v:26
</title>
</circle>
<circle cx="87" cy="45" i="27" r="0.5" tabindex="27">
<title>
v:27
</title>
</circle>
<circle cx="92" cy="35" i="28" r="0.5" tabindex="28">
<title>
v:28
</title>
</circle>
<circle cx="92" cy="50" i="29" r="0.5" tabindex="29">
<title>
v:29
</title>
</circle>
<circle cx="97" cy="20" i="30" r="0.5" tabindex="30">
<title>
v:30
</title>
</circle>
<circle cx="97" cy="85" i="31" r="0.5" tabindex="31">
<title>
v:31
</title>
</circle>
<circle cx="102" cy="45" i="32" r="0.5" tabindex="32">
<title>
v:32
</title>
</circle>
<circle cx="102" cy="65" i="33" r="0.5" tabindex="33">
<title>
v:33
</title>
</circle>
<circle cx="107" cy="110" i="34" r="0.5" tabindex="34">
<title>
v:34
</title>
</circle>
<circle cx="117" cy="80" i="35" r="0.5" tabindex="35">
<title>
v:35
</title>
</circle>
</g>
</svg>