<svg height="500" viewBox="0 -2 465 449" width="500" xmlns="http://www.w3.org/2000/svg">
<path class="hole" d="M2 247L42 264L5 289L17 320L58 304L107 288L105 311L82 329L94 352L122 344L125 322L130 293L192 299L183 331L215 346L225 341L247 362L236 363L205 359L193 390L212 408L242 394L263 410L264 440L303 445L298 403L324 421L329 390L324 370L294 373L277 345L303 358L326 357L341 381L374 371L347 382L356 408L385 398L419 393L430 368L434 332L420 323L411 298L400 293L401 292L441 258L463 251L448 223L440 207L429 196L406 218L428 231L410 254L388 252L395 229L398 216L364 197L360 171L375 147L351 126L333 157L312 140L345 130L348 96L360 57L323 34L305 77L277 48L271 18L230 0L190 3L207 43L174 73L187 104L196 111L246 110L289 113L269 131L240 144L248 166L232 190L256 204L284 209L251 220L251 234L234 249L227 203L181 170L131 203L182 226L144 240L110 244L128 221L108 184L77 189L73 234L56 192L14 194M0 -2L465 -2L465 447L0 447" style="fill:#00000066;fill-rule:evenodd;"/>
<circle cx="35" cy="225" fill="#ffff0066" r="5">
<title>
Globalist@130
</title>
</circle>
<circle cx="77" cy="270" fill="#ffff0066" r="5">
<title>
Globalist@126
</title>
</circle>
<circle cx="272" cy="84" fill="#ffff0066" r="5">
<title>
WallHack@52
</title>
</circle>
<path class="ok" d="" style="stroke:#0000ff;stroke-linecap:round"/>
<path class="out" d="M74 103L59 51M74 103L40 76M75 49L96 24M75 49L40 76M59 51L17 55M96 24L54 36M40 76L54 36M40 76L59 37M17 55L59 37M54 36L30 81M59 37L31 73M59 37L73 73M31 73L45 102M27 90L52 93M27 90L53 77M52 93L23 96M53 77L30 81M53 77L30 75M30 81L73 73M30 81L35 104M45 102L87 99M73 73L87 99M73 73L65 40M23 96L30 75M30 75L35 104M35 104L40 68M63 20L94 71M63 20L38 69M65 40L40 68M65 40L38 69M57 36L33 76M57 36L14 41M40 68L14 41M38 110L69 97M38 110L21 69M94 71L38 69M94 71L61 25M38 69L14 41M38 69L61 25M59 96L33 76M59 96L82 70M69 97L34 72M59 91L21 69M59 91L67 52M33 76L14 41M33 76L54 44M48 65L71 41M48 65L26 79M14 41L45 68M52 96L23 73M52 96L13 64M23 73L36 28M71 41L41 33M21 69L67 52M21 69L36 28M68 64L62 38M68 64L33 52M26 79L42 39M26 79L54 62M82 70L54 44M62 38L36 53M62 38L61 64M61 25L45 68M54 44L16 41M67 52L42 89M34 72L36 28M84 63L58 76M84 63L62 45M84 63L39 57M45 68L16 41M45 68L2 82M41 33L54 62M41 33L22 49M42 39L36 53M42 39L33 58M35 79L58 76M35 79L21 50M35 79L42 33M39 75L33 52M39 75L61 63M54 62L33 58M54 62L22 49M54 62L49 36M36 28L13 64M36 28L56 61M13 64L31 25M33 52L61 64M33 52L57 39M36 53L61 64M36 53L22 49M58 76L39 57M61 64L16 41M61 64L45 39M61 64L29 82M27 49L40 82M27 49L48 21M40 82L65 58M16 41L53 17M62 45L64 66M62 45L48 21M33 58L22 49M33 58L35 36M22 49L34 63M22 49L45 39M22 49L35 36M22 49L47 72M49 36L79 38M49 36L75 60M79 38L39 37M31 86L40 51M31 86L40 50M61 63L57 39M2 82L30 52M21 50L51 50M21 50L42 33M21 50L31 25M51 50L50 77M51 50L42 33M34 63L41 46M50 77L63 52M42 89L56 61M40 51L52 90M40 51L73 66M57 39L53 66M39 57L64 66M39 57L48 21M39 57L42 33M39 57L68 51M56 61L70 24M45 39L47 72M45 39L94 47M35 36L41 46M48 21L68 51M48 21L30 52M65 58L30 52M42 33L63 52M42 33L68 51M42 33L34 60M42 33L41 67M29 82L53 66M31 25L70 24M31 25L34 60M47 72L75 60M47 72L29 48M63 52L43 64M75 60L39 37M75 60L54 36M75 60L41 64M53 17L30 52M53 17L94 47M53 17L77 49M40 50L73 66M40 50L77 49M68 51L41 67M68 51L41 59M68 51L93 22M52 90L73 66M70 24L89 66M70 24L40 60M30 52L62 36M87 77L52 80M87 77L76 102M73 66L39 56M73 66L60 33M34 60L38 34M34 60L44 93M43 64L38 34M43 64L76 70M41 67L33 37M64 48L54 61M64 48L68 71M48 66L52 80M48 66L28 71M89 66L67 29M31 52L33 60M31 52L16 43M29 48L41 64M54 36L41 64M43 81L54 59M43 81L62 69M39 56L30 29M39 56L60 33M52 80L45 66M33 60L23 49M33 60L53 77M41 59L33 37M54 59L53 77M38 34L25 67M38 34L45 63M76 102L49 99M76 102L71 75M54 61L62 77M68 71L76 70M16 43L23 49M93 22L62 36M77 49L71 75M77 49L46 57M28 71L45 66M62 36L71 75M62 36L78 0M23 49L32 54M23 49L24 60M45 66L49 99M30 29L51 56M60 31L55 56M60 31L62 54M60 33L46 57M60 33L27 38M32 54L24 60M62 69L46 57M62 69L62 54M44 93L40 60M76 70L62 77M76 70L69 51M55 53L64 45M55 53L63 64M53 77L46 57M53 77L44 61M64 45L63 64M64 45L46 57M64 45L69 80M53 27L50 54M53 27L51 56M40 60L67 29M62 77L50 64M24 60L44 61M25 67L45 92M98 39L71 35M98 39L66 51M59 58L44 61M59 58L46 56M71 35L73 67M49 99L71 75M49 99L37 72M71 75L56 93M71 75L66 51M71 75L49 53M50 54L47 85M55 56L69 80M63 64L82 75M46 57L62 54M46 57L55 75M46 57L38 35M46 57L73 67M62 54L69 80M45 63L69 51M45 63L45 92M78 0L92 42M44 61L34 48M69 51L50 64M46 56L36 68M56 93L57 73M56 93L71 73M27 38L51 56M27 38L3 43M27 38L23 62M51 56L47 85M51 56L23 62M57 73L58 53M34 48L55 75M34 48L36 68M34 48L25 75M55 75L82 75M55 75L25 75M69 80L48 55M66 51L38 35M66 51L71 73M66 51L45 71M38 35L23 34M38 35L48 55M37 72L22 47M47 85L68 58M49 53L92 42M49 53L22 47M49 53L49 77M73 67L45 71M73 67L70 95M71 73L58 53M71 73L92 42M71 73L49 77M3 43L23 62M3 43L25 60M23 34L25 50M23 62L49 49M23 62L55 82M23 62L27 105M48 55L25 50M45 71L70 95M45 71L30 90M25 58L49 48M25 58L50 37M49 77L30 90M49 77L49 48M49 77L22 61M30 90L22 61M68 58L55 82M25 60L49 49M49 48L22 61M49 48L59 67M50 37L60 49M55 82L27 105M60 49L59 67M22 61L32 82M59 67L32 82" style="stroke:#ff0000;stroke-linecap:round"/>
<g fill="#333333">
<circle cx="2" cy="247" r="0.5">
<title>
hole:0
</title>
</circle>
<circle cx="42" cy="264" r="0.5">
<title>
hole:1
</title>
</circle>
<circle cx="5" cy="289" r="0.5">
<title>
hole:2
</title>
</circle>
<circle cx="17" cy="320" r="0.5">
<title>
hole:3
</title>
</circle>
<circle cx="58" cy="304" r="0.5">
<title>
hole:4
</title>
</circle>
<circle cx="107" cy="288" r="0.5">
<title>
hole:5
</title>
</circle>
<circle cx="105" cy="311" r="0.5">
<title>
hole:6
</title>
</circle>
<circle cx="82" cy="329" r="0.5">
<title>
hole:7
</title>
</circle>
<circle cx="94" cy="352" r="0.5">
<title>
hole:8
</title>
</circle>
<circle cx="122" cy="344" r="0.5">
<title>
hole:9
</title>
</circle>
<circle cx="125" cy="322" r="0.5">
<title>
hole:10
</title>
</circle>
<circle cx="130" cy="293" r="0.5">
<title>
hole:11
</title>
</circle>
<circle cx="192" cy="299" r="0.5">
<title>
hole:12
</title>
</circle>
<circle cx="183" cy="331" r="0.5">
<title>
hole:13
</title>
</circle>
<circle cx="215" cy="346" r="0.5">
<title>
hole:14
</title>
</circle>
<circle cx="225" cy="341" r="0.5">
<title>
hole:15
</title>
</circle>
<circle cx="247" cy="362" r="0.5">
<title>
hole:16
</title>
</circle>
<circle cx="236" cy="363" r="0.5">
<title>
hole:17
</title>
</circle>
<circle cx="205" cy="359" r="0.5">
<title>
hole:18
</title>
</circle>
<circle cx="193" cy="390" r="0.5">
<title>
hole:19
</title>
</circle>
<circle cx="212" cy="408" r="0.5">
<title>
hole:20
</title>
</circle>
<circle cx="242" cy="394" r="0.5">
<title>
hole:21
</title>
</circle>
<circle cx="263" cy="410" r="0.5">
<title>
hole:22
</title>
</circle>
<circle cx="264" cy="440" r="0.5">
<title>
hole:23
</title>
</circle>
<circle cx="303" cy="445" r="0.5">
<title>
hole:24
</title>
</circle>
<circle cx="298" cy="403" r="0.5">
<title>
hole:25
</title>
</circle>
<circle cx="324" cy="421" r="0.5">
<title>
hole:26
</title>
</circle>
<circle cx="329" cy="390" r="0.5">
<title>
hole:27
</title>
</circle>
<circle cx="324" cy="370" r="0.5">
<title>
hole:28
</title>
</circle>
<circle cx="294" cy="373" r="0.5">
<title>
hole:29
</title>
</circle>
<circle cx="277" cy="345" r="0.5">
<title>
hole:30
</title>
</circle>
<circle cx="303" cy="358" r="0.5">
<title>
hole:31
</title>
</circle>
<circle cx="326" cy="357" r="0.5">
<title>
hole:32
</title>
</circle>
<circle cx="341" cy="381" r="0.5">
<title>
hole:33
</title>
</circle>
<circle cx="374" cy="371" r="0.5">
<title>
hole:34
</title>
</circle>
<circle cx="347" cy="382" r="0.5">
<title>
hole:35
</title>
</circle>
<circle cx="356" cy="408" r="0.5">
<title>
hole:36
</title>
</circle>
<circle cx="385" cy="398" r="0.5">
<title>
hole:37
</title>
</circle>
<circle cx="419" cy="393" r="0.5">
<title>
hole:38
</title>
</circle>
<circle cx="430" cy="368" r="0.5">
<title>
hole:39
</title>
</circle>
<circle cx="434" cy="332" r="0.5">
<title>
hole:40
</title>
</circle>
<circle cx="420" cy="323" r="0.5">
<title>
hole:41
</title>
</circle>
<circle cx="411" cy="298" r="0.5">
<title>
hole:42
</title>
</circle>
<circle cx="400" cy="293" r="0.5">
<title>
hole:43
</title>
</circle>
<circle cx="401" cy="292" r="0.5">
<title>
hole:44
</title>
</circle>
<circle cx="441" cy="258" r="0.5">
<title>
hole:45
</title>
</circle>
<circle cx="463" cy="251" r="0.5">
<title>
hole:46
</title>
</circle>
<circle cx="448" cy="223" r="0.5">
<title>
hole:47
</title>
</circle>
<circle cx="440" cy="207" r="0.5">
<title>
hole:48
</title>
</circle>
<circle cx="429" cy="196" r="0.5">
<title>
hole:49
</title>
</circle>
<circle cx="406" cy="218" r="0.5">
<title>
hole:50
</title>
</circle>
<circle cx="428" cy="231" r="0.5">
<title>
hole:51
</title>
</circle>
<circle cx="410" cy="254" r="0.5">
<title>
hole:52
</title>
</circle>
<circle cx="388" cy="252" r="0.5">
<title>
hole:53
</title>
</circle>
<circle cx="395" cy="229" r="0.5">
<title>
hole:54
</title>
</circle>
<circle cx="398" cy="216" r="0.5">
<title>
hole:55
</title>
</circle>
<circle cx="364" cy="197" r="0.5">
<title>
hole:56
</title>
</circle>
<circle cx="360" cy="171" r="0.5">
<title>
hole:57
</title>
</circle>
<circle cx="375" cy="147" r="0.5">
<title>
hole:58
</title>
</circle>
<circle cx="351" cy="126" r="0.5">
<title>
hole:59
</title>
</circle>
<circle cx="333" cy="157" r="0.5">
<title>
hole:60
</title>
</circle>
<circle cx="312" cy="140" r="0.5">
<title>
hole:61
</title>
</circle>
<circle cx="345" cy="130" r="0.5">
<title>
hole:62
</title>
</circle>
<circle cx="348" cy="96" r="0.5">
<title>
hole:63
</title>
</circle>
<circle cx="360" cy="57" r="0.5">
<title>
hole:64
</title>
</circle>
<circle cx="323" cy="34" r="0.5">
<title>
hole:65
</title>
</circle>
<circle cx="305" cy="77" r="0.5">
<title>
hole:66
</title>
</circle>
<circle cx="277" cy="48" r="0.5">
<title>
hole:67
</title>
</circle>
<circle cx="271" cy="18" r="0.5">
<title>
hole:68
</title>
</circle>
<circle cx="230" cy="0" r="0.5">
<title>
hole:69
</title>
</circle>
<circle cx="190" cy="3" r="0.5">
<title>
hole:70
</title>
</circle>
<circle cx="207" cy="43" r="0.5">
<title>
hole:71
</title>
</circle>
<circle cx="174" cy="73" r="0.5">
<title>
hole:72
</title>
</circle>
<circle cx="187" cy="104" r="0.5">
<title>
hole:73
</title>
</circle>
<circle cx="196" cy="111" r="0.5">
<title>
hole:74
</title>
</circle>
<circle cx="246" cy="110" r="0.5">
<title>
hole:75
</title>
</circle>
<circle cx="289" cy="113" r="0.5">
<title>
hole:76
</title>
</circle>
<circle cx="269" cy="131" r="0.5">
<title>
hole:77
</title>
</circle>
<circle cx="240" cy="144" r="0.5">
<title>
hole:78
</title>
</circle>
<circle cx="248" cy="166" r="0.5">
<title>
hole:79
</title>
</circle>
<circle cx="232" cy="190" r="0.5">
<title>
hole:80
</title>
</circle>
<circle cx="256" cy="204" r="0.5">
<title>
hole:81
</title>
</circle>
<circle cx="284" cy="209" r="0.5">
<title>
hole:82
</title>
</circle>
<circle cx="251" cy="220" r="0.5">
<title>
hole:83
</title>
</circle>
<circle cx="251" cy="234" r="0.5">
<title>
hole:84
</title>
</circle>
<circle cx="234" cy="249" r="0.5">
<title>
hole:85
</title>
</circle>
<circle cx="227" cy="203" r="0.5">
<title>
hole:86
</title>
</circle>
<circle cx="181" cy="170" r="0.5">
<title>
hole:87
</title>
</circle>
<circle cx="131" cy="203" r="0.5">
<title>
hole:88
</title>
</circle>
<circle cx="182" cy="226" r="0.5">
<title>
hole:89
</title>
</circle>
<circle cx="144" cy="240" r="0.5">
<title>
hole:90
</title>
</circle>
<circle cx="110" cy="244" r="0.5">
<title>
hole:91
</title>
</circle>
<circle cx="128" cy="221" r="0.5">
<title>
hole:92
</title>
</circle>
<circle cx="108" cy="184" r="0.5">
<title>
hole:93
</title>
</circle>
<circle cx="77" cy="189" r="0.5">
<title>
hole:94
</title>
</circle>
<circle cx="73" cy="234" r="0.5">
<title>
hole:95
</title>
</circle>
<circle cx="56" cy="192" r="0.5">
<title>
hole:96
</title>
</circle>
<circle cx="14" cy="194" r="0.5">
<title>
hole:97
</title>
</circle>
</g>
<g fill="#999999">
<circle cx="74" cy="103" i="0" r="0.5" tabindex="0">
<title>
v:0
</title>
</circle>
<circle cx="75" cy="49" i="1" r="0.5" tabindex="1">
<title>
v:1
</title>
</circle>
<circle cx="59" cy="51" i="2" r="0.5" tabindex="2">
<title>
v:2
</title>
</circle>
<circle cx="96" cy="24" i="3" r="0.5" tabindex="3">
<title>
v:3
</title>
</circle>
<circle cx="40" cy="76" i="4" r="0.5" tabindex="4">
<title>
v:4
</title>
</circle>
<circle cx="17" cy="55" i="5" r="0.5" tabindex="5">
<title>
v:5
</title>
</circle>
<circle cx="54" cy="36" i="6" r="0.5" tabindex="6">
<title>
v:6
</title>
</circle>
<circle cx="59" cy="37" i="7" r="0.5" tabindex="7">
<title>
v:7
</title>
</circle>
<circle cx="31" cy="73" i="8" r="0.5" tabindex="8">
<title>
v:8
</title>
</circle>
<circle cx="27" cy="90" i="9" r="0.5" tabindex="9">
<title>
v:9
</title>
</circle>
<circle cx="52" cy="93" i="10" r="0.5" tabindex="10">
<title>
v:10
</title>
</circle>
<circle cx="53" cy="77" i="11" r="0.5" tabindex="11">
<title>
v:11
</title>
</circle>
<circle cx="30" cy="81" i="12" r="0.5" tabindex="12">
<title>
v:12
</title>
</circle>
<circle cx="45" cy="102" i="13" r="0.5" tabindex="13">
<title>
v:13
</title>
</circle>
<circle cx="73" cy="73" i="14" r="0.5" tabindex="14">
<title>
v:14
</title>
</circle>
<circle cx="23" cy="96" i="15" r="0.5" tabindex="15">
<title>
v:15
</title>
</circle>
<circle cx="30" cy="75" i="16" r="0.5" tabindex="16">
<title>
v:16
</title>
</circle>
<circle cx="87" cy="99" i="17" r="0.5" tabindex="17">
<title>
v:17
</title>
</circle>
<circle cx="35" cy="104" i="18" r="0.5" tabindex="18">
<title>
v:18
</title>
</circle>
<circle cx="63" cy="20" i="19" r="0.5" tabindex="19">
<title>
v:19
</title>
</circle>
<circle cx="65" cy="40" i="20" r="0.5" tabindex="20">
<title>
v:20
</title>
</circle>
<circle cx="57" cy="36" i="21" r="0.5" tabindex="21">
<title>
v:21
</title>
</circle>
<circle cx="40" cy="68" i="22" r="0.5" tabindex="22">
<title>
v:22
</title>
</circle>
<circle cx="38" cy="110" i="23" r="0.5" tabindex="23">
<title>
v:23
</title>
</circle>
<circle cx="94" cy="71" i="24" r="0.5" tabindex="24">
<title>
v:24
</title>
</circle>
<circle cx="38" cy="69" i="25" r="0.5" tabindex="25">
<title>
v:25
</title>
</circle>
<circle cx="59" cy="96" i="26" r="0.5" tabindex="26">
<title>
v:26
</title>
</circle>
<circle cx="69" cy="97" i="27" r="0.5" tabindex="27">
<title>
v:27
</title>
</circle>
<circle cx="59" cy="91" i="28" r="0.5" tabindex="28">
<title>
v:28
</title>
</circle>
<circle cx="33" cy="76" i="29" r="0.5" tabindex="29">
<title>
v:29
</title>
</circle>
<circle cx="48" cy="65" i="30" r="0.5" tabindex="30">
<title>
v:30
</title>
</circle>
<circle cx="14" cy="41" i="31" r="0.5" tabindex="31">
<title>
v:31
</title>
</circle>
<circle cx="52" cy="96" i="32" r="0.5" tabindex="32">
<title>
v:32
</title>
</circle>
<circle cx="23" cy="73" i="33" r="0.5" tabindex="33">
<title>
v:33
</title>
</circle>
<circle cx="71" cy="41" i="34" r="0.5" tabindex="34">
<title>
v:34
</title>
</circle>
<circle cx="21" cy="69" i="35" r="0.5" tabindex="35">
<title>
v:35
</title>
</circle>
<circle cx="68" cy="64" i="36" r="0.5" tabindex="36">
<title>
v:36
</title>
</circle>
<circle cx="26" cy="79" i="37" r="0.5" tabindex="37">
<title>
v:37
</title>
</circle>
<circle cx="82" cy="70" i="38" r="0.5" tabindex="38">
<title>
v:38
</title>
</circle>
<circle cx="62" cy="38" i="39" r="0.5" tabindex="39">
<title>
v:39
</title>
</circle>
<circle cx="61" cy="25" i="40" r="0.5" tabindex="40">
<title>
v:40
</title>
</circle>
<circle cx="54" cy="44" i="41" r="0.5" tabindex="41">
<title>
v:41
</title>
</circle>
<circle cx="67" cy="52" i="42" r="0.5" tabindex="42">
<title>
v:42
</title>
</circle>
<circle cx="34" cy="72" i="43" r="0.5" tabindex="43">
<title>
v:43
</title>
</circle>
<circle cx="84" cy="63" i="44" r="0.5" tabindex="44">
<title>
v:44
</title>
</circle>
<circle cx="45" cy="68" i="45" r="0.5" tabindex="45">
<title>
v:45
</title>
</circle>
<circle cx="41" cy="33" i="46" r="0.5" tabindex="46">
<title>
v:46
</title>
</circle>
<circle cx="42" cy="39" i="47" r="0.5" tabindex="47">
<title>
v:47
</title>
</circle>
<circle cx="35" cy="79" i="48" r="0.5" tabindex="48">
<title>
v:48
</title>
</circle>
<circle cx="39" cy="75" i="49" r="0.5" tabindex="49">
<title>
v:49
</title>
</circle>
<circle cx="54" cy="62" i="50" r="0.5" tabindex="50">
<title>
v:50
</title>
</circle>
<circle cx="36" cy="28" i="51" r="0.5" tabindex="51">
<title>
v:51
</title>
</circle>
<circle cx="13" cy="64" i="52" r="0.5" tabindex="52">
<title>
v:52
</title>
</circle>
<circle cx="33" cy="52" i="53" r="0.5" tabindex="53">
<title>
v:53
</title>
</circle>
<circle cx="36" cy="53" i="54" r="0.5" tabindex="54">
<title>
v:54
</title>
</circle>
<circle cx="58" cy="76" i="55" r="0.5" tabindex="55">
<title>
v:55
</title>
</circle>
<circle cx="61" cy="64" i="56" r="0.5" tabindex="56">
<title>
v:56
</title>
</circle>
<circle cx="27" cy="49" i="57" r="0.5" tabindex="57">
<title>
v:57
</title>
</circle>
<circle cx="40" cy="82" i="58" r="0.5" tabindex="58">
<title>
v:58
</title>
</circle>
<circle cx="16" cy="41" i="59" r="0.5" tabindex="59">
<title>
v:59
</title>
</circle>
<circle cx="62" cy="45" i="60" r="0.5" tabindex="60">
<title>
v:60
</title>
</circle>
<circle cx="33" cy="58" i="61" r="0.5" tabindex="61">
<title>
v:61
</title>
</circle>
<circle cx="22" cy="49" i="62" r="0.5" tabindex="62">
<title>
v:62
</title>
</circle>
<circle cx="49" cy="36" i="63" r="0.5" tabindex="63">
<title>
v:63
</title>
</circle>
<circle cx="79" cy="38" i="64" r="0.5" tabindex="64">
<title>
v:64
</title>
</circle>
<circle cx="31" cy="86" i="65" r="0.5" tabindex="65">
<title>
v:65
</title>
</circle>
<circle cx="61" cy="63" i="66" r="0.5" tabindex="66">
<title>
v:66
</title>
</circle>
<circle cx="2" cy="82" i="67" r="0.5" tabindex="67">
<title>
v:67
</title>
</circle>
<circle cx="21" cy="50" i="68" r="0.5" tabindex="68">
<title>
v:68
</title>
</circle>
<circle cx="51" cy="50" i="69" r="0.5" tabindex="69">
<title>
v:69
</title>
</circle>
<circle cx="34" cy="63" i="70" r="0.5" tabindex="70">
<title>
v:70
</title>
</circle>
<circle cx="50" cy="77" i="71" r="0.5" tabindex="71">
<title>
v:71
</title>
</circle>
<circle cx="42" cy="89" i="72" r="0.5" tabindex="72">
<title>
v:72
</title>
</circle>
<circle cx="40" cy="51" i="73" r="0.5" tabindex="73">
<title>
v:73
</title>
</circle>
<circle cx="57" cy="39" i="74" r="0.5" tabindex="74">
<title>
v:74
</title>
</circle>
<circle cx="39" cy="57" i="75" r="0.5" tabindex="75">
<title>
v:75
</title>
</circle>
<circle cx="64" cy="66" i="76" r="0.5" tabindex="76">
<title>
v:76
</title>
</circle>
<circle cx="56" cy="61" i="77" r="0.5" tabindex="77">
<title>
v:77
</title>
</circle>
<circle cx="45" cy="39" i="78" r="0.5" tabindex="78">
<title>
v:78
</title>
</circle>
<circle cx="35" cy="36" i="79" r="0.5" tabindex="79">
<title>
v:79
</title>
</circle>
<circle cx="41" cy="46" i="80" r="0.5" tabindex="80">
<title>
v:80
</title>
</circle>
<circle cx="48" cy="21" i="81" r="0.5" tabindex="81">
<title>
v:81
</title>
</circle>
<circle cx="65" cy="58" i="82" r="0.5" tabindex="82">
<title>
v:82
</title>
</circle>
<circle cx="42" cy="33" i="83" r="0.5" tabindex="83">
<title>
v:83
</title>
</circle>
<circle cx="29" cy="82" i="84" r="0.5" tabindex="84">
<title>
v:84
</title>
</circle>
<circle cx="31" cy="25" i="85" r="0.5" tabindex="85">
<title>
v:85
</title>
</circle>
<circle cx="53" cy="66" i="86" r="0.5" tabindex="86">
<title>
v:86
</title>
</circle>
<circle cx="47" cy="72" i="87" r="0.5" tabindex="87">
<title>
v:87
</title>
</circle>
<circle cx="63" cy="52" i="88" r="0.5" tabindex="88">
<title>
v:88
</title>
</circle>
<circle cx="75" cy="60" i="89" r="0.5" tabindex="89">
<title>
v:89
</title>
</circle>
<circle cx="53" cy="17" i="90" r="0.5" tabindex="90">
<title>
v:90
</title>
</circle>
<circle cx="40" cy="50" i="91" r="0.5" tabindex="91">
<title>
v:91
</title>
</circle>
<circle cx="68" cy="51" i="92" r="0.5" tabindex="92">
<title>
v:92
</title>
</circle>
<circle cx="52" cy="90" i="93" r="0.5" tabindex="93">
<title>
v:93
</title>
</circle>
<circle cx="39" cy="37" i="94" r="0.5" tabindex="94">
<title>
v:94
</title>
</circle>
<circle cx="70" cy="24" i="95" r="0.5" tabindex="95">
<title>
v:95
</title>
</circle>
<circle cx="30" cy="52" i="96" r="0.5" tabindex="96">
<title>
v:96
</title>
</circle>
<circle cx="87" cy="77" i="97" r="0.5" tabindex="97">
<title>
v:97
</title>
</circle>
<circle cx="73" cy="66" i="98" r="0.5" tabindex="98">
<title>
v:98
</title>
</circle>
<circle cx="34" cy="60" i="99" r="0.5" tabindex="99">
<title>
v:99
</title>
</circle>
<circle cx="43" cy="64" i="100" r="0.5" tabindex="100">
<title>
v:100
</title>
</circle>
<circle cx="41" cy="67" i="101" r="0.5" tabindex="101">
<title>
v:101
</title>
</circle>
<circle cx="64" cy="48" i="102" r="0.5" tabindex="102">
<title>
v:102
</title>
</circle>
<circle cx="94" cy="47" i="103" r="0.5" tabindex="103">
<title>
v:103
</title>
</circle>
<circle cx="48" cy="66" i="104" r="0.5" tabindex="104">
<title>
v:104
</title>
</circle>
<circle cx="89" cy="66" i="105" r="0.5" tabindex="105">
<title>
v:105
</title>
</circle>
<circle cx="31" cy="52" i="106" r="0.5" tabindex="106">
<title>
v:106
</title>
</circle>
<circle cx="29" cy="48" i="107" r="0.5" tabindex="107">
<title>
v:107
</title>
</circle>
<circle cx="54" cy="36" i="108" r="0.5" tabindex="108">
<title>
v:108
</title>
</circle>
<circle cx="43" cy="81" i="109" r="0.5" tabindex="109">
<title>
v:109
</title>
</circle>
<circle cx="39" cy="56" i="110" r="0.5" tabindex="110">
<title>
v:110
</title>
</circle>
<circle cx="52" cy="80" i="111" r="0.5" tabindex="111">
<title>
v:111
</title>
</circle>
<circle cx="33" cy="60" i="112" r="0.5" tabindex="112">
<title>
v:112
</title>
</circle>
<circle cx="41" cy="64" i="113" r="0.5" tabindex="113">
<title>
v:113
</title>
</circle>
<circle cx="41" cy="59" i="114" r="0.5" tabindex="114">
<title>
v:114
</title>
</circle>
<circle cx="54" cy="59" i="115" r="0.5" tabindex="115">
<title>
v:115
</title>
</circle>
<circle cx="38" cy="34" i="116" r="0.5" tabindex="116">
<title>
v:116
</title>
</circle>
<circle cx="76" cy="102" i="117" r="0.5" tabindex="117">
<title>
v:117
</title>
</circle>
<circle cx="54" cy="61" i="118" r="0.5" tabindex="118">
<title>
v:118
</title>
</circle>
<circle cx="68" cy="71" i="119" r="0.5" tabindex="119">
<title>
v:119
</title>
</circle>
<circle cx="16" cy="43" i="120" r="0.5" tabindex="120">
<title>
v:120
</title>
</circle>
<circle cx="93" cy="22" i="121" r="0.5" tabindex="121">
<title>
v:121
</title>
</circle>
<circle cx="77" cy="49" i="122" r="0.5" tabindex="122">
<title>
v:122
</title>
</circle>
<circle cx="28" cy="71" i="123" r="0.5" tabindex="123">
<title>
v:123
</title>
</circle>
<circle cx="62" cy="36" i="124" r="0.5" tabindex="124">
<title>
v:124
</title>
</circle>
<circle cx="23" cy="49" i="125" r="0.5" tabindex="125">
<title>
v:125
</title>
</circle>
<circle cx="45" cy="66" i="126" r="0.5" tabindex="126">
<title>
v:126
</title>
</circle>
<circle cx="30" cy="29" i="127" r="0.5" tabindex="127">
<title>
v:127
</title>
</circle>
<circle cx="60" cy="31" i="128" r="0.5" tabindex="128">
<title>
v:128
</title>
</circle>
<circle cx="60" cy="33" i="129" r="0.5" tabindex="129">
<title>
v:129
</title>
</circle>
<circle cx="32" cy="54" i="130" r="0.5" tabindex="130">
<title>
v:130
</title>
</circle>
<circle cx="62" cy="69" i="131" r="0.5" tabindex="131">
<title>
v:131
</title>
</circle>
<circle cx="44" cy="93" i="132" r="0.5" tabindex="132">
<title>
v:132
</title>
</circle>
<circle cx="76" cy="70" i="133" r="0.5" tabindex="133">
<title>
v:133
</title>
</circle>
<circle cx="55" cy="53" i="134" r="0.5" tabindex="134">
<title>
v:134
</title>
</circle>
<circle cx="33" cy="37" i="135" r="0.5" tabindex="135">
<title>
v:135
</title>
</circle>
<circle cx="53" cy="77" i="136" r="0.5" tabindex="136">
<title>
v:136
</title>
</circle>
<circle cx="64" cy="45" i="137" r="0.5" tabindex="137">
<title>
v:137
</title>
</circle>
<circle cx="53" cy="27" i="138" r="0.5" tabindex="138">
<title>
v:138
</title>
</circle>
<circle cx="40" cy="60" i="139" r="0.5" tabindex="139">
<title>
v:139
</title>
</circle>
<circle cx="62" cy="77" i="140" r="0.5" tabindex="140">
<title>
v:140
</title>
</circle>
<circle cx="24" cy="60" i="141" r="0.5" tabindex="141">
<title>
v:141
</title>
</circle>
<circle cx="25" cy="67" i="142" r="0.5" tabindex="142">
<title>
v:142
</title>
</circle>
<circle cx="98" cy="39" i="143" r="0.5" tabindex="143">
<title>
v:143
</title>
</circle>
<circle cx="59" cy="58" i="144" r="0.5" tabindex="144">
<title>
v:144
</title>
</circle>
<circle cx="71" cy="35" i="145" r="0.5" tabindex="145">
<title>
v:145
</title>
</circle>
<circle cx="49" cy="99" i="146" r="0.5" tabindex="146">
<title>
v:146
</title>
</circle>
<circle cx="71" cy="75" i="147" r="0.5" tabindex="147">
<title>
v:147
</title>
</circle>
<circle cx="50" cy="54" i="148" r="0.5" tabindex="148">
<title>
v:148
</title>
</circle>
<circle cx="55" cy="56" i="149" r="0.5" tabindex="149">
<title>
v:149
</title>
</circle>
<circle cx="63" cy="64" i="150" r="0.5" tabindex="150">
<title>
v:150
</title>
</circle>
<circle cx="46" cy="57" i="151" r="0.5" tabindex="151">
<title>
v:151
</title>
</circle>
<circle cx="62" cy="54" i="152" r="0.5" tabindex="152">
<title>
v:152
</title>
</circle>
<circle cx="67" cy="29" i="153" r="0.5" tabindex="153">
<title>
v:153
</title>
</circle>
<circle cx="45" cy="63" i="154" r="0.5" tabindex="154">
<title>
v:154
</title>
</circle>
<circle cx="78" cy="0" i="155" r="0.5" tabindex="155">
<title>
v:155
</title>
</circle>
<circle cx="44" cy="61" i="156" r="0.5" tabindex="156">
<title>
v:156
</title>
</circle>
<circle cx="69" cy="51" i="157" r="0.5" tabindex="157">
<title>
v:157
</title>
</circle>
<circle cx="46" cy="56" i="158" r="0.5" tabindex="158">
<title>
v:158
</title>
</circle>
<circle cx="56" cy="93" i="159" r="0.5" tabindex="159">
<title>
v:159
</title>
</circle>
<circle cx="50" cy="64" i="160" r="0.5" tabindex="160">
<title>
v:160
</title>
</circle>
<circle cx="27" cy="38" i="161" r="0.5" tabindex="161">
<title>
v:161
</title>
</circle>
<circle cx="51" cy="56" i="162" r="0.5" tabindex="162">
<title>
v:162
</title>
</circle>
<circle cx="45" cy="92" i="163" r="0.5" tabindex="163">
<title>
v:163
</title>
</circle>
<circle cx="57" cy="73" i="164" r="0.5" tabindex="164">
<title>
v:164
</title>
</circle>
<circle cx="34" cy="48" i="165" r="0.5" tabindex="165">
<title>
v:165
</title>
</circle>
<circle cx="55" cy="75" i="166" r="0.5" tabindex="166">
<title>
v:166
</title>
</circle>
<circle cx="69" cy="80" i="167" r="0.5" tabindex="167">
<title>
v:167
</title>
</circle>
<circle cx="66" cy="51" i="168" r="0.5" tabindex="168">
<title>
v:168
</title>
</circle>
<circle cx="36" cy="68" i="169" r="0.5" tabindex="169">
<title>
v:169
</title>
</circle>
<circle cx="82" cy="75" i="170" r="0.5" tabindex="170">
<title>
v:170
</title>
</circle>
<circle cx="38" cy="35" i="171" r="0.5" tabindex="171">
<title>
v:171
</title>
</circle>
<circle cx="37" cy="72" i="172" r="0.5" tabindex="172">
<title>
v:172
</title>
</circle>
<circle cx="47" cy="85" i="173" r="0.5" tabindex="173">
<title>
v:173
</title>
</circle>
<circle cx="49" cy="53" i="174" r="0.5" tabindex="174">
<title>
v:174
</title>
</circle>
<circle cx="73" cy="67" i="175" r="0.5" tabindex="175">
<title>
v:175
</title>
</circle>
<circle cx="71" cy="73" i="176" r="0.5" tabindex="176">
<title>
v:176
</title>
</circle>
<circle cx="3" cy="43" i="177" r="0.5" tabindex="177">
<title>
v:177
</title>
</circle>
<circle cx="58" cy="53" i="178" r="0.5" tabindex="178">
<title>
v:178
</title>
</circle>
<circle cx="23" cy="34" i="179" r="0.5" tabindex="179">
<title>
v:179
</title>
</circle>
<circle cx="23" cy="62" i="180" r="0.5" tabindex="180">
<title>
v:180
</title>
</circle>
<circle cx="92" cy="42" i="181" r="0.5" tabindex="181">
<title>
v:181
</title>
</circle>
<circle cx="48" cy="55" i="182" r="0.5" tabindex="182">
<title>
v:182
</title>
</circle>
<circle cx="45" cy="71" i="183" r="0.5" tabindex="183">
<title>
v:183
</title>
</circle>
<circle cx="25" cy="75" i="184" r="0.5" tabindex="184">
<title>
v:184
</title>
</circle>
<circle cx="22" cy="47" i="185" r="0.5" tabindex="185">
<title>
v:185
</title>
</circle>
<circle cx="25" cy="58" i="186" r="0.5" tabindex="186">
<title>
v:186
</title>
</circle>
<circle cx="49" cy="77" i="187" r="0.5" tabindex="187">
<title>
v:187
</title>
</circle>
<circle cx="25" cy="50" i="188" r="0.5" tabindex="188">
<title>
v:188
</title>
</circle>
<circle cx="70" cy="95" i="189" r="0.5" tabindex="189">
<title>
v:189
</title>
</circle>
<circle cx="30" cy="90" i="190" r="0.5" tabindex="190">
<title>
v:190
</title>
</circle>
<circle cx="68" cy="58" i="191" r="0.5" tabindex="191">
<title>
v:191
</title>
</circle>
<circle cx="25" cy="60" i="192" r="0.5" tabindex="192">
<title>
v:192
</title>
</circle>
<circle cx="49" cy="49" i="193" r="0.5" tabindex="193">
<title>
v:193
</title>
</circle>
<circle cx="49" cy="48" i="194" r="0.5" tabindex="194">
<title>
v:194
</title>
</circle>
<circle cx="50" cy="37" i="195" r="0.5" tabindex="195">
<title>
v:195
</title>
</circle>
<circle cx="55" cy="82" i="196" r="0.5" tabindex="196">
<title>
v:196
</title>
</circle>
<circle cx="27" cy="105" i="197" r="0.5" tabindex="197">
<title>
v:197
</title>
</circle>
<circle cx="60" cy="49" i="198" r="0.5" tabindex="198">
<title>
v:198
</title>
</circle>
<circle cx="22" cy="61" i="199" r="0.5" tabindex="199">
<title>
v:199
</title>
</circle>
<circle cx="59" cy="67" i="200" r="0.5" tabindex="200">
<title>
v:200
</title>
</circle>
<circle cx="32" cy="82" i="201" r="0.5" tabindex="201">
<title>
v:201
</title>
</circle>
</g>
</svg>