<svg height="500" viewBox="0 -2 278 353" width="500" xmlns="http://www.w3.org/2000/svg">
<path class="hole" d="M2 185L34 205L2 228L2 268L31 306L2 349L68 334L144 300L67 293L99 246L124 266L147 241L160 263L189 270L189 293L190 321L207 349L228 333L241 311L269 302L258 276L232 285L215 262L238 255L261 256L261 231L239 232L258 213L257 192L276 165L249 144L202 143L180 126L199 103L220 126L246 103L266 79L244 56L221 81L203 63L228 61L235 41L213 24L195 40L205 16L179 0L159 19L168 42L143 44L162 63L182 79L155 89L153 118L127 113L125 134L131 153L129 157L117 126L91 133L100 119L101 113L120 95L108 68L82 73L58 83L57 94L31 101L40 133L61 148L83 156L107 175L96 171L76 159L35 165M0 -2L278 -2L278 351L0 351" style="fill:#00000066;fill-rule:evenodd;"/>
<circle cx="104" cy="312" fill="#ffff0066" r="5">
<title>
SuperFlex@129
</title>
</circle>
<circle cx="35" cy="339" fill="#ffff0066" r="5">
<title>
WallHack@122
</title>
</circle>
<circle cx="59" cy="186" fill="#ffff0066" r="5">
<title>
BreakALeg@61
</title>
</circle>
<path class="ok" d="" style="stroke:#0000ff;stroke-linecap:round"/>
<path class="out" d="M58 0L69 37M58 0L96 8M39 65L77 48M39 65L69 37M77 48L66 10M58 63L43 33M58 63L61 90M48 65L12 72M48 65L20 35M69 37L96 8M69 37L30 32M96 8L60 27M43 33L68 35M43 33L57 60M12 72L30 32M12 72L20 35M61 90L57 60M61 90L29 93M66 43L40 43M66 43L52 20M68 35L57 60M68 35L49 49M66 10L30 32M57 60L40 43M57 60L32 67M57 60L34 37M30 32L51 64M30 32L47 66M20 35L47 66M60 27L51 64M40 43L52 20M40 43L15 53M29 93L33 62M52 20L68 40M49 49L32 67M49 49L26 68M32 67L15 53M32 67L57 77M32 90L26 68M32 90L51 72M51 64L18 47M46 30L28 58M46 30L25 49M46 30L58 55M28 58L58 55M47 66L18 47M47 66L18 51M34 37L33 62M25 49L15 22M15 53L39 42M26 68L51 72M26 68L44 47M68 40L39 42M57 77L44 47M51 72L48 45M58 55L29 54M58 55L41 32M18 47L48 45M18 47L52 45M18 51L52 45M24 26L37 10M24 26L48 34M37 10L63 14M44 47L53 73M15 22L41 32M36 50L53 73M36 50L2 53M29 54L48 34M29 54L40 78M41 32L49 54M31 52L56 44M31 52L52 65M48 45L53 73M48 45L55 73M48 45L75 55M52 45L55 73M48 34L63 14M48 34L32 55M53 73L32 55M53 73L75 55M63 14L41 32M63 14L38 27M41 32L37 61M2 53L32 55M35 32L49 54M35 32L27 51M77 68L52 65M77 68L79 41M3 71L33 72M3 71L32 64M56 44L52 65M56 44L37 61M40 78L49 54M40 78L32 55M40 78L54 57M49 54L55 28M55 73L75 55M33 72L63 67M52 65L31 48M27 51L32 22M32 55L38 27M32 55L53 73M32 55L61 43M75 55L50 45M75 55L53 73M82 39L111 51M82 39L59 47M79 41L54 60M38 27L62 45M38 27L61 43M111 51L79 44M37 61L62 45M37 61L54 41M41 42L22 55M41 42L44 66M50 45L63 67M50 45L79 44M42 49L53 73M42 49L27 22M54 57L55 28M22 55L41 54M22 55L44 66M55 28L32 22M32 64L23 43M32 64L63 67M32 64L49 42M23 43L43 23M23 43L50 50M43 23L30 53M43 23L50 50M53 73L61 43M53 73L82 76M53 73L47 44M31 48L54 41M31 48L54 60M31 48L55 49M59 47L32 33M59 47L62 17M63 67L79 44M63 67L49 42M62 45L32 53M62 45L33 55M41 54L29 61M61 43L34 25M54 41L33 55M54 41L60 65M44 66L39 45M44 66L26 61M30 53L39 78M43 65L39 45M43 65L42 49M55 49L40 73M29 61L39 45M29 61L47 44M29 61L20 45M79 44L82 76M79 44L62 17M79 44L50 43M50 50L23 55M50 50L39 78M50 50L23 54M50 50L40 75M27 22L47 44M49 42L23 54M49 42L59 64M32 33L62 17M32 33L22 63M32 53L26 87M39 45L26 61M39 45L20 45M39 45L30 29M33 55L67 52M33 55L26 87M47 44L34 25M47 44L33 29M62 17L54 42M62 17L33 23M23 55L40 75M42 49L44 35M60 65L40 73M34 25L23 9M34 25L42 7M20 45L30 29M20 45L33 29M20 45L25 27M23 54L40 75M23 54L50 49M44 35L30 29M59 64L50 43M59 64L39 52M50 43L56 69M50 43L34 27M33 29L42 7M33 29L35 11M33 29L48 20M40 75L69 70M67 52L57 83M26 87L57 83M23 9L42 7M25 27L48 20M22 63L55 53M54 42L56 69M33 23L55 53M35 11L48 20M50 49L69 70M34 27L39 52" style="stroke:#ff0000;stroke-linecap:round"/>
<g fill="#333333">
<circle cx="2" cy="185" r="0.5">
<title>
hole:0
</title>
</circle>
<circle cx="34" cy="205" r="0.5">
<title>
hole:1
</title>
</circle>
<circle cx="2" cy="228" r="0.5">
<title>
hole:2
</title>
</circle>
<circle cx="2" cy="268" r="0.5">
<title>
hole:3
</title>
</circle>
<circle cx="31" cy="306" r="0.5">
<title>
hole:4
</title>
</circle>
<circle cx="2" cy="349" r="0.5">
<title>
hole:5
</title>
</circle>
<circle cx="68" cy="334" r="0.5">
<title>
hole:6
</title>
</circle>
<circle cx="144" cy="300" r="0.5">
<title>
hole:7
</title>
</circle>
<circle cx="67" cy="293" r="0.5">
<title>
hole:8
</title>
</circle>
<circle cx="99" cy="246" r="0.5">
<title>
hole:9
</title>
</circle>
<circle cx="124" cy="266" r="0.5">
<title>
hole:10
</title>
</circle>
<circle cx="147" cy="241" r="0.5">
<title>
hole:11
</title>
</circle>
<circle cx="160" cy="263" r="0.5">
<title>
hole:12
</title>
</circle>
<circle cx="189" cy="270" r="0.5">
<title>
hole:13
</title>
</circle>
<circle cx="189" cy="293" r="0.5">
<title>
hole:14
</title>
</circle>
<circle cx="190" cy="321" r="0.5">
<title>
hole:15
</title>
</circle>
<circle cx="207" cy="349" r="0.5">
<title>
hole:16
</title>
</circle>
<circle cx="228" cy="333" r="0.5">
<title>
hole:17
</title>
</circle>
<circle cx="241" cy="311" r="0.5">
<title>
hole:18
</title>
</circle>
<circle cx="269" cy="302" r="0.5">
<title>
hole:19
</title>
</circle>
<circle cx="258" cy="276" r="0.5">
<title>
hole:20
</title>
</circle>
<circle cx="232" cy="285" r="0.5">
<title>
hole:21
</title>
</circle>
<circle cx="215" cy="262" r="0.5">
<title>
hole:22
</title>
</circle>
<circle cx="238" cy="255" r="0.5">
<title>
hole:23
</title>
</circle>
<circle cx="261" cy="256" r="0.5">
<title>
hole:24
</title>
</circle>
<circle cx="261" cy="231" r="0.5">
<title>
hole:25
</title>
</circle>
<circle cx="239" cy="232" r="0.5">
<title>
hole:26
</title>
</circle>
<circle cx="258" cy="213" r="0.5">
<title>
hole:27
</title>
</circle>
<circle cx="257" cy="192" r="0.5">
<title>
hole:28
</title>
</circle>
<circle cx="276" cy="165" r="0.5">
<title>
hole:29
</title>
</circle>
<circle cx="249" cy="144" r="0.5">
<title>
hole:30
</title>
</circle>
<circle cx="202" cy="143" r="0.5">
<title>
hole:31
</title>
</circle>
<circle cx="180" cy="126" r="0.5">
<title>
hole:32
</title>
</circle>
<circle cx="199" cy="103" r="0.5">
<title>
hole:33
</title>
</circle>
<circle cx="220" cy="126" r="0.5">
<title>
hole:34
</title>
</circle>
<circle cx="246" cy="103" r="0.5">
<title>
hole:35
</title>
</circle>
<circle cx="266" cy="79" r="0.5">
<title>
hole:36
</title>
</circle>
<circle cx="244" cy="56" r="0.5">
<title>
hole:37
</title>
</circle>
<circle cx="221" cy="81" r="0.5">
<title>
hole:38
</title>
</circle>
<circle cx="203" cy="63" r="0.5">
<title>
hole:39
</title>
</circle>
<circle cx="228" cy="61" r="0.5">
<title>
hole:40
</title>
</circle>
<circle cx="235" cy="41" r="0.5">
<title>
hole:41
</title>
</circle>
<circle cx="213" cy="24" r="0.5">
<title>
hole:42
</title>
</circle>
<circle cx="195" cy="40" r="0.5">
<title>
hole:43
</title>
</circle>
<circle cx="205" cy="16" r="0.5">
<title>
hole:44
</title>
</circle>
<circle cx="179" cy="0" r="0.5">
<title>
hole:45
</title>
</circle>
<circle cx="159" cy="19" r="0.5">
<title>
hole:46
</title>
</circle>
<circle cx="168" cy="42" r="0.5">
<title>
hole:47
</title>
</circle>
<circle cx="143" cy="44" r="0.5">
<title>
hole:48
</title>
</circle>
<circle cx="162" cy="63" r="0.5">
<title>
hole:49
</title>
</circle>
<circle cx="182" cy="79" r="0.5">
<title>
hole:50
</title>
</circle>
<circle cx="155" cy="89" r="0.5">
<title>
hole:51
</title>
</circle>
<circle cx="153" cy="118" r="0.5">
<title>
hole:52
</title>
</circle>
<circle cx="127" cy="113" r="0.5">
<title>
hole:53
</title>
</circle>
<circle cx="125" cy="134" r="0.5">
<title>
hole:54
</title>
</circle>
<circle cx="131" cy="153" r="0.5">
<title>
hole:55
</title>
</circle>
<circle cx="129" cy="157" r="0.5">
<title>
hole:56
</title>
</circle>
<circle cx="117" cy="126" r="0.5">
<title>
hole:57
</title>
</circle>
<circle cx="91" cy="133" r="0.5">
<title>
hole:58
</title>
</circle>
<circle cx="100" cy="119" r="0.5">
<title>
hole:59
</title>
</circle>
<circle cx="101" cy="113" r="0.5">
<title>
hole:60
</title>
</circle>
<circle cx="120" cy="95" r="0.5">
<title>
hole:61
</title>
</circle>
<circle cx="108" cy="68" r="0.5">
<title>
hole:62
</title>
</circle>
<circle cx="82" cy="73" r="0.5">
<title>
hole:63
</title>
</circle>
<circle cx="58" cy="83" r="0.5">
<title>
hole:64
</title>
</circle>
<circle cx="57" cy="94" r="0.5">
<title>
hole:65
</title>
</circle>
<circle cx="31" cy="101" r="0.5">
<title>
hole:66
</title>
</circle>
<circle cx="40" cy="133" r="0.5">
<title>
hole:67
</title>
</circle>
<circle cx="61" cy="148" r="0.5">
<title>
hole:68
</title>
</circle>
<circle cx="83" cy="156" r="0.5">
<title>
hole:69
</title>
</circle>
<circle cx="107" cy="175" r="0.5">
<title>
hole:70
</title>
</circle>
<circle cx="96" cy="171" r="0.5">
<title>
hole:71
</title>
</circle>
<circle cx="76" cy="159" r="0.5">
<title>
hole:72
</title>
</circle>
<circle cx="35" cy="165" r="0.5">
<title>
hole:73
</title>
</circle>
</g>
<g fill="#999999">
<circle cx="58" cy="0" i="0" r="0.5" tabindex="0">
<title>
v:0
</title>
</circle>
<circle cx="39" cy="65" i="1" r="0.5" tabindex="1">
<title>
v:1
</title>
</circle>
<circle cx="77" cy="48" i="2" r="0.5" tabindex="2">
<title>
v:2
</title>
</circle>
<circle cx="58" cy="63" i="3" r="0.5" tabindex="3">
<title>
v:3
</title>
</circle>
<circle cx="48" cy="65" i="4" r="0.5" tabindex="4">
<title>
v:4
</title>
</circle>
<circle cx="69" cy="37" i="5" r="0.5" tabindex="5">
<title>
v:5
</title>
</circle>
<circle cx="96" cy="8" i="6" r="0.5" tabindex="6">
<title>
v:6
</title>
</circle>
<circle cx="43" cy="33" i="7" r="0.5" tabindex="7">
<title>
v:7
</title>
</circle>
<circle cx="12" cy="72" i="8" r="0.5" tabindex="8">
<title>
v:8
</title>
</circle>
<circle cx="61" cy="90" i="9" r="0.5" tabindex="9">
<title>
v:9
</title>
</circle>
<circle cx="66" cy="43" i="10" r="0.5" tabindex="10">
<title>
v:10
</title>
</circle>
<circle cx="68" cy="35" i="11" r="0.5" tabindex="11">
<title>
v:11
</title>
</circle>
<circle cx="66" cy="10" i="12" r="0.5" tabindex="12">
<title>
v:12
</title>
</circle>
<circle cx="57" cy="60" i="13" r="0.5" tabindex="13">
<title>
v:13
</title>
</circle>
<circle cx="30" cy="32" i="14" r="0.5" tabindex="14">
<title>
v:14
</title>
</circle>
<circle cx="20" cy="35" i="15" r="0.5" tabindex="15">
<title>
v:15
</title>
</circle>
<circle cx="60" cy="27" i="16" r="0.5" tabindex="16">
<title>
v:16
</title>
</circle>
<circle cx="40" cy="43" i="17" r="0.5" tabindex="17">
<title>
v:17
</title>
</circle>
<circle cx="29" cy="93" i="18" r="0.5" tabindex="18">
<title>
v:18
</title>
</circle>
<circle cx="52" cy="20" i="19" r="0.5" tabindex="19">
<title>
v:19
</title>
</circle>
<circle cx="49" cy="49" i="20" r="0.5" tabindex="20">
<title>
v:20
</title>
</circle>
<circle cx="32" cy="67" i="21" r="0.5" tabindex="21">
<title>
v:21
</title>
</circle>
<circle cx="32" cy="90" i="22" r="0.5" tabindex="22">
<title>
v:22
</title>
</circle>
<circle cx="51" cy="64" i="23" r="0.5" tabindex="23">
<title>
v:23
</title>
</circle>
<circle cx="46" cy="30" i="24" r="0.5" tabindex="24">
<title>
v:24
</title>
</circle>
<circle cx="28" cy="58" i="25" r="0.5" tabindex="25">
<title>
v:25
</title>
</circle>
<circle cx="47" cy="66" i="26" r="0.5" tabindex="26">
<title>
v:26
</title>
</circle>
<circle cx="34" cy="37" i="27" r="0.5" tabindex="27">
<title>
v:27
</title>
</circle>
<circle cx="25" cy="49" i="28" r="0.5" tabindex="28">
<title>
v:28
</title>
</circle>
<circle cx="15" cy="53" i="29" r="0.5" tabindex="29">
<title>
v:29
</title>
</circle>
<circle cx="33" cy="62" i="30" r="0.5" tabindex="30">
<title>
v:30
</title>
</circle>
<circle cx="26" cy="68" i="31" r="0.5" tabindex="31">
<title>
v:31
</title>
</circle>
<circle cx="68" cy="40" i="32" r="0.5" tabindex="32">
<title>
v:32
</title>
</circle>
<circle cx="57" cy="77" i="33" r="0.5" tabindex="33">
<title>
v:33
</title>
</circle>
<circle cx="51" cy="72" i="34" r="0.5" tabindex="34">
<title>
v:34
</title>
</circle>
<circle cx="58" cy="55" i="35" r="0.5" tabindex="35">
<title>
v:35
</title>
</circle>
<circle cx="39" cy="42" i="36" r="0.5" tabindex="36">
<title>
v:36
</title>
</circle>
<circle cx="18" cy="47" i="37" r="0.5" tabindex="37">
<title>
v:37
</title>
</circle>
<circle cx="18" cy="51" i="38" r="0.5" tabindex="38">
<title>
v:38
</title>
</circle>
<circle cx="24" cy="26" i="39" r="0.5" tabindex="39">
<title>
v:39
</title>
</circle>
<circle cx="37" cy="10" i="40" r="0.5" tabindex="40">
<title>
v:40
</title>
</circle>
<circle cx="44" cy="47" i="41" r="0.5" tabindex="41">
<title>
v:41
</title>
</circle>
<circle cx="15" cy="22" i="42" r="0.5" tabindex="42">
<title>
v:42
</title>
</circle>
<circle cx="36" cy="50" i="43" r="0.5" tabindex="43">
<title>
v:43
</title>
</circle>
<circle cx="29" cy="54" i="44" r="0.5" tabindex="44">
<title>
v:44
</title>
</circle>
<circle cx="41" cy="32" i="45" r="0.5" tabindex="45">
<title>
v:45
</title>
</circle>
<circle cx="31" cy="52" i="46" r="0.5" tabindex="46">
<title>
v:46
</title>
</circle>
<circle cx="48" cy="45" i="47" r="0.5" tabindex="47">
<title>
v:47
</title>
</circle>
<circle cx="52" cy="45" i="48" r="0.5" tabindex="48">
<title>
v:48
</title>
</circle>
<circle cx="48" cy="34" i="49" r="0.5" tabindex="49">
<title>
v:49
</title>
</circle>
<circle cx="53" cy="73" i="50" r="0.5" tabindex="50">
<title>
v:50
</title>
</circle>
<circle cx="63" cy="14" i="51" r="0.5" tabindex="51">
<title>
v:51
</title>
</circle>
<circle cx="41" cy="32" i="52" r="0.5" tabindex="52">
<title>
v:52
</title>
</circle>
<circle cx="2" cy="53" i="53" r="0.5" tabindex="53">
<title>
v:53
</title>
</circle>
<circle cx="35" cy="32" i="54" r="0.5" tabindex="54">
<title>
v:54
</title>
</circle>
<circle cx="77" cy="68" i="55" r="0.5" tabindex="55">
<title>
v:55
</title>
</circle>
<circle cx="3" cy="71" i="56" r="0.5" tabindex="56">
<title>
v:56
</title>
</circle>
<circle cx="56" cy="44" i="57" r="0.5" tabindex="57">
<title>
v:57
</title>
</circle>
<circle cx="40" cy="78" i="58" r="0.5" tabindex="58">
<title>
v:58
</title>
</circle>
<circle cx="49" cy="54" i="59" r="0.5" tabindex="59">
<title>
v:59
</title>
</circle>
<circle cx="55" cy="73" i="60" r="0.5" tabindex="60">
<title>
v:60
</title>
</circle>
<circle cx="33" cy="72" i="61" r="0.5" tabindex="61">
<title>
v:61
</title>
</circle>
<circle cx="52" cy="65" i="62" r="0.5" tabindex="62">
<title>
v:62
</title>
</circle>
<circle cx="27" cy="51" i="63" r="0.5" tabindex="63">
<title>
v:63
</title>
</circle>
<circle cx="32" cy="55" i="64" r="0.5" tabindex="64">
<title>
v:64
</title>
</circle>
<circle cx="75" cy="55" i="65" r="0.5" tabindex="65">
<title>
v:65
</title>
</circle>
<circle cx="82" cy="39" i="66" r="0.5" tabindex="66">
<title>
v:66
</title>
</circle>
<circle cx="79" cy="41" i="67" r="0.5" tabindex="67">
<title>
v:67
</title>
</circle>
<circle cx="38" cy="27" i="68" r="0.5" tabindex="68">
<title>
v:68
</title>
</circle>
<circle cx="111" cy="51" i="69" r="0.5" tabindex="69">
<title>
v:69
</title>
</circle>
<circle cx="37" cy="61" i="70" r="0.5" tabindex="70">
<title>
v:70
</title>
</circle>
<circle cx="41" cy="42" i="71" r="0.5" tabindex="71">
<title>
v:71
</title>
</circle>
<circle cx="50" cy="45" i="72" r="0.5" tabindex="72">
<title>
v:72
</title>
</circle>
<circle cx="42" cy="49" i="73" r="0.5" tabindex="73">
<title>
v:73
</title>
</circle>
<circle cx="54" cy="57" i="74" r="0.5" tabindex="74">
<title>
v:74
</title>
</circle>
<circle cx="22" cy="55" i="75" r="0.5" tabindex="75">
<title>
v:75
</title>
</circle>
<circle cx="55" cy="28" i="76" r="0.5" tabindex="76">
<title>
v:76
</title>
</circle>
<circle cx="32" cy="64" i="77" r="0.5" tabindex="77">
<title>
v:77
</title>
</circle>
<circle cx="23" cy="43" i="78" r="0.5" tabindex="78">
<title>
v:78
</title>
</circle>
<circle cx="43" cy="23" i="79" r="0.5" tabindex="79">
<title>
v:79
</title>
</circle>
<circle cx="53" cy="73" i="80" r="0.5" tabindex="80">
<title>
v:80
</title>
</circle>
<circle cx="31" cy="48" i="81" r="0.5" tabindex="81">
<title>
v:81
</title>
</circle>
<circle cx="59" cy="47" i="82" r="0.5" tabindex="82">
<title>
v:82
</title>
</circle>
<circle cx="32" cy="22" i="83" r="0.5" tabindex="83">
<title>
v:83
</title>
</circle>
<circle cx="63" cy="67" i="84" r="0.5" tabindex="84">
<title>
v:84
</title>
</circle>
<circle cx="62" cy="45" i="85" r="0.5" tabindex="85">
<title>
v:85
</title>
</circle>
<circle cx="41" cy="54" i="86" r="0.5" tabindex="86">
<title>
v:86
</title>
</circle>
<circle cx="61" cy="43" i="87" r="0.5" tabindex="87">
<title>
v:87
</title>
</circle>
<circle cx="54" cy="41" i="88" r="0.5" tabindex="88">
<title>
v:88
</title>
</circle>
<circle cx="54" cy="60" i="89" r="0.5" tabindex="89">
<title>
v:89
</title>
</circle>
<circle cx="44" cy="66" i="90" r="0.5" tabindex="90">
<title>
v:90
</title>
</circle>
<circle cx="30" cy="53" i="91" r="0.5" tabindex="91">
<title>
v:91
</title>
</circle>
<circle cx="43" cy="65" i="92" r="0.5" tabindex="92">
<title>
v:92
</title>
</circle>
<circle cx="55" cy="49" i="93" r="0.5" tabindex="93">
<title>
v:93
</title>
</circle>
<circle cx="29" cy="61" i="94" r="0.5" tabindex="94">
<title>
v:94
</title>
</circle>
<circle cx="79" cy="44" i="95" r="0.5" tabindex="95">
<title>
v:95
</title>
</circle>
<circle cx="50" cy="50" i="96" r="0.5" tabindex="96">
<title>
v:96
</title>
</circle>
<circle cx="27" cy="22" i="97" r="0.5" tabindex="97">
<title>
v:97
</title>
</circle>
<circle cx="49" cy="42" i="98" r="0.5" tabindex="98">
<title>
v:98
</title>
</circle>
<circle cx="82" cy="76" i="99" r="0.5" tabindex="99">
<title>
v:99
</title>
</circle>
<circle cx="32" cy="33" i="100" r="0.5" tabindex="100">
<title>
v:100
</title>
</circle>
<circle cx="32" cy="53" i="101" r="0.5" tabindex="101">
<title>
v:101
</title>
</circle>
<circle cx="39" cy="45" i="102" r="0.5" tabindex="102">
<title>
v:102
</title>
</circle>
<circle cx="33" cy="55" i="103" r="0.5" tabindex="103">
<title>
v:103
</title>
</circle>
<circle cx="47" cy="44" i="104" r="0.5" tabindex="104">
<title>
v:104
</title>
</circle>
<circle cx="62" cy="17" i="105" r="0.5" tabindex="105">
<title>
v:105
</title>
</circle>
<circle cx="26" cy="61" i="106" r="0.5" tabindex="106">
<title>
v:106
</title>
</circle>
<circle cx="23" cy="55" i="107" r="0.5" tabindex="107">
<title>
v:107
</title>
</circle>
<circle cx="42" cy="49" i="108" r="0.5" tabindex="108">
<title>
v:108
</title>
</circle>
<circle cx="60" cy="65" i="109" r="0.5" tabindex="109">
<title>
v:109
</title>
</circle>
<circle cx="39" cy="78" i="110" r="0.5" tabindex="110">
<title>
v:110
</title>
</circle>
<circle cx="34" cy="25" i="111" r="0.5" tabindex="111">
<title>
v:111
</title>
</circle>
<circle cx="20" cy="45" i="112" r="0.5" tabindex="112">
<title>
v:112
</title>
</circle>
<circle cx="23" cy="54" i="113" r="0.5" tabindex="113">
<title>
v:113
</title>
</circle>
<circle cx="40" cy="73" i="114" r="0.5" tabindex="114">
<title>
v:114
</title>
</circle>
<circle cx="44" cy="35" i="115" r="0.5" tabindex="115">
<title>
v:115
</title>
</circle>
<circle cx="30" cy="29" i="116" r="0.5" tabindex="116">
<title>
v:116
</title>
</circle>
<circle cx="59" cy="64" i="117" r="0.5" tabindex="117">
<title>
v:117
</title>
</circle>
<circle cx="50" cy="43" i="118" r="0.5" tabindex="118">
<title>
v:118
</title>
</circle>
<circle cx="33" cy="29" i="119" r="0.5" tabindex="119">
<title>
v:119
</title>
</circle>
<circle cx="40" cy="75" i="120" r="0.5" tabindex="120">
<title>
v:120
</title>
</circle>
<circle cx="67" cy="52" i="121" r="0.5" tabindex="121">
<title>
v:121
</title>
</circle>
<circle cx="26" cy="87" i="122" r="0.5" tabindex="122">
<title>
v:122
</title>
</circle>
<circle cx="23" cy="9" i="123" r="0.5" tabindex="123">
<title>
v:123
</title>
</circle>
<circle cx="25" cy="27" i="124" r="0.5" tabindex="124">
<title>
v:124
</title>
</circle>
<circle cx="22" cy="63" i="125" r="0.5" tabindex="125">
<title>
v:125
</title>
</circle>
<circle cx="42" cy="7" i="126" r="0.5" tabindex="126">
<title>
v:126
</title>
</circle>
<circle cx="54" cy="42" i="127" r="0.5" tabindex="127">
<title>
v:127
</title>
</circle>
<circle cx="33" cy="23" i="128" r="0.5" tabindex="128">
<title>
v:128
</title>
</circle>
<circle cx="35" cy="11" i="129" r="0.5" tabindex="129">
<title>
v:129
</title>
</circle>
<circle cx="48" cy="20" i="130" r="0.5" tabindex="130">
<title>
v:130
</title>
</circle>
<circle cx="56" cy="69" i="131" r="0.5" tabindex="131">
<title>
v:131
</title>
</circle>
<circle cx="50" cy="49" i="132" r="0.5" tabindex="132">
<title>
v:132
</title>
</circle>
<circle cx="34" cy="27" i="133" r="0.5" tabindex="133">
<title>
v:133
</title>
</circle>
<circle cx="39" cy="52" i="134" r="0.5" tabindex="134">
<title>
v:134
</title>
</circle>
<circle cx="57" cy="83" i="135" r="0.5" tabindex="135">
<title>
v:135
</title>
</circle>
<circle cx="69" cy="70" i="136" r="0.5" tabindex="136">
<title>
v:136
</title>
</circle>
<circle cx="55" cy="53" i="137" r="0.5" tabindex="137">
<title>
v:137
</title>
</circle>
</g>
</svg>