<svg height="500" viewBox="0 -2 214 209" width="500" xmlns="http://www.w3.org/2000/svg">
<path class="hole" d="M6 41L32 49L16 85L35 108L2 113L2 154L53 151L2 180L2 205L50 183L71 199L100 187L93 145L125 152L127 178L130 205L154 199L178 194L200 200L205 177L174 148L205 147L212 105L181 76L204 62L180 50L203 37L169 0L155 59L118 59L97 47L143 0L102 0L74 22L51 34L36 8L2 16M0 -2L214 -2L214 207L0 207" style="fill:#00000066;fill-rule:evenodd;"/>
<circle cx="119" cy="24" fill="#ffff0066" r="5">
<title>
SuperFlex@110
</title>
</circle>
<circle cx="158" cy="171" fill="#ffff0066" r="5">
<title>
BreakALeg@125
</title>
</circle>
<circle cx="29" cy="165" fill="#ffff0066" r="5">
<title>
WallHack@98
</title>
</circle>
<path class="ok" d="M27 80L27 95M27 95L32 100M27 120L27 125M27 120L47 130M27 125L52 135M32 100L42 120M37 70L37 105M37 70L47 75M37 70L62 60M37 105L42 105M37 105L47 115M42 105L47 95M42 105L62 105M42 120L67 120M42 125L77 130M47 75L47 95M47 75L62 60M47 115L67 120M47 130L52 135M47 130L77 130M52 75L52 90M52 75L62 85M52 75L77 55M52 90L62 100M52 135L87 140M57 150L62 140M57 150L67 165M62 85L62 90M62 85L82 70M62 90L67 90M62 100L62 105M62 100L67 90M62 105L67 120M62 105L107 110M62 140L67 150M62 140L87 140M67 90L107 80M67 120L77 130M67 150L72 160M67 150L87 150M67 165L72 160M67 165L87 165M72 160L87 165M77 55L82 60M77 55L87 55M77 130L87 140M82 60L82 65M82 60L102 60M82 65L82 70M82 65L97 65M82 70L97 65M87 55L102 60M87 140L97 145M97 145L107 110M97 145L117 145M107 80L107 110M107 80L122 80M107 110L117 145M107 110L157 100M117 60L132 60M117 70L122 65M117 70L137 70M117 145L127 140M117 145L132 150M122 65L137 65M122 80L147 90M127 140L142 130M127 140L157 140M127 140L172 135M132 60L137 65M132 150L152 145M137 65L137 70M137 65L142 60M137 70L152 80M137 165L152 160M137 165L157 165M142 60L167 80M142 130L152 120M142 130L167 130M142 130L177 125M147 90L157 90M147 90L157 100M152 80L157 90M152 80L167 80M152 120L157 110M152 120L172 120M152 145L152 160M152 145L157 140M152 160L157 165M157 100L157 110M157 100L167 90M157 100L172 95M157 110L177 100M157 140L162 145M157 165L162 145M167 80L167 90M167 130L172 135M167 130L192 125M172 55L182 60M172 60L172 85M172 60L182 60M172 85L172 95M172 95L177 100M172 120L177 125M172 120L192 100M172 135L197 125M177 100L182 95M177 125L197 105M182 80L187 85M187 85L192 100M192 125L197 110M192 125L197 125M197 110L197 125" style="stroke:#0000ff;stroke-linecap:round"/>
<path class="out" d="M17 100L27 80M17 100L42 125M17 110L27 120M17 110L27 125M87 150L97 145M117 60L132 55M132 55L142 60M152 55L172 55M152 55L172 60M182 60L182 95M182 80L192 85M187 85L192 85M192 85L197 105" style="stroke:#ff0000;stroke-linecap:round"/>
<g fill="#333333">
<circle cx="6" cy="41" r="0.5">
<title>
hole:0
</title>
</circle>
<circle cx="32" cy="49" r="0.5">
<title>
hole:1
</title>
</circle>
<circle cx="16" cy="85" r="0.5">
<title>
hole:2
</title>
</circle>
<circle cx="35" cy="108" r="0.5">
<title>
hole:3
</title>
</circle>
<circle cx="2" cy="113" r="0.5">
<title>
hole:4
</title>
</circle>
<circle cx="2" cy="154" r="0.5">
<title>
hole:5
</title>
</circle>
<circle cx="53" cy="151" r="0.5">
<title>
hole:6
</title>
</circle>
<circle cx="2" cy="180" r="0.5">
<title>
hole:7
</title>
</circle>
<circle cx="2" cy="205" r="0.5">
<title>
hole:8
</title>
</circle>
<circle cx="50" cy="183" r="0.5">
<title>
hole:9
</title>
</circle>
<circle cx="71" cy="199" r="0.5">
<title>
hole:10
</title>
</circle>
<circle cx="100" cy="187" r="0.5">
<title>
hole:11
</title>
</circle>
<circle cx="93" cy="145" r="0.5">
<title>
hole:12
</title>
</circle>
<circle cx="125" cy="152" r="0.5">
<title>
hole:13
</title>
</circle>
<circle cx="127" cy="178" r="0.5">
<title>
hole:14
</title>
</circle>
<circle cx="130" cy="205" r="0.5">
<title>
hole:15
</title>
</circle>
<circle cx="154" cy="199" r="0.5">
<title>
hole:16
</title>
</circle>
<circle cx="178" cy="194" r="0.5">
<title>
hole:17
</title>
</circle>
<circle cx="200" cy="200" r="0.5">
<title>
hole:18
</title>
</circle>
<circle cx="205" cy="177" r="0.5">
<title>
hole:19
</title>
</circle>
<circle cx="174" cy="148" r="0.5">
<title>
hole:20
</title>
</circle>
<circle cx="205" cy="147" r="0.5">
<title>
hole:21
</title>
</circle>
<circle cx="212" cy="105" r="0.5">
<title>
hole:22
</title>
</circle>
<circle cx="181" cy="76" r="0.5">
<title>
hole:23
</title>
</circle>
<circle cx="204" cy="62" r="0.5">
<title>
hole:24
</title>
</circle>
<circle cx="180" cy="50" r="0.5">
<title>
hole:25
</title>
</circle>
<circle cx="203" cy="37" r="0.5">
<title>
hole:26
</title>
</circle>
<circle cx="169" cy="0" r="0.5">
<title>
hole:27
</title>
</circle>
<circle cx="155" cy="59" r="0.5">
<title>
hole:28
</title>
</circle>
<circle cx="118" cy="59" r="0.5">
<title>
hole:29
</title>
</circle>
<circle cx="97" cy="47" r="0.5">
<title>
hole:30
</title>
</circle>
<circle cx="143" cy="0" r="0.5">
<title>
hole:31
</title>
</circle>
<circle cx="102" cy="0" r="0.5">
<title>
hole:32
</title>
</circle>
<circle cx="74" cy="22" r="0.5">
<title>
hole:33
</title>
</circle>
<circle cx="51" cy="34" r="0.5">
<title>
hole:34
</title>
</circle>
<circle cx="36" cy="8" r="0.5">
<title>
hole:35
</title>
</circle>
<circle cx="2" cy="16" r="0.5">
<title>
hole:36
</title>
</circle>
</g>
<g fill="#999999">
<circle cx="17" cy="100" i="0" r="0.5" tabindex="0">
<title>
v:0
</title>
</circle>
<circle cx="17" cy="110" i="1" r="0.5" tabindex="1">
<title>
v:1
</title>
</circle>
<circle cx="27" cy="80" i="2" r="0.5" tabindex="2">
<title>
v:2
</title>
</circle>
<circle cx="27" cy="95" i="3" r="0.5" tabindex="3">
<title>
v:3
</title>
</circle>
<circle cx="27" cy="120" i="4" r="0.5" tabindex="4">
<title>
v:4
</title>
</circle>
<circle cx="27" cy="125" i="5" r="0.5" tabindex="5">
<title>
v:5
</title>
</circle>
<circle cx="32" cy="100" i="6" r="0.5" tabindex="6">
<title>
v:6
</title>
</circle>
<circle cx="37" cy="70" i="7" r="0.5" tabindex="7">
<title>
v:7
</title>
</circle>
<circle cx="37" cy="105" i="8" r="0.5" tabindex="8">
<title>
v:8
</title>
</circle>
<circle cx="42" cy="105" i="9" r="0.5" tabindex="9">
<title>
v:9
</title>
</circle>
<circle cx="42" cy="120" i="10" r="0.5" tabindex="10">
<title>
v:10
</title>
</circle>
<circle cx="42" cy="125" i="11" r="0.5" tabindex="11">
<title>
v:11
</title>
</circle>
<circle cx="47" cy="75" i="12" r="0.5" tabindex="12">
<title>
v:12
</title>
</circle>
<circle cx="47" cy="95" i="13" r="0.5" tabindex="13">
<title>
v:13
</title>
</circle>
<circle cx="47" cy="115" i="14" r="0.5" tabindex="14">
<title>
v:14
</title>
</circle>
<circle cx="47" cy="130" i="15" r="0.5" tabindex="15">
<title>
v:15
</title>
</circle>
<circle cx="52" cy="75" i="16" r="0.5" tabindex="16">
<title>
v:16
</title>
</circle>
<circle cx="52" cy="90" i="17" r="0.5" tabindex="17">
<title>
v:17
</title>
</circle>
<circle cx="52" cy="135" i="18" r="0.5" tabindex="18">
<title>
v:18
</title>
</circle>
<circle cx="57" cy="150" i="19" r="0.5" tabindex="19">
<title>
v:19
</title>
</circle>
<circle cx="62" cy="60" i="20" r="0.5" tabindex="20">
<title>
v:20
</title>
</circle>
<circle cx="62" cy="85" i="21" r="0.5" tabindex="21">
<title>
v:21
</title>
</circle>
<circle cx="62" cy="90" i="22" r="0.5" tabindex="22">
<title>
v:22
</title>
</circle>
<circle cx="62" cy="100" i="23" r="0.5" tabindex="23">
<title>
v:23
</title>
</circle>
<circle cx="62" cy="105" i="24" r="0.5" tabindex="24">
<title>
v:24
</title>
</circle>
<circle cx="62" cy="140" i="25" r="0.5" tabindex="25">
<title>
v:25
</title>
</circle>
<circle cx="67" cy="90" i="26" r="0.5" tabindex="26">
<title>
v:26
</title>
</circle>
<circle cx="67" cy="120" i="27" r="0.5" tabindex="27">
<title>
v:27
</title>
</circle>
<circle cx="67" cy="150" i="28" r="0.5" tabindex="28">
<title>
v:28
</title>
</circle>
<circle cx="67" cy="165" i="29" r="0.5" tabindex="29">
<title>
v:29
</title>
</circle>
<circle cx="72" cy="160" i="30" r="0.5" tabindex="30">
<title>
v:30
</title>
</circle>
<circle cx="77" cy="55" i="31" r="0.5" tabindex="31">
<title>
v:31
</title>
</circle>
<circle cx="77" cy="130" i="32" r="0.5" tabindex="32">
<title>
v:32
</title>
</circle>
<circle cx="82" cy="60" i="33" r="0.5" tabindex="33">
<title>
v:33
</title>
</circle>
<circle cx="82" cy="65" i="34" r="0.5" tabindex="34">
<title>
v:34
</title>
</circle>
<circle cx="82" cy="70" i="35" r="0.5" tabindex="35">
<title>
v:35
</title>
</circle>
<circle cx="87" cy="55" i="36" r="0.5" tabindex="36">
<title>
v:36
</title>
</circle>
<circle cx="87" cy="140" i="37" r="0.5" tabindex="37">
<title>
v:37
</title>
</circle>
<circle cx="87" cy="150" i="38" r="0.5" tabindex="38">
<title>
v:38
</title>
</circle>
<circle cx="87" cy="165" i="39" r="0.5" tabindex="39">
<title>
v:39
</title>
</circle>
<circle cx="97" cy="65" i="40" r="0.5" tabindex="40">
<title>
v:40
</title>
</circle>
<circle cx="97" cy="145" i="41" r="0.5" tabindex="41">
<title>
v:41
</title>
</circle>
<circle cx="102" cy="60" i="42" r="0.5" tabindex="42">
<title>
v:42
</title>
</circle>
<circle cx="107" cy="80" i="43" r="0.5" tabindex="43">
<title>
v:43
</title>
</circle>
<circle cx="107" cy="110" i="44" r="0.5" tabindex="44">
<title>
v:44
</title>
</circle>
<circle cx="117" cy="60" i="45" r="0.5" tabindex="45">
<title>
v:45
</title>
</circle>
<circle cx="117" cy="70" i="46" r="0.5" tabindex="46">
<title>
v:46
</title>
</circle>
<circle cx="117" cy="145" i="47" r="0.5" tabindex="47">
<title>
v:47
</title>
</circle>
<circle cx="122" cy="65" i="48" r="0.5" tabindex="48">
<title>
v:48
</title>
</circle>
<circle cx="122" cy="80" i="49" r="0.5" tabindex="49">
<title>
v:49
</title>
</circle>
<circle cx="127" cy="140" i="50" r="0.5" tabindex="50">
<title>
v:50
</title>
</circle>
<circle cx="132" cy="55" i="51" r="0.5" tabindex="51">
<title>
v:51
</title>
</circle>
<circle cx="132" cy="60" i="52" r="0.5" tabindex="52">
<title>
v:52
</title>
</circle>
<circle cx="132" cy="150" i="53" r="0.5" tabindex="53">
<title>
v:53
</title>
</circle>
<circle cx="137" cy="65" i="54" r="0.5" tabindex="54">
<title>
v:54
</title>
</circle>
<circle cx="137" cy="70" i="55" r="0.5" tabindex="55">
<title>
v:55
</title>
</circle>
<circle cx="137" cy="165" i="56" r="0.5" tabindex="56">
<title>
v:56
</title>
</circle>
<circle cx="142" cy="60" i="57" r="0.5" tabindex="57">
<title>
v:57
</title>
</circle>
<circle cx="142" cy="130" i="58" r="0.5" tabindex="58">
<title>
v:58
</title>
</circle>
<circle cx="147" cy="90" i="59" r="0.5" tabindex="59">
<title>
v:59
</title>
</circle>
<circle cx="152" cy="55" i="60" r="0.5" tabindex="60">
<title>
v:60
</title>
</circle>
<circle cx="152" cy="80" i="61" r="0.5" tabindex="61">
<title>
v:61
</title>
</circle>
<circle cx="152" cy="120" i="62" r="0.5" tabindex="62">
<title>
v:62
</title>
</circle>
<circle cx="152" cy="145" i="63" r="0.5" tabindex="63">
<title>
v:63
</title>
</circle>
<circle cx="152" cy="160" i="64" r="0.5" tabindex="64">
<title>
v:64
</title>
</circle>
<circle cx="157" cy="90" i="65" r="0.5" tabindex="65">
<title>
v:65
</title>
</circle>
<circle cx="157" cy="100" i="66" r="0.5" tabindex="66">
<title>
v:66
</title>
</circle>
<circle cx="157" cy="110" i="67" r="0.5" tabindex="67">
<title>
v:67
</title>
</circle>
<circle cx="157" cy="140" i="68" r="0.5" tabindex="68">
<title>
v:68
</title>
</circle>
<circle cx="157" cy="165" i="69" r="0.5" tabindex="69">
<title>
v:69
</title>
</circle>
<circle cx="162" cy="145" i="70" r="0.5" tabindex="70">
<title>
v:70
</title>
</circle>
<circle cx="167" cy="80" i="71" r="0.5" tabindex="71">
<title>
v:71
</title>
</circle>
<circle cx="167" cy="90" i="72" r="0.5" tabindex="72">
<title>
v:72
</title>
</circle>
<circle cx="167" cy="130" i="73" r="0.5" tabindex="73">
<title>
v:73
</title>
</circle>
<circle cx="172" cy="55" i="74" r="0.5" tabindex="74">
<title>
v:74
</title>
</circle>
<circle cx="172" cy="60" i="75" r="0.5" tabindex="75">
<title>
v:75
</title>
</circle>
<circle cx="172" cy="85" i="76" r="0.5" tabindex="76">
<title>
v:76
</title>
</circle>
<circle cx="172" cy="95" i="77" r="0.5" tabindex="77">
<title>
v:77
</title>
</circle>
<circle cx="172" cy="120" i="78" r="0.5" tabindex="78">
<title>
v:78
</title>
</circle>
<circle cx="172" cy="135" i="79" r="0.5" tabindex="79">
<title>
v:79
</title>
</circle>
<circle cx="177" cy="100" i="80" r="0.5" tabindex="80">
<title>
v:80
</title>
</circle>
<circle cx="177" cy="125" i="81" r="0.5" tabindex="81">
<title>
v:81
</title>
</circle>
<circle cx="182" cy="60" i="82" r="0.5" tabindex="82">
<title>
v:82
</title>
</circle>
<circle cx="182" cy="80" i="83" r="0.5" tabindex="83">
<title>
v:83
</title>
</circle>
<circle cx="182" cy="95" i="84" r="0.5" tabindex="84">
<title>
v:84
</title>
</circle>
<circle cx="187" cy="85" i="85" r="0.5" tabindex="85">
<title>
v:85
</title>
</circle>
<circle cx="192" cy="85" i="86" r="0.5" tabindex="86">
<title>
v:86
</title>
</circle>
<circle cx="192" cy="100" i="87" r="0.5" tabindex="87">
<title>
v:87
</title>
</circle>
<circle cx="192" cy="125" i="88" r="0.5" tabindex="88">
<title>
v:88
</title>
</circle>
<circle cx="197" cy="105" i="89" r="0.5" tabindex="89">
<title>
v:89
</title>
</circle>
<circle cx="197" cy="110" i="90" r="0.5" tabindex="90">
<title>
v:90
</title>
</circle>
<circle cx="197" cy="125" i="91" r="0.5" tabindex="91">
<title>
v:91
</title>
</circle>
</g>
</svg>