<svg height="500" viewBox="0 -2 221 218" width="500" xmlns="http://www.w3.org/2000/svg">
<path class="hole" d="M2 100L20 69L36 73L32 91L52 104L44 119L25 114L2 120L45 142L95 162L53 164L37 166L2 162L2 197L29 184L43 193L28 214L55 214L62 199L69 185L86 193L126 214L149 214L134 198L120 183L147 179L164 183L181 188L166 211L188 214L205 198L214 160L169 154L216 129L153 139L213 103L219 73L219 42L176 98L200 35L202 17L204 0L179 3L153 20L135 0L131 20L128 41L113 29L105 65L93 31L85 82L93 120L49 59L33 56L32 28L32 0L2 30M0 -2L221 -2L221 216L0 216" style="fill:#00000066;fill-rule:evenodd;"/>
<circle cx="188" cy="135" fill="#ffff0066" r="5">
<title>
SuperFlex@109
</title>
</circle>
<circle cx="173" cy="36" fill="#ffff0066" r="5">
<title>
SuperFlex@124
</title>
</circle>
<circle cx="197" cy="84" fill="#ffff0066" r="5">
<title>
BreakALeg@23
</title>
</circle>
<path class="ok" d="M45 99L57 101M46 126L107 136M53 109L57 101M53 109L89 137M57 101L85 120M62 139L71 136M71 136L74 144M71 136L114 143M74 144L133 154M87 157L159 146M89 137L148 123M107 136L147 114M109 101L153 71M112 180L175 160M114 143L150 128M126 118L160 82M131 103L158 73M133 154L171 124M147 114L164 74M148 123L169 81M150 128L173 89M153 71L159 50M158 73L166 53M159 50L166 53M159 50L171 37M160 82L166 53M164 74L174 56M166 53L174 56M169 81L174 56M171 37L180 41M173 89L174 56M174 56L180 41M174 56L180 58M180 41L187 45M180 58L186 57M186 57L187 45" style="stroke:#0000ff;stroke-linecap:round"/>
<path class="out" d="M23 90L24 81M23 90L30 87M23 90L46 126M24 81L32 81M30 87L32 81M30 87L74 118M32 81L68 104M43 108L45 99M43 108L53 109M43 108L87 157M62 139L64 151M64 151L74 144M64 151L112 180M68 104L109 101M74 118L131 103M85 120L126 118M159 146L182 105M171 124L182 84M175 160L198 113M180 58L182 84M182 105L186 57M186 57L190 84M190 84L198 113" style="stroke:#ff0000;stroke-linecap:round"/>
<g fill="#333333">
<circle cx="2" cy="100" r="0.5">
<title>
hole:0
</title>
</circle>
<circle cx="20" cy="69" r="0.5">
<title>
hole:1
</title>
</circle>
<circle cx="36" cy="73" r="0.5">
<title>
hole:2
</title>
</circle>
<circle cx="32" cy="91" r="0.5">
<title>
hole:3
</title>
</circle>
<circle cx="52" cy="104" r="0.5">
<title>
hole:4
</title>
</circle>
<circle cx="44" cy="119" r="0.5">
<title>
hole:5
</title>
</circle>
<circle cx="25" cy="114" r="0.5">
<title>
hole:6
</title>
</circle>
<circle cx="2" cy="120" r="0.5">
<title>
hole:7
</title>
</circle>
<circle cx="45" cy="142" r="0.5">
<title>
hole:8
</title>
</circle>
<circle cx="95" cy="162" r="0.5">
<title>
hole:9
</title>
</circle>
<circle cx="53" cy="164" r="0.5">
<title>
hole:10
</title>
</circle>
<circle cx="37" cy="166" r="0.5">
<title>
hole:11
</title>
</circle>
<circle cx="2" cy="162" r="0.5">
<title>
hole:12
</title>
</circle>
<circle cx="2" cy="197" r="0.5">
<title>
hole:13
</title>
</circle>
<circle cx="29" cy="184" r="0.5">
<title>
hole:14
</title>
</circle>
<circle cx="43" cy="193" r="0.5">
<title>
hole:15
</title>
</circle>
<circle cx="28" cy="214" r="0.5">
<title>
hole:16
</title>
</circle>
<circle cx="55" cy="214" r="0.5">
<title>
hole:17
</title>
</circle>
<circle cx="62" cy="199" r="0.5">
<title>
hole:18
</title>
</circle>
<circle cx="69" cy="185" r="0.5">
<title>
hole:19
</title>
</circle>
<circle cx="86" cy="193" r="0.5">
<title>
hole:20
</title>
</circle>
<circle cx="126" cy="214" r="0.5">
<title>
hole:21
</title>
</circle>
<circle cx="149" cy="214" r="0.5">
<title>
hole:22
</title>
</circle>
<circle cx="134" cy="198" r="0.5">
<title>
hole:23
</title>
</circle>
<circle cx="120" cy="183" r="0.5">
<title>
hole:24
</title>
</circle>
<circle cx="147" cy="179" r="0.5">
<title>
hole:25
</title>
</circle>
<circle cx="164" cy="183" r="0.5">
<title>
hole:26
</title>
</circle>
<circle cx="181" cy="188" r="0.5">
<title>
hole:27
</title>
</circle>
<circle cx="166" cy="211" r="0.5">
<title>
hole:28
</title>
</circle>
<circle cx="188" cy="214" r="0.5">
<title>
hole:29
</title>
</circle>
<circle cx="205" cy="198" r="0.5">
<title>
hole:30
</title>
</circle>
<circle cx="214" cy="160" r="0.5">
<title>
hole:31
</title>
</circle>
<circle cx="169" cy="154" r="0.5">
<title>
hole:32
</title>
</circle>
<circle cx="216" cy="129" r="0.5">
<title>
hole:33
</title>
</circle>
<circle cx="153" cy="139" r="0.5">
<title>
hole:34
</title>
</circle>
<circle cx="213" cy="103" r="0.5">
<title>
hole:35
</title>
</circle>
<circle cx="219" cy="73" r="0.5">
<title>
hole:36
</title>
</circle>
<circle cx="219" cy="42" r="0.5">
<title>
hole:37
</title>
</circle>
<circle cx="176" cy="98" r="0.5">
<title>
hole:38
</title>
</circle>
<circle cx="200" cy="35" r="0.5">
<title>
hole:39
</title>
</circle>
<circle cx="202" cy="17" r="0.5">
<title>
hole:40
</title>
</circle>
<circle cx="204" cy="0" r="0.5">
<title>
hole:41
</title>
</circle>
<circle cx="179" cy="3" r="0.5">
<title>
hole:42
</title>
</circle>
<circle cx="153" cy="20" r="0.5">
<title>
hole:43
</title>
</circle>
<circle cx="135" cy="0" r="0.5">
<title>
hole:44
</title>
</circle>
<circle cx="131" cy="20" r="0.5">
<title>
hole:45
</title>
</circle>
<circle cx="128" cy="41" r="0.5">
<title>
hole:46
</title>
</circle>
<circle cx="113" cy="29" r="0.5">
<title>
hole:47
</title>
</circle>
<circle cx="105" cy="65" r="0.5">
<title>
hole:48
</title>
</circle>
<circle cx="93" cy="31" r="0.5">
<title>
hole:49
</title>
</circle>
<circle cx="85" cy="82" r="0.5">
<title>
hole:50
</title>
</circle>
<circle cx="93" cy="120" r="0.5">
<title>
hole:51
</title>
</circle>
<circle cx="49" cy="59" r="0.5">
<title>
hole:52
</title>
</circle>
<circle cx="33" cy="56" r="0.5">
<title>
hole:53
</title>
</circle>
<circle cx="32" cy="28" r="0.5">
<title>
hole:54
</title>
</circle>
<circle cx="32" cy="0" r="0.5">
<title>
hole:55
</title>
</circle>
<circle cx="2" cy="30" r="0.5">
<title>
hole:56
</title>
</circle>
</g>
<g fill="#999999">
<circle cx="23" cy="90" i="0" r="0.5" tabindex="0">
<title>
v:0
</title>
</circle>
<circle cx="24" cy="81" i="1" r="0.5" tabindex="1">
<title>
v:1
</title>
</circle>
<circle cx="30" cy="87" i="2" r="0.5" tabindex="2">
<title>
v:2
</title>
</circle>
<circle cx="32" cy="81" i="3" r="0.5" tabindex="3">
<title>
v:3
</title>
</circle>
<circle cx="43" cy="108" i="4" r="0.5" tabindex="4">
<title>
v:4
</title>
</circle>
<circle cx="45" cy="99" i="5" r="0.5" tabindex="5">
<title>
v:5
</title>
</circle>
<circle cx="46" cy="126" i="6" r="0.5" tabindex="6">
<title>
v:6
</title>
</circle>
<circle cx="53" cy="109" i="7" r="0.5" tabindex="7">
<title>
v:7
</title>
</circle>
<circle cx="57" cy="101" i="8" r="0.5" tabindex="8">
<title>
v:8
</title>
</circle>
<circle cx="62" cy="139" i="9" r="0.5" tabindex="9">
<title>
v:9
</title>
</circle>
<circle cx="64" cy="151" i="10" r="0.5" tabindex="10">
<title>
v:10
</title>
</circle>
<circle cx="68" cy="104" i="11" r="0.5" tabindex="11">
<title>
v:11
</title>
</circle>
<circle cx="71" cy="136" i="12" r="0.5" tabindex="12">
<title>
v:12
</title>
</circle>
<circle cx="74" cy="118" i="13" r="0.5" tabindex="13">
<title>
v:13
</title>
</circle>
<circle cx="74" cy="144" i="14" r="0.5" tabindex="14">
<title>
v:14
</title>
</circle>
<circle cx="85" cy="120" i="15" r="0.5" tabindex="15">
<title>
v:15
</title>
</circle>
<circle cx="87" cy="157" i="16" r="0.5" tabindex="16">
<title>
v:16
</title>
</circle>
<circle cx="89" cy="137" i="17" r="0.5" tabindex="17">
<title>
v:17
</title>
</circle>
<circle cx="107" cy="136" i="18" r="0.5" tabindex="18">
<title>
v:18
</title>
</circle>
<circle cx="109" cy="101" i="19" r="0.5" tabindex="19">
<title>
v:19
</title>
</circle>
<circle cx="112" cy="180" i="20" r="0.5" tabindex="20">
<title>
v:20
</title>
</circle>
<circle cx="114" cy="143" i="21" r="0.5" tabindex="21">
<title>
v:21
</title>
</circle>
<circle cx="126" cy="118" i="22" r="0.5" tabindex="22">
<title>
v:22
</title>
</circle>
<circle cx="131" cy="103" i="23" r="0.5" tabindex="23">
<title>
v:23
</title>
</circle>
<circle cx="133" cy="154" i="24" r="0.5" tabindex="24">
<title>
v:24
</title>
</circle>
<circle cx="147" cy="114" i="25" r="0.5" tabindex="25">
<title>
v:25
</title>
</circle>
<circle cx="148" cy="123" i="26" r="0.5" tabindex="26">
<title>
v:26
</title>
</circle>
<circle cx="150" cy="128" i="27" r="0.5" tabindex="27">
<title>
v:27
</title>
</circle>
<circle cx="153" cy="71" i="28" r="0.5" tabindex="28">
<title>
v:28
</title>
</circle>
<circle cx="158" cy="73" i="29" r="0.5" tabindex="29">
<title>
v:29
</title>
</circle>
<circle cx="159" cy="50" i="30" r="0.5" tabindex="30">
<title>
v:30
</title>
</circle>
<circle cx="159" cy="146" i="31" r="0.5" tabindex="31">
<title>
v:31
</title>
</circle>
<circle cx="160" cy="82" i="32" r="0.5" tabindex="32">
<title>
v:32
</title>
</circle>
<circle cx="164" cy="74" i="33" r="0.5" tabindex="33">
<title>
v:33
</title>
</circle>
<circle cx="166" cy="53" i="34" r="0.5" tabindex="34">
<title>
v:34
</title>
</circle>
<circle cx="169" cy="81" i="35" r="0.5" tabindex="35">
<title>
v:35
</title>
</circle>
<circle cx="171" cy="37" i="36" r="0.5" tabindex="36">
<title>
v:36
</title>
</circle>
<circle cx="171" cy="124" i="37" r="0.5" tabindex="37">
<title>
v:37
</title>
</circle>
<circle cx="173" cy="89" i="38" r="0.5" tabindex="38">
<title>
v:38
</title>
</circle>
<circle cx="174" cy="56" i="39" r="0.5" tabindex="39">
<title>
v:39
</title>
</circle>
<circle cx="175" cy="160" i="40" r="0.5" tabindex="40">
<title>
v:40
</title>
</circle>
<circle cx="180" cy="41" i="41" r="0.5" tabindex="41">
<title>
v:41
</title>
</circle>
<circle cx="180" cy="58" i="42" r="0.5" tabindex="42">
<title>
v:42
</title>
</circle>
<circle cx="182" cy="84" i="43" r="0.5" tabindex="43">
<title>
v:43
</title>
</circle>
<circle cx="182" cy="105" i="44" r="0.5" tabindex="44">
<title>
v:44
</title>
</circle>
<circle cx="186" cy="57" i="45" r="0.5" tabindex="45">
<title>
v:45
</title>
</circle>
<circle cx="187" cy="45" i="46" r="0.5" tabindex="46">
<title>
v:46
</title>
</circle>
<circle cx="190" cy="84" i="47" r="0.5" tabindex="47">
<title>
v:47
</title>
</circle>
<circle cx="198" cy="113" i="48" r="0.5" tabindex="48">
<title>
v:48
</title>
</circle>
</g>
</svg>