<svg height="500" viewBox="8 -1 184 200" width="500" xmlns="http://www.w3.org/2000/svg">
<path class="hole" d="M10 196L45 188L67 192L94 191L126 189L157 197L182 186L184 150L130 140L84 149L106 117L137 73L190 44L147 5L114 23L95 54L69 23L33 1L13 47L50 63L65 96L21 128M8 -1L192 -1L192 199L8 199" style="fill:#00000066;fill-rule:evenodd;"/>
<circle cx="19" cy="163" fill="#ffff0066" r="5">
<title>
SuperFlex@123
</title>
</circle>
<circle cx="154" cy="163" fill="#ffff0066" r="5">
<title>
WallHack@129
</title>
</circle>
<circle cx="40" cy="31" fill="#ffff0066" r="5">
<title>
WallHack@96
</title>
</circle>
<path class="ok" d="M19 143L19 150M19 143L30 131M19 150L31 140M19 180L19 188M19 180L31 158M19 188L24 188M24 188L40 166M30 131L31 140M30 131L36 128M31 122L36 128M31 122L48 122M31 140L31 158M31 140L44 128M31 140L49 140M31 140L49 158M31 158L40 166M31 158L49 140M36 128L44 128M36 128L49 140M40 166L49 158M40 166L56 188M44 128L48 122M44 128L50 131M47 115L48 122M49 140L49 158M49 140L50 131M49 140L60 150M49 158L60 180M50 131L60 143M56 188L60 188M60 143L60 150M60 143L71 131M60 150L72 140M60 180L60 188M60 180L72 158M60 188L65 188M65 188L81 166M71 131L72 140M71 131L77 128M72 140L72 158M72 140L85 128M72 140L90 140M72 140L90 158M72 158L81 166M72 158L90 140M73 122L74 115M73 122L77 128M73 122L90 122M74 115L81 111M74 115L88 115M77 128L81 111M77 128L85 128M77 128L90 140M81 111L85 128M81 111L88 115M81 166L90 158M81 166L97 188M85 128L90 122M85 128L91 131M88 115L90 122M90 140L91 131M90 158L102 180M97 188L102 188M102 180L102 188M102 180L113 158M102 188L106 188M106 188L122 166M113 158L122 166M122 166L131 158M122 166L138 188M131 158L143 180M138 188L143 188M143 143L143 150M143 180L143 188M143 180L154 158M143 188L147 188M147 188L163 166M154 158L163 166M163 166L173 158" style="stroke:#0000ff;stroke-linecap:round"/>
<path class="out" d="M31 122L33 115M33 115L40 111M33 115L47 115M36 128L40 111M40 111L44 128M40 111L47 115M90 140L90 158M90 140L102 150M91 131L102 143M102 143L102 150M102 143L112 131M102 150L113 140M112 131L113 140M112 131L118 128M113 140L113 158M113 140L126 128M113 140L131 140M113 140L131 158M113 158L131 140M114 122L115 115M114 122L118 128M114 122L131 122M115 115L122 111M115 115L129 115M118 128L122 111M118 128L126 128M118 128L131 140M122 111L126 128M122 111L129 115M126 128L131 122M126 128L132 131M129 115L131 122M131 140L131 158M131 140L132 131M131 140L143 150M132 131L143 143M143 143L153 131M143 150L154 140M153 131L154 140M153 131L160 128M154 140L154 158M154 140L167 128M154 140L173 140M154 140L173 158M154 158L173 140M155 122L157 115M155 122L160 128M155 122L172 122M157 115L163 111M157 115L170 115M160 128L163 111M160 128L167 128M160 128L173 140M163 111L167 128M163 111L170 115M163 166L180 188M167 128L172 122M167 128L173 131M170 115L172 122M173 131L173 140M173 131L184 143M173 140L173 158M173 140L184 150M173 158L184 180M180 188L184 188M184 143L184 150M184 180L184 188" style="stroke:#ff0000;stroke-linecap:round"/>
<g fill="#333333">
<circle cx="10" cy="196" r="0.5">
<title>
hole:0
</title>
</circle>
<circle cx="45" cy="188" r="0.5">
<title>
hole:1
</title>
</circle>
<circle cx="67" cy="192" r="0.5">
<title>
hole:2
</title>
</circle>
<circle cx="94" cy="191" r="0.5">
<title>
hole:3
</title>
</circle>
<circle cx="126" cy="189" r="0.5">
<title>
hole:4
</title>
</circle>
<circle cx="157" cy="197" r="0.5">
<title>
hole:5
</title>
</circle>
<circle cx="182" cy="186" r="0.5">
<title>
hole:6
</title>
</circle>
<circle cx="184" cy="150" r="0.5">
<title>
hole:7
</title>
</circle>
<circle cx="130" cy="140" r="0.5">
<title>
hole:8
</title>
</circle>
<circle cx="84" cy="149" r="0.5">
<title>
hole:9
</title>
</circle>
<circle cx="106" cy="117" r="0.5">
<title>
hole:10
</title>
</circle>
<circle cx="137" cy="73" r="0.5">
<title>
hole:11
</title>
</circle>
<circle cx="190" cy="44" r="0.5">
<title>
hole:12
</title>
</circle>
<circle cx="147" cy="5" r="0.5">
<title>
hole:13
</title>
</circle>
<circle cx="114" cy="23" r="0.5">
<title>
hole:14
</title>
</circle>
<circle cx="95" cy="54" r="0.5">
<title>
hole:15
</title>
</circle>
<circle cx="69" cy="23" r="0.5">
<title>
hole:16
</title>
</circle>
<circle cx="33" cy="1" r="0.5">
<title>
hole:17
</title>
</circle>
<circle cx="13" cy="47" r="0.5">
<title>
hole:18
</title>
</circle>
<circle cx="50" cy="63" r="0.5">
<title>
hole:19
</title>
</circle>
<circle cx="65" cy="96" r="0.5">
<title>
hole:20
</title>
</circle>
<circle cx="21" cy="128" r="0.5">
<title>
hole:21
</title>
</circle>
</g>
<g fill="#999999">
<circle cx="19" cy="143" i="0" r="0.5" tabindex="0">
<title>
v:0
</title>
</circle>
<circle cx="19" cy="150" i="1" r="0.5" tabindex="1">
<title>
v:1
</title>
</circle>
<circle cx="19" cy="180" i="2" r="0.5" tabindex="2">
<title>
v:2
</title>
</circle>
<circle cx="19" cy="188" i="3" r="0.5" tabindex="3">
<title>
v:3
</title>
</circle>
<circle cx="24" cy="188" i="4" r="0.5" tabindex="4">
<title>
v:4
</title>
</circle>
<circle cx="30" cy="131" i="5" r="0.5" tabindex="5">
<title>
v:5
</title>
</circle>
<circle cx="31" cy="122" i="6" r="0.5" tabindex="6">
<title>
v:6
</title>
</circle>
<circle cx="31" cy="140" i="7" r="0.5" tabindex="7">
<title>
v:7
</title>
</circle>
<circle cx="31" cy="158" i="8" r="0.5" tabindex="8">
<title>
v:8
</title>
</circle>
<circle cx="33" cy="115" i="9" r="0.5" tabindex="9">
<title>
v:9
</title>
</circle>
<circle cx="36" cy="128" i="10" r="0.5" tabindex="10">
<title>
v:10
</title>
</circle>
<circle cx="40" cy="111" i="11" r="0.5" tabindex="11">
<title>
v:11
</title>
</circle>
<circle cx="40" cy="166" i="12" r="0.5" tabindex="12">
<title>
v:12
</title>
</circle>
<circle cx="44" cy="128" i="13" r="0.5" tabindex="13">
<title>
v:13
</title>
</circle>
<circle cx="47" cy="115" i="14" r="0.5" tabindex="14">
<title>
v:14
</title>
</circle>
<circle cx="48" cy="122" i="15" r="0.5" tabindex="15">
<title>
v:15
</title>
</circle>
<circle cx="49" cy="140" i="16" r="0.5" tabindex="16">
<title>
v:16
</title>
</circle>
<circle cx="49" cy="158" i="17" r="0.5" tabindex="17">
<title>
v:17
</title>
</circle>
<circle cx="50" cy="131" i="18" r="0.5" tabindex="18">
<title>
v:18
</title>
</circle>
<circle cx="56" cy="188" i="19" r="0.5" tabindex="19">
<title>
v:19
</title>
</circle>
<circle cx="60" cy="143" i="20" r="0.5" tabindex="20">
<title>
v:20
</title>
</circle>
<circle cx="60" cy="150" i="21" r="0.5" tabindex="21">
<title>
v:21
</title>
</circle>
<circle cx="60" cy="180" i="22" r="0.5" tabindex="22">
<title>
v:22
</title>
</circle>
<circle cx="60" cy="188" i="23" r="0.5" tabindex="23">
<title>
v:23
</title>
</circle>
<circle cx="65" cy="188" i="24" r="0.5" tabindex="24">
<title>
v:24
</title>
</circle>
<circle cx="71" cy="131" i="25" r="0.5" tabindex="25">
<title>
v:25
</title>
</circle>
<circle cx="72" cy="140" i="26" r="0.5" tabindex="26">
<title>
v:26
</title>
</circle>
<circle cx="72" cy="158" i="27" r="0.5" tabindex="27">
<title>
v:27
</title>
</circle>
<circle cx="73" cy="122" i="28" r="0.5" tabindex="28">
<title>
v:28
</title>
</circle>
<circle cx="74" cy="115" i="29" r="0.5" tabindex="29">
<title>
v:29
</title>
</circle>
<circle cx="77" cy="128" i="30" r="0.5" tabindex="30">
<title>
v:30
</title>
</circle>
<circle cx="81" cy="111" i="31" r="0.5" tabindex="31">
<title>
v:31
</title>
</circle>
<circle cx="81" cy="166" i="32" r="0.5" tabindex="32">
<title>
v:32
</title>
</circle>
<circle cx="85" cy="128" i="33" r="0.5" tabindex="33">
<title>
v:33
</title>
</circle>
<circle cx="88" cy="115" i="34" r="0.5" tabindex="34">
<title>
v:34
</title>
</circle>
<circle cx="90" cy="122" i="35" r="0.5" tabindex="35">
<title>
v:35
</title>
</circle>
<circle cx="90" cy="140" i="36" r="0.5" tabindex="36">
<title>
v:36
</title>
</circle>
<circle cx="90" cy="158" i="37" r="0.5" tabindex="37">
<title>
v:37
</title>
</circle>
<circle cx="91" cy="131" i="38" r="0.5" tabindex="38">
<title>
v:38
</title>
</circle>
<circle cx="97" cy="188" i="39" r="0.5" tabindex="39">
<title>
v:39
</title>
</circle>
<circle cx="102" cy="143" i="40" r="0.5" tabindex="40">
<title>
v:40
</title>
</circle>
<circle cx="102" cy="150" i="41" r="0.5" tabindex="41">
<title>
v:41
</title>
</circle>
<circle cx="102" cy="180" i="42" r="0.5" tabindex="42">
<title>
v:42
</title>
</circle>
<circle cx="102" cy="188" i="43" r="0.5" tabindex="43">
<title>
v:43
</title>
</circle>
<circle cx="106" cy="188" i="44" r="0.5" tabindex="44">
<title>
v:44
</title>
</circle>
<circle cx="112" cy="131" i="45" r="0.5" tabindex="45">
<title>
v:45
</title>
</circle>
<circle cx="113" cy="140" i="46" r="0.5" tabindex="46">
<title>
v:46
</title>
</circle>
<circle cx="113" cy="158" i="47" r="0.5" tabindex="47">
<title>
v:47
</title>
</circle>
<circle cx="114" cy="122" i="48" r="0.5" tabindex="48">
<title>
v:48
</title>
</circle>
<circle cx="115" cy="115" i="49" r="0.5" tabindex="49">
<title>
v:49
</title>
</circle>
<circle cx="118" cy="128" i="50" r="0.5" tabindex="50">
<title>
v:50
</title>
</circle>
<circle cx="122" cy="111" i="51" r="0.5" tabindex="51">
<title>
v:51
</title>
</circle>
<circle cx="122" cy="166" i="52" r="0.5" tabindex="52">
<title>
v:52
</title>
</circle>
<circle cx="126" cy="128" i="53" r="0.5" tabindex="53">
<title>
v:53
</title>
</circle>
<circle cx="129" cy="115" i="54" r="0.5" tabindex="54">
<title>
v:54
</title>
</circle>
<circle cx="131" cy="122" i="55" r="0.5" tabindex="55">
<title>
v:55
</title>
</circle>
<circle cx="131" cy="140" i="56" r="0.5" tabindex="56">
<title>
v:56
</title>
</circle>
<circle cx="131" cy="158" i="57" r="0.5" tabindex="57">
<title>
v:57
</title>
</circle>
<circle cx="132" cy="131" i="58" r="0.5" tabindex="58">
<title>
v:58
</title>
</circle>
<circle cx="138" cy="188" i="59" r="0.5" tabindex="59">
<title>
v:59
</title>
</circle>
<circle cx="143" cy="143" i="60" r="0.5" tabindex="60">
<title>
v:60
</title>
</circle>
<circle cx="143" cy="150" i="61" r="0.5" tabindex="61">
<title>
v:61
</title>
</circle>
<circle cx="143" cy="180" i="62" r="0.5" tabindex="62">
<title>
v:62
</title>
</circle>
<circle cx="143" cy="188" i="63" r="0.5" tabindex="63">
<title>
v:63
</title>
</circle>
<circle cx="147" cy="188" i="64" r="0.5" tabindex="64">
<title>
v:64
</title>
</circle>
<circle cx="153" cy="131" i="65" r="0.5" tabindex="65">
<title>
v:65
</title>
</circle>
<circle cx="154" cy="140" i="66" r="0.5" tabindex="66">
<title>
v:66
</title>
</circle>
<circle cx="154" cy="158" i="67" r="0.5" tabindex="67">
<title>
v:67
</title>
</circle>
<circle cx="155" cy="122" i="68" r="0.5" tabindex="68">
<title>
v:68
</title>
</circle>
<circle cx="157" cy="115" i="69" r="0.5" tabindex="69">
<title>
v:69
</title>
</circle>
<circle cx="160" cy="128" i="70" r="0.5" tabindex="70">
<title>
v:70
</title>
</circle>
<circle cx="163" cy="111" i="71" r="0.5" tabindex="71">
<title>
v:71
</title>
</circle>
<circle cx="163" cy="166" i="72" r="0.5" tabindex="72">
<title>
v:72
</title>
</circle>
<circle cx="167" cy="128" i="73" r="0.5" tabindex="73">
<title>
v:73
</title>
</circle>
<circle cx="170" cy="115" i="74" r="0.5" tabindex="74">
<title>
v:74
</title>
</circle>
<circle cx="172" cy="122" i="75" r="0.5" tabindex="75">
<title>
v:75
</title>
</circle>
<circle cx="173" cy="131" i="76" r="0.5" tabindex="76">
<title>
v:76
</title>
</circle>
<circle cx="173" cy="140" i="77" r="0.5" tabindex="77">
<title>
v:77
</title>
</circle>
<circle cx="173" cy="158" i="78" r="0.5" tabindex="78">
<title>
v:78
</title>
</circle>
<circle cx="180" cy="188" i="79" r="0.5" tabindex="79">
<title>
v:79
</title>
</circle>
<circle cx="184" cy="143" i="80" r="0.5" tabindex="80">
<title>
v:80
</title>
</circle>
<circle cx="184" cy="150" i="81" r="0.5" tabindex="81">
<title>
v:81
</title>
</circle>
<circle cx="184" cy="180" i="82" r="0.5" tabindex="82">
<title>
v:82
</title>
</circle>
<circle cx="184" cy="188" i="83" r="0.5" tabindex="83">
<title>
v:83
</title>
</circle>
</g>
</svg>