<svg height="500" viewBox="0 -2 53 49" width="500" xmlns="http://www.w3.org/2000/svg">
<path class="hole" d="M2 24L22 44L37 20L17 0M0 -2L53 -2L53 47L0 47" style="fill:#00000066;fill-rule:evenodd;"/>
<circle cx="18" cy="28" fill="#ffff0066" r="5">
<title>
Globalist@41
</title>
</circle>
<circle cx="14" cy="15" fill="#ffff0066" r="5">
<title>
SuperFlex@78
</title>
</circle>
<circle cx="29" cy="30" fill="#ffff0066" r="5">
<title>
Globalist@94
</title>
</circle>
<path class="ok" d="" style="stroke:#0000ff;stroke-linecap:round"/>
<path class="out" d="M2 20L22 0M2 20L22 40M22 0L42 20M22 40L42 20M22 40L51 45M42 20L51 45" style="stroke:#ff0000;stroke-linecap:round"/>
<g fill="#333333">
<circle cx="2" cy="24" r="0.5">
<title>
hole:0
</title>
</circle>
<circle cx="22" cy="44" r="0.5">
<title>
hole:1
</title>
</circle>
<circle cx="37" cy="20" r="0.5">
<title>
hole:2
</title>
</circle>
<circle cx="17" cy="0" r="0.5">
<title>
hole:3
</title>
</circle>
</g>
<g fill="#999999">
<circle cx="2" cy="20" i="0" r="0.5" tabindex="0">
<title>
v:0
</title>
</circle>
<circle cx="22" cy="0" i="1" r="0.5" tabindex="1">
<title>
v:1
</title>
</circle>
<circle cx="22" cy="40" i="2" r="0.5" tabindex="2">
<title>
v:2
</title>
</circle>
<circle cx="42" cy="20" i="3" r="0.5" tabindex="3">
<title>
v:3
</title>
</circle>
<circle cx="51" cy="45" i="4" r="0.5" tabindex="4">
<title>
v:4
</title>
</circle>
</g>
</svg>