<svg height="500" viewBox="-2 -2 53 49" width="500" xmlns="http://www.w3.org/2000/svg">
<path class="hole" d="M2 24L22 44L37 20L17 0M-2 -2L51 -2L51 47L-2 47" style="fill:#00000066;fill-rule:evenodd;"/>
<circle cx="18" cy="28" r="5" style="fill:#ffff0066;" title="Globalist"/>
<path class="ok" d="" style="stroke:#0000ff;stroke-linecap:round"/>
<path class="out" d="M0 20L20 0M0 20L20 40M20 0L40 20M20 40L40 20M20 40L49 45M40 20L49 45" style="stroke:#ff0000;stroke-linecap:round"/>
<g fill="#333333">
<circle cx="2" cy="24" r="0.5" tabindex="0">
<title>
hole:0
</title>
</circle>
<circle cx="22" cy="44" r="0.5" tabindex="1">
<title>
hole:1
</title>
</circle>
<circle cx="37" cy="20" r="0.5" tabindex="2">
<title>
hole:2
</title>
</circle>
<circle cx="17" cy="0" r="0.5" tabindex="3">
<title>
hole:3
</title>
</circle>
</g>
<g fill="#999999">
<circle cx="0" cy="20" r="0.5" tabindex="4">
<title>
v:0
</title>
</circle>
<circle cx="20" cy="0" r="0.5" tabindex="5">
<title>
v:1
</title>
</circle>
<circle cx="20" cy="40" r="0.5" tabindex="6">
<title>
v:2
</title>
</circle>
<circle cx="40" cy="20" r="0.5" tabindex="7">
<title>
v:3
</title>
</circle>
<circle cx="49" cy="45" r="0.5" tabindex="8">
<title>
v:4
</title>
</circle>
</g>
</svg>