<svg height="500" viewBox="-2 -2 42 42" width="500" xmlns="http://www.w3.org/2000/svg">
<path class="hole" d="M2 31L24 38L38 19L24 0L2 7M-2 -2L40 -2L40 40L-2 40" style="fill:#00000066;fill-rule:evenodd;"/>
<circle cx="18" cy="19" r="5" style="fill:#ffff0066;" title="BreakALeg"/>
<circle cx="29" cy="27" r="5" style="fill:#ffff0066;" title="BreakALeg"/>
<path class="ok" d="M8 6L26 22M8 6L21 25" style="stroke:#0000ff;stroke-linecap:round"/>
<path class="out" d="M26 22L19 0M21 25L0 14M19 0L0 14" style="stroke:#ff0000;stroke-linecap:round"/>
<g fill="#333333">
<circle cx="2" cy="31" r="0.5" tabindex="0">
<title>
hole:0
</title>
</circle>
<circle cx="24" cy="38" r="0.5" tabindex="1">
<title>
hole:1
</title>
</circle>
<circle cx="38" cy="19" r="0.5" tabindex="2">
<title>
hole:2
</title>
</circle>
<circle cx="24" cy="0" r="0.5" tabindex="3">
<title>
hole:3
</title>
</circle>
<circle cx="2" cy="7" r="0.5" tabindex="4">
<title>
hole:4
</title>
</circle>
</g>
<g fill="#999999">
<circle cx="8" cy="6" r="0.5" tabindex="5">
<title>
v:0
</title>
</circle>
<circle cx="26" cy="22" r="0.5" tabindex="6">
<title>
v:1
</title>
</circle>
<circle cx="21" cy="25" r="0.5" tabindex="7">
<title>
v:2
</title>
</circle>
<circle cx="19" cy="0" r="0.5" tabindex="8">
<title>
v:3
</title>
</circle>
<circle cx="0" cy="14" r="0.5" tabindex="9">
<title>
v:4
</title>
</circle>
</g>
</svg>