<svg height="500" viewBox="0 -2 40 42" width="500" xmlns="http://www.w3.org/2000/svg">
<path class="hole" d="M2 31L24 38L38 19L24 0L2 7M0 -2L40 -2L40 40L0 40" style="fill:#00000066;fill-rule:evenodd;"/>
<circle cx="18" cy="19" fill="#ffff0066" r="5">
<title>
BreakALeg@8
</title>
</circle>
<circle cx="29" cy="27" fill="#ffff0066" r="5">
<title>
BreakALeg@74
</title>
</circle>
<circle cx="14" cy="30" fill="#ffff0066" r="5">
<title>
Globalist@32
</title>
</circle>
<path class="ok" d="M10 6L28 22M10 6L23 25M23 25L2 14" style="stroke:#0000ff;stroke-linecap:round"/>
<path class="out" d="M28 22L21 0M21 0L2 14" style="stroke:#ff0000;stroke-linecap:round"/>
<g fill="#333333">
<circle cx="2" cy="31" r="0.5">
<title>
hole:0
</title>
</circle>
<circle cx="24" cy="38" r="0.5">
<title>
hole:1
</title>
</circle>
<circle cx="38" cy="19" r="0.5">
<title>
hole:2
</title>
</circle>
<circle cx="24" cy="0" r="0.5">
<title>
hole:3
</title>
</circle>
<circle cx="2" cy="7" r="0.5">
<title>
hole:4
</title>
</circle>
</g>
<g fill="#999999">
<circle cx="10" cy="6" i="0" r="0.5" tabindex="0">
<title>
v:0
</title>
</circle>
<circle cx="28" cy="22" i="1" r="0.5" tabindex="1">
<title>
v:1
</title>
</circle>
<circle cx="23" cy="25" i="2" r="0.5" tabindex="2">
<title>
v:2
</title>
</circle>
<circle cx="21" cy="0" i="3" r="0.5" tabindex="3">
<title>
v:3
</title>
</circle>
<circle cx="2" cy="14" i="4" r="0.5" tabindex="4">
<title>
v:4
</title>
</circle>
</g>
</svg>