<svg height="500" viewBox="-2 -2 54 74" width="500" xmlns="http://www.w3.org/2000/svg">
<path class="hole" d="M2 65L32 48L50 18L20 0L2 31M-2 -2L52 -2L52 72L-2 72" style="fill:#00000066;fill-rule:evenodd;"/>
<circle cx="26" cy="24" r="5" style="fill:#ffff0066;" title="Globalist"/>
<circle cx="11" cy="48" r="5" style="fill:#ffff0066;" title="BreakALeg"/>
<path class="ok" d="" style="stroke:#0000ff;stroke-linecap:round"/>
<path class="out" d="M27 36L0 57M27 36L28 0M27 36L32 70M0 57L32 70M28 0L29 35M32 70L29 35" style="stroke:#ff0000;stroke-linecap:round"/>
<g fill="#333333">
<circle cx="2" cy="65" r="0.5" tabindex="0">
<title>
hole:0
</title>
</circle>
<circle cx="32" cy="48" r="0.5" tabindex="1">
<title>
hole:1
</title>
</circle>
<circle cx="50" cy="18" r="0.5" tabindex="2">
<title>
hole:2
</title>
</circle>
<circle cx="20" cy="0" r="0.5" tabindex="3">
<title>
hole:3
</title>
</circle>
<circle cx="2" cy="31" r="0.5" tabindex="4">
<title>
hole:4
</title>
</circle>
</g>
<g fill="#999999">
<circle cx="27" cy="36" r="0.5" tabindex="5">
<title>
v:0
</title>
</circle>
<circle cx="0" cy="57" r="0.5" tabindex="6">
<title>
v:1
</title>
</circle>
<circle cx="28" cy="0" r="0.5" tabindex="7">
<title>
v:2
</title>
</circle>
<circle cx="32" cy="70" r="0.5" tabindex="8">
<title>
v:3
</title>
</circle>
<circle cx="29" cy="35" r="0.5" tabindex="9">
<title>
v:4
</title>
</circle>
</g>
</svg>