<svg height="500" viewBox="0 -2 49 66" width="500" xmlns="http://www.w3.org/2000/svg">
<path class="hole" d="M2 0L15 30L12 62L19 30L36 0M0 -2L49 -2L49 64L0 64" style="fill:#00000066;fill-rule:evenodd;"/>
<circle cx="19" cy="10" fill="#ffff0066" r="5">
<title>
Globalist@72
</title>
</circle>
<circle cx="14" cy="45" fill="#ffff0066" r="5">
<title>
Globalist@65
</title>
</circle>
<circle cx="11" cy="18" fill="#ffff0066" r="5">
<title>
Globalist@129
</title>
</circle>
<path class="ok" d="" style="stroke:#0000ff;stroke-linecap:round"/>
<path class="out" d="M2 0L2 34M2 0L32 17M2 34L19 62M2 34L32 17M19 62L47 46M32 17L47 46" style="stroke:#ff0000;stroke-linecap:round"/>
<g fill="#333333">
<circle cx="2" cy="0" r="0.5">
<title>
hole:0
</title>
</circle>
<circle cx="15" cy="30" r="0.5">
<title>
hole:1
</title>
</circle>
<circle cx="12" cy="62" r="0.5">
<title>
hole:2
</title>
</circle>
<circle cx="19" cy="30" r="0.5">
<title>
hole:3
</title>
</circle>
<circle cx="36" cy="0" r="0.5">
<title>
hole:4
</title>
</circle>
</g>
<g fill="#999999">
<circle cx="2" cy="0" i="0" r="0.5" tabindex="0">
<title>
v:0
</title>
</circle>
<circle cx="2" cy="34" i="1" r="0.5" tabindex="1">
<title>
v:1
</title>
</circle>
<circle cx="19" cy="62" i="2" r="0.5" tabindex="2">
<title>
v:2
</title>
</circle>
<circle cx="32" cy="17" i="3" r="0.5" tabindex="3">
<title>
v:3
</title>
</circle>
<circle cx="47" cy="46" i="4" r="0.5" tabindex="4">
<title>
v:4
</title>
</circle>
</g>
</svg>