<svg height="500" viewBox="-2 -2 49 66" width="500" xmlns="http://www.w3.org/2000/svg">
<path class="hole" d="M2 0L15 30L12 62L19 30L36 0M-2 -2L47 -2L47 64L-2 64" style="fill:#00000066;fill-rule:evenodd;"/>
<circle cx="19" cy="10" r="5" style="fill:#ffff0066;" title="Globalist"/>
<circle cx="14" cy="45" r="5" style="fill:#ffff0066;" title="Globalist"/>
<path class="ok" d="" style="stroke:#0000ff;stroke-linecap:round"/>
<path class="out" d="M0 0L0 34M0 0L30 17M0 34L17 62M0 34L30 17M17 62L45 46M30 17L45 46" style="stroke:#ff0000;stroke-linecap:round"/>
<g fill="#333333">
<circle cx="2" cy="0" r="0.5" tabindex="0">
<title>
hole:0
</title>
</circle>
<circle cx="15" cy="30" r="0.5" tabindex="1">
<title>
hole:1
</title>
</circle>
<circle cx="12" cy="62" r="0.5" tabindex="2">
<title>
hole:2
</title>
</circle>
<circle cx="19" cy="30" r="0.5" tabindex="3">
<title>
hole:3
</title>
</circle>
<circle cx="36" cy="0" r="0.5" tabindex="4">
<title>
hole:4
</title>
</circle>
</g>
<g fill="#999999">
<circle cx="0" cy="0" r="0.5" tabindex="5">
<title>
v:0
</title>
</circle>
<circle cx="0" cy="34" r="0.5" tabindex="6">
<title>
v:1
</title>
</circle>
<circle cx="17" cy="62" r="0.5" tabindex="7">
<title>
v:2
</title>
</circle>
<circle cx="30" cy="17" r="0.5" tabindex="8">
<title>
v:3
</title>
</circle>
<circle cx="45" cy="46" r="0.5" tabindex="9">
<title>
v:4
</title>
</circle>
</g>
</svg>