<svg height="500" viewBox="-2 -2 64 60" width="500" xmlns="http://www.w3.org/2000/svg">
<path class="hole" d="M23 0L20 8L3 8L2 18L20 19L9 28L2 35L60 56L59 46L57 37L56 27L60 19L51 16L60 0M-2 -2L62 -2L62 58L-2 58" style="fill:#00000066;fill-rule:evenodd;"/>
<circle cx="36" cy="32" r="5" style="fill:#ffff0066;" title="Globalist"/>
<circle cx="41" cy="48" r="5" style="fill:#ffff0066;" title="WallHack"/>
<path class="ok" d="" style="stroke:#0000ff;stroke-linecap:round"/>
<path class="out" d="M0 56L13 0M0 56L58 35M13 0L58 35" style="stroke:#ff0000;stroke-linecap:round"/>
<g fill="#333333">
<circle cx="23" cy="0" r="0.5" tabindex="0">
<title>
hole:0
</title>
</circle>
<circle cx="20" cy="8" r="0.5" tabindex="1">
<title>
hole:1
</title>
</circle>
<circle cx="3" cy="8" r="0.5" tabindex="2">
<title>
hole:2
</title>
</circle>
<circle cx="2" cy="18" r="0.5" tabindex="3">
<title>
hole:3
</title>
</circle>
<circle cx="20" cy="19" r="0.5" tabindex="4">
<title>
hole:4
</title>
</circle>
<circle cx="9" cy="28" r="0.5" tabindex="5">
<title>
hole:5
</title>
</circle>
<circle cx="2" cy="35" r="0.5" tabindex="6">
<title>
hole:6
</title>
</circle>
<circle cx="60" cy="56" r="0.5" tabindex="7">
<title>
hole:7
</title>
</circle>
<circle cx="59" cy="46" r="0.5" tabindex="8">
<title>
hole:8
</title>
</circle>
<circle cx="57" cy="37" r="0.5" tabindex="9">
<title>
hole:9
</title>
</circle>
<circle cx="56" cy="27" r="0.5" tabindex="10">
<title>
hole:10
</title>
</circle>
<circle cx="60" cy="19" r="0.5" tabindex="11">
<title>
hole:11
</title>
</circle>
<circle cx="51" cy="16" r="0.5" tabindex="12">
<title>
hole:12
</title>
</circle>
<circle cx="60" cy="0" r="0.5" tabindex="13">
<title>
hole:13
</title>
</circle>
</g>
<g fill="#999999">
<circle cx="0" cy="56" r="0.5" tabindex="14">
<title>
v:0
</title>
</circle>
<circle cx="13" cy="0" r="0.5" tabindex="15">
<title>
v:1
</title>
</circle>
<circle cx="58" cy="35" r="0.5" tabindex="16">
<title>
v:2
</title>
</circle>
</g>
</svg>