<svg height="500" viewBox="0 -2 62 60" width="500" xmlns="http://www.w3.org/2000/svg">
<path class="hole" d="M23 0L20 8L3 8L2 18L20 19L9 28L2 35L60 56L59 46L57 37L56 27L60 19L51 16L60 0M0 -2L62 -2L62 58L0 58" style="fill:#00000066;fill-rule:evenodd;"/>
<circle cx="36" cy="32" fill="#ffff0066" r="5">
<title>
Globalist@32
</title>
</circle>
<circle cx="41" cy="48" fill="#ffff0066" r="5">
<title>
WallHack@33
</title>
</circle>
<circle cx="23" cy="42" fill="#ffff0066" r="5">
<title>
SuperFlex@71
</title>
</circle>
<path class="ok" d="" style="stroke:#0000ff;stroke-linecap:round"/>
<path class="out" d="M2 56L15 0M2 56L60 35M15 0L60 35" style="stroke:#ff0000;stroke-linecap:round"/>
<g fill="#333333">
<circle cx="23" cy="0" r="0.5">
<title>
hole:0
</title>
</circle>
<circle cx="20" cy="8" r="0.5">
<title>
hole:1
</title>
</circle>
<circle cx="3" cy="8" r="0.5">
<title>
hole:2
</title>
</circle>
<circle cx="2" cy="18" r="0.5">
<title>
hole:3
</title>
</circle>
<circle cx="20" cy="19" r="0.5">
<title>
hole:4
</title>
</circle>
<circle cx="9" cy="28" r="0.5">
<title>
hole:5
</title>
</circle>
<circle cx="2" cy="35" r="0.5">
<title>
hole:6
</title>
</circle>
<circle cx="60" cy="56" r="0.5">
<title>
hole:7
</title>
</circle>
<circle cx="59" cy="46" r="0.5">
<title>
hole:8
</title>
</circle>
<circle cx="57" cy="37" r="0.5">
<title>
hole:9
</title>
</circle>
<circle cx="56" cy="27" r="0.5">
<title>
hole:10
</title>
</circle>
<circle cx="60" cy="19" r="0.5">
<title>
hole:11
</title>
</circle>
<circle cx="51" cy="16" r="0.5">
<title>
hole:12
</title>
</circle>
<circle cx="60" cy="0" r="0.5">
<title>
hole:13
</title>
</circle>
</g>
<g fill="#999999">
<circle cx="2" cy="56" i="0" r="0.5" tabindex="0">
<title>
v:0
</title>
</circle>
<circle cx="15" cy="0" i="1" r="0.5" tabindex="1">
<title>
v:1
</title>
</circle>
<circle cx="60" cy="35" i="2" r="0.5" tabindex="2">
<title>
v:2
</title>
</circle>
</g>
</svg>