<svg viewBox="0 0 76 61" width="500" xmlns="http://www.w3.org/2000/svg">
<path d="M65 60L65 25L75 25L75 5L65 5L65 10L55 10L55 5L45 5L45 10L35 10L35 5L25 5L25 10L15 10L15 5L5 5L5 25L15 25L15 60M0 0L76 0L76 61L0 61" style="fill:#00000066;fill-rule:evenodd;stroke:none;"/>
<path d="M3 7L5 2M3 7L6 16M5 2L13 10M6 16L8 30M6 16L13 10M8 30L13 46M8 30L17 33M13 10L22 11M13 46L20 50M16 56L16 58M16 56L20 55M16 58L23 58M17 33L30 23M20 50L20 55M20 50L27 51M22 11L25 18M22 11L30 6M23 58L27 51M24 60L24 62M24 60L28 56M24 62L30 62M25 18L30 23M25 18L32 10M27 51L28 56M27 51L34 51M30 6L32 10M30 23L34 51M30 23L42 24M30 62L34 51M34 51L54 45M42 24L57 21M53 51L53 53M53 51L57 50M53 53L59 53M54 45L57 21M54 45L58 46M57 21L68 23M57 50L58 46M57 56L57 58M57 56L60 55M57 58L63 58M58 46L62 48M59 53L62 48M60 55L62 48M62 48L66 48M63 58L66 48M66 48L74 32M68 23L74 32" style="fill:none;stroke:#ff0000;stroke-linecap:round"/>
</svg>