<svg height="500" viewBox="1 0 78 64" width="500" xmlns="http://www.w3.org/2000/svg">
<path class="hole" d="M67 60L67 25L77 25L77 5L67 5L67 10L57 10L57 5L47 5L47 10L37 10L37 5L27 5L27 10L17 10L17 5L7 5L7 25L17 25L17 60M1 0L79 0L79 64L1 64" style="fill:#00000066;fill-rule:evenodd;"/>
<circle cx="77" cy="5" r="5" style="fill:#ffff0066;" title="BreakALeg"/>
<circle cx="67" cy="44" r="5" style="fill:#ffff0066;" title="Globalist"/>
<path class="ok" d="M13 10L22 11M17 33L30 23M20 50L20 55M20 50L27 51M22 11L25 18M23 58L27 51M24 60L28 56M25 18L30 23M25 18L32 10M27 51L28 56M27 51L34 51M30 6L32 10M30 23L34 51M30 23L42 24M34 51L54 45M42 24L57 21M53 51L53 53M53 51L57 50M53 53L59 53M54 45L57 21M54 45L58 46M57 21L68 23M57 50L58 46M57 56L57 58M57 56L60 55M57 58L63 58M58 46L62 48M59 53L62 48M60 55L62 48M62 48L66 48M63 58L66 48" style="stroke:#0000ff;stroke-linecap:round"/>
<path class="out" d="M3 7L5 2M3 7L6 16M5 2L13 10M6 16L8 30M6 16L13 10M8 30L13 46M8 30L17 33M13 46L20 50M16 56L16 58M16 56L20 55M16 58L23 58M22 11L30 6M24 60L24 62M24 62L30 62M30 62L34 51M66 48L74 32M68 23L74 32" style="stroke:#ff0000;stroke-linecap:round"/>
<g fill="#333333">
<circle cx="67" cy="60" r="0.5" tabindex="0">
<title>
hole:0
</title>
</circle>
<circle cx="67" cy="25" r="0.5" tabindex="1">
<title>
hole:1
</title>
</circle>
<circle cx="77" cy="25" r="0.5" tabindex="2">
<title>
hole:2
</title>
</circle>
<circle cx="77" cy="5" r="0.5" tabindex="3">
<title>
hole:3
</title>
</circle>
<circle cx="67" cy="5" r="0.5" tabindex="4">
<title>
hole:4
</title>
</circle>
<circle cx="67" cy="10" r="0.5" tabindex="5">
<title>
hole:5
</title>
</circle>
<circle cx="57" cy="10" r="0.5" tabindex="6">
<title>
hole:6
</title>
</circle>
<circle cx="57" cy="5" r="0.5" tabindex="7">
<title>
hole:7
</title>
</circle>
<circle cx="47" cy="5" r="0.5" tabindex="8">
<title>
hole:8
</title>
</circle>
<circle cx="47" cy="10" r="0.5" tabindex="9">
<title>
hole:9
</title>
</circle>
<circle cx="37" cy="10" r="0.5" tabindex="10">
<title>
hole:10
</title>
</circle>
<circle cx="37" cy="5" r="0.5" tabindex="11">
<title>
hole:11
</title>
</circle>
<circle cx="27" cy="5" r="0.5" tabindex="12">
<title>
hole:12
</title>
</circle>
<circle cx="27" cy="10" r="0.5" tabindex="13">
<title>
hole:13
</title>
</circle>
<circle cx="17" cy="10" r="0.5" tabindex="14">
<title>
hole:14
</title>
</circle>
<circle cx="17" cy="5" r="0.5" tabindex="15">
<title>
hole:15
</title>
</circle>
<circle cx="7" cy="5" r="0.5" tabindex="16">
<title>
hole:16
</title>
</circle>
<circle cx="7" cy="25" r="0.5" tabindex="17">
<title>
hole:17
</title>
</circle>
<circle cx="17" cy="25" r="0.5" tabindex="18">
<title>
hole:18
</title>
</circle>
<circle cx="17" cy="60" r="0.5" tabindex="19">
<title>
hole:19
</title>
</circle>
</g>
<g fill="#999999">
<circle cx="3" cy="7" r="0.5" tabindex="20">
<title>
v:0
</title>
</circle>
<circle cx="5" cy="2" r="0.5" tabindex="21">
<title>
v:1
</title>
</circle>
<circle cx="6" cy="16" r="0.5" tabindex="22">
<title>
v:2
</title>
</circle>
<circle cx="8" cy="30" r="0.5" tabindex="23">
<title>
v:3
</title>
</circle>
<circle cx="13" cy="10" r="0.5" tabindex="24">
<title>
v:4
</title>
</circle>
<circle cx="13" cy="46" r="0.5" tabindex="25">
<title>
v:5
</title>
</circle>
<circle cx="16" cy="56" r="0.5" tabindex="26">
<title>
v:6
</title>
</circle>
<circle cx="16" cy="58" r="0.5" tabindex="27">
<title>
v:7
</title>
</circle>
<circle cx="17" cy="33" r="0.5" tabindex="28">
<title>
v:8
</title>
</circle>
<circle cx="20" cy="50" r="0.5" tabindex="29">
<title>
v:9
</title>
</circle>
<circle cx="20" cy="55" r="0.5" tabindex="30">
<title>
v:10
</title>
</circle>
<circle cx="22" cy="11" r="0.5" tabindex="31">
<title>
v:11
</title>
</circle>
<circle cx="23" cy="58" r="0.5" tabindex="32">
<title>
v:12
</title>
</circle>
<circle cx="24" cy="60" r="0.5" tabindex="33">
<title>
v:13
</title>
</circle>
<circle cx="24" cy="62" r="0.5" tabindex="34">
<title>
v:14
</title>
</circle>
<circle cx="25" cy="18" r="0.5" tabindex="35">
<title>
v:15
</title>
</circle>
<circle cx="27" cy="51" r="0.5" tabindex="36">
<title>
v:16
</title>
</circle>
<circle cx="28" cy="56" r="0.5" tabindex="37">
<title>
v:17
</title>
</circle>
<circle cx="30" cy="6" r="0.5" tabindex="38">
<title>
v:18
</title>
</circle>
<circle cx="30" cy="23" r="0.5" tabindex="39">
<title>
v:19
</title>
</circle>
<circle cx="30" cy="62" r="0.5" tabindex="40">
<title>
v:20
</title>
</circle>
<circle cx="32" cy="10" r="0.5" tabindex="41">
<title>
v:21
</title>
</circle>
<circle cx="34" cy="51" r="0.5" tabindex="42">
<title>
v:22
</title>
</circle>
<circle cx="42" cy="24" r="0.5" tabindex="43">
<title>
v:23
</title>
</circle>
<circle cx="53" cy="51" r="0.5" tabindex="44">
<title>
v:24
</title>
</circle>
<circle cx="53" cy="53" r="0.5" tabindex="45">
<title>
v:25
</title>
</circle>
<circle cx="54" cy="45" r="0.5" tabindex="46">
<title>
v:26
</title>
</circle>
<circle cx="57" cy="21" r="0.5" tabindex="47">
<title>
v:27
</title>
</circle>
<circle cx="57" cy="50" r="0.5" tabindex="48">
<title>
v:28
</title>
</circle>
<circle cx="57" cy="56" r="0.5" tabindex="49">
<title>
v:29
</title>
</circle>
<circle cx="57" cy="58" r="0.5" tabindex="50">
<title>
v:30
</title>
</circle>
<circle cx="58" cy="46" r="0.5" tabindex="51">
<title>
v:31
</title>
</circle>
<circle cx="59" cy="53" r="0.5" tabindex="52">
<title>
v:32
</title>
</circle>
<circle cx="60" cy="55" r="0.5" tabindex="53">
<title>
v:33
</title>
</circle>
<circle cx="62" cy="48" r="0.5" tabindex="54">
<title>
v:34
</title>
</circle>
<circle cx="63" cy="58" r="0.5" tabindex="55">
<title>
v:35
</title>
</circle>
<circle cx="66" cy="48" r="0.5" tabindex="56">
<title>
v:36
</title>
</circle>
<circle cx="68" cy="23" r="0.5" tabindex="57">
<title>
v:37
</title>
</circle>
<circle cx="74" cy="32" r="0.5" tabindex="58">
<title>
v:38
</title>
</circle>
</g>
</svg>