<svg xmlns="http://www.w3.org/2000/svg">
<polygon fill="grey" points="15,60 15,25 5,25 5,5 15,5 15,10 25,10 25,5 35,5 35,10 45,10 45,5 55,5 55,10 65,10 65,5 75,5 75,25 65,25 65,60 "/>
<path d="M6 16L3 7M3 7L5 2M5 2L13 10M13 10L6 16M13 10L22 11M22 11L30 6M30 6L32 10M32 10L25 18M25 18L22 11M6 16L8 30M8 30L17 33M17 33L30 23M30 23L25 18M20 50L20 55M20 55L16 56M16 56L16 58M16 58L23 58M23 58L27 51M27 51L28 56M28 56L24 60M24 60L24 62M24 62L30 62M30 62L34 51M34 51L27 51M27 51L20 50M8 30L13 46M13 46L20 50M34 51L30 23M30 23L42 24M42 24L57 21M57 21L54 45M54 45L34 51M58 46L57 50M57 50L53 51M53 51L53 53M53 53L59 53M59 53L62 48M62 48L60 55M60 55L57 56M57 56L57 58M57 58L63 58M63 58L66 48M66 48L62 48M62 48L58 46M58 46L54 45M66 48L74 32M74 32L68 23M68 23L57 21" stroke="red"/>
</svg>