<svg height="500" viewBox="0 -2 71 60" width="500" xmlns="http://www.w3.org/2000/svg">
<path class="hole" d="M2 20L22 40L43 56L64 39L22 0M0 -2L71 -2L71 58L0 58" style="fill:#00000066;fill-rule:evenodd;"/>
<circle cx="22" cy="20" fill="#ffff0066" r="5">
<title>
Globalist@49
</title>
</circle>
<circle cx="41" cy="39" fill="#ffff0066" r="5">
<title>
Globalist@97
</title>
</circle>
<circle cx="53" cy="30" fill="#ffff0066" r="5">
<title>
WallHack@6
</title>
</circle>
<path class="ok" d="" style="stroke:#0000ff;stroke-linecap:round"/>
<path class="out" d="M22 12L2 32M22 12L48 1M2 32L28 21M48 1L28 21M48 1L69 17M28 21L48 0M69 17L48 0" style="stroke:#ff0000;stroke-linecap:round"/>
<g fill="#333333">
<circle cx="2" cy="20" r="0.5">
<title>
hole:0
</title>
</circle>
<circle cx="22" cy="40" r="0.5">
<title>
hole:1
</title>
</circle>
<circle cx="43" cy="56" r="0.5">
<title>
hole:2
</title>
</circle>
<circle cx="64" cy="39" r="0.5">
<title>
hole:3
</title>
</circle>
<circle cx="22" cy="0" r="0.5">
<title>
hole:4
</title>
</circle>
</g>
<g fill="#999999">
<circle cx="22" cy="12" i="0" r="0.5" tabindex="0">
<title>
v:0
</title>
</circle>
<circle cx="2" cy="32" i="1" r="0.5" tabindex="1">
<title>
v:1
</title>
</circle>
<circle cx="48" cy="1" i="2" r="0.5" tabindex="2">
<title>
v:2
</title>
</circle>
<circle cx="28" cy="21" i="3" r="0.5" tabindex="3">
<title>
v:3
</title>
</circle>
<circle cx="69" cy="17" i="4" r="0.5" tabindex="4">
<title>
v:4
</title>
</circle>
<circle cx="48" cy="0" i="5" r="0.5" tabindex="5">
<title>
v:5
</title>
</circle>
</g>
</svg>