<svg height="500" viewBox="-2 -2 71 60" width="500" xmlns="http://www.w3.org/2000/svg">
<path class="hole" d="M2 20L22 40L43 56L64 39L22 0M-2 -2L69 -2L69 58L-2 58" style="fill:#00000066;fill-rule:evenodd;"/>
<circle cx="22" cy="20" r="5" style="fill:#ffff0066;" title="Globalist"/>
<circle cx="41" cy="39" r="5" style="fill:#ffff0066;" title="Globalist"/>
<path class="ok" d="" style="stroke:#0000ff;stroke-linecap:round"/>
<path class="out" d="M20 12L0 32M20 12L46 1M0 32L26 21M46 1L26 21M46 1L67 17M26 21L46 0M67 17L46 0" style="stroke:#ff0000;stroke-linecap:round"/>
<g fill="#333333">
<circle cx="2" cy="20" r="0.5" tabindex="0">
<title>
hole:0
</title>
</circle>
<circle cx="22" cy="40" r="0.5" tabindex="1">
<title>
hole:1
</title>
</circle>
<circle cx="43" cy="56" r="0.5" tabindex="2">
<title>
hole:2
</title>
</circle>
<circle cx="64" cy="39" r="0.5" tabindex="3">
<title>
hole:3
</title>
</circle>
<circle cx="22" cy="0" r="0.5" tabindex="4">
<title>
hole:4
</title>
</circle>
</g>
<g fill="#999999">
<circle cx="20" cy="12" r="0.5" tabindex="5">
<title>
v:0
</title>
</circle>
<circle cx="0" cy="32" r="0.5" tabindex="6">
<title>
v:1
</title>
</circle>
<circle cx="46" cy="1" r="0.5" tabindex="7">
<title>
v:2
</title>
</circle>
<circle cx="26" cy="21" r="0.5" tabindex="8">
<title>
v:3
</title>
</circle>
<circle cx="67" cy="17" r="0.5" tabindex="9">
<title>
v:4
</title>
</circle>
<circle cx="46" cy="0" r="0.5" tabindex="10">
<title>
v:5
</title>
</circle>
</g>
</svg>