<svg height="500" viewBox="0 -2 64 84" width="500" xmlns="http://www.w3.org/2000/svg">
<path class="hole" d="M2 34L12 69L43 72L62 41L32 17L2 0M0 -2L64 -2L64 82L0 82" style="fill:#00000066;fill-rule:evenodd;"/>
<circle cx="30" cy="46" fill="#ffff0066" r="5">
<title>
BreakALeg@18
</title>
</circle>
<circle cx="44" cy="33" fill="#ffff0066" r="5">
<title>
SuperFlex@37
</title>
</circle>
<circle cx="47" cy="54" fill="#ffff0066" r="5">
<title>
BreakALeg@124
</title>
</circle>
<path class="ok" d="M2 0L2 34M2 0L32 17M2 34L12 69M2 34L32 17M32 17L56 47" style="stroke:#0000ff;stroke-linecap:round"/>
<path class="out" d="M12 69L41 80M41 80L56 47" style="stroke:#ff0000;stroke-linecap:round"/>
<g fill="#333333">
<circle cx="2" cy="34" r="0.5">
<title>
hole:0
</title>
</circle>
<circle cx="12" cy="69" r="0.5">
<title>
hole:1
</title>
</circle>
<circle cx="43" cy="72" r="0.5">
<title>
hole:2
</title>
</circle>
<circle cx="62" cy="41" r="0.5">
<title>
hole:3
</title>
</circle>
<circle cx="32" cy="17" r="0.5">
<title>
hole:4
</title>
</circle>
<circle cx="2" cy="0" r="0.5">
<title>
hole:5
</title>
</circle>
</g>
<g fill="#999999">
<circle cx="2" cy="0" i="0" r="0.5" tabindex="0">
<title>
v:0
</title>
</circle>
<circle cx="2" cy="34" i="1" r="0.5" tabindex="1">
<title>
v:1
</title>
</circle>
<circle cx="12" cy="69" i="2" r="0.5" tabindex="2">
<title>
v:2
</title>
</circle>
<circle cx="32" cy="17" i="3" r="0.5" tabindex="3">
<title>
v:3
</title>
</circle>
<circle cx="41" cy="80" i="4" r="0.5" tabindex="4">
<title>
v:4
</title>
</circle>
<circle cx="56" cy="47" i="5" r="0.5" tabindex="5">
<title>
v:5
</title>
</circle>
</g>
</svg>