<svg height="500" viewBox="-2 -2 74 84" width="500" xmlns="http://www.w3.org/2000/svg">
<path class="hole" d="M2 44L22 64L70 28L62 0L36 1M-2 -2L72 -2L72 82L-2 82" style="fill:#00000066;fill-rule:evenodd;"/>
<circle cx="48" cy="21" r="5" style="fill:#ffff0066;" title="BreakALeg"/>
<circle cx="23" cy="45" r="5" style="fill:#ffff0066;" title="WallHack"/>
<path class="ok" d="M25 53L24 26" style="stroke:#0000ff;stroke-linecap:round"/>
<path class="out" d="M33 80L25 53M33 80L25 53M25 53L0 40M25 53L0 40M24 26L22 0M0 40L30 28M22 0L30 28" style="stroke:#ff0000;stroke-linecap:round"/>
<g fill="#333333">
<circle cx="2" cy="44" r="0.5" tabindex="0">
<title>
hole:0
</title>
</circle>
<circle cx="22" cy="64" r="0.5" tabindex="1">
<title>
hole:1
</title>
</circle>
<circle cx="70" cy="28" r="0.5" tabindex="2">
<title>
hole:2
</title>
</circle>
<circle cx="62" cy="0" r="0.5" tabindex="3">
<title>
hole:3
</title>
</circle>
<circle cx="36" cy="1" r="0.5" tabindex="4">
<title>
hole:4
</title>
</circle>
</g>
<g fill="#999999">
<circle cx="33" cy="80" r="0.5" tabindex="5">
<title>
v:0
</title>
</circle>
<circle cx="25" cy="53" r="0.5" tabindex="6">
<title>
v:1
</title>
</circle>
<circle cx="25" cy="53" r="0.5" tabindex="7">
<title>
v:2
</title>
</circle>
<circle cx="24" cy="26" r="0.5" tabindex="8">
<title>
v:3
</title>
</circle>
<circle cx="0" cy="40" r="0.5" tabindex="9">
<title>
v:4
</title>
</circle>
<circle cx="22" cy="0" r="0.5" tabindex="10">
<title>
v:5
</title>
</circle>
<circle cx="30" cy="28" r="0.5" tabindex="11">
<title>
v:6
</title>
</circle>
</g>
</svg>