<svg height="500" viewBox="0 -2 72 84" width="500" xmlns="http://www.w3.org/2000/svg">
<path class="hole" d="M2 44L22 64L70 28L62 0L36 1M0 -2L72 -2L72 82L0 82" style="fill:#00000066;fill-rule:evenodd;"/>
<circle cx="48" cy="21" fill="#ffff0066" r="5">
<title>
BreakALeg@73
</title>
</circle>
<circle cx="23" cy="45" fill="#ffff0066" r="5">
<title>
WallHack@80
</title>
</circle>
<circle cx="56" cy="36" fill="#ffff0066" r="5">
<title>
Globalist@128
</title>
</circle>
<path class="ok" d="M27 53L26 26" style="stroke:#0000ff;stroke-linecap:round"/>
<path class="out" d="M35 80L27 53M35 80L27 53M27 53L2 40M27 53L2 40M26 26L24 0M2 40L32 28M24 0L32 28" style="stroke:#ff0000;stroke-linecap:round"/>
<g fill="#333333">
<circle cx="2" cy="44" r="0.5">
<title>
hole:0
</title>
</circle>
<circle cx="22" cy="64" r="0.5">
<title>
hole:1
</title>
</circle>
<circle cx="70" cy="28" r="0.5">
<title>
hole:2
</title>
</circle>
<circle cx="62" cy="0" r="0.5">
<title>
hole:3
</title>
</circle>
<circle cx="36" cy="1" r="0.5">
<title>
hole:4
</title>
</circle>
</g>
<g fill="#999999">
<circle cx="35" cy="80" i="0" r="0.5" tabindex="0">
<title>
v:0
</title>
</circle>
<circle cx="27" cy="53" i="1" r="0.5" tabindex="1">
<title>
v:1
</title>
</circle>
<circle cx="27" cy="53" i="2" r="0.5" tabindex="2">
<title>
v:2
</title>
</circle>
<circle cx="26" cy="26" i="3" r="0.5" tabindex="3">
<title>
v:3
</title>
</circle>
<circle cx="2" cy="40" i="4" r="0.5" tabindex="4">
<title>
v:4
</title>
</circle>
<circle cx="24" cy="0" i="5" r="0.5" tabindex="5">
<title>
v:5
</title>
</circle>
<circle cx="32" cy="28" i="6" r="0.5" tabindex="6">
<title>
v:6
</title>
</circle>
</g>
</svg>