<svg height="500" viewBox="0 -2 59 100" width="500" xmlns="http://www.w3.org/2000/svg">
<path class="hole" d="M2 54L9 91L42 96L57 61L30 0L2 20M0 -2L59 -2L59 98L0 98" style="fill:#00000066;fill-rule:evenodd;"/>
<circle cx="28" cy="68" fill="#ffff0066" r="5">
<title>
BreakALeg@30
</title>
</circle>
<circle cx="23" cy="18" fill="#ffff0066" r="5">
<title>
WallHack@16
</title>
</circle>
<circle cx="8" cy="72" fill="#ffff0066" r="5">
<title>
Globalist@82
</title>
</circle>
<path class="ok" d="M2 31L39 31" style="stroke:#0000ff;stroke-linecap:round"/>
<path class="out" d="M20 2L54 0M20 2L2 31M20 2L39 31M54 0L18 11M54 0L39 31M18 11L49 24M39 31L16 5M49 24L16 5" style="stroke:#ff0000;stroke-linecap:round"/>
<g fill="#333333">
<circle cx="2" cy="54" r="0.5">
<title>
hole:0
</title>
</circle>
<circle cx="9" cy="91" r="0.5">
<title>
hole:1
</title>
</circle>
<circle cx="42" cy="96" r="0.5">
<title>
hole:2
</title>
</circle>
<circle cx="57" cy="61" r="0.5">
<title>
hole:3
</title>
</circle>
<circle cx="30" cy="0" r="0.5">
<title>
hole:4
</title>
</circle>
<circle cx="2" cy="20" r="0.5">
<title>
hole:5
</title>
</circle>
</g>
<g fill="#999999">
<circle cx="20" cy="2" i="0" r="0.5" tabindex="0">
<title>
v:0
</title>
</circle>
<circle cx="54" cy="0" i="1" r="0.5" tabindex="1">
<title>
v:1
</title>
</circle>
<circle cx="18" cy="11" i="2" r="0.5" tabindex="2">
<title>
v:2
</title>
</circle>
<circle cx="2" cy="31" i="3" r="0.5" tabindex="3">
<title>
v:3
</title>
</circle>
<circle cx="39" cy="31" i="4" r="0.5" tabindex="4">
<title>
v:4
</title>
</circle>
<circle cx="49" cy="24" i="5" r="0.5" tabindex="5">
<title>
v:5
</title>
</circle>
<circle cx="16" cy="5" i="6" r="0.5" tabindex="6">
<title>
v:6
</title>
</circle>
</g>
</svg>