<svg height="500" viewBox="-2 -2 61 100" width="500" xmlns="http://www.w3.org/2000/svg">
<path class="hole" d="M2 54L9 91L42 96L57 61L30 0L2 20M-2 -2L59 -2L59 98L-2 98" style="fill:#00000066;fill-rule:evenodd;"/>
<circle cx="28" cy="68" r="5" style="fill:#ffff0066;" title="BreakALeg"/>
<circle cx="23" cy="18" r="5" style="fill:#ffff0066;" title="WallHack"/>
<path class="ok" d="" style="stroke:#0000ff;stroke-linecap:round"/>
<path class="out" d="M18 2L52 0M18 2L0 31M18 2L37 31M52 0L16 11M52 0L37 31M16 11L47 24M0 31L37 31M37 31L14 5M47 24L14 5" style="stroke:#ff0000;stroke-linecap:round"/>
<g fill="#333333">
<circle cx="2" cy="54" r="0.5" tabindex="0">
<title>
hole:0
</title>
</circle>
<circle cx="9" cy="91" r="0.5" tabindex="1">
<title>
hole:1
</title>
</circle>
<circle cx="42" cy="96" r="0.5" tabindex="2">
<title>
hole:2
</title>
</circle>
<circle cx="57" cy="61" r="0.5" tabindex="3">
<title>
hole:3
</title>
</circle>
<circle cx="30" cy="0" r="0.5" tabindex="4">
<title>
hole:4
</title>
</circle>
<circle cx="2" cy="20" r="0.5" tabindex="5">
<title>
hole:5
</title>
</circle>
</g>
<g fill="#999999">
<circle cx="18" cy="2" r="0.5" tabindex="6">
<title>
v:0
</title>
</circle>
<circle cx="52" cy="0" r="0.5" tabindex="7">
<title>
v:1
</title>
</circle>
<circle cx="16" cy="11" r="0.5" tabindex="8">
<title>
v:2
</title>
</circle>
<circle cx="0" cy="31" r="0.5" tabindex="9">
<title>
v:3
</title>
</circle>
<circle cx="37" cy="31" r="0.5" tabindex="10">
<title>
v:4
</title>
</circle>
<circle cx="47" cy="24" r="0.5" tabindex="11">
<title>
v:5
</title>
</circle>
<circle cx="14" cy="5" r="0.5" tabindex="12">
<title>
v:6
</title>
</circle>
</g>
</svg>