<svg height="500" viewBox="0 -2 44 44" width="500" xmlns="http://www.w3.org/2000/svg">
<path class="hole" d="M3 8L2 23L2 32L13 22L10 40L19 36L27 34L30 40L42 34L42 27L33 27L18 29L20 22L22 16L31 14L37 21L42 17L42 7L33 0L22 0L28 6L18 7L16 0L2 0M0 -2L44 -2L44 42L0 42" style="fill:#00000066;fill-rule:evenodd;"/>
<circle cx="30" cy="40" fill="#ffff0066" r="5">
<title>
Globalist@65
</title>
</circle>
<circle cx="11" cy="12" fill="#ffff0066" r="5">
<title>
Globalist@36
</title>
</circle>
<circle cx="5" cy="15" fill="#ffff0066" r="5">
<title>
SuperFlex@80
</title>
</circle>
<path class="ok" d="" style="stroke:#0000ff;stroke-linecap:round"/>
<path class="out" d="M2 20L22 0M2 20L22 40M22 0L42 20M22 40L42 20" style="stroke:#ff0000;stroke-linecap:round"/>
<g fill="#333333">
<circle cx="3" cy="8" r="0.5">
<title>
hole:0
</title>
</circle>
<circle cx="2" cy="23" r="0.5">
<title>
hole:1
</title>
</circle>
<circle cx="2" cy="32" r="0.5">
<title>
hole:2
</title>
</circle>
<circle cx="13" cy="22" r="0.5">
<title>
hole:3
</title>
</circle>
<circle cx="10" cy="40" r="0.5">
<title>
hole:4
</title>
</circle>
<circle cx="19" cy="36" r="0.5">
<title>
hole:5
</title>
</circle>
<circle cx="27" cy="34" r="0.5">
<title>
hole:6
</title>
</circle>
<circle cx="30" cy="40" r="0.5">
<title>
hole:7
</title>
</circle>
<circle cx="42" cy="34" r="0.5">
<title>
hole:8
</title>
</circle>
<circle cx="42" cy="27" r="0.5">
<title>
hole:9
</title>
</circle>
<circle cx="33" cy="27" r="0.5">
<title>
hole:10
</title>
</circle>
<circle cx="18" cy="29" r="0.5">
<title>
hole:11
</title>
</circle>
<circle cx="20" cy="22" r="0.5">
<title>
hole:12
</title>
</circle>
<circle cx="22" cy="16" r="0.5">
<title>
hole:13
</title>
</circle>
<circle cx="31" cy="14" r="0.5">
<title>
hole:14
</title>
</circle>
<circle cx="37" cy="21" r="0.5">
<title>
hole:15
</title>
</circle>
<circle cx="42" cy="17" r="0.5">
<title>
hole:16
</title>
</circle>
<circle cx="42" cy="7" r="0.5">
<title>
hole:17
</title>
</circle>
<circle cx="33" cy="0" r="0.5">
<title>
hole:18
</title>
</circle>
<circle cx="22" cy="0" r="0.5">
<title>
hole:19
</title>
</circle>
<circle cx="28" cy="6" r="0.5">
<title>
hole:20
</title>
</circle>
<circle cx="18" cy="7" r="0.5">
<title>
hole:21
</title>
</circle>
<circle cx="16" cy="0" r="0.5">
<title>
hole:22
</title>
</circle>
<circle cx="2" cy="0" r="0.5">
<title>
hole:23
</title>
</circle>
</g>
<g fill="#999999">
<circle cx="2" cy="20" i="0" r="0.5" tabindex="0">
<title>
v:0
</title>
</circle>
<circle cx="22" cy="0" i="1" r="0.5" tabindex="1">
<title>
v:1
</title>
</circle>
<circle cx="22" cy="40" i="2" r="0.5" tabindex="2">
<title>
v:2
</title>
</circle>
<circle cx="42" cy="20" i="3" r="0.5" tabindex="3">
<title>
v:3
</title>
</circle>
</g>
</svg>