<svg height="500" viewBox="-2 -2 44 44" width="500" xmlns="http://www.w3.org/2000/svg">
<path class="hole" d="M1 8L0 23L0 32L11 22L8 40L17 36L25 34L28 40L40 34L40 27L31 27L16 29L18 22L20 16L29 14L35 21L40 17L40 7L31 0L20 0L26 6L16 7L14 0L0 0M-2 -2L42 -2L42 42L-2 42" style="fill:#00000066;fill-rule:evenodd;stroke:none;"/>
<path class="ok" d="" style="fill:none;stroke:#0000ff;stroke-linecap:round"/>
<path class="short" d="" style="fill:none;stroke:#00ff99;stroke-linecap:round"/>
<path class="long" d="" style="fill:none;stroke:#ff0099;stroke-linecap:round"/>
<path class="out" d="M0 20L20 0M0 20L20 40M20 0L40 20M20 40L40 20" style="fill:none;stroke:#ff0000;stroke-linecap:round"/>
</svg>