<svg height="500" viewBox="-2 -2 44 45" width="500" xmlns="http://www.w3.org/2000/svg">
<path class="hole" d="M0 5L0 11L6 20L6 26L0 27L3 33L0 41L8 41L17 40L18 32L26 41L30 34L27 27L25 21L35 22L37 14L36 7L40 0L32 0L28 6L19 18L18 4L12 16L9 8L9 0L3 0M-2 -2L42 -2L42 43L-2 43" style="fill:#00000066;fill-rule:evenodd;stroke:none;"/>
<circle cx="3" cy="0" r="5" style="fill:#ffff0066;stroke:none;"/>
<path class="ok" d="" style="fill:none;stroke:#0000ff;stroke-linecap:round"/>
<path class="out" d="M0 20L20 0M0 20L20 40M20 0L40 20M20 40L40 20" style="fill:none;stroke:#ff0000;stroke-linecap:round"/>
</svg>