<svg height="500" viewBox="0 -2 44 45" width="500" xmlns="http://www.w3.org/2000/svg">
<path class="hole" d="M2 5L2 11L8 20L8 26L2 27L5 33L2 41L10 41L19 40L20 32L28 41L32 34L29 27L27 21L37 22L39 14L38 7L42 0L34 0L30 6L21 18L20 4L14 16L11 8L11 0L5 0M0 -2L44 -2L44 43L0 43" style="fill:#00000066;fill-rule:evenodd;"/>
<circle cx="5" cy="0" fill="#ffff0066" r="5">
<title>
Globalist@58
</title>
</circle>
<circle cx="26" cy="12" fill="#ffff0066" r="5">
<title>
Globalist@9
</title>
</circle>
<circle cx="32" cy="15" fill="#ffff0066" r="5">
<title>
BreakALeg@114
</title>
</circle>
<path class="ok" d="" style="stroke:#0000ff;stroke-linecap:round"/>
<path class="out" d="M2 20L22 0M2 20L22 40M22 0L42 20M22 40L42 20" style="stroke:#ff0000;stroke-linecap:round"/>
<g fill="#333333">
<circle cx="2" cy="5" r="0.5">
<title>
hole:0
</title>
</circle>
<circle cx="2" cy="11" r="0.5">
<title>
hole:1
</title>
</circle>
<circle cx="8" cy="20" r="0.5">
<title>
hole:2
</title>
</circle>
<circle cx="8" cy="26" r="0.5">
<title>
hole:3
</title>
</circle>
<circle cx="2" cy="27" r="0.5">
<title>
hole:4
</title>
</circle>
<circle cx="5" cy="33" r="0.5">
<title>
hole:5
</title>
</circle>
<circle cx="2" cy="41" r="0.5">
<title>
hole:6
</title>
</circle>
<circle cx="10" cy="41" r="0.5">
<title>
hole:7
</title>
</circle>
<circle cx="19" cy="40" r="0.5">
<title>
hole:8
</title>
</circle>
<circle cx="20" cy="32" r="0.5">
<title>
hole:9
</title>
</circle>
<circle cx="28" cy="41" r="0.5">
<title>
hole:10
</title>
</circle>
<circle cx="32" cy="34" r="0.5">
<title>
hole:11
</title>
</circle>
<circle cx="29" cy="27" r="0.5">
<title>
hole:12
</title>
</circle>
<circle cx="27" cy="21" r="0.5">
<title>
hole:13
</title>
</circle>
<circle cx="37" cy="22" r="0.5">
<title>
hole:14
</title>
</circle>
<circle cx="39" cy="14" r="0.5">
<title>
hole:15
</title>
</circle>
<circle cx="38" cy="7" r="0.5">
<title>
hole:16
</title>
</circle>
<circle cx="42" cy="0" r="0.5">
<title>
hole:17
</title>
</circle>
<circle cx="34" cy="0" r="0.5">
<title>
hole:18
</title>
</circle>
<circle cx="30" cy="6" r="0.5">
<title>
hole:19
</title>
</circle>
<circle cx="21" cy="18" r="0.5">
<title>
hole:20
</title>
</circle>
<circle cx="20" cy="4" r="0.5">
<title>
hole:21
</title>
</circle>
<circle cx="14" cy="16" r="0.5">
<title>
hole:22
</title>
</circle>
<circle cx="11" cy="8" r="0.5">
<title>
hole:23
</title>
</circle>
<circle cx="11" cy="0" r="0.5">
<title>
hole:24
</title>
</circle>
<circle cx="5" cy="0" r="0.5">
<title>
hole:25
</title>
</circle>
</g>
<g fill="#999999">
<circle cx="2" cy="20" i="0" r="0.5" tabindex="0">
<title>
v:0
</title>
</circle>
<circle cx="22" cy="0" i="1" r="0.5" tabindex="1">
<title>
v:1
</title>
</circle>
<circle cx="22" cy="40" i="2" r="0.5" tabindex="2">
<title>
v:2
</title>
</circle>
<circle cx="42" cy="20" i="3" r="0.5" tabindex="3">
<title>
v:3
</title>
</circle>
</g>
</svg>