<svg height="500" viewBox="13 3 96 109" width="500" xmlns="http://www.w3.org/2000/svg">
<path class="hole" d="M47 110L52 110L57 70L62 85L67 80L92 85L87 70L102 65L107 50L97 45L82 45L92 25L87 25L82 5L67 20L57 15L57 35L47 25L32 15L32 30L27 30L32 45L17 55L37 65L37 75L52 70M13 3L109 3L109 112L13 112" style="fill:#00000066;fill-rule:evenodd;"/>
<circle cx="47" cy="110" r="5" style="fill:#ffff0066;" title="Globalist"/>
<circle cx="41" cy="38" r="5" style="fill:#ffff0066;" title="Globalist"/>
<path class="ok" d="M30 35L40 40M30 55L50 60M40 40L50 50M45 35L55 45M50 50L50 60M50 50L55 45M50 60L55 65M55 45L65 45M55 65L55 70M55 70L65 70M60 20L70 25M65 45L70 50M65 45L75 35M65 65L65 70M65 65L70 60M65 65L85 75M65 70L70 75M70 25L75 35M70 25L80 25M70 50L70 60M70 50L80 40M70 60L90 55" style="stroke:#0000ff;stroke-linecap:round"/>
<path class="out" d="M15 70L30 55M25 100L35 75M35 10L40 25M35 75L55 65M40 25L50 25M45 35L50 25M50 25L60 20M50 75L50 95M50 75L55 70M50 95L60 105M60 105L70 95M70 75L70 95M80 25L85 10M80 40L90 35M85 75L95 100M90 55L105 70" style="stroke:#ff0000;stroke-linecap:round"/>
<g fill="#333333">
<circle cx="47" cy="110" r="0.5" tabindex="0">
<title>
hole:0
</title>
</circle>
<circle cx="52" cy="110" r="0.5" tabindex="1">
<title>
hole:1
</title>
</circle>
<circle cx="57" cy="70" r="0.5" tabindex="2">
<title>
hole:2
</title>
</circle>
<circle cx="62" cy="85" r="0.5" tabindex="3">
<title>
hole:3
</title>
</circle>
<circle cx="67" cy="80" r="0.5" tabindex="4">
<title>
hole:4
</title>
</circle>
<circle cx="92" cy="85" r="0.5" tabindex="5">
<title>
hole:5
</title>
</circle>
<circle cx="87" cy="70" r="0.5" tabindex="6">
<title>
hole:6
</title>
</circle>
<circle cx="102" cy="65" r="0.5" tabindex="7">
<title>
hole:7
</title>
</circle>
<circle cx="107" cy="50" r="0.5" tabindex="8">
<title>
hole:8
</title>
</circle>
<circle cx="97" cy="45" r="0.5" tabindex="9">
<title>
hole:9
</title>
</circle>
<circle cx="82" cy="45" r="0.5" tabindex="10">
<title>
hole:10
</title>
</circle>
<circle cx="92" cy="25" r="0.5" tabindex="11">
<title>
hole:11
</title>
</circle>
<circle cx="87" cy="25" r="0.5" tabindex="12">
<title>
hole:12
</title>
</circle>
<circle cx="82" cy="5" r="0.5" tabindex="13">
<title>
hole:13
</title>
</circle>
<circle cx="67" cy="20" r="0.5" tabindex="14">
<title>
hole:14
</title>
</circle>
<circle cx="57" cy="15" r="0.5" tabindex="15">
<title>
hole:15
</title>
</circle>
<circle cx="57" cy="35" r="0.5" tabindex="16">
<title>
hole:16
</title>
</circle>
<circle cx="47" cy="25" r="0.5" tabindex="17">
<title>
hole:17
</title>
</circle>
<circle cx="32" cy="15" r="0.5" tabindex="18">
<title>
hole:18
</title>
</circle>
<circle cx="32" cy="30" r="0.5" tabindex="19">
<title>
hole:19
</title>
</circle>
<circle cx="27" cy="30" r="0.5" tabindex="20">
<title>
hole:20
</title>
</circle>
<circle cx="32" cy="45" r="0.5" tabindex="21">
<title>
hole:21
</title>
</circle>
<circle cx="17" cy="55" r="0.5" tabindex="22">
<title>
hole:22
</title>
</circle>
<circle cx="37" cy="65" r="0.5" tabindex="23">
<title>
hole:23
</title>
</circle>
<circle cx="37" cy="75" r="0.5" tabindex="24">
<title>
hole:24
</title>
</circle>
<circle cx="52" cy="70" r="0.5" tabindex="25">
<title>
hole:25
</title>
</circle>
</g>
<g fill="#999999">
<circle cx="15" cy="70" r="0.5" tabindex="26">
<title>
v:0
</title>
</circle>
<circle cx="25" cy="100" r="0.5" tabindex="27">
<title>
v:1
</title>
</circle>
<circle cx="30" cy="35" r="0.5" tabindex="28">
<title>
v:2
</title>
</circle>
<circle cx="30" cy="55" r="0.5" tabindex="29">
<title>
v:3
</title>
</circle>
<circle cx="35" cy="10" r="0.5" tabindex="30">
<title>
v:4
</title>
</circle>
<circle cx="35" cy="75" r="0.5" tabindex="31">
<title>
v:5
</title>
</circle>
<circle cx="40" cy="25" r="0.5" tabindex="32">
<title>
v:6
</title>
</circle>
<circle cx="40" cy="40" r="0.5" tabindex="33">
<title>
v:7
</title>
</circle>
<circle cx="45" cy="35" r="0.5" tabindex="34">
<title>
v:8
</title>
</circle>
<circle cx="50" cy="25" r="0.5" tabindex="35">
<title>
v:9
</title>
</circle>
<circle cx="50" cy="50" r="0.5" tabindex="36">
<title>
v:10
</title>
</circle>
<circle cx="50" cy="60" r="0.5" tabindex="37">
<title>
v:11
</title>
</circle>
<circle cx="50" cy="75" r="0.5" tabindex="38">
<title>
v:12
</title>
</circle>
<circle cx="50" cy="95" r="0.5" tabindex="39">
<title>
v:13
</title>
</circle>
<circle cx="55" cy="45" r="0.5" tabindex="40">
<title>
v:14
</title>
</circle>
<circle cx="55" cy="65" r="0.5" tabindex="41">
<title>
v:15
</title>
</circle>
<circle cx="55" cy="70" r="0.5" tabindex="42">
<title>
v:16
</title>
</circle>
<circle cx="60" cy="20" r="0.5" tabindex="43">
<title>
v:17
</title>
</circle>
<circle cx="60" cy="105" r="0.5" tabindex="44">
<title>
v:18
</title>
</circle>
<circle cx="65" cy="45" r="0.5" tabindex="45">
<title>
v:19
</title>
</circle>
<circle cx="65" cy="65" r="0.5" tabindex="46">
<title>
v:20
</title>
</circle>
<circle cx="65" cy="70" r="0.5" tabindex="47">
<title>
v:21
</title>
</circle>
<circle cx="70" cy="25" r="0.5" tabindex="48">
<title>
v:22
</title>
</circle>
<circle cx="70" cy="50" r="0.5" tabindex="49">
<title>
v:23
</title>
</circle>
<circle cx="70" cy="60" r="0.5" tabindex="50">
<title>
v:24
</title>
</circle>
<circle cx="70" cy="75" r="0.5" tabindex="51">
<title>
v:25
</title>
</circle>
<circle cx="70" cy="95" r="0.5" tabindex="52">
<title>
v:26
</title>
</circle>
<circle cx="75" cy="35" r="0.5" tabindex="53">
<title>
v:27
</title>
</circle>
<circle cx="80" cy="25" r="0.5" tabindex="54">
<title>
v:28
</title>
</circle>
<circle cx="80" cy="40" r="0.5" tabindex="55">
<title>
v:29
</title>
</circle>
<circle cx="85" cy="10" r="0.5" tabindex="56">
<title>
v:30
</title>
</circle>
<circle cx="85" cy="75" r="0.5" tabindex="57">
<title>
v:31
</title>
</circle>
<circle cx="90" cy="35" r="0.5" tabindex="58">
<title>
v:32
</title>
</circle>
<circle cx="90" cy="55" r="0.5" tabindex="59">
<title>
v:33
</title>
</circle>
<circle cx="95" cy="100" r="0.5" tabindex="60">
<title>
v:34
</title>
</circle>
<circle cx="105" cy="70" r="0.5" tabindex="61">
<title>
v:35
</title>
</circle>
</g>
</svg>