<svg viewBox="0 0 105 110" width="500" xmlns="http://www.w3.org/2000/svg">
<polygon fill="grey" points="45,110 50,110 55,70 60,85 65,80 90,85 85,70 100,65 105,50 95,45 80,45 90,25 85,25 80,5 65,20 55,15 55,35 45,25 30,15 30,30 25,30 30,45 15,55 35,65 35,75 50,70 "/>
<path d="M15 70L30 55M25 100L35 75M30 35L40 40M30 55L50 60M35 10L40 25M35 75L55 65M40 25L50 25M40 40L50 50M45 35L50 25M45 35L55 45M50 25L60 20M50 50L50 60M50 50L55 45M50 60L55 65M50 75L50 95M50 75L55 70M50 95L60 105M55 45L65 45M55 65L55 70M55 70L65 70M60 20L70 25M60 105L70 95M65 45L70 50M65 45L75 35M65 65L65 70M65 65L70 60M65 65L85 75M65 70L70 75M70 25L75 35M70 25L80 25M70 50L70 60M70 50L80 40M70 60L90 55M70 75L70 95M80 25L85 10M80 40L90 35M85 75L95 100M90 55L105 70" style="fill:none;stroke:#ff0000;stroke-linecap:round"/>
</svg>