<svg height="500" viewBox="15 3 94 109" width="500" xmlns="http://www.w3.org/2000/svg">
<path class="hole" d="M47 110L52 110L57 70L62 85L67 80L92 85L87 70L102 65L107 50L97 45L82 45L92 25L87 25L82 5L67 20L57 15L57 35L47 25L32 15L32 30L27 30L32 45L17 55L37 65L37 75L52 70M15 3L109 3L109 112L15 112" style="fill:#00000066;fill-rule:evenodd;"/>
<circle cx="47" cy="110" fill="#ffff0066" r="5">
<title>
Globalist@60
</title>
</circle>
<circle cx="41" cy="38" fill="#ffff0066" r="5">
<title>
Globalist@81
</title>
</circle>
<circle cx="92" cy="59" fill="#ffff0066" r="5">
<title>
WallHack@59
</title>
</circle>
<path class="ok" d="M32 35L42 40M32 55L52 60M37 75L57 65M42 40L52 50M47 35L57 45M52 50L52 60M52 50L57 45M52 60L57 65M52 75L52 95M52 75L57 70M57 45L67 45M57 65L57 70M57 70L67 70M62 20L72 25M67 45L72 50M67 45L77 35M67 65L67 70M67 65L72 60M67 65L87 75M67 70L72 75M72 25L77 35M72 25L82 25M72 50L72 60M72 50L82 40M72 60L92 55" style="stroke:#0000ff;stroke-linecap:round"/>
<path class="out" d="M17 70L32 55M27 100L37 75M37 10L42 25M42 25L52 25M47 35L52 25M52 25L62 20M52 95L62 105M62 105L72 95M72 75L72 95M82 25L87 10M82 40L92 35M87 75L97 100M92 55L107 70" style="stroke:#ff0000;stroke-linecap:round"/>
<g fill="#333333">
<circle cx="47" cy="110" r="0.5">
<title>
hole:0
</title>
</circle>
<circle cx="52" cy="110" r="0.5">
<title>
hole:1
</title>
</circle>
<circle cx="57" cy="70" r="0.5">
<title>
hole:2
</title>
</circle>
<circle cx="62" cy="85" r="0.5">
<title>
hole:3
</title>
</circle>
<circle cx="67" cy="80" r="0.5">
<title>
hole:4
</title>
</circle>
<circle cx="92" cy="85" r="0.5">
<title>
hole:5
</title>
</circle>
<circle cx="87" cy="70" r="0.5">
<title>
hole:6
</title>
</circle>
<circle cx="102" cy="65" r="0.5">
<title>
hole:7
</title>
</circle>
<circle cx="107" cy="50" r="0.5">
<title>
hole:8
</title>
</circle>
<circle cx="97" cy="45" r="0.5">
<title>
hole:9
</title>
</circle>
<circle cx="82" cy="45" r="0.5">
<title>
hole:10
</title>
</circle>
<circle cx="92" cy="25" r="0.5">
<title>
hole:11
</title>
</circle>
<circle cx="87" cy="25" r="0.5">
<title>
hole:12
</title>
</circle>
<circle cx="82" cy="5" r="0.5">
<title>
hole:13
</title>
</circle>
<circle cx="67" cy="20" r="0.5">
<title>
hole:14
</title>
</circle>
<circle cx="57" cy="15" r="0.5">
<title>
hole:15
</title>
</circle>
<circle cx="57" cy="35" r="0.5">
<title>
hole:16
</title>
</circle>
<circle cx="47" cy="25" r="0.5">
<title>
hole:17
</title>
</circle>
<circle cx="32" cy="15" r="0.5">
<title>
hole:18
</title>
</circle>
<circle cx="32" cy="30" r="0.5">
<title>
hole:19
</title>
</circle>
<circle cx="27" cy="30" r="0.5">
<title>
hole:20
</title>
</circle>
<circle cx="32" cy="45" r="0.5">
<title>
hole:21
</title>
</circle>
<circle cx="17" cy="55" r="0.5">
<title>
hole:22
</title>
</circle>
<circle cx="37" cy="65" r="0.5">
<title>
hole:23
</title>
</circle>
<circle cx="37" cy="75" r="0.5">
<title>
hole:24
</title>
</circle>
<circle cx="52" cy="70" r="0.5">
<title>
hole:25
</title>
</circle>
</g>
<g fill="#999999">
<circle cx="17" cy="70" i="0" r="0.5" tabindex="0">
<title>
v:0
</title>
</circle>
<circle cx="27" cy="100" i="1" r="0.5" tabindex="1">
<title>
v:1
</title>
</circle>
<circle cx="32" cy="35" i="2" r="0.5" tabindex="2">
<title>
v:2
</title>
</circle>
<circle cx="32" cy="55" i="3" r="0.5" tabindex="3">
<title>
v:3
</title>
</circle>
<circle cx="37" cy="10" i="4" r="0.5" tabindex="4">
<title>
v:4
</title>
</circle>
<circle cx="37" cy="75" i="5" r="0.5" tabindex="5">
<title>
v:5
</title>
</circle>
<circle cx="42" cy="25" i="6" r="0.5" tabindex="6">
<title>
v:6
</title>
</circle>
<circle cx="42" cy="40" i="7" r="0.5" tabindex="7">
<title>
v:7
</title>
</circle>
<circle cx="47" cy="35" i="8" r="0.5" tabindex="8">
<title>
v:8
</title>
</circle>
<circle cx="52" cy="25" i="9" r="0.5" tabindex="9">
<title>
v:9
</title>
</circle>
<circle cx="52" cy="50" i="10" r="0.5" tabindex="10">
<title>
v:10
</title>
</circle>
<circle cx="52" cy="60" i="11" r="0.5" tabindex="11">
<title>
v:11
</title>
</circle>
<circle cx="52" cy="75" i="12" r="0.5" tabindex="12">
<title>
v:12
</title>
</circle>
<circle cx="52" cy="95" i="13" r="0.5" tabindex="13">
<title>
v:13
</title>
</circle>
<circle cx="57" cy="45" i="14" r="0.5" tabindex="14">
<title>
v:14
</title>
</circle>
<circle cx="57" cy="65" i="15" r="0.5" tabindex="15">
<title>
v:15
</title>
</circle>
<circle cx="57" cy="70" i="16" r="0.5" tabindex="16">
<title>
v:16
</title>
</circle>
<circle cx="62" cy="20" i="17" r="0.5" tabindex="17">
<title>
v:17
</title>
</circle>
<circle cx="62" cy="105" i="18" r="0.5" tabindex="18">
<title>
v:18
</title>
</circle>
<circle cx="67" cy="45" i="19" r="0.5" tabindex="19">
<title>
v:19
</title>
</circle>
<circle cx="67" cy="65" i="20" r="0.5" tabindex="20">
<title>
v:20
</title>
</circle>
<circle cx="67" cy="70" i="21" r="0.5" tabindex="21">
<title>
v:21
</title>
</circle>
<circle cx="72" cy="25" i="22" r="0.5" tabindex="22">
<title>
v:22
</title>
</circle>
<circle cx="72" cy="50" i="23" r="0.5" tabindex="23">
<title>
v:23
</title>
</circle>
<circle cx="72" cy="60" i="24" r="0.5" tabindex="24">
<title>
v:24
</title>
</circle>
<circle cx="72" cy="75" i="25" r="0.5" tabindex="25">
<title>
v:25
</title>
</circle>
<circle cx="72" cy="95" i="26" r="0.5" tabindex="26">
<title>
v:26
</title>
</circle>
<circle cx="77" cy="35" i="27" r="0.5" tabindex="27">
<title>
v:27
</title>
</circle>
<circle cx="82" cy="25" i="28" r="0.5" tabindex="28">
<title>
v:28
</title>
</circle>
<circle cx="82" cy="40" i="29" r="0.5" tabindex="29">
<title>
v:29
</title>
</circle>
<circle cx="87" cy="10" i="30" r="0.5" tabindex="30">
<title>
v:30
</title>
</circle>
<circle cx="87" cy="75" i="31" r="0.5" tabindex="31">
<title>
v:31
</title>
</circle>
<circle cx="92" cy="35" i="32" r="0.5" tabindex="32">
<title>
v:32
</title>
</circle>
<circle cx="92" cy="55" i="33" r="0.5" tabindex="33">
<title>
v:33
</title>
</circle>
<circle cx="97" cy="100" i="34" r="0.5" tabindex="34">
<title>
v:34
</title>
</circle>
<circle cx="107" cy="70" i="35" r="0.5" tabindex="35">
<title>
v:35
</title>
</circle>
</g>
</svg>