<svg xmlns="http://www.w3.org/2000/svg">
<polygon fill="grey" points="50,70 35,75 35,65 15,55 30,45 25,30 30,30 30,15 45,25 55,35 55,15 65,20 80,5 85,25 90,25 80,45 95,45 105,50 100,65 85,70 90,85 65,80 60,85 55,70 50,110 45,110 "/>
<path d="M50 25L60 20M60 20L70 25M70 25L75 35M75 35L65 45M65 45L55 45M55 45L45 35M45 35L50 25M70 25L80 25M80 25L85 10M50 25L40 25M40 25L35 10M65 45L70 50M70 50L70 60M70 60L65 65M65 65L65 70M55 45L50 50M50 50L50 60M50 60L55 65M55 65L55 70M70 50L80 40M80 40L90 35M50 50L40 40M40 40L30 35M70 60L90 55M90 55L105 70M50 60L30 55M30 55L15 70M65 70L70 75M70 75L70 95M70 95L60 105M60 105L50 95M50 95L50 75M50 75L55 70M55 65L35 75M35 75L25 100M65 65L85 75M85 75L95 100M55 70L65 70" stroke="red"/>
</svg>