<svg height="500" viewBox="-2 -2 48 53" width="500" xmlns="http://www.w3.org/2000/svg">
<path class="hole" d="M7 12L0 5L0 32L2 39L10 43L20 49L27 49L39 43L30 40L39 35L44 24L44 16L43 8L44 0L36 0L28 1L21 6L14 10M-2 -2L46 -2L46 51L-2 51" style="fill:#00000066;fill-rule:evenodd;stroke:none;"/>
<path class="ok" d="M0 15L20 35M44 20L20 35M20 35L24 6" style="fill:none;stroke:#0000ff;stroke-linecap:round"/>
<path class="short" d="" style="fill:none;stroke:#00ff99;stroke-linecap:round"/>
<path class="long" d="" style="fill:none;stroke:#ff0099;stroke-linecap:round"/>
<path class="out" d="M24 0L0 15M24 0L44 20M0 15L24 6" style="fill:none;stroke:#ff0000;stroke-linecap:round"/>
</svg>