<svg height="500" viewBox="-2 -2 50 53" width="500" xmlns="http://www.w3.org/2000/svg">
<path class="hole" d="M9 12L2 5L2 32L4 39L12 43L22 49L29 49L41 43L32 40L41 35L46 24L46 16L45 8L46 0L38 0L30 1L23 6L16 10M-2 -2L48 -2L48 51L-2 51" style="fill:#00000066;fill-rule:evenodd;"/>
<circle cx="2" cy="5" r="5" style="fill:#ffff0066;" title="BreakALeg"/>
<path class="ok" d="M44 20L20 35M20 35L24 6" style="stroke:#0000ff;stroke-linecap:round"/>
<path class="out" d="M24 0L0 15M24 0L44 20M0 15L20 35M0 15L24 6" style="stroke:#ff0000;stroke-linecap:round"/>
<g fill="#333333">
<circle cx="9" cy="12" r="0.5" tabindex="0">
<title>
hole:0
</title>
</circle>
<circle cx="2" cy="5" r="0.5" tabindex="1">
<title>
hole:1
</title>
</circle>
<circle cx="2" cy="32" r="0.5" tabindex="2">
<title>
hole:2
</title>
</circle>
<circle cx="4" cy="39" r="0.5" tabindex="3">
<title>
hole:3
</title>
</circle>
<circle cx="12" cy="43" r="0.5" tabindex="4">
<title>
hole:4
</title>
</circle>
<circle cx="22" cy="49" r="0.5" tabindex="5">
<title>
hole:5
</title>
</circle>
<circle cx="29" cy="49" r="0.5" tabindex="6">
<title>
hole:6
</title>
</circle>
<circle cx="41" cy="43" r="0.5" tabindex="7">
<title>
hole:7
</title>
</circle>
<circle cx="32" cy="40" r="0.5" tabindex="8">
<title>
hole:8
</title>
</circle>
<circle cx="41" cy="35" r="0.5" tabindex="9">
<title>
hole:9
</title>
</circle>
<circle cx="46" cy="24" r="0.5" tabindex="10">
<title>
hole:10
</title>
</circle>
<circle cx="46" cy="16" r="0.5" tabindex="11">
<title>
hole:11
</title>
</circle>
<circle cx="45" cy="8" r="0.5" tabindex="12">
<title>
hole:12
</title>
</circle>
<circle cx="46" cy="0" r="0.5" tabindex="13">
<title>
hole:13
</title>
</circle>
<circle cx="38" cy="0" r="0.5" tabindex="14">
<title>
hole:14
</title>
</circle>
<circle cx="30" cy="1" r="0.5" tabindex="15">
<title>
hole:15
</title>
</circle>
<circle cx="23" cy="6" r="0.5" tabindex="16">
<title>
hole:16
</title>
</circle>
<circle cx="16" cy="10" r="0.5" tabindex="17">
<title>
hole:17
</title>
</circle>
</g>
<g fill="#999999">
<circle cx="24" cy="0" r="0.5" tabindex="18">
<title>
v:0
</title>
</circle>
<circle cx="0" cy="15" r="0.5" tabindex="19">
<title>
v:1
</title>
</circle>
<circle cx="44" cy="20" r="0.5" tabindex="20">
<title>
v:2
</title>
</circle>
<circle cx="20" cy="35" r="0.5" tabindex="21">
<title>
v:3
</title>
</circle>
<circle cx="24" cy="6" r="0.5" tabindex="22">
<title>
v:4
</title>
</circle>
</g>
</svg>