<svg height="500" viewBox="0 -2 48 53" width="500" xmlns="http://www.w3.org/2000/svg">
<path class="hole" d="M9 12L2 5L2 32L4 39L12 43L22 49L29 49L41 43L32 40L41 35L46 24L46 16L45 8L46 0L38 0L30 1L23 6L16 10M0 -2L48 -2L48 51L0 51" style="fill:#00000066;fill-rule:evenodd;"/>
<circle cx="2" cy="5" fill="#ffff0066" r="5">
<title>
BreakALeg@10
</title>
</circle>
<circle cx="20" cy="27" fill="#ffff0066" r="5">
<title>
SuperFlex@105
</title>
</circle>
<circle cx="32" cy="18" fill="#ffff0066" r="5">
<title>
Globalist@34
</title>
</circle>
<path class="ok" d="M2 15L22 35M46 20L22 35M22 35L26 6" style="stroke:#0000ff;stroke-linecap:round"/>
<path class="out" d="M26 0L2 15M26 0L46 20M2 15L26 6" style="stroke:#ff0000;stroke-linecap:round"/>
<g fill="#333333">
<circle cx="9" cy="12" r="0.5">
<title>
hole:0
</title>
</circle>
<circle cx="2" cy="5" r="0.5">
<title>
hole:1
</title>
</circle>
<circle cx="2" cy="32" r="0.5">
<title>
hole:2
</title>
</circle>
<circle cx="4" cy="39" r="0.5">
<title>
hole:3
</title>
</circle>
<circle cx="12" cy="43" r="0.5">
<title>
hole:4
</title>
</circle>
<circle cx="22" cy="49" r="0.5">
<title>
hole:5
</title>
</circle>
<circle cx="29" cy="49" r="0.5">
<title>
hole:6
</title>
</circle>
<circle cx="41" cy="43" r="0.5">
<title>
hole:7
</title>
</circle>
<circle cx="32" cy="40" r="0.5">
<title>
hole:8
</title>
</circle>
<circle cx="41" cy="35" r="0.5">
<title>
hole:9
</title>
</circle>
<circle cx="46" cy="24" r="0.5">
<title>
hole:10
</title>
</circle>
<circle cx="46" cy="16" r="0.5">
<title>
hole:11
</title>
</circle>
<circle cx="45" cy="8" r="0.5">
<title>
hole:12
</title>
</circle>
<circle cx="46" cy="0" r="0.5">
<title>
hole:13
</title>
</circle>
<circle cx="38" cy="0" r="0.5">
<title>
hole:14
</title>
</circle>
<circle cx="30" cy="1" r="0.5">
<title>
hole:15
</title>
</circle>
<circle cx="23" cy="6" r="0.5">
<title>
hole:16
</title>
</circle>
<circle cx="16" cy="10" r="0.5">
<title>
hole:17
</title>
</circle>
</g>
<g fill="#999999">
<circle cx="26" cy="0" i="0" r="0.5" tabindex="0">
<title>
v:0
</title>
</circle>
<circle cx="2" cy="15" i="1" r="0.5" tabindex="1">
<title>
v:1
</title>
</circle>
<circle cx="46" cy="20" i="2" r="0.5" tabindex="2">
<title>
v:2
</title>
</circle>
<circle cx="22" cy="35" i="3" r="0.5" tabindex="3">
<title>
v:3
</title>
</circle>
<circle cx="26" cy="6" i="4" r="0.5" tabindex="4">
<title>
v:4
</title>
</circle>
</g>
</svg>