<svg height="500" viewBox="0 -2 61 73" width="500" xmlns="http://www.w3.org/2000/svg">
<path class="hole" d="M22 4L11 6L2 6L2 18L10 28L4 37L4 47L2 57L19 54L30 46L37 58L28 69L46 69L59 66L58 50L59 39L48 37L53 27L59 20L34 0M0 -2L61 -2L61 71L0 71" style="fill:#00000066;fill-rule:evenodd;"/>
<circle cx="59" cy="66" fill="#ffff0066" r="5">
<title>
Globalist@75
</title>
</circle>
<circle cx="38" cy="18" fill="#ffff0066" r="5">
<title>
WallHack@8
</title>
</circle>
<circle cx="20" cy="18" fill="#ffff0066" r="5">
<title>
SuperFlex@130
</title>
</circle>
<path class="ok" d="" style="stroke:#0000ff;stroke-linecap:round"/>
<path class="out" d="M2 0L2 34M2 0L32 17M2 34L2 69M2 34L29 51M2 34L32 17M2 69L29 51M29 51L32 17" style="stroke:#ff0000;stroke-linecap:round"/>
<g fill="#333333">
<circle cx="22" cy="4" r="0.5">
<title>
hole:0
</title>
</circle>
<circle cx="11" cy="6" r="0.5">
<title>
hole:1
</title>
</circle>
<circle cx="2" cy="6" r="0.5">
<title>
hole:2
</title>
</circle>
<circle cx="2" cy="18" r="0.5">
<title>
hole:3
</title>
</circle>
<circle cx="10" cy="28" r="0.5">
<title>
hole:4
</title>
</circle>
<circle cx="4" cy="37" r="0.5">
<title>
hole:5
</title>
</circle>
<circle cx="4" cy="47" r="0.5">
<title>
hole:6
</title>
</circle>
<circle cx="2" cy="57" r="0.5">
<title>
hole:7
</title>
</circle>
<circle cx="19" cy="54" r="0.5">
<title>
hole:8
</title>
</circle>
<circle cx="30" cy="46" r="0.5">
<title>
hole:9
</title>
</circle>
<circle cx="37" cy="58" r="0.5">
<title>
hole:10
</title>
</circle>
<circle cx="28" cy="69" r="0.5">
<title>
hole:11
</title>
</circle>
<circle cx="46" cy="69" r="0.5">
<title>
hole:12
</title>
</circle>
<circle cx="59" cy="66" r="0.5">
<title>
hole:13
</title>
</circle>
<circle cx="58" cy="50" r="0.5">
<title>
hole:14
</title>
</circle>
<circle cx="59" cy="39" r="0.5">
<title>
hole:15
</title>
</circle>
<circle cx="48" cy="37" r="0.5">
<title>
hole:16
</title>
</circle>
<circle cx="53" cy="27" r="0.5">
<title>
hole:17
</title>
</circle>
<circle cx="59" cy="20" r="0.5">
<title>
hole:18
</title>
</circle>
<circle cx="34" cy="0" r="0.5">
<title>
hole:19
</title>
</circle>
</g>
<g fill="#999999">
<circle cx="2" cy="0" i="0" r="0.5" tabindex="0">
<title>
v:0
</title>
</circle>
<circle cx="2" cy="34" i="1" r="0.5" tabindex="1">
<title>
v:1
</title>
</circle>
<circle cx="2" cy="69" i="2" r="0.5" tabindex="2">
<title>
v:2
</title>
</circle>
<circle cx="29" cy="51" i="3" r="0.5" tabindex="3">
<title>
v:3
</title>
</circle>
<circle cx="32" cy="17" i="4" r="0.5" tabindex="4">
<title>
v:4
</title>
</circle>
</g>
</svg>