<svg height="500" viewBox="-2 -2 42 75" width="500" xmlns="http://www.w3.org/2000/svg">
<path class="hole" d="M4 28L2 37L3 47L2 63L2 71L14 71L22 64L29 61L36 71L38 60L36 51L38 43L38 25L35 17L38 4L28 12L26 0L2 0L3 8L2 19M-2 -2L40 -2L40 73L-2 73" style="fill:#00000066;fill-rule:evenodd;"/>
<circle cx="14" cy="53" r="5" style="fill:#ffff0066;" title="BreakALeg"/>
<circle cx="23" cy="33" r="5" style="fill:#ffff0066;" title="BreakALeg"/>
<path class="ok" d="" style="stroke:#0000ff;stroke-linecap:round"/>
<path class="out" d="M14 34L0 0M14 34L36 3M34 2L0 0M34 2L15 31M0 0L15 31M0 0L36 3M15 31L36 3" style="stroke:#ff0000;stroke-linecap:round"/>
<g fill="#333333">
<circle cx="4" cy="28" r="0.5" tabindex="0">
<title>
hole:0
</title>
</circle>
<circle cx="2" cy="37" r="0.5" tabindex="1">
<title>
hole:1
</title>
</circle>
<circle cx="3" cy="47" r="0.5" tabindex="2">
<title>
hole:2
</title>
</circle>
<circle cx="2" cy="63" r="0.5" tabindex="3">
<title>
hole:3
</title>
</circle>
<circle cx="2" cy="71" r="0.5" tabindex="4">
<title>
hole:4
</title>
</circle>
<circle cx="14" cy="71" r="0.5" tabindex="5">
<title>
hole:5
</title>
</circle>
<circle cx="22" cy="64" r="0.5" tabindex="6">
<title>
hole:6
</title>
</circle>
<circle cx="29" cy="61" r="0.5" tabindex="7">
<title>
hole:7
</title>
</circle>
<circle cx="36" cy="71" r="0.5" tabindex="8">
<title>
hole:8
</title>
</circle>
<circle cx="38" cy="60" r="0.5" tabindex="9">
<title>
hole:9
</title>
</circle>
<circle cx="36" cy="51" r="0.5" tabindex="10">
<title>
hole:10
</title>
</circle>
<circle cx="38" cy="43" r="0.5" tabindex="11">
<title>
hole:11
</title>
</circle>
<circle cx="38" cy="25" r="0.5" tabindex="12">
<title>
hole:12
</title>
</circle>
<circle cx="35" cy="17" r="0.5" tabindex="13">
<title>
hole:13
</title>
</circle>
<circle cx="38" cy="4" r="0.5" tabindex="14">
<title>
hole:14
</title>
</circle>
<circle cx="28" cy="12" r="0.5" tabindex="15">
<title>
hole:15
</title>
</circle>
<circle cx="26" cy="0" r="0.5" tabindex="16">
<title>
hole:16
</title>
</circle>
<circle cx="2" cy="0" r="0.5" tabindex="17">
<title>
hole:17
</title>
</circle>
<circle cx="3" cy="8" r="0.5" tabindex="18">
<title>
hole:18
</title>
</circle>
<circle cx="2" cy="19" r="0.5" tabindex="19">
<title>
hole:19
</title>
</circle>
</g>
<g fill="#999999">
<circle cx="14" cy="34" r="0.5" tabindex="20">
<title>
v:0
</title>
</circle>
<circle cx="34" cy="2" r="0.5" tabindex="21">
<title>
v:1
</title>
</circle>
<circle cx="0" cy="0" r="0.5" tabindex="22">
<title>
v:2
</title>
</circle>
<circle cx="15" cy="31" r="0.5" tabindex="23">
<title>
v:3
</title>
</circle>
<circle cx="36" cy="3" r="0.5" tabindex="24">
<title>
v:4
</title>
</circle>
</g>
</svg>