<svg height="500" viewBox="0 -2 40 75" width="500" xmlns="http://www.w3.org/2000/svg">
<path class="hole" d="M4 28L2 37L3 47L2 63L2 71L14 71L22 64L29 61L36 71L38 60L36 51L38 43L38 25L35 17L38 4L28 12L26 0L2 0L3 8L2 19M0 -2L40 -2L40 73L0 73" style="fill:#00000066;fill-rule:evenodd;"/>
<circle cx="14" cy="53" fill="#ffff0066" r="5">
<title>
BreakALeg@53
</title>
</circle>
<circle cx="23" cy="33" fill="#ffff0066" r="5">
<title>
BreakALeg@71
</title>
</circle>
<circle cx="17" cy="21" fill="#ffff0066" r="5">
<title>
Globalist@131
</title>
</circle>
<path class="ok" d="M16 34L2 0M2 0L17 31" style="stroke:#0000ff;stroke-linecap:round"/>
<path class="out" d="M16 34L38 3M36 2L2 0M36 2L17 31M2 0L38 3M17 31L38 3" style="stroke:#ff0000;stroke-linecap:round"/>
<g fill="#333333">
<circle cx="4" cy="28" r="0.5">
<title>
hole:0
</title>
</circle>
<circle cx="2" cy="37" r="0.5">
<title>
hole:1
</title>
</circle>
<circle cx="3" cy="47" r="0.5">
<title>
hole:2
</title>
</circle>
<circle cx="2" cy="63" r="0.5">
<title>
hole:3
</title>
</circle>
<circle cx="2" cy="71" r="0.5">
<title>
hole:4
</title>
</circle>
<circle cx="14" cy="71" r="0.5">
<title>
hole:5
</title>
</circle>
<circle cx="22" cy="64" r="0.5">
<title>
hole:6
</title>
</circle>
<circle cx="29" cy="61" r="0.5">
<title>
hole:7
</title>
</circle>
<circle cx="36" cy="71" r="0.5">
<title>
hole:8
</title>
</circle>
<circle cx="38" cy="60" r="0.5">
<title>
hole:9
</title>
</circle>
<circle cx="36" cy="51" r="0.5">
<title>
hole:10
</title>
</circle>
<circle cx="38" cy="43" r="0.5">
<title>
hole:11
</title>
</circle>
<circle cx="38" cy="25" r="0.5">
<title>
hole:12
</title>
</circle>
<circle cx="35" cy="17" r="0.5">
<title>
hole:13
</title>
</circle>
<circle cx="38" cy="4" r="0.5">
<title>
hole:14
</title>
</circle>
<circle cx="28" cy="12" r="0.5">
<title>
hole:15
</title>
</circle>
<circle cx="26" cy="0" r="0.5">
<title>
hole:16
</title>
</circle>
<circle cx="2" cy="0" r="0.5">
<title>
hole:17
</title>
</circle>
<circle cx="3" cy="8" r="0.5">
<title>
hole:18
</title>
</circle>
<circle cx="2" cy="19" r="0.5">
<title>
hole:19
</title>
</circle>
</g>
<g fill="#999999">
<circle cx="16" cy="34" i="0" r="0.5" tabindex="0">
<title>
v:0
</title>
</circle>
<circle cx="36" cy="2" i="1" r="0.5" tabindex="1">
<title>
v:1
</title>
</circle>
<circle cx="2" cy="0" i="2" r="0.5" tabindex="2">
<title>
v:2
</title>
</circle>
<circle cx="17" cy="31" i="3" r="0.5" tabindex="3">
<title>
v:3
</title>
</circle>
<circle cx="38" cy="3" i="4" r="0.5" tabindex="4">
<title>
v:4
</title>
</circle>
</g>
</svg>