<svg height="500" viewBox="-2 -2 68 65" width="500" xmlns="http://www.w3.org/2000/svg">
<path class="hole" d="M2 31L17 61L41 55L56 48L64 26L24 0L2 7M-2 -2L66 -2L66 63L-2 63" style="fill:#00000066;fill-rule:evenodd;"/>
<circle cx="18" cy="19" r="5" style="fill:#ffff0066;" title="Globalist"/>
<circle cx="41" cy="36" r="5" style="fill:#ffff0066;" title="WallHack"/>
<path class="ok" d="M30 7L20 28M55 23L35 10M20 28L35 10M20 28L22 4M35 10L33 37M22 4L17 20M17 20L33 37" style="stroke:#0000ff;stroke-linecap:round"/>
<path class="out" d="M53 0L30 7M53 0L55 23M0 15L20 28M0 15L22 4" style="stroke:#ff0000;stroke-linecap:round"/>
<g fill="#333333">
<circle cx="2" cy="31" r="0.5" tabindex="0">
<title>
hole:0
</title>
</circle>
<circle cx="17" cy="61" r="0.5" tabindex="1">
<title>
hole:1
</title>
</circle>
<circle cx="41" cy="55" r="0.5" tabindex="2">
<title>
hole:2
</title>
</circle>
<circle cx="56" cy="48" r="0.5" tabindex="3">
<title>
hole:3
</title>
</circle>
<circle cx="64" cy="26" r="0.5" tabindex="4">
<title>
hole:4
</title>
</circle>
<circle cx="24" cy="0" r="0.5" tabindex="5">
<title>
hole:5
</title>
</circle>
<circle cx="2" cy="7" r="0.5" tabindex="6">
<title>
hole:6
</title>
</circle>
</g>
<g fill="#999999">
<circle cx="53" cy="0" r="0.5" tabindex="7">
<title>
v:0
</title>
</circle>
<circle cx="30" cy="7" r="0.5" tabindex="8">
<title>
v:1
</title>
</circle>
<circle cx="0" cy="15" r="0.5" tabindex="9">
<title>
v:2
</title>
</circle>
<circle cx="55" cy="23" r="0.5" tabindex="10">
<title>
v:3
</title>
</circle>
<circle cx="20" cy="28" r="0.5" tabindex="11">
<title>
v:4
</title>
</circle>
<circle cx="35" cy="10" r="0.5" tabindex="12">
<title>
v:5
</title>
</circle>
<circle cx="22" cy="4" r="0.5" tabindex="13">
<title>
v:6
</title>
</circle>
<circle cx="17" cy="20" r="0.5" tabindex="14">
<title>
v:7
</title>
</circle>
<circle cx="33" cy="37" r="0.5" tabindex="15">
<title>
v:8
</title>
</circle>
</g>
</svg>