<svg height="500" viewBox="0 -2 66 65" width="500" xmlns="http://www.w3.org/2000/svg">
<path class="hole" d="M2 31L17 61L41 55L56 48L64 26L24 0L2 7M0 -2L66 -2L66 63L0 63" style="fill:#00000066;fill-rule:evenodd;"/>
<circle cx="18" cy="19" fill="#ffff0066" r="5">
<title>
Globalist@47
</title>
</circle>
<circle cx="41" cy="36" fill="#ffff0066" r="5">
<title>
WallHack@14
</title>
</circle>
<circle cx="11" cy="45" fill="#ffff0066" r="5">
<title>
WallHack@126
</title>
</circle>
<path class="ok" d="M32 7L22 28M2 15L22 28M2 15L24 4M57 23L37 10M22 28L37 10M22 28L24 4M37 10L35 37M24 4L19 20M19 20L35 37" style="stroke:#0000ff;stroke-linecap:round"/>
<path class="out" d="M55 0L32 7M55 0L57 23" style="stroke:#ff0000;stroke-linecap:round"/>
<g fill="#333333">
<circle cx="2" cy="31" r="0.5">
<title>
hole:0
</title>
</circle>
<circle cx="17" cy="61" r="0.5">
<title>
hole:1
</title>
</circle>
<circle cx="41" cy="55" r="0.5">
<title>
hole:2
</title>
</circle>
<circle cx="56" cy="48" r="0.5">
<title>
hole:3
</title>
</circle>
<circle cx="64" cy="26" r="0.5">
<title>
hole:4
</title>
</circle>
<circle cx="24" cy="0" r="0.5">
<title>
hole:5
</title>
</circle>
<circle cx="2" cy="7" r="0.5">
<title>
hole:6
</title>
</circle>
</g>
<g fill="#999999">
<circle cx="55" cy="0" i="0" r="0.5" tabindex="0">
<title>
v:0
</title>
</circle>
<circle cx="32" cy="7" i="1" r="0.5" tabindex="1">
<title>
v:1
</title>
</circle>
<circle cx="2" cy="15" i="2" r="0.5" tabindex="2">
<title>
v:2
</title>
</circle>
<circle cx="57" cy="23" i="3" r="0.5" tabindex="3">
<title>
v:3
</title>
</circle>
<circle cx="22" cy="28" i="4" r="0.5" tabindex="4">
<title>
v:4
</title>
</circle>
<circle cx="37" cy="10" i="5" r="0.5" tabindex="5">
<title>
v:5
</title>
</circle>
<circle cx="24" cy="4" i="6" r="0.5" tabindex="6">
<title>
v:6
</title>
</circle>
<circle cx="19" cy="20" i="7" r="0.5" tabindex="7">
<title>
v:7
</title>
</circle>
<circle cx="35" cy="37" i="8" r="0.5" tabindex="8">
<title>
v:8
</title>
</circle>
</g>
</svg>