<svg height="500" viewBox="-2 -2 42 42" width="500" xmlns="http://www.w3.org/2000/svg">
<path class="hole" d="M19 0L14 3L8 0L2 0L3 6L7 14L10 22L2 20L2 32L8 28L14 30L12 38L20 34L32 32L23 27L26 22L31 18L38 26L38 12L33 9L26 6L34 2L25 0M-2 -2L40 -2L40 40L-2 40" style="fill:#00000066;fill-rule:evenodd;"/>
<circle cx="38" cy="26" r="5" style="fill:#ffff0066;" title="BreakALeg"/>
<circle cx="20" cy="15" r="5" style="fill:#ffff0066;" title="BreakALeg"/>
<path class="ok" d="" style="stroke:#0000ff;stroke-linecap:round"/>
<path class="out" d="M0 7L0 31M0 7L22 0M0 31L22 38M22 0L36 19M22 38L36 19" style="stroke:#ff0000;stroke-linecap:round"/>
<g fill="#333333">
<circle cx="19" cy="0" r="0.5" tabindex="0">
<title>
hole:0
</title>
</circle>
<circle cx="14" cy="3" r="0.5" tabindex="1">
<title>
hole:1
</title>
</circle>
<circle cx="8" cy="0" r="0.5" tabindex="2">
<title>
hole:2
</title>
</circle>
<circle cx="2" cy="0" r="0.5" tabindex="3">
<title>
hole:3
</title>
</circle>
<circle cx="3" cy="6" r="0.5" tabindex="4">
<title>
hole:4
</title>
</circle>
<circle cx="7" cy="14" r="0.5" tabindex="5">
<title>
hole:5
</title>
</circle>
<circle cx="10" cy="22" r="0.5" tabindex="6">
<title>
hole:6
</title>
</circle>
<circle cx="2" cy="20" r="0.5" tabindex="7">
<title>
hole:7
</title>
</circle>
<circle cx="2" cy="32" r="0.5" tabindex="8">
<title>
hole:8
</title>
</circle>
<circle cx="8" cy="28" r="0.5" tabindex="9">
<title>
hole:9
</title>
</circle>
<circle cx="14" cy="30" r="0.5" tabindex="10">
<title>
hole:10
</title>
</circle>
<circle cx="12" cy="38" r="0.5" tabindex="11">
<title>
hole:11
</title>
</circle>
<circle cx="20" cy="34" r="0.5" tabindex="12">
<title>
hole:12
</title>
</circle>
<circle cx="32" cy="32" r="0.5" tabindex="13">
<title>
hole:13
</title>
</circle>
<circle cx="23" cy="27" r="0.5" tabindex="14">
<title>
hole:14
</title>
</circle>
<circle cx="26" cy="22" r="0.5" tabindex="15">
<title>
hole:15
</title>
</circle>
<circle cx="31" cy="18" r="0.5" tabindex="16">
<title>
hole:16
</title>
</circle>
<circle cx="38" cy="26" r="0.5" tabindex="17">
<title>
hole:17
</title>
</circle>
<circle cx="38" cy="12" r="0.5" tabindex="18">
<title>
hole:18
</title>
</circle>
<circle cx="33" cy="9" r="0.5" tabindex="19">
<title>
hole:19
</title>
</circle>
<circle cx="26" cy="6" r="0.5" tabindex="20">
<title>
hole:20
</title>
</circle>
<circle cx="34" cy="2" r="0.5" tabindex="21">
<title>
hole:21
</title>
</circle>
<circle cx="25" cy="0" r="0.5" tabindex="22">
<title>
hole:22
</title>
</circle>
</g>
<g fill="#999999">
<circle cx="0" cy="7" r="0.5" tabindex="23">
<title>
v:0
</title>
</circle>
<circle cx="0" cy="31" r="0.5" tabindex="24">
<title>
v:1
</title>
</circle>
<circle cx="22" cy="0" r="0.5" tabindex="25">
<title>
v:2
</title>
</circle>
<circle cx="22" cy="38" r="0.5" tabindex="26">
<title>
v:3
</title>
</circle>
<circle cx="36" cy="19" r="0.5" tabindex="27">
<title>
v:4
</title>
</circle>
</g>
</svg>