<svg height="500" viewBox="-2 -2 40 42" width="500" xmlns="http://www.w3.org/2000/svg">
<path class="hole" d="M17 0L12 3L6 0L0 0L1 6L5 14L8 22L0 20L0 32L6 28L12 30L10 38L18 34L30 32L21 27L24 22L29 18L36 26L36 12L31 9L24 6L32 2L23 0M-2 -2L38 -2L38 40L-2 40" style="fill:#00000066;fill-rule:evenodd;stroke:none;"/>
<circle cx="36" cy="26" r="5" style="fill:#ffff0066;stroke:none;"/>
<path class="ok" d="" style="fill:none;stroke:#0000ff;stroke-linecap:round"/>
<path class="out" d="M0 7L0 31M0 7L22 0M0 31L22 38M22 0L36 19M22 38L36 19" style="fill:none;stroke:#ff0000;stroke-linecap:round"/>
</svg>