<svg height="500" viewBox="-2 -2 72 92" width="500" xmlns="http://www.w3.org/2000/svg">
<path class="hole" d="M0 16L47 64L68 54L50 9L0 0M-2 -2L70 -2L70 90L-2 90" style="fill:#00000066;fill-rule:evenodd;stroke:none;"/>
<circle cx="32" cy="48" r="5" style="fill:#ffff0066;stroke:none;"/>
<path class="ok" d="" style="fill:none;stroke:#0000ff;stroke-linecap:round"/>
<path class="out" d="M0 11L11 0M0 11L14 45M1 85L14 59M1 85L14 88M8 56L14 45M8 56L14 59M11 0L30 37M14 45L14 59M14 45L30 37M14 59L30 56M14 88L30 56M30 37L30 56M30 37L67 64M30 56L56 85M56 85L67 64" style="fill:none;stroke:#ff0000;stroke-linecap:round"/>
</svg>