<svg height="500" viewBox="-2 -2 74 92" width="500" xmlns="http://www.w3.org/2000/svg">
<path class="hole" d="M2 16L49 64L70 54L52 9L2 0M-2 -2L72 -2L72 90L-2 90" style="fill:#00000066;fill-rule:evenodd;"/>
<circle cx="34" cy="48" r="5" style="fill:#ffff0066;" title="Globalist"/>
<path class="ok" d="" style="stroke:#0000ff;stroke-linecap:round"/>
<path class="out" d="M0 11L11 0M0 11L14 45M1 85L14 59M1 85L14 88M8 56L14 45M8 56L14 59M11 0L30 37M14 45L14 59M14 45L30 37M14 59L30 56M14 88L30 56M30 37L30 56M30 37L67 64M30 56L56 85M56 85L67 64" style="stroke:#ff0000;stroke-linecap:round"/>
<g fill="#333333">
<circle cx="2" cy="16" r="0.5" tabindex="0">
<title>
hole:0
</title>
</circle>
<circle cx="49" cy="64" r="0.5" tabindex="1">
<title>
hole:1
</title>
</circle>
<circle cx="70" cy="54" r="0.5" tabindex="2">
<title>
hole:2
</title>
</circle>
<circle cx="52" cy="9" r="0.5" tabindex="3">
<title>
hole:3
</title>
</circle>
<circle cx="2" cy="0" r="0.5" tabindex="4">
<title>
hole:4
</title>
</circle>
</g>
<g fill="#999999">
<circle cx="0" cy="11" r="0.5" tabindex="5">
<title>
v:0
</title>
</circle>
<circle cx="1" cy="85" r="0.5" tabindex="6">
<title>
v:1
</title>
</circle>
<circle cx="8" cy="56" r="0.5" tabindex="7">
<title>
v:2
</title>
</circle>
<circle cx="11" cy="0" r="0.5" tabindex="8">
<title>
v:3
</title>
</circle>
<circle cx="14" cy="45" r="0.5" tabindex="9">
<title>
v:4
</title>
</circle>
<circle cx="14" cy="59" r="0.5" tabindex="10">
<title>
v:5
</title>
</circle>
<circle cx="14" cy="88" r="0.5" tabindex="11">
<title>
v:6
</title>
</circle>
<circle cx="30" cy="37" r="0.5" tabindex="12">
<title>
v:7
</title>
</circle>
<circle cx="30" cy="56" r="0.5" tabindex="13">
<title>
v:8
</title>
</circle>
<circle cx="56" cy="85" r="0.5" tabindex="14">
<title>
v:9
</title>
</circle>
<circle cx="67" cy="64" r="0.5" tabindex="15">
<title>
v:10
</title>
</circle>
</g>
</svg>