<svg height="500" viewBox="0 -2 72 92" width="500" xmlns="http://www.w3.org/2000/svg">
<path class="hole" d="M2 16L49 64L70 54L52 9L2 0M0 -2L72 -2L72 90L0 90" style="fill:#00000066;fill-rule:evenodd;"/>
<circle cx="34" cy="48" fill="#ffff0066" r="5">
<title>
Globalist@76
</title>
</circle>
<circle cx="53" cy="45" fill="#ffff0066" r="5">
<title>
SuperFlex@101
</title>
</circle>
<circle cx="23" cy="36" fill="#ffff0066" r="5">
<title>
WallHack@84
</title>
</circle>
<path class="ok" d="" style="stroke:#0000ff;stroke-linecap:round"/>
<path class="out" d="M2 11L13 0M2 11L16 45M3 85L16 59M3 85L16 88M10 56L16 45M10 56L16 59M13 0L32 37M16 45L16 59M16 45L32 37M16 59L32 56M16 88L32 56M32 37L32 56M32 37L69 64M32 56L58 85M58 85L69 64" style="stroke:#ff0000;stroke-linecap:round"/>
<g fill="#333333">
<circle cx="2" cy="16" r="0.5">
<title>
hole:0
</title>
</circle>
<circle cx="49" cy="64" r="0.5">
<title>
hole:1
</title>
</circle>
<circle cx="70" cy="54" r="0.5">
<title>
hole:2
</title>
</circle>
<circle cx="52" cy="9" r="0.5">
<title>
hole:3
</title>
</circle>
<circle cx="2" cy="0" r="0.5">
<title>
hole:4
</title>
</circle>
</g>
<g fill="#999999">
<circle cx="2" cy="11" i="0" r="0.5" tabindex="0">
<title>
v:0
</title>
</circle>
<circle cx="3" cy="85" i="1" r="0.5" tabindex="1">
<title>
v:1
</title>
</circle>
<circle cx="10" cy="56" i="2" r="0.5" tabindex="2">
<title>
v:2
</title>
</circle>
<circle cx="13" cy="0" i="3" r="0.5" tabindex="3">
<title>
v:3
</title>
</circle>
<circle cx="16" cy="45" i="4" r="0.5" tabindex="4">
<title>
v:4
</title>
</circle>
<circle cx="16" cy="59" i="5" r="0.5" tabindex="5">
<title>
v:5
</title>
</circle>
<circle cx="16" cy="88" i="6" r="0.5" tabindex="6">
<title>
v:6
</title>
</circle>
<circle cx="32" cy="37" i="7" r="0.5" tabindex="7">
<title>
v:7
</title>
</circle>
<circle cx="32" cy="56" i="8" r="0.5" tabindex="8">
<title>
v:8
</title>
</circle>
<circle cx="58" cy="85" i="9" r="0.5" tabindex="9">
<title>
v:9
</title>
</circle>
<circle cx="69" cy="64" i="10" r="0.5" tabindex="10">
<title>
v:10
</title>
</circle>
</g>
</svg>