<svg height="500" viewBox="0 -2 63 115" width="500" xmlns="http://www.w3.org/2000/svg">
<path class="hole" d="M2 39L2 73L8 111L47 110L58 76L61 33L41 0L7 7M0 -2L63 -2L63 113L0 113" style="fill:#00000066;fill-rule:evenodd;"/>
<circle cx="29" cy="86" fill="#ffff0066" r="5">
<title>
Globalist@37
</title>
</circle>
<circle cx="29" cy="27" fill="#ffff0066" r="5">
<title>
BreakALeg@100
</title>
</circle>
<circle cx="56" cy="54" fill="#ffff0066" r="5">
<title>
BreakALeg@29
</title>
</circle>
<path class="ok" d="M8 42L39 19M8 42L37 23M39 19L7 42M37 23L40 56M7 42L40 56" style="stroke:#0000ff;stroke-linecap:round"/>
<path class="out" d="M6 8L8 42M6 8L25 34M6 8L37 23M25 34L18 0M37 23L2 35M18 0L2 35M40 56L2 35" style="stroke:#ff0000;stroke-linecap:round"/>
<g fill="#333333">
<circle cx="2" cy="39" r="0.5">
<title>
hole:0
</title>
</circle>
<circle cx="2" cy="73" r="0.5">
<title>
hole:1
</title>
</circle>
<circle cx="8" cy="111" r="0.5">
<title>
hole:2
</title>
</circle>
<circle cx="47" cy="110" r="0.5">
<title>
hole:3
</title>
</circle>
<circle cx="58" cy="76" r="0.5">
<title>
hole:4
</title>
</circle>
<circle cx="61" cy="33" r="0.5">
<title>
hole:5
</title>
</circle>
<circle cx="41" cy="0" r="0.5">
<title>
hole:6
</title>
</circle>
<circle cx="7" cy="7" r="0.5">
<title>
hole:7
</title>
</circle>
</g>
<g fill="#999999">
<circle cx="6" cy="8" i="0" r="0.5" tabindex="0">
<title>
v:0
</title>
</circle>
<circle cx="8" cy="42" i="1" r="0.5" tabindex="1">
<title>
v:1
</title>
</circle>
<circle cx="25" cy="34" i="2" r="0.5" tabindex="2">
<title>
v:2
</title>
</circle>
<circle cx="39" cy="19" i="3" r="0.5" tabindex="3">
<title>
v:3
</title>
</circle>
<circle cx="37" cy="23" i="4" r="0.5" tabindex="4">
<title>
v:4
</title>
</circle>
<circle cx="18" cy="0" i="5" r="0.5" tabindex="5">
<title>
v:5
</title>
</circle>
<circle cx="7" cy="42" i="6" r="0.5" tabindex="6">
<title>
v:6
</title>
</circle>
<circle cx="40" cy="56" i="7" r="0.5" tabindex="7">
<title>
v:7
</title>
</circle>
<circle cx="2" cy="35" i="8" r="0.5" tabindex="8">
<title>
v:8
</title>
</circle>
</g>
</svg>