<svg xmlns="http://www.w3.org/2000/svg">
<polygon fill="grey" points="5,5 35,15 65,15 95,5 95,50 70,70 70,90 50,95 30,90 30,70 5,50 "/>
<path d="M50 95L60 80M60 80L40 80M40 80L50 95M60 80L70 65M70 65L30 65M30 65L40 80M30 65L20 50M70 65L80 50M30 55L30 50M30 50L35 45M35 45L40 45M40 45L45 50M45 50L45 55M45 55L40 60M40 60L35 60M35 60L30 55M65 60L70 55M70 55L70 50M70 50L65 45M65 45L60 45M60 45L55 50M55 50L55 55M55 55L60 60M60 60L65 60M20 50L10 35M90 35L80 50M80 50L70 50M55 50L45 50M30 50L20 50M30 5L15 5M15 5L10 10M10 10L10 25M10 25L15 30M15 30L30 30M40 5L40 20M40 20L40 30M40 30L60 30M60 30L55 20M55 20L60 5M60 5L40 5M40 20L55 20M90 5L80 30M80 30L70 5M30 30L30 35M60 30L60 35M80 30L80 35M90 35L80 35M80 35L60 35M60 35L30 35M30 35L10 35" stroke="red"/>
</svg>