<svg height="500" viewBox="5 3 94 94" width="500" xmlns="http://www.w3.org/2000/svg">
<path class="hole" d="M7 50L32 70L32 90L52 95L72 90L72 70L97 50L97 5L67 15L37 15L7 5M5 3L99 3L99 97L5 97" style="fill:#00000066;fill-rule:evenodd;"/>
<circle cx="97" cy="26" fill="#ffff0066" r="5">
<title>
BreakALeg@63
</title>
</circle>
<circle cx="7" cy="32" fill="#ffff0066" r="5">
<title>
BreakALeg@92
</title>
</circle>
<circle cx="61" cy="59" fill="#ffff0066" r="5">
<title>
BreakALeg@17
</title>
</circle>
<path class="ok" d="M12 10L12 25M12 25L17 30M12 35L22 50M12 35L32 35M17 30L32 30M22 50L32 50M22 50L32 65M32 30L32 35M32 35L62 35M32 50L32 55M32 50L37 45M32 55L37 60M32 65L42 80M32 65L72 65M37 45L42 45M37 60L42 60M42 20L42 30M42 20L57 20M42 30L62 30M42 45L47 50M42 60L47 55M42 80L52 95M42 80L62 80M47 50L47 55M47 50L57 50M52 95L62 80M57 20L62 30M57 50L57 55M57 50L62 45M57 55L62 60M62 30L62 35M62 35L82 35M62 45L67 45M62 60L67 60M62 80L72 65M67 45L72 50M67 60L72 55M72 50L72 55M72 50L82 50M72 65L82 50M82 30L82 35M82 35L92 35M82 50L92 35" style="stroke:#0000ff;stroke-linecap:round"/>
<path class="out" d="M12 10L17 5M17 5L32 5M42 5L42 20M42 5L62 5M57 20L62 5M72 5L82 30M82 30L92 5" style="stroke:#ff0000;stroke-linecap:round"/>
<g fill="#333333">
<circle cx="7" cy="50" r="0.5">
<title>
hole:0
</title>
</circle>
<circle cx="32" cy="70" r="0.5">
<title>
hole:1
</title>
</circle>
<circle cx="32" cy="90" r="0.5">
<title>
hole:2
</title>
</circle>
<circle cx="52" cy="95" r="0.5">
<title>
hole:3
</title>
</circle>
<circle cx="72" cy="90" r="0.5">
<title>
hole:4
</title>
</circle>
<circle cx="72" cy="70" r="0.5">
<title>
hole:5
</title>
</circle>
<circle cx="97" cy="50" r="0.5">
<title>
hole:6
</title>
</circle>
<circle cx="97" cy="5" r="0.5">
<title>
hole:7
</title>
</circle>
<circle cx="67" cy="15" r="0.5">
<title>
hole:8
</title>
</circle>
<circle cx="37" cy="15" r="0.5">
<title>
hole:9
</title>
</circle>
<circle cx="7" cy="5" r="0.5">
<title>
hole:10
</title>
</circle>
</g>
<g fill="#999999">
<circle cx="12" cy="10" i="0" r="0.5" tabindex="0">
<title>
v:0
</title>
</circle>
<circle cx="12" cy="25" i="1" r="0.5" tabindex="1">
<title>
v:1
</title>
</circle>
<circle cx="12" cy="35" i="2" r="0.5" tabindex="2">
<title>
v:2
</title>
</circle>
<circle cx="17" cy="5" i="3" r="0.5" tabindex="3">
<title>
v:3
</title>
</circle>
<circle cx="17" cy="30" i="4" r="0.5" tabindex="4">
<title>
v:4
</title>
</circle>
<circle cx="22" cy="50" i="5" r="0.5" tabindex="5">
<title>
v:5
</title>
</circle>
<circle cx="32" cy="5" i="6" r="0.5" tabindex="6">
<title>
v:6
</title>
</circle>
<circle cx="32" cy="30" i="7" r="0.5" tabindex="7">
<title>
v:7
</title>
</circle>
<circle cx="32" cy="35" i="8" r="0.5" tabindex="8">
<title>
v:8
</title>
</circle>
<circle cx="32" cy="50" i="9" r="0.5" tabindex="9">
<title>
v:9
</title>
</circle>
<circle cx="32" cy="55" i="10" r="0.5" tabindex="10">
<title>
v:10
</title>
</circle>
<circle cx="32" cy="65" i="11" r="0.5" tabindex="11">
<title>
v:11
</title>
</circle>
<circle cx="37" cy="45" i="12" r="0.5" tabindex="12">
<title>
v:12
</title>
</circle>
<circle cx="37" cy="60" i="13" r="0.5" tabindex="13">
<title>
v:13
</title>
</circle>
<circle cx="42" cy="5" i="14" r="0.5" tabindex="14">
<title>
v:14
</title>
</circle>
<circle cx="42" cy="20" i="15" r="0.5" tabindex="15">
<title>
v:15
</title>
</circle>
<circle cx="42" cy="30" i="16" r="0.5" tabindex="16">
<title>
v:16
</title>
</circle>
<circle cx="42" cy="45" i="17" r="0.5" tabindex="17">
<title>
v:17
</title>
</circle>
<circle cx="42" cy="60" i="18" r="0.5" tabindex="18">
<title>
v:18
</title>
</circle>
<circle cx="42" cy="80" i="19" r="0.5" tabindex="19">
<title>
v:19
</title>
</circle>
<circle cx="47" cy="50" i="20" r="0.5" tabindex="20">
<title>
v:20
</title>
</circle>
<circle cx="47" cy="55" i="21" r="0.5" tabindex="21">
<title>
v:21
</title>
</circle>
<circle cx="52" cy="95" i="22" r="0.5" tabindex="22">
<title>
v:22
</title>
</circle>
<circle cx="57" cy="20" i="23" r="0.5" tabindex="23">
<title>
v:23
</title>
</circle>
<circle cx="57" cy="50" i="24" r="0.5" tabindex="24">
<title>
v:24
</title>
</circle>
<circle cx="57" cy="55" i="25" r="0.5" tabindex="25">
<title>
v:25
</title>
</circle>
<circle cx="62" cy="5" i="26" r="0.5" tabindex="26">
<title>
v:26
</title>
</circle>
<circle cx="62" cy="30" i="27" r="0.5" tabindex="27">
<title>
v:27
</title>
</circle>
<circle cx="62" cy="35" i="28" r="0.5" tabindex="28">
<title>
v:28
</title>
</circle>
<circle cx="62" cy="45" i="29" r="0.5" tabindex="29">
<title>
v:29
</title>
</circle>
<circle cx="62" cy="60" i="30" r="0.5" tabindex="30">
<title>
v:30
</title>
</circle>
<circle cx="62" cy="80" i="31" r="0.5" tabindex="31">
<title>
v:31
</title>
</circle>
<circle cx="67" cy="45" i="32" r="0.5" tabindex="32">
<title>
v:32
</title>
</circle>
<circle cx="67" cy="60" i="33" r="0.5" tabindex="33">
<title>
v:33
</title>
</circle>
<circle cx="72" cy="5" i="34" r="0.5" tabindex="34">
<title>
v:34
</title>
</circle>
<circle cx="72" cy="50" i="35" r="0.5" tabindex="35">
<title>
v:35
</title>
</circle>
<circle cx="72" cy="55" i="36" r="0.5" tabindex="36">
<title>
v:36
</title>
</circle>
<circle cx="72" cy="65" i="37" r="0.5" tabindex="37">
<title>
v:37
</title>
</circle>
<circle cx="82" cy="30" i="38" r="0.5" tabindex="38">
<title>
v:38
</title>
</circle>
<circle cx="82" cy="35" i="39" r="0.5" tabindex="39">
<title>
v:39
</title>
</circle>
<circle cx="82" cy="50" i="40" r="0.5" tabindex="40">
<title>
v:40
</title>
</circle>
<circle cx="92" cy="5" i="41" r="0.5" tabindex="41">
<title>
v:41
</title>
</circle>
<circle cx="92" cy="35" i="42" r="0.5" tabindex="42">
<title>
v:42
</title>
</circle>
</g>
</svg>