<svg height="500" viewBox="-2 -2 104 72" width="500" xmlns="http://www.w3.org/2000/svg">
<path class="hole" d="M0 41L43 68L66 68L100 22L53 0M-2 -2L102 -2L102 70L-2 70" style="fill:#00000066;fill-rule:evenodd;stroke:none;"/>
<path class="ok" d="M14 34L44 63M27 41L30 53M27 41L44 58M30 53L44 58M44 58L44 63M44 58L59 53M44 58L61 41M44 63L56 68M44 63L89 21M56 68L59 53M56 68L89 21M59 53L61 41" style="fill:none;stroke:#0000ff;stroke-linecap:round"/>
<path class="short" d="" style="fill:none;stroke:#00ff99;stroke-linecap:round"/>
<path class="long" d="" style="fill:none;stroke:#ff0099;stroke-linecap:round"/>
<path class="out" d="M0 48L9 34M0 48L14 34M9 34L14 34M9 34L33 68M27 41L44 0M30 53L33 68M33 68L44 63M44 0L44 58M44 0L61 41" style="fill:none;stroke:#ff0000;stroke-linecap:round"/>
</svg>