<svg height="500" viewBox="0 -2 79 93" width="500" xmlns="http://www.w3.org/2000/svg">
<path class="hole" d="M7 1L6 13L2 25L15 30L8 40L2 51L3 72L6 89L17 76L27 84L38 70L45 53L63 59L51 72L50 89L65 79L77 89L76 42L63 45L50 41L59 31L59 13L20 45L45 8L23 13L24 0M0 -2L79 -2L79 91L0 91" style="fill:#00000066;fill-rule:evenodd;"/>
<circle cx="21" cy="1" r="5" style="fill:#ffff0066;" title="BreakALeg"/>
<circle cx="32" cy="27" r="5" style="fill:#ffff0066;" title="WallHack"/>
<path class="ok" d="" style="stroke:#0000ff;stroke-linecap:round"/>
<path class="out" d="M10 10L10 44M10 10L40 27M10 44L18 77M10 44L40 27M18 77L51 79M40 27L65 50M51 79L65 50" style="stroke:#ff0000;stroke-linecap:round"/>
<g fill="#333333">
<circle cx="7" cy="1" r="0.5" tabindex="0">
<title>
hole:0
</title>
</circle>
<circle cx="6" cy="13" r="0.5" tabindex="1">
<title>
hole:1
</title>
</circle>
<circle cx="2" cy="25" r="0.5" tabindex="2">
<title>
hole:2
</title>
</circle>
<circle cx="15" cy="30" r="0.5" tabindex="3">
<title>
hole:3
</title>
</circle>
<circle cx="8" cy="40" r="0.5" tabindex="4">
<title>
hole:4
</title>
</circle>
<circle cx="2" cy="51" r="0.5" tabindex="5">
<title>
hole:5
</title>
</circle>
<circle cx="3" cy="72" r="0.5" tabindex="6">
<title>
hole:6
</title>
</circle>
<circle cx="6" cy="89" r="0.5" tabindex="7">
<title>
hole:7
</title>
</circle>
<circle cx="17" cy="76" r="0.5" tabindex="8">
<title>
hole:8
</title>
</circle>
<circle cx="27" cy="84" r="0.5" tabindex="9">
<title>
hole:9
</title>
</circle>
<circle cx="38" cy="70" r="0.5" tabindex="10">
<title>
hole:10
</title>
</circle>
<circle cx="45" cy="53" r="0.5" tabindex="11">
<title>
hole:11
</title>
</circle>
<circle cx="63" cy="59" r="0.5" tabindex="12">
<title>
hole:12
</title>
</circle>
<circle cx="51" cy="72" r="0.5" tabindex="13">
<title>
hole:13
</title>
</circle>
<circle cx="50" cy="89" r="0.5" tabindex="14">
<title>
hole:14
</title>
</circle>
<circle cx="65" cy="79" r="0.5" tabindex="15">
<title>
hole:15
</title>
</circle>
<circle cx="77" cy="89" r="0.5" tabindex="16">
<title>
hole:16
</title>
</circle>
<circle cx="76" cy="42" r="0.5" tabindex="17">
<title>
hole:17
</title>
</circle>
<circle cx="63" cy="45" r="0.5" tabindex="18">
<title>
hole:18
</title>
</circle>
<circle cx="50" cy="41" r="0.5" tabindex="19">
<title>
hole:19
</title>
</circle>
<circle cx="59" cy="31" r="0.5" tabindex="20">
<title>
hole:20
</title>
</circle>
<circle cx="59" cy="13" r="0.5" tabindex="21">
<title>
hole:21
</title>
</circle>
<circle cx="20" cy="45" r="0.5" tabindex="22">
<title>
hole:22
</title>
</circle>
<circle cx="45" cy="8" r="0.5" tabindex="23">
<title>
hole:23
</title>
</circle>
<circle cx="23" cy="13" r="0.5" tabindex="24">
<title>
hole:24
</title>
</circle>
<circle cx="24" cy="0" r="0.5" tabindex="25">
<title>
hole:25
</title>
</circle>
</g>
<g fill="#999999">
<circle cx="10" cy="10" r="0.5" tabindex="26">
<title>
v:0
</title>
</circle>
<circle cx="10" cy="44" r="0.5" tabindex="27">
<title>
v:1
</title>
</circle>
<circle cx="18" cy="77" r="0.5" tabindex="28">
<title>
v:2
</title>
</circle>
<circle cx="40" cy="27" r="0.5" tabindex="29">
<title>
v:3
</title>
</circle>
<circle cx="51" cy="79" r="0.5" tabindex="30">
<title>
v:4
</title>
</circle>
<circle cx="65" cy="50" r="0.5" tabindex="31">
<title>
v:5
</title>
</circle>
</g>
</svg>