<svg height="500" viewBox="0 -2 64 78" width="500" xmlns="http://www.w3.org/2000/svg">
<path class="hole" d="M7 7L3 21L5 32L16 41L6 46L4 56L15 60L12 74L26 74L51 62L52 74L62 74L61 62L59 51L44 47L56 36L47 30L62 20L62 7L47 1L33 0L44 18L29 30L17 27L26 13L16 0M0 -2L64 -2L64 76L0 76" style="fill:#00000066;fill-rule:evenodd;"/>
<circle cx="62" cy="7" fill="#ffff0066" r="5">
<title>
Globalist@25
</title>
</circle>
<circle cx="30" cy="54" fill="#ffff0066" r="5">
<title>
WallHack@52
</title>
</circle>
<circle cx="36" cy="66" fill="#ffff0066" r="5">
<title>
SuperFlex@48
</title>
</circle>
<path class="ok" d="" style="stroke:#0000ff;stroke-linecap:round"/>
<path class="out" d="M2 0L2 34M2 0L32 17M2 34L7 72M2 34L32 17M7 72L45 74M32 17L62 40M45 74L62 40" style="stroke:#ff0000;stroke-linecap:round"/>
<g fill="#333333">
<circle cx="7" cy="7" r="0.5">
<title>
hole:0
</title>
</circle>
<circle cx="3" cy="21" r="0.5">
<title>
hole:1
</title>
</circle>
<circle cx="5" cy="32" r="0.5">
<title>
hole:2
</title>
</circle>
<circle cx="16" cy="41" r="0.5">
<title>
hole:3
</title>
</circle>
<circle cx="6" cy="46" r="0.5">
<title>
hole:4
</title>
</circle>
<circle cx="4" cy="56" r="0.5">
<title>
hole:5
</title>
</circle>
<circle cx="15" cy="60" r="0.5">
<title>
hole:6
</title>
</circle>
<circle cx="12" cy="74" r="0.5">
<title>
hole:7
</title>
</circle>
<circle cx="26" cy="74" r="0.5">
<title>
hole:8
</title>
</circle>
<circle cx="51" cy="62" r="0.5">
<title>
hole:9
</title>
</circle>
<circle cx="52" cy="74" r="0.5">
<title>
hole:10
</title>
</circle>
<circle cx="62" cy="74" r="0.5">
<title>
hole:11
</title>
</circle>
<circle cx="61" cy="62" r="0.5">
<title>
hole:12
</title>
</circle>
<circle cx="59" cy="51" r="0.5">
<title>
hole:13
</title>
</circle>
<circle cx="44" cy="47" r="0.5">
<title>
hole:14
</title>
</circle>
<circle cx="56" cy="36" r="0.5">
<title>
hole:15
</title>
</circle>
<circle cx="47" cy="30" r="0.5">
<title>
hole:16
</title>
</circle>
<circle cx="62" cy="20" r="0.5">
<title>
hole:17
</title>
</circle>
<circle cx="62" cy="7" r="0.5">
<title>
hole:18
</title>
</circle>
<circle cx="47" cy="1" r="0.5">
<title>
hole:19
</title>
</circle>
<circle cx="33" cy="0" r="0.5">
<title>
hole:20
</title>
</circle>
<circle cx="44" cy="18" r="0.5">
<title>
hole:21
</title>
</circle>
<circle cx="29" cy="30" r="0.5">
<title>
hole:22
</title>
</circle>
<circle cx="17" cy="27" r="0.5">
<title>
hole:23
</title>
</circle>
<circle cx="26" cy="13" r="0.5">
<title>
hole:24
</title>
</circle>
<circle cx="16" cy="0" r="0.5">
<title>
hole:25
</title>
</circle>
</g>
<g fill="#999999">
<circle cx="2" cy="0" i="0" r="0.5" tabindex="0">
<title>
v:0
</title>
</circle>
<circle cx="2" cy="34" i="1" r="0.5" tabindex="1">
<title>
v:1
</title>
</circle>
<circle cx="7" cy="72" i="2" r="0.5" tabindex="2">
<title>
v:2
</title>
</circle>
<circle cx="32" cy="17" i="3" r="0.5" tabindex="3">
<title>
v:3
</title>
</circle>
<circle cx="45" cy="74" i="4" r="0.5" tabindex="4">
<title>
v:4
</title>
</circle>
<circle cx="62" cy="40" i="5" r="0.5" tabindex="5">
<title>
v:5
</title>
</circle>
</g>
</svg>