<svg height="500" viewBox="0 -2 89 103" width="500" xmlns="http://www.w3.org/2000/svg">
<path class="hole" d="M2 60L4 89L55 91L80 61L87 20L67 0L26 32M0 -2L89 -2L89 101L0 101" style="fill:#00000066;fill-rule:evenodd;"/>
<circle cx="45" cy="44" fill="#ffff0066" r="5">
<title>
BreakALeg@28
</title>
</circle>
<circle cx="68" cy="21" fill="#ffff0066" r="5">
<title>
WallHack@31
</title>
</circle>
<circle cx="17" cy="48" fill="#ffff0066" r="5">
<title>
Globalist@16
</title>
</circle>
<path class="ok" d="M27 67L6 79M27 67L34 41M34 41L16 58M34 41L41 65M16 58L41 65" style="stroke:#0000ff;stroke-linecap:round"/>
<path class="out" d="M2 82L24 99M2 82L2 46M2 82L27 67M24 99L6 79M24 99L7 51M2 46L27 67M2 46L20 29M2 46L20 0M6 79L7 51M20 29L20 0M20 29L16 58M7 51L34 41M7 51L41 65M20 0L23 29M16 58L23 29M41 65L23 29" style="stroke:#ff0000;stroke-linecap:round"/>
<g fill="#333333">
<circle cx="2" cy="60" r="0.5">
<title>
hole:0
</title>
</circle>
<circle cx="4" cy="89" r="0.5">
<title>
hole:1
</title>
</circle>
<circle cx="55" cy="91" r="0.5">
<title>
hole:2
</title>
</circle>
<circle cx="80" cy="61" r="0.5">
<title>
hole:3
</title>
</circle>
<circle cx="87" cy="20" r="0.5">
<title>
hole:4
</title>
</circle>
<circle cx="67" cy="0" r="0.5">
<title>
hole:5
</title>
</circle>
<circle cx="26" cy="32" r="0.5">
<title>
hole:6
</title>
</circle>
</g>
<g fill="#999999">
<circle cx="2" cy="82" i="0" r="0.5" tabindex="0">
<title>
v:0
</title>
</circle>
<circle cx="24" cy="99" i="1" r="0.5" tabindex="1">
<title>
v:1
</title>
</circle>
<circle cx="2" cy="46" i="2" r="0.5" tabindex="2">
<title>
v:2
</title>
</circle>
<circle cx="27" cy="67" i="3" r="0.5" tabindex="3">
<title>
v:3
</title>
</circle>
<circle cx="6" cy="79" i="4" r="0.5" tabindex="4">
<title>
v:4
</title>
</circle>
<circle cx="20" cy="29" i="5" r="0.5" tabindex="5">
<title>
v:5
</title>
</circle>
<circle cx="7" cy="51" i="6" r="0.5" tabindex="6">
<title>
v:6
</title>
</circle>
<circle cx="34" cy="41" i="7" r="0.5" tabindex="7">
<title>
v:7
</title>
</circle>
<circle cx="20" cy="0" i="8" r="0.5" tabindex="8">
<title>
v:8
</title>
</circle>
<circle cx="16" cy="58" i="9" r="0.5" tabindex="9">
<title>
v:9
</title>
</circle>
<circle cx="41" cy="65" i="10" r="0.5" tabindex="10">
<title>
v:10
</title>
</circle>
<circle cx="23" cy="29" i="11" r="0.5" tabindex="11">
<title>
v:11
</title>
</circle>
</g>
</svg>