<svg height="500" viewBox="-2 -2 83 92" width="500" xmlns="http://www.w3.org/2000/svg">
<path class="hole" d="M0 28L7 34L16 44L36 33L41 36L79 21L69 0L40 17L36 19L6 14M-2 -2L81 -2L81 90L-2 90" style="fill:#00000066;fill-rule:evenodd;stroke:none;"/>
<path class="ok" d="" style="fill:none;stroke:#0000ff;stroke-linecap:round"/>
<path class="short" d="" style="fill:none;stroke:#00ff99;stroke-linecap:round"/>
<path class="long" d="" style="fill:none;stroke:#ff0099;stroke-linecap:round"/>
<path class="out" d="M0 11L11 0M0 11L14 45M1 85L14 59M1 85L14 88M8 56L14 45M8 56L14 59M11 0L30 37M14 45L14 59M14 45L30 37M14 59L30 56M14 88L30 56M30 37L30 56M30 37L67 64M30 56L56 85M56 85L67 64" style="fill:none;stroke:#ff0000;stroke-linecap:round"/>
</svg>