<svg height="500" viewBox="-2 -2 85 92" width="500" xmlns="http://www.w3.org/2000/svg">
<path class="hole" d="M2 28L9 34L18 44L38 33L43 36L81 21L71 0L42 17L38 19L8 14M-2 -2L83 -2L83 90L-2 90" style="fill:#00000066;fill-rule:evenodd;"/>
<circle cx="61" cy="26" r="5" style="fill:#ffff0066;" title="BreakALeg"/>
<path class="ok" d="" style="stroke:#0000ff;stroke-linecap:round"/>
<path class="out" d="M0 11L11 0M0 11L14 45M1 85L14 59M1 85L14 88M8 56L14 45M8 56L14 59M11 0L30 37M14 45L14 59M14 45L30 37M14 59L30 56M14 88L30 56M30 37L30 56M30 37L67 64M30 56L56 85M56 85L67 64" style="stroke:#ff0000;stroke-linecap:round"/>
<g fill="#333333">
<circle cx="2" cy="28" r="0.5" tabindex="0">
<title>
hole:0
</title>
</circle>
<circle cx="9" cy="34" r="0.5" tabindex="1">
<title>
hole:1
</title>
</circle>
<circle cx="18" cy="44" r="0.5" tabindex="2">
<title>
hole:2
</title>
</circle>
<circle cx="38" cy="33" r="0.5" tabindex="3">
<title>
hole:3
</title>
</circle>
<circle cx="43" cy="36" r="0.5" tabindex="4">
<title>
hole:4
</title>
</circle>
<circle cx="81" cy="21" r="0.5" tabindex="5">
<title>
hole:5
</title>
</circle>
<circle cx="71" cy="0" r="0.5" tabindex="6">
<title>
hole:6
</title>
</circle>
<circle cx="42" cy="17" r="0.5" tabindex="7">
<title>
hole:7
</title>
</circle>
<circle cx="38" cy="19" r="0.5" tabindex="8">
<title>
hole:8
</title>
</circle>
<circle cx="8" cy="14" r="0.5" tabindex="9">
<title>
hole:9
</title>
</circle>
</g>
<g fill="#999999">
<circle cx="0" cy="11" r="0.5" tabindex="10">
<title>
v:0
</title>
</circle>
<circle cx="1" cy="85" r="0.5" tabindex="11">
<title>
v:1
</title>
</circle>
<circle cx="8" cy="56" r="0.5" tabindex="12">
<title>
v:2
</title>
</circle>
<circle cx="11" cy="0" r="0.5" tabindex="13">
<title>
v:3
</title>
</circle>
<circle cx="14" cy="45" r="0.5" tabindex="14">
<title>
v:4
</title>
</circle>
<circle cx="14" cy="59" r="0.5" tabindex="15">
<title>
v:5
</title>
</circle>
<circle cx="14" cy="88" r="0.5" tabindex="16">
<title>
v:6
</title>
</circle>
<circle cx="30" cy="37" r="0.5" tabindex="17">
<title>
v:7
</title>
</circle>
<circle cx="30" cy="56" r="0.5" tabindex="18">
<title>
v:8
</title>
</circle>
<circle cx="56" cy="85" r="0.5" tabindex="19">
<title>
v:9
</title>
</circle>
<circle cx="67" cy="64" r="0.5" tabindex="20">
<title>
v:10
</title>
</circle>
</g>
</svg>