<svg height="500" viewBox="0 -2 93 72" width="500" xmlns="http://www.w3.org/2000/svg">
<path class="hole" d="M2 29L9 44L20 58L32 61L33 50L24 0L14 0L4 24M0 -2L93 -2L93 70L0 70" style="fill:#00000066;fill-rule:evenodd;"/>
<circle cx="26" cy="16" fill="#ffff0066" r="5">
<title>
BreakALeg@36
</title>
</circle>
<circle cx="11" cy="12" fill="#ffff0066" r="5">
<title>
BreakALeg@104
</title>
</circle>
<circle cx="29" cy="36" fill="#ffff0066" r="5">
<title>
WallHack@66
</title>
</circle>
<path class="ok" d="M11 34L16 34M29 41L32 53" style="stroke:#0000ff;stroke-linecap:round"/>
<path class="out" d="M2 48L11 34M2 48L16 34M11 34L35 68M16 34L46 63M29 41L46 0M29 41L46 58M32 53L35 68M32 53L46 58M35 68L46 63M46 0L46 58M46 0L63 41M46 58L46 63M46 58L61 53M46 58L63 41M46 63L58 68M46 63L91 21M58 68L61 53M58 68L91 21M61 53L63 41" style="stroke:#ff0000;stroke-linecap:round"/>
<g fill="#333333">
<circle cx="2" cy="29" r="0.5">
<title>
hole:0
</title>
</circle>
<circle cx="9" cy="44" r="0.5">
<title>
hole:1
</title>
</circle>
<circle cx="20" cy="58" r="0.5">
<title>
hole:2
</title>
</circle>
<circle cx="32" cy="61" r="0.5">
<title>
hole:3
</title>
</circle>
<circle cx="33" cy="50" r="0.5">
<title>
hole:4
</title>
</circle>
<circle cx="24" cy="0" r="0.5">
<title>
hole:5
</title>
</circle>
<circle cx="14" cy="0" r="0.5">
<title>
hole:6
</title>
</circle>
<circle cx="4" cy="24" r="0.5">
<title>
hole:7
</title>
</circle>
</g>
<g fill="#999999">
<circle cx="2" cy="48" i="0" r="0.5" tabindex="0">
<title>
v:0
</title>
</circle>
<circle cx="11" cy="34" i="1" r="0.5" tabindex="1">
<title>
v:1
</title>
</circle>
<circle cx="16" cy="34" i="2" r="0.5" tabindex="2">
<title>
v:2
</title>
</circle>
<circle cx="29" cy="41" i="3" r="0.5" tabindex="3">
<title>
v:3
</title>
</circle>
<circle cx="32" cy="53" i="4" r="0.5" tabindex="4">
<title>
v:4
</title>
</circle>
<circle cx="35" cy="68" i="5" r="0.5" tabindex="5">
<title>
v:5
</title>
</circle>
<circle cx="46" cy="0" i="6" r="0.5" tabindex="6">
<title>
v:6
</title>
</circle>
<circle cx="46" cy="58" i="7" r="0.5" tabindex="7">
<title>
v:7
</title>
</circle>
<circle cx="46" cy="63" i="8" r="0.5" tabindex="8">
<title>
v:8
</title>
</circle>
<circle cx="58" cy="68" i="9" r="0.5" tabindex="9">
<title>
v:9
</title>
</circle>
<circle cx="61" cy="53" i="10" r="0.5" tabindex="10">
<title>
v:10
</title>
</circle>
<circle cx="63" cy="41" i="11" r="0.5" tabindex="11">
<title>
v:11
</title>
</circle>
<circle cx="91" cy="21" i="12" r="0.5" tabindex="12">
<title>
v:12
</title>
</circle>
</g>
</svg>