<svg height="500" viewBox="0 0 99 82" width="500" xmlns="http://www.w3.org/2000/svg">
<polygon fill="grey" points="12,57 5,71 20,77 41,82 62,82 84,78 99,71 94,57 77,50 73,29 58,11 45,11 30,29 25,50 "/>
<path d="M28 94L45 93M45 93L44 88M44 88L41 86M41 86L41 90M41 90L31 88M31 88L27 90M27 90L28 94M41 90L45 93M57 88L60 87M60 87L61 90M61 90L68 89M68 89L69 94M69 94L57 94M57 94L57 88M61 90L57 94M44 88L57 88M60 87L68 83M68 83L65 72M65 72L35 68M35 68L35 81M35 81L41 86M35 68L30 70M30 70L35 81M65 72L70 68M70 68L72 73M72 73L68 83M72 73L81 71M81 71L84 67M84 67L85 71M85 71L81 71M85 71L85 82M85 82L89 87M89 87L80 84M80 84L85 82M35 81L22 72M22 72L20 69M20 69L18 72M18 72L22 72M20 69L25 54M25 54L23 45M23 45L32 50M32 50L25 54M35 68L42 55M42 55L50 49M50 49L55 55M55 55L65 72M55 55L57 47M57 47L66 43M66 43L64 34M64 34L74 38M74 38L72 30M72 30L64 34M66 43L74 38M42 55L37 47M37 47L39 34M39 34L44 29M44 29L33 28M33 28L39 34M44 29L39 22M39 22L33 28" stroke="red"/>
</svg>