<svg height="500" viewBox="3 9 98 87" width="500" xmlns="http://www.w3.org/2000/svg">
<path class="hole" d="M12 57L5 71L20 77L41 82L62 82L84 78L99 71L94 57L77 50L73 29L58 11L45 11L30 29L25 50M3 9L101 9L101 96L3 96" style="fill:#00000066;fill-rule:evenodd;stroke:none;"/>
<path class="ok" d="M18 72L20 69M18 72L22 72M20 69L22 72M20 69L25 54M25 54L32 50M30 70L35 68M33 28L39 22M33 28L39 34M33 28L44 29M35 68L42 55M35 68L65 72M37 47L39 34M37 47L42 55M39 22L44 29M39 34L44 29M42 55L50 49M50 49L55 55M55 55L57 47M55 55L65 72M57 47L66 43M64 34L66 43M64 34L72 30M64 34L74 38M65 72L70 68M66 43L74 38M70 68L72 73M72 30L74 38M72 73L81 71M81 71L84 67M81 71L85 71M84 67L85 71" style="fill:none;stroke:#0000ff;stroke-linecap:round"/>
<path class="short" d="" style="fill:none;stroke:#00ff99;stroke-linecap:round"/>
<path class="long" d="" style="fill:none;stroke:#ff0099;stroke-linecap:round"/>
<path class="out" d="M22 72L35 81M23 45L25 54M23 45L32 50M27 90L28 94M27 90L31 88M28 94L45 93M30 70L35 81M31 88L41 90M35 68L35 81M35 81L41 86M41 86L41 90M41 86L44 88M41 90L45 93M44 88L45 93M44 88L57 88M57 88L57 94M57 88L60 87M57 94L61 90M57 94L69 94M60 87L61 90M60 87L68 83M61 90L68 89M65 72L68 83M68 83L72 73M68 89L69 94M80 84L85 82M80 84L89 87M85 71L85 82M85 82L89 87" style="fill:none;stroke:#ff0000;stroke-linecap:round"/>
</svg>