<svg height="500" viewBox="5 9 98 87" width="500" xmlns="http://www.w3.org/2000/svg">
<path class="hole" d="M14 57L7 71L22 77L43 82L64 82L86 78L101 71L96 57L79 50L75 29L60 11L47 11L32 29L27 50M5 9L103 9L103 96L5 96" style="fill:#00000066;fill-rule:evenodd;"/>
<circle cx="101" cy="71" fill="#ffff0066" r="5">
<title>
BreakALeg@78
</title>
</circle>
<circle cx="82" cy="65" fill="#ffff0066" r="5">
<title>
WallHack@10
</title>
</circle>
<circle cx="67" cy="20" fill="#ffff0066" r="5">
<title>
BreakALeg@110
</title>
</circle>
<path class="ok" d="M20 72L22 69M20 72L24 72M22 69L24 72M22 69L27 54M27 54L34 50M32 70L37 68M35 28L41 22M35 28L41 34M35 28L46 29M37 68L44 55M37 68L67 72M39 47L41 34M39 47L44 55M41 22L46 29M41 34L46 29M44 55L52 49M52 49L57 55M57 55L59 47M57 55L67 72M59 47L68 43M66 34L68 43M66 34L74 30M66 34L76 38M67 72L72 68M68 43L76 38M72 68L74 73M74 30L76 38M74 73L83 71M83 71L86 67M83 71L87 71M86 67L87 71" style="stroke:#0000ff;stroke-linecap:round"/>
<path class="out" d="M24 72L37 81M25 45L27 54M25 45L34 50M29 90L30 94M29 90L33 88M30 94L47 93M32 70L37 81M33 88L43 90M37 68L37 81M37 81L43 86M43 86L43 90M43 86L46 88M43 90L47 93M46 88L47 93M46 88L59 88M59 88L59 94M59 88L62 87M59 94L63 90M59 94L71 94M62 87L63 90M62 87L70 83M63 90L70 89M67 72L70 83M70 83L74 73M70 89L71 94M82 84L87 82M82 84L91 87M87 71L87 82M87 82L91 87" style="stroke:#ff0000;stroke-linecap:round"/>
<g fill="#333333">
<circle cx="14" cy="57" r="0.5">
<title>
hole:0
</title>
</circle>
<circle cx="7" cy="71" r="0.5">
<title>
hole:1
</title>
</circle>
<circle cx="22" cy="77" r="0.5">
<title>
hole:2
</title>
</circle>
<circle cx="43" cy="82" r="0.5">
<title>
hole:3
</title>
</circle>
<circle cx="64" cy="82" r="0.5">
<title>
hole:4
</title>
</circle>
<circle cx="86" cy="78" r="0.5">
<title>
hole:5
</title>
</circle>
<circle cx="101" cy="71" r="0.5">
<title>
hole:6
</title>
</circle>
<circle cx="96" cy="57" r="0.5">
<title>
hole:7
</title>
</circle>
<circle cx="79" cy="50" r="0.5">
<title>
hole:8
</title>
</circle>
<circle cx="75" cy="29" r="0.5">
<title>
hole:9
</title>
</circle>
<circle cx="60" cy="11" r="0.5">
<title>
hole:10
</title>
</circle>
<circle cx="47" cy="11" r="0.5">
<title>
hole:11
</title>
</circle>
<circle cx="32" cy="29" r="0.5">
<title>
hole:12
</title>
</circle>
<circle cx="27" cy="50" r="0.5">
<title>
hole:13
</title>
</circle>
</g>
<g fill="#999999">
<circle cx="20" cy="72" i="0" r="0.5" tabindex="0">
<title>
v:0
</title>
</circle>
<circle cx="22" cy="69" i="1" r="0.5" tabindex="1">
<title>
v:1
</title>
</circle>
<circle cx="24" cy="72" i="2" r="0.5" tabindex="2">
<title>
v:2
</title>
</circle>
<circle cx="25" cy="45" i="3" r="0.5" tabindex="3">
<title>
v:3
</title>
</circle>
<circle cx="27" cy="54" i="4" r="0.5" tabindex="4">
<title>
v:4
</title>
</circle>
<circle cx="29" cy="90" i="5" r="0.5" tabindex="5">
<title>
v:5
</title>
</circle>
<circle cx="30" cy="94" i="6" r="0.5" tabindex="6">
<title>
v:6
</title>
</circle>
<circle cx="32" cy="70" i="7" r="0.5" tabindex="7">
<title>
v:7
</title>
</circle>
<circle cx="33" cy="88" i="8" r="0.5" tabindex="8">
<title>
v:8
</title>
</circle>
<circle cx="34" cy="50" i="9" r="0.5" tabindex="9">
<title>
v:9
</title>
</circle>
<circle cx="35" cy="28" i="10" r="0.5" tabindex="10">
<title>
v:10
</title>
</circle>
<circle cx="37" cy="68" i="11" r="0.5" tabindex="11">
<title>
v:11
</title>
</circle>
<circle cx="37" cy="81" i="12" r="0.5" tabindex="12">
<title>
v:12
</title>
</circle>
<circle cx="39" cy="47" i="13" r="0.5" tabindex="13">
<title>
v:13
</title>
</circle>
<circle cx="41" cy="22" i="14" r="0.5" tabindex="14">
<title>
v:14
</title>
</circle>
<circle cx="41" cy="34" i="15" r="0.5" tabindex="15">
<title>
v:15
</title>
</circle>
<circle cx="43" cy="86" i="16" r="0.5" tabindex="16">
<title>
v:16
</title>
</circle>
<circle cx="43" cy="90" i="17" r="0.5" tabindex="17">
<title>
v:17
</title>
</circle>
<circle cx="44" cy="55" i="18" r="0.5" tabindex="18">
<title>
v:18
</title>
</circle>
<circle cx="46" cy="29" i="19" r="0.5" tabindex="19">
<title>
v:19
</title>
</circle>
<circle cx="46" cy="88" i="20" r="0.5" tabindex="20">
<title>
v:20
</title>
</circle>
<circle cx="47" cy="93" i="21" r="0.5" tabindex="21">
<title>
v:21
</title>
</circle>
<circle cx="52" cy="49" i="22" r="0.5" tabindex="22">
<title>
v:22
</title>
</circle>
<circle cx="57" cy="55" i="23" r="0.5" tabindex="23">
<title>
v:23
</title>
</circle>
<circle cx="59" cy="47" i="24" r="0.5" tabindex="24">
<title>
v:24
</title>
</circle>
<circle cx="59" cy="88" i="25" r="0.5" tabindex="25">
<title>
v:25
</title>
</circle>
<circle cx="59" cy="94" i="26" r="0.5" tabindex="26">
<title>
v:26
</title>
</circle>
<circle cx="62" cy="87" i="27" r="0.5" tabindex="27">
<title>
v:27
</title>
</circle>
<circle cx="63" cy="90" i="28" r="0.5" tabindex="28">
<title>
v:28
</title>
</circle>
<circle cx="66" cy="34" i="29" r="0.5" tabindex="29">
<title>
v:29
</title>
</circle>
<circle cx="67" cy="72" i="30" r="0.5" tabindex="30">
<title>
v:30
</title>
</circle>
<circle cx="68" cy="43" i="31" r="0.5" tabindex="31">
<title>
v:31
</title>
</circle>
<circle cx="70" cy="83" i="32" r="0.5" tabindex="32">
<title>
v:32
</title>
</circle>
<circle cx="70" cy="89" i="33" r="0.5" tabindex="33">
<title>
v:33
</title>
</circle>
<circle cx="71" cy="94" i="34" r="0.5" tabindex="34">
<title>
v:34
</title>
</circle>
<circle cx="72" cy="68" i="35" r="0.5" tabindex="35">
<title>
v:35
</title>
</circle>
<circle cx="74" cy="30" i="36" r="0.5" tabindex="36">
<title>
v:36
</title>
</circle>
<circle cx="74" cy="73" i="37" r="0.5" tabindex="37">
<title>
v:37
</title>
</circle>
<circle cx="76" cy="38" i="38" r="0.5" tabindex="38">
<title>
v:38
</title>
</circle>
<circle cx="82" cy="84" i="39" r="0.5" tabindex="39">
<title>
v:39
</title>
</circle>
<circle cx="83" cy="71" i="40" r="0.5" tabindex="40">
<title>
v:40
</title>
</circle>
<circle cx="86" cy="67" i="41" r="0.5" tabindex="41">
<title>
v:41
</title>
</circle>
<circle cx="87" cy="71" i="42" r="0.5" tabindex="42">
<title>
v:42
</title>
</circle>
<circle cx="87" cy="82" i="43" r="0.5" tabindex="43">
<title>
v:43
</title>
</circle>
<circle cx="91" cy="87" i="44" r="0.5" tabindex="44">
<title>
v:44
</title>
</circle>
</g>
</svg>