<svg viewBox="0 0 80 83" width="500" xmlns="http://www.w3.org/2000/svg">
<path d="M0 44L3 75L25 82L50 80L62 62L76 36L79 10L58 0L13 23M0 0L80 0L80 83L0 83" style="fill:#00000066;fill-rule:evenodd;stroke:none;"/>
<path d="M30 43L44 23M30 43L55 45M46 24L45 0M46 24L55 45M45 0L33 20M44 23L55 45M44 23L27 43M55 45L27 43M55 45L31 44M55 45L38 67M33 20L31 44M27 43L38 67M27 43L0 39M31 44L35 64M31 44L38 67M31 44L53 52M35 64L53 52M38 67L53 52M38 67L49 46M0 39L23 42M49 46L23 42" style="fill:none;stroke:#ff0000;stroke-linecap:round"/>
</svg>