<svg height="500" viewBox="-2 -2 146 120" width="500" xmlns="http://www.w3.org/2000/svg">
<path class="hole" d="M0 43L20 63L51 93L102 116L136 96L142 67L41 0M-2 -2L144 -2L144 118L-2 118" style="fill:#00000066;fill-rule:evenodd;stroke:none;"/>
<circle cx="65" cy="48" r="5" style="fill:#ffff0066;stroke:none;"/>
<path class="ok" d="M20 54L25 26M20 54L48 59M20 54L53 31M25 26L53 31M25 26L50 45M48 59L53 31M48 59L24 36M53 31L24 36M53 31L82 38M50 45L82 38M24 36L44 22M22 35L44 22" style="fill:none;stroke:#0000ff;stroke-linecap:round"/>
<path class="out" d="M10 16L24 36M10 16L22 35M10 16L44 22M82 38L73 8M22 35L26 0M44 22L73 8M44 22L26 0M73 8L45 24M0 25L26 0M0 25L38 34M26 0L45 24M26 0L38 34M45 24L23 8M38 34L23 8" style="fill:none;stroke:#ff0000;stroke-linecap:round"/>
</svg>