<svg viewBox="0 0 142 116" width="500" xmlns="http://www.w3.org/2000/svg">
<polygon fill="grey" points="0,43 20,63 51,93 102,116 136,96 142,67 41,0 "/>
<path d="M20 54L25 26M20 54L48 59M20 54L53 31M25 26L53 31M25 26L50 45M48 59L53 31M48 59L24 36M53 31L24 36M53 31L82 38M50 45L82 38M10 16L24 36M10 16L22 35M10 16L44 22M24 36L44 22M82 38L73 8M22 35L44 22M22 35L26 0M44 22L73 8M44 22L26 0M73 8L45 24M0 25L26 0M0 25L38 34M26 0L45 24M26 0L38 34M45 24L23 8M38 34L23 8" style="fill:none;stroke:#ff0000;stroke-linecap:round"/>
</svg>