<svg height="500" viewBox="0 -2 146 120" width="500" xmlns="http://www.w3.org/2000/svg">
<path class="hole" d="M2 43L22 63L53 93L104 116L138 96L144 67L43 0M0 -2L146 -2L146 118L0 118" style="fill:#00000066;fill-rule:evenodd;"/>
<circle cx="67" cy="48" fill="#ffff0066" r="5">
<title>
Globalist@38
</title>
</circle>
<circle cx="44" cy="21" fill="#ffff0066" r="5">
<title>
BreakALeg@44
</title>
</circle>
<circle cx="116" cy="99" fill="#ffff0066" r="5">
<title>
Globalist@116
</title>
</circle>
<path class="ok" d="M22 54L27 26M22 54L50 59M22 54L55 31M27 26L55 31M27 26L52 45M50 59L55 31M50 59L26 36M55 31L26 36M55 31L84 38M52 45L84 38M26 36L46 22M24 35L46 22" style="stroke:#0000ff;stroke-linecap:round"/>
<path class="out" d="M12 16L26 36M12 16L24 35M12 16L46 22M84 38L75 8M24 35L28 0M46 22L75 8M46 22L28 0M75 8L47 24M2 25L28 0M2 25L40 34M28 0L47 24M28 0L40 34M47 24L25 8M40 34L25 8" style="stroke:#ff0000;stroke-linecap:round"/>
<g fill="#333333">
<circle cx="2" cy="43" r="0.5">
<title>
hole:0
</title>
</circle>
<circle cx="22" cy="63" r="0.5">
<title>
hole:1
</title>
</circle>
<circle cx="53" cy="93" r="0.5">
<title>
hole:2
</title>
</circle>
<circle cx="104" cy="116" r="0.5">
<title>
hole:3
</title>
</circle>
<circle cx="138" cy="96" r="0.5">
<title>
hole:4
</title>
</circle>
<circle cx="144" cy="67" r="0.5">
<title>
hole:5
</title>
</circle>
<circle cx="43" cy="0" r="0.5">
<title>
hole:6
</title>
</circle>
</g>
<g fill="#999999">
<circle cx="22" cy="54" i="0" r="0.5" tabindex="0">
<title>
v:0
</title>
</circle>
<circle cx="27" cy="26" i="1" r="0.5" tabindex="1">
<title>
v:1
</title>
</circle>
<circle cx="50" cy="59" i="2" r="0.5" tabindex="2">
<title>
v:2
</title>
</circle>
<circle cx="55" cy="31" i="3" r="0.5" tabindex="3">
<title>
v:3
</title>
</circle>
<circle cx="52" cy="45" i="4" r="0.5" tabindex="4">
<title>
v:4
</title>
</circle>
<circle cx="12" cy="16" i="5" r="0.5" tabindex="5">
<title>
v:5
</title>
</circle>
<circle cx="26" cy="36" i="6" r="0.5" tabindex="6">
<title>
v:6
</title>
</circle>
<circle cx="84" cy="38" i="7" r="0.5" tabindex="7">
<title>
v:7
</title>
</circle>
<circle cx="24" cy="35" i="8" r="0.5" tabindex="8">
<title>
v:8
</title>
</circle>
<circle cx="46" cy="22" i="9" r="0.5" tabindex="9">
<title>
v:9
</title>
</circle>
<circle cx="75" cy="8" i="10" r="0.5" tabindex="10">
<title>
v:10
</title>
</circle>
<circle cx="2" cy="25" i="11" r="0.5" tabindex="11">
<title>
v:11
</title>
</circle>
<circle cx="28" cy="0" i="12" r="0.5" tabindex="12">
<title>
v:12
</title>
</circle>
<circle cx="47" cy="24" i="13" r="0.5" tabindex="13">
<title>
v:13
</title>
</circle>
<circle cx="40" cy="34" i="14" r="0.5" tabindex="14">
<title>
v:14
</title>
</circle>
<circle cx="25" cy="8" i="15" r="0.5" tabindex="15">
<title>
v:15
</title>
</circle>
</g>
</svg>