<svg height="500" viewBox="-2 -2 148 120" width="500" xmlns="http://www.w3.org/2000/svg">
<path class="hole" d="M2 43L22 63L53 93L104 116L138 96L144 67L43 0M-2 -2L146 -2L146 118L-2 118" style="fill:#00000066;fill-rule:evenodd;"/>
<circle cx="67" cy="48" r="5" style="fill:#ffff0066;" title="Globalist"/>
<circle cx="44" cy="21" r="5" style="fill:#ffff0066;" title="BreakALeg"/>
<path class="ok" d="M20 54L25 26M20 54L48 59M20 54L53 31M25 26L53 31M25 26L50 45M48 59L53 31M48 59L24 36M53 31L24 36M53 31L82 38M50 45L82 38M24 36L44 22M22 35L44 22" style="stroke:#0000ff;stroke-linecap:round"/>
<path class="out" d="M10 16L24 36M10 16L22 35M10 16L44 22M82 38L73 8M22 35L26 0M44 22L73 8M44 22L26 0M73 8L45 24M0 25L26 0M0 25L38 34M26 0L45 24M26 0L38 34M45 24L23 8M38 34L23 8" style="stroke:#ff0000;stroke-linecap:round"/>
<g fill="#333333">
<circle cx="2" cy="43" r="0.5" tabindex="0">
<title>
hole:0
</title>
</circle>
<circle cx="22" cy="63" r="0.5" tabindex="1">
<title>
hole:1
</title>
</circle>
<circle cx="53" cy="93" r="0.5" tabindex="2">
<title>
hole:2
</title>
</circle>
<circle cx="104" cy="116" r="0.5" tabindex="3">
<title>
hole:3
</title>
</circle>
<circle cx="138" cy="96" r="0.5" tabindex="4">
<title>
hole:4
</title>
</circle>
<circle cx="144" cy="67" r="0.5" tabindex="5">
<title>
hole:5
</title>
</circle>
<circle cx="43" cy="0" r="0.5" tabindex="6">
<title>
hole:6
</title>
</circle>
</g>
<g fill="#999999">
<circle cx="20" cy="54" r="0.5" tabindex="7">
<title>
v:0
</title>
</circle>
<circle cx="25" cy="26" r="0.5" tabindex="8">
<title>
v:1
</title>
</circle>
<circle cx="48" cy="59" r="0.5" tabindex="9">
<title>
v:2
</title>
</circle>
<circle cx="53" cy="31" r="0.5" tabindex="10">
<title>
v:3
</title>
</circle>
<circle cx="50" cy="45" r="0.5" tabindex="11">
<title>
v:4
</title>
</circle>
<circle cx="10" cy="16" r="0.5" tabindex="12">
<title>
v:5
</title>
</circle>
<circle cx="24" cy="36" r="0.5" tabindex="13">
<title>
v:6
</title>
</circle>
<circle cx="82" cy="38" r="0.5" tabindex="14">
<title>
v:7
</title>
</circle>
<circle cx="22" cy="35" r="0.5" tabindex="15">
<title>
v:8
</title>
</circle>
<circle cx="44" cy="22" r="0.5" tabindex="16">
<title>
v:9
</title>
</circle>
<circle cx="73" cy="8" r="0.5" tabindex="17">
<title>
v:10
</title>
</circle>
<circle cx="0" cy="25" r="0.5" tabindex="18">
<title>
v:11
</title>
</circle>
<circle cx="26" cy="0" r="0.5" tabindex="19">
<title>
v:12
</title>
</circle>
<circle cx="45" cy="24" r="0.5" tabindex="20">
<title>
v:13
</title>
</circle>
<circle cx="38" cy="34" r="0.5" tabindex="21">
<title>
v:14
</title>
</circle>
<circle cx="23" cy="8" r="0.5" tabindex="22">
<title>
v:15
</title>
</circle>
</g>
</svg>