<svg height="500" viewBox="0 -2 64 102" width="500" xmlns="http://www.w3.org/2000/svg">
<path class="hole" d="M2 96L12 98L60 33L40 6L16 0M0 -2L64 -2L64 100L0 100" style="fill:#00000066;fill-rule:evenodd;"/>
<circle cx="41" cy="58" fill="#ffff0066" r="5">
<title>
Globalist@7
</title>
</circle>
<circle cx="23" cy="48" fill="#ffff0066" r="5">
<title>
Globalist@19
</title>
</circle>
<circle cx="26" cy="78" fill="#ffff0066" r="5">
<title>
WallHack@47
</title>
</circle>
<path class="ok" d="M12 90L22 60M22 10L27 20M22 10L32 10M22 30L22 60M22 30L27 20M22 60L32 65M27 20L32 10M27 20L37 20M32 10L37 20M32 10L42 10M37 20L42 10M37 20L42 30" style="stroke:#0000ff;stroke-linecap:round"/>
<path class="out" d="M2 25L2 35M2 25L27 20M2 35L22 30M12 90L22 90M22 10L27 0M22 90L32 65M27 0L32 10M27 0L37 0M32 10L37 0M32 65L42 60M32 65L42 90M37 0L42 10M37 20L62 25M42 30L42 60M42 30L62 35M42 60L52 90M42 90L52 90M62 25L62 35" style="stroke:#ff0000;stroke-linecap:round"/>
<g fill="#333333">
<circle cx="2" cy="96" r="0.5">
<title>
hole:0
</title>
</circle>
<circle cx="12" cy="98" r="0.5">
<title>
hole:1
</title>
</circle>
<circle cx="60" cy="33" r="0.5">
<title>
hole:2
</title>
</circle>
<circle cx="40" cy="6" r="0.5">
<title>
hole:3
</title>
</circle>
<circle cx="16" cy="0" r="0.5">
<title>
hole:4
</title>
</circle>
</g>
<g fill="#999999">
<circle cx="2" cy="25" i="0" r="0.5" tabindex="0">
<title>
v:0
</title>
</circle>
<circle cx="2" cy="35" i="1" r="0.5" tabindex="1">
<title>
v:1
</title>
</circle>
<circle cx="12" cy="90" i="2" r="0.5" tabindex="2">
<title>
v:2
</title>
</circle>
<circle cx="22" cy="10" i="3" r="0.5" tabindex="3">
<title>
v:3
</title>
</circle>
<circle cx="22" cy="30" i="4" r="0.5" tabindex="4">
<title>
v:4
</title>
</circle>
<circle cx="22" cy="60" i="5" r="0.5" tabindex="5">
<title>
v:5
</title>
</circle>
<circle cx="22" cy="90" i="6" r="0.5" tabindex="6">
<title>
v:6
</title>
</circle>
<circle cx="27" cy="0" i="7" r="0.5" tabindex="7">
<title>
v:7
</title>
</circle>
<circle cx="27" cy="20" i="8" r="0.5" tabindex="8">
<title>
v:8
</title>
</circle>
<circle cx="32" cy="10" i="9" r="0.5" tabindex="9">
<title>
v:9
</title>
</circle>
<circle cx="32" cy="65" i="10" r="0.5" tabindex="10">
<title>
v:10
</title>
</circle>
<circle cx="37" cy="0" i="11" r="0.5" tabindex="11">
<title>
v:11
</title>
</circle>
<circle cx="37" cy="20" i="12" r="0.5" tabindex="12">
<title>
v:12
</title>
</circle>
<circle cx="42" cy="10" i="13" r="0.5" tabindex="13">
<title>
v:13
</title>
</circle>
<circle cx="42" cy="30" i="14" r="0.5" tabindex="14">
<title>
v:14
</title>
</circle>
<circle cx="42" cy="60" i="15" r="0.5" tabindex="15">
<title>
v:15
</title>
</circle>
<circle cx="42" cy="90" i="16" r="0.5" tabindex="16">
<title>
v:16
</title>
</circle>
<circle cx="52" cy="90" i="17" r="0.5" tabindex="17">
<title>
v:17
</title>
</circle>
<circle cx="62" cy="25" i="18" r="0.5" tabindex="18">
<title>
v:18
</title>
</circle>
<circle cx="62" cy="35" i="19" r="0.5" tabindex="19">
<title>
v:19
</title>
</circle>
</g>
</svg>