<svg height="500" viewBox="-2 -2 113 126" width="500" xmlns="http://www.w3.org/2000/svg">
<path class="hole" d="M2 30L2 53L4 81L21 122L24 69L41 75L65 72L55 96L49 117L72 110L97 105L103 88L96 72L109 36L87 43L70 33L63 3L57 0M-2 -2L111 -2L111 124L-2 124" style="fill:#00000066;fill-rule:evenodd;"/>
<circle cx="21" cy="122" r="5" style="fill:#ffff0066;" title="Globalist"/>
<circle cx="20" cy="99" r="5" style="fill:#ffff0066;" title="Globalist"/>
<path class="ok" d="M15 68L52 71M15 68L61 4M52 37L52 71M52 37L61 4M52 37L82 54M52 71L82 54" style="stroke:#0000ff;stroke-linecap:round"/>
<path class="out" d="M0 100L15 68M0 100L29 122M29 122L59 105M29 122L94 108M52 71L59 105M59 105L94 108M61 4L96 0M82 54L104 34M82 54L107 73M94 108L107 73M96 0L104 34M104 34L107 73" style="stroke:#ff0000;stroke-linecap:round"/>
<g fill="#333333">
<circle cx="2" cy="30" r="0.5" tabindex="0">
<title>
hole:0
</title>
</circle>
<circle cx="2" cy="53" r="0.5" tabindex="1">
<title>
hole:1
</title>
</circle>
<circle cx="4" cy="81" r="0.5" tabindex="2">
<title>
hole:2
</title>
</circle>
<circle cx="21" cy="122" r="0.5" tabindex="3">
<title>
hole:3
</title>
</circle>
<circle cx="24" cy="69" r="0.5" tabindex="4">
<title>
hole:4
</title>
</circle>
<circle cx="41" cy="75" r="0.5" tabindex="5">
<title>
hole:5
</title>
</circle>
<circle cx="65" cy="72" r="0.5" tabindex="6">
<title>
hole:6
</title>
</circle>
<circle cx="55" cy="96" r="0.5" tabindex="7">
<title>
hole:7
</title>
</circle>
<circle cx="49" cy="117" r="0.5" tabindex="8">
<title>
hole:8
</title>
</circle>
<circle cx="72" cy="110" r="0.5" tabindex="9">
<title>
hole:9
</title>
</circle>
<circle cx="97" cy="105" r="0.5" tabindex="10">
<title>
hole:10
</title>
</circle>
<circle cx="103" cy="88" r="0.5" tabindex="11">
<title>
hole:11
</title>
</circle>
<circle cx="96" cy="72" r="0.5" tabindex="12">
<title>
hole:12
</title>
</circle>
<circle cx="109" cy="36" r="0.5" tabindex="13">
<title>
hole:13
</title>
</circle>
<circle cx="87" cy="43" r="0.5" tabindex="14">
<title>
hole:14
</title>
</circle>
<circle cx="70" cy="33" r="0.5" tabindex="15">
<title>
hole:15
</title>
</circle>
<circle cx="63" cy="3" r="0.5" tabindex="16">
<title>
hole:16
</title>
</circle>
<circle cx="57" cy="0" r="0.5" tabindex="17">
<title>
hole:17
</title>
</circle>
</g>
<g fill="#999999">
<circle cx="0" cy="100" r="0.5" tabindex="18">
<title>
v:0
</title>
</circle>
<circle cx="15" cy="68" r="0.5" tabindex="19">
<title>
v:1
</title>
</circle>
<circle cx="29" cy="122" r="0.5" tabindex="20">
<title>
v:2
</title>
</circle>
<circle cx="52" cy="37" r="0.5" tabindex="21">
<title>
v:3
</title>
</circle>
<circle cx="52" cy="71" r="0.5" tabindex="22">
<title>
v:4
</title>
</circle>
<circle cx="59" cy="105" r="0.5" tabindex="23">
<title>
v:5
</title>
</circle>
<circle cx="61" cy="4" r="0.5" tabindex="24">
<title>
v:6
</title>
</circle>
<circle cx="82" cy="54" r="0.5" tabindex="25">
<title>
v:7
</title>
</circle>
<circle cx="94" cy="108" r="0.5" tabindex="26">
<title>
v:8
</title>
</circle>
<circle cx="96" cy="0" r="0.5" tabindex="27">
<title>
v:9
</title>
</circle>
<circle cx="104" cy="34" r="0.5" tabindex="28">
<title>
v:10
</title>
</circle>
<circle cx="107" cy="73" r="0.5" tabindex="29">
<title>
v:11
</title>
</circle>
</g>
</svg>