<svg height="500" viewBox="0 -2 111 126" width="500" xmlns="http://www.w3.org/2000/svg">
<path class="hole" d="M2 30L2 53L4 81L21 122L24 69L41 75L65 72L55 96L49 117L72 110L97 105L103 88L96 72L109 36L87 43L70 33L63 3L57 0M0 -2L111 -2L111 124L0 124" style="fill:#00000066;fill-rule:evenodd;"/>
<circle cx="21" cy="122" fill="#ffff0066" r="5">
<title>
Globalist@33
</title>
</circle>
<circle cx="20" cy="99" fill="#ffff0066" r="5">
<title>
Globalist@4
</title>
</circle>
<circle cx="80" cy="90" fill="#ffff0066" r="5">
<title>
SuperFlex@14
</title>
</circle>
<path class="ok" d="M17 68L54 71M17 68L63 4M54 37L54 71M54 37L63 4M54 37L84 54M54 71L84 54" style="stroke:#0000ff;stroke-linecap:round"/>
<path class="out" d="M2 100L17 68M2 100L31 122M31 122L61 105M31 122L96 108M54 71L61 105M61 105L96 108M63 4L98 0M84 54L106 34M84 54L109 73M96 108L109 73M98 0L106 34M106 34L109 73" style="stroke:#ff0000;stroke-linecap:round"/>
<g fill="#333333">
<circle cx="2" cy="30" r="0.5">
<title>
hole:0
</title>
</circle>
<circle cx="2" cy="53" r="0.5">
<title>
hole:1
</title>
</circle>
<circle cx="4" cy="81" r="0.5">
<title>
hole:2
</title>
</circle>
<circle cx="21" cy="122" r="0.5">
<title>
hole:3
</title>
</circle>
<circle cx="24" cy="69" r="0.5">
<title>
hole:4
</title>
</circle>
<circle cx="41" cy="75" r="0.5">
<title>
hole:5
</title>
</circle>
<circle cx="65" cy="72" r="0.5">
<title>
hole:6
</title>
</circle>
<circle cx="55" cy="96" r="0.5">
<title>
hole:7
</title>
</circle>
<circle cx="49" cy="117" r="0.5">
<title>
hole:8
</title>
</circle>
<circle cx="72" cy="110" r="0.5">
<title>
hole:9
</title>
</circle>
<circle cx="97" cy="105" r="0.5">
<title>
hole:10
</title>
</circle>
<circle cx="103" cy="88" r="0.5">
<title>
hole:11
</title>
</circle>
<circle cx="96" cy="72" r="0.5">
<title>
hole:12
</title>
</circle>
<circle cx="109" cy="36" r="0.5">
<title>
hole:13
</title>
</circle>
<circle cx="87" cy="43" r="0.5">
<title>
hole:14
</title>
</circle>
<circle cx="70" cy="33" r="0.5">
<title>
hole:15
</title>
</circle>
<circle cx="63" cy="3" r="0.5">
<title>
hole:16
</title>
</circle>
<circle cx="57" cy="0" r="0.5">
<title>
hole:17
</title>
</circle>
</g>
<g fill="#999999">
<circle cx="2" cy="100" i="0" r="0.5" tabindex="0">
<title>
v:0
</title>
</circle>
<circle cx="17" cy="68" i="1" r="0.5" tabindex="1">
<title>
v:1
</title>
</circle>
<circle cx="31" cy="122" i="2" r="0.5" tabindex="2">
<title>
v:2
</title>
</circle>
<circle cx="54" cy="37" i="3" r="0.5" tabindex="3">
<title>
v:3
</title>
</circle>
<circle cx="54" cy="71" i="4" r="0.5" tabindex="4">
<title>
v:4
</title>
</circle>
<circle cx="61" cy="105" i="5" r="0.5" tabindex="5">
<title>
v:5
</title>
</circle>
<circle cx="63" cy="4" i="6" r="0.5" tabindex="6">
<title>
v:6
</title>
</circle>
<circle cx="84" cy="54" i="7" r="0.5" tabindex="7">
<title>
v:7
</title>
</circle>
<circle cx="96" cy="108" i="8" r="0.5" tabindex="8">
<title>
v:8
</title>
</circle>
<circle cx="98" cy="0" i="9" r="0.5" tabindex="9">
<title>
v:9
</title>
</circle>
<circle cx="106" cy="34" i="10" r="0.5" tabindex="10">
<title>
v:10
</title>
</circle>
<circle cx="109" cy="73" i="11" r="0.5" tabindex="11">
<title>
v:11
</title>
</circle>
</g>
</svg>