<svg height="500" viewBox="-2 -2 110 61" width="500" xmlns="http://www.w3.org/2000/svg">
<path class="hole" d="M2 56L14 53L27 57L42 57L60 49L69 57L84 57L106 53L99 41L95 29L106 25L106 0L58 0L43 1L29 0L23 12L13 0L2 4M-2 -2L108 -2L108 59L-2 59" style="fill:#00000066;fill-rule:evenodd;"/>
<circle cx="106" cy="53" r="5" style="fill:#ffff0066;" title="Globalist"/>
<circle cx="77" cy="18" r="5" style="fill:#ffff0066;" title="WallHack"/>
<path class="ok" d="M26 37L22 12M26 37L4 21M22 12L2 20M2 20L24 29M4 21L24 29M24 29L2 19M25 12L2 19M25 12L5 23M2 19L20 34M5 23L20 40" style="stroke:#0000ff;stroke-linecap:round"/>
<path class="out" d="M2 20L5 0M5 0L25 12M5 23L0 46M20 34L0 46M0 46L20 40" style="stroke:#ff0000;stroke-linecap:round"/>
<g fill="#333333">
<circle cx="2" cy="56" r="0.5" tabindex="0">
<title>
hole:0
</title>
</circle>
<circle cx="14" cy="53" r="0.5" tabindex="1">
<title>
hole:1
</title>
</circle>
<circle cx="27" cy="57" r="0.5" tabindex="2">
<title>
hole:2
</title>
</circle>
<circle cx="42" cy="57" r="0.5" tabindex="3">
<title>
hole:3
</title>
</circle>
<circle cx="60" cy="49" r="0.5" tabindex="4">
<title>
hole:4
</title>
</circle>
<circle cx="69" cy="57" r="0.5" tabindex="5">
<title>
hole:5
</title>
</circle>
<circle cx="84" cy="57" r="0.5" tabindex="6">
<title>
hole:6
</title>
</circle>
<circle cx="106" cy="53" r="0.5" tabindex="7">
<title>
hole:7
</title>
</circle>
<circle cx="99" cy="41" r="0.5" tabindex="8">
<title>
hole:8
</title>
</circle>
<circle cx="95" cy="29" r="0.5" tabindex="9">
<title>
hole:9
</title>
</circle>
<circle cx="106" cy="25" r="0.5" tabindex="10">
<title>
hole:10
</title>
</circle>
<circle cx="106" cy="0" r="0.5" tabindex="11">
<title>
hole:11
</title>
</circle>
<circle cx="58" cy="0" r="0.5" tabindex="12">
<title>
hole:12
</title>
</circle>
<circle cx="43" cy="1" r="0.5" tabindex="13">
<title>
hole:13
</title>
</circle>
<circle cx="29" cy="0" r="0.5" tabindex="14">
<title>
hole:14
</title>
</circle>
<circle cx="23" cy="12" r="0.5" tabindex="15">
<title>
hole:15
</title>
</circle>
<circle cx="13" cy="0" r="0.5" tabindex="16">
<title>
hole:16
</title>
</circle>
<circle cx="2" cy="4" r="0.5" tabindex="17">
<title>
hole:17
</title>
</circle>
</g>
<g fill="#999999">
<circle cx="26" cy="37" r="0.5" tabindex="18">
<title>
v:0
</title>
</circle>
<circle cx="22" cy="12" r="0.5" tabindex="19">
<title>
v:1
</title>
</circle>
<circle cx="2" cy="20" r="0.5" tabindex="20">
<title>
v:2
</title>
</circle>
<circle cx="4" cy="21" r="0.5" tabindex="21">
<title>
v:3
</title>
</circle>
<circle cx="5" cy="0" r="0.5" tabindex="22">
<title>
v:4
</title>
</circle>
<circle cx="24" cy="29" r="0.5" tabindex="23">
<title>
v:5
</title>
</circle>
<circle cx="25" cy="12" r="0.5" tabindex="24">
<title>
v:6
</title>
</circle>
<circle cx="2" cy="19" r="0.5" tabindex="25">
<title>
v:7
</title>
</circle>
<circle cx="5" cy="23" r="0.5" tabindex="26">
<title>
v:8
</title>
</circle>
<circle cx="20" cy="34" r="0.5" tabindex="27">
<title>
v:9
</title>
</circle>
<circle cx="0" cy="46" r="0.5" tabindex="28">
<title>
v:10
</title>
</circle>
<circle cx="20" cy="40" r="0.5" tabindex="29">
<title>
v:11
</title>
</circle>
</g>
</svg>