<svg height="500" viewBox="0 -2 92 145" width="500" xmlns="http://www.w3.org/2000/svg">
<path class="hole" d="M2 81L57 130L83 141L90 124L90 20L70 0L50 20L14 63M0 -2L92 -2L92 143L0 143" style="fill:#00000066;fill-rule:evenodd;"/>
<circle cx="90" cy="64" fill="#ffff0066" r="5">
<title>
BreakALeg@3
</title>
</circle>
<circle cx="89" cy="87" fill="#ffff0066" r="5">
<title>
SuperFlex@55
</title>
</circle>
<circle cx="89" cy="42" fill="#ffff0066" r="5">
<title>
WallHack@60
</title>
</circle>
<path class="ok" d="M41 70L18 86" style="stroke:#0000ff;stroke-linecap:round"/>
<path class="out" d="M14 56L30 41M14 56L31 40M30 41L54 35M30 41L7 41M31 40L7 41M31 40L17 20M54 35L30 43M54 35L25 47M7 41L17 20M7 41L30 43M7 41L27 30M17 20L4 0M17 20L16 45M30 43L41 70M25 47L2 63M25 47L41 70M27 30L16 45M13 14L4 0M13 14L16 42M4 0L12 17M16 45L12 17M2 63L18 86M12 17L28 28M16 42L28 28" style="stroke:#ff0000;stroke-linecap:round"/>
<g fill="#333333">
<circle cx="2" cy="81" r="0.5">
<title>
hole:0
</title>
</circle>
<circle cx="57" cy="130" r="0.5">
<title>
hole:1
</title>
</circle>
<circle cx="83" cy="141" r="0.5">
<title>
hole:2
</title>
</circle>
<circle cx="90" cy="124" r="0.5">
<title>
hole:3
</title>
</circle>
<circle cx="90" cy="20" r="0.5">
<title>
hole:4
</title>
</circle>
<circle cx="70" cy="0" r="0.5">
<title>
hole:5
</title>
</circle>
<circle cx="50" cy="20" r="0.5">
<title>
hole:6
</title>
</circle>
<circle cx="14" cy="63" r="0.5">
<title>
hole:7
</title>
</circle>
</g>
<g fill="#999999">
<circle cx="14" cy="56" i="0" r="0.5" tabindex="0">
<title>
v:0
</title>
</circle>
<circle cx="30" cy="41" i="1" r="0.5" tabindex="1">
<title>
v:1
</title>
</circle>
<circle cx="31" cy="40" i="2" r="0.5" tabindex="2">
<title>
v:2
</title>
</circle>
<circle cx="54" cy="35" i="3" r="0.5" tabindex="3">
<title>
v:3
</title>
</circle>
<circle cx="7" cy="41" i="4" r="0.5" tabindex="4">
<title>
v:4
</title>
</circle>
<circle cx="17" cy="20" i="5" r="0.5" tabindex="5">
<title>
v:5
</title>
</circle>
<circle cx="30" cy="43" i="6" r="0.5" tabindex="6">
<title>
v:6
</title>
</circle>
<circle cx="25" cy="47" i="7" r="0.5" tabindex="7">
<title>
v:7
</title>
</circle>
<circle cx="27" cy="30" i="8" r="0.5" tabindex="8">
<title>
v:8
</title>
</circle>
<circle cx="13" cy="14" i="9" r="0.5" tabindex="9">
<title>
v:9
</title>
</circle>
<circle cx="4" cy="0" i="10" r="0.5" tabindex="10">
<title>
v:10
</title>
</circle>
<circle cx="16" cy="45" i="11" r="0.5" tabindex="11">
<title>
v:11
</title>
</circle>
<circle cx="2" cy="63" i="12" r="0.5" tabindex="12">
<title>
v:12
</title>
</circle>
<circle cx="41" cy="70" i="13" r="0.5" tabindex="13">
<title>
v:13
</title>
</circle>
<circle cx="12" cy="17" i="14" r="0.5" tabindex="14">
<title>
v:14
</title>
</circle>
<circle cx="16" cy="42" i="15" r="0.5" tabindex="15">
<title>
v:15
</title>
</circle>
<circle cx="18" cy="86" i="16" r="0.5" tabindex="16">
<title>
v:16
</title>
</circle>
<circle cx="28" cy="28" i="17" r="0.5" tabindex="17">
<title>
v:17
</title>
</circle>
</g>
</svg>