<svg height="500" viewBox="-2 -2 92 145" width="500" xmlns="http://www.w3.org/2000/svg">
<path class="hole" d="M0 81L55 130L81 141L88 124L88 20L68 0L48 20L12 63M-2 -2L90 -2L90 143L-2 143" style="fill:#00000066;fill-rule:evenodd;stroke:none;"/>
<path class="ok" d="M39 70L16 86" style="fill:none;stroke:#0000ff;stroke-linecap:round"/>
<path class="short" d="" style="fill:none;stroke:#00ff99;stroke-linecap:round"/>
<path class="long" d="" style="fill:none;stroke:#ff0099;stroke-linecap:round"/>
<path class="out" d="M12 56L28 41M12 56L29 40M28 41L52 35M28 41L5 41M29 40L5 41M29 40L15 20M52 35L28 43M52 35L23 47M5 41L15 20M5 41L28 43M5 41L25 30M15 20L2 0M15 20L14 45M28 43L39 70M23 47L0 63M23 47L39 70M25 30L14 45M11 14L2 0M11 14L14 42M2 0L10 17M14 45L10 17M0 63L16 86M10 17L26 28M14 42L26 28" style="fill:none;stroke:#ff0000;stroke-linecap:round"/>
</svg>