<svg height="500" viewBox="0 0 189 189" width="500" xmlns="http://www.w3.org/2000/svg">
<polygon fill="grey" points="189,121 96,96 189,71 164,28 121,3 71,3 28,28 3,71 3,121 28,164 71,189 121,189 164,164 "/>
<path d="M36 141L36 156M36 156L41 156M41 156L56 141M56 141L36 141M36 141L36 86M36 86L51 56M51 56L96 36M96 36L141 56M141 56L156 86M156 86L156 141M156 141L136 141M136 141L151 156M151 156L156 156M156 156L156 141M136 141L121 156M121 156L106 156M106 156L106 141M106 141L136 141M56 141L86 141M86 141L86 156M86 156L71 156M71 156L56 141M86 141L106 141M71 81L71 96M71 96L86 96M86 96L86 81M86 81L71 81M106 81L106 96M106 96L121 96M121 96L121 81M121 81L106 81M51 56L71 81M71 81L36 86M141 56L121 81M121 81L156 86M46 131L56 116M56 116L66 116M66 116L71 131M71 131L86 131M86 131L91 116M91 116L101 116M101 116L106 131M106 131L121 131M121 131L126 116M126 116L136 116M136 116L146 131M86 96L91 116M106 96L101 116" stroke="red"/>
</svg>