<svg height="500" viewBox="3 1 190 190" width="500" xmlns="http://www.w3.org/2000/svg">
<path class="hole" d="M191 121L98 96L191 71L166 28L123 3L73 3L30 28L5 71L5 121L30 164L73 189L123 189L166 164M3 1L193 1L193 191L3 191" style="fill:#00000066;fill-rule:evenodd;"/>
<circle cx="185" cy="61" fill="#ffff0066" r="5">
<title>
Globalist@16
</title>
</circle>
<circle cx="149" cy="78" fill="#ffff0066" r="5">
<title>
SuperFlex@26
</title>
</circle>
<circle cx="113" cy="153" fill="#ffff0066" r="5">
<title>
SuperFlex@50
</title>
</circle>
<path class="ok" d="M38 86L38 141M38 86L53 56M38 86L73 81M38 141L38 156M38 141L58 141M38 156L43 156M43 156L58 141M48 131L58 116M53 56L73 81M53 56L98 36M58 116L68 116M58 141L73 156M58 141L88 141M68 116L73 131M73 81L73 96M73 81L88 81M73 96L88 96M73 131L88 131M73 156L88 156M88 81L88 96M88 96L93 116M88 131L93 116M88 141L88 156M88 141L108 141M93 116L103 116M98 36L143 56M103 116L108 131M108 81L123 81M108 131L123 131M108 141L108 156M108 141L138 141M108 156L123 156M123 81L143 56M123 131L128 116M123 156L138 141M128 116L138 116M138 116L148 131M138 141L153 156M138 141L158 141M153 156L158 156M158 141L158 156" style="stroke:#0000ff;stroke-linecap:round"/>
<path class="out" d="M103 116L108 96M108 81L108 96M108 96L123 96M123 81L123 96M123 81L158 86M143 56L158 86M158 86L158 141" style="stroke:#ff0000;stroke-linecap:round"/>
<g fill="#333333">
<circle cx="191" cy="121" r="0.5">
<title>
hole:0
</title>
</circle>
<circle cx="98" cy="96" r="0.5">
<title>
hole:1
</title>
</circle>
<circle cx="191" cy="71" r="0.5">
<title>
hole:2
</title>
</circle>
<circle cx="166" cy="28" r="0.5">
<title>
hole:3
</title>
</circle>
<circle cx="123" cy="3" r="0.5">
<title>
hole:4
</title>
</circle>
<circle cx="73" cy="3" r="0.5">
<title>
hole:5
</title>
</circle>
<circle cx="30" cy="28" r="0.5">
<title>
hole:6
</title>
</circle>
<circle cx="5" cy="71" r="0.5">
<title>
hole:7
</title>
</circle>
<circle cx="5" cy="121" r="0.5">
<title>
hole:8
</title>
</circle>
<circle cx="30" cy="164" r="0.5">
<title>
hole:9
</title>
</circle>
<circle cx="73" cy="189" r="0.5">
<title>
hole:10
</title>
</circle>
<circle cx="123" cy="189" r="0.5">
<title>
hole:11
</title>
</circle>
<circle cx="166" cy="164" r="0.5">
<title>
hole:12
</title>
</circle>
</g>
<g fill="#999999">
<circle cx="38" cy="86" i="0" r="0.5" tabindex="0">
<title>
v:0
</title>
</circle>
<circle cx="38" cy="141" i="1" r="0.5" tabindex="1">
<title>
v:1
</title>
</circle>
<circle cx="38" cy="156" i="2" r="0.5" tabindex="2">
<title>
v:2
</title>
</circle>
<circle cx="43" cy="156" i="3" r="0.5" tabindex="3">
<title>
v:3
</title>
</circle>
<circle cx="48" cy="131" i="4" r="0.5" tabindex="4">
<title>
v:4
</title>
</circle>
<circle cx="53" cy="56" i="5" r="0.5" tabindex="5">
<title>
v:5
</title>
</circle>
<circle cx="58" cy="116" i="6" r="0.5" tabindex="6">
<title>
v:6
</title>
</circle>
<circle cx="58" cy="141" i="7" r="0.5" tabindex="7">
<title>
v:7
</title>
</circle>
<circle cx="68" cy="116" i="8" r="0.5" tabindex="8">
<title>
v:8
</title>
</circle>
<circle cx="73" cy="81" i="9" r="0.5" tabindex="9">
<title>
v:9
</title>
</circle>
<circle cx="73" cy="96" i="10" r="0.5" tabindex="10">
<title>
v:10
</title>
</circle>
<circle cx="73" cy="131" i="11" r="0.5" tabindex="11">
<title>
v:11
</title>
</circle>
<circle cx="73" cy="156" i="12" r="0.5" tabindex="12">
<title>
v:12
</title>
</circle>
<circle cx="88" cy="81" i="13" r="0.5" tabindex="13">
<title>
v:13
</title>
</circle>
<circle cx="88" cy="96" i="14" r="0.5" tabindex="14">
<title>
v:14
</title>
</circle>
<circle cx="88" cy="131" i="15" r="0.5" tabindex="15">
<title>
v:15
</title>
</circle>
<circle cx="88" cy="141" i="16" r="0.5" tabindex="16">
<title>
v:16
</title>
</circle>
<circle cx="88" cy="156" i="17" r="0.5" tabindex="17">
<title>
v:17
</title>
</circle>
<circle cx="93" cy="116" i="18" r="0.5" tabindex="18">
<title>
v:18
</title>
</circle>
<circle cx="98" cy="36" i="19" r="0.5" tabindex="19">
<title>
v:19
</title>
</circle>
<circle cx="103" cy="116" i="20" r="0.5" tabindex="20">
<title>
v:20
</title>
</circle>
<circle cx="108" cy="81" i="21" r="0.5" tabindex="21">
<title>
v:21
</title>
</circle>
<circle cx="108" cy="96" i="22" r="0.5" tabindex="22">
<title>
v:22
</title>
</circle>
<circle cx="108" cy="131" i="23" r="0.5" tabindex="23">
<title>
v:23
</title>
</circle>
<circle cx="108" cy="141" i="24" r="0.5" tabindex="24">
<title>
v:24
</title>
</circle>
<circle cx="108" cy="156" i="25" r="0.5" tabindex="25">
<title>
v:25
</title>
</circle>
<circle cx="123" cy="81" i="26" r="0.5" tabindex="26">
<title>
v:26
</title>
</circle>
<circle cx="123" cy="96" i="27" r="0.5" tabindex="27">
<title>
v:27
</title>
</circle>
<circle cx="123" cy="131" i="28" r="0.5" tabindex="28">
<title>
v:28
</title>
</circle>
<circle cx="123" cy="156" i="29" r="0.5" tabindex="29">
<title>
v:29
</title>
</circle>
<circle cx="128" cy="116" i="30" r="0.5" tabindex="30">
<title>
v:30
</title>
</circle>
<circle cx="138" cy="116" i="31" r="0.5" tabindex="31">
<title>
v:31
</title>
</circle>
<circle cx="138" cy="141" i="32" r="0.5" tabindex="32">
<title>
v:32
</title>
</circle>
<circle cx="143" cy="56" i="33" r="0.5" tabindex="33">
<title>
v:33
</title>
</circle>
<circle cx="148" cy="131" i="34" r="0.5" tabindex="34">
<title>
v:34
</title>
</circle>
<circle cx="153" cy="156" i="35" r="0.5" tabindex="35">
<title>
v:35
</title>
</circle>
<circle cx="158" cy="86" i="36" r="0.5" tabindex="36">
<title>
v:36
</title>
</circle>
<circle cx="158" cy="141" i="37" r="0.5" tabindex="37">
<title>
v:37
</title>
</circle>
<circle cx="158" cy="156" i="38" r="0.5" tabindex="38">
<title>
v:38
</title>
</circle>
</g>
</svg>