<svg height="500" viewBox="3 1 190 190" width="500" xmlns="http://www.w3.org/2000/svg">
<path class="hole" d="M191 121L98 96L191 71L166 28L123 3L73 3L30 28L5 71L5 121L30 164L73 189L123 189L166 164M3 1L193 1L193 191L3 191" style="fill:#00000066;fill-rule:evenodd;"/>
<circle cx="185" cy="61" r="5" style="fill:#ffff0066;" title="Globalist"/>
<path class="ok" d="M36 86L36 141M36 86L51 56M36 86L71 81M36 141L36 156M36 141L56 141M36 156L41 156M41 156L56 141M46 131L56 116M51 56L71 81M51 56L96 36M56 116L66 116M56 141L71 156M56 141L86 141M66 116L71 131M71 81L71 96M71 81L86 81M71 96L86 96M71 131L86 131M71 156L86 156M86 81L86 96M86 96L91 116M86 131L91 116M86 141L86 156M86 141L106 141M91 116L101 116M96 36L141 56M101 116L106 131M106 81L121 81M106 131L121 131M106 141L106 156M106 141L136 141M106 156L121 156M121 81L141 56M121 131L126 116M121 156L136 141M126 116L136 116M136 116L146 131M136 141L151 156M136 141L156 141M151 156L156 156M156 141L156 156" style="stroke:#0000ff;stroke-linecap:round"/>
<path class="out" d="M101 116L106 96M106 81L106 96M106 96L121 96M121 81L121 96M121 81L156 86M141 56L156 86M156 86L156 141" style="stroke:#ff0000;stroke-linecap:round"/>
<g fill="#333333">
<circle cx="191" cy="121" r="0.5" tabindex="0">
<title>
hole:0
</title>
</circle>
<circle cx="98" cy="96" r="0.5" tabindex="1">
<title>
hole:1
</title>
</circle>
<circle cx="191" cy="71" r="0.5" tabindex="2">
<title>
hole:2
</title>
</circle>
<circle cx="166" cy="28" r="0.5" tabindex="3">
<title>
hole:3
</title>
</circle>
<circle cx="123" cy="3" r="0.5" tabindex="4">
<title>
hole:4
</title>
</circle>
<circle cx="73" cy="3" r="0.5" tabindex="5">
<title>
hole:5
</title>
</circle>
<circle cx="30" cy="28" r="0.5" tabindex="6">
<title>
hole:6
</title>
</circle>
<circle cx="5" cy="71" r="0.5" tabindex="7">
<title>
hole:7
</title>
</circle>
<circle cx="5" cy="121" r="0.5" tabindex="8">
<title>
hole:8
</title>
</circle>
<circle cx="30" cy="164" r="0.5" tabindex="9">
<title>
hole:9
</title>
</circle>
<circle cx="73" cy="189" r="0.5" tabindex="10">
<title>
hole:10
</title>
</circle>
<circle cx="123" cy="189" r="0.5" tabindex="11">
<title>
hole:11
</title>
</circle>
<circle cx="166" cy="164" r="0.5" tabindex="12">
<title>
hole:12
</title>
</circle>
</g>
<g fill="#999999">
<circle cx="36" cy="86" r="0.5" tabindex="13">
<title>
v:0
</title>
</circle>
<circle cx="36" cy="141" r="0.5" tabindex="14">
<title>
v:1
</title>
</circle>
<circle cx="36" cy="156" r="0.5" tabindex="15">
<title>
v:2
</title>
</circle>
<circle cx="41" cy="156" r="0.5" tabindex="16">
<title>
v:3
</title>
</circle>
<circle cx="46" cy="131" r="0.5" tabindex="17">
<title>
v:4
</title>
</circle>
<circle cx="51" cy="56" r="0.5" tabindex="18">
<title>
v:5
</title>
</circle>
<circle cx="56" cy="116" r="0.5" tabindex="19">
<title>
v:6
</title>
</circle>
<circle cx="56" cy="141" r="0.5" tabindex="20">
<title>
v:7
</title>
</circle>
<circle cx="66" cy="116" r="0.5" tabindex="21">
<title>
v:8
</title>
</circle>
<circle cx="71" cy="81" r="0.5" tabindex="22">
<title>
v:9
</title>
</circle>
<circle cx="71" cy="96" r="0.5" tabindex="23">
<title>
v:10
</title>
</circle>
<circle cx="71" cy="131" r="0.5" tabindex="24">
<title>
v:11
</title>
</circle>
<circle cx="71" cy="156" r="0.5" tabindex="25">
<title>
v:12
</title>
</circle>
<circle cx="86" cy="81" r="0.5" tabindex="26">
<title>
v:13
</title>
</circle>
<circle cx="86" cy="96" r="0.5" tabindex="27">
<title>
v:14
</title>
</circle>
<circle cx="86" cy="131" r="0.5" tabindex="28">
<title>
v:15
</title>
</circle>
<circle cx="86" cy="141" r="0.5" tabindex="29">
<title>
v:16
</title>
</circle>
<circle cx="86" cy="156" r="0.5" tabindex="30">
<title>
v:17
</title>
</circle>
<circle cx="91" cy="116" r="0.5" tabindex="31">
<title>
v:18
</title>
</circle>
<circle cx="96" cy="36" r="0.5" tabindex="32">
<title>
v:19
</title>
</circle>
<circle cx="101" cy="116" r="0.5" tabindex="33">
<title>
v:20
</title>
</circle>
<circle cx="106" cy="81" r="0.5" tabindex="34">
<title>
v:21
</title>
</circle>
<circle cx="106" cy="96" r="0.5" tabindex="35">
<title>
v:22
</title>
</circle>
<circle cx="106" cy="131" r="0.5" tabindex="36">
<title>
v:23
</title>
</circle>
<circle cx="106" cy="141" r="0.5" tabindex="37">
<title>
v:24
</title>
</circle>
<circle cx="106" cy="156" r="0.5" tabindex="38">
<title>
v:25
</title>
</circle>
<circle cx="121" cy="81" r="0.5" tabindex="39">
<title>
v:26
</title>
</circle>
<circle cx="121" cy="96" r="0.5" tabindex="40">
<title>
v:27
</title>
</circle>
<circle cx="121" cy="131" r="0.5" tabindex="41">
<title>
v:28
</title>
</circle>
<circle cx="121" cy="156" r="0.5" tabindex="42">
<title>
v:29
</title>
</circle>
<circle cx="126" cy="116" r="0.5" tabindex="43">
<title>
v:30
</title>
</circle>
<circle cx="136" cy="116" r="0.5" tabindex="44">
<title>
v:31
</title>
</circle>
<circle cx="136" cy="141" r="0.5" tabindex="45">
<title>
v:32
</title>
</circle>
<circle cx="141" cy="56" r="0.5" tabindex="46">
<title>
v:33
</title>
</circle>
<circle cx="146" cy="131" r="0.5" tabindex="47">
<title>
v:34
</title>
</circle>
<circle cx="151" cy="156" r="0.5" tabindex="48">
<title>
v:35
</title>
</circle>
<circle cx="156" cy="86" r="0.5" tabindex="49">
<title>
v:36
</title>
</circle>
<circle cx="156" cy="141" r="0.5" tabindex="50">
<title>
v:37
</title>
</circle>
<circle cx="156" cy="156" r="0.5" tabindex="51">
<title>
v:38
</title>
</circle>
</g>
</svg>