<svg viewBox="0 0 90 95" width="500" xmlns="http://www.w3.org/2000/svg">
<polygon fill="grey" points="0,9 5,31 0,45 0,73 21,64 39,58 34,77 58,82 78,95 90,74 86,55 66,66 72,43 90,38 80,27 59,0 40,1 47,21 2,0 "/>
<path d="M0 60L15 45M10 90L20 65M15 25L25 30M15 45L35 50M20 0L25 15M20 65L40 55M25 15L35 15M25 30L35 40M30 25L35 15M30 25L40 35M35 15L45 10M35 40L35 50M35 40L40 35M35 50L40 55M35 65L35 85M35 65L40 60M35 85L45 95M40 35L50 35M40 55L40 60M40 60L50 60M45 10L55 15M45 95L55 85M50 35L55 40M50 35L60 25M50 55L50 60M50 55L55 50M50 55L70 65M50 60L55 65M55 15L60 25M55 15L65 15M55 40L55 50M55 40L65 30M55 50L75 45M55 65L55 85M65 15L70 0M65 30L75 25M70 65L80 90M75 45L90 60" style="fill:none;stroke:#ff0000;stroke-linecap:round"/>
</svg>