<svg height="500" viewBox="-2 -2 94 99" width="500" xmlns="http://www.w3.org/2000/svg">
<path class="hole" d="M0 9L5 31L0 45L0 73L21 64L39 58L34 77L58 82L78 95L90 74L86 55L66 66L72 43L90 38L80 27L59 0L40 1L47 21L2 0M-2 -2L92 -2L92 97L-2 97" style="fill:#00000066;fill-rule:evenodd;stroke:none;"/>
<circle cx="78" cy="95" r="5" style="fill:#ffff0066;stroke:none;"/>
<path class="ok" d="M0 60L15 45M15 25L25 30M15 45L35 50M25 30L35 40M30 25L40 35M35 40L35 50M35 40L40 35M35 50L40 55M40 35L50 35M40 55L40 60M40 60L50 60M45 10L55 15M50 35L55 40M50 35L60 25M50 55L50 60M50 55L55 50M50 60L55 65M55 15L60 25M55 15L65 15M55 40L55 50M55 40L65 30M65 30L75 25M70 65L80 90" style="fill:none;stroke:#0000ff;stroke-linecap:round"/>
<path class="out" d="M10 90L20 65M20 0L25 15M20 65L40 55M25 15L35 15M30 25L35 15M35 15L45 10M35 65L35 85M35 65L40 60M35 85L45 95M45 95L55 85M50 55L70 65M55 50L75 45M55 65L55 85M65 15L70 0M75 45L90 60" style="fill:none;stroke:#ff0000;stroke-linecap:round"/>
</svg>