<svg height="500" viewBox="-2 -2 96 99" width="500" xmlns="http://www.w3.org/2000/svg">
<path class="hole" d="M2 9L7 31L2 45L2 73L23 64L41 58L36 77L60 82L80 95L92 74L88 55L68 66L74 43L92 38L82 27L61 0L42 1L49 21L4 0M-2 -2L94 -2L94 97L-2 97" style="fill:#00000066;fill-rule:evenodd;"/>
<circle cx="80" cy="95" r="5" style="fill:#ffff0066;" title="Globalist"/>
<circle cx="68" cy="18" r="5" style="fill:#ffff0066;" title="Globalist"/>
<path class="ok" d="M15 25L25 30M15 45L35 50M20 65L40 55M25 15L35 15M25 30L35 40M30 25L35 15M30 25L40 35M35 40L35 50M35 40L40 35M35 50L40 55M40 35L50 35M50 35L55 40M50 35L60 25M50 55L50 60M50 55L55 50M50 60L55 65M55 15L60 25M55 15L65 15M55 40L55 50M55 40L65 30M65 30L75 25M70 65L80 90" style="stroke:#0000ff;stroke-linecap:round"/>
<path class="out" d="M0 60L15 45M10 90L20 65M20 0L25 15M35 15L45 10M35 65L35 85M35 65L40 60M35 85L45 95M40 55L40 60M40 60L50 60M45 10L55 15M45 95L55 85M50 55L70 65M55 50L75 45M55 65L55 85M65 15L70 0M75 45L90 60" style="stroke:#ff0000;stroke-linecap:round"/>
<g fill="#333333">
<circle cx="2" cy="9" r="0.5" tabindex="0">
<title>
hole:0
</title>
</circle>
<circle cx="7" cy="31" r="0.5" tabindex="1">
<title>
hole:1
</title>
</circle>
<circle cx="2" cy="45" r="0.5" tabindex="2">
<title>
hole:2
</title>
</circle>
<circle cx="2" cy="73" r="0.5" tabindex="3">
<title>
hole:3
</title>
</circle>
<circle cx="23" cy="64" r="0.5" tabindex="4">
<title>
hole:4
</title>
</circle>
<circle cx="41" cy="58" r="0.5" tabindex="5">
<title>
hole:5
</title>
</circle>
<circle cx="36" cy="77" r="0.5" tabindex="6">
<title>
hole:6
</title>
</circle>
<circle cx="60" cy="82" r="0.5" tabindex="7">
<title>
hole:7
</title>
</circle>
<circle cx="80" cy="95" r="0.5" tabindex="8">
<title>
hole:8
</title>
</circle>
<circle cx="92" cy="74" r="0.5" tabindex="9">
<title>
hole:9
</title>
</circle>
<circle cx="88" cy="55" r="0.5" tabindex="10">
<title>
hole:10
</title>
</circle>
<circle cx="68" cy="66" r="0.5" tabindex="11">
<title>
hole:11
</title>
</circle>
<circle cx="74" cy="43" r="0.5" tabindex="12">
<title>
hole:12
</title>
</circle>
<circle cx="92" cy="38" r="0.5" tabindex="13">
<title>
hole:13
</title>
</circle>
<circle cx="82" cy="27" r="0.5" tabindex="14">
<title>
hole:14
</title>
</circle>
<circle cx="61" cy="0" r="0.5" tabindex="15">
<title>
hole:15
</title>
</circle>
<circle cx="42" cy="1" r="0.5" tabindex="16">
<title>
hole:16
</title>
</circle>
<circle cx="49" cy="21" r="0.5" tabindex="17">
<title>
hole:17
</title>
</circle>
<circle cx="4" cy="0" r="0.5" tabindex="18">
<title>
hole:18
</title>
</circle>
</g>
<g fill="#999999">
<circle cx="0" cy="60" r="0.5" tabindex="19">
<title>
v:0
</title>
</circle>
<circle cx="10" cy="90" r="0.5" tabindex="20">
<title>
v:1
</title>
</circle>
<circle cx="15" cy="25" r="0.5" tabindex="21">
<title>
v:2
</title>
</circle>
<circle cx="15" cy="45" r="0.5" tabindex="22">
<title>
v:3
</title>
</circle>
<circle cx="20" cy="0" r="0.5" tabindex="23">
<title>
v:4
</title>
</circle>
<circle cx="20" cy="65" r="0.5" tabindex="24">
<title>
v:5
</title>
</circle>
<circle cx="25" cy="15" r="0.5" tabindex="25">
<title>
v:6
</title>
</circle>
<circle cx="25" cy="30" r="0.5" tabindex="26">
<title>
v:7
</title>
</circle>
<circle cx="30" cy="25" r="0.5" tabindex="27">
<title>
v:8
</title>
</circle>
<circle cx="35" cy="15" r="0.5" tabindex="28">
<title>
v:9
</title>
</circle>
<circle cx="35" cy="40" r="0.5" tabindex="29">
<title>
v:10
</title>
</circle>
<circle cx="35" cy="50" r="0.5" tabindex="30">
<title>
v:11
</title>
</circle>
<circle cx="35" cy="65" r="0.5" tabindex="31">
<title>
v:12
</title>
</circle>
<circle cx="35" cy="85" r="0.5" tabindex="32">
<title>
v:13
</title>
</circle>
<circle cx="40" cy="35" r="0.5" tabindex="33">
<title>
v:14
</title>
</circle>
<circle cx="40" cy="55" r="0.5" tabindex="34">
<title>
v:15
</title>
</circle>
<circle cx="40" cy="60" r="0.5" tabindex="35">
<title>
v:16
</title>
</circle>
<circle cx="45" cy="10" r="0.5" tabindex="36">
<title>
v:17
</title>
</circle>
<circle cx="45" cy="95" r="0.5" tabindex="37">
<title>
v:18
</title>
</circle>
<circle cx="50" cy="35" r="0.5" tabindex="38">
<title>
v:19
</title>
</circle>
<circle cx="50" cy="55" r="0.5" tabindex="39">
<title>
v:20
</title>
</circle>
<circle cx="50" cy="60" r="0.5" tabindex="40">
<title>
v:21
</title>
</circle>
<circle cx="55" cy="15" r="0.5" tabindex="41">
<title>
v:22
</title>
</circle>
<circle cx="55" cy="40" r="0.5" tabindex="42">
<title>
v:23
</title>
</circle>
<circle cx="55" cy="50" r="0.5" tabindex="43">
<title>
v:24
</title>
</circle>
<circle cx="55" cy="65" r="0.5" tabindex="44">
<title>
v:25
</title>
</circle>
<circle cx="55" cy="85" r="0.5" tabindex="45">
<title>
v:26
</title>
</circle>
<circle cx="60" cy="25" r="0.5" tabindex="46">
<title>
v:27
</title>
</circle>
<circle cx="65" cy="15" r="0.5" tabindex="47">
<title>
v:28
</title>
</circle>
<circle cx="65" cy="30" r="0.5" tabindex="48">
<title>
v:29
</title>
</circle>
<circle cx="70" cy="0" r="0.5" tabindex="49">
<title>
v:30
</title>
</circle>
<circle cx="70" cy="65" r="0.5" tabindex="50">
<title>
v:31
</title>
</circle>
<circle cx="75" cy="25" r="0.5" tabindex="51">
<title>
v:32
</title>
</circle>
<circle cx="75" cy="45" r="0.5" tabindex="52">
<title>
v:33
</title>
</circle>
<circle cx="80" cy="90" r="0.5" tabindex="53">
<title>
v:34
</title>
</circle>
<circle cx="90" cy="60" r="0.5" tabindex="54">
<title>
v:35
</title>
</circle>
</g>
</svg>