<svg height="500" viewBox="0 -2 94 99" width="500" xmlns="http://www.w3.org/2000/svg">
<path class="hole" d="M2 9L7 31L2 45L2 73L23 64L41 58L36 77L60 82L80 95L92 74L88 55L68 66L74 43L92 38L82 27L61 0L42 1L49 21L4 0M0 -2L94 -2L94 97L0 97" style="fill:#00000066;fill-rule:evenodd;"/>
<circle cx="80" cy="95" fill="#ffff0066" r="5">
<title>
Globalist@80
</title>
</circle>
<circle cx="68" cy="18" fill="#ffff0066" r="5">
<title>
Globalist@41
</title>
</circle>
<circle cx="77" cy="78" fill="#ffff0066" r="5">
<title>
Globalist@79
</title>
</circle>
<path class="ok" d="M2 60L17 45M17 25L27 30M17 45L37 50M27 30L37 40M32 25L42 35M37 40L37 50M37 40L42 35M37 50L42 55M42 35L52 35M42 55L42 60M42 60L52 60M47 10L57 15M52 35L57 40M52 35L62 25M52 55L52 60M52 55L57 50M52 60L57 65M57 15L62 25M57 15L67 15M57 40L57 50M57 40L67 30M67 30L77 25M72 65L82 90" style="stroke:#0000ff;stroke-linecap:round"/>
<path class="out" d="M12 90L22 65M22 0L27 15M22 65L42 55M27 15L37 15M32 25L37 15M37 15L47 10M37 65L37 85M37 65L42 60M37 85L47 95M47 95L57 85M52 55L72 65M57 50L77 45M57 65L57 85M67 15L72 0M77 45L92 60" style="stroke:#ff0000;stroke-linecap:round"/>
<g fill="#333333">
<circle cx="2" cy="9" r="0.5">
<title>
hole:0
</title>
</circle>
<circle cx="7" cy="31" r="0.5">
<title>
hole:1
</title>
</circle>
<circle cx="2" cy="45" r="0.5">
<title>
hole:2
</title>
</circle>
<circle cx="2" cy="73" r="0.5">
<title>
hole:3
</title>
</circle>
<circle cx="23" cy="64" r="0.5">
<title>
hole:4
</title>
</circle>
<circle cx="41" cy="58" r="0.5">
<title>
hole:5
</title>
</circle>
<circle cx="36" cy="77" r="0.5">
<title>
hole:6
</title>
</circle>
<circle cx="60" cy="82" r="0.5">
<title>
hole:7
</title>
</circle>
<circle cx="80" cy="95" r="0.5">
<title>
hole:8
</title>
</circle>
<circle cx="92" cy="74" r="0.5">
<title>
hole:9
</title>
</circle>
<circle cx="88" cy="55" r="0.5">
<title>
hole:10
</title>
</circle>
<circle cx="68" cy="66" r="0.5">
<title>
hole:11
</title>
</circle>
<circle cx="74" cy="43" r="0.5">
<title>
hole:12
</title>
</circle>
<circle cx="92" cy="38" r="0.5">
<title>
hole:13
</title>
</circle>
<circle cx="82" cy="27" r="0.5">
<title>
hole:14
</title>
</circle>
<circle cx="61" cy="0" r="0.5">
<title>
hole:15
</title>
</circle>
<circle cx="42" cy="1" r="0.5">
<title>
hole:16
</title>
</circle>
<circle cx="49" cy="21" r="0.5">
<title>
hole:17
</title>
</circle>
<circle cx="4" cy="0" r="0.5">
<title>
hole:18
</title>
</circle>
</g>
<g fill="#999999">
<circle cx="2" cy="60" i="0" r="0.5" tabindex="0">
<title>
v:0
</title>
</circle>
<circle cx="12" cy="90" i="1" r="0.5" tabindex="1">
<title>
v:1
</title>
</circle>
<circle cx="17" cy="25" i="2" r="0.5" tabindex="2">
<title>
v:2
</title>
</circle>
<circle cx="17" cy="45" i="3" r="0.5" tabindex="3">
<title>
v:3
</title>
</circle>
<circle cx="22" cy="0" i="4" r="0.5" tabindex="4">
<title>
v:4
</title>
</circle>
<circle cx="22" cy="65" i="5" r="0.5" tabindex="5">
<title>
v:5
</title>
</circle>
<circle cx="27" cy="15" i="6" r="0.5" tabindex="6">
<title>
v:6
</title>
</circle>
<circle cx="27" cy="30" i="7" r="0.5" tabindex="7">
<title>
v:7
</title>
</circle>
<circle cx="32" cy="25" i="8" r="0.5" tabindex="8">
<title>
v:8
</title>
</circle>
<circle cx="37" cy="15" i="9" r="0.5" tabindex="9">
<title>
v:9
</title>
</circle>
<circle cx="37" cy="40" i="10" r="0.5" tabindex="10">
<title>
v:10
</title>
</circle>
<circle cx="37" cy="50" i="11" r="0.5" tabindex="11">
<title>
v:11
</title>
</circle>
<circle cx="37" cy="65" i="12" r="0.5" tabindex="12">
<title>
v:12
</title>
</circle>
<circle cx="37" cy="85" i="13" r="0.5" tabindex="13">
<title>
v:13
</title>
</circle>
<circle cx="42" cy="35" i="14" r="0.5" tabindex="14">
<title>
v:14
</title>
</circle>
<circle cx="42" cy="55" i="15" r="0.5" tabindex="15">
<title>
v:15
</title>
</circle>
<circle cx="42" cy="60" i="16" r="0.5" tabindex="16">
<title>
v:16
</title>
</circle>
<circle cx="47" cy="10" i="17" r="0.5" tabindex="17">
<title>
v:17
</title>
</circle>
<circle cx="47" cy="95" i="18" r="0.5" tabindex="18">
<title>
v:18
</title>
</circle>
<circle cx="52" cy="35" i="19" r="0.5" tabindex="19">
<title>
v:19
</title>
</circle>
<circle cx="52" cy="55" i="20" r="0.5" tabindex="20">
<title>
v:20
</title>
</circle>
<circle cx="52" cy="60" i="21" r="0.5" tabindex="21">
<title>
v:21
</title>
</circle>
<circle cx="57" cy="15" i="22" r="0.5" tabindex="22">
<title>
v:22
</title>
</circle>
<circle cx="57" cy="40" i="23" r="0.5" tabindex="23">
<title>
v:23
</title>
</circle>
<circle cx="57" cy="50" i="24" r="0.5" tabindex="24">
<title>
v:24
</title>
</circle>
<circle cx="57" cy="65" i="25" r="0.5" tabindex="25">
<title>
v:25
</title>
</circle>
<circle cx="57" cy="85" i="26" r="0.5" tabindex="26">
<title>
v:26
</title>
</circle>
<circle cx="62" cy="25" i="27" r="0.5" tabindex="27">
<title>
v:27
</title>
</circle>
<circle cx="67" cy="15" i="28" r="0.5" tabindex="28">
<title>
v:28
</title>
</circle>
<circle cx="67" cy="30" i="29" r="0.5" tabindex="29">
<title>
v:29
</title>
</circle>
<circle cx="72" cy="0" i="30" r="0.5" tabindex="30">
<title>
v:30
</title>
</circle>
<circle cx="72" cy="65" i="31" r="0.5" tabindex="31">
<title>
v:31
</title>
</circle>
<circle cx="77" cy="25" i="32" r="0.5" tabindex="32">
<title>
v:32
</title>
</circle>
<circle cx="77" cy="45" i="33" r="0.5" tabindex="33">
<title>
v:33
</title>
</circle>
<circle cx="82" cy="90" i="34" r="0.5" tabindex="34">
<title>
v:34
</title>
</circle>
<circle cx="92" cy="60" i="35" r="0.5" tabindex="35">
<title>
v:35
</title>
</circle>
</g>
</svg>