<svg height="500" viewBox="-2 5 149 123" width="500" xmlns="http://www.w3.org/2000/svg">
<path class="hole" d="M0 42L39 59L0 66L35 90L0 108L9 126L36 124L52 105L70 85L68 63L93 72L117 83L99 103L89 126L134 118L133 98L144 74L130 56L145 30L84 29L145 7L77 9L54 8L58 37L21 10L0 19M-2 5L147 5L147 128L-2 128" style="fill:#00000066;fill-rule:evenodd;stroke:none;"/>
<circle cx="9" cy="126" r="5" style="fill:#ffff0066;stroke:none;"/>
<path class="ok" d="M35 71L59 77M43 95L59 77M59 77L73 50M73 50L93 30M73 50L107 56M107 56L133 35M107 56L135 67" style="fill:none;stroke:#0000ff;stroke-linecap:round"/>
<path class="out" d="M10 55L31 41M10 55L35 71M31 41L35 71M31 41L53 30M43 95L56 116M53 30L73 10M53 30L73 50M56 116L77 98M59 77L77 98M73 10L93 30M77 98L112 86M107 56L112 86M112 86L135 67M133 35L135 67" style="fill:none;stroke:#ff0000;stroke-linecap:round"/>
</svg>