<svg viewBox="0 0 145 126" width="500" xmlns="http://www.w3.org/2000/svg">
<polygon fill="grey" points="0,42 39,59 0,66 35,90 0,108 9,126 36,124 52,105 70,85 68,63 93,72 117,83 99,103 89,126 134,118 133,98 144,74 130,56 145,30 84,29 145,7 77,9 54,8 58,37 21,10 0,19 "/>
<path d="M10 55L31 41M10 55L35 71M31 41L35 71M31 41L53 30M35 71L59 77M43 95L56 116M43 95L59 77M53 30L73 10M53 30L73 50M56 116L77 98M59 77L73 50M59 77L77 98M73 10L93 30M73 50L93 30M73 50L107 56M77 98L112 86M107 56L112 86M107 56L133 35M107 56L135 67M112 86L135 67M133 35L135 67" style="fill:none;stroke:#ff0000;stroke-linecap:round"/>
</svg>