<svg height="500" viewBox="0 5 149 123" width="500" xmlns="http://www.w3.org/2000/svg">
<path class="hole" d="M2 42L41 59L2 66L37 90L2 108L11 126L38 124L54 105L72 85L70 63L95 72L119 83L101 103L91 126L136 118L135 98L146 74L132 56L147 30L86 29L147 7L79 9L56 8L60 37L23 10L2 19M0 5L149 5L149 128L0 128" style="fill:#00000066;fill-rule:evenodd;"/>
<circle cx="11" cy="126" fill="#ffff0066" r="5">
<title>
BreakALeg@20
</title>
</circle>
<circle cx="113" cy="10" fill="#ffff0066" r="5">
<title>
SuperFlex@98
</title>
</circle>
<circle cx="23" cy="73" fill="#ffff0066" r="5">
<title>
Globalist@132
</title>
</circle>
<path class="ok" d="M37 71L61 77M45 95L61 77M61 77L75 50M75 50L95 30M75 50L109 56M109 56L135 35M109 56L137 67" style="stroke:#0000ff;stroke-linecap:round"/>
<path class="out" d="M12 55L33 41M12 55L37 71M33 41L37 71M33 41L55 30M45 95L58 116M55 30L75 10M55 30L75 50M58 116L79 98M61 77L79 98M75 10L95 30M79 98L114 86M109 56L114 86M114 86L137 67M135 35L137 67" style="stroke:#ff0000;stroke-linecap:round"/>
<g fill="#333333">
<circle cx="2" cy="42" r="0.5">
<title>
hole:0
</title>
</circle>
<circle cx="41" cy="59" r="0.5">
<title>
hole:1
</title>
</circle>
<circle cx="2" cy="66" r="0.5">
<title>
hole:2
</title>
</circle>
<circle cx="37" cy="90" r="0.5">
<title>
hole:3
</title>
</circle>
<circle cx="2" cy="108" r="0.5">
<title>
hole:4
</title>
</circle>
<circle cx="11" cy="126" r="0.5">
<title>
hole:5
</title>
</circle>
<circle cx="38" cy="124" r="0.5">
<title>
hole:6
</title>
</circle>
<circle cx="54" cy="105" r="0.5">
<title>
hole:7
</title>
</circle>
<circle cx="72" cy="85" r="0.5">
<title>
hole:8
</title>
</circle>
<circle cx="70" cy="63" r="0.5">
<title>
hole:9
</title>
</circle>
<circle cx="95" cy="72" r="0.5">
<title>
hole:10
</title>
</circle>
<circle cx="119" cy="83" r="0.5">
<title>
hole:11
</title>
</circle>
<circle cx="101" cy="103" r="0.5">
<title>
hole:12
</title>
</circle>
<circle cx="91" cy="126" r="0.5">
<title>
hole:13
</title>
</circle>
<circle cx="136" cy="118" r="0.5">
<title>
hole:14
</title>
</circle>
<circle cx="135" cy="98" r="0.5">
<title>
hole:15
</title>
</circle>
<circle cx="146" cy="74" r="0.5">
<title>
hole:16
</title>
</circle>
<circle cx="132" cy="56" r="0.5">
<title>
hole:17
</title>
</circle>
<circle cx="147" cy="30" r="0.5">
<title>
hole:18
</title>
</circle>
<circle cx="86" cy="29" r="0.5">
<title>
hole:19
</title>
</circle>
<circle cx="147" cy="7" r="0.5">
<title>
hole:20
</title>
</circle>
<circle cx="79" cy="9" r="0.5">
<title>
hole:21
</title>
</circle>
<circle cx="56" cy="8" r="0.5">
<title>
hole:22
</title>
</circle>
<circle cx="60" cy="37" r="0.5">
<title>
hole:23
</title>
</circle>
<circle cx="23" cy="10" r="0.5">
<title>
hole:24
</title>
</circle>
<circle cx="2" cy="19" r="0.5">
<title>
hole:25
</title>
</circle>
</g>
<g fill="#999999">
<circle cx="12" cy="55" i="0" r="0.5" tabindex="0">
<title>
v:0
</title>
</circle>
<circle cx="33" cy="41" i="1" r="0.5" tabindex="1">
<title>
v:1
</title>
</circle>
<circle cx="37" cy="71" i="2" r="0.5" tabindex="2">
<title>
v:2
</title>
</circle>
<circle cx="45" cy="95" i="3" r="0.5" tabindex="3">
<title>
v:3
</title>
</circle>
<circle cx="55" cy="30" i="4" r="0.5" tabindex="4">
<title>
v:4
</title>
</circle>
<circle cx="58" cy="116" i="5" r="0.5" tabindex="5">
<title>
v:5
</title>
</circle>
<circle cx="61" cy="77" i="6" r="0.5" tabindex="6">
<title>
v:6
</title>
</circle>
<circle cx="75" cy="10" i="7" r="0.5" tabindex="7">
<title>
v:7
</title>
</circle>
<circle cx="75" cy="50" i="8" r="0.5" tabindex="8">
<title>
v:8
</title>
</circle>
<circle cx="79" cy="98" i="9" r="0.5" tabindex="9">
<title>
v:9
</title>
</circle>
<circle cx="95" cy="30" i="10" r="0.5" tabindex="10">
<title>
v:10
</title>
</circle>
<circle cx="109" cy="56" i="11" r="0.5" tabindex="11">
<title>
v:11
</title>
</circle>
<circle cx="114" cy="86" i="12" r="0.5" tabindex="12">
<title>
v:12
</title>
</circle>
<circle cx="135" cy="35" i="13" r="0.5" tabindex="13">
<title>
v:13
</title>
</circle>
<circle cx="137" cy="67" i="14" r="0.5" tabindex="14">
<title>
v:14
</title>
</circle>
</g>
</svg>