<svg height="500" viewBox="0 5 149 123" width="500" xmlns="http://www.w3.org/2000/svg">
<path class="hole" d="M2 42L41 59L2 66L37 90L2 108L11 126L38 124L54 105L72 85L70 63L95 72L119 83L101 103L91 126L136 118L135 98L146 74L132 56L147 30L86 29L147 7L79 9L56 8L60 37L23 10L2 19M0 5L149 5L149 128L0 128" style="fill:#00000066;fill-rule:evenodd;"/>
<circle cx="11" cy="126" r="5" style="fill:#ffff0066;" title="BreakALeg"/>
<path class="ok" d="M35 71L59 77M43 95L59 77M59 77L73 50M73 50L93 30M73 50L107 56M107 56L133 35M107 56L135 67" style="stroke:#0000ff;stroke-linecap:round"/>
<path class="out" d="M10 55L31 41M10 55L35 71M31 41L35 71M31 41L53 30M43 95L56 116M53 30L73 10M53 30L73 50M56 116L77 98M59 77L77 98M73 10L93 30M77 98L112 86M107 56L112 86M112 86L135 67M133 35L135 67" style="stroke:#ff0000;stroke-linecap:round"/>
<g fill="#333333">
<circle cx="2" cy="42" r="0.5" tabindex="0">
<title>
hole:0
</title>
</circle>
<circle cx="41" cy="59" r="0.5" tabindex="1">
<title>
hole:1
</title>
</circle>
<circle cx="2" cy="66" r="0.5" tabindex="2">
<title>
hole:2
</title>
</circle>
<circle cx="37" cy="90" r="0.5" tabindex="3">
<title>
hole:3
</title>
</circle>
<circle cx="2" cy="108" r="0.5" tabindex="4">
<title>
hole:4
</title>
</circle>
<circle cx="11" cy="126" r="0.5" tabindex="5">
<title>
hole:5
</title>
</circle>
<circle cx="38" cy="124" r="0.5" tabindex="6">
<title>
hole:6
</title>
</circle>
<circle cx="54" cy="105" r="0.5" tabindex="7">
<title>
hole:7
</title>
</circle>
<circle cx="72" cy="85" r="0.5" tabindex="8">
<title>
hole:8
</title>
</circle>
<circle cx="70" cy="63" r="0.5" tabindex="9">
<title>
hole:9
</title>
</circle>
<circle cx="95" cy="72" r="0.5" tabindex="10">
<title>
hole:10
</title>
</circle>
<circle cx="119" cy="83" r="0.5" tabindex="11">
<title>
hole:11
</title>
</circle>
<circle cx="101" cy="103" r="0.5" tabindex="12">
<title>
hole:12
</title>
</circle>
<circle cx="91" cy="126" r="0.5" tabindex="13">
<title>
hole:13
</title>
</circle>
<circle cx="136" cy="118" r="0.5" tabindex="14">
<title>
hole:14
</title>
</circle>
<circle cx="135" cy="98" r="0.5" tabindex="15">
<title>
hole:15
</title>
</circle>
<circle cx="146" cy="74" r="0.5" tabindex="16">
<title>
hole:16
</title>
</circle>
<circle cx="132" cy="56" r="0.5" tabindex="17">
<title>
hole:17
</title>
</circle>
<circle cx="147" cy="30" r="0.5" tabindex="18">
<title>
hole:18
</title>
</circle>
<circle cx="86" cy="29" r="0.5" tabindex="19">
<title>
hole:19
</title>
</circle>
<circle cx="147" cy="7" r="0.5" tabindex="20">
<title>
hole:20
</title>
</circle>
<circle cx="79" cy="9" r="0.5" tabindex="21">
<title>
hole:21
</title>
</circle>
<circle cx="56" cy="8" r="0.5" tabindex="22">
<title>
hole:22
</title>
</circle>
<circle cx="60" cy="37" r="0.5" tabindex="23">
<title>
hole:23
</title>
</circle>
<circle cx="23" cy="10" r="0.5" tabindex="24">
<title>
hole:24
</title>
</circle>
<circle cx="2" cy="19" r="0.5" tabindex="25">
<title>
hole:25
</title>
</circle>
</g>
<g fill="#999999">
<circle cx="10" cy="55" r="0.5" tabindex="26">
<title>
v:0
</title>
</circle>
<circle cx="31" cy="41" r="0.5" tabindex="27">
<title>
v:1
</title>
</circle>
<circle cx="35" cy="71" r="0.5" tabindex="28">
<title>
v:2
</title>
</circle>
<circle cx="43" cy="95" r="0.5" tabindex="29">
<title>
v:3
</title>
</circle>
<circle cx="53" cy="30" r="0.5" tabindex="30">
<title>
v:4
</title>
</circle>
<circle cx="56" cy="116" r="0.5" tabindex="31">
<title>
v:5
</title>
</circle>
<circle cx="59" cy="77" r="0.5" tabindex="32">
<title>
v:6
</title>
</circle>
<circle cx="73" cy="10" r="0.5" tabindex="33">
<title>
v:7
</title>
</circle>
<circle cx="73" cy="50" r="0.5" tabindex="34">
<title>
v:8
</title>
</circle>
<circle cx="77" cy="98" r="0.5" tabindex="35">
<title>
v:9
</title>
</circle>
<circle cx="93" cy="30" r="0.5" tabindex="36">
<title>
v:10
</title>
</circle>
<circle cx="107" cy="56" r="0.5" tabindex="37">
<title>
v:11
</title>
</circle>
<circle cx="112" cy="86" r="0.5" tabindex="38">
<title>
v:12
</title>
</circle>
<circle cx="133" cy="35" r="0.5" tabindex="39">
<title>
v:13
</title>
</circle>
<circle cx="135" cy="67" r="0.5" tabindex="40">
<title>
v:14
</title>
</circle>
</g>
</svg>