<svg height="500" viewBox="0 -2 241 162" width="500" xmlns="http://www.w3.org/2000/svg">
<path class="hole" d="M36 35L71 70L37 83L2 88L15 121L40 158L77 150L75 118L130 137L190 146L135 105L178 59L205 105L239 151L234 85L219 56L215 25L196 1L171 25L122 11L101 37L74 0L2 0M0 -2L241 -2L241 160L0 160" style="fill:#00000066;fill-rule:evenodd;"/>
<circle cx="239" cy="151" r="5" style="fill:#ffff0066;" title="Globalist"/>
<circle cx="35" cy="0" r="5" style="fill:#ffff0066;" title="WallHack"/>
<path class="ok" d="M10 89L33 88M18 109L33 88M18 109L38 124M33 88L54 93M38 124L56 115M54 93L56 115M54 93L79 94M56 115L79 115M66 64L83 51M74 84L96 84M79 19L82 12M79 19L86 18M79 70L79 94M79 70L101 63M79 94L79 115M79 94L87 116M79 94L101 101M82 12L86 18M83 51L93 35M83 51L101 63M84 92L94 77M84 92L98 113M86 18L93 35M87 116L101 101M94 77L115 82M96 84L101 63M98 113L117 103M101 63L115 82M101 63L117 51M101 101L115 82M101 101L118 115M109 30L117 51M109 30L129 21M109 30L138 41M115 82L117 103M115 82L131 71M117 51L131 71M117 51L138 41M117 103L137 100M118 115L134 130M129 21L138 41M131 71L135 43M131 71L151 85M131 71L157 61M135 43L157 61M135 43L169 43M137 100L151 85M151 85L157 61M155 32L169 43M155 32L176 25M157 61L169 43M157 61L184 55M169 43L176 25M169 43L184 55M176 25L192 24M184 55L200 41M192 24L200 41M192 24L209 27M196 64L211 87M200 41L209 27M211 87L227 105" style="stroke:#0000ff;stroke-linecap:round"/>
<path class="out" d="M10 70L10 89M10 70L30 67M30 67L33 88M30 67L52 71M33 88L52 71M50 77L66 64M50 77L74 84M52 71L54 93M53 70L54 93M53 70L79 70M66 64L74 84M82 12L90 10M86 18L90 10M87 116L102 130M90 10L108 12M93 35L109 30M102 130L116 148M102 130L118 115M108 12L109 30M108 12L129 21M116 148L134 130M151 85L163 109M151 85L174 75M157 61L174 75M163 109L186 97M174 75L184 55M174 75L186 97M174 75L196 64M186 97L188 125M186 97L211 87M188 125L212 131M212 131L227 105" style="stroke:#ff0000;stroke-linecap:round"/>
<g fill="#333333">
<circle cx="36" cy="35" r="0.5" tabindex="0">
<title>
hole:0
</title>
</circle>
<circle cx="71" cy="70" r="0.5" tabindex="1">
<title>
hole:1
</title>
</circle>
<circle cx="37" cy="83" r="0.5" tabindex="2">
<title>
hole:2
</title>
</circle>
<circle cx="2" cy="88" r="0.5" tabindex="3">
<title>
hole:3
</title>
</circle>
<circle cx="15" cy="121" r="0.5" tabindex="4">
<title>
hole:4
</title>
</circle>
<circle cx="40" cy="158" r="0.5" tabindex="5">
<title>
hole:5
</title>
</circle>
<circle cx="77" cy="150" r="0.5" tabindex="6">
<title>
hole:6
</title>
</circle>
<circle cx="75" cy="118" r="0.5" tabindex="7">
<title>
hole:7
</title>
</circle>
<circle cx="130" cy="137" r="0.5" tabindex="8">
<title>
hole:8
</title>
</circle>
<circle cx="190" cy="146" r="0.5" tabindex="9">
<title>
hole:9
</title>
</circle>
<circle cx="135" cy="105" r="0.5" tabindex="10">
<title>
hole:10
</title>
</circle>
<circle cx="178" cy="59" r="0.5" tabindex="11">
<title>
hole:11
</title>
</circle>
<circle cx="205" cy="105" r="0.5" tabindex="12">
<title>
hole:12
</title>
</circle>
<circle cx="239" cy="151" r="0.5" tabindex="13">
<title>
hole:13
</title>
</circle>
<circle cx="234" cy="85" r="0.5" tabindex="14">
<title>
hole:14
</title>
</circle>
<circle cx="219" cy="56" r="0.5" tabindex="15">
<title>
hole:15
</title>
</circle>
<circle cx="215" cy="25" r="0.5" tabindex="16">
<title>
hole:16
</title>
</circle>
<circle cx="196" cy="1" r="0.5" tabindex="17">
<title>
hole:17
</title>
</circle>
<circle cx="171" cy="25" r="0.5" tabindex="18">
<title>
hole:18
</title>
</circle>
<circle cx="122" cy="11" r="0.5" tabindex="19">
<title>
hole:19
</title>
</circle>
<circle cx="101" cy="37" r="0.5" tabindex="20">
<title>
hole:20
</title>
</circle>
<circle cx="74" cy="0" r="0.5" tabindex="21">
<title>
hole:21
</title>
</circle>
<circle cx="2" cy="0" r="0.5" tabindex="22">
<title>
hole:22
</title>
</circle>
</g>
<g fill="#999999">
<circle cx="10" cy="70" r="0.5" tabindex="23">
<title>
v:0
</title>
</circle>
<circle cx="10" cy="89" r="0.5" tabindex="24">
<title>
v:1
</title>
</circle>
<circle cx="18" cy="109" r="0.5" tabindex="25">
<title>
v:2
</title>
</circle>
<circle cx="30" cy="67" r="0.5" tabindex="26">
<title>
v:3
</title>
</circle>
<circle cx="33" cy="88" r="0.5" tabindex="27">
<title>
v:4
</title>
</circle>
<circle cx="38" cy="124" r="0.5" tabindex="28">
<title>
v:5
</title>
</circle>
<circle cx="50" cy="77" r="0.5" tabindex="29">
<title>
v:6
</title>
</circle>
<circle cx="52" cy="71" r="0.5" tabindex="30">
<title>
v:7
</title>
</circle>
<circle cx="53" cy="70" r="0.5" tabindex="31">
<title>
v:8
</title>
</circle>
<circle cx="54" cy="93" r="0.5" tabindex="32">
<title>
v:9
</title>
</circle>
<circle cx="56" cy="115" r="0.5" tabindex="33">
<title>
v:10
</title>
</circle>
<circle cx="66" cy="64" r="0.5" tabindex="34">
<title>
v:11
</title>
</circle>
<circle cx="74" cy="84" r="0.5" tabindex="35">
<title>
v:12
</title>
</circle>
<circle cx="79" cy="19" r="0.5" tabindex="36">
<title>
v:13
</title>
</circle>
<circle cx="79" cy="70" r="0.5" tabindex="37">
<title>
v:14
</title>
</circle>
<circle cx="79" cy="94" r="0.5" tabindex="38">
<title>
v:15
</title>
</circle>
<circle cx="79" cy="115" r="0.5" tabindex="39">
<title>
v:16
</title>
</circle>
<circle cx="82" cy="12" r="0.5" tabindex="40">
<title>
v:17
</title>
</circle>
<circle cx="83" cy="51" r="0.5" tabindex="41">
<title>
v:18
</title>
</circle>
<circle cx="84" cy="92" r="0.5" tabindex="42">
<title>
v:19
</title>
</circle>
<circle cx="86" cy="18" r="0.5" tabindex="43">
<title>
v:20
</title>
</circle>
<circle cx="87" cy="116" r="0.5" tabindex="44">
<title>
v:21
</title>
</circle>
<circle cx="90" cy="10" r="0.5" tabindex="45">
<title>
v:22
</title>
</circle>
<circle cx="93" cy="35" r="0.5" tabindex="46">
<title>
v:23
</title>
</circle>
<circle cx="94" cy="77" r="0.5" tabindex="47">
<title>
v:24
</title>
</circle>
<circle cx="96" cy="84" r="0.5" tabindex="48">
<title>
v:25
</title>
</circle>
<circle cx="98" cy="113" r="0.5" tabindex="49">
<title>
v:26
</title>
</circle>
<circle cx="101" cy="63" r="0.5" tabindex="50">
<title>
v:27
</title>
</circle>
<circle cx="101" cy="101" r="0.5" tabindex="51">
<title>
v:28
</title>
</circle>
<circle cx="102" cy="130" r="0.5" tabindex="52">
<title>
v:29
</title>
</circle>
<circle cx="108" cy="12" r="0.5" tabindex="53">
<title>
v:30
</title>
</circle>
<circle cx="109" cy="30" r="0.5" tabindex="54">
<title>
v:31
</title>
</circle>
<circle cx="115" cy="82" r="0.5" tabindex="55">
<title>
v:32
</title>
</circle>
<circle cx="116" cy="148" r="0.5" tabindex="56">
<title>
v:33
</title>
</circle>
<circle cx="117" cy="51" r="0.5" tabindex="57">
<title>
v:34
</title>
</circle>
<circle cx="117" cy="103" r="0.5" tabindex="58">
<title>
v:35
</title>
</circle>
<circle cx="118" cy="115" r="0.5" tabindex="59">
<title>
v:36
</title>
</circle>
<circle cx="129" cy="21" r="0.5" tabindex="60">
<title>
v:37
</title>
</circle>
<circle cx="131" cy="71" r="0.5" tabindex="61">
<title>
v:38
</title>
</circle>
<circle cx="134" cy="130" r="0.5" tabindex="62">
<title>
v:39
</title>
</circle>
<circle cx="135" cy="43" r="0.5" tabindex="63">
<title>
v:40
</title>
</circle>
<circle cx="137" cy="100" r="0.5" tabindex="64">
<title>
v:41
</title>
</circle>
<circle cx="138" cy="41" r="0.5" tabindex="65">
<title>
v:42
</title>
</circle>
<circle cx="151" cy="85" r="0.5" tabindex="66">
<title>
v:43
</title>
</circle>
<circle cx="155" cy="32" r="0.5" tabindex="67">
<title>
v:44
</title>
</circle>
<circle cx="157" cy="61" r="0.5" tabindex="68">
<title>
v:45
</title>
</circle>
<circle cx="163" cy="109" r="0.5" tabindex="69">
<title>
v:46
</title>
</circle>
<circle cx="169" cy="43" r="0.5" tabindex="70">
<title>
v:47
</title>
</circle>
<circle cx="174" cy="75" r="0.5" tabindex="71">
<title>
v:48
</title>
</circle>
<circle cx="176" cy="25" r="0.5" tabindex="72">
<title>
v:49
</title>
</circle>
<circle cx="184" cy="55" r="0.5" tabindex="73">
<title>
v:50
</title>
</circle>
<circle cx="186" cy="97" r="0.5" tabindex="74">
<title>
v:51
</title>
</circle>
<circle cx="188" cy="125" r="0.5" tabindex="75">
<title>
v:52
</title>
</circle>
<circle cx="192" cy="24" r="0.5" tabindex="76">
<title>
v:53
</title>
</circle>
<circle cx="196" cy="64" r="0.5" tabindex="77">
<title>
v:54
</title>
</circle>
<circle cx="200" cy="41" r="0.5" tabindex="78">
<title>
v:55
</title>
</circle>
<circle cx="209" cy="27" r="0.5" tabindex="79">
<title>
v:56
</title>
</circle>
<circle cx="211" cy="87" r="0.5" tabindex="80">
<title>
v:57
</title>
</circle>
<circle cx="212" cy="131" r="0.5" tabindex="81">
<title>
v:58
</title>
</circle>
<circle cx="227" cy="105" r="0.5" tabindex="82">
<title>
v:59
</title>
</circle>
</g>
</svg>