<svg viewBox="0 0 238 159" width="500" xmlns="http://www.w3.org/2000/svg">
<path d="M34 35L69 70L35 83L0 88L13 121L38 158L75 150L73 118L128 137L188 146L133 105L176 59L203 105L237 151L232 85L217 56L213 25L194 1L169 25L120 11L99 37L72 0L0 0M0 0L238 0L238 159L0 159" style="fill:#00000066;fill-rule:evenodd;stroke:none;"/>
<path d="M10 70L10 89M10 70L30 67M10 89L33 88M18 109L33 88M18 109L38 124M30 67L33 88M30 67L52 71M33 88L52 71M33 88L54 93M38 124L56 115M50 77L66 64M50 77L74 84M52 71L54 93M53 70L54 93M53 70L79 70M54 93L56 115M54 93L79 94M56 115L79 115M66 64L74 84M66 64L83 51M74 84L96 84M79 19L82 12M79 19L86 18M79 70L79 94M79 70L101 63M79 94L79 115M79 94L87 116M79 94L101 101M82 12L86 18M82 12L90 10M83 51L93 35M83 51L101 63M84 92L94 77M84 92L98 113M86 18L90 10M86 18L93 35M87 116L101 101M87 116L102 130M90 10L108 12M93 35L109 30M94 77L115 82M96 84L101 63M98 113L117 103M101 63L115 82M101 63L117 51M101 101L115 82M101 101L118 115M102 130L116 148M102 130L118 115M108 12L109 30M108 12L129 21M109 30L117 51M109 30L129 21M109 30L138 41M115 82L117 103M115 82L131 71M116 148L134 130M117 51L131 71M117 51L138 41M117 103L137 100M118 115L134 130M129 21L138 41M131 71L135 43M131 71L151 85M131 71L157 61M135 43L157 61M135 43L169 43M137 100L151 85M151 85L157 61M151 85L163 109M151 85L174 75M155 32L169 43M155 32L176 25M157 61L169 43M157 61L174 75M157 61L184 55M163 109L186 97M169 43L176 25M169 43L184 55M174 75L184 55M174 75L186 97M174 75L196 64M176 25L192 24M184 55L200 41M186 97L188 125M186 97L211 87M188 125L212 131M192 24L200 41M192 24L209 27M196 64L211 87M200 41L209 27M211 87L227 105M212 131L227 105" style="fill:none;stroke:#ff0000;stroke-linecap:round"/>
</svg>