<svg height="500" viewBox="0 -2 241 162" width="500" xmlns="http://www.w3.org/2000/svg">
<path class="hole" d="M36 35L71 70L37 83L2 88L15 121L40 158L77 150L75 118L130 137L190 146L135 105L178 59L205 105L239 151L234 85L219 56L215 25L196 1L171 25L122 11L101 37L74 0L2 0M0 -2L241 -2L241 160L0 160" style="fill:#00000066;fill-rule:evenodd;"/>
<circle cx="239" cy="151" fill="#ffff0066" r="5">
<title>
Globalist@22
</title>
</circle>
<circle cx="35" cy="0" fill="#ffff0066" r="5">
<title>
WallHack@22
</title>
</circle>
<circle cx="161" cy="126" fill="#ffff0066" r="5">
<title>
SuperFlex@74
</title>
</circle>
<path class="ok" d="M12 89L35 88M20 109L35 88M20 109L40 124M35 88L56 93M40 124L58 115M56 93L58 115M56 93L81 94M58 115L81 115M68 64L85 51M76 84L98 84M81 70L81 94M81 70L103 63M81 94L81 115M81 94L89 116M81 94L103 101M85 51L95 35M85 51L103 63M86 92L96 77M86 92L100 113M89 116L103 101M96 77L117 82M98 84L103 63M100 113L119 103M103 63L117 82M103 63L119 51M103 101L117 82M103 101L120 115M111 30L119 51M111 30L131 21M111 30L140 41M117 82L119 103M117 82L133 71M119 51L133 71M119 51L140 41M119 103L139 100M120 115L136 130M131 21L140 41M133 71L137 43M133 71L153 85M133 71L159 61M137 43L159 61M137 43L171 43M139 100L153 85M153 85L159 61M157 32L171 43M157 32L178 25M159 61L171 43M159 61L186 55M171 43L178 25M171 43L186 55M178 25L194 24M186 55L202 41M194 24L202 41M194 24L211 27M198 64L213 87M202 41L211 27M213 87L229 105" style="stroke:#0000ff;stroke-linecap:round"/>
<path class="out" d="M12 70L12 89M12 70L32 67M32 67L35 88M32 67L54 71M35 88L54 71M52 77L68 64M52 77L76 84M54 71L56 93M55 70L56 93M55 70L81 70M68 64L76 84M81 19L84 12M81 19L88 18M84 12L88 18M84 12L92 10M88 18L92 10M88 18L95 35M89 116L104 130M92 10L110 12M95 35L111 30M104 130L118 148M104 130L120 115M110 12L111 30M110 12L131 21M118 148L136 130M153 85L165 109M153 85L176 75M159 61L176 75M165 109L188 97M176 75L186 55M176 75L188 97M176 75L198 64M188 97L190 125M188 97L213 87M190 125L214 131M214 131L229 105" style="stroke:#ff0000;stroke-linecap:round"/>
<g fill="#333333">
<circle cx="36" cy="35" r="0.5">
<title>
hole:0
</title>
</circle>
<circle cx="71" cy="70" r="0.5">
<title>
hole:1
</title>
</circle>
<circle cx="37" cy="83" r="0.5">
<title>
hole:2
</title>
</circle>
<circle cx="2" cy="88" r="0.5">
<title>
hole:3
</title>
</circle>
<circle cx="15" cy="121" r="0.5">
<title>
hole:4
</title>
</circle>
<circle cx="40" cy="158" r="0.5">
<title>
hole:5
</title>
</circle>
<circle cx="77" cy="150" r="0.5">
<title>
hole:6
</title>
</circle>
<circle cx="75" cy="118" r="0.5">
<title>
hole:7
</title>
</circle>
<circle cx="130" cy="137" r="0.5">
<title>
hole:8
</title>
</circle>
<circle cx="190" cy="146" r="0.5">
<title>
hole:9
</title>
</circle>
<circle cx="135" cy="105" r="0.5">
<title>
hole:10
</title>
</circle>
<circle cx="178" cy="59" r="0.5">
<title>
hole:11
</title>
</circle>
<circle cx="205" cy="105" r="0.5">
<title>
hole:12
</title>
</circle>
<circle cx="239" cy="151" r="0.5">
<title>
hole:13
</title>
</circle>
<circle cx="234" cy="85" r="0.5">
<title>
hole:14
</title>
</circle>
<circle cx="219" cy="56" r="0.5">
<title>
hole:15
</title>
</circle>
<circle cx="215" cy="25" r="0.5">
<title>
hole:16
</title>
</circle>
<circle cx="196" cy="1" r="0.5">
<title>
hole:17
</title>
</circle>
<circle cx="171" cy="25" r="0.5">
<title>
hole:18
</title>
</circle>
<circle cx="122" cy="11" r="0.5">
<title>
hole:19
</title>
</circle>
<circle cx="101" cy="37" r="0.5">
<title>
hole:20
</title>
</circle>
<circle cx="74" cy="0" r="0.5">
<title>
hole:21
</title>
</circle>
<circle cx="2" cy="0" r="0.5">
<title>
hole:22
</title>
</circle>
</g>
<g fill="#999999">
<circle cx="12" cy="70" i="0" r="0.5" tabindex="0">
<title>
v:0
</title>
</circle>
<circle cx="12" cy="89" i="1" r="0.5" tabindex="1">
<title>
v:1
</title>
</circle>
<circle cx="20" cy="109" i="2" r="0.5" tabindex="2">
<title>
v:2
</title>
</circle>
<circle cx="32" cy="67" i="3" r="0.5" tabindex="3">
<title>
v:3
</title>
</circle>
<circle cx="35" cy="88" i="4" r="0.5" tabindex="4">
<title>
v:4
</title>
</circle>
<circle cx="40" cy="124" i="5" r="0.5" tabindex="5">
<title>
v:5
</title>
</circle>
<circle cx="52" cy="77" i="6" r="0.5" tabindex="6">
<title>
v:6
</title>
</circle>
<circle cx="54" cy="71" i="7" r="0.5" tabindex="7">
<title>
v:7
</title>
</circle>
<circle cx="55" cy="70" i="8" r="0.5" tabindex="8">
<title>
v:8
</title>
</circle>
<circle cx="56" cy="93" i="9" r="0.5" tabindex="9">
<title>
v:9
</title>
</circle>
<circle cx="58" cy="115" i="10" r="0.5" tabindex="10">
<title>
v:10
</title>
</circle>
<circle cx="68" cy="64" i="11" r="0.5" tabindex="11">
<title>
v:11
</title>
</circle>
<circle cx="76" cy="84" i="12" r="0.5" tabindex="12">
<title>
v:12
</title>
</circle>
<circle cx="81" cy="19" i="13" r="0.5" tabindex="13">
<title>
v:13
</title>
</circle>
<circle cx="81" cy="70" i="14" r="0.5" tabindex="14">
<title>
v:14
</title>
</circle>
<circle cx="81" cy="94" i="15" r="0.5" tabindex="15">
<title>
v:15
</title>
</circle>
<circle cx="81" cy="115" i="16" r="0.5" tabindex="16">
<title>
v:16
</title>
</circle>
<circle cx="84" cy="12" i="17" r="0.5" tabindex="17">
<title>
v:17
</title>
</circle>
<circle cx="85" cy="51" i="18" r="0.5" tabindex="18">
<title>
v:18
</title>
</circle>
<circle cx="86" cy="92" i="19" r="0.5" tabindex="19">
<title>
v:19
</title>
</circle>
<circle cx="88" cy="18" i="20" r="0.5" tabindex="20">
<title>
v:20
</title>
</circle>
<circle cx="89" cy="116" i="21" r="0.5" tabindex="21">
<title>
v:21
</title>
</circle>
<circle cx="92" cy="10" i="22" r="0.5" tabindex="22">
<title>
v:22
</title>
</circle>
<circle cx="95" cy="35" i="23" r="0.5" tabindex="23">
<title>
v:23
</title>
</circle>
<circle cx="96" cy="77" i="24" r="0.5" tabindex="24">
<title>
v:24
</title>
</circle>
<circle cx="98" cy="84" i="25" r="0.5" tabindex="25">
<title>
v:25
</title>
</circle>
<circle cx="100" cy="113" i="26" r="0.5" tabindex="26">
<title>
v:26
</title>
</circle>
<circle cx="103" cy="63" i="27" r="0.5" tabindex="27">
<title>
v:27
</title>
</circle>
<circle cx="103" cy="101" i="28" r="0.5" tabindex="28">
<title>
v:28
</title>
</circle>
<circle cx="104" cy="130" i="29" r="0.5" tabindex="29">
<title>
v:29
</title>
</circle>
<circle cx="110" cy="12" i="30" r="0.5" tabindex="30">
<title>
v:30
</title>
</circle>
<circle cx="111" cy="30" i="31" r="0.5" tabindex="31">
<title>
v:31
</title>
</circle>
<circle cx="117" cy="82" i="32" r="0.5" tabindex="32">
<title>
v:32
</title>
</circle>
<circle cx="118" cy="148" i="33" r="0.5" tabindex="33">
<title>
v:33
</title>
</circle>
<circle cx="119" cy="51" i="34" r="0.5" tabindex="34">
<title>
v:34
</title>
</circle>
<circle cx="119" cy="103" i="35" r="0.5" tabindex="35">
<title>
v:35
</title>
</circle>
<circle cx="120" cy="115" i="36" r="0.5" tabindex="36">
<title>
v:36
</title>
</circle>
<circle cx="131" cy="21" i="37" r="0.5" tabindex="37">
<title>
v:37
</title>
</circle>
<circle cx="133" cy="71" i="38" r="0.5" tabindex="38">
<title>
v:38
</title>
</circle>
<circle cx="136" cy="130" i="39" r="0.5" tabindex="39">
<title>
v:39
</title>
</circle>
<circle cx="137" cy="43" i="40" r="0.5" tabindex="40">
<title>
v:40
</title>
</circle>
<circle cx="139" cy="100" i="41" r="0.5" tabindex="41">
<title>
v:41
</title>
</circle>
<circle cx="140" cy="41" i="42" r="0.5" tabindex="42">
<title>
v:42
</title>
</circle>
<circle cx="153" cy="85" i="43" r="0.5" tabindex="43">
<title>
v:43
</title>
</circle>
<circle cx="157" cy="32" i="44" r="0.5" tabindex="44">
<title>
v:44
</title>
</circle>
<circle cx="159" cy="61" i="45" r="0.5" tabindex="45">
<title>
v:45
</title>
</circle>
<circle cx="165" cy="109" i="46" r="0.5" tabindex="46">
<title>
v:46
</title>
</circle>
<circle cx="171" cy="43" i="47" r="0.5" tabindex="47">
<title>
v:47
</title>
</circle>
<circle cx="176" cy="75" i="48" r="0.5" tabindex="48">
<title>
v:48
</title>
</circle>
<circle cx="178" cy="25" i="49" r="0.5" tabindex="49">
<title>
v:49
</title>
</circle>
<circle cx="186" cy="55" i="50" r="0.5" tabindex="50">
<title>
v:50
</title>
</circle>
<circle cx="188" cy="97" i="51" r="0.5" tabindex="51">
<title>
v:51
</title>
</circle>
<circle cx="190" cy="125" i="52" r="0.5" tabindex="52">
<title>
v:52
</title>
</circle>
<circle cx="194" cy="24" i="53" r="0.5" tabindex="53">
<title>
v:53
</title>
</circle>
<circle cx="198" cy="64" i="54" r="0.5" tabindex="54">
<title>
v:54
</title>
</circle>
<circle cx="202" cy="41" i="55" r="0.5" tabindex="55">
<title>
v:55
</title>
</circle>
<circle cx="211" cy="27" i="56" r="0.5" tabindex="56">
<title>
v:56
</title>
</circle>
<circle cx="213" cy="87" i="57" r="0.5" tabindex="57">
<title>
v:57
</title>
</circle>
<circle cx="214" cy="131" i="58" r="0.5" tabindex="58">
<title>
v:58
</title>
</circle>
<circle cx="229" cy="105" i="59" r="0.5" tabindex="59">
<title>
v:59
</title>
</circle>
</g>
</svg>