<svg height="500" viewBox="-2 -2 158 136" width="500" xmlns="http://www.w3.org/2000/svg">
<path class="hole" d="M0 48L3 52L18 67L23 87L38 90L54 102L60 116L64 130L80 116L97 129L101 132L100 117L154 108L138 78L116 34L81 0L48 3L15 47M-2 -2L156 -2L156 134L-2 134" style="fill:#00000066;fill-rule:evenodd;stroke:none;"/>
<path class="ok" d="M35 45L35 60M35 45L50 45M35 60L50 60M50 45L50 60M50 60L55 80M50 95L55 80M55 80L65 80M65 80L70 60M65 80L70 95M70 45L70 60M70 45L85 45M70 60L85 60M70 95L85 95M70 105L70 120M70 105L100 105M85 45L85 60M85 45L120 50M85 95L90 80M90 80L100 80M100 80L110 95M100 105L120 105M120 50L120 105" style="fill:none;stroke:#0000ff;stroke-linecap:round"/>
<path class="short" d="" style="fill:none;stroke:#00ff99;stroke-linecap:round"/>
<path class="long" d="" style="fill:none;stroke:#ff0099;stroke-linecap:round"/>
<path class="out" d="M0 50L0 105M0 50L15 20M0 50L35 45M0 105L0 120M0 105L20 105M0 120L5 120M5 120L20 105M10 95L20 80M15 20L35 45M15 20L60 0M20 80L30 80M20 105L35 120M20 105L50 105M30 80L35 95M35 95L50 95M35 120L50 120M50 105L50 120M50 105L70 105M60 0L105 20M70 120L85 120M85 45L105 20M85 120L100 105M100 105L115 120M105 20L120 50M115 120L120 120M120 105L120 120" style="fill:none;stroke:#ff0000;stroke-linecap:round"/>
</svg>