<svg height="500" viewBox="0 0 154 132" width="500" xmlns="http://www.w3.org/2000/svg">
<polygon fill="grey" points="0,48 3,52 18,67 23,87 38,90 54,102 60,116 64,130 80,116 97,129 101,132 100,117 154,108 138,78 116,34 81,0 48,3 15,47 "/>
<path d="M0 105L0 120M0 120L5 120M5 120L20 105M20 105L0 105M0 105L0 50M0 50L15 20M15 20L60 0M60 0L105 20M105 20L120 50M120 50L120 105M120 105L100 105M100 105L115 120M115 120L120 120M120 120L120 105M100 105L85 120M85 120L70 120M70 120L70 105M70 105L100 105M20 105L50 105M50 105L50 120M50 120L35 120M35 120L20 105M50 105L70 105M35 45L35 60M35 60L50 60M50 60L50 45M50 45L35 45M70 45L70 60M70 60L85 60M85 60L85 45M85 45L70 45M15 20L35 45M35 45L0 50M105 20L85 45M85 45L120 50M10 95L20 80M20 80L30 80M30 80L35 95M35 95L50 95M50 95L55 80M55 80L65 80M65 80L70 95M70 95L85 95M85 95L90 80M90 80L100 80M100 80L110 95M50 60L55 80M70 60L65 80" stroke="red"/>
</svg>