<svg height="500" viewBox="-2 -2 160 136" width="500" xmlns="http://www.w3.org/2000/svg">
<path class="hole" d="M2 48L5 52L20 67L25 87L40 90L56 102L62 116L66 130L82 116L99 129L103 132L102 117L156 108L140 78L118 34L83 0L50 3L17 47M-2 -2L158 -2L158 134L-2 134" style="fill:#00000066;fill-rule:evenodd;"/>
<circle cx="108" cy="65" r="5" style="fill:#ffff0066;" title="BreakALeg"/>
<circle cx="35" cy="24" r="5" style="fill:#ffff0066;" title="WallHack"/>
<path class="ok" d="M35 45L35 60M35 45L50 45M35 60L50 60M50 45L50 60M50 60L55 80M50 95L55 80M55 80L65 80M65 80L70 60M65 80L70 95M70 45L70 60M70 45L85 45M70 60L85 60M70 95L85 95M70 105L70 120M70 105L100 105M85 45L85 60M85 45L120 50M85 95L90 80M90 80L100 80M100 80L110 95M100 105L120 105M120 50L120 105" style="stroke:#0000ff;stroke-linecap:round"/>
<path class="out" d="M0 50L0 105M0 50L15 20M0 50L35 45M0 105L0 120M0 105L20 105M0 120L5 120M5 120L20 105M10 95L20 80M15 20L35 45M15 20L60 0M20 80L30 80M20 105L35 120M20 105L50 105M30 80L35 95M35 95L50 95M35 120L50 120M50 105L50 120M50 105L70 105M60 0L105 20M70 120L85 120M85 45L105 20M85 120L100 105M100 105L115 120M105 20L120 50M115 120L120 120M120 105L120 120" style="stroke:#ff0000;stroke-linecap:round"/>
<g fill="#333333">
<circle cx="2" cy="48" r="0.5" tabindex="0">
<title>
hole:0
</title>
</circle>
<circle cx="5" cy="52" r="0.5" tabindex="1">
<title>
hole:1
</title>
</circle>
<circle cx="20" cy="67" r="0.5" tabindex="2">
<title>
hole:2
</title>
</circle>
<circle cx="25" cy="87" r="0.5" tabindex="3">
<title>
hole:3
</title>
</circle>
<circle cx="40" cy="90" r="0.5" tabindex="4">
<title>
hole:4
</title>
</circle>
<circle cx="56" cy="102" r="0.5" tabindex="5">
<title>
hole:5
</title>
</circle>
<circle cx="62" cy="116" r="0.5" tabindex="6">
<title>
hole:6
</title>
</circle>
<circle cx="66" cy="130" r="0.5" tabindex="7">
<title>
hole:7
</title>
</circle>
<circle cx="82" cy="116" r="0.5" tabindex="8">
<title>
hole:8
</title>
</circle>
<circle cx="99" cy="129" r="0.5" tabindex="9">
<title>
hole:9
</title>
</circle>
<circle cx="103" cy="132" r="0.5" tabindex="10">
<title>
hole:10
</title>
</circle>
<circle cx="102" cy="117" r="0.5" tabindex="11">
<title>
hole:11
</title>
</circle>
<circle cx="156" cy="108" r="0.5" tabindex="12">
<title>
hole:12
</title>
</circle>
<circle cx="140" cy="78" r="0.5" tabindex="13">
<title>
hole:13
</title>
</circle>
<circle cx="118" cy="34" r="0.5" tabindex="14">
<title>
hole:14
</title>
</circle>
<circle cx="83" cy="0" r="0.5" tabindex="15">
<title>
hole:15
</title>
</circle>
<circle cx="50" cy="3" r="0.5" tabindex="16">
<title>
hole:16
</title>
</circle>
<circle cx="17" cy="47" r="0.5" tabindex="17">
<title>
hole:17
</title>
</circle>
</g>
<g fill="#999999">
<circle cx="0" cy="50" r="0.5" tabindex="18">
<title>
v:0
</title>
</circle>
<circle cx="0" cy="105" r="0.5" tabindex="19">
<title>
v:1
</title>
</circle>
<circle cx="0" cy="120" r="0.5" tabindex="20">
<title>
v:2
</title>
</circle>
<circle cx="5" cy="120" r="0.5" tabindex="21">
<title>
v:3
</title>
</circle>
<circle cx="10" cy="95" r="0.5" tabindex="22">
<title>
v:4
</title>
</circle>
<circle cx="15" cy="20" r="0.5" tabindex="23">
<title>
v:5
</title>
</circle>
<circle cx="20" cy="80" r="0.5" tabindex="24">
<title>
v:6
</title>
</circle>
<circle cx="20" cy="105" r="0.5" tabindex="25">
<title>
v:7
</title>
</circle>
<circle cx="30" cy="80" r="0.5" tabindex="26">
<title>
v:8
</title>
</circle>
<circle cx="35" cy="45" r="0.5" tabindex="27">
<title>
v:9
</title>
</circle>
<circle cx="35" cy="60" r="0.5" tabindex="28">
<title>
v:10
</title>
</circle>
<circle cx="35" cy="95" r="0.5" tabindex="29">
<title>
v:11
</title>
</circle>
<circle cx="35" cy="120" r="0.5" tabindex="30">
<title>
v:12
</title>
</circle>
<circle cx="50" cy="45" r="0.5" tabindex="31">
<title>
v:13
</title>
</circle>
<circle cx="50" cy="60" r="0.5" tabindex="32">
<title>
v:14
</title>
</circle>
<circle cx="50" cy="95" r="0.5" tabindex="33">
<title>
v:15
</title>
</circle>
<circle cx="50" cy="105" r="0.5" tabindex="34">
<title>
v:16
</title>
</circle>
<circle cx="50" cy="120" r="0.5" tabindex="35">
<title>
v:17
</title>
</circle>
<circle cx="55" cy="80" r="0.5" tabindex="36">
<title>
v:18
</title>
</circle>
<circle cx="60" cy="0" r="0.5" tabindex="37">
<title>
v:19
</title>
</circle>
<circle cx="65" cy="80" r="0.5" tabindex="38">
<title>
v:20
</title>
</circle>
<circle cx="70" cy="45" r="0.5" tabindex="39">
<title>
v:21
</title>
</circle>
<circle cx="70" cy="60" r="0.5" tabindex="40">
<title>
v:22
</title>
</circle>
<circle cx="70" cy="95" r="0.5" tabindex="41">
<title>
v:23
</title>
</circle>
<circle cx="70" cy="105" r="0.5" tabindex="42">
<title>
v:24
</title>
</circle>
<circle cx="70" cy="120" r="0.5" tabindex="43">
<title>
v:25
</title>
</circle>
<circle cx="85" cy="45" r="0.5" tabindex="44">
<title>
v:26
</title>
</circle>
<circle cx="85" cy="60" r="0.5" tabindex="45">
<title>
v:27
</title>
</circle>
<circle cx="85" cy="95" r="0.5" tabindex="46">
<title>
v:28
</title>
</circle>
<circle cx="85" cy="120" r="0.5" tabindex="47">
<title>
v:29
</title>
</circle>
<circle cx="90" cy="80" r="0.5" tabindex="48">
<title>
v:30
</title>
</circle>
<circle cx="100" cy="80" r="0.5" tabindex="49">
<title>
v:31
</title>
</circle>
<circle cx="100" cy="105" r="0.5" tabindex="50">
<title>
v:32
</title>
</circle>
<circle cx="105" cy="20" r="0.5" tabindex="51">
<title>
v:33
</title>
</circle>
<circle cx="110" cy="95" r="0.5" tabindex="52">
<title>
v:34
</title>
</circle>
<circle cx="115" cy="120" r="0.5" tabindex="53">
<title>
v:35
</title>
</circle>
<circle cx="120" cy="50" r="0.5" tabindex="54">
<title>
v:36
</title>
</circle>
<circle cx="120" cy="105" r="0.5" tabindex="55">
<title>
v:37
</title>
</circle>
<circle cx="120" cy="120" r="0.5" tabindex="56">
<title>
v:38
</title>
</circle>
</g>
</svg>