<svg height="500" viewBox="0 0 223 401" width="500" xmlns="http://www.w3.org/2000/svg">
<polygon fill="grey" points="0,277 22,295 48,275 47,305 25,327 38,357 36,392 66,401 76,399 108,379 143,364 168,380 186,357 163,338 131,334 162,326 165,297 183,273 206,260 223,234 192,232 209,210 222,178 190,186 156,206 137,200 117,179 127,145 148,115 184,91 174,49 172,0 121,3 125,50 86,39 73,82 74,87 93,123 69,152 82,181 71,177 46,153 17,169 23,201 19,209 19,230 50,243 70,239 37,248 6,253 "/>
<path d="M39 58L26 37M39 58L30 85M26 37L57 41M59 49L49 18M59 49L90 59M49 60L66 69M49 60L42 83M24 33L49 18M24 33L36 65M66 69L64 94M30 85L59 70M49 18L68 46M74 62L50 84M74 62L78 93M65 116L50 84M65 116L44 92M57 41L59 70M57 41L46 74M50 84L23 64M42 83L64 94M42 83L74 84M64 94L48 70M90 59L61 79M78 93L59 70M78 93L52 76M59 70L39 45M13 72L49 53M13 72L40 95M36 65L68 46M68 46L46 74M68 46L61 79M68 46L91 71M49 53L51 87M44 92L58 65M29 81L56 64M29 81L22 44M46 74L39 45M46 74L69 53M61 79L91 71M23 64L52 76M23 64L58 65M3 60L46 72M3 60L41 79M48 70L74 84M48 70L69 53M0 78L18 39M0 78L22 44M0 78L41 79M74 84L56 64M74 84L69 53M52 76L72 49M40 95L70 117M39 45L72 49M39 45L43 81M39 45L47 77M56 64L25 48M46 72L79 94M91 71L69 53M44 60L51 87M44 60L70 51M18 39L41 79M22 44L41 79M22 44L47 76M72 49L46 64M72 49L45 68M69 53L47 77M69 53L44 74M43 81L47 50M43 81L76 74M46 64L53 92M51 87L70 117M51 87L39 57M47 50L73 74M70 117L60 81M47 77L60 51M59 51L71 26M59 51L64 80M71 26L60 51M41 79L79 94M41 79L71 49M25 48L44 74M25 48L47 76M70 51L39 57M70 51L64 80M64 50L79 94M64 50L74 0M53 92L18 75M79 94L64 48M44 74L72 78M47 76L71 49M45 68L76 74M45 68L18 75M45 68L67 90M76 74L91 44M76 74L45 65M39 57L60 81M39 57L39 89M39 57L70 50M73 74L91 44M60 51L64 80M60 51L72 78M60 51L89 56M64 80L61 108M60 81L70 50M60 81L70 53M80 82L91 59M80 82L89 56M72 78L100 73M72 78L89 56M71 49L60 91M91 59L108 81M67 90L45 65M39 89L61 108M70 50L98 60M61 108L74 81M100 73L72 79M100 73L105 42M89 56L74 81M89 56L72 79M89 56L79 84M70 53L98 60M74 0L64 48M64 48L60 91M74 81L48 87M108 81L79 84M72 79L100 72M105 42L100 72M105 42L132 60M79 84L48 87M79 84L67 112M48 87L67 112M100 72L132 60" stroke="red"/>
</svg>