<svg height="500" viewBox="0 -2 227 405" width="500" xmlns="http://www.w3.org/2000/svg">
<path class="hole" d="M2 277L24 295L50 275L49 305L27 327L40 357L38 392L68 401L78 399L110 379L145 364L170 380L188 357L165 338L133 334L164 326L167 297L185 273L208 260L225 234L194 232L211 210L224 178L192 186L158 206L139 200L119 179L129 145L150 115L186 91L176 49L174 0L123 3L127 50L88 39L75 82L76 87L95 123L71 152L84 181L73 177L48 153L19 169L25 201L21 209L21 230L52 243L72 239L39 248L8 253M0 -2L227 -2L227 403L0 403" style="fill:#00000066;fill-rule:evenodd;"/>
<circle cx="152" cy="77" fill="#ffff0066" r="5">
<title>
Globalist@85
</title>
</circle>
<circle cx="149" cy="24" fill="#ffff0066" r="5">
<title>
WallHack@83
</title>
</circle>
<circle cx="101" cy="156" fill="#ffff0066" r="5">
<title>
WallHack@4
</title>
</circle>
<path class="ok" d="M78 74L93 44M82 82L93 59M82 82L91 56M93 59L110 81M91 56L76 81M91 56L81 84M110 81L81 84M102 72L134 60" style="stroke:#0000ff;stroke-linecap:round"/>
<path class="out" d="M41 58L28 37M41 58L32 85M28 37L59 41M61 49L51 18M61 49L92 59M51 60L68 69M51 60L44 83M26 33L51 18M26 33L38 65M68 69L66 94M32 85L61 70M51 18L70 46M76 62L52 84M76 62L80 93M67 116L52 84M67 116L46 92M59 41L61 70M59 41L48 74M52 84L25 64M44 83L66 94M44 83L76 84M66 94L50 70M92 59L63 79M80 93L61 70M80 93L54 76M61 70L41 45M15 72L51 53M15 72L42 95M38 65L70 46M70 46L48 74M70 46L63 79M70 46L93 71M51 53L53 87M46 92L60 65M31 81L58 64M31 81L24 44M48 74L41 45M48 74L71 53M63 79L93 71M25 64L54 76M25 64L60 65M5 60L48 72M5 60L43 79M50 70L76 84M50 70L71 53M2 78L20 39M2 78L24 44M2 78L43 79M76 84L58 64M76 84L71 53M54 76L74 49M42 95L72 117M41 45L74 49M41 45L45 81M41 45L49 77M58 64L27 48M48 72L81 94M93 71L71 53M46 60L53 87M46 60L72 51M20 39L43 79M24 44L43 79M24 44L49 76M74 49L48 64M74 49L47 68M71 53L49 77M71 53L46 74M45 81L49 50M45 81L78 74M48 64L55 92M53 87L72 117M53 87L41 57M49 50L75 74M72 117L62 81M49 77L62 51M61 51L73 26M61 51L66 80M73 26L62 51M43 79L81 94M43 79L73 49M27 48L46 74M27 48L49 76M72 51L41 57M72 51L66 80M66 50L81 94M66 50L76 0M55 92L20 75M81 94L66 48M46 74L74 78M49 76L73 49M47 68L78 74M47 68L20 75M47 68L69 90M78 74L47 65M41 57L62 81M41 57L41 89M41 57L72 50M75 74L93 44M62 51L66 80M62 51L74 78M62 51L91 56M66 80L63 108M62 81L72 50M62 81L72 53M74 78L102 73M74 78L91 56M73 49L62 91M69 90L47 65M41 89L63 108M72 50L100 60M63 108L76 81M102 73L74 79M102 73L107 42M91 56L74 79M72 53L100 60M76 0L66 48M66 48L62 91M76 81L50 87M74 79L102 72M107 42L102 72M107 42L134 60M81 84L50 87M81 84L69 112M50 87L69 112" style="stroke:#ff0000;stroke-linecap:round"/>
<g fill="#333333">
<circle cx="2" cy="277" r="0.5">
<title>
hole:0
</title>
</circle>
<circle cx="24" cy="295" r="0.5">
<title>
hole:1
</title>
</circle>
<circle cx="50" cy="275" r="0.5">
<title>
hole:2
</title>
</circle>
<circle cx="49" cy="305" r="0.5">
<title>
hole:3
</title>
</circle>
<circle cx="27" cy="327" r="0.5">
<title>
hole:4
</title>
</circle>
<circle cx="40" cy="357" r="0.5">
<title>
hole:5
</title>
</circle>
<circle cx="38" cy="392" r="0.5">
<title>
hole:6
</title>
</circle>
<circle cx="68" cy="401" r="0.5">
<title>
hole:7
</title>
</circle>
<circle cx="78" cy="399" r="0.5">
<title>
hole:8
</title>
</circle>
<circle cx="110" cy="379" r="0.5">
<title>
hole:9
</title>
</circle>
<circle cx="145" cy="364" r="0.5">
<title>
hole:10
</title>
</circle>
<circle cx="170" cy="380" r="0.5">
<title>
hole:11
</title>
</circle>
<circle cx="188" cy="357" r="0.5">
<title>
hole:12
</title>
</circle>
<circle cx="165" cy="338" r="0.5">
<title>
hole:13
</title>
</circle>
<circle cx="133" cy="334" r="0.5">
<title>
hole:14
</title>
</circle>
<circle cx="164" cy="326" r="0.5">
<title>
hole:15
</title>
</circle>
<circle cx="167" cy="297" r="0.5">
<title>
hole:16
</title>
</circle>
<circle cx="185" cy="273" r="0.5">
<title>
hole:17
</title>
</circle>
<circle cx="208" cy="260" r="0.5">
<title>
hole:18
</title>
</circle>
<circle cx="225" cy="234" r="0.5">
<title>
hole:19
</title>
</circle>
<circle cx="194" cy="232" r="0.5">
<title>
hole:20
</title>
</circle>
<circle cx="211" cy="210" r="0.5">
<title>
hole:21
</title>
</circle>
<circle cx="224" cy="178" r="0.5">
<title>
hole:22
</title>
</circle>
<circle cx="192" cy="186" r="0.5">
<title>
hole:23
</title>
</circle>
<circle cx="158" cy="206" r="0.5">
<title>
hole:24
</title>
</circle>
<circle cx="139" cy="200" r="0.5">
<title>
hole:25
</title>
</circle>
<circle cx="119" cy="179" r="0.5">
<title>
hole:26
</title>
</circle>
<circle cx="129" cy="145" r="0.5">
<title>
hole:27
</title>
</circle>
<circle cx="150" cy="115" r="0.5">
<title>
hole:28
</title>
</circle>
<circle cx="186" cy="91" r="0.5">
<title>
hole:29
</title>
</circle>
<circle cx="176" cy="49" r="0.5">
<title>
hole:30
</title>
</circle>
<circle cx="174" cy="0" r="0.5">
<title>
hole:31
</title>
</circle>
<circle cx="123" cy="3" r="0.5">
<title>
hole:32
</title>
</circle>
<circle cx="127" cy="50" r="0.5">
<title>
hole:33
</title>
</circle>
<circle cx="88" cy="39" r="0.5">
<title>
hole:34
</title>
</circle>
<circle cx="75" cy="82" r="0.5">
<title>
hole:35
</title>
</circle>
<circle cx="76" cy="87" r="0.5">
<title>
hole:36
</title>
</circle>
<circle cx="95" cy="123" r="0.5">
<title>
hole:37
</title>
</circle>
<circle cx="71" cy="152" r="0.5">
<title>
hole:38
</title>
</circle>
<circle cx="84" cy="181" r="0.5">
<title>
hole:39
</title>
</circle>
<circle cx="73" cy="177" r="0.5">
<title>
hole:40
</title>
</circle>
<circle cx="48" cy="153" r="0.5">
<title>
hole:41
</title>
</circle>
<circle cx="19" cy="169" r="0.5">
<title>
hole:42
</title>
</circle>
<circle cx="25" cy="201" r="0.5">
<title>
hole:43
</title>
</circle>
<circle cx="21" cy="209" r="0.5">
<title>
hole:44
</title>
</circle>
<circle cx="21" cy="230" r="0.5">
<title>
hole:45
</title>
</circle>
<circle cx="52" cy="243" r="0.5">
<title>
hole:46
</title>
</circle>
<circle cx="72" cy="239" r="0.5">
<title>
hole:47
</title>
</circle>
<circle cx="39" cy="248" r="0.5">
<title>
hole:48
</title>
</circle>
<circle cx="8" cy="253" r="0.5">
<title>
hole:49
</title>
</circle>
</g>
<g fill="#999999">
<circle cx="41" cy="58" i="0" r="0.5" tabindex="0">
<title>
v:0
</title>
</circle>
<circle cx="28" cy="37" i="1" r="0.5" tabindex="1">
<title>
v:1
</title>
</circle>
<circle cx="61" cy="49" i="2" r="0.5" tabindex="2">
<title>
v:2
</title>
</circle>
<circle cx="51" cy="60" i="3" r="0.5" tabindex="3">
<title>
v:3
</title>
</circle>
<circle cx="26" cy="33" i="4" r="0.5" tabindex="4">
<title>
v:4
</title>
</circle>
<circle cx="68" cy="69" i="5" r="0.5" tabindex="5">
<title>
v:5
</title>
</circle>
<circle cx="32" cy="85" i="6" r="0.5" tabindex="6">
<title>
v:6
</title>
</circle>
<circle cx="51" cy="18" i="7" r="0.5" tabindex="7">
<title>
v:7
</title>
</circle>
<circle cx="76" cy="62" i="8" r="0.5" tabindex="8">
<title>
v:8
</title>
</circle>
<circle cx="67" cy="116" i="9" r="0.5" tabindex="9">
<title>
v:9
</title>
</circle>
<circle cx="59" cy="41" i="10" r="0.5" tabindex="10">
<title>
v:10
</title>
</circle>
<circle cx="52" cy="84" i="11" r="0.5" tabindex="11">
<title>
v:11
</title>
</circle>
<circle cx="44" cy="83" i="12" r="0.5" tabindex="12">
<title>
v:12
</title>
</circle>
<circle cx="66" cy="94" i="13" r="0.5" tabindex="13">
<title>
v:13
</title>
</circle>
<circle cx="92" cy="59" i="14" r="0.5" tabindex="14">
<title>
v:14
</title>
</circle>
<circle cx="80" cy="93" i="15" r="0.5" tabindex="15">
<title>
v:15
</title>
</circle>
<circle cx="61" cy="70" i="16" r="0.5" tabindex="16">
<title>
v:16
</title>
</circle>
<circle cx="15" cy="72" i="17" r="0.5" tabindex="17">
<title>
v:17
</title>
</circle>
<circle cx="38" cy="65" i="18" r="0.5" tabindex="18">
<title>
v:18
</title>
</circle>
<circle cx="70" cy="46" i="19" r="0.5" tabindex="19">
<title>
v:19
</title>
</circle>
<circle cx="51" cy="53" i="20" r="0.5" tabindex="20">
<title>
v:20
</title>
</circle>
<circle cx="46" cy="92" i="21" r="0.5" tabindex="21">
<title>
v:21
</title>
</circle>
<circle cx="31" cy="81" i="22" r="0.5" tabindex="22">
<title>
v:22
</title>
</circle>
<circle cx="48" cy="74" i="23" r="0.5" tabindex="23">
<title>
v:23
</title>
</circle>
<circle cx="63" cy="79" i="24" r="0.5" tabindex="24">
<title>
v:24
</title>
</circle>
<circle cx="25" cy="64" i="25" r="0.5" tabindex="25">
<title>
v:25
</title>
</circle>
<circle cx="5" cy="60" i="26" r="0.5" tabindex="26">
<title>
v:26
</title>
</circle>
<circle cx="50" cy="70" i="27" r="0.5" tabindex="27">
<title>
v:27
</title>
</circle>
<circle cx="2" cy="78" i="28" r="0.5" tabindex="28">
<title>
v:28
</title>
</circle>
<circle cx="76" cy="84" i="29" r="0.5" tabindex="29">
<title>
v:29
</title>
</circle>
<circle cx="54" cy="76" i="30" r="0.5" tabindex="30">
<title>
v:30
</title>
</circle>
<circle cx="42" cy="95" i="31" r="0.5" tabindex="31">
<title>
v:31
</title>
</circle>
<circle cx="41" cy="45" i="32" r="0.5" tabindex="32">
<title>
v:32
</title>
</circle>
<circle cx="58" cy="64" i="33" r="0.5" tabindex="33">
<title>
v:33
</title>
</circle>
<circle cx="48" cy="72" i="34" r="0.5" tabindex="34">
<title>
v:34
</title>
</circle>
<circle cx="60" cy="65" i="35" r="0.5" tabindex="35">
<title>
v:35
</title>
</circle>
<circle cx="93" cy="71" i="36" r="0.5" tabindex="36">
<title>
v:36
</title>
</circle>
<circle cx="46" cy="60" i="37" r="0.5" tabindex="37">
<title>
v:37
</title>
</circle>
<circle cx="20" cy="39" i="38" r="0.5" tabindex="38">
<title>
v:38
</title>
</circle>
<circle cx="24" cy="44" i="39" r="0.5" tabindex="39">
<title>
v:39
</title>
</circle>
<circle cx="74" cy="49" i="40" r="0.5" tabindex="40">
<title>
v:40
</title>
</circle>
<circle cx="71" cy="53" i="41" r="0.5" tabindex="41">
<title>
v:41
</title>
</circle>
<circle cx="45" cy="81" i="42" r="0.5" tabindex="42">
<title>
v:42
</title>
</circle>
<circle cx="48" cy="64" i="43" r="0.5" tabindex="43">
<title>
v:43
</title>
</circle>
<circle cx="53" cy="87" i="44" r="0.5" tabindex="44">
<title>
v:44
</title>
</circle>
<circle cx="49" cy="50" i="45" r="0.5" tabindex="45">
<title>
v:45
</title>
</circle>
<circle cx="72" cy="117" i="46" r="0.5" tabindex="46">
<title>
v:46
</title>
</circle>
<circle cx="49" cy="77" i="47" r="0.5" tabindex="47">
<title>
v:47
</title>
</circle>
<circle cx="61" cy="51" i="48" r="0.5" tabindex="48">
<title>
v:48
</title>
</circle>
<circle cx="73" cy="26" i="49" r="0.5" tabindex="49">
<title>
v:49
</title>
</circle>
<circle cx="43" cy="79" i="50" r="0.5" tabindex="50">
<title>
v:50
</title>
</circle>
<circle cx="27" cy="48" i="51" r="0.5" tabindex="51">
<title>
v:51
</title>
</circle>
<circle cx="72" cy="51" i="52" r="0.5" tabindex="52">
<title>
v:52
</title>
</circle>
<circle cx="66" cy="50" i="53" r="0.5" tabindex="53">
<title>
v:53
</title>
</circle>
<circle cx="55" cy="92" i="54" r="0.5" tabindex="54">
<title>
v:54
</title>
</circle>
<circle cx="81" cy="94" i="55" r="0.5" tabindex="55">
<title>
v:55
</title>
</circle>
<circle cx="46" cy="74" i="56" r="0.5" tabindex="56">
<title>
v:56
</title>
</circle>
<circle cx="49" cy="76" i="57" r="0.5" tabindex="57">
<title>
v:57
</title>
</circle>
<circle cx="47" cy="68" i="58" r="0.5" tabindex="58">
<title>
v:58
</title>
</circle>
<circle cx="78" cy="74" i="59" r="0.5" tabindex="59">
<title>
v:59
</title>
</circle>
<circle cx="41" cy="57" i="60" r="0.5" tabindex="60">
<title>
v:60
</title>
</circle>
<circle cx="75" cy="74" i="61" r="0.5" tabindex="61">
<title>
v:61
</title>
</circle>
<circle cx="62" cy="51" i="62" r="0.5" tabindex="62">
<title>
v:62
</title>
</circle>
<circle cx="66" cy="80" i="63" r="0.5" tabindex="63">
<title>
v:63
</title>
</circle>
<circle cx="62" cy="81" i="64" r="0.5" tabindex="64">
<title>
v:64
</title>
</circle>
<circle cx="82" cy="82" i="65" r="0.5" tabindex="65">
<title>
v:65
</title>
</circle>
<circle cx="20" cy="75" i="66" r="0.5" tabindex="66">
<title>
v:66
</title>
</circle>
<circle cx="74" cy="78" i="67" r="0.5" tabindex="67">
<title>
v:67
</title>
</circle>
<circle cx="73" cy="49" i="68" r="0.5" tabindex="68">
<title>
v:68
</title>
</circle>
<circle cx="93" cy="44" i="69" r="0.5" tabindex="69">
<title>
v:69
</title>
</circle>
<circle cx="93" cy="59" i="70" r="0.5" tabindex="70">
<title>
v:70
</title>
</circle>
<circle cx="69" cy="90" i="71" r="0.5" tabindex="71">
<title>
v:71
</title>
</circle>
<circle cx="47" cy="65" i="72" r="0.5" tabindex="72">
<title>
v:72
</title>
</circle>
<circle cx="41" cy="89" i="73" r="0.5" tabindex="73">
<title>
v:73
</title>
</circle>
<circle cx="72" cy="50" i="74" r="0.5" tabindex="74">
<title>
v:74
</title>
</circle>
<circle cx="63" cy="108" i="75" r="0.5" tabindex="75">
<title>
v:75
</title>
</circle>
<circle cx="102" cy="73" i="76" r="0.5" tabindex="76">
<title>
v:76
</title>
</circle>
<circle cx="91" cy="56" i="77" r="0.5" tabindex="77">
<title>
v:77
</title>
</circle>
<circle cx="72" cy="53" i="78" r="0.5" tabindex="78">
<title>
v:78
</title>
</circle>
<circle cx="76" cy="0" i="79" r="0.5" tabindex="79">
<title>
v:79
</title>
</circle>
<circle cx="66" cy="48" i="80" r="0.5" tabindex="80">
<title>
v:80
</title>
</circle>
<circle cx="76" cy="81" i="81" r="0.5" tabindex="81">
<title>
v:81
</title>
</circle>
<circle cx="62" cy="91" i="82" r="0.5" tabindex="82">
<title>
v:82
</title>
</circle>
<circle cx="110" cy="81" i="83" r="0.5" tabindex="83">
<title>
v:83
</title>
</circle>
<circle cx="100" cy="60" i="84" r="0.5" tabindex="84">
<title>
v:84
</title>
</circle>
<circle cx="74" cy="79" i="85" r="0.5" tabindex="85">
<title>
v:85
</title>
</circle>
<circle cx="107" cy="42" i="86" r="0.5" tabindex="86">
<title>
v:86
</title>
</circle>
<circle cx="81" cy="84" i="87" r="0.5" tabindex="87">
<title>
v:87
</title>
</circle>
<circle cx="50" cy="87" i="88" r="0.5" tabindex="88">
<title>
v:88
</title>
</circle>
<circle cx="102" cy="72" i="89" r="0.5" tabindex="89">
<title>
v:89
</title>
</circle>
<circle cx="134" cy="60" i="90" r="0.5" tabindex="90">
<title>
v:90
</title>
</circle>
<circle cx="69" cy="112" i="91" r="0.5" tabindex="91">
<title>
v:91
</title>
</circle>
</g>
</svg>