<svg height="500" viewBox="-2 -2 304 349" width="500" xmlns="http://www.w3.org/2000/svg">
<path class="hole" d="M0 49L29 73L54 90L65 121L59 169L63 202L36 231L17 251L42 267L49 281L31 318L56 282L43 317L30 345L57 319L85 289L95 271L111 310L141 275L185 287L225 301L266 319L255 278L215 253L172 243L133 217L120 197L124 166L119 138L97 119L119 93L154 67L187 50L159 22L130 54L99 54L108 22L125 0L95 0L83 28L65 58L31 56M-2 -2L302 -2L302 347L-2 347" style="fill:#00000066;fill-rule:evenodd;stroke:none;"/>
<path class="ok" d="M49 71L63 102M63 102L70 131M63 102L94 92M63 102L97 98M69 163L70 131M69 163L94 172M70 131L102 125M71 49L108 66M94 172L116 152M97 98L108 66M97 98L123 85M97 155L102 125M102 125L116 152M114 188L116 152" style="fill:none;stroke:#0000ff;stroke-linecap:round"/>
<path class="short" d="" style="fill:none;stroke:#00ff99;stroke-linecap:round"/>
<path class="long" d="" style="fill:none;stroke:#ff0099;stroke-linecap:round"/>
<path class="out" d="M0 65L14 38M0 65L22 86M7 142L20 171M7 142L32 119M14 38L42 39M20 171L57 165M22 86L32 119M22 86L49 71M32 119L62 135M32 119L63 102M42 39L49 71M49 71L71 49M57 165L62 135M62 135L63 102M62 135L93 147M71 49L77 7M77 7L116 0M93 147L113 123M94 92L113 123M97 98L102 125M97 155L131 158M102 125L122 94M102 125L134 128M108 66L135 32M114 188L153 195M116 0L135 32M116 152L151 140M122 94L151 106M123 85L144 104M131 158L134 128M134 128L144 104M146 202L174 172M146 202L175 232M151 106L151 140M151 106L181 123M151 140L166 100M151 140L174 172M151 140L181 123M151 140L191 137M153 195L174 172M153 195L175 212M166 100L191 137M166 100L194 62M174 172L191 137M174 172L199 194M174 172L204 199M175 212L199 194M175 232L204 199M191 137L202 180M191 137L233 142M191 137L234 125M194 62L229 35M194 62L236 79M202 180L246 169M204 199L223 231M204 199L237 183M223 231L251 218M229 35L236 79M229 35L271 14M233 142L237 183M234 125L236 79M234 125L246 169M234 125L278 141M236 79L278 85M237 183L251 218M246 169L278 141M271 14L300 46M278 85L300 46" style="fill:none;stroke:#ff0000;stroke-linecap:round"/>
</svg>