<svg height="500" viewBox="0 -2 304 349" width="500" xmlns="http://www.w3.org/2000/svg">
<path class="hole" d="M2 49L31 73L56 90L67 121L61 169L65 202L38 231L19 251L44 267L51 281L33 318L58 282L45 317L32 345L59 319L87 289L97 271L113 310L143 275L187 287L227 301L268 319L257 278L217 253L174 243L135 217L122 197L126 166L121 138L99 119L121 93L156 67L189 50L161 22L132 54L101 54L110 22L127 0L97 0L85 28L67 58L33 56M0 -2L304 -2L304 347L0 347" style="fill:#00000066;fill-rule:evenodd;"/>
<circle cx="145" cy="246" fill="#ffff0066" r="5">
<title>
BreakALeg@42
</title>
</circle>
<circle cx="212" cy="279" fill="#ffff0066" r="5">
<title>
WallHack@49
</title>
</circle>
<circle cx="119" cy="285" fill="#ffff0066" r="5">
<title>
Globalist@62
</title>
</circle>
<path class="ok" d="M51 71L65 102M65 102L72 131M65 102L96 92M65 102L99 98M71 163L72 131M71 163L96 172M72 131L104 125M73 49L110 66M96 172L118 152M99 98L110 66M99 98L125 85M99 155L104 125M104 125L118 152M116 188L118 152" style="stroke:#0000ff;stroke-linecap:round"/>
<path class="out" d="M2 65L16 38M2 65L24 86M9 142L22 171M9 142L34 119M16 38L44 39M22 171L59 165M24 86L34 119M24 86L51 71M34 119L64 135M34 119L65 102M44 39L51 71M51 71L73 49M59 165L64 135M64 135L65 102M64 135L95 147M73 49L79 7M79 7L118 0M95 147L115 123M96 92L115 123M99 98L104 125M99 155L133 158M104 125L124 94M104 125L136 128M110 66L137 32M116 188L155 195M118 0L137 32M118 152L153 140M124 94L153 106M125 85L146 104M133 158L136 128M136 128L146 104M148 202L176 172M148 202L177 232M153 106L153 140M153 106L183 123M153 140L168 100M153 140L176 172M153 140L183 123M153 140L193 137M155 195L176 172M155 195L177 212M168 100L193 137M168 100L196 62M176 172L193 137M176 172L201 194M176 172L206 199M177 212L201 194M177 232L206 199M193 137L204 180M193 137L235 142M193 137L236 125M196 62L231 35M196 62L238 79M204 180L248 169M206 199L225 231M206 199L239 183M225 231L253 218M231 35L238 79M231 35L273 14M235 142L239 183M236 125L238 79M236 125L248 169M236 125L280 141M238 79L280 85M239 183L253 218M248 169L280 141M273 14L302 46M280 85L302 46" style="stroke:#ff0000;stroke-linecap:round"/>
<g fill="#333333">
<circle cx="2" cy="49" r="0.5">
<title>
hole:0
</title>
</circle>
<circle cx="31" cy="73" r="0.5">
<title>
hole:1
</title>
</circle>
<circle cx="56" cy="90" r="0.5">
<title>
hole:2
</title>
</circle>
<circle cx="67" cy="121" r="0.5">
<title>
hole:3
</title>
</circle>
<circle cx="61" cy="169" r="0.5">
<title>
hole:4
</title>
</circle>
<circle cx="65" cy="202" r="0.5">
<title>
hole:5
</title>
</circle>
<circle cx="38" cy="231" r="0.5">
<title>
hole:6
</title>
</circle>
<circle cx="19" cy="251" r="0.5">
<title>
hole:7
</title>
</circle>
<circle cx="44" cy="267" r="0.5">
<title>
hole:8
</title>
</circle>
<circle cx="51" cy="281" r="0.5">
<title>
hole:9
</title>
</circle>
<circle cx="33" cy="318" r="0.5">
<title>
hole:10
</title>
</circle>
<circle cx="58" cy="282" r="0.5">
<title>
hole:11
</title>
</circle>
<circle cx="45" cy="317" r="0.5">
<title>
hole:12
</title>
</circle>
<circle cx="32" cy="345" r="0.5">
<title>
hole:13
</title>
</circle>
<circle cx="59" cy="319" r="0.5">
<title>
hole:14
</title>
</circle>
<circle cx="87" cy="289" r="0.5">
<title>
hole:15
</title>
</circle>
<circle cx="97" cy="271" r="0.5">
<title>
hole:16
</title>
</circle>
<circle cx="113" cy="310" r="0.5">
<title>
hole:17
</title>
</circle>
<circle cx="143" cy="275" r="0.5">
<title>
hole:18
</title>
</circle>
<circle cx="187" cy="287" r="0.5">
<title>
hole:19
</title>
</circle>
<circle cx="227" cy="301" r="0.5">
<title>
hole:20
</title>
</circle>
<circle cx="268" cy="319" r="0.5">
<title>
hole:21
</title>
</circle>
<circle cx="257" cy="278" r="0.5">
<title>
hole:22
</title>
</circle>
<circle cx="217" cy="253" r="0.5">
<title>
hole:23
</title>
</circle>
<circle cx="174" cy="243" r="0.5">
<title>
hole:24
</title>
</circle>
<circle cx="135" cy="217" r="0.5">
<title>
hole:25
</title>
</circle>
<circle cx="122" cy="197" r="0.5">
<title>
hole:26
</title>
</circle>
<circle cx="126" cy="166" r="0.5">
<title>
hole:27
</title>
</circle>
<circle cx="121" cy="138" r="0.5">
<title>
hole:28
</title>
</circle>
<circle cx="99" cy="119" r="0.5">
<title>
hole:29
</title>
</circle>
<circle cx="121" cy="93" r="0.5">
<title>
hole:30
</title>
</circle>
<circle cx="156" cy="67" r="0.5">
<title>
hole:31
</title>
</circle>
<circle cx="189" cy="50" r="0.5">
<title>
hole:32
</title>
</circle>
<circle cx="161" cy="22" r="0.5">
<title>
hole:33
</title>
</circle>
<circle cx="132" cy="54" r="0.5">
<title>
hole:34
</title>
</circle>
<circle cx="101" cy="54" r="0.5">
<title>
hole:35
</title>
</circle>
<circle cx="110" cy="22" r="0.5">
<title>
hole:36
</title>
</circle>
<circle cx="127" cy="0" r="0.5">
<title>
hole:37
</title>
</circle>
<circle cx="97" cy="0" r="0.5">
<title>
hole:38
</title>
</circle>
<circle cx="85" cy="28" r="0.5">
<title>
hole:39
</title>
</circle>
<circle cx="67" cy="58" r="0.5">
<title>
hole:40
</title>
</circle>
<circle cx="33" cy="56" r="0.5">
<title>
hole:41
</title>
</circle>
</g>
<g fill="#999999">
<circle cx="2" cy="65" i="0" r="0.5" tabindex="0">
<title>
v:0
</title>
</circle>
<circle cx="9" cy="142" i="1" r="0.5" tabindex="1">
<title>
v:1
</title>
</circle>
<circle cx="16" cy="38" i="2" r="0.5" tabindex="2">
<title>
v:2
</title>
</circle>
<circle cx="22" cy="171" i="3" r="0.5" tabindex="3">
<title>
v:3
</title>
</circle>
<circle cx="24" cy="86" i="4" r="0.5" tabindex="4">
<title>
v:4
</title>
</circle>
<circle cx="34" cy="119" i="5" r="0.5" tabindex="5">
<title>
v:5
</title>
</circle>
<circle cx="44" cy="39" i="6" r="0.5" tabindex="6">
<title>
v:6
</title>
</circle>
<circle cx="51" cy="71" i="7" r="0.5" tabindex="7">
<title>
v:7
</title>
</circle>
<circle cx="59" cy="165" i="8" r="0.5" tabindex="8">
<title>
v:8
</title>
</circle>
<circle cx="64" cy="135" i="9" r="0.5" tabindex="9">
<title>
v:9
</title>
</circle>
<circle cx="65" cy="102" i="10" r="0.5" tabindex="10">
<title>
v:10
</title>
</circle>
<circle cx="71" cy="163" i="11" r="0.5" tabindex="11">
<title>
v:11
</title>
</circle>
<circle cx="72" cy="131" i="12" r="0.5" tabindex="12">
<title>
v:12
</title>
</circle>
<circle cx="73" cy="49" i="13" r="0.5" tabindex="13">
<title>
v:13
</title>
</circle>
<circle cx="79" cy="7" i="14" r="0.5" tabindex="14">
<title>
v:14
</title>
</circle>
<circle cx="95" cy="147" i="15" r="0.5" tabindex="15">
<title>
v:15
</title>
</circle>
<circle cx="96" cy="92" i="16" r="0.5" tabindex="16">
<title>
v:16
</title>
</circle>
<circle cx="96" cy="172" i="17" r="0.5" tabindex="17">
<title>
v:17
</title>
</circle>
<circle cx="99" cy="98" i="18" r="0.5" tabindex="18">
<title>
v:18
</title>
</circle>
<circle cx="99" cy="155" i="19" r="0.5" tabindex="19">
<title>
v:19
</title>
</circle>
<circle cx="104" cy="125" i="20" r="0.5" tabindex="20">
<title>
v:20
</title>
</circle>
<circle cx="110" cy="66" i="21" r="0.5" tabindex="21">
<title>
v:21
</title>
</circle>
<circle cx="115" cy="123" i="22" r="0.5" tabindex="22">
<title>
v:22
</title>
</circle>
<circle cx="116" cy="188" i="23" r="0.5" tabindex="23">
<title>
v:23
</title>
</circle>
<circle cx="118" cy="0" i="24" r="0.5" tabindex="24">
<title>
v:24
</title>
</circle>
<circle cx="118" cy="152" i="25" r="0.5" tabindex="25">
<title>
v:25
</title>
</circle>
<circle cx="124" cy="94" i="26" r="0.5" tabindex="26">
<title>
v:26
</title>
</circle>
<circle cx="125" cy="85" i="27" r="0.5" tabindex="27">
<title>
v:27
</title>
</circle>
<circle cx="133" cy="158" i="28" r="0.5" tabindex="28">
<title>
v:28
</title>
</circle>
<circle cx="136" cy="128" i="29" r="0.5" tabindex="29">
<title>
v:29
</title>
</circle>
<circle cx="137" cy="32" i="30" r="0.5" tabindex="30">
<title>
v:30
</title>
</circle>
<circle cx="146" cy="104" i="31" r="0.5" tabindex="31">
<title>
v:31
</title>
</circle>
<circle cx="148" cy="202" i="32" r="0.5" tabindex="32">
<title>
v:32
</title>
</circle>
<circle cx="153" cy="106" i="33" r="0.5" tabindex="33">
<title>
v:33
</title>
</circle>
<circle cx="153" cy="140" i="34" r="0.5" tabindex="34">
<title>
v:34
</title>
</circle>
<circle cx="155" cy="195" i="35" r="0.5" tabindex="35">
<title>
v:35
</title>
</circle>
<circle cx="168" cy="100" i="36" r="0.5" tabindex="36">
<title>
v:36
</title>
</circle>
<circle cx="176" cy="172" i="37" r="0.5" tabindex="37">
<title>
v:37
</title>
</circle>
<circle cx="177" cy="212" i="38" r="0.5" tabindex="38">
<title>
v:38
</title>
</circle>
<circle cx="177" cy="232" i="39" r="0.5" tabindex="39">
<title>
v:39
</title>
</circle>
<circle cx="183" cy="123" i="40" r="0.5" tabindex="40">
<title>
v:40
</title>
</circle>
<circle cx="193" cy="137" i="41" r="0.5" tabindex="41">
<title>
v:41
</title>
</circle>
<circle cx="196" cy="62" i="42" r="0.5" tabindex="42">
<title>
v:42
</title>
</circle>
<circle cx="201" cy="194" i="43" r="0.5" tabindex="43">
<title>
v:43
</title>
</circle>
<circle cx="204" cy="180" i="44" r="0.5" tabindex="44">
<title>
v:44
</title>
</circle>
<circle cx="206" cy="199" i="45" r="0.5" tabindex="45">
<title>
v:45
</title>
</circle>
<circle cx="225" cy="231" i="46" r="0.5" tabindex="46">
<title>
v:46
</title>
</circle>
<circle cx="231" cy="35" i="47" r="0.5" tabindex="47">
<title>
v:47
</title>
</circle>
<circle cx="235" cy="142" i="48" r="0.5" tabindex="48">
<title>
v:48
</title>
</circle>
<circle cx="236" cy="125" i="49" r="0.5" tabindex="49">
<title>
v:49
</title>
</circle>
<circle cx="238" cy="79" i="50" r="0.5" tabindex="50">
<title>
v:50
</title>
</circle>
<circle cx="239" cy="183" i="51" r="0.5" tabindex="51">
<title>
v:51
</title>
</circle>
<circle cx="248" cy="169" i="52" r="0.5" tabindex="52">
<title>
v:52
</title>
</circle>
<circle cx="253" cy="218" i="53" r="0.5" tabindex="53">
<title>
v:53
</title>
</circle>
<circle cx="273" cy="14" i="54" r="0.5" tabindex="54">
<title>
v:54
</title>
</circle>
<circle cx="280" cy="85" i="55" r="0.5" tabindex="55">
<title>
v:55
</title>
</circle>
<circle cx="280" cy="141" i="56" r="0.5" tabindex="56">
<title>
v:56
</title>
</circle>
<circle cx="302" cy="46" i="57" r="0.5" tabindex="57">
<title>
v:57
</title>
</circle>
</g>
</svg>