<svg viewBox="0 0 113 82" width="500" xmlns="http://www.w3.org/2000/svg">
<polygon fill="grey" points="23,17 3,18 0,35 0,52 14,59 0,80 25,81 46,79 39,58 50,46 60,69 68,82 83,82 102,70 113,48 108,31 92,49 79,54 68,42 59,29 69,17 92,21 105,3 81,0 59,0 45,22 38,0 "/>
<path d="M10 41L12 66M10 41L23 24M12 66L37 64M23 24L45 41M37 64L45 41M37 64L62 72M45 17L45 41M45 17L67 10M45 41L67 48M62 72L67 48M67 10L81 29M67 48L81 29M67 48L88 58M81 29L103 45M88 58L103 45" style="fill:none;stroke:#ff0000;stroke-linecap:round"/>
</svg>