<svg height="500" viewBox="-2 -2 64 94" width="500" xmlns="http://www.w3.org/2000/svg">
<path class="hole" d="M0 49L8 55L27 46L37 46L32 36L41 29L33 0L26 9L15 17L21 25L8 35L18 35L24 36L22 36M-2 -2L62 -2L62 92L-2 92" style="fill:#00000066;fill-rule:evenodd;stroke:none;"/>
<path class="ok" d="M20 30L25 20M25 20L30 10M25 20L35 20M30 10L35 20" style="fill:none;stroke:#0000ff;stroke-linecap:round"/>
<path class="short" d="" style="fill:none;stroke:#00ff99;stroke-linecap:round"/>
<path class="long" d="" style="fill:none;stroke:#ff0099;stroke-linecap:round"/>
<path class="out" d="M0 25L0 35M0 25L25 20M0 35L20 30M10 90L20 60M10 90L20 90M20 10L25 0M20 10L25 20M20 10L30 10M20 30L20 60M20 60L30 65M20 90L30 65M25 0L30 10M25 0L35 0M30 10L35 0M30 10L40 10M30 65L40 60M30 65L40 90M35 0L40 10M35 20L40 10M35 20L40 30M35 20L60 25M40 30L40 60M40 30L60 35M40 60L50 90M40 90L50 90M60 25L60 35" style="fill:none;stroke:#ff0000;stroke-linecap:round"/>
</svg>