<svg height="500" viewBox="-2 -2 64 94" width="500" xmlns="http://www.w3.org/2000/svg">
<path class="hole" d="M2 49L10 55L29 46L39 46L34 36L43 29L35 0L28 9L17 17L23 25L10 35L20 35L26 36L24 36M-2 -2L62 -2L62 92L-2 92" style="fill:#00000066;fill-rule:evenodd;"/>
<circle cx="10" cy="45" r="5" style="fill:#ffff0066;" title="Globalist"/>
<path class="ok" d="M25 20L30 10M25 20L35 20M30 10L35 0M30 10L35 20M35 20L40 30" style="stroke:#0000ff;stroke-linecap:round"/>
<path class="out" d="M0 25L0 35M0 25L25 20M0 35L20 30M10 90L20 60M10 90L20 90M20 10L25 0M20 10L25 20M20 10L30 10M20 30L20 60M20 30L25 20M20 60L30 65M20 90L30 65M25 0L30 10M25 0L35 0M30 10L40 10M30 65L40 60M30 65L40 90M35 0L40 10M35 20L40 10M35 20L60 25M40 30L40 60M40 30L60 35M40 60L50 90M40 90L50 90M60 25L60 35" style="stroke:#ff0000;stroke-linecap:round"/>
<g fill="#333333">
<circle cx="2" cy="49" r="0.5" tabindex="0">
<title>
hole:0
</title>
</circle>
<circle cx="10" cy="55" r="0.5" tabindex="1">
<title>
hole:1
</title>
</circle>
<circle cx="29" cy="46" r="0.5" tabindex="2">
<title>
hole:2
</title>
</circle>
<circle cx="39" cy="46" r="0.5" tabindex="3">
<title>
hole:3
</title>
</circle>
<circle cx="34" cy="36" r="0.5" tabindex="4">
<title>
hole:4
</title>
</circle>
<circle cx="43" cy="29" r="0.5" tabindex="5">
<title>
hole:5
</title>
</circle>
<circle cx="35" cy="0" r="0.5" tabindex="6">
<title>
hole:6
</title>
</circle>
<circle cx="28" cy="9" r="0.5" tabindex="7">
<title>
hole:7
</title>
</circle>
<circle cx="17" cy="17" r="0.5" tabindex="8">
<title>
hole:8
</title>
</circle>
<circle cx="23" cy="25" r="0.5" tabindex="9">
<title>
hole:9
</title>
</circle>
<circle cx="10" cy="35" r="0.5" tabindex="10">
<title>
hole:10
</title>
</circle>
<circle cx="20" cy="35" r="0.5" tabindex="11">
<title>
hole:11
</title>
</circle>
<circle cx="26" cy="36" r="0.5" tabindex="12">
<title>
hole:12
</title>
</circle>
<circle cx="24" cy="36" r="0.5" tabindex="13">
<title>
hole:13
</title>
</circle>
</g>
<g fill="#999999">
<circle cx="0" cy="25" r="0.5" tabindex="14">
<title>
v:0
</title>
</circle>
<circle cx="0" cy="35" r="0.5" tabindex="15">
<title>
v:1
</title>
</circle>
<circle cx="10" cy="90" r="0.5" tabindex="16">
<title>
v:2
</title>
</circle>
<circle cx="20" cy="10" r="0.5" tabindex="17">
<title>
v:3
</title>
</circle>
<circle cx="20" cy="30" r="0.5" tabindex="18">
<title>
v:4
</title>
</circle>
<circle cx="20" cy="60" r="0.5" tabindex="19">
<title>
v:5
</title>
</circle>
<circle cx="20" cy="90" r="0.5" tabindex="20">
<title>
v:6
</title>
</circle>
<circle cx="25" cy="0" r="0.5" tabindex="21">
<title>
v:7
</title>
</circle>
<circle cx="25" cy="20" r="0.5" tabindex="22">
<title>
v:8
</title>
</circle>
<circle cx="30" cy="10" r="0.5" tabindex="23">
<title>
v:9
</title>
</circle>
<circle cx="30" cy="65" r="0.5" tabindex="24">
<title>
v:10
</title>
</circle>
<circle cx="35" cy="0" r="0.5" tabindex="25">
<title>
v:11
</title>
</circle>
<circle cx="35" cy="20" r="0.5" tabindex="26">
<title>
v:12
</title>
</circle>
<circle cx="40" cy="10" r="0.5" tabindex="27">
<title>
v:13
</title>
</circle>
<circle cx="40" cy="30" r="0.5" tabindex="28">
<title>
v:14
</title>
</circle>
<circle cx="40" cy="60" r="0.5" tabindex="29">
<title>
v:15
</title>
</circle>
<circle cx="40" cy="90" r="0.5" tabindex="30">
<title>
v:16
</title>
</circle>
<circle cx="50" cy="90" r="0.5" tabindex="31">
<title>
v:17
</title>
</circle>
<circle cx="60" cy="25" r="0.5" tabindex="32">
<title>
v:18
</title>
</circle>
<circle cx="60" cy="35" r="0.5" tabindex="33">
<title>
v:19
</title>
</circle>
</g>
</svg>