<svg viewBox="0 0 41 55" width="500" xmlns="http://www.w3.org/2000/svg">
<polygon fill="grey" points="0,49 8,55 27,46 37,46 32,36 41,29 33,0 26,9 15,17 21,25 8,35 18,35 24,36 22,36 "/>
<path d="M0 25L0 35M0 25L25 20M0 35L20 30M10 90L20 60M10 90L20 90M20 10L25 0M20 10L25 20M20 10L30 10M20 30L20 60M20 30L25 20M20 60L30 65M20 90L30 65M25 0L30 10M25 0L35 0M25 20L30 10M25 20L35 20M30 10L35 0M30 10L35 20M30 10L40 10M30 65L40 60M30 65L40 90M35 0L40 10M35 20L40 10M35 20L40 30M35 20L60 25M40 30L40 60M40 30L60 35M40 60L50 90M40 90L50 90M60 25L60 35" style="fill:none;stroke:#ff0000;stroke-linecap:round"/>
</svg>