<svg viewBox="0 0 355 368" width="500" xmlns="http://www.w3.org/2000/svg">
<polygon fill="grey" points="0,87 18,116 59,105 60,138 20,126 30,168 68,176 97,150 114,168 122,175 127,210 166,217 157,244 184,238 194,267 224,262 279,254 280,269 269,307 245,330 281,340 302,368 331,358 331,325 301,314 316,280 341,246 318,217 307,180 310,145 345,157 355,122 322,110 315,72 302,37 280,0 261,42 231,22 203,45 215,78 251,76 286,97 274,132 259,102 225,108 203,114 191,112 201,80 194,43 155,47 151,21 120,6 103,39 89,74 60,66 25,52 "/>
<path d="M41 44L75 42M41 44L72 14M75 42L81 84M17 64L9 107M17 64L49 91M72 14L61 50M9 107L49 91M9 107L17 69M81 84L61 50M81 84L49 91M81 84L42 82M61 50L42 82M49 91L17 69M49 91L53 53M36 31L6 18M36 31L66 36M17 69L53 53M6 18L14 51M66 36L78 0M66 36L33 24M42 82L14 51M74 37L37 35M74 37L42 58M53 53L14 51M53 53L18 59M78 0L68 36M78 0L66 35M37 35L0 35M14 51L33 24M14 51L33 21M61 50L33 24M61 50L66 86M42 58L33 21M68 36L79 68M33 24L66 35M33 24L42 58M33 24L61 48M18 59L52 51M18 59L55 49M52 51L92 49M66 35L79 68M66 35L42 58M0 35L33 21M0 35L43 40M33 21L55 49M33 21L61 48M33 21L70 7M66 86L61 48M66 86L100 106M55 49L71 19M55 49L89 52M90 77L92 49M90 77L67 62M61 48L101 69M61 48L70 7M61 48L66 90M92 49L71 19M92 49L67 62M45 22L21 52M45 22L22 44M21 52L48 40M21 52L58 51M71 19L89 52M71 19L95 47M71 19L58 51M71 19L36 31M67 62L84 36M67 62L44 82M48 40L80 24M101 69L66 90M89 52L112 24M89 52L77 18M43 40L84 42M70 7L84 42M100 106L66 90M84 36L71 63M22 44L58 51M62 66L31 50M62 66L58 30M112 24L77 18M95 47L58 51M58 51L44 82M58 51L80 24M58 51L24 54M36 31L63 45M36 31L61 54M44 82L71 63M44 82L24 54M44 82L64 106M31 50L61 30M61 62L68 27M61 62L93 51M80 24L93 51M71 63L92 86M68 27L39 46M77 18L61 54M58 30L69 65M63 45L54 77M63 45L95 55M61 54L95 55M24 54L57 65M24 54L57 64M64 106L92 86M54 77L61 44M60 27L60 60M60 27L28 46M61 30L69 65M61 30L94 55M93 51L57 64M93 51L68 28M39 46L68 28M69 65L89 106M69 65L110 68M95 55L86 23M57 65L56 29M60 60L38 27M60 60L28 46M60 60L33 79M57 64L79 33M57 64L56 29M57 64L18 67M68 28L94 55M68 28L30 34M61 44L86 23M89 106L110 68M38 27L79 33M38 27L63 56M79 33L57 64M28 46L33 79M28 46L59 30M94 55L80 90M94 55L56 60M33 79L63 56M33 79L52 53M110 68L80 90M59 30L85 47M18 67L30 34M18 67L57 64M30 34L56 60M30 34L54 62M80 90L56 60M63 56L20 57M57 64L20 57M56 60L90 68M52 53L85 47M54 62L90 68" style="fill:none;stroke:#ff0000;stroke-linecap:round"/>
</svg>