<svg height="500" viewBox="-2 -2 361 372" width="500" xmlns="http://www.w3.org/2000/svg">
<path class="hole" d="M2 87L20 116L61 105L62 138L22 126L32 168L70 176L99 150L116 168L124 175L129 210L168 217L159 244L186 238L196 267L226 262L281 254L282 269L271 307L247 330L283 340L304 368L333 358L333 325L303 314L318 280L343 246L320 217L309 180L312 145L347 157L357 122L324 110L317 72L304 37L282 0L263 42L233 22L205 45L217 78L253 76L288 97L276 132L261 102L227 108L205 114L193 112L203 80L196 43L157 47L153 21L122 6L105 39L91 74L62 66L27 52M-2 -2L359 -2L359 370L-2 370" style="fill:#00000066;fill-rule:evenodd;"/>
<circle cx="35" cy="85" r="5" style="fill:#ffff0066;" title="BreakALeg"/>
<circle cx="284" cy="66" r="5" style="fill:#ffff0066;" title="WallHack"/>
<path class="ok" d="M81 84L49 91M81 84L42 82M49 91L17 69M66 86L100 106M101 69L66 90M100 106L66 90M44 82L64 106M64 106L92 86M57 64L18 67M89 106L110 68M110 68L80 90M18 67L57 64" style="stroke:#0000ff;stroke-linecap:round"/>
<path class="out" d="M41 44L75 42M41 44L72 14M75 42L81 84M17 64L9 107M17 64L49 91M72 14L61 50M9 107L49 91M9 107L17 69M81 84L61 50M61 50L42 82M49 91L53 53M36 31L6 18M36 31L66 36M17 69L53 53M6 18L14 51M66 36L78 0M66 36L33 24M42 82L14 51M74 37L37 35M74 37L42 58M53 53L14 51M53 53L18 59M78 0L68 36M78 0L66 35M37 35L0 35M14 51L33 24M14 51L33 21M61 50L33 24M61 50L66 86M42 58L33 21M68 36L79 68M33 24L66 35M33 24L42 58M33 24L61 48M18 59L52 51M18 59L55 49M52 51L92 49M66 35L79 68M66 35L42 58M0 35L33 21M0 35L43 40M33 21L55 49M33 21L61 48M33 21L70 7M66 86L61 48M55 49L71 19M55 49L89 52M90 77L92 49M90 77L67 62M61 48L101 69M61 48L70 7M61 48L66 90M92 49L71 19M92 49L67 62M45 22L21 52M45 22L22 44M21 52L48 40M21 52L58 51M71 19L89 52M71 19L95 47M71 19L58 51M71 19L36 31M67 62L84 36M67 62L44 82M48 40L80 24M89 52L112 24M89 52L77 18M43 40L84 42M70 7L84 42M84 36L71 63M22 44L58 51M62 66L31 50M62 66L58 30M112 24L77 18M95 47L58 51M58 51L44 82M58 51L80 24M58 51L24 54M36 31L63 45M36 31L61 54M44 82L71 63M44 82L24 54M31 50L61 30M61 62L68 27M61 62L93 51M80 24L93 51M71 63L92 86M68 27L39 46M77 18L61 54M58 30L69 65M63 45L54 77M63 45L95 55M61 54L95 55M24 54L57 65M24 54L57 64M54 77L61 44M60 27L60 60M60 27L28 46M61 30L69 65M61 30L94 55M93 51L57 64M93 51L68 28M39 46L68 28M69 65L89 106M69 65L110 68M95 55L86 23M57 65L56 29M60 60L38 27M60 60L28 46M60 60L33 79M57 64L79 33M57 64L56 29M68 28L94 55M68 28L30 34M61 44L86 23M38 27L79 33M38 27L63 56M79 33L57 64M28 46L33 79M28 46L59 30M94 55L80 90M94 55L56 60M33 79L63 56M33 79L52 53M59 30L85 47M18 67L30 34M30 34L56 60M30 34L54 62M80 90L56 60M63 56L20 57M57 64L20 57M56 60L90 68M52 53L85 47M54 62L90 68" style="stroke:#ff0000;stroke-linecap:round"/>
<g fill="#333333">
<circle cx="2" cy="87" r="0.5" tabindex="0">
<title>
hole:0
</title>
</circle>
<circle cx="20" cy="116" r="0.5" tabindex="1">
<title>
hole:1
</title>
</circle>
<circle cx="61" cy="105" r="0.5" tabindex="2">
<title>
hole:2
</title>
</circle>
<circle cx="62" cy="138" r="0.5" tabindex="3">
<title>
hole:3
</title>
</circle>
<circle cx="22" cy="126" r="0.5" tabindex="4">
<title>
hole:4
</title>
</circle>
<circle cx="32" cy="168" r="0.5" tabindex="5">
<title>
hole:5
</title>
</circle>
<circle cx="70" cy="176" r="0.5" tabindex="6">
<title>
hole:6
</title>
</circle>
<circle cx="99" cy="150" r="0.5" tabindex="7">
<title>
hole:7
</title>
</circle>
<circle cx="116" cy="168" r="0.5" tabindex="8">
<title>
hole:8
</title>
</circle>
<circle cx="124" cy="175" r="0.5" tabindex="9">
<title>
hole:9
</title>
</circle>
<circle cx="129" cy="210" r="0.5" tabindex="10">
<title>
hole:10
</title>
</circle>
<circle cx="168" cy="217" r="0.5" tabindex="11">
<title>
hole:11
</title>
</circle>
<circle cx="159" cy="244" r="0.5" tabindex="12">
<title>
hole:12
</title>
</circle>
<circle cx="186" cy="238" r="0.5" tabindex="13">
<title>
hole:13
</title>
</circle>
<circle cx="196" cy="267" r="0.5" tabindex="14">
<title>
hole:14
</title>
</circle>
<circle cx="226" cy="262" r="0.5" tabindex="15">
<title>
hole:15
</title>
</circle>
<circle cx="281" cy="254" r="0.5" tabindex="16">
<title>
hole:16
</title>
</circle>
<circle cx="282" cy="269" r="0.5" tabindex="17">
<title>
hole:17
</title>
</circle>
<circle cx="271" cy="307" r="0.5" tabindex="18">
<title>
hole:18
</title>
</circle>
<circle cx="247" cy="330" r="0.5" tabindex="19">
<title>
hole:19
</title>
</circle>
<circle cx="283" cy="340" r="0.5" tabindex="20">
<title>
hole:20
</title>
</circle>
<circle cx="304" cy="368" r="0.5" tabindex="21">
<title>
hole:21
</title>
</circle>
<circle cx="333" cy="358" r="0.5" tabindex="22">
<title>
hole:22
</title>
</circle>
<circle cx="333" cy="325" r="0.5" tabindex="23">
<title>
hole:23
</title>
</circle>
<circle cx="303" cy="314" r="0.5" tabindex="24">
<title>
hole:24
</title>
</circle>
<circle cx="318" cy="280" r="0.5" tabindex="25">
<title>
hole:25
</title>
</circle>
<circle cx="343" cy="246" r="0.5" tabindex="26">
<title>
hole:26
</title>
</circle>
<circle cx="320" cy="217" r="0.5" tabindex="27">
<title>
hole:27
</title>
</circle>
<circle cx="309" cy="180" r="0.5" tabindex="28">
<title>
hole:28
</title>
</circle>
<circle cx="312" cy="145" r="0.5" tabindex="29">
<title>
hole:29
</title>
</circle>
<circle cx="347" cy="157" r="0.5" tabindex="30">
<title>
hole:30
</title>
</circle>
<circle cx="357" cy="122" r="0.5" tabindex="31">
<title>
hole:31
</title>
</circle>
<circle cx="324" cy="110" r="0.5" tabindex="32">
<title>
hole:32
</title>
</circle>
<circle cx="317" cy="72" r="0.5" tabindex="33">
<title>
hole:33
</title>
</circle>
<circle cx="304" cy="37" r="0.5" tabindex="34">
<title>
hole:34
</title>
</circle>
<circle cx="282" cy="0" r="0.5" tabindex="35">
<title>
hole:35
</title>
</circle>
<circle cx="263" cy="42" r="0.5" tabindex="36">
<title>
hole:36
</title>
</circle>
<circle cx="233" cy="22" r="0.5" tabindex="37">
<title>
hole:37
</title>
</circle>
<circle cx="205" cy="45" r="0.5" tabindex="38">
<title>
hole:38
</title>
</circle>
<circle cx="217" cy="78" r="0.5" tabindex="39">
<title>
hole:39
</title>
</circle>
<circle cx="253" cy="76" r="0.5" tabindex="40">
<title>
hole:40
</title>
</circle>
<circle cx="288" cy="97" r="0.5" tabindex="41">
<title>
hole:41
</title>
</circle>
<circle cx="276" cy="132" r="0.5" tabindex="42">
<title>
hole:42
</title>
</circle>
<circle cx="261" cy="102" r="0.5" tabindex="43">
<title>
hole:43
</title>
</circle>
<circle cx="227" cy="108" r="0.5" tabindex="44">
<title>
hole:44
</title>
</circle>
<circle cx="205" cy="114" r="0.5" tabindex="45">
<title>
hole:45
</title>
</circle>
<circle cx="193" cy="112" r="0.5" tabindex="46">
<title>
hole:46
</title>
</circle>
<circle cx="203" cy="80" r="0.5" tabindex="47">
<title>
hole:47
</title>
</circle>
<circle cx="196" cy="43" r="0.5" tabindex="48">
<title>
hole:48
</title>
</circle>
<circle cx="157" cy="47" r="0.5" tabindex="49">
<title>
hole:49
</title>
</circle>
<circle cx="153" cy="21" r="0.5" tabindex="50">
<title>
hole:50
</title>
</circle>
<circle cx="122" cy="6" r="0.5" tabindex="51">
<title>
hole:51
</title>
</circle>
<circle cx="105" cy="39" r="0.5" tabindex="52">
<title>
hole:52
</title>
</circle>
<circle cx="91" cy="74" r="0.5" tabindex="53">
<title>
hole:53
</title>
</circle>
<circle cx="62" cy="66" r="0.5" tabindex="54">
<title>
hole:54
</title>
</circle>
<circle cx="27" cy="52" r="0.5" tabindex="55">
<title>
hole:55
</title>
</circle>
</g>
<g fill="#999999">
<circle cx="41" cy="44" r="0.5" tabindex="56">
<title>
v:0
</title>
</circle>
<circle cx="75" cy="42" r="0.5" tabindex="57">
<title>
v:1
</title>
</circle>
<circle cx="17" cy="64" r="0.5" tabindex="58">
<title>
v:2
</title>
</circle>
<circle cx="72" cy="14" r="0.5" tabindex="59">
<title>
v:3
</title>
</circle>
<circle cx="9" cy="107" r="0.5" tabindex="60">
<title>
v:4
</title>
</circle>
<circle cx="81" cy="84" r="0.5" tabindex="61">
<title>
v:5
</title>
</circle>
<circle cx="61" cy="50" r="0.5" tabindex="62">
<title>
v:6
</title>
</circle>
<circle cx="49" cy="91" r="0.5" tabindex="63">
<title>
v:7
</title>
</circle>
<circle cx="36" cy="31" r="0.5" tabindex="64">
<title>
v:8
</title>
</circle>
<circle cx="17" cy="69" r="0.5" tabindex="65">
<title>
v:9
</title>
</circle>
<circle cx="6" cy="18" r="0.5" tabindex="66">
<title>
v:10
</title>
</circle>
<circle cx="66" cy="36" r="0.5" tabindex="67">
<title>
v:11
</title>
</circle>
<circle cx="42" cy="82" r="0.5" tabindex="68">
<title>
v:12
</title>
</circle>
<circle cx="74" cy="37" r="0.5" tabindex="69">
<title>
v:13
</title>
</circle>
<circle cx="53" cy="53" r="0.5" tabindex="70">
<title>
v:14
</title>
</circle>
<circle cx="78" cy="0" r="0.5" tabindex="71">
<title>
v:15
</title>
</circle>
<circle cx="37" cy="35" r="0.5" tabindex="72">
<title>
v:16
</title>
</circle>
<circle cx="14" cy="51" r="0.5" tabindex="73">
<title>
v:17
</title>
</circle>
<circle cx="61" cy="50" r="0.5" tabindex="74">
<title>
v:18
</title>
</circle>
<circle cx="42" cy="58" r="0.5" tabindex="75">
<title>
v:19
</title>
</circle>
<circle cx="68" cy="36" r="0.5" tabindex="76">
<title>
v:20
</title>
</circle>
<circle cx="33" cy="24" r="0.5" tabindex="77">
<title>
v:21
</title>
</circle>
<circle cx="18" cy="59" r="0.5" tabindex="78">
<title>
v:22
</title>
</circle>
<circle cx="52" cy="51" r="0.5" tabindex="79">
<title>
v:23
</title>
</circle>
<circle cx="66" cy="35" r="0.5" tabindex="80">
<title>
v:24
</title>
</circle>
<circle cx="0" cy="35" r="0.5" tabindex="81">
<title>
v:25
</title>
</circle>
<circle cx="79" cy="68" r="0.5" tabindex="82">
<title>
v:26
</title>
</circle>
<circle cx="33" cy="21" r="0.5" tabindex="83">
<title>
v:27
</title>
</circle>
<circle cx="66" cy="86" r="0.5" tabindex="84">
<title>
v:28
</title>
</circle>
<circle cx="42" cy="58" r="0.5" tabindex="85">
<title>
v:29
</title>
</circle>
<circle cx="55" cy="49" r="0.5" tabindex="86">
<title>
v:30
</title>
</circle>
<circle cx="90" cy="77" r="0.5" tabindex="87">
<title>
v:31
</title>
</circle>
<circle cx="61" cy="48" r="0.5" tabindex="88">
<title>
v:32
</title>
</circle>
<circle cx="92" cy="49" r="0.5" tabindex="89">
<title>
v:33
</title>
</circle>
<circle cx="45" cy="22" r="0.5" tabindex="90">
<title>
v:34
</title>
</circle>
<circle cx="21" cy="52" r="0.5" tabindex="91">
<title>
v:35
</title>
</circle>
<circle cx="71" cy="19" r="0.5" tabindex="92">
<title>
v:36
</title>
</circle>
<circle cx="67" cy="62" r="0.5" tabindex="93">
<title>
v:37
</title>
</circle>
<circle cx="48" cy="40" r="0.5" tabindex="94">
<title>
v:38
</title>
</circle>
<circle cx="101" cy="69" r="0.5" tabindex="95">
<title>
v:39
</title>
</circle>
<circle cx="89" cy="52" r="0.5" tabindex="96">
<title>
v:40
</title>
</circle>
<circle cx="43" cy="40" r="0.5" tabindex="97">
<title>
v:41
</title>
</circle>
<circle cx="70" cy="7" r="0.5" tabindex="98">
<title>
v:42
</title>
</circle>
<circle cx="100" cy="106" r="0.5" tabindex="99">
<title>
v:43
</title>
</circle>
<circle cx="84" cy="36" r="0.5" tabindex="100">
<title>
v:44
</title>
</circle>
<circle cx="66" cy="90" r="0.5" tabindex="101">
<title>
v:45
</title>
</circle>
<circle cx="22" cy="44" r="0.5" tabindex="102">
<title>
v:46
</title>
</circle>
<circle cx="62" cy="66" r="0.5" tabindex="103">
<title>
v:47
</title>
</circle>
<circle cx="112" cy="24" r="0.5" tabindex="104">
<title>
v:48
</title>
</circle>
<circle cx="95" cy="47" r="0.5" tabindex="105">
<title>
v:49
</title>
</circle>
<circle cx="84" cy="42" r="0.5" tabindex="106">
<title>
v:50
</title>
</circle>
<circle cx="58" cy="51" r="0.5" tabindex="107">
<title>
v:51
</title>
</circle>
<circle cx="36" cy="31" r="0.5" tabindex="108">
<title>
v:52
</title>
</circle>
<circle cx="44" cy="82" r="0.5" tabindex="109">
<title>
v:53
</title>
</circle>
<circle cx="31" cy="50" r="0.5" tabindex="110">
<title>
v:54
</title>
</circle>
<circle cx="61" cy="62" r="0.5" tabindex="111">
<title>
v:55
</title>
</circle>
<circle cx="80" cy="24" r="0.5" tabindex="112">
<title>
v:56
</title>
</circle>
<circle cx="71" cy="63" r="0.5" tabindex="113">
<title>
v:57
</title>
</circle>
<circle cx="68" cy="27" r="0.5" tabindex="114">
<title>
v:58
</title>
</circle>
<circle cx="77" cy="18" r="0.5" tabindex="115">
<title>
v:59
</title>
</circle>
<circle cx="58" cy="30" r="0.5" tabindex="116">
<title>
v:60
</title>
</circle>
<circle cx="63" cy="45" r="0.5" tabindex="117">
<title>
v:61
</title>
</circle>
<circle cx="61" cy="54" r="0.5" tabindex="118">
<title>
v:62
</title>
</circle>
<circle cx="24" cy="54" r="0.5" tabindex="119">
<title>
v:63
</title>
</circle>
<circle cx="64" cy="106" r="0.5" tabindex="120">
<title>
v:64
</title>
</circle>
<circle cx="54" cy="77" r="0.5" tabindex="121">
<title>
v:65
</title>
</circle>
<circle cx="60" cy="27" r="0.5" tabindex="122">
<title>
v:66
</title>
</circle>
<circle cx="61" cy="30" r="0.5" tabindex="123">
<title>
v:67
</title>
</circle>
<circle cx="93" cy="51" r="0.5" tabindex="124">
<title>
v:68
</title>
</circle>
<circle cx="92" cy="86" r="0.5" tabindex="125">
<title>
v:69
</title>
</circle>
<circle cx="39" cy="46" r="0.5" tabindex="126">
<title>
v:70
</title>
</circle>
<circle cx="69" cy="65" r="0.5" tabindex="127">
<title>
v:71
</title>
</circle>
<circle cx="95" cy="55" r="0.5" tabindex="128">
<title>
v:72
</title>
</circle>
<circle cx="57" cy="65" r="0.5" tabindex="129">
<title>
v:73
</title>
</circle>
<circle cx="60" cy="60" r="0.5" tabindex="130">
<title>
v:74
</title>
</circle>
<circle cx="57" cy="64" r="0.5" tabindex="131">
<title>
v:75
</title>
</circle>
<circle cx="68" cy="28" r="0.5" tabindex="132">
<title>
v:76
</title>
</circle>
<circle cx="61" cy="44" r="0.5" tabindex="133">
<title>
v:77
</title>
</circle>
<circle cx="89" cy="106" r="0.5" tabindex="134">
<title>
v:78
</title>
</circle>
<circle cx="38" cy="27" r="0.5" tabindex="135">
<title>
v:79
</title>
</circle>
<circle cx="79" cy="33" r="0.5" tabindex="136">
<title>
v:80
</title>
</circle>
<circle cx="28" cy="46" r="0.5" tabindex="137">
<title>
v:81
</title>
</circle>
<circle cx="94" cy="55" r="0.5" tabindex="138">
<title>
v:82
</title>
</circle>
<circle cx="86" cy="23" r="0.5" tabindex="139">
<title>
v:83
</title>
</circle>
<circle cx="56" cy="29" r="0.5" tabindex="140">
<title>
v:84
</title>
</circle>
<circle cx="33" cy="79" r="0.5" tabindex="141">
<title>
v:85
</title>
</circle>
<circle cx="110" cy="68" r="0.5" tabindex="142">
<title>
v:86
</title>
</circle>
<circle cx="59" cy="30" r="0.5" tabindex="143">
<title>
v:87
</title>
</circle>
<circle cx="18" cy="67" r="0.5" tabindex="144">
<title>
v:88
</title>
</circle>
<circle cx="30" cy="34" r="0.5" tabindex="145">
<title>
v:89
</title>
</circle>
<circle cx="80" cy="90" r="0.5" tabindex="146">
<title>
v:90
</title>
</circle>
<circle cx="63" cy="56" r="0.5" tabindex="147">
<title>
v:91
</title>
</circle>
<circle cx="57" cy="64" r="0.5" tabindex="148">
<title>
v:92
</title>
</circle>
<circle cx="56" cy="60" r="0.5" tabindex="149">
<title>
v:93
</title>
</circle>
<circle cx="52" cy="53" r="0.5" tabindex="150">
<title>
v:94
</title>
</circle>
<circle cx="85" cy="47" r="0.5" tabindex="151">
<title>
v:95
</title>
</circle>
<circle cx="20" cy="57" r="0.5" tabindex="152">
<title>
v:96
</title>
</circle>
<circle cx="54" cy="62" r="0.5" tabindex="153">
<title>
v:97
</title>
</circle>
<circle cx="90" cy="68" r="0.5" tabindex="154">
<title>
v:98
</title>
</circle>
</g>
</svg>