<svg height="500" viewBox="0 -2 359 372" width="500" xmlns="http://www.w3.org/2000/svg">
<path class="hole" d="M2 87L20 116L61 105L62 138L22 126L32 168L70 176L99 150L116 168L124 175L129 210L168 217L159 244L186 238L196 267L226 262L281 254L282 269L271 307L247 330L283 340L304 368L333 358L333 325L303 314L318 280L343 246L320 217L309 180L312 145L347 157L357 122L324 110L317 72L304 37L282 0L263 42L233 22L205 45L217 78L253 76L288 97L276 132L261 102L227 108L205 114L193 112L203 80L196 43L157 47L153 21L122 6L105 39L91 74L62 66L27 52M0 -2L359 -2L359 370L0 370" style="fill:#00000066;fill-rule:evenodd;"/>
<circle cx="35" cy="85" fill="#ffff0066" r="5">
<title>
BreakALeg@69
</title>
</circle>
<circle cx="284" cy="66" fill="#ffff0066" r="5">
<title>
WallHack@102
</title>
</circle>
<circle cx="284" cy="162" fill="#ffff0066" r="5">
<title>
SuperFlex@99
</title>
</circle>
<path class="ok" d="M19 64L51 91M83 84L51 91M83 84L44 82M51 91L19 69M68 86L102 106M103 69L68 90M102 106L68 90M46 82L26 54M46 82L66 106M26 54L59 65M66 106L94 86M91 106L112 68M112 68L82 90" style="stroke:#0000ff;stroke-linecap:round"/>
<path class="out" d="M43 44L77 42M43 44L74 14M77 42L83 84M19 64L11 107M74 14L63 50M11 107L51 91M11 107L19 69M83 84L63 50M63 50L44 82M51 91L55 53M38 31L8 18M38 31L68 36M19 69L55 53M8 18L16 51M68 36L80 0M68 36L35 24M44 82L16 51M76 37L39 35M76 37L44 58M55 53L16 51M55 53L20 59M80 0L70 36M80 0L68 35M39 35L2 35M16 51L35 24M16 51L35 21M63 50L35 24M63 50L68 86M44 58L35 21M70 36L81 68M35 24L68 35M35 24L44 58M35 24L63 48M20 59L54 51M20 59L57 49M54 51L94 49M68 35L81 68M68 35L44 58M2 35L35 21M2 35L45 40M35 21L57 49M35 21L63 48M35 21L72 7M68 86L63 48M57 49L73 19M57 49L91 52M92 77L94 49M92 77L69 62M63 48L103 69M63 48L72 7M63 48L68 90M94 49L73 19M94 49L69 62M47 22L23 52M47 22L24 44M23 52L50 40M23 52L60 51M73 19L91 52M73 19L97 47M73 19L60 51M73 19L38 31M69 62L86 36M69 62L46 82M50 40L82 24M91 52L114 24M91 52L79 18M45 40L86 42M72 7L86 42M86 36L73 63M24 44L60 51M64 66L33 50M64 66L60 30M114 24L79 18M97 47L60 51M60 51L46 82M60 51L82 24M60 51L26 54M38 31L65 45M38 31L63 54M46 82L73 63M33 50L63 30M63 62L70 27M63 62L95 51M82 24L95 51M73 63L94 86M70 27L41 46M79 18L63 54M60 30L71 65M65 45L56 77M65 45L97 55M63 54L97 55M26 54L59 64M56 77L63 44M62 27L62 60M62 27L30 46M63 30L71 65M63 30L96 55M95 51L59 64M95 51L70 28M41 46L70 28M71 65L91 106M71 65L112 68M97 55L88 23M59 65L58 29M62 60L40 27M62 60L30 46M62 60L35 79M59 64L81 33M59 64L58 29M59 64L20 67M70 28L96 55M70 28L32 34M63 44L88 23M40 27L81 33M40 27L65 56M81 33L59 64M30 46L35 79M30 46L61 30M96 55L82 90M96 55L58 60M35 79L65 56M35 79L54 53M61 30L87 47M20 67L32 34M20 67L59 64M32 34L58 60M32 34L56 62M82 90L58 60M65 56L22 57M59 64L22 57M58 60L92 68M54 53L87 47M56 62L92 68" style="stroke:#ff0000;stroke-linecap:round"/>
<g fill="#333333">
<circle cx="2" cy="87" r="0.5">
<title>
hole:0
</title>
</circle>
<circle cx="20" cy="116" r="0.5">
<title>
hole:1
</title>
</circle>
<circle cx="61" cy="105" r="0.5">
<title>
hole:2
</title>
</circle>
<circle cx="62" cy="138" r="0.5">
<title>
hole:3
</title>
</circle>
<circle cx="22" cy="126" r="0.5">
<title>
hole:4
</title>
</circle>
<circle cx="32" cy="168" r="0.5">
<title>
hole:5
</title>
</circle>
<circle cx="70" cy="176" r="0.5">
<title>
hole:6
</title>
</circle>
<circle cx="99" cy="150" r="0.5">
<title>
hole:7
</title>
</circle>
<circle cx="116" cy="168" r="0.5">
<title>
hole:8
</title>
</circle>
<circle cx="124" cy="175" r="0.5">
<title>
hole:9
</title>
</circle>
<circle cx="129" cy="210" r="0.5">
<title>
hole:10
</title>
</circle>
<circle cx="168" cy="217" r="0.5">
<title>
hole:11
</title>
</circle>
<circle cx="159" cy="244" r="0.5">
<title>
hole:12
</title>
</circle>
<circle cx="186" cy="238" r="0.5">
<title>
hole:13
</title>
</circle>
<circle cx="196" cy="267" r="0.5">
<title>
hole:14
</title>
</circle>
<circle cx="226" cy="262" r="0.5">
<title>
hole:15
</title>
</circle>
<circle cx="281" cy="254" r="0.5">
<title>
hole:16
</title>
</circle>
<circle cx="282" cy="269" r="0.5">
<title>
hole:17
</title>
</circle>
<circle cx="271" cy="307" r="0.5">
<title>
hole:18
</title>
</circle>
<circle cx="247" cy="330" r="0.5">
<title>
hole:19
</title>
</circle>
<circle cx="283" cy="340" r="0.5">
<title>
hole:20
</title>
</circle>
<circle cx="304" cy="368" r="0.5">
<title>
hole:21
</title>
</circle>
<circle cx="333" cy="358" r="0.5">
<title>
hole:22
</title>
</circle>
<circle cx="333" cy="325" r="0.5">
<title>
hole:23
</title>
</circle>
<circle cx="303" cy="314" r="0.5">
<title>
hole:24
</title>
</circle>
<circle cx="318" cy="280" r="0.5">
<title>
hole:25
</title>
</circle>
<circle cx="343" cy="246" r="0.5">
<title>
hole:26
</title>
</circle>
<circle cx="320" cy="217" r="0.5">
<title>
hole:27
</title>
</circle>
<circle cx="309" cy="180" r="0.5">
<title>
hole:28
</title>
</circle>
<circle cx="312" cy="145" r="0.5">
<title>
hole:29
</title>
</circle>
<circle cx="347" cy="157" r="0.5">
<title>
hole:30
</title>
</circle>
<circle cx="357" cy="122" r="0.5">
<title>
hole:31
</title>
</circle>
<circle cx="324" cy="110" r="0.5">
<title>
hole:32
</title>
</circle>
<circle cx="317" cy="72" r="0.5">
<title>
hole:33
</title>
</circle>
<circle cx="304" cy="37" r="0.5">
<title>
hole:34
</title>
</circle>
<circle cx="282" cy="0" r="0.5">
<title>
hole:35
</title>
</circle>
<circle cx="263" cy="42" r="0.5">
<title>
hole:36
</title>
</circle>
<circle cx="233" cy="22" r="0.5">
<title>
hole:37
</title>
</circle>
<circle cx="205" cy="45" r="0.5">
<title>
hole:38
</title>
</circle>
<circle cx="217" cy="78" r="0.5">
<title>
hole:39
</title>
</circle>
<circle cx="253" cy="76" r="0.5">
<title>
hole:40
</title>
</circle>
<circle cx="288" cy="97" r="0.5">
<title>
hole:41
</title>
</circle>
<circle cx="276" cy="132" r="0.5">
<title>
hole:42
</title>
</circle>
<circle cx="261" cy="102" r="0.5">
<title>
hole:43
</title>
</circle>
<circle cx="227" cy="108" r="0.5">
<title>
hole:44
</title>
</circle>
<circle cx="205" cy="114" r="0.5">
<title>
hole:45
</title>
</circle>
<circle cx="193" cy="112" r="0.5">
<title>
hole:46
</title>
</circle>
<circle cx="203" cy="80" r="0.5">
<title>
hole:47
</title>
</circle>
<circle cx="196" cy="43" r="0.5">
<title>
hole:48
</title>
</circle>
<circle cx="157" cy="47" r="0.5">
<title>
hole:49
</title>
</circle>
<circle cx="153" cy="21" r="0.5">
<title>
hole:50
</title>
</circle>
<circle cx="122" cy="6" r="0.5">
<title>
hole:51
</title>
</circle>
<circle cx="105" cy="39" r="0.5">
<title>
hole:52
</title>
</circle>
<circle cx="91" cy="74" r="0.5">
<title>
hole:53
</title>
</circle>
<circle cx="62" cy="66" r="0.5">
<title>
hole:54
</title>
</circle>
<circle cx="27" cy="52" r="0.5">
<title>
hole:55
</title>
</circle>
</g>
<g fill="#999999">
<circle cx="43" cy="44" i="0" r="0.5" tabindex="0">
<title>
v:0
</title>
</circle>
<circle cx="77" cy="42" i="1" r="0.5" tabindex="1">
<title>
v:1
</title>
</circle>
<circle cx="19" cy="64" i="2" r="0.5" tabindex="2">
<title>
v:2
</title>
</circle>
<circle cx="74" cy="14" i="3" r="0.5" tabindex="3">
<title>
v:3
</title>
</circle>
<circle cx="11" cy="107" i="4" r="0.5" tabindex="4">
<title>
v:4
</title>
</circle>
<circle cx="83" cy="84" i="5" r="0.5" tabindex="5">
<title>
v:5
</title>
</circle>
<circle cx="63" cy="50" i="6" r="0.5" tabindex="6">
<title>
v:6
</title>
</circle>
<circle cx="51" cy="91" i="7" r="0.5" tabindex="7">
<title>
v:7
</title>
</circle>
<circle cx="38" cy="31" i="8" r="0.5" tabindex="8">
<title>
v:8
</title>
</circle>
<circle cx="19" cy="69" i="9" r="0.5" tabindex="9">
<title>
v:9
</title>
</circle>
<circle cx="8" cy="18" i="10" r="0.5" tabindex="10">
<title>
v:10
</title>
</circle>
<circle cx="68" cy="36" i="11" r="0.5" tabindex="11">
<title>
v:11
</title>
</circle>
<circle cx="44" cy="82" i="12" r="0.5" tabindex="12">
<title>
v:12
</title>
</circle>
<circle cx="76" cy="37" i="13" r="0.5" tabindex="13">
<title>
v:13
</title>
</circle>
<circle cx="55" cy="53" i="14" r="0.5" tabindex="14">
<title>
v:14
</title>
</circle>
<circle cx="80" cy="0" i="15" r="0.5" tabindex="15">
<title>
v:15
</title>
</circle>
<circle cx="39" cy="35" i="16" r="0.5" tabindex="16">
<title>
v:16
</title>
</circle>
<circle cx="16" cy="51" i="17" r="0.5" tabindex="17">
<title>
v:17
</title>
</circle>
<circle cx="63" cy="50" i="18" r="0.5" tabindex="18">
<title>
v:18
</title>
</circle>
<circle cx="44" cy="58" i="19" r="0.5" tabindex="19">
<title>
v:19
</title>
</circle>
<circle cx="70" cy="36" i="20" r="0.5" tabindex="20">
<title>
v:20
</title>
</circle>
<circle cx="35" cy="24" i="21" r="0.5" tabindex="21">
<title>
v:21
</title>
</circle>
<circle cx="20" cy="59" i="22" r="0.5" tabindex="22">
<title>
v:22
</title>
</circle>
<circle cx="54" cy="51" i="23" r="0.5" tabindex="23">
<title>
v:23
</title>
</circle>
<circle cx="68" cy="35" i="24" r="0.5" tabindex="24">
<title>
v:24
</title>
</circle>
<circle cx="2" cy="35" i="25" r="0.5" tabindex="25">
<title>
v:25
</title>
</circle>
<circle cx="81" cy="68" i="26" r="0.5" tabindex="26">
<title>
v:26
</title>
</circle>
<circle cx="35" cy="21" i="27" r="0.5" tabindex="27">
<title>
v:27
</title>
</circle>
<circle cx="68" cy="86" i="28" r="0.5" tabindex="28">
<title>
v:28
</title>
</circle>
<circle cx="44" cy="58" i="29" r="0.5" tabindex="29">
<title>
v:29
</title>
</circle>
<circle cx="57" cy="49" i="30" r="0.5" tabindex="30">
<title>
v:30
</title>
</circle>
<circle cx="92" cy="77" i="31" r="0.5" tabindex="31">
<title>
v:31
</title>
</circle>
<circle cx="63" cy="48" i="32" r="0.5" tabindex="32">
<title>
v:32
</title>
</circle>
<circle cx="94" cy="49" i="33" r="0.5" tabindex="33">
<title>
v:33
</title>
</circle>
<circle cx="47" cy="22" i="34" r="0.5" tabindex="34">
<title>
v:34
</title>
</circle>
<circle cx="23" cy="52" i="35" r="0.5" tabindex="35">
<title>
v:35
</title>
</circle>
<circle cx="73" cy="19" i="36" r="0.5" tabindex="36">
<title>
v:36
</title>
</circle>
<circle cx="69" cy="62" i="37" r="0.5" tabindex="37">
<title>
v:37
</title>
</circle>
<circle cx="50" cy="40" i="38" r="0.5" tabindex="38">
<title>
v:38
</title>
</circle>
<circle cx="103" cy="69" i="39" r="0.5" tabindex="39">
<title>
v:39
</title>
</circle>
<circle cx="91" cy="52" i="40" r="0.5" tabindex="40">
<title>
v:40
</title>
</circle>
<circle cx="45" cy="40" i="41" r="0.5" tabindex="41">
<title>
v:41
</title>
</circle>
<circle cx="72" cy="7" i="42" r="0.5" tabindex="42">
<title>
v:42
</title>
</circle>
<circle cx="102" cy="106" i="43" r="0.5" tabindex="43">
<title>
v:43
</title>
</circle>
<circle cx="86" cy="36" i="44" r="0.5" tabindex="44">
<title>
v:44
</title>
</circle>
<circle cx="68" cy="90" i="45" r="0.5" tabindex="45">
<title>
v:45
</title>
</circle>
<circle cx="24" cy="44" i="46" r="0.5" tabindex="46">
<title>
v:46
</title>
</circle>
<circle cx="64" cy="66" i="47" r="0.5" tabindex="47">
<title>
v:47
</title>
</circle>
<circle cx="114" cy="24" i="48" r="0.5" tabindex="48">
<title>
v:48
</title>
</circle>
<circle cx="97" cy="47" i="49" r="0.5" tabindex="49">
<title>
v:49
</title>
</circle>
<circle cx="86" cy="42" i="50" r="0.5" tabindex="50">
<title>
v:50
</title>
</circle>
<circle cx="60" cy="51" i="51" r="0.5" tabindex="51">
<title>
v:51
</title>
</circle>
<circle cx="38" cy="31" i="52" r="0.5" tabindex="52">
<title>
v:52
</title>
</circle>
<circle cx="46" cy="82" i="53" r="0.5" tabindex="53">
<title>
v:53
</title>
</circle>
<circle cx="33" cy="50" i="54" r="0.5" tabindex="54">
<title>
v:54
</title>
</circle>
<circle cx="63" cy="62" i="55" r="0.5" tabindex="55">
<title>
v:55
</title>
</circle>
<circle cx="82" cy="24" i="56" r="0.5" tabindex="56">
<title>
v:56
</title>
</circle>
<circle cx="73" cy="63" i="57" r="0.5" tabindex="57">
<title>
v:57
</title>
</circle>
<circle cx="70" cy="27" i="58" r="0.5" tabindex="58">
<title>
v:58
</title>
</circle>
<circle cx="79" cy="18" i="59" r="0.5" tabindex="59">
<title>
v:59
</title>
</circle>
<circle cx="60" cy="30" i="60" r="0.5" tabindex="60">
<title>
v:60
</title>
</circle>
<circle cx="65" cy="45" i="61" r="0.5" tabindex="61">
<title>
v:61
</title>
</circle>
<circle cx="63" cy="54" i="62" r="0.5" tabindex="62">
<title>
v:62
</title>
</circle>
<circle cx="26" cy="54" i="63" r="0.5" tabindex="63">
<title>
v:63
</title>
</circle>
<circle cx="66" cy="106" i="64" r="0.5" tabindex="64">
<title>
v:64
</title>
</circle>
<circle cx="56" cy="77" i="65" r="0.5" tabindex="65">
<title>
v:65
</title>
</circle>
<circle cx="62" cy="27" i="66" r="0.5" tabindex="66">
<title>
v:66
</title>
</circle>
<circle cx="63" cy="30" i="67" r="0.5" tabindex="67">
<title>
v:67
</title>
</circle>
<circle cx="95" cy="51" i="68" r="0.5" tabindex="68">
<title>
v:68
</title>
</circle>
<circle cx="94" cy="86" i="69" r="0.5" tabindex="69">
<title>
v:69
</title>
</circle>
<circle cx="41" cy="46" i="70" r="0.5" tabindex="70">
<title>
v:70
</title>
</circle>
<circle cx="71" cy="65" i="71" r="0.5" tabindex="71">
<title>
v:71
</title>
</circle>
<circle cx="97" cy="55" i="72" r="0.5" tabindex="72">
<title>
v:72
</title>
</circle>
<circle cx="59" cy="65" i="73" r="0.5" tabindex="73">
<title>
v:73
</title>
</circle>
<circle cx="62" cy="60" i="74" r="0.5" tabindex="74">
<title>
v:74
</title>
</circle>
<circle cx="59" cy="64" i="75" r="0.5" tabindex="75">
<title>
v:75
</title>
</circle>
<circle cx="70" cy="28" i="76" r="0.5" tabindex="76">
<title>
v:76
</title>
</circle>
<circle cx="63" cy="44" i="77" r="0.5" tabindex="77">
<title>
v:77
</title>
</circle>
<circle cx="91" cy="106" i="78" r="0.5" tabindex="78">
<title>
v:78
</title>
</circle>
<circle cx="40" cy="27" i="79" r="0.5" tabindex="79">
<title>
v:79
</title>
</circle>
<circle cx="81" cy="33" i="80" r="0.5" tabindex="80">
<title>
v:80
</title>
</circle>
<circle cx="30" cy="46" i="81" r="0.5" tabindex="81">
<title>
v:81
</title>
</circle>
<circle cx="96" cy="55" i="82" r="0.5" tabindex="82">
<title>
v:82
</title>
</circle>
<circle cx="88" cy="23" i="83" r="0.5" tabindex="83">
<title>
v:83
</title>
</circle>
<circle cx="58" cy="29" i="84" r="0.5" tabindex="84">
<title>
v:84
</title>
</circle>
<circle cx="35" cy="79" i="85" r="0.5" tabindex="85">
<title>
v:85
</title>
</circle>
<circle cx="112" cy="68" i="86" r="0.5" tabindex="86">
<title>
v:86
</title>
</circle>
<circle cx="61" cy="30" i="87" r="0.5" tabindex="87">
<title>
v:87
</title>
</circle>
<circle cx="20" cy="67" i="88" r="0.5" tabindex="88">
<title>
v:88
</title>
</circle>
<circle cx="32" cy="34" i="89" r="0.5" tabindex="89">
<title>
v:89
</title>
</circle>
<circle cx="82" cy="90" i="90" r="0.5" tabindex="90">
<title>
v:90
</title>
</circle>
<circle cx="65" cy="56" i="91" r="0.5" tabindex="91">
<title>
v:91
</title>
</circle>
<circle cx="59" cy="64" i="92" r="0.5" tabindex="92">
<title>
v:92
</title>
</circle>
<circle cx="58" cy="60" i="93" r="0.5" tabindex="93">
<title>
v:93
</title>
</circle>
<circle cx="54" cy="53" i="94" r="0.5" tabindex="94">
<title>
v:94
</title>
</circle>
<circle cx="87" cy="47" i="95" r="0.5" tabindex="95">
<title>
v:95
</title>
</circle>
<circle cx="22" cy="57" i="96" r="0.5" tabindex="96">
<title>
v:96
</title>
</circle>
<circle cx="56" cy="62" i="97" r="0.5" tabindex="97">
<title>
v:97
</title>
</circle>
<circle cx="92" cy="68" i="98" r="0.5" tabindex="98">
<title>
v:98
</title>
</circle>
</g>
</svg>