<svg height="500" viewBox="-2 -2 359 372" width="500" xmlns="http://www.w3.org/2000/svg">
<path class="hole" d="M0 87L18 116L59 105L60 138L20 126L30 168L68 176L97 150L114 168L122 175L127 210L166 217L157 244L184 238L194 267L224 262L279 254L280 269L269 307L245 330L281 340L302 368L331 358L331 325L301 314L316 280L341 246L318 217L307 180L310 145L345 157L355 122L322 110L315 72L302 37L280 0L261 42L231 22L203 45L215 78L251 76L286 97L274 132L259 102L225 108L203 114L191 112L201 80L194 43L155 47L151 21L120 6L103 39L89 74L60 66L25 52M-2 -2L357 -2L357 370L-2 370" style="fill:#00000066;fill-rule:evenodd;stroke:none;"/>
<circle cx="33" cy="85" r="5" style="fill:#ffff0066;stroke:none;"/>
<path class="ok" d="M17 64L49 91M81 84L49 91M81 84L42 82M49 91L17 69M66 86L100 106M101 69L66 90M100 106L66 90M44 82L24 54M44 82L64 106M24 54L57 65M64 106L92 86M89 106L110 68M110 68L80 90" style="fill:none;stroke:#0000ff;stroke-linecap:round"/>
<path class="out" d="M41 44L75 42M41 44L72 14M75 42L81 84M17 64L9 107M72 14L61 50M9 107L49 91M9 107L17 69M81 84L61 50M61 50L42 82M49 91L53 53M36 31L6 18M36 31L66 36M17 69L53 53M6 18L14 51M66 36L78 0M66 36L33 24M42 82L14 51M74 37L37 35M74 37L42 58M53 53L14 51M53 53L18 59M78 0L68 36M78 0L66 35M37 35L0 35M14 51L33 24M14 51L33 21M61 50L33 24M61 50L66 86M42 58L33 21M68 36L79 68M33 24L66 35M33 24L42 58M33 24L61 48M18 59L52 51M18 59L55 49M52 51L92 49M66 35L79 68M66 35L42 58M0 35L33 21M0 35L43 40M33 21L55 49M33 21L61 48M33 21L70 7M66 86L61 48M55 49L71 19M55 49L89 52M90 77L92 49M90 77L67 62M61 48L101 69M61 48L70 7M61 48L66 90M92 49L71 19M92 49L67 62M45 22L21 52M45 22L22 44M21 52L48 40M21 52L58 51M71 19L89 52M71 19L95 47M71 19L58 51M71 19L36 31M67 62L84 36M67 62L44 82M48 40L80 24M89 52L112 24M89 52L77 18M43 40L84 42M70 7L84 42M84 36L71 63M22 44L58 51M62 66L31 50M62 66L58 30M112 24L77 18M95 47L58 51M58 51L44 82M58 51L80 24M58 51L24 54M36 31L63 45M36 31L61 54M44 82L71 63M31 50L61 30M61 62L68 27M61 62L93 51M80 24L93 51M71 63L92 86M68 27L39 46M77 18L61 54M58 30L69 65M63 45L54 77M63 45L95 55M61 54L95 55M24 54L57 64M54 77L61 44M60 27L60 60M60 27L28 46M61 30L69 65M61 30L94 55M93 51L57 64M93 51L68 28M39 46L68 28M69 65L89 106M69 65L110 68M95 55L86 23M57 65L56 29M60 60L38 27M60 60L28 46M60 60L33 79M57 64L79 33M57 64L56 29M57 64L18 67M68 28L94 55M68 28L30 34M61 44L86 23M38 27L79 33M38 27L63 56M79 33L57 64M28 46L33 79M28 46L59 30M94 55L80 90M94 55L56 60M33 79L63 56M33 79L52 53M59 30L85 47M18 67L30 34M18 67L57 64M30 34L56 60M30 34L54 62M80 90L56 60M63 56L20 57M57 64L20 57M56 60L90 68M52 53L85 47M54 62L90 68" style="fill:none;stroke:#ff0000;stroke-linecap:round"/>
</svg>