<svg height="500" viewBox="0 0 135 134" width="500" xmlns="http://www.w3.org/2000/svg">
<polygon fill="grey" points="8,62 8,95 3,119 22,134 50,106 107,106 106,49 135,22 120,4 95,7 62,8 36,4 22,22 49,49 "/>
<path d="M40 39L48 14M48 14L78 7M78 7L102 22M102 22L104 43M104 43L86 24M86 24L57 24M57 24L40 39M44 121L71 125M71 125L103 107M103 107L98 139M71 125L98 139M44 121L52 115M52 115L49 83M49 83L61 96M61 96L79 98M79 98L92 85M92 85L92 98M92 98L103 107M40 39L40 68M40 68L57 39M57 39L79 34M79 34L97 47M97 47L96 69M96 69L100 73M100 73L104 43M40 68L49 83M100 73L92 85M91 59L85 54M85 54L78 57M78 57L85 61M85 61L91 59M56 55L63 49M63 49L69 55M69 55L62 57M62 57L56 55M69 55L66 70M66 70L72 74M72 74L78 71M78 71L78 57M91 59L97 47M56 55L57 39" stroke="red"/>
</svg>