<svg height="500" viewBox="3 2 136 139" width="500" xmlns="http://www.w3.org/2000/svg">
<path class="hole" d="M10 62L10 95L5 119L24 134L52 106L109 106L108 49L137 22L122 4L97 7L64 8L38 4L24 22L51 49M3 2L139 2L139 141L3 141" style="fill:#00000066;fill-rule:evenodd;"/>
<circle cx="108" cy="85" r="5" style="fill:#ffff0066;" title="Globalist"/>
<circle cx="50" cy="22" r="5" style="fill:#ffff0066;" title="WallHack"/>
<path class="ok" d="M40 68L49 83M40 68L57 39M49 83L61 96M56 55L57 39M56 55L62 57M56 55L63 49M57 24L86 24M57 39L79 34M61 96L79 98M62 57L69 55M63 49L69 55M66 70L69 55M66 70L72 74M72 74L78 71M78 57L78 71M78 57L85 54M78 57L85 61M79 34L97 47M79 98L92 85M85 54L91 59M85 61L91 59M86 24L104 43M91 59L97 47M92 85L92 98M92 85L100 73M96 69L97 47M96 69L100 73M100 73L104 43M102 22L104 43" style="stroke:#0000ff;stroke-linecap:round"/>
<path class="out" d="M40 39L40 68M40 39L48 14M40 39L57 24M44 121L52 115M44 121L71 125M48 14L78 7M49 83L52 115M71 125L98 139M71 125L103 107M78 7L102 22M92 98L103 107M98 139L103 107" style="stroke:#ff0000;stroke-linecap:round"/>
<g fill="#333333">
<circle cx="10" cy="62" r="0.5" tabindex="0">
<title>
hole:0
</title>
</circle>
<circle cx="10" cy="95" r="0.5" tabindex="1">
<title>
hole:1
</title>
</circle>
<circle cx="5" cy="119" r="0.5" tabindex="2">
<title>
hole:2
</title>
</circle>
<circle cx="24" cy="134" r="0.5" tabindex="3">
<title>
hole:3
</title>
</circle>
<circle cx="52" cy="106" r="0.5" tabindex="4">
<title>
hole:4
</title>
</circle>
<circle cx="109" cy="106" r="0.5" tabindex="5">
<title>
hole:5
</title>
</circle>
<circle cx="108" cy="49" r="0.5" tabindex="6">
<title>
hole:6
</title>
</circle>
<circle cx="137" cy="22" r="0.5" tabindex="7">
<title>
hole:7
</title>
</circle>
<circle cx="122" cy="4" r="0.5" tabindex="8">
<title>
hole:8
</title>
</circle>
<circle cx="97" cy="7" r="0.5" tabindex="9">
<title>
hole:9
</title>
</circle>
<circle cx="64" cy="8" r="0.5" tabindex="10">
<title>
hole:10
</title>
</circle>
<circle cx="38" cy="4" r="0.5" tabindex="11">
<title>
hole:11
</title>
</circle>
<circle cx="24" cy="22" r="0.5" tabindex="12">
<title>
hole:12
</title>
</circle>
<circle cx="51" cy="49" r="0.5" tabindex="13">
<title>
hole:13
</title>
</circle>
</g>
<g fill="#999999">
<circle cx="40" cy="39" r="0.5" tabindex="14">
<title>
v:0
</title>
</circle>
<circle cx="40" cy="68" r="0.5" tabindex="15">
<title>
v:1
</title>
</circle>
<circle cx="44" cy="121" r="0.5" tabindex="16">
<title>
v:2
</title>
</circle>
<circle cx="48" cy="14" r="0.5" tabindex="17">
<title>
v:3
</title>
</circle>
<circle cx="49" cy="83" r="0.5" tabindex="18">
<title>
v:4
</title>
</circle>
<circle cx="52" cy="115" r="0.5" tabindex="19">
<title>
v:5
</title>
</circle>
<circle cx="56" cy="55" r="0.5" tabindex="20">
<title>
v:6
</title>
</circle>
<circle cx="57" cy="24" r="0.5" tabindex="21">
<title>
v:7
</title>
</circle>
<circle cx="57" cy="39" r="0.5" tabindex="22">
<title>
v:8
</title>
</circle>
<circle cx="61" cy="96" r="0.5" tabindex="23">
<title>
v:9
</title>
</circle>
<circle cx="62" cy="57" r="0.5" tabindex="24">
<title>
v:10
</title>
</circle>
<circle cx="63" cy="49" r="0.5" tabindex="25">
<title>
v:11
</title>
</circle>
<circle cx="66" cy="70" r="0.5" tabindex="26">
<title>
v:12
</title>
</circle>
<circle cx="69" cy="55" r="0.5" tabindex="27">
<title>
v:13
</title>
</circle>
<circle cx="71" cy="125" r="0.5" tabindex="28">
<title>
v:14
</title>
</circle>
<circle cx="72" cy="74" r="0.5" tabindex="29">
<title>
v:15
</title>
</circle>
<circle cx="78" cy="7" r="0.5" tabindex="30">
<title>
v:16
</title>
</circle>
<circle cx="78" cy="57" r="0.5" tabindex="31">
<title>
v:17
</title>
</circle>
<circle cx="78" cy="71" r="0.5" tabindex="32">
<title>
v:18
</title>
</circle>
<circle cx="79" cy="34" r="0.5" tabindex="33">
<title>
v:19
</title>
</circle>
<circle cx="79" cy="98" r="0.5" tabindex="34">
<title>
v:20
</title>
</circle>
<circle cx="85" cy="54" r="0.5" tabindex="35">
<title>
v:21
</title>
</circle>
<circle cx="85" cy="61" r="0.5" tabindex="36">
<title>
v:22
</title>
</circle>
<circle cx="86" cy="24" r="0.5" tabindex="37">
<title>
v:23
</title>
</circle>
<circle cx="91" cy="59" r="0.5" tabindex="38">
<title>
v:24
</title>
</circle>
<circle cx="92" cy="85" r="0.5" tabindex="39">
<title>
v:25
</title>
</circle>
<circle cx="92" cy="98" r="0.5" tabindex="40">
<title>
v:26
</title>
</circle>
<circle cx="96" cy="69" r="0.5" tabindex="41">
<title>
v:27
</title>
</circle>
<circle cx="97" cy="47" r="0.5" tabindex="42">
<title>
v:28
</title>
</circle>
<circle cx="98" cy="139" r="0.5" tabindex="43">
<title>
v:29
</title>
</circle>
<circle cx="100" cy="73" r="0.5" tabindex="44">
<title>
v:30
</title>
</circle>
<circle cx="102" cy="22" r="0.5" tabindex="45">
<title>
v:31
</title>
</circle>
<circle cx="103" cy="107" r="0.5" tabindex="46">
<title>
v:32
</title>
</circle>
<circle cx="104" cy="43" r="0.5" tabindex="47">
<title>
v:33
</title>
</circle>
</g>
</svg>