<svg viewBox="0 0 135 134" width="500" xmlns="http://www.w3.org/2000/svg">
<polygon fill="grey" points="8,62 8,95 3,119 22,134 50,106 107,106 106,49 135,22 120,4 95,7 62,8 36,4 22,22 49,49 "/>
<path d="M40 39L40 68M40 39L48 14M40 39L57 24M40 68L49 83M40 68L57 39M44 121L52 115M44 121L71 125M48 14L78 7M49 83L52 115M49 83L61 96M56 55L57 39M56 55L62 57M56 55L63 49M57 24L86 24M57 39L79 34M61 96L79 98M62 57L69 55M63 49L69 55M66 70L69 55M66 70L72 74M71 125L98 139M71 125L103 107M72 74L78 71M78 7L102 22M78 57L78 71M78 57L85 54M78 57L85 61M79 34L97 47M79 98L92 85M85 54L91 59M85 61L91 59M86 24L104 43M91 59L97 47M92 85L92 98M92 85L100 73M92 98L103 107M96 69L97 47M96 69L100 73M98 139L103 107M100 73L104 43M102 22L104 43" style="fill:none;stroke:#ff0000;stroke-linecap:round"/>
</svg>