<svg xmlns="http://www.w3.org/2000/svg">
<polygon fill="grey" points="65,1 65,53 38,53 38,79 11,79 11,27 38,27 38,1 "/>
<path d="M31 20L25 24M25 24L19 20M19 20L19 13M19 13L25 10M25 10L31 13M31 13L31 20M44 20L38 24M38 24L31 20M31 20L31 13M31 13L38 10M38 10L44 13M44 13L44 20M56 20L50 24M50 24L44 20M44 20L44 13M44 13L50 10M50 10L56 13M56 13L56 20M50 31L44 34M44 34L38 31M38 31L38 24M38 24L44 20M44 20L50 24M50 24L50 31M38 31L31 34M31 34L25 31M25 31L25 24M25 24L31 20M31 20L38 24M38 24L38 31M25 31L19 34M19 34L13 31M13 31L13 24M13 24L19 20M19 20L25 24M25 24L25 31M62 31L56 34M56 34L50 31M50 31L50 24M50 24L56 20M56 20L62 24M62 24L62 31M56 41L50 45M50 45L44 41M44 41L44 34M44 34L50 31M50 31L56 34M56 34L56 41M44 41L38 45M38 45L31 41M31 41L31 34M31 34L38 31M38 31L44 34M44 34L44 41M31 41L25 45M25 45L19 41M19 41L19 34M19 34L25 31M25 31L31 34M31 34L31 41M19 41L13 45M13 45L7 41M7 41L7 34M7 34L13 31M13 31L19 34M19 34L19 41M68 41L62 45M62 45L56 41M56 41L56 34M56 34L62 31M62 31L68 34M68 34L68 41M62 52L56 55M56 55L50 52M50 52L50 45M50 45L56 41M56 41L62 45M62 45L62 52M50 52L44 55M44 55L38 52M38 52L38 45M38 45L44 41M44 41L50 45M50 45L50 52M38 52L31 55M31 55L25 52M25 52L25 45M25 45L31 41M31 41L38 45M38 45L38 52M25 52L19 55M19 55L13 52M13 52L13 45M13 45L19 41M19 41L25 45M25 45L25 52M19 62L13 66M13 66L7 62M7 62L7 55M7 55L13 52M13 52L19 55M19 55L19 62M44 62L38 66M38 66L31 62M31 62L31 55M31 55L38 52M38 52L44 55M44 55L44 62M68 62L62 66M62 66L56 62M56 62L56 55M56 55L62 52M62 52L68 55M68 55L68 62" stroke="red"/>
</svg>