<svg viewBox="0 0 65 79" width="500" xmlns="http://www.w3.org/2000/svg">
<polygon fill="grey" points="38,1 38,27 11,27 11,79 38,79 38,53 65,53 65,1 "/>
<path d="M7 34L7 41M7 34L13 31M7 41L13 45M7 55L7 62M7 55L13 52M7 62L13 66M13 24L13 31M13 24L19 20M13 31L19 34M13 45L13 52M13 45L19 41M13 52L19 55M13 66L19 62M19 13L19 20M19 13L25 10M19 20L25 24M19 34L19 41M19 34L25 31M19 41L25 45M19 55L19 62M19 55L25 52M25 10L31 13M25 24L25 31M25 24L31 20M25 31L31 34M25 45L25 52M25 45L31 41M25 52L31 55M31 13L31 20M31 13L38 10M31 20L38 24M31 34L31 41M31 34L38 31M31 41L38 45M31 55L31 62M31 55L38 52M31 62L38 66M38 10L44 13M38 24L38 31M38 24L44 20M38 31L44 34M38 45L38 52M38 45L44 41M38 52L44 55M38 66L44 62M44 13L44 20M44 13L50 10M44 20L50 24M44 34L44 41M44 34L50 31M44 41L50 45M44 55L44 62M44 55L50 52M50 10L56 13M50 24L50 31M50 24L56 20M50 31L56 34M50 45L50 52M50 45L56 41M50 52L56 55M56 13L56 20M56 20L62 24M56 34L56 41M56 34L62 31M56 41L62 45M56 55L56 62M56 55L62 52M56 62L62 66M62 24L62 31M62 31L68 34M62 45L62 52M62 45L68 41M62 52L68 55M62 66L68 62M68 34L68 41M68 55L68 62" style="fill:none;stroke:#ff0000;stroke-linecap:round"/>
</svg>