<svg height="500" viewBox="-2 -2 83 60" width="500" xmlns="http://www.w3.org/2000/svg">
<path class="hole" d="M0 45L6 48L13 46L19 42L26 41L32 43L32 50L37 56L41 50L46 46L52 45L59 47L65 51L79 47L66 46L67 39L73 35L74 28L68 27L65 21L61 15L61 8L55 7L48 7L44 1L37 4L32 0L26 3L27 10L22 15L18 21L12 24L8 30L14 33L12 40L6 42M-2 -2L81 -2L81 58L-2 58" style="fill:#00000066;fill-rule:evenodd;stroke:none;"/>
<path class="ok" d="M0 45L6 42M6 42L12 45M12 24L12 31M12 24L18 21M12 31L18 35M12 45L18 42M18 21L24 24M18 35L18 42M18 35L24 31M24 24L24 31M24 24L31 21M24 31L31 35M31 14L31 21M31 14L37 10M31 21L37 24M31 35L31 42M31 35L37 31M31 42L37 45M37 10L43 14M37 24L37 31M37 24L43 21M37 31L43 35M37 45L37 52M37 45L43 42M43 14L43 21M43 14L49 10M43 21L49 24M43 35L43 42M43 35L49 31M43 42L49 45M49 10L55 14M49 24L49 31M49 24L55 21M49 31L55 35M49 45L55 42M55 14L55 21M55 21L61 24M55 35L55 42M55 35L61 31M55 42L61 45M61 24L61 31" style="fill:none;stroke:#0000ff;stroke-linecap:round"/>
<path class="short" d="" style="fill:none;stroke:#00ff99;stroke-linecap:round"/>
<path class="long" d="" style="fill:none;stroke:#ff0099;stroke-linecap:round"/>
<path class="out" d="M0 24L0 31M0 24L6 21M0 31L6 35M0 45L0 52M0 52L6 56M6 14L6 21M6 14L12 10M6 21L12 24M6 35L6 42M6 35L12 31M6 56L12 52M12 3L12 10M12 3L18 0M12 10L18 14M12 45L12 52M18 0L24 3M18 14L18 21M18 14L24 10M18 42L24 45M24 3L24 10M24 3L31 0M24 10L31 14M24 45L24 52M24 45L31 42M24 52L31 56M31 0L37 3M31 56L37 52M37 3L37 10M37 3L43 0M43 0L49 3M49 3L49 10M49 45L49 52M49 52L55 56M55 56L61 52M61 45L61 52" style="fill:none;stroke:#ff0000;stroke-linecap:round"/>
</svg>