<svg height="500" viewBox="0 0 79 56" width="500" xmlns="http://www.w3.org/2000/svg">
<polygon fill="grey" points="0,45 6,48 13,46 19,42 26,41 32,43 32,50 37,56 41,50 46,46 52,45 59,47 65,51 79,47 66,46 67,39 73,35 74,28 68,27 65,21 61,15 61,8 55,7 48,7 44,1 37,4 32,0 26,3 27,10 22,15 18,21 12,24 8,30 14,33 12,40 6,42 "/>
<path d="M24 10L18 14M18 14L12 10M12 10L12 3M12 3L18 0M18 0L24 3M24 3L24 10M37 10L31 14M31 14L24 10M24 10L24 3M24 3L31 0M31 0L37 3M37 3L37 10M49 10L43 14M43 14L37 10M37 10L37 3M37 3L43 0M43 0L49 3M49 3L49 10M43 21L37 24M37 24L31 21M31 21L31 14M31 14L37 10M37 10L43 14M43 14L43 21M31 21L24 24M24 24L18 21M18 21L18 14M18 14L24 10M24 10L31 14M31 14L31 21M18 21L12 24M12 24L6 21M6 21L6 14M6 14L12 10M12 10L18 14M18 14L18 21M55 21L49 24M49 24L43 21M43 21L43 14M43 14L49 10M49 10L55 14M55 14L55 21M49 31L43 35M43 35L37 31M37 31L37 24M37 24L43 21M43 21L49 24M49 24L49 31M37 31L31 35M31 35L24 31M24 31L24 24M24 24L31 21M31 21L37 24M37 24L37 31M24 31L18 35M18 35L12 31M12 31L12 24M12 24L18 21M18 21L24 24M24 24L24 31M12 31L6 35M6 35L0 31M0 31L0 24M0 24L6 21M6 21L12 24M12 24L12 31M61 31L55 35M55 35L49 31M49 31L49 24M49 24L55 21M55 21L61 24M61 24L61 31M55 42L49 45M49 45L43 42M43 42L43 35M43 35L49 31M49 31L55 35M55 35L55 42M43 42L37 45M37 45L31 42M31 42L31 35M31 35L37 31M37 31L43 35M43 35L43 42M31 42L24 45M24 45L18 42M18 42L18 35M18 35L24 31M24 31L31 35M31 35L31 42M18 42L12 45M12 45L6 42M6 42L6 35M6 35L12 31M12 31L18 35M18 35L18 42M12 52L6 56M6 56L0 52M0 52L0 45M0 45L6 42M6 42L12 45M12 45L12 52M37 52L31 56M31 56L24 52M24 52L24 45M24 45L31 42M31 42L37 45M37 45L37 52M61 52L55 56M55 56L49 52M49 52L49 45M49 45L55 42M55 42L61 45M61 45L61 52" stroke="red"/>
</svg>