<svg height="500" viewBox="-2 -2 290 205" width="500" xmlns="http://www.w3.org/2000/svg">
<path class="hole" d="M0 47L0 86L28 119L53 160L73 104L105 147L152 187L152 141L154 102L198 83L192 129L195 189L248 138L285 150L286 56L250 97L247 3L187 40L149 65L107 76L104 40L148 3L72 0L9 0M-2 -2L288 -2L288 203L-2 203" style="fill:#00000066;fill-rule:evenodd;stroke:none;"/>
<path class="ok" d="M0 63L11 85M0 63L22 50M11 85L33 74M11 85L34 102M12 18L28 44M12 18L34 0M22 50L33 74M28 44L48 65M28 44L57 37M33 74L34 102M33 74L62 65M34 0L60 11M34 102L66 106M40 136L67 118M48 65L57 37M48 65L73 80M57 37L60 11M57 37L68 17M57 37L80 34M62 65L79 81M62 65L93 60M66 106L79 81M68 17L80 34M73 80L93 60M73 80L93 100M79 81L93 100M79 81L113 80M80 34L93 60M80 34L98 8M93 100L113 80M93 100L113 119M113 80L137 98M113 119L137 98M113 119L137 145M113 146L118 110M113 146L146 166M125 78L157 70M135 79L165 57M137 98L157 70M157 70L187 83M165 57L187 83M187 83L210 55M209 143L219 104M210 55L239 82M219 104L239 82M219 104L240 120M240 120L260 99" style="fill:none;stroke:#0000ff;stroke-linecap:round"/>
<path class="short" d="" style="fill:none;stroke:#00ff99;stroke-linecap:round"/>
<path class="long" d="" style="fill:none;stroke:#ff0099;stroke-linecap:round"/>
<path class="out" d="M40 136L61 165M61 165L88 192M61 165L89 144M66 106L87 127M66 106L93 100M67 118L89 144M80 34L109 37M87 127L93 100M87 127L113 119M88 192L112 169M89 144L112 169M89 144L113 119M93 60L109 37M93 60L113 80M98 8L109 37M112 51L125 78M112 51L135 24M112 169L131 201M112 169L137 145M118 110L158 107M131 201L164 193M135 24L160 14M135 24L160 40M135 79L158 107M137 98L155 124M137 145L155 124M137 145L164 150M137 145L167 161M146 166L172 141M155 124L164 150M155 124L186 114M157 70L160 40M158 107L172 141M158 107L187 83M160 14L160 40M160 14L183 28M160 40L183 28M160 40L191 26M164 193L167 161M172 141L209 143M186 114L187 83M187 83L219 104M191 26L210 55M239 82L260 99M240 120L253 147M253 147L286 139M260 99L286 112M286 112L286 139" style="fill:none;stroke:#ff0000;stroke-linecap:round"/>
</svg>