<svg height="500" viewBox="0 -2 290 205" width="500" xmlns="http://www.w3.org/2000/svg">
<path class="hole" d="M2 47L2 86L30 119L55 160L75 104L107 147L154 187L154 141L156 102L200 83L194 129L197 189L250 138L287 150L288 56L252 97L249 3L189 40L151 65L109 76L106 40L150 3L74 0L11 0M0 -2L290 -2L290 203L0 203" style="fill:#00000066;fill-rule:evenodd;"/>
<circle cx="287" cy="150" fill="#ffff0066" r="5">
<title>
BreakALeg@87
</title>
</circle>
<circle cx="236" cy="51" fill="#ffff0066" r="5">
<title>
Globalist@89
</title>
</circle>
<circle cx="287" cy="111" fill="#ffff0066" r="5">
<title>
WallHack@120
</title>
</circle>
<path class="ok" d="M2 63L13 85M2 63L24 50M13 85L35 74M13 85L36 102M14 18L30 44M14 18L36 0M24 50L35 74M30 44L50 65M30 44L59 37M35 74L36 102M35 74L64 65M36 0L62 11M36 102L68 106M42 136L69 118M50 65L59 37M50 65L75 80M59 37L62 11M59 37L70 17M59 37L82 34M64 65L81 81M64 65L95 60M68 106L81 81M70 17L82 34M75 80L95 60M75 80L95 100M81 81L95 100M81 81L115 80M82 34L95 60M82 34L100 8M95 100L115 80M95 100L115 119M115 80L139 98M115 119L139 98M115 119L139 145M115 146L120 110M115 146L148 166M127 78L159 70M137 79L167 57M139 98L159 70M159 70L189 83M167 57L189 83M189 83L212 55M211 143L221 104M212 55L241 82M221 104L241 82M221 104L242 120M242 120L262 99" style="stroke:#0000ff;stroke-linecap:round"/>
<path class="out" d="M42 136L63 165M63 165L90 192M63 165L91 144M68 106L89 127M68 106L95 100M69 118L91 144M82 34L111 37M89 127L95 100M89 127L115 119M90 192L114 169M91 144L114 169M91 144L115 119M95 60L111 37M95 60L115 80M100 8L111 37M114 51L127 78M114 51L137 24M114 169L133 201M114 169L139 145M120 110L160 107M133 201L166 193M137 24L162 14M137 24L162 40M137 79L160 107M139 98L157 124M139 145L157 124M139 145L166 150M139 145L169 161M148 166L174 141M157 124L166 150M157 124L188 114M159 70L162 40M160 107L174 141M160 107L189 83M162 14L162 40M162 14L185 28M162 40L185 28M162 40L193 26M166 193L169 161M174 141L211 143M188 114L189 83M189 83L221 104M193 26L212 55M241 82L262 99M242 120L255 147M255 147L288 139M262 99L288 112M288 112L288 139" style="stroke:#ff0000;stroke-linecap:round"/>
<g fill="#333333">
<circle cx="2" cy="47" r="0.5">
<title>
hole:0
</title>
</circle>
<circle cx="2" cy="86" r="0.5">
<title>
hole:1
</title>
</circle>
<circle cx="30" cy="119" r="0.5">
<title>
hole:2
</title>
</circle>
<circle cx="55" cy="160" r="0.5">
<title>
hole:3
</title>
</circle>
<circle cx="75" cy="104" r="0.5">
<title>
hole:4
</title>
</circle>
<circle cx="107" cy="147" r="0.5">
<title>
hole:5
</title>
</circle>
<circle cx="154" cy="187" r="0.5">
<title>
hole:6
</title>
</circle>
<circle cx="154" cy="141" r="0.5">
<title>
hole:7
</title>
</circle>
<circle cx="156" cy="102" r="0.5">
<title>
hole:8
</title>
</circle>
<circle cx="200" cy="83" r="0.5">
<title>
hole:9
</title>
</circle>
<circle cx="194" cy="129" r="0.5">
<title>
hole:10
</title>
</circle>
<circle cx="197" cy="189" r="0.5">
<title>
hole:11
</title>
</circle>
<circle cx="250" cy="138" r="0.5">
<title>
hole:12
</title>
</circle>
<circle cx="287" cy="150" r="0.5">
<title>
hole:13
</title>
</circle>
<circle cx="288" cy="56" r="0.5">
<title>
hole:14
</title>
</circle>
<circle cx="252" cy="97" r="0.5">
<title>
hole:15
</title>
</circle>
<circle cx="249" cy="3" r="0.5">
<title>
hole:16
</title>
</circle>
<circle cx="189" cy="40" r="0.5">
<title>
hole:17
</title>
</circle>
<circle cx="151" cy="65" r="0.5">
<title>
hole:18
</title>
</circle>
<circle cx="109" cy="76" r="0.5">
<title>
hole:19
</title>
</circle>
<circle cx="106" cy="40" r="0.5">
<title>
hole:20
</title>
</circle>
<circle cx="150" cy="3" r="0.5">
<title>
hole:21
</title>
</circle>
<circle cx="74" cy="0" r="0.5">
<title>
hole:22
</title>
</circle>
<circle cx="11" cy="0" r="0.5">
<title>
hole:23
</title>
</circle>
</g>
<g fill="#999999">
<circle cx="2" cy="63" i="0" r="0.5" tabindex="0">
<title>
v:0
</title>
</circle>
<circle cx="13" cy="85" i="1" r="0.5" tabindex="1">
<title>
v:1
</title>
</circle>
<circle cx="14" cy="18" i="2" r="0.5" tabindex="2">
<title>
v:2
</title>
</circle>
<circle cx="24" cy="50" i="3" r="0.5" tabindex="3">
<title>
v:3
</title>
</circle>
<circle cx="30" cy="44" i="4" r="0.5" tabindex="4">
<title>
v:4
</title>
</circle>
<circle cx="35" cy="74" i="5" r="0.5" tabindex="5">
<title>
v:5
</title>
</circle>
<circle cx="36" cy="0" i="6" r="0.5" tabindex="6">
<title>
v:6
</title>
</circle>
<circle cx="36" cy="102" i="7" r="0.5" tabindex="7">
<title>
v:7
</title>
</circle>
<circle cx="42" cy="136" i="8" r="0.5" tabindex="8">
<title>
v:8
</title>
</circle>
<circle cx="50" cy="65" i="9" r="0.5" tabindex="9">
<title>
v:9
</title>
</circle>
<circle cx="59" cy="37" i="10" r="0.5" tabindex="10">
<title>
v:10
</title>
</circle>
<circle cx="62" cy="11" i="11" r="0.5" tabindex="11">
<title>
v:11
</title>
</circle>
<circle cx="63" cy="165" i="12" r="0.5" tabindex="12">
<title>
v:12
</title>
</circle>
<circle cx="64" cy="65" i="13" r="0.5" tabindex="13">
<title>
v:13
</title>
</circle>
<circle cx="68" cy="106" i="14" r="0.5" tabindex="14">
<title>
v:14
</title>
</circle>
<circle cx="69" cy="118" i="15" r="0.5" tabindex="15">
<title>
v:15
</title>
</circle>
<circle cx="70" cy="17" i="16" r="0.5" tabindex="16">
<title>
v:16
</title>
</circle>
<circle cx="75" cy="80" i="17" r="0.5" tabindex="17">
<title>
v:17
</title>
</circle>
<circle cx="81" cy="81" i="18" r="0.5" tabindex="18">
<title>
v:18
</title>
</circle>
<circle cx="82" cy="34" i="19" r="0.5" tabindex="19">
<title>
v:19
</title>
</circle>
<circle cx="89" cy="127" i="20" r="0.5" tabindex="20">
<title>
v:20
</title>
</circle>
<circle cx="90" cy="192" i="21" r="0.5" tabindex="21">
<title>
v:21
</title>
</circle>
<circle cx="91" cy="144" i="22" r="0.5" tabindex="22">
<title>
v:22
</title>
</circle>
<circle cx="95" cy="60" i="23" r="0.5" tabindex="23">
<title>
v:23
</title>
</circle>
<circle cx="95" cy="100" i="24" r="0.5" tabindex="24">
<title>
v:24
</title>
</circle>
<circle cx="100" cy="8" i="25" r="0.5" tabindex="25">
<title>
v:25
</title>
</circle>
<circle cx="111" cy="37" i="26" r="0.5" tabindex="26">
<title>
v:26
</title>
</circle>
<circle cx="114" cy="51" i="27" r="0.5" tabindex="27">
<title>
v:27
</title>
</circle>
<circle cx="114" cy="169" i="28" r="0.5" tabindex="28">
<title>
v:28
</title>
</circle>
<circle cx="115" cy="80" i="29" r="0.5" tabindex="29">
<title>
v:29
</title>
</circle>
<circle cx="115" cy="119" i="30" r="0.5" tabindex="30">
<title>
v:30
</title>
</circle>
<circle cx="115" cy="146" i="31" r="0.5" tabindex="31">
<title>
v:31
</title>
</circle>
<circle cx="120" cy="110" i="32" r="0.5" tabindex="32">
<title>
v:32
</title>
</circle>
<circle cx="127" cy="78" i="33" r="0.5" tabindex="33">
<title>
v:33
</title>
</circle>
<circle cx="133" cy="201" i="34" r="0.5" tabindex="34">
<title>
v:34
</title>
</circle>
<circle cx="137" cy="24" i="35" r="0.5" tabindex="35">
<title>
v:35
</title>
</circle>
<circle cx="137" cy="79" i="36" r="0.5" tabindex="36">
<title>
v:36
</title>
</circle>
<circle cx="139" cy="98" i="37" r="0.5" tabindex="37">
<title>
v:37
</title>
</circle>
<circle cx="139" cy="145" i="38" r="0.5" tabindex="38">
<title>
v:38
</title>
</circle>
<circle cx="148" cy="166" i="39" r="0.5" tabindex="39">
<title>
v:39
</title>
</circle>
<circle cx="157" cy="124" i="40" r="0.5" tabindex="40">
<title>
v:40
</title>
</circle>
<circle cx="159" cy="70" i="41" r="0.5" tabindex="41">
<title>
v:41
</title>
</circle>
<circle cx="160" cy="107" i="42" r="0.5" tabindex="42">
<title>
v:42
</title>
</circle>
<circle cx="162" cy="14" i="43" r="0.5" tabindex="43">
<title>
v:43
</title>
</circle>
<circle cx="162" cy="40" i="44" r="0.5" tabindex="44">
<title>
v:44
</title>
</circle>
<circle cx="166" cy="150" i="45" r="0.5" tabindex="45">
<title>
v:45
</title>
</circle>
<circle cx="166" cy="193" i="46" r="0.5" tabindex="46">
<title>
v:46
</title>
</circle>
<circle cx="167" cy="57" i="47" r="0.5" tabindex="47">
<title>
v:47
</title>
</circle>
<circle cx="169" cy="161" i="48" r="0.5" tabindex="48">
<title>
v:48
</title>
</circle>
<circle cx="174" cy="141" i="49" r="0.5" tabindex="49">
<title>
v:49
</title>
</circle>
<circle cx="185" cy="28" i="50" r="0.5" tabindex="50">
<title>
v:50
</title>
</circle>
<circle cx="188" cy="114" i="51" r="0.5" tabindex="51">
<title>
v:51
</title>
</circle>
<circle cx="189" cy="83" i="52" r="0.5" tabindex="52">
<title>
v:52
</title>
</circle>
<circle cx="193" cy="26" i="53" r="0.5" tabindex="53">
<title>
v:53
</title>
</circle>
<circle cx="211" cy="143" i="54" r="0.5" tabindex="54">
<title>
v:54
</title>
</circle>
<circle cx="212" cy="55" i="55" r="0.5" tabindex="55">
<title>
v:55
</title>
</circle>
<circle cx="221" cy="104" i="56" r="0.5" tabindex="56">
<title>
v:56
</title>
</circle>
<circle cx="241" cy="82" i="57" r="0.5" tabindex="57">
<title>
v:57
</title>
</circle>
<circle cx="242" cy="120" i="58" r="0.5" tabindex="58">
<title>
v:58
</title>
</circle>
<circle cx="255" cy="147" i="59" r="0.5" tabindex="59">
<title>
v:59
</title>
</circle>
<circle cx="262" cy="99" i="60" r="0.5" tabindex="60">
<title>
v:60
</title>
</circle>
<circle cx="288" cy="112" i="61" r="0.5" tabindex="61">
<title>
v:61
</title>
</circle>
<circle cx="288" cy="139" i="62" r="0.5" tabindex="62">
<title>
v:62
</title>
</circle>
</g>
</svg>