<svg viewBox="0 0 198 195" width="500" xmlns="http://www.w3.org/2000/svg">
<path d="M6 193L66 187L137 194L194 183L197 121L187 65L106 8L82 9L4 82L9 137M0 0L198 0L198 195L0 195" style="fill:#00000066;fill-rule:evenodd;stroke:none;"/>
<path d="M11 80L12 71M11 80L18 77M11 80L34 116M12 71L20 71M18 77L20 71M18 77L62 108M20 71L56 94M31 98L33 89M31 98L41 99M31 98L75 147M33 89L45 91M34 116L95 126M41 99L45 91M41 99L77 127M45 91L73 110M50 129L52 141M50 129L59 126M52 141L62 134M52 141L100 170M56 94L97 91M59 126L62 134M59 126L102 133M62 108L119 93M62 134L121 144M73 110L114 108M75 147L147 136M77 127L136 113M95 126L135 104M97 91L141 61M100 170L163 150M102 133L138 118M114 108L148 72M119 93L146 63M121 144L159 114M135 104L152 64M136 113L157 71M138 118L161 79M141 61L147 40M146 63L154 43M147 40L154 43M147 40L159 27M147 136L170 95M148 72L154 43M152 64L162 46M154 43L162 46M157 71L162 46M159 27L168 31M159 114L170 74M161 79L162 46M162 46L168 31M162 46L168 48M163 150L186 103M168 31L175 35M168 48L170 74M168 48L174 47M170 95L174 47M174 47L175 35M174 47L178 74M178 74L186 103" style="fill:none;stroke:#ff0000;stroke-linecap:round"/>
</svg>