<svg height="500" viewBox="4 6 197 190" width="500" xmlns="http://www.w3.org/2000/svg">
<path class="hole" d="M8 193L68 187L139 194L196 183L199 121L189 65L108 8L84 9L6 82L11 137M4 6L201 6L201 196L4 196" style="fill:#00000066;fill-rule:evenodd;"/>
<circle cx="166" cy="153" fill="#ffff0066" r="5">
<title>
Globalist@40
</title>
</circle>
<circle cx="30" cy="107" fill="#ffff0066" r="5">
<title>
SuperFlex@32
</title>
</circle>
<circle cx="93" cy="152" fill="#ffff0066" r="5">
<title>
SuperFlex@117
</title>
</circle>
<path class="ok" d="M13 80L20 77M13 80L36 116M20 77L22 71M20 77L64 108M22 71L58 94M33 98L35 89M33 98L43 99M33 98L77 147M35 89L47 91M36 116L97 126M43 99L47 91M43 99L79 127M47 91L75 110M52 129L54 141M52 129L61 126M54 141L64 134M54 141L102 170M58 94L99 91M61 126L64 134M61 126L104 133M64 108L121 93M64 134L123 144M75 110L116 108M77 147L149 136M79 127L138 113M97 126L137 104M99 91L143 61M102 170L165 150M104 133L140 118M116 108L150 72M121 93L148 63M123 144L161 114M137 104L154 64M138 113L159 71M140 118L163 79M143 61L149 40M148 63L156 43M149 40L156 43M149 136L172 95M150 72L156 43M161 114L172 74M165 150L188 103M180 74L188 103" style="stroke:#0000ff;stroke-linecap:round"/>
<path class="out" d="M13 80L14 71M14 71L22 71M149 40L161 27M154 64L164 46M156 43L164 46M159 71L164 46M161 27L170 31M163 79L164 46M164 46L170 31M164 46L170 48M170 31L177 35M170 48L172 74M170 48L176 47M172 95L176 47M176 47L177 35M176 47L180 74" style="stroke:#ff0000;stroke-linecap:round"/>
<g fill="#333333">
<circle cx="8" cy="193" r="0.5">
<title>
hole:0
</title>
</circle>
<circle cx="68" cy="187" r="0.5">
<title>
hole:1
</title>
</circle>
<circle cx="139" cy="194" r="0.5">
<title>
hole:2
</title>
</circle>
<circle cx="196" cy="183" r="0.5">
<title>
hole:3
</title>
</circle>
<circle cx="199" cy="121" r="0.5">
<title>
hole:4
</title>
</circle>
<circle cx="189" cy="65" r="0.5">
<title>
hole:5
</title>
</circle>
<circle cx="108" cy="8" r="0.5">
<title>
hole:6
</title>
</circle>
<circle cx="84" cy="9" r="0.5">
<title>
hole:7
</title>
</circle>
<circle cx="6" cy="82" r="0.5">
<title>
hole:8
</title>
</circle>
<circle cx="11" cy="137" r="0.5">
<title>
hole:9
</title>
</circle>
</g>
<g fill="#999999">
<circle cx="13" cy="80" i="0" r="0.5" tabindex="0">
<title>
v:0
</title>
</circle>
<circle cx="14" cy="71" i="1" r="0.5" tabindex="1">
<title>
v:1
</title>
</circle>
<circle cx="20" cy="77" i="2" r="0.5" tabindex="2">
<title>
v:2
</title>
</circle>
<circle cx="22" cy="71" i="3" r="0.5" tabindex="3">
<title>
v:3
</title>
</circle>
<circle cx="33" cy="98" i="4" r="0.5" tabindex="4">
<title>
v:4
</title>
</circle>
<circle cx="35" cy="89" i="5" r="0.5" tabindex="5">
<title>
v:5
</title>
</circle>
<circle cx="36" cy="116" i="6" r="0.5" tabindex="6">
<title>
v:6
</title>
</circle>
<circle cx="43" cy="99" i="7" r="0.5" tabindex="7">
<title>
v:7
</title>
</circle>
<circle cx="47" cy="91" i="8" r="0.5" tabindex="8">
<title>
v:8
</title>
</circle>
<circle cx="52" cy="129" i="9" r="0.5" tabindex="9">
<title>
v:9
</title>
</circle>
<circle cx="54" cy="141" i="10" r="0.5" tabindex="10">
<title>
v:10
</title>
</circle>
<circle cx="58" cy="94" i="11" r="0.5" tabindex="11">
<title>
v:11
</title>
</circle>
<circle cx="61" cy="126" i="12" r="0.5" tabindex="12">
<title>
v:12
</title>
</circle>
<circle cx="64" cy="108" i="13" r="0.5" tabindex="13">
<title>
v:13
</title>
</circle>
<circle cx="64" cy="134" i="14" r="0.5" tabindex="14">
<title>
v:14
</title>
</circle>
<circle cx="75" cy="110" i="15" r="0.5" tabindex="15">
<title>
v:15
</title>
</circle>
<circle cx="77" cy="147" i="16" r="0.5" tabindex="16">
<title>
v:16
</title>
</circle>
<circle cx="79" cy="127" i="17" r="0.5" tabindex="17">
<title>
v:17
</title>
</circle>
<circle cx="97" cy="126" i="18" r="0.5" tabindex="18">
<title>
v:18
</title>
</circle>
<circle cx="99" cy="91" i="19" r="0.5" tabindex="19">
<title>
v:19
</title>
</circle>
<circle cx="102" cy="170" i="20" r="0.5" tabindex="20">
<title>
v:20
</title>
</circle>
<circle cx="104" cy="133" i="21" r="0.5" tabindex="21">
<title>
v:21
</title>
</circle>
<circle cx="116" cy="108" i="22" r="0.5" tabindex="22">
<title>
v:22
</title>
</circle>
<circle cx="121" cy="93" i="23" r="0.5" tabindex="23">
<title>
v:23
</title>
</circle>
<circle cx="123" cy="144" i="24" r="0.5" tabindex="24">
<title>
v:24
</title>
</circle>
<circle cx="137" cy="104" i="25" r="0.5" tabindex="25">
<title>
v:25
</title>
</circle>
<circle cx="138" cy="113" i="26" r="0.5" tabindex="26">
<title>
v:26
</title>
</circle>
<circle cx="140" cy="118" i="27" r="0.5" tabindex="27">
<title>
v:27
</title>
</circle>
<circle cx="143" cy="61" i="28" r="0.5" tabindex="28">
<title>
v:28
</title>
</circle>
<circle cx="148" cy="63" i="29" r="0.5" tabindex="29">
<title>
v:29
</title>
</circle>
<circle cx="149" cy="40" i="30" r="0.5" tabindex="30">
<title>
v:30
</title>
</circle>
<circle cx="149" cy="136" i="31" r="0.5" tabindex="31">
<title>
v:31
</title>
</circle>
<circle cx="150" cy="72" i="32" r="0.5" tabindex="32">
<title>
v:32
</title>
</circle>
<circle cx="154" cy="64" i="33" r="0.5" tabindex="33">
<title>
v:33
</title>
</circle>
<circle cx="156" cy="43" i="34" r="0.5" tabindex="34">
<title>
v:34
</title>
</circle>
<circle cx="159" cy="71" i="35" r="0.5" tabindex="35">
<title>
v:35
</title>
</circle>
<circle cx="161" cy="27" i="36" r="0.5" tabindex="36">
<title>
v:36
</title>
</circle>
<circle cx="161" cy="114" i="37" r="0.5" tabindex="37">
<title>
v:37
</title>
</circle>
<circle cx="163" cy="79" i="38" r="0.5" tabindex="38">
<title>
v:38
</title>
</circle>
<circle cx="164" cy="46" i="39" r="0.5" tabindex="39">
<title>
v:39
</title>
</circle>
<circle cx="165" cy="150" i="40" r="0.5" tabindex="40">
<title>
v:40
</title>
</circle>
<circle cx="170" cy="31" i="41" r="0.5" tabindex="41">
<title>
v:41
</title>
</circle>
<circle cx="170" cy="48" i="42" r="0.5" tabindex="42">
<title>
v:42
</title>
</circle>
<circle cx="172" cy="74" i="43" r="0.5" tabindex="43">
<title>
v:43
</title>
</circle>
<circle cx="172" cy="95" i="44" r="0.5" tabindex="44">
<title>
v:44
</title>
</circle>
<circle cx="176" cy="47" i="45" r="0.5" tabindex="45">
<title>
v:45
</title>
</circle>
<circle cx="177" cy="35" i="46" r="0.5" tabindex="46">
<title>
v:46
</title>
</circle>
<circle cx="180" cy="74" i="47" r="0.5" tabindex="47">
<title>
v:47
</title>
</circle>
<circle cx="188" cy="103" i="48" r="0.5" tabindex="48">
<title>
v:48
</title>
</circle>
</g>
</svg>