<svg height="500" viewBox="4 6 197 190" width="500" xmlns="http://www.w3.org/2000/svg">
<path class="hole" d="M8 193L68 187L139 194L196 183L199 121L189 65L108 8L84 9L6 82L11 137M4 6L201 6L201 196L4 196" style="fill:#00000066;fill-rule:evenodd;"/>
<circle cx="166" cy="153" r="5" style="fill:#ffff0066;" title="Globalist"/>
<path class="ok" d="M11 80L18 77M11 80L34 116M18 77L20 71M18 77L62 108M20 71L56 94M31 98L33 89M31 98L41 99M31 98L75 147M33 89L45 91M34 116L95 126M41 99L45 91M41 99L77 127M45 91L73 110M50 129L52 141M50 129L59 126M52 141L62 134M52 141L100 170M56 94L97 91M59 126L62 134M59 126L102 133M62 108L119 93M62 134L121 144M73 110L114 108M75 147L147 136M77 127L136 113M95 126L135 104M97 91L141 61M100 170L163 150M102 133L138 118M114 108L148 72M119 93L146 63M121 144L159 114M135 104L152 64M136 113L157 71M138 118L161 79M141 61L147 40M146 63L154 43M147 40L154 43M147 136L170 95M148 72L154 43M152 64L162 46M154 43L162 46M157 71L162 46M159 114L170 74M161 79L162 46M163 150L186 103M178 74L186 103" style="stroke:#0000ff;stroke-linecap:round"/>
<path class="out" d="M11 80L12 71M12 71L20 71M147 40L159 27M159 27L168 31M162 46L168 31M162 46L168 48M168 31L175 35M168 48L170 74M168 48L174 47M170 95L174 47M174 47L175 35M174 47L178 74" style="stroke:#ff0000;stroke-linecap:round"/>
<g fill="#333333">
<circle cx="8" cy="193" r="0.5" tabindex="0">
<title>
hole:0
</title>
</circle>
<circle cx="68" cy="187" r="0.5" tabindex="1">
<title>
hole:1
</title>
</circle>
<circle cx="139" cy="194" r="0.5" tabindex="2">
<title>
hole:2
</title>
</circle>
<circle cx="196" cy="183" r="0.5" tabindex="3">
<title>
hole:3
</title>
</circle>
<circle cx="199" cy="121" r="0.5" tabindex="4">
<title>
hole:4
</title>
</circle>
<circle cx="189" cy="65" r="0.5" tabindex="5">
<title>
hole:5
</title>
</circle>
<circle cx="108" cy="8" r="0.5" tabindex="6">
<title>
hole:6
</title>
</circle>
<circle cx="84" cy="9" r="0.5" tabindex="7">
<title>
hole:7
</title>
</circle>
<circle cx="6" cy="82" r="0.5" tabindex="8">
<title>
hole:8
</title>
</circle>
<circle cx="11" cy="137" r="0.5" tabindex="9">
<title>
hole:9
</title>
</circle>
</g>
<g fill="#999999">
<circle cx="11" cy="80" r="0.5" tabindex="10">
<title>
v:0
</title>
</circle>
<circle cx="12" cy="71" r="0.5" tabindex="11">
<title>
v:1
</title>
</circle>
<circle cx="18" cy="77" r="0.5" tabindex="12">
<title>
v:2
</title>
</circle>
<circle cx="20" cy="71" r="0.5" tabindex="13">
<title>
v:3
</title>
</circle>
<circle cx="31" cy="98" r="0.5" tabindex="14">
<title>
v:4
</title>
</circle>
<circle cx="33" cy="89" r="0.5" tabindex="15">
<title>
v:5
</title>
</circle>
<circle cx="34" cy="116" r="0.5" tabindex="16">
<title>
v:6
</title>
</circle>
<circle cx="41" cy="99" r="0.5" tabindex="17">
<title>
v:7
</title>
</circle>
<circle cx="45" cy="91" r="0.5" tabindex="18">
<title>
v:8
</title>
</circle>
<circle cx="50" cy="129" r="0.5" tabindex="19">
<title>
v:9
</title>
</circle>
<circle cx="52" cy="141" r="0.5" tabindex="20">
<title>
v:10
</title>
</circle>
<circle cx="56" cy="94" r="0.5" tabindex="21">
<title>
v:11
</title>
</circle>
<circle cx="59" cy="126" r="0.5" tabindex="22">
<title>
v:12
</title>
</circle>
<circle cx="62" cy="108" r="0.5" tabindex="23">
<title>
v:13
</title>
</circle>
<circle cx="62" cy="134" r="0.5" tabindex="24">
<title>
v:14
</title>
</circle>
<circle cx="73" cy="110" r="0.5" tabindex="25">
<title>
v:15
</title>
</circle>
<circle cx="75" cy="147" r="0.5" tabindex="26">
<title>
v:16
</title>
</circle>
<circle cx="77" cy="127" r="0.5" tabindex="27">
<title>
v:17
</title>
</circle>
<circle cx="95" cy="126" r="0.5" tabindex="28">
<title>
v:18
</title>
</circle>
<circle cx="97" cy="91" r="0.5" tabindex="29">
<title>
v:19
</title>
</circle>
<circle cx="100" cy="170" r="0.5" tabindex="30">
<title>
v:20
</title>
</circle>
<circle cx="102" cy="133" r="0.5" tabindex="31">
<title>
v:21
</title>
</circle>
<circle cx="114" cy="108" r="0.5" tabindex="32">
<title>
v:22
</title>
</circle>
<circle cx="119" cy="93" r="0.5" tabindex="33">
<title>
v:23
</title>
</circle>
<circle cx="121" cy="144" r="0.5" tabindex="34">
<title>
v:24
</title>
</circle>
<circle cx="135" cy="104" r="0.5" tabindex="35">
<title>
v:25
</title>
</circle>
<circle cx="136" cy="113" r="0.5" tabindex="36">
<title>
v:26
</title>
</circle>
<circle cx="138" cy="118" r="0.5" tabindex="37">
<title>
v:27
</title>
</circle>
<circle cx="141" cy="61" r="0.5" tabindex="38">
<title>
v:28
</title>
</circle>
<circle cx="146" cy="63" r="0.5" tabindex="39">
<title>
v:29
</title>
</circle>
<circle cx="147" cy="40" r="0.5" tabindex="40">
<title>
v:30
</title>
</circle>
<circle cx="147" cy="136" r="0.5" tabindex="41">
<title>
v:31
</title>
</circle>
<circle cx="148" cy="72" r="0.5" tabindex="42">
<title>
v:32
</title>
</circle>
<circle cx="152" cy="64" r="0.5" tabindex="43">
<title>
v:33
</title>
</circle>
<circle cx="154" cy="43" r="0.5" tabindex="44">
<title>
v:34
</title>
</circle>
<circle cx="157" cy="71" r="0.5" tabindex="45">
<title>
v:35
</title>
</circle>
<circle cx="159" cy="27" r="0.5" tabindex="46">
<title>
v:36
</title>
</circle>
<circle cx="159" cy="114" r="0.5" tabindex="47">
<title>
v:37
</title>
</circle>
<circle cx="161" cy="79" r="0.5" tabindex="48">
<title>
v:38
</title>
</circle>
<circle cx="162" cy="46" r="0.5" tabindex="49">
<title>
v:39
</title>
</circle>
<circle cx="163" cy="150" r="0.5" tabindex="50">
<title>
v:40
</title>
</circle>
<circle cx="168" cy="31" r="0.5" tabindex="51">
<title>
v:41
</title>
</circle>
<circle cx="168" cy="48" r="0.5" tabindex="52">
<title>
v:42
</title>
</circle>
<circle cx="170" cy="74" r="0.5" tabindex="53">
<title>
v:43
</title>
</circle>
<circle cx="170" cy="95" r="0.5" tabindex="54">
<title>
v:44
</title>
</circle>
<circle cx="174" cy="47" r="0.5" tabindex="55">
<title>
v:45
</title>
</circle>
<circle cx="175" cy="35" r="0.5" tabindex="56">
<title>
v:46
</title>
</circle>
<circle cx="178" cy="74" r="0.5" tabindex="57">
<title>
v:47
</title>
</circle>
<circle cx="186" cy="103" r="0.5" tabindex="58">
<title>
v:48
</title>
</circle>
</g>
</svg>