<svg height="500" viewBox="-2 -2 75 81" width="500" xmlns="http://www.w3.org/2000/svg">
<path class="hole" d="M0 76L5 77L23 77L29 68L59 20L56 1L51 0L31 12L10 25M-2 -2L73 -2L73 79L-2 79" style="fill:#00000066;fill-rule:evenodd;stroke:none;"/>
<circle cx="20" cy="58" r="5" style="fill:#ffff0066;stroke:none;"/>
<path class="ok" d="M10 44L17 48M13 54L13 56M13 54L17 53M13 56L20 56M14 31L27 21M17 48L17 53M17 48L24 49M20 56L24 49M21 58L21 60M21 58L25 54M21 60L27 60M24 49L25 54M24 49L31 49M27 21L31 49M27 21L39 22M27 60L31 49M39 22L54 19" style="fill:none;stroke:#0000ff;stroke-linecap:round"/>
<path class="out" d="M0 5L2 0M0 5L3 14M2 0L10 8M3 14L5 28M3 14L10 8M5 28L10 44M5 28L14 31M10 8L19 9M19 9L22 16M19 9L27 4M22 16L27 21M22 16L29 8M27 4L29 8M31 49L51 43M50 49L50 51M50 49L54 48M50 51L56 51M51 43L54 19M51 43L55 44M54 19L65 21M54 48L55 44M54 54L54 56M54 54L57 53M54 56L60 56M55 44L59 46M56 51L59 46M57 53L59 46M59 46L63 46M60 56L63 46M63 46L71 30M65 21L71 30" style="fill:none;stroke:#ff0000;stroke-linecap:round"/>
</svg>