<svg height="500" viewBox="0 0 59 77" width="500" xmlns="http://www.w3.org/2000/svg">
<polygon fill="grey" points="0,76 5,77 23,77 29,68 59,20 56,1 51,0 31,12 10,25 "/>
<path d="M3 14L0 5M0 5L2 0M2 0L10 8M10 8L3 14M10 8L19 9M19 9L27 4M27 4L29 8M29 8L22 16M22 16L19 9M3 14L5 28M5 28L14 31M14 31L27 21M27 21L22 16M17 48L17 53M17 53L13 54M13 54L13 56M13 56L20 56M20 56L24 49M24 49L25 54M25 54L21 58M21 58L21 60M21 60L27 60M27 60L31 49M31 49L24 49M24 49L17 48M5 28L10 44M10 44L17 48M31 49L27 21M27 21L39 22M39 22L54 19M54 19L51 43M51 43L31 49M55 44L54 48M54 48L50 49M50 49L50 51M50 51L56 51M56 51L59 46M59 46L57 53M57 53L54 54M54 54L54 56M54 56L60 56M60 56L63 46M63 46L59 46M59 46L55 44M55 44L51 43M63 46L71 30M71 30L65 21M65 21L54 19" stroke="red"/>
</svg>