<svg height="500" viewBox="0 -2 246 289" width="500" xmlns="http://www.w3.org/2000/svg">
<path class="hole" d="M36 5L5 30L43 66L38 105L2 121L8 162L28 204L2 245L9 285L45 265L86 186L136 175L107 236L149 285L191 221L206 285L244 218L220 159L181 184L158 122L203 124L244 37L172 32L132 0L129 91L76 15M0 -2L246 -2L246 287L0 287" style="fill:#00000066;fill-rule:evenodd;"/>
<circle cx="206" cy="285" fill="#ffff0066" r="5">
<title>
BreakALeg@77
</title>
</circle>
<circle cx="218" cy="78" fill="#ffff0066" r="5">
<title>
SuperFlex@56
</title>
</circle>
<circle cx="152" cy="240" fill="#ffff0066" r="5">
<title>
WallHack@121
</title>
</circle>
<path class="ok" d="M12 245L16 227M12 245L28 259M16 227L37 226M26 143L34 130M26 143L37 160M28 259L44 246M34 130L55 135M37 160L49 171M37 160L54 155M37 226L44 246M37 226L51 210M44 164L55 186M44 164L57 148M49 171L54 155M49 171L62 180M52 41L56 71M52 41L84 35M54 119L55 135M54 119L80 114M54 155L55 135M54 155L66 162M54 155L68 152M55 135L75 137M55 178L61 197M55 178L66 162M55 186L76 178M56 71L62 103M56 71L88 82M57 148L76 155M62 88L62 110M62 88L88 82M62 103L88 82M62 110L82 120M62 180L77 172M63 196L82 189M66 162L80 151M66 162L86 171M68 152L77 172M75 137L80 114M75 137L80 151M75 137L85 129M75 137L101 146M76 155L76 178M76 155L95 144M76 178L95 184M77 141L82 120M77 141L96 147M80 114L104 119M80 151L86 171M80 151L94 150M80 151L104 149M82 120L98 104M82 120L104 125M82 189L86 171M85 129L99 135M86 171L107 170M86 171L108 174M88 82L98 104M88 82L115 84M94 150L99 135M95 144L110 166M95 184L110 166M96 147L104 125M98 104L104 125M98 104L115 84M98 104L123 95M101 146L104 119M104 125L104 149M104 125L126 118M104 149L107 170M104 149L126 156M107 170L126 156M115 165L132 159M123 95L126 118M123 95L144 86M124 121L138 104M124 121L140 137M126 118L140 137M126 118L150 123M126 156L140 137M126 156L142 171M132 159L142 171M132 185L142 171M132 185L150 200M133 126L148 145M133 126L152 108M135 218L150 200M135 218L156 220M138 104L157 108M140 137L157 151M140 137L160 129M142 171L157 151M142 171L160 184M144 86L157 102M148 145L165 162M150 123L157 102M150 200L156 220M150 200L160 184M150 200L162 214M155 62L168 47M155 62L174 73M157 82L157 102M157 82L174 73M157 102L177 107M157 108L178 98M157 151L160 129M160 184L181 186M162 214L176 205M168 47L185 54M174 73L185 54M174 73L186 85M174 73L194 71M176 205L181 186M177 107L186 85M177 107L202 116M178 98L190 115M178 98L194 88M180 120L189 101M180 120L201 118M185 54L194 71M186 85L194 71M189 101L201 84M189 101L201 118M190 115L205 99M194 88L198 73M194 88L205 99M198 73L213 76" style="stroke:#0000ff;stroke-linecap:round"/>
<path class="out" d="M44 246L45 271M44 246L64 240M45 271L66 275M51 210L68 221M52 41L67 10M61 197L84 190M63 196L68 221M64 240L68 221M64 240L75 259M64 240L85 242M66 275L75 259M67 10L84 35M68 221L89 224M82 189L98 204M84 35L104 55M84 35L106 14M84 190L86 171M84 190L102 191M85 242L89 224M88 82L104 55M89 224L98 204M95 184L115 203M98 204L114 190M102 191L108 174M104 55L115 84M104 55L127 34M106 14L127 34M107 170L114 190M110 166L132 185M115 165L119 180M115 203L132 185M115 203L135 218M119 180L132 185M148 145L167 128M150 123L167 128M152 108L167 128M157 108L160 129M157 151L178 142M157 151L181 165M160 129L178 142M160 129L180 120M160 129L181 133M160 184L181 165M165 162L181 177M165 162L184 155M167 128L177 107M167 128L187 138M178 142L180 120M178 142L198 153M180 171L184 155M180 171L200 173M181 133L190 115M181 177L184 155M184 155L187 138M184 155L200 159M187 138L202 116M187 138L202 145M198 153L216 133M198 153L216 173M200 159L200 173M200 159L202 145M200 159L214 159M201 84L223 89M201 118L216 133M201 118L219 109M202 145L218 146M205 99L220 93M213 76L220 93M214 159L218 146M216 133L234 149M216 173L234 149M219 109L223 89" style="stroke:#ff0000;stroke-linecap:round"/>
<g fill="#333333">
<circle cx="36" cy="5" r="0.5">
<title>
hole:0
</title>
</circle>
<circle cx="5" cy="30" r="0.5">
<title>
hole:1
</title>
</circle>
<circle cx="43" cy="66" r="0.5">
<title>
hole:2
</title>
</circle>
<circle cx="38" cy="105" r="0.5">
<title>
hole:3
</title>
</circle>
<circle cx="2" cy="121" r="0.5">
<title>
hole:4
</title>
</circle>
<circle cx="8" cy="162" r="0.5">
<title>
hole:5
</title>
</circle>
<circle cx="28" cy="204" r="0.5">
<title>
hole:6
</title>
</circle>
<circle cx="2" cy="245" r="0.5">
<title>
hole:7
</title>
</circle>
<circle cx="9" cy="285" r="0.5">
<title>
hole:8
</title>
</circle>
<circle cx="45" cy="265" r="0.5">
<title>
hole:9
</title>
</circle>
<circle cx="86" cy="186" r="0.5">
<title>
hole:10
</title>
</circle>
<circle cx="136" cy="175" r="0.5">
<title>
hole:11
</title>
</circle>
<circle cx="107" cy="236" r="0.5">
<title>
hole:12
</title>
</circle>
<circle cx="149" cy="285" r="0.5">
<title>
hole:13
</title>
</circle>
<circle cx="191" cy="221" r="0.5">
<title>
hole:14
</title>
</circle>
<circle cx="206" cy="285" r="0.5">
<title>
hole:15
</title>
</circle>
<circle cx="244" cy="218" r="0.5">
<title>
hole:16
</title>
</circle>
<circle cx="220" cy="159" r="0.5">
<title>
hole:17
</title>
</circle>
<circle cx="181" cy="184" r="0.5">
<title>
hole:18
</title>
</circle>
<circle cx="158" cy="122" r="0.5">
<title>
hole:19
</title>
</circle>
<circle cx="203" cy="124" r="0.5">
<title>
hole:20
</title>
</circle>
<circle cx="244" cy="37" r="0.5">
<title>
hole:21
</title>
</circle>
<circle cx="172" cy="32" r="0.5">
<title>
hole:22
</title>
</circle>
<circle cx="132" cy="0" r="0.5">
<title>
hole:23
</title>
</circle>
<circle cx="129" cy="91" r="0.5">
<title>
hole:24
</title>
</circle>
<circle cx="76" cy="15" r="0.5">
<title>
hole:25
</title>
</circle>
</g>
<g fill="#999999">
<circle cx="12" cy="245" i="0" r="0.5" tabindex="0">
<title>
v:0
</title>
</circle>
<circle cx="16" cy="227" i="1" r="0.5" tabindex="1">
<title>
v:1
</title>
</circle>
<circle cx="26" cy="143" i="2" r="0.5" tabindex="2">
<title>
v:2
</title>
</circle>
<circle cx="28" cy="259" i="3" r="0.5" tabindex="3">
<title>
v:3
</title>
</circle>
<circle cx="34" cy="130" i="4" r="0.5" tabindex="4">
<title>
v:4
</title>
</circle>
<circle cx="37" cy="160" i="5" r="0.5" tabindex="5">
<title>
v:5
</title>
</circle>
<circle cx="37" cy="226" i="6" r="0.5" tabindex="6">
<title>
v:6
</title>
</circle>
<circle cx="44" cy="164" i="7" r="0.5" tabindex="7">
<title>
v:7
</title>
</circle>
<circle cx="44" cy="246" i="8" r="0.5" tabindex="8">
<title>
v:8
</title>
</circle>
<circle cx="45" cy="271" i="9" r="0.5" tabindex="9">
<title>
v:9
</title>
</circle>
<circle cx="49" cy="171" i="10" r="0.5" tabindex="10">
<title>
v:10
</title>
</circle>
<circle cx="51" cy="210" i="11" r="0.5" tabindex="11">
<title>
v:11
</title>
</circle>
<circle cx="52" cy="41" i="12" r="0.5" tabindex="12">
<title>
v:12
</title>
</circle>
<circle cx="54" cy="119" i="13" r="0.5" tabindex="13">
<title>
v:13
</title>
</circle>
<circle cx="54" cy="155" i="14" r="0.5" tabindex="14">
<title>
v:14
</title>
</circle>
<circle cx="55" cy="135" i="15" r="0.5" tabindex="15">
<title>
v:15
</title>
</circle>
<circle cx="55" cy="178" i="16" r="0.5" tabindex="16">
<title>
v:16
</title>
</circle>
<circle cx="55" cy="186" i="17" r="0.5" tabindex="17">
<title>
v:17
</title>
</circle>
<circle cx="56" cy="71" i="18" r="0.5" tabindex="18">
<title>
v:18
</title>
</circle>
<circle cx="57" cy="148" i="19" r="0.5" tabindex="19">
<title>
v:19
</title>
</circle>
<circle cx="61" cy="197" i="20" r="0.5" tabindex="20">
<title>
v:20
</title>
</circle>
<circle cx="62" cy="88" i="21" r="0.5" tabindex="21">
<title>
v:21
</title>
</circle>
<circle cx="62" cy="103" i="22" r="0.5" tabindex="22">
<title>
v:22
</title>
</circle>
<circle cx="62" cy="110" i="23" r="0.5" tabindex="23">
<title>
v:23
</title>
</circle>
<circle cx="62" cy="180" i="24" r="0.5" tabindex="24">
<title>
v:24
</title>
</circle>
<circle cx="63" cy="196" i="25" r="0.5" tabindex="25">
<title>
v:25
</title>
</circle>
<circle cx="64" cy="240" i="26" r="0.5" tabindex="26">
<title>
v:26
</title>
</circle>
<circle cx="66" cy="162" i="27" r="0.5" tabindex="27">
<title>
v:27
</title>
</circle>
<circle cx="66" cy="275" i="28" r="0.5" tabindex="28">
<title>
v:28
</title>
</circle>
<circle cx="67" cy="10" i="29" r="0.5" tabindex="29">
<title>
v:29
</title>
</circle>
<circle cx="68" cy="152" i="30" r="0.5" tabindex="30">
<title>
v:30
</title>
</circle>
<circle cx="68" cy="221" i="31" r="0.5" tabindex="31">
<title>
v:31
</title>
</circle>
<circle cx="75" cy="137" i="32" r="0.5" tabindex="32">
<title>
v:32
</title>
</circle>
<circle cx="75" cy="259" i="33" r="0.5" tabindex="33">
<title>
v:33
</title>
</circle>
<circle cx="76" cy="155" i="34" r="0.5" tabindex="34">
<title>
v:34
</title>
</circle>
<circle cx="76" cy="178" i="35" r="0.5" tabindex="35">
<title>
v:35
</title>
</circle>
<circle cx="77" cy="141" i="36" r="0.5" tabindex="36">
<title>
v:36
</title>
</circle>
<circle cx="77" cy="172" i="37" r="0.5" tabindex="37">
<title>
v:37
</title>
</circle>
<circle cx="80" cy="114" i="38" r="0.5" tabindex="38">
<title>
v:38
</title>
</circle>
<circle cx="80" cy="151" i="39" r="0.5" tabindex="39">
<title>
v:39
</title>
</circle>
<circle cx="82" cy="120" i="40" r="0.5" tabindex="40">
<title>
v:40
</title>
</circle>
<circle cx="82" cy="189" i="41" r="0.5" tabindex="41">
<title>
v:41
</title>
</circle>
<circle cx="84" cy="35" i="42" r="0.5" tabindex="42">
<title>
v:42
</title>
</circle>
<circle cx="84" cy="190" i="43" r="0.5" tabindex="43">
<title>
v:43
</title>
</circle>
<circle cx="85" cy="129" i="44" r="0.5" tabindex="44">
<title>
v:44
</title>
</circle>
<circle cx="85" cy="242" i="45" r="0.5" tabindex="45">
<title>
v:45
</title>
</circle>
<circle cx="86" cy="171" i="46" r="0.5" tabindex="46">
<title>
v:46
</title>
</circle>
<circle cx="88" cy="82" i="47" r="0.5" tabindex="47">
<title>
v:47
</title>
</circle>
<circle cx="89" cy="224" i="48" r="0.5" tabindex="48">
<title>
v:48
</title>
</circle>
<circle cx="94" cy="150" i="49" r="0.5" tabindex="49">
<title>
v:49
</title>
</circle>
<circle cx="95" cy="144" i="50" r="0.5" tabindex="50">
<title>
v:50
</title>
</circle>
<circle cx="95" cy="184" i="51" r="0.5" tabindex="51">
<title>
v:51
</title>
</circle>
<circle cx="96" cy="147" i="52" r="0.5" tabindex="52">
<title>
v:52
</title>
</circle>
<circle cx="98" cy="104" i="53" r="0.5" tabindex="53">
<title>
v:53
</title>
</circle>
<circle cx="98" cy="204" i="54" r="0.5" tabindex="54">
<title>
v:54
</title>
</circle>
<circle cx="99" cy="135" i="55" r="0.5" tabindex="55">
<title>
v:55
</title>
</circle>
<circle cx="101" cy="146" i="56" r="0.5" tabindex="56">
<title>
v:56
</title>
</circle>
<circle cx="102" cy="191" i="57" r="0.5" tabindex="57">
<title>
v:57
</title>
</circle>
<circle cx="104" cy="55" i="58" r="0.5" tabindex="58">
<title>
v:58
</title>
</circle>
<circle cx="104" cy="119" i="59" r="0.5" tabindex="59">
<title>
v:59
</title>
</circle>
<circle cx="104" cy="125" i="60" r="0.5" tabindex="60">
<title>
v:60
</title>
</circle>
<circle cx="104" cy="149" i="61" r="0.5" tabindex="61">
<title>
v:61
</title>
</circle>
<circle cx="106" cy="14" i="62" r="0.5" tabindex="62">
<title>
v:62
</title>
</circle>
<circle cx="107" cy="170" i="63" r="0.5" tabindex="63">
<title>
v:63
</title>
</circle>
<circle cx="108" cy="174" i="64" r="0.5" tabindex="64">
<title>
v:64
</title>
</circle>
<circle cx="110" cy="166" i="65" r="0.5" tabindex="65">
<title>
v:65
</title>
</circle>
<circle cx="114" cy="190" i="66" r="0.5" tabindex="66">
<title>
v:66
</title>
</circle>
<circle cx="115" cy="84" i="67" r="0.5" tabindex="67">
<title>
v:67
</title>
</circle>
<circle cx="115" cy="165" i="68" r="0.5" tabindex="68">
<title>
v:68
</title>
</circle>
<circle cx="115" cy="203" i="69" r="0.5" tabindex="69">
<title>
v:69
</title>
</circle>
<circle cx="119" cy="180" i="70" r="0.5" tabindex="70">
<title>
v:70
</title>
</circle>
<circle cx="123" cy="95" i="71" r="0.5" tabindex="71">
<title>
v:71
</title>
</circle>
<circle cx="124" cy="121" i="72" r="0.5" tabindex="72">
<title>
v:72
</title>
</circle>
<circle cx="126" cy="118" i="73" r="0.5" tabindex="73">
<title>
v:73
</title>
</circle>
<circle cx="126" cy="156" i="74" r="0.5" tabindex="74">
<title>
v:74
</title>
</circle>
<circle cx="127" cy="34" i="75" r="0.5" tabindex="75">
<title>
v:75
</title>
</circle>
<circle cx="132" cy="159" i="76" r="0.5" tabindex="76">
<title>
v:76
</title>
</circle>
<circle cx="132" cy="185" i="77" r="0.5" tabindex="77">
<title>
v:77
</title>
</circle>
<circle cx="133" cy="126" i="78" r="0.5" tabindex="78">
<title>
v:78
</title>
</circle>
<circle cx="135" cy="218" i="79" r="0.5" tabindex="79">
<title>
v:79
</title>
</circle>
<circle cx="138" cy="104" i="80" r="0.5" tabindex="80">
<title>
v:80
</title>
</circle>
<circle cx="140" cy="137" i="81" r="0.5" tabindex="81">
<title>
v:81
</title>
</circle>
<circle cx="142" cy="171" i="82" r="0.5" tabindex="82">
<title>
v:82
</title>
</circle>
<circle cx="144" cy="86" i="83" r="0.5" tabindex="83">
<title>
v:83
</title>
</circle>
<circle cx="148" cy="145" i="84" r="0.5" tabindex="84">
<title>
v:84
</title>
</circle>
<circle cx="150" cy="123" i="85" r="0.5" tabindex="85">
<title>
v:85
</title>
</circle>
<circle cx="150" cy="200" i="86" r="0.5" tabindex="86">
<title>
v:86
</title>
</circle>
<circle cx="152" cy="108" i="87" r="0.5" tabindex="87">
<title>
v:87
</title>
</circle>
<circle cx="155" cy="62" i="88" r="0.5" tabindex="88">
<title>
v:88
</title>
</circle>
<circle cx="156" cy="220" i="89" r="0.5" tabindex="89">
<title>
v:89
</title>
</circle>
<circle cx="157" cy="82" i="90" r="0.5" tabindex="90">
<title>
v:90
</title>
</circle>
<circle cx="157" cy="102" i="91" r="0.5" tabindex="91">
<title>
v:91
</title>
</circle>
<circle cx="157" cy="108" i="92" r="0.5" tabindex="92">
<title>
v:92
</title>
</circle>
<circle cx="157" cy="151" i="93" r="0.5" tabindex="93">
<title>
v:93
</title>
</circle>
<circle cx="160" cy="129" i="94" r="0.5" tabindex="94">
<title>
v:94
</title>
</circle>
<circle cx="160" cy="184" i="95" r="0.5" tabindex="95">
<title>
v:95
</title>
</circle>
<circle cx="162" cy="214" i="96" r="0.5" tabindex="96">
<title>
v:96
</title>
</circle>
<circle cx="165" cy="162" i="97" r="0.5" tabindex="97">
<title>
v:97
</title>
</circle>
<circle cx="167" cy="128" i="98" r="0.5" tabindex="98">
<title>
v:98
</title>
</circle>
<circle cx="168" cy="47" i="99" r="0.5" tabindex="99">
<title>
v:99
</title>
</circle>
<circle cx="174" cy="73" i="100" r="0.5" tabindex="100">
<title>
v:100
</title>
</circle>
<circle cx="176" cy="205" i="101" r="0.5" tabindex="101">
<title>
v:101
</title>
</circle>
<circle cx="177" cy="107" i="102" r="0.5" tabindex="102">
<title>
v:102
</title>
</circle>
<circle cx="178" cy="98" i="103" r="0.5" tabindex="103">
<title>
v:103
</title>
</circle>
<circle cx="178" cy="142" i="104" r="0.5" tabindex="104">
<title>
v:104
</title>
</circle>
<circle cx="180" cy="120" i="105" r="0.5" tabindex="105">
<title>
v:105
</title>
</circle>
<circle cx="180" cy="171" i="106" r="0.5" tabindex="106">
<title>
v:106
</title>
</circle>
<circle cx="181" cy="133" i="107" r="0.5" tabindex="107">
<title>
v:107
</title>
</circle>
<circle cx="181" cy="165" i="108" r="0.5" tabindex="108">
<title>
v:108
</title>
</circle>
<circle cx="181" cy="177" i="109" r="0.5" tabindex="109">
<title>
v:109
</title>
</circle>
<circle cx="181" cy="186" i="110" r="0.5" tabindex="110">
<title>
v:110
</title>
</circle>
<circle cx="184" cy="155" i="111" r="0.5" tabindex="111">
<title>
v:111
</title>
</circle>
<circle cx="185" cy="54" i="112" r="0.5" tabindex="112">
<title>
v:112
</title>
</circle>
<circle cx="186" cy="85" i="113" r="0.5" tabindex="113">
<title>
v:113
</title>
</circle>
<circle cx="187" cy="138" i="114" r="0.5" tabindex="114">
<title>
v:114
</title>
</circle>
<circle cx="189" cy="101" i="115" r="0.5" tabindex="115">
<title>
v:115
</title>
</circle>
<circle cx="190" cy="115" i="116" r="0.5" tabindex="116">
<title>
v:116
</title>
</circle>
<circle cx="194" cy="71" i="117" r="0.5" tabindex="117">
<title>
v:117
</title>
</circle>
<circle cx="194" cy="88" i="118" r="0.5" tabindex="118">
<title>
v:118
</title>
</circle>
<circle cx="198" cy="73" i="119" r="0.5" tabindex="119">
<title>
v:119
</title>
</circle>
<circle cx="198" cy="153" i="120" r="0.5" tabindex="120">
<title>
v:120
</title>
</circle>
<circle cx="200" cy="159" i="121" r="0.5" tabindex="121">
<title>
v:121
</title>
</circle>
<circle cx="200" cy="173" i="122" r="0.5" tabindex="122">
<title>
v:122
</title>
</circle>
<circle cx="201" cy="84" i="123" r="0.5" tabindex="123">
<title>
v:123
</title>
</circle>
<circle cx="201" cy="118" i="124" r="0.5" tabindex="124">
<title>
v:124
</title>
</circle>
<circle cx="202" cy="116" i="125" r="0.5" tabindex="125">
<title>
v:125
</title>
</circle>
<circle cx="202" cy="145" i="126" r="0.5" tabindex="126">
<title>
v:126
</title>
</circle>
<circle cx="205" cy="99" i="127" r="0.5" tabindex="127">
<title>
v:127
</title>
</circle>
<circle cx="213" cy="76" i="128" r="0.5" tabindex="128">
<title>
v:128
</title>
</circle>
<circle cx="214" cy="159" i="129" r="0.5" tabindex="129">
<title>
v:129
</title>
</circle>
<circle cx="216" cy="133" i="130" r="0.5" tabindex="130">
<title>
v:130
</title>
</circle>
<circle cx="216" cy="173" i="131" r="0.5" tabindex="131">
<title>
v:131
</title>
</circle>
<circle cx="218" cy="146" i="132" r="0.5" tabindex="132">
<title>
v:132
</title>
</circle>
<circle cx="219" cy="109" i="133" r="0.5" tabindex="133">
<title>
v:133
</title>
</circle>
<circle cx="220" cy="93" i="134" r="0.5" tabindex="134">
<title>
v:134
</title>
</circle>
<circle cx="223" cy="89" i="135" r="0.5" tabindex="135">
<title>
v:135
</title>
</circle>
<circle cx="234" cy="149" i="136" r="0.5" tabindex="136">
<title>
v:136
</title>
</circle>
</g>
</svg>