<svg height="500" viewBox="0 -2 382 281" width="500" xmlns="http://www.w3.org/2000/svg">
<path class="hole" d="M2 197L31 216L64 194L92 166L125 156L105 182L105 215L102 248L132 233L129 235L125 267L153 277L170 252L181 224L181 223L186 190L194 176L201 203L224 183L235 157L227 184L225 213L228 243L252 224L270 201L255 177L281 182L304 174L303 199L277 204L273 221L257 237L264 263L290 260L296 234L312 221L305 245L331 239L350 213L327 198L328 174L343 179L368 174L362 161L349 145L367 153L380 140L370 118L351 124L349 100L335 92L312 75L295 96L274 75L254 96L275 117L273 119L265 115L249 91L235 77L227 75L205 92L214 116L190 97L165 116L156 100L137 69L167 65L162 34L132 37L134 14L110 0L91 23L107 43L109 72L99 49L59 27L42 67L7 100L31 138L31 177M0 -2L382 -2L382 279L0 279" style="fill:#00000066;fill-rule:evenodd;"/>
<circle cx="59" cy="160" fill="#ffff0066" r="5">
<title>
BreakALeg@81
</title>
</circle>
<circle cx="101" cy="138" fill="#ffff0066" r="5">
<title>
SuperFlex@35
</title>
</circle>
<circle cx="65" cy="51" fill="#ffff0066" r="5">
<title>
BreakALeg@51
</title>
</circle>
<path class="ok" d="M73 65L32 79M32 79L63 63M29 90L59 75M89 62L59 75M89 62L60 47M89 62L59 42M59 75L59 42M59 42L85 60M59 42L62 70M85 60L69 36M85 60L57 64M64 74L86 45M69 36L57 64M64 45L86 71M86 45L86 71M57 64L82 42M79 61L58 76M79 61L74 88M86 71L58 76M86 71L74 43M65 67L79 81M65 67L40 79M58 76L75 57M79 81L75 57M74 88L96 73M40 79L51 59M74 43L50 58M75 57L96 73M75 57L51 59M75 57L50 58M75 57L61 36M51 59L61 36M50 58L61 36M50 58L75 43M65 49L56 64M75 43L51 50M75 43L50 60M75 43L68 65M51 50L68 65M48 59L75 55M50 60L68 65M68 65L70 44M68 65L48 60M75 55L51 69M48 60L65 68M48 60L65 46M63 47L65 68M65 68L65 46M65 68L47 56M65 68L65 46M65 46L49 61M65 46L47 56M47 56L65 46M47 56L61 70M61 70L66 52" style="stroke:#0000ff;stroke-linecap:round"/>
<path class="out" d="M66 42L101 38M66 42L75 9M45 31L73 65M45 31L88 51M73 65L101 38M101 38L75 9M101 38L65 47M75 9L65 47M88 51L45 45M88 51L49 38M38 46L76 50M38 46L32 79M76 50L60 24M45 45L22 6M65 47L26 40M32 79L49 38M32 79L26 40M32 79L2 44M49 38L22 6M49 38L2 44M60 24L63 63M60 24L100 43M34 49L28 24M34 49L40 78M26 40L60 47M63 63L57 28M63 63L100 43M63 63L29 64M29 90L32 57M59 75L32 57M28 24L57 28M28 24L53 29M57 28L85 23M40 78L45 51M85 25L59 42M85 25L85 60M60 47L29 64M60 47L66 11M71 55L100 40M71 55L98 43M29 64L52 38M29 64L18 34M29 64L64 74M100 40L85 60M53 29L45 51M53 29L85 23M53 29L81 19M32 57L59 42M32 57L49 29M59 42L66 11M85 23L52 38M85 23L65 46M98 43L69 36M66 11L64 45M66 11L86 45M66 11L82 42M52 38L18 34M49 29L34 56M81 19L65 46M62 70L34 56M64 74L49 47M64 45L98 38M82 42L98 38M49 47L58 76M98 38L70 44M98 38L86 71M98 38L78 15M70 44L78 15M78 15L74 43M33 13L62 17M33 13L63 14M33 13L47 39M62 17L74 43M62 17L46 41M63 14L47 39M74 43L46 41M47 39L65 62M27 38L20 67M27 38L56 31M50 58L56 31M46 41L65 62M46 41L75 43M46 41L63 21M55 28L43 52M55 28L65 49M54 29L37 36M54 29L75 43M54 29L51 50M43 52L57 30M37 36L51 50M65 49L83 29M20 67L48 59M56 31L48 59M56 31L50 60M75 43L63 21M56 64L45 40M63 21L70 44M57 30L83 29M48 59L22 70M83 29L63 24M50 60L22 70M45 40L70 44M45 40L63 24M45 40L66 52M70 44L48 36M57 0L63 24M57 0L38 18M63 24L66 52M63 24L38 18M48 60L22 70M63 47L83 27M22 70L51 69M83 27L60 22M66 52L48 36M66 52L70 24M48 36L65 46M48 36L49 20M65 46L70 28M38 18L70 24M49 61L49 36M49 20L70 28M49 20L52 45M60 22L65 46M47 56L49 36M70 28L52 45M65 46L46 39M46 39L66 52" style="stroke:#ff0000;stroke-linecap:round"/>
<g fill="#333333">
<circle cx="2" cy="197" r="0.5">
<title>
hole:0
</title>
</circle>
<circle cx="31" cy="216" r="0.5">
<title>
hole:1
</title>
</circle>
<circle cx="64" cy="194" r="0.5">
<title>
hole:2
</title>
</circle>
<circle cx="92" cy="166" r="0.5">
<title>
hole:3
</title>
</circle>
<circle cx="125" cy="156" r="0.5">
<title>
hole:4
</title>
</circle>
<circle cx="105" cy="182" r="0.5">
<title>
hole:5
</title>
</circle>
<circle cx="105" cy="215" r="0.5">
<title>
hole:6
</title>
</circle>
<circle cx="102" cy="248" r="0.5">
<title>
hole:7
</title>
</circle>
<circle cx="132" cy="233" r="0.5">
<title>
hole:8
</title>
</circle>
<circle cx="129" cy="235" r="0.5">
<title>
hole:9
</title>
</circle>
<circle cx="125" cy="267" r="0.5">
<title>
hole:10
</title>
</circle>
<circle cx="153" cy="277" r="0.5">
<title>
hole:11
</title>
</circle>
<circle cx="170" cy="252" r="0.5">
<title>
hole:12
</title>
</circle>
<circle cx="181" cy="224" r="0.5">
<title>
hole:13
</title>
</circle>
<circle cx="181" cy="223" r="0.5">
<title>
hole:14
</title>
</circle>
<circle cx="186" cy="190" r="0.5">
<title>
hole:15
</title>
</circle>
<circle cx="194" cy="176" r="0.5">
<title>
hole:16
</title>
</circle>
<circle cx="201" cy="203" r="0.5">
<title>
hole:17
</title>
</circle>
<circle cx="224" cy="183" r="0.5">
<title>
hole:18
</title>
</circle>
<circle cx="235" cy="157" r="0.5">
<title>
hole:19
</title>
</circle>
<circle cx="227" cy="184" r="0.5">
<title>
hole:20
</title>
</circle>
<circle cx="225" cy="213" r="0.5">
<title>
hole:21
</title>
</circle>
<circle cx="228" cy="243" r="0.5">
<title>
hole:22
</title>
</circle>
<circle cx="252" cy="224" r="0.5">
<title>
hole:23
</title>
</circle>
<circle cx="270" cy="201" r="0.5">
<title>
hole:24
</title>
</circle>
<circle cx="255" cy="177" r="0.5">
<title>
hole:25
</title>
</circle>
<circle cx="281" cy="182" r="0.5">
<title>
hole:26
</title>
</circle>
<circle cx="304" cy="174" r="0.5">
<title>
hole:27
</title>
</circle>
<circle cx="303" cy="199" r="0.5">
<title>
hole:28
</title>
</circle>
<circle cx="277" cy="204" r="0.5">
<title>
hole:29
</title>
</circle>
<circle cx="273" cy="221" r="0.5">
<title>
hole:30
</title>
</circle>
<circle cx="257" cy="237" r="0.5">
<title>
hole:31
</title>
</circle>
<circle cx="264" cy="263" r="0.5">
<title>
hole:32
</title>
</circle>
<circle cx="290" cy="260" r="0.5">
<title>
hole:33
</title>
</circle>
<circle cx="296" cy="234" r="0.5">
<title>
hole:34
</title>
</circle>
<circle cx="312" cy="221" r="0.5">
<title>
hole:35
</title>
</circle>
<circle cx="305" cy="245" r="0.5">
<title>
hole:36
</title>
</circle>
<circle cx="331" cy="239" r="0.5">
<title>
hole:37
</title>
</circle>
<circle cx="350" cy="213" r="0.5">
<title>
hole:38
</title>
</circle>
<circle cx="327" cy="198" r="0.5">
<title>
hole:39
</title>
</circle>
<circle cx="328" cy="174" r="0.5">
<title>
hole:40
</title>
</circle>
<circle cx="343" cy="179" r="0.5">
<title>
hole:41
</title>
</circle>
<circle cx="368" cy="174" r="0.5">
<title>
hole:42
</title>
</circle>
<circle cx="362" cy="161" r="0.5">
<title>
hole:43
</title>
</circle>
<circle cx="349" cy="145" r="0.5">
<title>
hole:44
</title>
</circle>
<circle cx="367" cy="153" r="0.5">
<title>
hole:45
</title>
</circle>
<circle cx="380" cy="140" r="0.5">
<title>
hole:46
</title>
</circle>
<circle cx="370" cy="118" r="0.5">
<title>
hole:47
</title>
</circle>
<circle cx="351" cy="124" r="0.5">
<title>
hole:48
</title>
</circle>
<circle cx="349" cy="100" r="0.5">
<title>
hole:49
</title>
</circle>
<circle cx="335" cy="92" r="0.5">
<title>
hole:50
</title>
</circle>
<circle cx="312" cy="75" r="0.5">
<title>
hole:51
</title>
</circle>
<circle cx="295" cy="96" r="0.5">
<title>
hole:52
</title>
</circle>
<circle cx="274" cy="75" r="0.5">
<title>
hole:53
</title>
</circle>
<circle cx="254" cy="96" r="0.5">
<title>
hole:54
</title>
</circle>
<circle cx="275" cy="117" r="0.5">
<title>
hole:55
</title>
</circle>
<circle cx="273" cy="119" r="0.5">
<title>
hole:56
</title>
</circle>
<circle cx="265" cy="115" r="0.5">
<title>
hole:57
</title>
</circle>
<circle cx="249" cy="91" r="0.5">
<title>
hole:58
</title>
</circle>
<circle cx="235" cy="77" r="0.5">
<title>
hole:59
</title>
</circle>
<circle cx="227" cy="75" r="0.5">
<title>
hole:60
</title>
</circle>
<circle cx="205" cy="92" r="0.5">
<title>
hole:61
</title>
</circle>
<circle cx="214" cy="116" r="0.5">
<title>
hole:62
</title>
</circle>
<circle cx="190" cy="97" r="0.5">
<title>
hole:63
</title>
</circle>
<circle cx="165" cy="116" r="0.5">
<title>
hole:64
</title>
</circle>
<circle cx="156" cy="100" r="0.5">
<title>
hole:65
</title>
</circle>
<circle cx="137" cy="69" r="0.5">
<title>
hole:66
</title>
</circle>
<circle cx="167" cy="65" r="0.5">
<title>
hole:67
</title>
</circle>
<circle cx="162" cy="34" r="0.5">
<title>
hole:68
</title>
</circle>
<circle cx="132" cy="37" r="0.5">
<title>
hole:69
</title>
</circle>
<circle cx="134" cy="14" r="0.5">
<title>
hole:70
</title>
</circle>
<circle cx="110" cy="0" r="0.5">
<title>
hole:71
</title>
</circle>
<circle cx="91" cy="23" r="0.5">
<title>
hole:72
</title>
</circle>
<circle cx="107" cy="43" r="0.5">
<title>
hole:73
</title>
</circle>
<circle cx="109" cy="72" r="0.5">
<title>
hole:74
</title>
</circle>
<circle cx="99" cy="49" r="0.5">
<title>
hole:75
</title>
</circle>
<circle cx="59" cy="27" r="0.5">
<title>
hole:76
</title>
</circle>
<circle cx="42" cy="67" r="0.5">
<title>
hole:77
</title>
</circle>
<circle cx="7" cy="100" r="0.5">
<title>
hole:78
</title>
</circle>
<circle cx="31" cy="138" r="0.5">
<title>
hole:79
</title>
</circle>
<circle cx="31" cy="177" r="0.5">
<title>
hole:80
</title>
</circle>
</g>
<g fill="#999999">
<circle cx="66" cy="42" i="0" r="0.5" tabindex="0">
<title>
v:0
</title>
</circle>
<circle cx="45" cy="31" i="1" r="0.5" tabindex="1">
<title>
v:1
</title>
</circle>
<circle cx="73" cy="65" i="2" r="0.5" tabindex="2">
<title>
v:2
</title>
</circle>
<circle cx="101" cy="38" i="3" r="0.5" tabindex="3">
<title>
v:3
</title>
</circle>
<circle cx="75" cy="9" i="4" r="0.5" tabindex="4">
<title>
v:4
</title>
</circle>
<circle cx="88" cy="51" i="5" r="0.5" tabindex="5">
<title>
v:5
</title>
</circle>
<circle cx="38" cy="46" i="6" r="0.5" tabindex="6">
<title>
v:6
</title>
</circle>
<circle cx="76" cy="50" i="7" r="0.5" tabindex="7">
<title>
v:7
</title>
</circle>
<circle cx="45" cy="45" i="8" r="0.5" tabindex="8">
<title>
v:8
</title>
</circle>
<circle cx="65" cy="47" i="9" r="0.5" tabindex="9">
<title>
v:9
</title>
</circle>
<circle cx="32" cy="79" i="10" r="0.5" tabindex="10">
<title>
v:10
</title>
</circle>
<circle cx="49" cy="38" i="11" r="0.5" tabindex="11">
<title>
v:11
</title>
</circle>
<circle cx="60" cy="24" i="12" r="0.5" tabindex="12">
<title>
v:12
</title>
</circle>
<circle cx="34" cy="49" i="13" r="0.5" tabindex="13">
<title>
v:13
</title>
</circle>
<circle cx="26" cy="40" i="14" r="0.5" tabindex="14">
<title>
v:14
</title>
</circle>
<circle cx="22" cy="6" i="15" r="0.5" tabindex="15">
<title>
v:15
</title>
</circle>
<circle cx="63" cy="63" i="16" r="0.5" tabindex="16">
<title>
v:16
</title>
</circle>
<circle cx="29" cy="90" i="17" r="0.5" tabindex="17">
<title>
v:17
</title>
</circle>
<circle cx="89" cy="62" i="18" r="0.5" tabindex="18">
<title>
v:18
</title>
</circle>
<circle cx="59" cy="75" i="19" r="0.5" tabindex="19">
<title>
v:19
</title>
</circle>
<circle cx="28" cy="24" i="20" r="0.5" tabindex="20">
<title>
v:20
</title>
</circle>
<circle cx="57" cy="28" i="21" r="0.5" tabindex="21">
<title>
v:21
</title>
</circle>
<circle cx="40" cy="78" i="22" r="0.5" tabindex="22">
<title>
v:22
</title>
</circle>
<circle cx="2" cy="44" i="23" r="0.5" tabindex="23">
<title>
v:23
</title>
</circle>
<circle cx="85" cy="25" i="24" r="0.5" tabindex="24">
<title>
v:24
</title>
</circle>
<circle cx="100" cy="43" i="25" r="0.5" tabindex="25">
<title>
v:25
</title>
</circle>
<circle cx="60" cy="47" i="26" r="0.5" tabindex="26">
<title>
v:26
</title>
</circle>
<circle cx="71" cy="55" i="27" r="0.5" tabindex="27">
<title>
v:27
</title>
</circle>
<circle cx="29" cy="64" i="28" r="0.5" tabindex="28">
<title>
v:28
</title>
</circle>
<circle cx="100" cy="40" i="29" r="0.5" tabindex="29">
<title>
v:29
</title>
</circle>
<circle cx="53" cy="29" i="30" r="0.5" tabindex="30">
<title>
v:30
</title>
</circle>
<circle cx="32" cy="57" i="31" r="0.5" tabindex="31">
<title>
v:31
</title>
</circle>
<circle cx="45" cy="51" i="32" r="0.5" tabindex="32">
<title>
v:32
</title>
</circle>
<circle cx="59" cy="42" i="33" r="0.5" tabindex="33">
<title>
v:33
</title>
</circle>
<circle cx="85" cy="23" i="34" r="0.5" tabindex="34">
<title>
v:34
</title>
</circle>
<circle cx="85" cy="60" i="35" r="0.5" tabindex="35">
<title>
v:35
</title>
</circle>
<circle cx="98" cy="43" i="36" r="0.5" tabindex="36">
<title>
v:36
</title>
</circle>
<circle cx="66" cy="11" i="37" r="0.5" tabindex="37">
<title>
v:37
</title>
</circle>
<circle cx="52" cy="38" i="38" r="0.5" tabindex="38">
<title>
v:38
</title>
</circle>
<circle cx="18" cy="34" i="39" r="0.5" tabindex="39">
<title>
v:39
</title>
</circle>
<circle cx="49" cy="29" i="40" r="0.5" tabindex="40">
<title>
v:40
</title>
</circle>
<circle cx="81" cy="19" i="41" r="0.5" tabindex="41">
<title>
v:41
</title>
</circle>
<circle cx="62" cy="70" i="42" r="0.5" tabindex="42">
<title>
v:42
</title>
</circle>
<circle cx="64" cy="74" i="43" r="0.5" tabindex="43">
<title>
v:43
</title>
</circle>
<circle cx="65" cy="46" i="44" r="0.5" tabindex="44">
<title>
v:44
</title>
</circle>
<circle cx="69" cy="36" i="45" r="0.5" tabindex="45">
<title>
v:45
</title>
</circle>
<circle cx="64" cy="45" i="46" r="0.5" tabindex="46">
<title>
v:46
</title>
</circle>
<circle cx="86" cy="45" i="47" r="0.5" tabindex="47">
<title>
v:47
</title>
</circle>
<circle cx="57" cy="64" i="48" r="0.5" tabindex="48">
<title>
v:48
</title>
</circle>
<circle cx="34" cy="56" i="49" r="0.5" tabindex="49">
<title>
v:49
</title>
</circle>
<circle cx="82" cy="42" i="50" r="0.5" tabindex="50">
<title>
v:50
</title>
</circle>
<circle cx="49" cy="47" i="51" r="0.5" tabindex="51">
<title>
v:51
</title>
</circle>
<circle cx="98" cy="38" i="52" r="0.5" tabindex="52">
<title>
v:52
</title>
</circle>
<circle cx="70" cy="44" i="53" r="0.5" tabindex="53">
<title>
v:53
</title>
</circle>
<circle cx="79" cy="61" i="54" r="0.5" tabindex="54">
<title>
v:54
</title>
</circle>
<circle cx="86" cy="71" i="55" r="0.5" tabindex="55">
<title>
v:55
</title>
</circle>
<circle cx="65" cy="67" i="56" r="0.5" tabindex="56">
<title>
v:56
</title>
</circle>
<circle cx="58" cy="76" i="57" r="0.5" tabindex="57">
<title>
v:57
</title>
</circle>
<circle cx="79" cy="81" i="58" r="0.5" tabindex="58">
<title>
v:58
</title>
</circle>
<circle cx="78" cy="15" i="59" r="0.5" tabindex="59">
<title>
v:59
</title>
</circle>
<circle cx="33" cy="13" i="60" r="0.5" tabindex="60">
<title>
v:60
</title>
</circle>
<circle cx="74" cy="88" i="61" r="0.5" tabindex="61">
<title>
v:61
</title>
</circle>
<circle cx="62" cy="17" i="62" r="0.5" tabindex="62">
<title>
v:62
</title>
</circle>
<circle cx="63" cy="14" i="63" r="0.5" tabindex="63">
<title>
v:63
</title>
</circle>
<circle cx="40" cy="79" i="64" r="0.5" tabindex="64">
<title>
v:64
</title>
</circle>
<circle cx="74" cy="43" i="65" r="0.5" tabindex="65">
<title>
v:65
</title>
</circle>
<circle cx="75" cy="57" i="66" r="0.5" tabindex="66">
<title>
v:66
</title>
</circle>
<circle cx="96" cy="73" i="67" r="0.5" tabindex="67">
<title>
v:67
</title>
</circle>
<circle cx="51" cy="59" i="68" r="0.5" tabindex="68">
<title>
v:68
</title>
</circle>
<circle cx="47" cy="39" i="69" r="0.5" tabindex="69">
<title>
v:69
</title>
</circle>
<circle cx="27" cy="38" i="70" r="0.5" tabindex="70">
<title>
v:70
</title>
</circle>
<circle cx="50" cy="58" i="71" r="0.5" tabindex="71">
<title>
v:71
</title>
</circle>
<circle cx="46" cy="41" i="72" r="0.5" tabindex="72">
<title>
v:72
</title>
</circle>
<circle cx="55" cy="28" i="73" r="0.5" tabindex="73">
<title>
v:73
</title>
</circle>
<circle cx="54" cy="29" i="74" r="0.5" tabindex="74">
<title>
v:74
</title>
</circle>
<circle cx="43" cy="52" i="75" r="0.5" tabindex="75">
<title>
v:75
</title>
</circle>
<circle cx="61" cy="36" i="76" r="0.5" tabindex="76">
<title>
v:76
</title>
</circle>
<circle cx="65" cy="62" i="77" r="0.5" tabindex="77">
<title>
v:77
</title>
</circle>
<circle cx="37" cy="36" i="78" r="0.5" tabindex="78">
<title>
v:78
</title>
</circle>
<circle cx="65" cy="49" i="79" r="0.5" tabindex="79">
<title>
v:79
</title>
</circle>
<circle cx="20" cy="67" i="80" r="0.5" tabindex="80">
<title>
v:80
</title>
</circle>
<circle cx="56" cy="31" i="81" r="0.5" tabindex="81">
<title>
v:81
</title>
</circle>
<circle cx="75" cy="43" i="82" r="0.5" tabindex="82">
<title>
v:82
</title>
</circle>
<circle cx="56" cy="64" i="83" r="0.5" tabindex="83">
<title>
v:83
</title>
</circle>
<circle cx="63" cy="21" i="84" r="0.5" tabindex="84">
<title>
v:84
</title>
</circle>
<circle cx="51" cy="50" i="85" r="0.5" tabindex="85">
<title>
v:85
</title>
</circle>
<circle cx="57" cy="30" i="86" r="0.5" tabindex="86">
<title>
v:86
</title>
</circle>
<circle cx="48" cy="59" i="87" r="0.5" tabindex="87">
<title>
v:87
</title>
</circle>
<circle cx="83" cy="29" i="88" r="0.5" tabindex="88">
<title>
v:88
</title>
</circle>
<circle cx="50" cy="60" i="89" r="0.5" tabindex="89">
<title>
v:89
</title>
</circle>
<circle cx="68" cy="65" i="90" r="0.5" tabindex="90">
<title>
v:90
</title>
</circle>
<circle cx="45" cy="40" i="91" r="0.5" tabindex="91">
<title>
v:91
</title>
</circle>
<circle cx="70" cy="44" i="92" r="0.5" tabindex="92">
<title>
v:92
</title>
</circle>
<circle cx="57" cy="0" i="93" r="0.5" tabindex="93">
<title>
v:93
</title>
</circle>
<circle cx="75" cy="55" i="94" r="0.5" tabindex="94">
<title>
v:94
</title>
</circle>
<circle cx="63" cy="24" i="95" r="0.5" tabindex="95">
<title>
v:95
</title>
</circle>
<circle cx="48" cy="60" i="96" r="0.5" tabindex="96">
<title>
v:96
</title>
</circle>
<circle cx="63" cy="47" i="97" r="0.5" tabindex="97">
<title>
v:97
</title>
</circle>
<circle cx="22" cy="70" i="98" r="0.5" tabindex="98">
<title>
v:98
</title>
</circle>
<circle cx="83" cy="27" i="99" r="0.5" tabindex="99">
<title>
v:99
</title>
</circle>
<circle cx="66" cy="52" i="100" r="0.5" tabindex="100">
<title>
v:100
</title>
</circle>
<circle cx="48" cy="36" i="101" r="0.5" tabindex="101">
<title>
v:101
</title>
</circle>
<circle cx="65" cy="68" i="102" r="0.5" tabindex="102">
<title>
v:102
</title>
</circle>
<circle cx="65" cy="46" i="103" r="0.5" tabindex="103">
<title>
v:103
</title>
</circle>
<circle cx="38" cy="18" i="104" r="0.5" tabindex="104">
<title>
v:104
</title>
</circle>
<circle cx="51" cy="69" i="105" r="0.5" tabindex="105">
<title>
v:105
</title>
</circle>
<circle cx="49" cy="61" i="106" r="0.5" tabindex="106">
<title>
v:106
</title>
</circle>
<circle cx="49" cy="20" i="107" r="0.5" tabindex="107">
<title>
v:107
</title>
</circle>
<circle cx="60" cy="22" i="108" r="0.5" tabindex="108">
<title>
v:108
</title>
</circle>
<circle cx="47" cy="56" i="109" r="0.5" tabindex="109">
<title>
v:109
</title>
</circle>
<circle cx="70" cy="28" i="110" r="0.5" tabindex="110">
<title>
v:110
</title>
</circle>
<circle cx="70" cy="24" i="111" r="0.5" tabindex="111">
<title>
v:111
</title>
</circle>
<circle cx="65" cy="46" i="112" r="0.5" tabindex="112">
<title>
v:112
</title>
</circle>
<circle cx="49" cy="36" i="113" r="0.5" tabindex="113">
<title>
v:113
</title>
</circle>
<circle cx="61" cy="70" i="114" r="0.5" tabindex="114">
<title>
v:114
</title>
</circle>
<circle cx="52" cy="45" i="115" r="0.5" tabindex="115">
<title>
v:115
</title>
</circle>
<circle cx="46" cy="39" i="116" r="0.5" tabindex="116">
<title>
v:116
</title>
</circle>
<circle cx="66" cy="52" i="117" r="0.5" tabindex="117">
<title>
v:117
</title>
</circle>
</g>
</svg>