<svg height="500" viewBox="-2 -2 382 281" width="500" xmlns="http://www.w3.org/2000/svg">
<path class="hole" d="M0 197L29 216L62 194L90 166L123 156L103 182L103 215L100 248L130 233L127 235L123 267L151 277L168 252L179 224L179 223L184 190L192 176L199 203L222 183L233 157L225 184L223 213L226 243L250 224L268 201L253 177L279 182L302 174L301 199L275 204L271 221L255 237L262 263L288 260L294 234L310 221L303 245L329 239L348 213L325 198L326 174L341 179L366 174L360 161L347 145L365 153L378 140L368 118L349 124L347 100L333 92L310 75L293 96L272 75L252 96L273 117L271 119L263 115L247 91L233 77L225 75L203 92L212 116L188 97L163 116L154 100L135 69L165 65L160 34L130 37L132 14L108 0L89 23L105 43L107 72L97 49L57 27L40 67L5 100L29 138L29 177M-2 -2L380 -2L380 279L-2 279" style="fill:#00000066;fill-rule:evenodd;stroke:none;"/>
<circle cx="57" cy="160" r="5" style="fill:#ffff0066;stroke:none;"/>
<path class="ok" d="M71 65L30 79M30 79L61 63M27 90L57 75M87 62L57 75M87 62L58 47M87 62L57 42M57 75L57 42M57 42L83 60M57 42L60 70M83 60L67 36M83 60L55 64M62 74L84 45M67 36L55 64M62 45L84 71M84 45L84 71M55 64L80 42M77 61L56 76M77 61L72 88M84 71L56 76M84 71L72 43M63 67L77 81M63 67L38 79M56 76L73 57M77 81L73 57M72 88L94 73M38 79L49 59M72 43L48 58M73 57L94 73M73 57L49 59M73 57L48 58M73 57L59 36M49 59L59 36M48 58L59 36M48 58L73 43M63 49L54 64M73 43L49 50M73 43L48 60M73 43L66 65M49 50L66 65M46 59L73 55M48 60L66 65M66 65L68 44M66 65L46 60M73 55L49 69M46 60L63 68M46 60L63 46M61 47L63 68M63 68L63 46M63 68L45 56M63 68L63 46M63 46L47 61M63 46L45 56M45 56L63 46M45 56L59 70M59 70L64 52" style="fill:none;stroke:#0000ff;stroke-linecap:round"/>
<path class="out" d="M64 42L99 38M64 42L73 9M43 31L71 65M43 31L86 51M71 65L99 38M99 38L73 9M99 38L63 47M73 9L63 47M86 51L43 45M86 51L47 38M36 46L74 50M36 46L30 79M74 50L58 24M43 45L20 6M63 47L24 40M30 79L47 38M30 79L24 40M30 79L0 44M47 38L20 6M47 38L0 44M58 24L61 63M58 24L98 43M32 49L26 24M32 49L38 78M24 40L58 47M61 63L55 28M61 63L98 43M61 63L27 64M27 90L30 57M57 75L30 57M26 24L55 28M26 24L51 29M55 28L83 23M38 78L43 51M83 25L57 42M83 25L83 60M58 47L27 64M58 47L64 11M69 55L98 40M69 55L96 43M27 64L50 38M27 64L16 34M27 64L62 74M98 40L83 60M51 29L43 51M51 29L83 23M51 29L79 19M30 57L57 42M30 57L47 29M57 42L64 11M83 23L50 38M83 23L63 46M96 43L67 36M64 11L62 45M64 11L84 45M64 11L80 42M50 38L16 34M47 29L32 56M79 19L63 46M60 70L32 56M62 74L47 47M62 45L96 38M80 42L96 38M47 47L56 76M96 38L68 44M96 38L84 71M96 38L76 15M68 44L76 15M76 15L72 43M31 13L60 17M31 13L61 14M31 13L45 39M60 17L72 43M60 17L44 41M61 14L45 39M72 43L44 41M45 39L63 62M25 38L18 67M25 38L54 31M48 58L54 31M44 41L63 62M44 41L73 43M44 41L61 21M53 28L41 52M53 28L63 49M52 29L35 36M52 29L73 43M52 29L49 50M41 52L55 30M35 36L49 50M63 49L81 29M18 67L46 59M54 31L46 59M54 31L48 60M73 43L61 21M54 64L43 40M61 21L68 44M55 30L81 29M46 59L20 70M81 29L61 24M48 60L20 70M43 40L68 44M43 40L61 24M43 40L64 52M68 44L46 36M55 0L61 24M55 0L36 18M61 24L64 52M61 24L36 18M46 60L20 70M61 47L81 27M20 70L49 69M81 27L58 22M64 52L46 36M64 52L68 24M46 36L63 46M46 36L47 20M63 46L68 28M36 18L68 24M47 61L47 36M47 20L68 28M47 20L50 45M58 22L63 46M45 56L47 36M68 28L50 45M63 46L44 39M44 39L64 52" style="fill:none;stroke:#ff0000;stroke-linecap:round"/>
</svg>