<svg height="500" viewBox="0 0 259 240" width="500" xmlns="http://www.w3.org/2000/svg">
<polygon fill="grey" points="0,137 14,182 29,202 43,217 68,233 152,240 237,226 259,198 256,164 249,136 194,66 165,33 64,0 53,15 43,30 "/>
<path d="M28 109L50 125M28 109L52 100M0 178L13 163M0 178L24 170M13 163L30 143M50 125L52 100M50 125L30 143M52 100L56 128M24 170L46 161M66 16L72 32M66 16L79 3M76 89L77 110M76 89L77 66M20 171L46 161M20 171L23 201M30 143L46 161M30 143L56 128M30 143L53 158M69 46L72 32M69 46L77 66M55 75L63 97M55 75L79 89M63 97L80 113M46 161L59 189M72 32L90 40M79 3L97 0M79 3L88 21M56 128L80 113M56 128L53 158M77 110L79 89M97 0L88 21M77 66L79 89M77 66L94 57M23 201L44 215M80 113L79 89M80 113L101 132M90 40L88 21M90 40L94 57M90 40L94 62M88 21L81 38M53 158L59 189M53 158L77 145M79 89L101 83M94 57L101 83M59 189L44 215M81 38L99 44M94 62L99 44M101 83L113 108M101 132L77 145M101 132L113 108M101 132L121 146M131 68L151 84M131 68L127 89M113 108L127 89M113 108L128 127M156 245L163 213M156 245L184 273M121 146L141 152M151 84L127 89M151 84L174 81M127 89L141 108M163 213L150 182M163 213L185 238M150 182L141 152M150 182L178 201M128 127L141 152M128 127L141 108M128 127L152 128M128 127L152 144M141 152L162 175M174 81L164 103M174 81L199 84M141 108L164 103M141 108L152 128M184 273L185 238M184 273L214 257M164 103L175 86M164 103L185 104M191 173L162 175M191 173L217 194M185 238L178 201M185 238L214 257M152 144L179 151M199 84L175 86M178 201L162 175M178 201L195 227M162 175L179 151M162 175L187 190M175 86L185 104M175 86L197 86M185 104L197 86M185 256L195 227M185 256L214 250M217 194L187 190M195 227L216 208M195 227L214 250M187 190L216 208M216 208L237 195M216 208L237 227M214 250L237 227M214 250L231 277M237 195L243 224M237 227L251 251M237 227L256 252M231 277L256 252M243 224L251 251" stroke="red"/>
</svg>