<svg height="500" viewBox="0 -2 263 281" width="500" xmlns="http://www.w3.org/2000/svg">
<path class="hole" d="M2 137L16 182L31 202L45 217L70 233L154 240L239 226L261 198L258 164L251 136L196 66L167 33L66 0L55 15L45 30M0 -2L263 -2L263 279L0 279" style="fill:#00000066;fill-rule:evenodd;"/>
<circle cx="18" cy="98" fill="#ffff0066" r="5">
<title>
BreakALeg@64
</title>
</circle>
<circle cx="227" cy="108" fill="#ffff0066" r="5">
<title>
SuperFlex@46
</title>
</circle>
<circle cx="128" cy="21" fill="#ffff0066" r="5">
<title>
SuperFlex@15
</title>
</circle>
<path class="ok" d="M30 109L52 125M30 109L54 100M15 163L32 143M52 125L54 100M52 125L32 143M54 100L58 128M26 170L48 161M68 16L74 32M78 89L79 110M78 89L79 66M22 171L48 161M32 143L48 161M32 143L58 128M32 143L55 158M71 46L74 32M71 46L79 66M57 75L65 97M57 75L81 89M65 97L82 113M48 161L61 189M74 32L92 40M58 128L82 113M58 128L55 158M79 110L81 89M79 66L81 89M79 66L96 57M82 113L81 89M82 113L103 132M92 40L90 21M92 40L96 57M92 40L96 62M90 21L83 38M55 158L61 189M55 158L79 145M81 89L103 83M96 57L103 83M61 189L46 215M83 38L101 44M96 62L101 44M103 83L115 108M103 132L79 145M103 132L115 108M103 132L123 146M133 68L153 84M133 68L129 89M115 108L129 89M115 108L130 127M123 146L143 152M153 84L129 89M153 84L176 81M129 89L143 108M165 213L152 182M152 182L143 152M152 182L180 201M130 127L143 152M130 127L143 108M130 127L154 128M130 127L154 144M143 152L164 175M176 81L166 103M176 81L201 84M143 108L166 103M143 108L154 128M166 103L177 86M166 103L187 104M193 173L164 175M193 173L219 194M154 144L181 151M201 84L177 86M180 201L164 175M180 201L197 227M164 175L181 151M164 175L189 190M177 86L187 104M177 86L199 86M187 104L199 86M219 194L189 190M197 227L218 208M189 190L218 208M218 208L239 195" style="stroke:#0000ff;stroke-linecap:round"/>
<path class="out" d="M2 178L15 163M2 178L26 170M68 16L81 3M22 171L25 201M81 3L99 0M81 3L90 21M99 0L90 21M25 201L46 215M158 245L165 213M158 245L186 273M165 213L187 238M186 273L187 238M186 273L216 257M187 238L180 201M187 238L216 257M187 256L197 227M187 256L216 250M197 227L216 250M218 208L239 227M216 250L239 227M216 250L233 277M239 195L245 224M239 227L253 251M239 227L258 252M233 277L258 252M245 224L253 251" style="stroke:#ff0000;stroke-linecap:round"/>
<g fill="#333333">
<circle cx="2" cy="137" r="0.5">
<title>
hole:0
</title>
</circle>
<circle cx="16" cy="182" r="0.5">
<title>
hole:1
</title>
</circle>
<circle cx="31" cy="202" r="0.5">
<title>
hole:2
</title>
</circle>
<circle cx="45" cy="217" r="0.5">
<title>
hole:3
</title>
</circle>
<circle cx="70" cy="233" r="0.5">
<title>
hole:4
</title>
</circle>
<circle cx="154" cy="240" r="0.5">
<title>
hole:5
</title>
</circle>
<circle cx="239" cy="226" r="0.5">
<title>
hole:6
</title>
</circle>
<circle cx="261" cy="198" r="0.5">
<title>
hole:7
</title>
</circle>
<circle cx="258" cy="164" r="0.5">
<title>
hole:8
</title>
</circle>
<circle cx="251" cy="136" r="0.5">
<title>
hole:9
</title>
</circle>
<circle cx="196" cy="66" r="0.5">
<title>
hole:10
</title>
</circle>
<circle cx="167" cy="33" r="0.5">
<title>
hole:11
</title>
</circle>
<circle cx="66" cy="0" r="0.5">
<title>
hole:12
</title>
</circle>
<circle cx="55" cy="15" r="0.5">
<title>
hole:13
</title>
</circle>
<circle cx="45" cy="30" r="0.5">
<title>
hole:14
</title>
</circle>
</g>
<g fill="#999999">
<circle cx="30" cy="109" i="0" r="0.5" tabindex="0">
<title>
v:0
</title>
</circle>
<circle cx="2" cy="178" i="1" r="0.5" tabindex="1">
<title>
v:1
</title>
</circle>
<circle cx="15" cy="163" i="2" r="0.5" tabindex="2">
<title>
v:2
</title>
</circle>
<circle cx="52" cy="125" i="3" r="0.5" tabindex="3">
<title>
v:3
</title>
</circle>
<circle cx="54" cy="100" i="4" r="0.5" tabindex="4">
<title>
v:4
</title>
</circle>
<circle cx="26" cy="170" i="5" r="0.5" tabindex="5">
<title>
v:5
</title>
</circle>
<circle cx="68" cy="16" i="6" r="0.5" tabindex="6">
<title>
v:6
</title>
</circle>
<circle cx="78" cy="89" i="7" r="0.5" tabindex="7">
<title>
v:7
</title>
</circle>
<circle cx="22" cy="171" i="8" r="0.5" tabindex="8">
<title>
v:8
</title>
</circle>
<circle cx="32" cy="143" i="9" r="0.5" tabindex="9">
<title>
v:9
</title>
</circle>
<circle cx="71" cy="46" i="10" r="0.5" tabindex="10">
<title>
v:10
</title>
</circle>
<circle cx="57" cy="75" i="11" r="0.5" tabindex="11">
<title>
v:11
</title>
</circle>
<circle cx="65" cy="97" i="12" r="0.5" tabindex="12">
<title>
v:12
</title>
</circle>
<circle cx="48" cy="161" i="13" r="0.5" tabindex="13">
<title>
v:13
</title>
</circle>
<circle cx="74" cy="32" i="14" r="0.5" tabindex="14">
<title>
v:14
</title>
</circle>
<circle cx="81" cy="3" i="15" r="0.5" tabindex="15">
<title>
v:15
</title>
</circle>
<circle cx="58" cy="128" i="16" r="0.5" tabindex="16">
<title>
v:16
</title>
</circle>
<circle cx="79" cy="110" i="17" r="0.5" tabindex="17">
<title>
v:17
</title>
</circle>
<circle cx="99" cy="0" i="18" r="0.5" tabindex="18">
<title>
v:18
</title>
</circle>
<circle cx="79" cy="66" i="19" r="0.5" tabindex="19">
<title>
v:19
</title>
</circle>
<circle cx="25" cy="201" i="20" r="0.5" tabindex="20">
<title>
v:20
</title>
</circle>
<circle cx="82" cy="113" i="21" r="0.5" tabindex="21">
<title>
v:21
</title>
</circle>
<circle cx="92" cy="40" i="22" r="0.5" tabindex="22">
<title>
v:22
</title>
</circle>
<circle cx="90" cy="21" i="23" r="0.5" tabindex="23">
<title>
v:23
</title>
</circle>
<circle cx="55" cy="158" i="24" r="0.5" tabindex="24">
<title>
v:24
</title>
</circle>
<circle cx="81" cy="89" i="25" r="0.5" tabindex="25">
<title>
v:25
</title>
</circle>
<circle cx="96" cy="57" i="26" r="0.5" tabindex="26">
<title>
v:26
</title>
</circle>
<circle cx="61" cy="189" i="27" r="0.5" tabindex="27">
<title>
v:27
</title>
</circle>
<circle cx="46" cy="215" i="28" r="0.5" tabindex="28">
<title>
v:28
</title>
</circle>
<circle cx="83" cy="38" i="29" r="0.5" tabindex="29">
<title>
v:29
</title>
</circle>
<circle cx="96" cy="62" i="30" r="0.5" tabindex="30">
<title>
v:30
</title>
</circle>
<circle cx="103" cy="83" i="31" r="0.5" tabindex="31">
<title>
v:31
</title>
</circle>
<circle cx="103" cy="132" i="32" r="0.5" tabindex="32">
<title>
v:32
</title>
</circle>
<circle cx="79" cy="145" i="33" r="0.5" tabindex="33">
<title>
v:33
</title>
</circle>
<circle cx="101" cy="44" i="34" r="0.5" tabindex="34">
<title>
v:34
</title>
</circle>
<circle cx="133" cy="68" i="35" r="0.5" tabindex="35">
<title>
v:35
</title>
</circle>
<circle cx="115" cy="108" i="36" r="0.5" tabindex="36">
<title>
v:36
</title>
</circle>
<circle cx="158" cy="245" i="37" r="0.5" tabindex="37">
<title>
v:37
</title>
</circle>
<circle cx="123" cy="146" i="38" r="0.5" tabindex="38">
<title>
v:38
</title>
</circle>
<circle cx="153" cy="84" i="39" r="0.5" tabindex="39">
<title>
v:39
</title>
</circle>
<circle cx="129" cy="89" i="40" r="0.5" tabindex="40">
<title>
v:40
</title>
</circle>
<circle cx="165" cy="213" i="41" r="0.5" tabindex="41">
<title>
v:41
</title>
</circle>
<circle cx="152" cy="182" i="42" r="0.5" tabindex="42">
<title>
v:42
</title>
</circle>
<circle cx="130" cy="127" i="43" r="0.5" tabindex="43">
<title>
v:43
</title>
</circle>
<circle cx="143" cy="152" i="44" r="0.5" tabindex="44">
<title>
v:44
</title>
</circle>
<circle cx="176" cy="81" i="45" r="0.5" tabindex="45">
<title>
v:45
</title>
</circle>
<circle cx="143" cy="108" i="46" r="0.5" tabindex="46">
<title>
v:46
</title>
</circle>
<circle cx="186" cy="273" i="47" r="0.5" tabindex="47">
<title>
v:47
</title>
</circle>
<circle cx="166" cy="103" i="48" r="0.5" tabindex="48">
<title>
v:48
</title>
</circle>
<circle cx="154" cy="128" i="49" r="0.5" tabindex="49">
<title>
v:49
</title>
</circle>
<circle cx="193" cy="173" i="50" r="0.5" tabindex="50">
<title>
v:50
</title>
</circle>
<circle cx="187" cy="238" i="51" r="0.5" tabindex="51">
<title>
v:51
</title>
</circle>
<circle cx="154" cy="144" i="52" r="0.5" tabindex="52">
<title>
v:52
</title>
</circle>
<circle cx="201" cy="84" i="53" r="0.5" tabindex="53">
<title>
v:53
</title>
</circle>
<circle cx="180" cy="201" i="54" r="0.5" tabindex="54">
<title>
v:54
</title>
</circle>
<circle cx="164" cy="175" i="55" r="0.5" tabindex="55">
<title>
v:55
</title>
</circle>
<circle cx="177" cy="86" i="56" r="0.5" tabindex="56">
<title>
v:56
</title>
</circle>
<circle cx="187" cy="104" i="57" r="0.5" tabindex="57">
<title>
v:57
</title>
</circle>
<circle cx="181" cy="151" i="58" r="0.5" tabindex="58">
<title>
v:58
</title>
</circle>
<circle cx="187" cy="256" i="59" r="0.5" tabindex="59">
<title>
v:59
</title>
</circle>
<circle cx="216" cy="257" i="60" r="0.5" tabindex="60">
<title>
v:60
</title>
</circle>
<circle cx="219" cy="194" i="61" r="0.5" tabindex="61">
<title>
v:61
</title>
</circle>
<circle cx="197" cy="227" i="62" r="0.5" tabindex="62">
<title>
v:62
</title>
</circle>
<circle cx="199" cy="86" i="63" r="0.5" tabindex="63">
<title>
v:63
</title>
</circle>
<circle cx="189" cy="190" i="64" r="0.5" tabindex="64">
<title>
v:64
</title>
</circle>
<circle cx="218" cy="208" i="65" r="0.5" tabindex="65">
<title>
v:65
</title>
</circle>
<circle cx="216" cy="250" i="66" r="0.5" tabindex="66">
<title>
v:66
</title>
</circle>
<circle cx="239" cy="195" i="67" r="0.5" tabindex="67">
<title>
v:67
</title>
</circle>
<circle cx="239" cy="227" i="68" r="0.5" tabindex="68">
<title>
v:68
</title>
</circle>
<circle cx="233" cy="277" i="69" r="0.5" tabindex="69">
<title>
v:69
</title>
</circle>
<circle cx="245" cy="224" i="70" r="0.5" tabindex="70">
<title>
v:70
</title>
</circle>
<circle cx="253" cy="251" i="71" r="0.5" tabindex="71">
<title>
v:71
</title>
</circle>
<circle cx="258" cy="252" i="72" r="0.5" tabindex="72">
<title>
v:72
</title>
</circle>
</g>
</svg>