<svg height="500" viewBox="-2 -2 265 281" width="500" xmlns="http://www.w3.org/2000/svg">
<path class="hole" d="M2 137L16 182L31 202L45 217L70 233L154 240L239 226L261 198L258 164L251 136L196 66L167 33L66 0L55 15L45 30M-2 -2L263 -2L263 279L-2 279" style="fill:#00000066;fill-rule:evenodd;"/>
<circle cx="18" cy="98" r="5" style="fill:#ffff0066;" title="BreakALeg"/>
<path class="ok" d="M28 109L50 125M28 109L52 100M13 163L30 143M50 125L52 100M50 125L30 143M52 100L56 128M24 170L46 161M66 16L72 32M76 89L77 110M76 89L77 66M20 171L46 161M30 143L46 161M30 143L56 128M30 143L53 158M69 46L72 32M69 46L77 66M55 75L63 97M55 75L79 89M63 97L80 113M46 161L59 189M72 32L90 40M56 128L80 113M56 128L53 158M77 110L79 89M77 66L79 89M77 66L94 57M80 113L79 89M80 113L101 132M90 40L88 21M90 40L94 57M90 40L94 62M88 21L81 38M53 158L59 189M53 158L77 145M79 89L101 83M94 57L101 83M59 189L44 215M81 38L99 44M94 62L99 44M101 83L113 108M101 132L77 145M101 132L113 108M101 132L121 146M131 68L151 84M131 68L127 89M113 108L127 89M113 108L128 127M121 146L141 152M151 84L127 89M151 84L174 81M127 89L141 108M163 213L150 182M150 182L141 152M150 182L178 201M128 127L141 152M128 127L141 108M128 127L152 128M128 127L152 144M141 152L162 175M174 81L164 103M174 81L199 84M141 108L164 103M141 108L152 128M164 103L175 86M164 103L185 104M191 173L162 175M191 173L217 194M152 144L179 151M199 84L175 86M178 201L162 175M178 201L195 227M162 175L179 151M162 175L187 190M175 86L185 104M175 86L197 86M185 104L197 86M217 194L187 190M195 227L216 208M187 190L216 208M216 208L237 195" style="stroke:#0000ff;stroke-linecap:round"/>
<path class="out" d="M0 178L13 163M0 178L24 170M66 16L79 3M20 171L23 201M79 3L97 0M79 3L88 21M97 0L88 21M23 201L44 215M156 245L163 213M156 245L184 273M163 213L185 238M184 273L185 238M184 273L214 257M185 238L178 201M185 238L214 257M185 256L195 227M185 256L214 250M195 227L214 250M216 208L237 227M214 250L237 227M214 250L231 277M237 195L243 224M237 227L251 251M237 227L256 252M231 277L256 252M243 224L251 251" style="stroke:#ff0000;stroke-linecap:round"/>
<g fill="#333333">
<circle cx="2" cy="137" r="0.5" tabindex="0">
<title>
hole:0
</title>
</circle>
<circle cx="16" cy="182" r="0.5" tabindex="1">
<title>
hole:1
</title>
</circle>
<circle cx="31" cy="202" r="0.5" tabindex="2">
<title>
hole:2
</title>
</circle>
<circle cx="45" cy="217" r="0.5" tabindex="3">
<title>
hole:3
</title>
</circle>
<circle cx="70" cy="233" r="0.5" tabindex="4">
<title>
hole:4
</title>
</circle>
<circle cx="154" cy="240" r="0.5" tabindex="5">
<title>
hole:5
</title>
</circle>
<circle cx="239" cy="226" r="0.5" tabindex="6">
<title>
hole:6
</title>
</circle>
<circle cx="261" cy="198" r="0.5" tabindex="7">
<title>
hole:7
</title>
</circle>
<circle cx="258" cy="164" r="0.5" tabindex="8">
<title>
hole:8
</title>
</circle>
<circle cx="251" cy="136" r="0.5" tabindex="9">
<title>
hole:9
</title>
</circle>
<circle cx="196" cy="66" r="0.5" tabindex="10">
<title>
hole:10
</title>
</circle>
<circle cx="167" cy="33" r="0.5" tabindex="11">
<title>
hole:11
</title>
</circle>
<circle cx="66" cy="0" r="0.5" tabindex="12">
<title>
hole:12
</title>
</circle>
<circle cx="55" cy="15" r="0.5" tabindex="13">
<title>
hole:13
</title>
</circle>
<circle cx="45" cy="30" r="0.5" tabindex="14">
<title>
hole:14
</title>
</circle>
</g>
<g fill="#999999">
<circle cx="28" cy="109" r="0.5" tabindex="15">
<title>
v:0
</title>
</circle>
<circle cx="0" cy="178" r="0.5" tabindex="16">
<title>
v:1
</title>
</circle>
<circle cx="13" cy="163" r="0.5" tabindex="17">
<title>
v:2
</title>
</circle>
<circle cx="50" cy="125" r="0.5" tabindex="18">
<title>
v:3
</title>
</circle>
<circle cx="52" cy="100" r="0.5" tabindex="19">
<title>
v:4
</title>
</circle>
<circle cx="24" cy="170" r="0.5" tabindex="20">
<title>
v:5
</title>
</circle>
<circle cx="66" cy="16" r="0.5" tabindex="21">
<title>
v:6
</title>
</circle>
<circle cx="76" cy="89" r="0.5" tabindex="22">
<title>
v:7
</title>
</circle>
<circle cx="20" cy="171" r="0.5" tabindex="23">
<title>
v:8
</title>
</circle>
<circle cx="30" cy="143" r="0.5" tabindex="24">
<title>
v:9
</title>
</circle>
<circle cx="69" cy="46" r="0.5" tabindex="25">
<title>
v:10
</title>
</circle>
<circle cx="55" cy="75" r="0.5" tabindex="26">
<title>
v:11
</title>
</circle>
<circle cx="63" cy="97" r="0.5" tabindex="27">
<title>
v:12
</title>
</circle>
<circle cx="46" cy="161" r="0.5" tabindex="28">
<title>
v:13
</title>
</circle>
<circle cx="72" cy="32" r="0.5" tabindex="29">
<title>
v:14
</title>
</circle>
<circle cx="79" cy="3" r="0.5" tabindex="30">
<title>
v:15
</title>
</circle>
<circle cx="56" cy="128" r="0.5" tabindex="31">
<title>
v:16
</title>
</circle>
<circle cx="77" cy="110" r="0.5" tabindex="32">
<title>
v:17
</title>
</circle>
<circle cx="97" cy="0" r="0.5" tabindex="33">
<title>
v:18
</title>
</circle>
<circle cx="77" cy="66" r="0.5" tabindex="34">
<title>
v:19
</title>
</circle>
<circle cx="23" cy="201" r="0.5" tabindex="35">
<title>
v:20
</title>
</circle>
<circle cx="80" cy="113" r="0.5" tabindex="36">
<title>
v:21
</title>
</circle>
<circle cx="90" cy="40" r="0.5" tabindex="37">
<title>
v:22
</title>
</circle>
<circle cx="88" cy="21" r="0.5" tabindex="38">
<title>
v:23
</title>
</circle>
<circle cx="53" cy="158" r="0.5" tabindex="39">
<title>
v:24
</title>
</circle>
<circle cx="79" cy="89" r="0.5" tabindex="40">
<title>
v:25
</title>
</circle>
<circle cx="94" cy="57" r="0.5" tabindex="41">
<title>
v:26
</title>
</circle>
<circle cx="59" cy="189" r="0.5" tabindex="42">
<title>
v:27
</title>
</circle>
<circle cx="44" cy="215" r="0.5" tabindex="43">
<title>
v:28
</title>
</circle>
<circle cx="81" cy="38" r="0.5" tabindex="44">
<title>
v:29
</title>
</circle>
<circle cx="94" cy="62" r="0.5" tabindex="45">
<title>
v:30
</title>
</circle>
<circle cx="101" cy="83" r="0.5" tabindex="46">
<title>
v:31
</title>
</circle>
<circle cx="101" cy="132" r="0.5" tabindex="47">
<title>
v:32
</title>
</circle>
<circle cx="77" cy="145" r="0.5" tabindex="48">
<title>
v:33
</title>
</circle>
<circle cx="99" cy="44" r="0.5" tabindex="49">
<title>
v:34
</title>
</circle>
<circle cx="131" cy="68" r="0.5" tabindex="50">
<title>
v:35
</title>
</circle>
<circle cx="113" cy="108" r="0.5" tabindex="51">
<title>
v:36
</title>
</circle>
<circle cx="156" cy="245" r="0.5" tabindex="52">
<title>
v:37
</title>
</circle>
<circle cx="121" cy="146" r="0.5" tabindex="53">
<title>
v:38
</title>
</circle>
<circle cx="151" cy="84" r="0.5" tabindex="54">
<title>
v:39
</title>
</circle>
<circle cx="127" cy="89" r="0.5" tabindex="55">
<title>
v:40
</title>
</circle>
<circle cx="163" cy="213" r="0.5" tabindex="56">
<title>
v:41
</title>
</circle>
<circle cx="150" cy="182" r="0.5" tabindex="57">
<title>
v:42
</title>
</circle>
<circle cx="128" cy="127" r="0.5" tabindex="58">
<title>
v:43
</title>
</circle>
<circle cx="141" cy="152" r="0.5" tabindex="59">
<title>
v:44
</title>
</circle>
<circle cx="174" cy="81" r="0.5" tabindex="60">
<title>
v:45
</title>
</circle>
<circle cx="141" cy="108" r="0.5" tabindex="61">
<title>
v:46
</title>
</circle>
<circle cx="184" cy="273" r="0.5" tabindex="62">
<title>
v:47
</title>
</circle>
<circle cx="164" cy="103" r="0.5" tabindex="63">
<title>
v:48
</title>
</circle>
<circle cx="152" cy="128" r="0.5" tabindex="64">
<title>
v:49
</title>
</circle>
<circle cx="191" cy="173" r="0.5" tabindex="65">
<title>
v:50
</title>
</circle>
<circle cx="185" cy="238" r="0.5" tabindex="66">
<title>
v:51
</title>
</circle>
<circle cx="152" cy="144" r="0.5" tabindex="67">
<title>
v:52
</title>
</circle>
<circle cx="199" cy="84" r="0.5" tabindex="68">
<title>
v:53
</title>
</circle>
<circle cx="178" cy="201" r="0.5" tabindex="69">
<title>
v:54
</title>
</circle>
<circle cx="162" cy="175" r="0.5" tabindex="70">
<title>
v:55
</title>
</circle>
<circle cx="175" cy="86" r="0.5" tabindex="71">
<title>
v:56
</title>
</circle>
<circle cx="185" cy="104" r="0.5" tabindex="72">
<title>
v:57
</title>
</circle>
<circle cx="179" cy="151" r="0.5" tabindex="73">
<title>
v:58
</title>
</circle>
<circle cx="185" cy="256" r="0.5" tabindex="74">
<title>
v:59
</title>
</circle>
<circle cx="214" cy="257" r="0.5" tabindex="75">
<title>
v:60
</title>
</circle>
<circle cx="217" cy="194" r="0.5" tabindex="76">
<title>
v:61
</title>
</circle>
<circle cx="195" cy="227" r="0.5" tabindex="77">
<title>
v:62
</title>
</circle>
<circle cx="197" cy="86" r="0.5" tabindex="78">
<title>
v:63
</title>
</circle>
<circle cx="187" cy="190" r="0.5" tabindex="79">
<title>
v:64
</title>
</circle>
<circle cx="216" cy="208" r="0.5" tabindex="80">
<title>
v:65
</title>
</circle>
<circle cx="214" cy="250" r="0.5" tabindex="81">
<title>
v:66
</title>
</circle>
<circle cx="237" cy="195" r="0.5" tabindex="82">
<title>
v:67
</title>
</circle>
<circle cx="237" cy="227" r="0.5" tabindex="83">
<title>
v:68
</title>
</circle>
<circle cx="231" cy="277" r="0.5" tabindex="84">
<title>
v:69
</title>
</circle>
<circle cx="243" cy="224" r="0.5" tabindex="85">
<title>
v:70
</title>
</circle>
<circle cx="251" cy="251" r="0.5" tabindex="86">
<title>
v:71
</title>
</circle>
<circle cx="256" cy="252" r="0.5" tabindex="87">
<title>
v:72
</title>
</circle>
</g>
</svg>