<svg height="500" viewBox="-2 -2 213 190" width="500" xmlns="http://www.w3.org/2000/svg">
<path class="hole" d="M2 44L29 64L47 70L67 65L86 58L76 12L66 0L21 10L6 29L3 36M-2 -2L211 -2L211 188L-2 188" style="fill:#00000066;fill-rule:evenodd;"/>
<circle cx="79" cy="30" r="5" style="fill:#ffff0066;" title="Globalist"/>
<circle cx="83" cy="45" r="5" style="fill:#ffff0066;" title="Globalist"/>
<path class="ok" d="M51 8L60 37" style="stroke:#0000ff;stroke-linecap:round"/>
<path class="out" d="M0 72L10 53M0 72L13 79M10 53L23 64M13 79L18 106M13 79L23 64M13 79L34 76M15 128L18 106M15 128L37 142M15 128L52 120M18 106L40 100M23 64L34 76M23 64L40 64M34 76L40 64M34 76L40 100M37 142L52 120M37 142L73 131M40 100L52 120M40 100L57 93M43 75L59 103M43 75L68 48M49 131L59 103M49 131L78 151M51 8L78 14M51 74L62 91M51 74L71 67M52 120L68 109M52 120L73 131M57 93L68 109M59 103L91 99M60 37L78 14M60 37L88 39M62 91L80 86M64 47L71 67M64 47L84 41M68 48L101 67M68 85L68 109M68 85L90 78M68 109L73 131M68 109L90 116M71 67L80 86M71 67L90 61M73 131L90 116M78 14L88 39M78 14L100 0M78 151L103 130M78 151L106 160M80 86L98 76M80 157L90 181M80 157L106 160M84 41L90 61M84 41L92 30M88 39L88 67M88 39L111 40M88 67L108 63M90 61L98 76M90 61L103 53M90 61L108 58M90 78L104 97M90 78L108 58M90 96L103 130M90 96L129 90M90 116L104 97M90 116L110 120M90 181L106 160M90 181L115 186M91 99L101 67M91 99L103 130M92 30L111 40M98 76L116 69M100 0L118 16M103 53L117 55M103 130L106 160M103 130L134 120M104 97L110 120M104 97L126 88M104 97L129 92M106 160L115 186M106 160L133 166M108 58L111 40M108 58L128 68M108 63L111 40M110 120L134 120M111 40L118 16M111 40L137 32M115 186L133 166M116 69L117 55M118 16L137 32M126 88L144 78M126 88L147 100M128 68L129 92M128 68L143 51M128 68L167 74M129 90L134 120M133 166L152 142M134 120L147 100M134 120L152 142M137 32L138 6M137 32L143 51M137 32L161 37M138 6L161 14M143 51L144 78M143 51L161 37M143 117L147 100M143 117L160 129M144 78L147 100M144 78L167 74M147 100L150 74M147 100L167 96M147 100L170 106M150 74L176 80M152 142L162 164M152 142L174 132M160 129L179 113M161 14L161 37M161 14L184 25M161 37L173 60M161 37L184 25M162 164L179 178M162 164L185 154M167 74L167 96M167 96L179 113M170 106L174 132M170 106L176 80M170 106L193 119M173 60L182 81M173 60L193 50M174 132L185 154M174 132L191 138M174 132L193 119M179 178L185 154M182 81L203 70M184 25L193 50M191 138L193 119M191 138L209 130M193 50L203 70M193 119L209 130" style="stroke:#ff0000;stroke-linecap:round"/>
<g fill="#333333">
<circle cx="2" cy="44" r="0.5" tabindex="0">
<title>
hole:0
</title>
</circle>
<circle cx="29" cy="64" r="0.5" tabindex="1">
<title>
hole:1
</title>
</circle>
<circle cx="47" cy="70" r="0.5" tabindex="2">
<title>
hole:2
</title>
</circle>
<circle cx="67" cy="65" r="0.5" tabindex="3">
<title>
hole:3
</title>
</circle>
<circle cx="86" cy="58" r="0.5" tabindex="4">
<title>
hole:4
</title>
</circle>
<circle cx="76" cy="12" r="0.5" tabindex="5">
<title>
hole:5
</title>
</circle>
<circle cx="66" cy="0" r="0.5" tabindex="6">
<title>
hole:6
</title>
</circle>
<circle cx="21" cy="10" r="0.5" tabindex="7">
<title>
hole:7
</title>
</circle>
<circle cx="6" cy="29" r="0.5" tabindex="8">
<title>
hole:8
</title>
</circle>
<circle cx="3" cy="36" r="0.5" tabindex="9">
<title>
hole:9
</title>
</circle>
</g>
<g fill="#999999">
<circle cx="0" cy="72" r="0.5" tabindex="10">
<title>
v:0
</title>
</circle>
<circle cx="10" cy="53" r="0.5" tabindex="11">
<title>
v:1
</title>
</circle>
<circle cx="13" cy="79" r="0.5" tabindex="12">
<title>
v:2
</title>
</circle>
<circle cx="15" cy="128" r="0.5" tabindex="13">
<title>
v:3
</title>
</circle>
<circle cx="18" cy="106" r="0.5" tabindex="14">
<title>
v:4
</title>
</circle>
<circle cx="23" cy="64" r="0.5" tabindex="15">
<title>
v:5
</title>
</circle>
<circle cx="34" cy="76" r="0.5" tabindex="16">
<title>
v:6
</title>
</circle>
<circle cx="37" cy="142" r="0.5" tabindex="17">
<title>
v:7
</title>
</circle>
<circle cx="40" cy="64" r="0.5" tabindex="18">
<title>
v:8
</title>
</circle>
<circle cx="40" cy="100" r="0.5" tabindex="19">
<title>
v:9
</title>
</circle>
<circle cx="43" cy="75" r="0.5" tabindex="20">
<title>
v:10
</title>
</circle>
<circle cx="49" cy="131" r="0.5" tabindex="21">
<title>
v:11
</title>
</circle>
<circle cx="51" cy="8" r="0.5" tabindex="22">
<title>
v:12
</title>
</circle>
<circle cx="51" cy="74" r="0.5" tabindex="23">
<title>
v:13
</title>
</circle>
<circle cx="52" cy="120" r="0.5" tabindex="24">
<title>
v:14
</title>
</circle>
<circle cx="57" cy="93" r="0.5" tabindex="25">
<title>
v:15
</title>
</circle>
<circle cx="59" cy="103" r="0.5" tabindex="26">
<title>
v:16
</title>
</circle>
<circle cx="60" cy="37" r="0.5" tabindex="27">
<title>
v:17
</title>
</circle>
<circle cx="62" cy="91" r="0.5" tabindex="28">
<title>
v:18
</title>
</circle>
<circle cx="64" cy="47" r="0.5" tabindex="29">
<title>
v:19
</title>
</circle>
<circle cx="68" cy="48" r="0.5" tabindex="30">
<title>
v:20
</title>
</circle>
<circle cx="68" cy="85" r="0.5" tabindex="31">
<title>
v:21
</title>
</circle>
<circle cx="68" cy="109" r="0.5" tabindex="32">
<title>
v:22
</title>
</circle>
<circle cx="71" cy="67" r="0.5" tabindex="33">
<title>
v:23
</title>
</circle>
<circle cx="73" cy="131" r="0.5" tabindex="34">
<title>
v:24
</title>
</circle>
<circle cx="78" cy="14" r="0.5" tabindex="35">
<title>
v:25
</title>
</circle>
<circle cx="78" cy="151" r="0.5" tabindex="36">
<title>
v:26
</title>
</circle>
<circle cx="80" cy="86" r="0.5" tabindex="37">
<title>
v:27
</title>
</circle>
<circle cx="80" cy="157" r="0.5" tabindex="38">
<title>
v:28
</title>
</circle>
<circle cx="84" cy="41" r="0.5" tabindex="39">
<title>
v:29
</title>
</circle>
<circle cx="88" cy="39" r="0.5" tabindex="40">
<title>
v:30
</title>
</circle>
<circle cx="88" cy="67" r="0.5" tabindex="41">
<title>
v:31
</title>
</circle>
<circle cx="90" cy="61" r="0.5" tabindex="42">
<title>
v:32
</title>
</circle>
<circle cx="90" cy="78" r="0.5" tabindex="43">
<title>
v:33
</title>
</circle>
<circle cx="90" cy="96" r="0.5" tabindex="44">
<title>
v:34
</title>
</circle>
<circle cx="90" cy="116" r="0.5" tabindex="45">
<title>
v:35
</title>
</circle>
<circle cx="90" cy="181" r="0.5" tabindex="46">
<title>
v:36
</title>
</circle>
<circle cx="91" cy="99" r="0.5" tabindex="47">
<title>
v:37
</title>
</circle>
<circle cx="92" cy="30" r="0.5" tabindex="48">
<title>
v:38
</title>
</circle>
<circle cx="98" cy="76" r="0.5" tabindex="49">
<title>
v:39
</title>
</circle>
<circle cx="100" cy="0" r="0.5" tabindex="50">
<title>
v:40
</title>
</circle>
<circle cx="101" cy="67" r="0.5" tabindex="51">
<title>
v:41
</title>
</circle>
<circle cx="103" cy="53" r="0.5" tabindex="52">
<title>
v:42
</title>
</circle>
<circle cx="103" cy="130" r="0.5" tabindex="53">
<title>
v:43
</title>
</circle>
<circle cx="104" cy="97" r="0.5" tabindex="54">
<title>
v:44
</title>
</circle>
<circle cx="106" cy="160" r="0.5" tabindex="55">
<title>
v:45
</title>
</circle>
<circle cx="108" cy="58" r="0.5" tabindex="56">
<title>
v:46
</title>
</circle>
<circle cx="108" cy="63" r="0.5" tabindex="57">
<title>
v:47
</title>
</circle>
<circle cx="110" cy="120" r="0.5" tabindex="58">
<title>
v:48
</title>
</circle>
<circle cx="111" cy="40" r="0.5" tabindex="59">
<title>
v:49
</title>
</circle>
<circle cx="115" cy="186" r="0.5" tabindex="60">
<title>
v:50
</title>
</circle>
<circle cx="116" cy="69" r="0.5" tabindex="61">
<title>
v:51
</title>
</circle>
<circle cx="117" cy="55" r="0.5" tabindex="62">
<title>
v:52
</title>
</circle>
<circle cx="118" cy="16" r="0.5" tabindex="63">
<title>
v:53
</title>
</circle>
<circle cx="126" cy="88" r="0.5" tabindex="64">
<title>
v:54
</title>
</circle>
<circle cx="128" cy="68" r="0.5" tabindex="65">
<title>
v:55
</title>
</circle>
<circle cx="129" cy="90" r="0.5" tabindex="66">
<title>
v:56
</title>
</circle>
<circle cx="129" cy="92" r="0.5" tabindex="67">
<title>
v:57
</title>
</circle>
<circle cx="133" cy="166" r="0.5" tabindex="68">
<title>
v:58
</title>
</circle>
<circle cx="134" cy="120" r="0.5" tabindex="69">
<title>
v:59
</title>
</circle>
<circle cx="137" cy="32" r="0.5" tabindex="70">
<title>
v:60
</title>
</circle>
<circle cx="138" cy="6" r="0.5" tabindex="71">
<title>
v:61
</title>
</circle>
<circle cx="143" cy="51" r="0.5" tabindex="72">
<title>
v:62
</title>
</circle>
<circle cx="143" cy="117" r="0.5" tabindex="73">
<title>
v:63
</title>
</circle>
<circle cx="144" cy="78" r="0.5" tabindex="74">
<title>
v:64
</title>
</circle>
<circle cx="147" cy="100" r="0.5" tabindex="75">
<title>
v:65
</title>
</circle>
<circle cx="150" cy="74" r="0.5" tabindex="76">
<title>
v:66
</title>
</circle>
<circle cx="152" cy="142" r="0.5" tabindex="77">
<title>
v:67
</title>
</circle>
<circle cx="160" cy="129" r="0.5" tabindex="78">
<title>
v:68
</title>
</circle>
<circle cx="161" cy="14" r="0.5" tabindex="79">
<title>
v:69
</title>
</circle>
<circle cx="161" cy="37" r="0.5" tabindex="80">
<title>
v:70
</title>
</circle>
<circle cx="162" cy="164" r="0.5" tabindex="81">
<title>
v:71
</title>
</circle>
<circle cx="167" cy="74" r="0.5" tabindex="82">
<title>
v:72
</title>
</circle>
<circle cx="167" cy="96" r="0.5" tabindex="83">
<title>
v:73
</title>
</circle>
<circle cx="170" cy="106" r="0.5" tabindex="84">
<title>
v:74
</title>
</circle>
<circle cx="173" cy="60" r="0.5" tabindex="85">
<title>
v:75
</title>
</circle>
<circle cx="174" cy="132" r="0.5" tabindex="86">
<title>
v:76
</title>
</circle>
<circle cx="176" cy="80" r="0.5" tabindex="87">
<title>
v:77
</title>
</circle>
<circle cx="179" cy="113" r="0.5" tabindex="88">
<title>
v:78
</title>
</circle>
<circle cx="179" cy="178" r="0.5" tabindex="89">
<title>
v:79
</title>
</circle>
<circle cx="182" cy="81" r="0.5" tabindex="90">
<title>
v:80
</title>
</circle>
<circle cx="184" cy="25" r="0.5" tabindex="91">
<title>
v:81
</title>
</circle>
<circle cx="185" cy="154" r="0.5" tabindex="92">
<title>
v:82
</title>
</circle>
<circle cx="191" cy="138" r="0.5" tabindex="93">
<title>
v:83
</title>
</circle>
<circle cx="193" cy="50" r="0.5" tabindex="94">
<title>
v:84
</title>
</circle>
<circle cx="193" cy="119" r="0.5" tabindex="95">
<title>
v:85
</title>
</circle>
<circle cx="203" cy="70" r="0.5" tabindex="96">
<title>
v:86
</title>
</circle>
<circle cx="209" cy="130" r="0.5" tabindex="97">
<title>
v:87
</title>
</circle>
</g>
</svg>