<svg height="500" viewBox="0 -2 213 190" width="500" xmlns="http://www.w3.org/2000/svg">
<path class="hole" d="M2 44L29 64L47 70L67 65L86 58L76 12L66 0L21 10L6 29L3 36M0 -2L213 -2L213 188L0 188" style="fill:#00000066;fill-rule:evenodd;"/>
<circle cx="79" cy="30" fill="#ffff0066" r="5">
<title>
Globalist@83
</title>
</circle>
<circle cx="83" cy="45" fill="#ffff0066" r="5">
<title>
Globalist@39
</title>
</circle>
<circle cx="59" cy="45" fill="#ffff0066" r="5">
<title>
SuperFlex@8
</title>
</circle>
<path class="ok" d="M53 8L62 37" style="stroke:#0000ff;stroke-linecap:round"/>
<path class="out" d="M2 72L12 53M2 72L15 79M12 53L25 64M15 79L20 106M15 79L25 64M15 79L36 76M17 128L20 106M17 128L39 142M17 128L54 120M20 106L42 100M25 64L36 76M25 64L42 64M36 76L42 64M36 76L42 100M39 142L54 120M39 142L75 131M42 100L54 120M42 100L59 93M45 75L61 103M45 75L70 48M51 131L61 103M51 131L80 151M53 8L80 14M53 74L64 91M53 74L73 67M54 120L70 109M54 120L75 131M59 93L70 109M61 103L93 99M62 37L80 14M62 37L90 39M64 91L82 86M66 47L73 67M66 47L86 41M70 48L103 67M70 85L70 109M70 85L92 78M70 109L75 131M70 109L92 116M73 67L82 86M73 67L92 61M75 131L92 116M80 14L90 39M80 14L102 0M80 151L105 130M80 151L108 160M82 86L100 76M82 157L92 181M82 157L108 160M86 41L92 61M86 41L94 30M90 39L90 67M90 39L113 40M90 67L110 63M92 61L100 76M92 61L105 53M92 61L110 58M92 78L106 97M92 78L110 58M92 96L105 130M92 96L131 90M92 116L106 97M92 116L112 120M92 181L108 160M92 181L117 186M93 99L103 67M93 99L105 130M94 30L113 40M100 76L118 69M102 0L120 16M105 53L119 55M105 130L108 160M105 130L136 120M106 97L112 120M106 97L128 88M106 97L131 92M108 160L117 186M108 160L135 166M110 58L113 40M110 58L130 68M110 63L113 40M112 120L136 120M113 40L120 16M113 40L139 32M117 186L135 166M118 69L119 55M120 16L139 32M128 88L146 78M128 88L149 100M130 68L131 92M130 68L145 51M130 68L169 74M131 90L136 120M135 166L154 142M136 120L149 100M136 120L154 142M139 32L140 6M139 32L145 51M139 32L163 37M140 6L163 14M145 51L146 78M145 51L163 37M145 117L149 100M145 117L162 129M146 78L149 100M146 78L169 74M149 100L152 74M149 100L169 96M149 100L172 106M152 74L178 80M154 142L164 164M154 142L176 132M162 129L181 113M163 14L163 37M163 14L186 25M163 37L175 60M163 37L186 25M164 164L181 178M164 164L187 154M169 74L169 96M169 96L181 113M172 106L176 132M172 106L178 80M172 106L195 119M175 60L184 81M175 60L195 50M176 132L187 154M176 132L193 138M176 132L195 119M181 178L187 154M184 81L205 70M186 25L195 50M193 138L195 119M193 138L211 130M195 50L205 70M195 119L211 130" style="stroke:#ff0000;stroke-linecap:round"/>
<g fill="#333333">
<circle cx="2" cy="44" r="0.5">
<title>
hole:0
</title>
</circle>
<circle cx="29" cy="64" r="0.5">
<title>
hole:1
</title>
</circle>
<circle cx="47" cy="70" r="0.5">
<title>
hole:2
</title>
</circle>
<circle cx="67" cy="65" r="0.5">
<title>
hole:3
</title>
</circle>
<circle cx="86" cy="58" r="0.5">
<title>
hole:4
</title>
</circle>
<circle cx="76" cy="12" r="0.5">
<title>
hole:5
</title>
</circle>
<circle cx="66" cy="0" r="0.5">
<title>
hole:6
</title>
</circle>
<circle cx="21" cy="10" r="0.5">
<title>
hole:7
</title>
</circle>
<circle cx="6" cy="29" r="0.5">
<title>
hole:8
</title>
</circle>
<circle cx="3" cy="36" r="0.5">
<title>
hole:9
</title>
</circle>
</g>
<g fill="#999999">
<circle cx="2" cy="72" i="0" r="0.5" tabindex="0">
<title>
v:0
</title>
</circle>
<circle cx="12" cy="53" i="1" r="0.5" tabindex="1">
<title>
v:1
</title>
</circle>
<circle cx="15" cy="79" i="2" r="0.5" tabindex="2">
<title>
v:2
</title>
</circle>
<circle cx="17" cy="128" i="3" r="0.5" tabindex="3">
<title>
v:3
</title>
</circle>
<circle cx="20" cy="106" i="4" r="0.5" tabindex="4">
<title>
v:4
</title>
</circle>
<circle cx="25" cy="64" i="5" r="0.5" tabindex="5">
<title>
v:5
</title>
</circle>
<circle cx="36" cy="76" i="6" r="0.5" tabindex="6">
<title>
v:6
</title>
</circle>
<circle cx="39" cy="142" i="7" r="0.5" tabindex="7">
<title>
v:7
</title>
</circle>
<circle cx="42" cy="64" i="8" r="0.5" tabindex="8">
<title>
v:8
</title>
</circle>
<circle cx="42" cy="100" i="9" r="0.5" tabindex="9">
<title>
v:9
</title>
</circle>
<circle cx="45" cy="75" i="10" r="0.5" tabindex="10">
<title>
v:10
</title>
</circle>
<circle cx="51" cy="131" i="11" r="0.5" tabindex="11">
<title>
v:11
</title>
</circle>
<circle cx="53" cy="8" i="12" r="0.5" tabindex="12">
<title>
v:12
</title>
</circle>
<circle cx="53" cy="74" i="13" r="0.5" tabindex="13">
<title>
v:13
</title>
</circle>
<circle cx="54" cy="120" i="14" r="0.5" tabindex="14">
<title>
v:14
</title>
</circle>
<circle cx="59" cy="93" i="15" r="0.5" tabindex="15">
<title>
v:15
</title>
</circle>
<circle cx="61" cy="103" i="16" r="0.5" tabindex="16">
<title>
v:16
</title>
</circle>
<circle cx="62" cy="37" i="17" r="0.5" tabindex="17">
<title>
v:17
</title>
</circle>
<circle cx="64" cy="91" i="18" r="0.5" tabindex="18">
<title>
v:18
</title>
</circle>
<circle cx="66" cy="47" i="19" r="0.5" tabindex="19">
<title>
v:19
</title>
</circle>
<circle cx="70" cy="48" i="20" r="0.5" tabindex="20">
<title>
v:20
</title>
</circle>
<circle cx="70" cy="85" i="21" r="0.5" tabindex="21">
<title>
v:21
</title>
</circle>
<circle cx="70" cy="109" i="22" r="0.5" tabindex="22">
<title>
v:22
</title>
</circle>
<circle cx="73" cy="67" i="23" r="0.5" tabindex="23">
<title>
v:23
</title>
</circle>
<circle cx="75" cy="131" i="24" r="0.5" tabindex="24">
<title>
v:24
</title>
</circle>
<circle cx="80" cy="14" i="25" r="0.5" tabindex="25">
<title>
v:25
</title>
</circle>
<circle cx="80" cy="151" i="26" r="0.5" tabindex="26">
<title>
v:26
</title>
</circle>
<circle cx="82" cy="86" i="27" r="0.5" tabindex="27">
<title>
v:27
</title>
</circle>
<circle cx="82" cy="157" i="28" r="0.5" tabindex="28">
<title>
v:28
</title>
</circle>
<circle cx="86" cy="41" i="29" r="0.5" tabindex="29">
<title>
v:29
</title>
</circle>
<circle cx="90" cy="39" i="30" r="0.5" tabindex="30">
<title>
v:30
</title>
</circle>
<circle cx="90" cy="67" i="31" r="0.5" tabindex="31">
<title>
v:31
</title>
</circle>
<circle cx="92" cy="61" i="32" r="0.5" tabindex="32">
<title>
v:32
</title>
</circle>
<circle cx="92" cy="78" i="33" r="0.5" tabindex="33">
<title>
v:33
</title>
</circle>
<circle cx="92" cy="96" i="34" r="0.5" tabindex="34">
<title>
v:34
</title>
</circle>
<circle cx="92" cy="116" i="35" r="0.5" tabindex="35">
<title>
v:35
</title>
</circle>
<circle cx="92" cy="181" i="36" r="0.5" tabindex="36">
<title>
v:36
</title>
</circle>
<circle cx="93" cy="99" i="37" r="0.5" tabindex="37">
<title>
v:37
</title>
</circle>
<circle cx="94" cy="30" i="38" r="0.5" tabindex="38">
<title>
v:38
</title>
</circle>
<circle cx="100" cy="76" i="39" r="0.5" tabindex="39">
<title>
v:39
</title>
</circle>
<circle cx="102" cy="0" i="40" r="0.5" tabindex="40">
<title>
v:40
</title>
</circle>
<circle cx="103" cy="67" i="41" r="0.5" tabindex="41">
<title>
v:41
</title>
</circle>
<circle cx="105" cy="53" i="42" r="0.5" tabindex="42">
<title>
v:42
</title>
</circle>
<circle cx="105" cy="130" i="43" r="0.5" tabindex="43">
<title>
v:43
</title>
</circle>
<circle cx="106" cy="97" i="44" r="0.5" tabindex="44">
<title>
v:44
</title>
</circle>
<circle cx="108" cy="160" i="45" r="0.5" tabindex="45">
<title>
v:45
</title>
</circle>
<circle cx="110" cy="58" i="46" r="0.5" tabindex="46">
<title>
v:46
</title>
</circle>
<circle cx="110" cy="63" i="47" r="0.5" tabindex="47">
<title>
v:47
</title>
</circle>
<circle cx="112" cy="120" i="48" r="0.5" tabindex="48">
<title>
v:48
</title>
</circle>
<circle cx="113" cy="40" i="49" r="0.5" tabindex="49">
<title>
v:49
</title>
</circle>
<circle cx="117" cy="186" i="50" r="0.5" tabindex="50">
<title>
v:50
</title>
</circle>
<circle cx="118" cy="69" i="51" r="0.5" tabindex="51">
<title>
v:51
</title>
</circle>
<circle cx="119" cy="55" i="52" r="0.5" tabindex="52">
<title>
v:52
</title>
</circle>
<circle cx="120" cy="16" i="53" r="0.5" tabindex="53">
<title>
v:53
</title>
</circle>
<circle cx="128" cy="88" i="54" r="0.5" tabindex="54">
<title>
v:54
</title>
</circle>
<circle cx="130" cy="68" i="55" r="0.5" tabindex="55">
<title>
v:55
</title>
</circle>
<circle cx="131" cy="90" i="56" r="0.5" tabindex="56">
<title>
v:56
</title>
</circle>
<circle cx="131" cy="92" i="57" r="0.5" tabindex="57">
<title>
v:57
</title>
</circle>
<circle cx="135" cy="166" i="58" r="0.5" tabindex="58">
<title>
v:58
</title>
</circle>
<circle cx="136" cy="120" i="59" r="0.5" tabindex="59">
<title>
v:59
</title>
</circle>
<circle cx="139" cy="32" i="60" r="0.5" tabindex="60">
<title>
v:60
</title>
</circle>
<circle cx="140" cy="6" i="61" r="0.5" tabindex="61">
<title>
v:61
</title>
</circle>
<circle cx="145" cy="51" i="62" r="0.5" tabindex="62">
<title>
v:62
</title>
</circle>
<circle cx="145" cy="117" i="63" r="0.5" tabindex="63">
<title>
v:63
</title>
</circle>
<circle cx="146" cy="78" i="64" r="0.5" tabindex="64">
<title>
v:64
</title>
</circle>
<circle cx="149" cy="100" i="65" r="0.5" tabindex="65">
<title>
v:65
</title>
</circle>
<circle cx="152" cy="74" i="66" r="0.5" tabindex="66">
<title>
v:66
</title>
</circle>
<circle cx="154" cy="142" i="67" r="0.5" tabindex="67">
<title>
v:67
</title>
</circle>
<circle cx="162" cy="129" i="68" r="0.5" tabindex="68">
<title>
v:68
</title>
</circle>
<circle cx="163" cy="14" i="69" r="0.5" tabindex="69">
<title>
v:69
</title>
</circle>
<circle cx="163" cy="37" i="70" r="0.5" tabindex="70">
<title>
v:70
</title>
</circle>
<circle cx="164" cy="164" i="71" r="0.5" tabindex="71">
<title>
v:71
</title>
</circle>
<circle cx="169" cy="74" i="72" r="0.5" tabindex="72">
<title>
v:72
</title>
</circle>
<circle cx="169" cy="96" i="73" r="0.5" tabindex="73">
<title>
v:73
</title>
</circle>
<circle cx="172" cy="106" i="74" r="0.5" tabindex="74">
<title>
v:74
</title>
</circle>
<circle cx="175" cy="60" i="75" r="0.5" tabindex="75">
<title>
v:75
</title>
</circle>
<circle cx="176" cy="132" i="76" r="0.5" tabindex="76">
<title>
v:76
</title>
</circle>
<circle cx="178" cy="80" i="77" r="0.5" tabindex="77">
<title>
v:77
</title>
</circle>
<circle cx="181" cy="113" i="78" r="0.5" tabindex="78">
<title>
v:78
</title>
</circle>
<circle cx="181" cy="178" i="79" r="0.5" tabindex="79">
<title>
v:79
</title>
</circle>
<circle cx="184" cy="81" i="80" r="0.5" tabindex="80">
<title>
v:80
</title>
</circle>
<circle cx="186" cy="25" i="81" r="0.5" tabindex="81">
<title>
v:81
</title>
</circle>
<circle cx="187" cy="154" i="82" r="0.5" tabindex="82">
<title>
v:82
</title>
</circle>
<circle cx="193" cy="138" i="83" r="0.5" tabindex="83">
<title>
v:83
</title>
</circle>
<circle cx="195" cy="50" i="84" r="0.5" tabindex="84">
<title>
v:84
</title>
</circle>
<circle cx="195" cy="119" i="85" r="0.5" tabindex="85">
<title>
v:85
</title>
</circle>
<circle cx="205" cy="70" i="86" r="0.5" tabindex="86">
<title>
v:86
</title>
</circle>
<circle cx="211" cy="130" i="87" r="0.5" tabindex="87">
<title>
v:87
</title>
</circle>
</g>
</svg>