<svg viewBox="0 0 171 175" width="500" xmlns="http://www.w3.org/2000/svg">
<path d="M71 26L37 28L41 71L67 71L63 129L51 127L36 114L18 91L5 129L24 153L53 171L87 174L134 171L163 146L170 120L149 91L142 115L128 131L106 133L108 72L137 70L133 25L107 26L106 4L64 5M0 0L171 0L171 175L0 175" style="fill:#00000066;fill-rule:evenodd;stroke:none;"/>
<path d="M19 54L24 53M19 54L27 34M19 54L33 62M24 53L29 38M24 53L33 58M27 34L29 38M27 34L50 33M29 38L47 38M33 46L39 48M33 46L40 46M33 58L33 62M33 58L41 54M33 62L44 54M38 73L41 61M38 73L60 95M38 73L68 60M39 48L40 46M39 48L41 54M40 46L44 54M41 54L44 54M41 61L62 82M41 61L64 57M47 38L50 33M47 38L66 77M48 119L56 124M48 119L57 145M48 119L60 95M49 16L53 17M49 16L55 33M49 16L68 5M50 33L76 64M53 17L58 30M53 17L66 10M53 42L63 41M53 42L64 38M55 33L58 30M55 33L70 30M56 124L60 140M56 124L71 103M57 145L60 140M57 145L74 143M58 30L67 28M59 23L66 23M59 23L68 21M60 95L62 82M60 95L71 103M60 140L71 140M62 82L66 77M63 41L64 38M63 41L69 48M64 38L73 48M64 57L68 60M64 57L69 48M66 10L68 5M66 10L85 29M66 23L67 28M66 23L68 21M66 77L76 64M67 28L70 30M68 5L94 29M68 21L70 30M68 60L73 48M69 48L73 48M71 103L76 83M71 103L76 114M71 140L73 126M71 140L74 143M73 126L77 130M73 126L87 124M74 143L77 130M76 64L78 63M76 83L78 63M76 83L88 76M76 114L87 120M77 130L85 128M78 63L80 40M78 63L86 58M80 40L85 29M80 40L88 43M85 29L94 29M85 128L87 124M85 128L88 132M86 58L88 43M86 58L95 63M86 58L101 27M87 120L95 115M87 124L92 132M88 43L94 29M88 76L99 85M88 132L89 144M88 132L92 132M89 144L92 132M95 63L99 64M95 63L99 85M95 63L107 33M95 115L104 102M99 64L107 71M99 64L113 47M99 85L104 102M101 27L107 33M101 27L121 19M102 129L108 129M102 129L112 108M102 129L116 144M104 102L109 93M104 102L112 108M107 33L119 26M107 71L110 83M107 71L117 53M107 71L136 67M108 129L119 142M108 129L122 107M109 93L110 83M109 93L122 107M110 83L133 75M112 108L122 107M113 47L117 53M113 47L131 45M115 160L116 144M115 160L119 142M116 144L119 142M117 53L129 51M119 26L121 19M119 26L127 30M121 19L133 28M126 105L128 93M126 105L130 104M126 105L141 114M127 30L130 42M127 30L133 28M128 93L130 96M128 93L140 93M129 51L131 45M129 51L143 62M130 42L134 39M130 42L143 45M130 96L130 104M130 96L137 95M130 104L141 109M131 45L145 58M133 28L134 39M133 75L136 67M133 75L146 84M134 39L142 42M136 67L153 81M137 34L146 31M137 34L150 27M137 95L139 103M137 95L140 93M139 103L140 93M141 109L141 114M141 109L148 101M141 114L154 104M142 42L143 45M142 42L146 31M143 45L150 27M143 62L145 58M143 62L157 59M145 58L155 56M146 31L150 27M146 84L148 101M146 84L153 81M148 101L154 104M153 81L154 104M155 56L157 59M155 56L159 46M157 59L159 46" style="fill:none;stroke:#ff0000;stroke-linecap:round"/>
</svg>