<svg height="500" viewBox="5 2 169 174" width="500" xmlns="http://www.w3.org/2000/svg">
<path class="hole" d="M73 26L39 28L43 71L69 71L65 129L53 127L38 114L20 91L7 129L26 153L55 171L89 174L136 171L165 146L172 120L151 91L144 115L130 131L108 133L110 72L139 70L135 25L109 26L108 4L66 5M5 2L174 2L174 176L5 176" style="fill:#00000066;fill-rule:evenodd;"/>
<circle cx="17" cy="100" fill="#ffff0066" r="5">
<title>
BreakALeg@56
</title>
</circle>
<circle cx="73" cy="157" fill="#ffff0066" r="5">
<title>
SuperFlex@24
</title>
</circle>
<circle cx="145" cy="151" fill="#ffff0066" r="5">
<title>
BreakALeg@35
</title>
</circle>
<path class="ok" d="M41 48L42 46M41 48L43 54M42 46L46 54M43 54L46 54M43 61L66 57M49 38L52 33M52 33L78 64M55 42L65 41M55 42L66 38M57 33L60 30M57 33L72 30M59 145L62 140M59 145L76 143M60 30L69 28M62 140L73 140M65 41L66 38M65 41L71 48M66 38L75 48M66 57L70 60M66 57L71 48M68 10L70 5M68 10L87 29M69 28L72 30M70 5L96 29M70 60L75 48M71 48L75 48M73 103L78 83M73 103L78 114M73 140L75 126M73 140L76 143M75 126L79 130M75 126L89 124M76 143L79 130M78 64L80 63M78 83L80 63M78 83L90 76M78 114L89 120M79 130L87 128M80 63L82 40M80 63L88 58M82 40L87 29M82 40L90 43M87 29L96 29M87 128L89 124M87 128L90 132M88 58L90 43M88 58L97 63M88 58L103 27M89 120L97 115M89 124L94 132M90 43L96 29M90 76L101 85M90 132L91 144M90 132L94 132M91 144L94 132M97 63L101 64M97 63L101 85M97 63L109 33M97 115L106 102M101 64L109 71M101 64L115 47M101 85L106 102M103 27L109 33M104 129L118 144M109 33L121 26M109 71L119 53M109 71L138 67M115 47L119 53M115 47L133 45M117 160L118 144M117 160L121 142M118 144L121 142M119 53L131 51M121 26L129 30M129 30L132 42M129 30L135 28M131 51L133 45M132 42L136 39M135 28L136 39M150 101L156 104" style="stroke:#0000ff;stroke-linecap:round"/>
<path class="out" d="M21 54L26 53M21 54L29 34M21 54L35 62M26 53L31 38M26 53L35 58M29 34L31 38M29 34L52 33M31 38L49 38M35 46L41 48M35 46L42 46M35 58L35 62M35 58L43 54M35 62L46 54M40 73L43 61M40 73L62 95M40 73L70 60M43 61L64 82M49 38L68 77M50 119L58 124M50 119L59 145M50 119L62 95M51 16L55 17M51 16L57 33M51 16L70 5M55 17L60 30M55 17L68 10M58 124L62 140M58 124L73 103M61 23L68 23M61 23L70 21M62 95L64 82M62 95L73 103M64 82L68 77M68 23L69 28M68 23L70 21M68 77L78 64M70 21L72 30M103 27L123 19M104 129L110 129M104 129L114 108M106 102L111 93M106 102L114 108M109 71L112 83M110 129L121 142M110 129L124 107M111 93L112 83M111 93L124 107M112 83L135 75M114 108L124 107M121 26L123 19M123 19L135 28M128 105L130 93M128 105L132 104M128 105L143 114M130 93L132 96M130 93L142 93M131 51L145 62M132 42L145 45M132 96L132 104M132 96L139 95M132 104L143 109M133 45L147 58M135 75L138 67M135 75L148 84M136 39L144 42M138 67L155 81M139 34L148 31M139 34L152 27M139 95L141 103M139 95L142 93M141 103L142 93M143 109L143 114M143 109L150 101M143 114L156 104M144 42L145 45M144 42L148 31M145 45L152 27M145 62L147 58M145 62L159 59M147 58L157 56M148 31L152 27M148 84L150 101M148 84L155 81M155 81L156 104M157 56L159 59M157 56L161 46M159 59L161 46" style="stroke:#ff0000;stroke-linecap:round"/>
<g fill="#333333">
<circle cx="73" cy="26" r="0.5">
<title>
hole:0
</title>
</circle>
<circle cx="39" cy="28" r="0.5">
<title>
hole:1
</title>
</circle>
<circle cx="43" cy="71" r="0.5">
<title>
hole:2
</title>
</circle>
<circle cx="69" cy="71" r="0.5">
<title>
hole:3
</title>
</circle>
<circle cx="65" cy="129" r="0.5">
<title>
hole:4
</title>
</circle>
<circle cx="53" cy="127" r="0.5">
<title>
hole:5
</title>
</circle>
<circle cx="38" cy="114" r="0.5">
<title>
hole:6
</title>
</circle>
<circle cx="20" cy="91" r="0.5">
<title>
hole:7
</title>
</circle>
<circle cx="7" cy="129" r="0.5">
<title>
hole:8
</title>
</circle>
<circle cx="26" cy="153" r="0.5">
<title>
hole:9
</title>
</circle>
<circle cx="55" cy="171" r="0.5">
<title>
hole:10
</title>
</circle>
<circle cx="89" cy="174" r="0.5">
<title>
hole:11
</title>
</circle>
<circle cx="136" cy="171" r="0.5">
<title>
hole:12
</title>
</circle>
<circle cx="165" cy="146" r="0.5">
<title>
hole:13
</title>
</circle>
<circle cx="172" cy="120" r="0.5">
<title>
hole:14
</title>
</circle>
<circle cx="151" cy="91" r="0.5">
<title>
hole:15
</title>
</circle>
<circle cx="144" cy="115" r="0.5">
<title>
hole:16
</title>
</circle>
<circle cx="130" cy="131" r="0.5">
<title>
hole:17
</title>
</circle>
<circle cx="108" cy="133" r="0.5">
<title>
hole:18
</title>
</circle>
<circle cx="110" cy="72" r="0.5">
<title>
hole:19
</title>
</circle>
<circle cx="139" cy="70" r="0.5">
<title>
hole:20
</title>
</circle>
<circle cx="135" cy="25" r="0.5">
<title>
hole:21
</title>
</circle>
<circle cx="109" cy="26" r="0.5">
<title>
hole:22
</title>
</circle>
<circle cx="108" cy="4" r="0.5">
<title>
hole:23
</title>
</circle>
<circle cx="66" cy="5" r="0.5">
<title>
hole:24
</title>
</circle>
</g>
<g fill="#999999">
<circle cx="21" cy="54" i="0" r="0.5" tabindex="0">
<title>
v:0
</title>
</circle>
<circle cx="26" cy="53" i="1" r="0.5" tabindex="1">
<title>
v:1
</title>
</circle>
<circle cx="29" cy="34" i="2" r="0.5" tabindex="2">
<title>
v:2
</title>
</circle>
<circle cx="31" cy="38" i="3" r="0.5" tabindex="3">
<title>
v:3
</title>
</circle>
<circle cx="35" cy="46" i="4" r="0.5" tabindex="4">
<title>
v:4
</title>
</circle>
<circle cx="35" cy="58" i="5" r="0.5" tabindex="5">
<title>
v:5
</title>
</circle>
<circle cx="35" cy="62" i="6" r="0.5" tabindex="6">
<title>
v:6
</title>
</circle>
<circle cx="40" cy="73" i="7" r="0.5" tabindex="7">
<title>
v:7
</title>
</circle>
<circle cx="41" cy="48" i="8" r="0.5" tabindex="8">
<title>
v:8
</title>
</circle>
<circle cx="42" cy="46" i="9" r="0.5" tabindex="9">
<title>
v:9
</title>
</circle>
<circle cx="43" cy="54" i="10" r="0.5" tabindex="10">
<title>
v:10
</title>
</circle>
<circle cx="43" cy="61" i="11" r="0.5" tabindex="11">
<title>
v:11
</title>
</circle>
<circle cx="46" cy="54" i="12" r="0.5" tabindex="12">
<title>
v:12
</title>
</circle>
<circle cx="49" cy="38" i="13" r="0.5" tabindex="13">
<title>
v:13
</title>
</circle>
<circle cx="50" cy="119" i="14" r="0.5" tabindex="14">
<title>
v:14
</title>
</circle>
<circle cx="51" cy="16" i="15" r="0.5" tabindex="15">
<title>
v:15
</title>
</circle>
<circle cx="52" cy="33" i="16" r="0.5" tabindex="16">
<title>
v:16
</title>
</circle>
<circle cx="55" cy="17" i="17" r="0.5" tabindex="17">
<title>
v:17
</title>
</circle>
<circle cx="55" cy="42" i="18" r="0.5" tabindex="18">
<title>
v:18
</title>
</circle>
<circle cx="57" cy="33" i="19" r="0.5" tabindex="19">
<title>
v:19
</title>
</circle>
<circle cx="58" cy="124" i="20" r="0.5" tabindex="20">
<title>
v:20
</title>
</circle>
<circle cx="59" cy="145" i="21" r="0.5" tabindex="21">
<title>
v:21
</title>
</circle>
<circle cx="60" cy="30" i="22" r="0.5" tabindex="22">
<title>
v:22
</title>
</circle>
<circle cx="61" cy="23" i="23" r="0.5" tabindex="23">
<title>
v:23
</title>
</circle>
<circle cx="62" cy="95" i="24" r="0.5" tabindex="24">
<title>
v:24
</title>
</circle>
<circle cx="62" cy="140" i="25" r="0.5" tabindex="25">
<title>
v:25
</title>
</circle>
<circle cx="64" cy="82" i="26" r="0.5" tabindex="26">
<title>
v:26
</title>
</circle>
<circle cx="65" cy="41" i="27" r="0.5" tabindex="27">
<title>
v:27
</title>
</circle>
<circle cx="66" cy="38" i="28" r="0.5" tabindex="28">
<title>
v:28
</title>
</circle>
<circle cx="66" cy="57" i="29" r="0.5" tabindex="29">
<title>
v:29
</title>
</circle>
<circle cx="68" cy="10" i="30" r="0.5" tabindex="30">
<title>
v:30
</title>
</circle>
<circle cx="68" cy="23" i="31" r="0.5" tabindex="31">
<title>
v:31
</title>
</circle>
<circle cx="68" cy="77" i="32" r="0.5" tabindex="32">
<title>
v:32
</title>
</circle>
<circle cx="69" cy="28" i="33" r="0.5" tabindex="33">
<title>
v:33
</title>
</circle>
<circle cx="70" cy="5" i="34" r="0.5" tabindex="34">
<title>
v:34
</title>
</circle>
<circle cx="70" cy="21" i="35" r="0.5" tabindex="35">
<title>
v:35
</title>
</circle>
<circle cx="70" cy="60" i="36" r="0.5" tabindex="36">
<title>
v:36
</title>
</circle>
<circle cx="71" cy="48" i="37" r="0.5" tabindex="37">
<title>
v:37
</title>
</circle>
<circle cx="72" cy="30" i="38" r="0.5" tabindex="38">
<title>
v:38
</title>
</circle>
<circle cx="73" cy="103" i="39" r="0.5" tabindex="39">
<title>
v:39
</title>
</circle>
<circle cx="73" cy="140" i="40" r="0.5" tabindex="40">
<title>
v:40
</title>
</circle>
<circle cx="75" cy="48" i="41" r="0.5" tabindex="41">
<title>
v:41
</title>
</circle>
<circle cx="75" cy="126" i="42" r="0.5" tabindex="42">
<title>
v:42
</title>
</circle>
<circle cx="76" cy="143" i="43" r="0.5" tabindex="43">
<title>
v:43
</title>
</circle>
<circle cx="78" cy="64" i="44" r="0.5" tabindex="44">
<title>
v:44
</title>
</circle>
<circle cx="78" cy="83" i="45" r="0.5" tabindex="45">
<title>
v:45
</title>
</circle>
<circle cx="78" cy="114" i="46" r="0.5" tabindex="46">
<title>
v:46
</title>
</circle>
<circle cx="79" cy="130" i="47" r="0.5" tabindex="47">
<title>
v:47
</title>
</circle>
<circle cx="80" cy="63" i="48" r="0.5" tabindex="48">
<title>
v:48
</title>
</circle>
<circle cx="82" cy="40" i="49" r="0.5" tabindex="49">
<title>
v:49
</title>
</circle>
<circle cx="87" cy="29" i="50" r="0.5" tabindex="50">
<title>
v:50
</title>
</circle>
<circle cx="87" cy="128" i="51" r="0.5" tabindex="51">
<title>
v:51
</title>
</circle>
<circle cx="88" cy="58" i="52" r="0.5" tabindex="52">
<title>
v:52
</title>
</circle>
<circle cx="89" cy="120" i="53" r="0.5" tabindex="53">
<title>
v:53
</title>
</circle>
<circle cx="89" cy="124" i="54" r="0.5" tabindex="54">
<title>
v:54
</title>
</circle>
<circle cx="90" cy="43" i="55" r="0.5" tabindex="55">
<title>
v:55
</title>
</circle>
<circle cx="90" cy="76" i="56" r="0.5" tabindex="56">
<title>
v:56
</title>
</circle>
<circle cx="90" cy="132" i="57" r="0.5" tabindex="57">
<title>
v:57
</title>
</circle>
<circle cx="91" cy="144" i="58" r="0.5" tabindex="58">
<title>
v:58
</title>
</circle>
<circle cx="94" cy="132" i="59" r="0.5" tabindex="59">
<title>
v:59
</title>
</circle>
<circle cx="96" cy="29" i="60" r="0.5" tabindex="60">
<title>
v:60
</title>
</circle>
<circle cx="97" cy="63" i="61" r="0.5" tabindex="61">
<title>
v:61
</title>
</circle>
<circle cx="97" cy="115" i="62" r="0.5" tabindex="62">
<title>
v:62
</title>
</circle>
<circle cx="101" cy="64" i="63" r="0.5" tabindex="63">
<title>
v:63
</title>
</circle>
<circle cx="101" cy="85" i="64" r="0.5" tabindex="64">
<title>
v:64
</title>
</circle>
<circle cx="103" cy="27" i="65" r="0.5" tabindex="65">
<title>
v:65
</title>
</circle>
<circle cx="104" cy="129" i="66" r="0.5" tabindex="66">
<title>
v:66
</title>
</circle>
<circle cx="106" cy="102" i="67" r="0.5" tabindex="67">
<title>
v:67
</title>
</circle>
<circle cx="109" cy="33" i="68" r="0.5" tabindex="68">
<title>
v:68
</title>
</circle>
<circle cx="109" cy="71" i="69" r="0.5" tabindex="69">
<title>
v:69
</title>
</circle>
<circle cx="110" cy="129" i="70" r="0.5" tabindex="70">
<title>
v:70
</title>
</circle>
<circle cx="111" cy="93" i="71" r="0.5" tabindex="71">
<title>
v:71
</title>
</circle>
<circle cx="112" cy="83" i="72" r="0.5" tabindex="72">
<title>
v:72
</title>
</circle>
<circle cx="114" cy="108" i="73" r="0.5" tabindex="73">
<title>
v:73
</title>
</circle>
<circle cx="115" cy="47" i="74" r="0.5" tabindex="74">
<title>
v:74
</title>
</circle>
<circle cx="117" cy="160" i="75" r="0.5" tabindex="75">
<title>
v:75
</title>
</circle>
<circle cx="118" cy="144" i="76" r="0.5" tabindex="76">
<title>
v:76
</title>
</circle>
<circle cx="119" cy="53" i="77" r="0.5" tabindex="77">
<title>
v:77
</title>
</circle>
<circle cx="121" cy="26" i="78" r="0.5" tabindex="78">
<title>
v:78
</title>
</circle>
<circle cx="121" cy="142" i="79" r="0.5" tabindex="79">
<title>
v:79
</title>
</circle>
<circle cx="123" cy="19" i="80" r="0.5" tabindex="80">
<title>
v:80
</title>
</circle>
<circle cx="124" cy="107" i="81" r="0.5" tabindex="81">
<title>
v:81
</title>
</circle>
<circle cx="128" cy="105" i="82" r="0.5" tabindex="82">
<title>
v:82
</title>
</circle>
<circle cx="129" cy="30" i="83" r="0.5" tabindex="83">
<title>
v:83
</title>
</circle>
<circle cx="130" cy="93" i="84" r="0.5" tabindex="84">
<title>
v:84
</title>
</circle>
<circle cx="131" cy="51" i="85" r="0.5" tabindex="85">
<title>
v:85
</title>
</circle>
<circle cx="132" cy="42" i="86" r="0.5" tabindex="86">
<title>
v:86
</title>
</circle>
<circle cx="132" cy="96" i="87" r="0.5" tabindex="87">
<title>
v:87
</title>
</circle>
<circle cx="132" cy="104" i="88" r="0.5" tabindex="88">
<title>
v:88
</title>
</circle>
<circle cx="133" cy="45" i="89" r="0.5" tabindex="89">
<title>
v:89
</title>
</circle>
<circle cx="135" cy="28" i="90" r="0.5" tabindex="90">
<title>
v:90
</title>
</circle>
<circle cx="135" cy="75" i="91" r="0.5" tabindex="91">
<title>
v:91
</title>
</circle>
<circle cx="136" cy="39" i="92" r="0.5" tabindex="92">
<title>
v:92
</title>
</circle>
<circle cx="138" cy="67" i="93" r="0.5" tabindex="93">
<title>
v:93
</title>
</circle>
<circle cx="139" cy="34" i="94" r="0.5" tabindex="94">
<title>
v:94
</title>
</circle>
<circle cx="139" cy="95" i="95" r="0.5" tabindex="95">
<title>
v:95
</title>
</circle>
<circle cx="141" cy="103" i="96" r="0.5" tabindex="96">
<title>
v:96
</title>
</circle>
<circle cx="142" cy="93" i="97" r="0.5" tabindex="97">
<title>
v:97
</title>
</circle>
<circle cx="143" cy="109" i="98" r="0.5" tabindex="98">
<title>
v:98
</title>
</circle>
<circle cx="143" cy="114" i="99" r="0.5" tabindex="99">
<title>
v:99
</title>
</circle>
<circle cx="144" cy="42" i="100" r="0.5" tabindex="100">
<title>
v:100
</title>
</circle>
<circle cx="145" cy="45" i="101" r="0.5" tabindex="101">
<title>
v:101
</title>
</circle>
<circle cx="145" cy="62" i="102" r="0.5" tabindex="102">
<title>
v:102
</title>
</circle>
<circle cx="147" cy="58" i="103" r="0.5" tabindex="103">
<title>
v:103
</title>
</circle>
<circle cx="148" cy="31" i="104" r="0.5" tabindex="104">
<title>
v:104
</title>
</circle>
<circle cx="148" cy="84" i="105" r="0.5" tabindex="105">
<title>
v:105
</title>
</circle>
<circle cx="150" cy="101" i="106" r="0.5" tabindex="106">
<title>
v:106
</title>
</circle>
<circle cx="152" cy="27" i="107" r="0.5" tabindex="107">
<title>
v:107
</title>
</circle>
<circle cx="155" cy="81" i="108" r="0.5" tabindex="108">
<title>
v:108
</title>
</circle>
<circle cx="156" cy="104" i="109" r="0.5" tabindex="109">
<title>
v:109
</title>
</circle>
<circle cx="157" cy="56" i="110" r="0.5" tabindex="110">
<title>
v:110
</title>
</circle>
<circle cx="159" cy="59" i="111" r="0.5" tabindex="111">
<title>
v:111
</title>
</circle>
<circle cx="161" cy="46" i="112" r="0.5" tabindex="112">
<title>
v:112
</title>
</circle>
</g>
</svg>