<svg height="500" viewBox="0 0 170 174" width="500" xmlns="http://www.w3.org/2000/svg">
<polygon fill="grey" points="71,26 37,28 41,71 67,71 63,129 51,127 36,114 18,91 5,129 24,153 53,171 87,174 134,171 163,146 170,120 149,91 142,115 128,131 106,133 108,72 137,70 133,25 107,26 106,4 64,5 "/>
<path d="M33 46L40 46M40 46L44 54M44 54L33 62M33 62L19 54M19 54L27 34M27 34L50 33M50 33L76 64M76 64L66 77M66 77L47 38M47 38L29 38M29 38L24 53M24 53L33 58M33 58L41 54M41 54L39 48M39 48L33 46M39 48L40 46M44 54L41 54M33 58L33 62M24 53L19 54M47 38L50 33M27 34L29 38M38 73L68 60M68 60L73 48M73 48L64 38M64 38L53 42M53 42L63 41M63 41L69 48M69 48L64 57M64 57L41 61M41 61L38 73M38 73L60 95M60 95L62 82M64 57L68 60M69 48L73 48M63 41L64 38M66 77L62 82M78 63L80 40M80 40L85 29M85 29L66 10M66 10L53 17M53 17L58 30M58 30L67 28M67 28L66 23M66 23L59 23M59 23L68 21M68 21L70 30M70 30L55 33M55 33L49 16M49 16L68 5M68 5L94 29M94 29L88 43M88 43L86 58M66 23L68 21M67 28L70 30M58 30L55 33M49 16L53 17M66 10L68 5M85 29L94 29M80 40L88 43M78 63L76 64M86 58L101 27M101 27L121 19M121 19L133 28M133 28L134 39M134 39L142 42M142 42L146 31M146 31L137 34M137 34L150 27M150 27L143 45M143 45L130 42M130 42L127 30M127 30L119 26M119 26L107 33M107 33L95 63M101 27L107 33M119 26L121 19M127 30L133 28M134 39L130 42M142 42L143 45M146 31L150 27M95 63L99 64M99 64L113 47M113 47L131 45M131 45L145 58M145 58L155 56M155 56L159 46M159 46L157 59M157 59L143 62M143 62L129 51M129 51L117 53M117 53L107 71M99 64L107 71M117 53L113 47M129 51L131 45M145 58L143 62M155 56L157 59M110 83L133 75M133 75L146 84M146 84L148 101M148 101L141 109M141 109L130 104M130 104L130 96M130 96L137 95M137 95L139 103M139 103L140 93M140 93L128 93M128 93L126 105M126 105L141 114M141 114L154 104M154 104L153 81M153 81L136 67M136 67L107 71M107 71L110 83M133 75L136 67M146 84L153 81M154 104L148 101M141 109L141 114M126 105L130 104M130 96L128 93M137 95L140 93M110 83L109 93M109 93L122 107M122 107L108 129M108 129L119 142M119 142L115 160M115 160L116 144M116 144L102 129M102 129L112 108M112 108L104 102M109 93L104 102M122 107L112 108M108 129L102 129M119 142L116 144M104 102L95 115M95 115L87 120M87 120L76 114M76 114L71 103M71 103L60 95M41 61L62 82M71 103L56 124M56 124L60 140M60 140L71 140M71 140L73 126M73 126L87 124M87 124L92 132M92 132L89 144M89 144L88 132M88 132L85 128M85 128L77 130M77 130L74 143M74 143L57 145M57 145L48 119M48 119L60 95M88 132L92 132M85 128L87 124M77 130L73 126M71 140L74 143M57 145L60 140M56 124L48 119M71 103L76 83M76 83L78 63M76 83L88 76M88 76L99 85M99 85L95 63M78 63L86 58M86 58L95 63M99 85L104 102" stroke="red"/>
</svg>