<svg height="500" viewBox="-2 -2 213 213" width="500" xmlns="http://www.w3.org/2000/svg">
<path class="hole" d="M89 51L0 45L18 91L60 80L90 82L122 104L84 143L45 120L13 124L4 164L0 209L32 190L65 171L71 209L107 209L119 178L123 148L153 138L163 178L169 209L209 208L206 169L209 118L170 102L157 41L209 73L209 13L175 6L136 2L105 8L11 0M-2 -2L211 -2L211 211L-2 211" style="fill:#00000066;fill-rule:evenodd;stroke:none;"/>
<circle cx="0" cy="209" r="5" style="fill:#ffff0066;stroke:none;"/>
<path class="ok" d="M46 151L46 166M46 151L66 151M46 166L51 166M51 166L66 151M61 66L106 46M66 151L81 166M66 151L96 151M81 166L96 166M96 141L101 126M96 151L96 166M96 151L116 151M101 126L111 126M106 46L151 66M111 126L116 141M116 91L131 91M116 141L131 141M116 151L116 166M131 91L131 106M131 91L151 66M131 91L166 96M131 141L136 126M136 126L146 126M146 126L156 141M151 66L166 96M161 166L166 166M166 96L166 151M166 151L166 166" style="fill:none;stroke:#0000ff;stroke-linecap:round"/>
<path class="out" d="M46 96L46 151M46 96L61 66M46 96L81 91M56 141L66 126M61 66L81 91M66 126L76 126M76 126L81 141M81 91L81 106M81 91L96 91M81 106L96 106M81 141L96 141M96 91L96 106M96 106L101 126M111 126L116 106M116 91L116 106M116 106L131 106M116 151L146 151M116 166L131 166M131 166L146 151M146 151L161 166M146 151L166 151" style="fill:none;stroke:#ff0000;stroke-linecap:round"/>
</svg>