<svg height="500" viewBox="4 4 94 94" width="500" xmlns="http://www.w3.org/2000/svg">
<path class="hole" d="M79 48L92 19L61 27L38 6L36 37L9 53L38 65L44 96L64 72L96 75M4 4L98 4L98 98L4 98" style="fill:#00000066;fill-rule:evenodd;"/>
<circle cx="92" cy="19" r="5" style="fill:#ffff0066;" title="BreakALeg"/>
<circle cx="57" cy="45" r="5" style="fill:#ffff0066;" title="WallHack"/>
<path class="ok" d="M15 50L20 50M33 57L50 74M50 74L50 79M50 74L65 69M50 74L67 57M65 69L67 57" style="stroke:#0000ff;stroke-linecap:round"/>
<path class="out" d="M6 64L15 50M6 64L20 50M15 50L39 84M20 50L50 79M33 57L36 69M33 57L50 16M36 69L39 84M36 69L50 74M39 84L50 79M50 16L50 74M50 16L67 57M50 79L62 84M50 79L95 37M62 84L65 69M62 84L95 37" style="stroke:#ff0000;stroke-linecap:round"/>
<g fill="#333333">
<circle cx="79" cy="48" r="0.5" tabindex="0">
<title>
hole:0
</title>
</circle>
<circle cx="92" cy="19" r="0.5" tabindex="1">
<title>
hole:1
</title>
</circle>
<circle cx="61" cy="27" r="0.5" tabindex="2">
<title>
hole:2
</title>
</circle>
<circle cx="38" cy="6" r="0.5" tabindex="3">
<title>
hole:3
</title>
</circle>
<circle cx="36" cy="37" r="0.5" tabindex="4">
<title>
hole:4
</title>
</circle>
<circle cx="9" cy="53" r="0.5" tabindex="5">
<title>
hole:5
</title>
</circle>
<circle cx="38" cy="65" r="0.5" tabindex="6">
<title>
hole:6
</title>
</circle>
<circle cx="44" cy="96" r="0.5" tabindex="7">
<title>
hole:7
</title>
</circle>
<circle cx="64" cy="72" r="0.5" tabindex="8">
<title>
hole:8
</title>
</circle>
<circle cx="96" cy="75" r="0.5" tabindex="9">
<title>
hole:9
</title>
</circle>
</g>
<g fill="#999999">
<circle cx="6" cy="64" r="0.5" tabindex="10">
<title>
v:0
</title>
</circle>
<circle cx="15" cy="50" r="0.5" tabindex="11">
<title>
v:1
</title>
</circle>
<circle cx="20" cy="50" r="0.5" tabindex="12">
<title>
v:2
</title>
</circle>
<circle cx="33" cy="57" r="0.5" tabindex="13">
<title>
v:3
</title>
</circle>
<circle cx="36" cy="69" r="0.5" tabindex="14">
<title>
v:4
</title>
</circle>
<circle cx="39" cy="84" r="0.5" tabindex="15">
<title>
v:5
</title>
</circle>
<circle cx="50" cy="16" r="0.5" tabindex="16">
<title>
v:6
</title>
</circle>
<circle cx="50" cy="74" r="0.5" tabindex="17">
<title>
v:7
</title>
</circle>
<circle cx="50" cy="79" r="0.5" tabindex="18">
<title>
v:8
</title>
</circle>
<circle cx="62" cy="84" r="0.5" tabindex="19">
<title>
v:9
</title>
</circle>
<circle cx="65" cy="69" r="0.5" tabindex="20">
<title>
v:10
</title>
</circle>
<circle cx="67" cy="57" r="0.5" tabindex="21">
<title>
v:11
</title>
</circle>
<circle cx="95" cy="37" r="0.5" tabindex="22">
<title>
v:12
</title>
</circle>
</g>
</svg>