<svg height="500" viewBox="-2 -2 281 232" width="500" xmlns="http://www.w3.org/2000/svg">
<path class="hole" d="M0 0L14 11L18 29L35 43L50 56L51 56L71 68L94 83L92 88L73 98L52 89L40 104L13 96L17 122L39 115L62 116L83 117L78 121L108 120L112 118L133 114L148 115L148 131L139 158L148 193L174 163L187 191L219 195L240 222L269 197L241 185L215 164L237 176L223 152L195 140L187 112L201 88L227 98L251 106L229 83L252 98L253 71L277 67L260 54L234 56L207 63L177 63L173 88L151 71L132 57L114 71L95 60L71 46L73 42L52 30L33 22L21 4M-2 -2L279 -2L279 230L-2 230" style="fill:#00000066;fill-rule:evenodd;stroke:none;"/>
<circle cx="195" cy="171" r="5" style="fill:#ffff0066;stroke:none;"/>
<path class="ok" d="M70 99L92 92M79 55L96 79M92 92L106 111M96 79L121 75M106 111L116 99M116 99L121 75M116 99L140 109M140 109L157 90M157 90L189 96M163 139L191 132M219 92L228 61" style="fill:none;stroke:#0000ff;stroke-linecap:round"/>
<path class="out" d="M0 167L3 188M0 167L22 168M3 188L21 190M18 148L22 168M18 148L35 131M21 190L22 168M21 190L37 199M22 168L45 168M35 131L56 149M37 199L54 185M45 13L62 0M45 13L62 32M45 168L54 185M45 168L56 149M45 168L64 157M54 185L73 177M62 0L80 16M62 32L79 55M62 32L80 16M64 157L73 177M64 157L91 152M70 99L70 123M70 123L92 130M73 177L96 177M79 55L100 34M79 174L83 193M79 174L101 166M80 16L100 34M80 16L105 7M82 221L83 193M82 221L108 228M83 193L107 186M91 152L92 130M91 152L96 177M91 152L114 156M92 130L106 111M92 130L115 129M94 146L101 166M94 146L115 129M96 177L114 156M100 34L105 7M100 34L116 7M100 34L125 47M101 166L107 186M101 166L122 171M106 111L115 129M107 186L117 207M107 186L122 171M108 228L117 207M114 156L115 129M114 156L137 161M115 129L134 145M115 129L139 124M115 129L141 118M116 7L136 22M121 75L125 47M121 75L147 64M122 171L134 145M125 47L136 22M125 47L147 64M134 145L139 124M137 161L155 144M139 124L140 109M141 118L155 144M144 117L157 90M144 117L163 139M147 64L157 90M147 64L176 68M157 90L176 68M159 43L176 68M159 43L183 28M176 68L189 96M176 68L199 48M183 28L199 48M189 96L191 132M189 96L219 92M189 96L223 116M191 132L223 116M199 48L204 15M199 48L228 61M204 15L233 5M228 61L253 38M233 5L253 38" style="fill:none;stroke:#ff0000;stroke-linecap:round"/>
</svg>