<svg height="500" viewBox="0 -2 281 232" width="500" xmlns="http://www.w3.org/2000/svg">
<path class="hole" d="M2 0L16 11L20 29L37 43L52 56L53 56L73 68L96 83L94 88L75 98L54 89L42 104L15 96L19 122L41 115L64 116L85 117L80 121L110 120L114 118L135 114L150 115L150 131L141 158L150 193L176 163L189 191L221 195L242 222L271 197L243 185L217 164L239 176L225 152L197 140L189 112L203 88L229 98L253 106L231 83L254 98L255 71L279 67L262 54L236 56L209 63L179 63L175 88L153 71L134 57L116 71L97 60L73 46L75 42L54 30L35 22L23 4M0 -2L281 -2L281 230L0 230" style="fill:#00000066;fill-rule:evenodd;"/>
<circle cx="197" cy="171" fill="#ffff0066" r="5">
<title>
Globalist@13
</title>
</circle>
<circle cx="158" cy="174" fill="#ffff0066" r="5">
<title>
WallHack@93
</title>
</circle>
<circle cx="251" cy="204" fill="#ffff0066" r="5">
<title>
SuperFlex@112
</title>
</circle>
<path class="ok" d="M72 99L94 92M81 55L98 79M94 92L108 111M98 79L123 75M108 111L118 99M118 99L123 75M118 99L142 109M142 109L159 90M159 90L191 96M165 139L193 132M221 92L230 61" style="stroke:#0000ff;stroke-linecap:round"/>
<path class="out" d="M2 167L5 188M2 167L24 168M5 188L23 190M20 148L24 168M20 148L37 131M23 190L24 168M23 190L39 199M24 168L47 168M37 131L58 149M39 199L56 185M47 13L64 0M47 13L64 32M47 168L56 185M47 168L58 149M47 168L66 157M56 185L75 177M64 0L82 16M64 32L81 55M64 32L82 16M66 157L75 177M66 157L93 152M72 99L72 123M72 123L94 130M75 177L98 177M81 55L102 34M81 174L85 193M81 174L103 166M82 16L102 34M82 16L107 7M84 221L85 193M84 221L110 228M85 193L109 186M93 152L94 130M93 152L98 177M93 152L116 156M94 130L108 111M94 130L117 129M96 146L103 166M96 146L117 129M98 177L116 156M102 34L107 7M102 34L118 7M102 34L127 47M103 166L109 186M103 166L124 171M108 111L117 129M109 186L119 207M109 186L124 171M110 228L119 207M116 156L117 129M116 156L139 161M117 129L136 145M117 129L141 124M117 129L143 118M118 7L138 22M123 75L127 47M123 75L149 64M124 171L136 145M127 47L138 22M127 47L149 64M136 145L141 124M139 161L157 144M141 124L142 109M143 118L157 144M146 117L159 90M146 117L165 139M149 64L159 90M149 64L178 68M159 90L178 68M161 43L178 68M161 43L185 28M178 68L191 96M178 68L201 48M185 28L201 48M191 96L193 132M191 96L221 92M191 96L225 116M193 132L225 116M201 48L206 15M201 48L230 61M206 15L235 5M230 61L255 38M235 5L255 38" style="stroke:#ff0000;stroke-linecap:round"/>
<g fill="#333333">
<circle cx="2" cy="0" r="0.5">
<title>
hole:0
</title>
</circle>
<circle cx="16" cy="11" r="0.5">
<title>
hole:1
</title>
</circle>
<circle cx="20" cy="29" r="0.5">
<title>
hole:2
</title>
</circle>
<circle cx="37" cy="43" r="0.5">
<title>
hole:3
</title>
</circle>
<circle cx="52" cy="56" r="0.5">
<title>
hole:4
</title>
</circle>
<circle cx="53" cy="56" r="0.5">
<title>
hole:5
</title>
</circle>
<circle cx="73" cy="68" r="0.5">
<title>
hole:6
</title>
</circle>
<circle cx="96" cy="83" r="0.5">
<title>
hole:7
</title>
</circle>
<circle cx="94" cy="88" r="0.5">
<title>
hole:8
</title>
</circle>
<circle cx="75" cy="98" r="0.5">
<title>
hole:9
</title>
</circle>
<circle cx="54" cy="89" r="0.5">
<title>
hole:10
</title>
</circle>
<circle cx="42" cy="104" r="0.5">
<title>
hole:11
</title>
</circle>
<circle cx="15" cy="96" r="0.5">
<title>
hole:12
</title>
</circle>
<circle cx="19" cy="122" r="0.5">
<title>
hole:13
</title>
</circle>
<circle cx="41" cy="115" r="0.5">
<title>
hole:14
</title>
</circle>
<circle cx="64" cy="116" r="0.5">
<title>
hole:15
</title>
</circle>
<circle cx="85" cy="117" r="0.5">
<title>
hole:16
</title>
</circle>
<circle cx="80" cy="121" r="0.5">
<title>
hole:17
</title>
</circle>
<circle cx="110" cy="120" r="0.5">
<title>
hole:18
</title>
</circle>
<circle cx="114" cy="118" r="0.5">
<title>
hole:19
</title>
</circle>
<circle cx="135" cy="114" r="0.5">
<title>
hole:20
</title>
</circle>
<circle cx="150" cy="115" r="0.5">
<title>
hole:21
</title>
</circle>
<circle cx="150" cy="131" r="0.5">
<title>
hole:22
</title>
</circle>
<circle cx="141" cy="158" r="0.5">
<title>
hole:23
</title>
</circle>
<circle cx="150" cy="193" r="0.5">
<title>
hole:24
</title>
</circle>
<circle cx="176" cy="163" r="0.5">
<title>
hole:25
</title>
</circle>
<circle cx="189" cy="191" r="0.5">
<title>
hole:26
</title>
</circle>
<circle cx="221" cy="195" r="0.5">
<title>
hole:27
</title>
</circle>
<circle cx="242" cy="222" r="0.5">
<title>
hole:28
</title>
</circle>
<circle cx="271" cy="197" r="0.5">
<title>
hole:29
</title>
</circle>
<circle cx="243" cy="185" r="0.5">
<title>
hole:30
</title>
</circle>
<circle cx="217" cy="164" r="0.5">
<title>
hole:31
</title>
</circle>
<circle cx="239" cy="176" r="0.5">
<title>
hole:32
</title>
</circle>
<circle cx="225" cy="152" r="0.5">
<title>
hole:33
</title>
</circle>
<circle cx="197" cy="140" r="0.5">
<title>
hole:34
</title>
</circle>
<circle cx="189" cy="112" r="0.5">
<title>
hole:35
</title>
</circle>
<circle cx="203" cy="88" r="0.5">
<title>
hole:36
</title>
</circle>
<circle cx="229" cy="98" r="0.5">
<title>
hole:37
</title>
</circle>
<circle cx="253" cy="106" r="0.5">
<title>
hole:38
</title>
</circle>
<circle cx="231" cy="83" r="0.5">
<title>
hole:39
</title>
</circle>
<circle cx="254" cy="98" r="0.5">
<title>
hole:40
</title>
</circle>
<circle cx="255" cy="71" r="0.5">
<title>
hole:41
</title>
</circle>
<circle cx="279" cy="67" r="0.5">
<title>
hole:42
</title>
</circle>
<circle cx="262" cy="54" r="0.5">
<title>
hole:43
</title>
</circle>
<circle cx="236" cy="56" r="0.5">
<title>
hole:44
</title>
</circle>
<circle cx="209" cy="63" r="0.5">
<title>
hole:45
</title>
</circle>
<circle cx="179" cy="63" r="0.5">
<title>
hole:46
</title>
</circle>
<circle cx="175" cy="88" r="0.5">
<title>
hole:47
</title>
</circle>
<circle cx="153" cy="71" r="0.5">
<title>
hole:48
</title>
</circle>
<circle cx="134" cy="57" r="0.5">
<title>
hole:49
</title>
</circle>
<circle cx="116" cy="71" r="0.5">
<title>
hole:50
</title>
</circle>
<circle cx="97" cy="60" r="0.5">
<title>
hole:51
</title>
</circle>
<circle cx="73" cy="46" r="0.5">
<title>
hole:52
</title>
</circle>
<circle cx="75" cy="42" r="0.5">
<title>
hole:53
</title>
</circle>
<circle cx="54" cy="30" r="0.5">
<title>
hole:54
</title>
</circle>
<circle cx="35" cy="22" r="0.5">
<title>
hole:55
</title>
</circle>
<circle cx="23" cy="4" r="0.5">
<title>
hole:56
</title>
</circle>
</g>
<g fill="#999999">
<circle cx="2" cy="167" i="0" r="0.5" tabindex="0">
<title>
v:0
</title>
</circle>
<circle cx="5" cy="188" i="1" r="0.5" tabindex="1">
<title>
v:1
</title>
</circle>
<circle cx="20" cy="148" i="2" r="0.5" tabindex="2">
<title>
v:2
</title>
</circle>
<circle cx="23" cy="190" i="3" r="0.5" tabindex="3">
<title>
v:3
</title>
</circle>
<circle cx="24" cy="168" i="4" r="0.5" tabindex="4">
<title>
v:4
</title>
</circle>
<circle cx="37" cy="131" i="5" r="0.5" tabindex="5">
<title>
v:5
</title>
</circle>
<circle cx="39" cy="199" i="6" r="0.5" tabindex="6">
<title>
v:6
</title>
</circle>
<circle cx="47" cy="13" i="7" r="0.5" tabindex="7">
<title>
v:7
</title>
</circle>
<circle cx="47" cy="168" i="8" r="0.5" tabindex="8">
<title>
v:8
</title>
</circle>
<circle cx="56" cy="185" i="9" r="0.5" tabindex="9">
<title>
v:9
</title>
</circle>
<circle cx="58" cy="149" i="10" r="0.5" tabindex="10">
<title>
v:10
</title>
</circle>
<circle cx="64" cy="0" i="11" r="0.5" tabindex="11">
<title>
v:11
</title>
</circle>
<circle cx="64" cy="32" i="12" r="0.5" tabindex="12">
<title>
v:12
</title>
</circle>
<circle cx="66" cy="157" i="13" r="0.5" tabindex="13">
<title>
v:13
</title>
</circle>
<circle cx="72" cy="99" i="14" r="0.5" tabindex="14">
<title>
v:14
</title>
</circle>
<circle cx="72" cy="123" i="15" r="0.5" tabindex="15">
<title>
v:15
</title>
</circle>
<circle cx="75" cy="177" i="16" r="0.5" tabindex="16">
<title>
v:16
</title>
</circle>
<circle cx="81" cy="55" i="17" r="0.5" tabindex="17">
<title>
v:17
</title>
</circle>
<circle cx="81" cy="174" i="18" r="0.5" tabindex="18">
<title>
v:18
</title>
</circle>
<circle cx="82" cy="16" i="19" r="0.5" tabindex="19">
<title>
v:19
</title>
</circle>
<circle cx="84" cy="221" i="20" r="0.5" tabindex="20">
<title>
v:20
</title>
</circle>
<circle cx="85" cy="193" i="21" r="0.5" tabindex="21">
<title>
v:21
</title>
</circle>
<circle cx="93" cy="152" i="22" r="0.5" tabindex="22">
<title>
v:22
</title>
</circle>
<circle cx="94" cy="92" i="23" r="0.5" tabindex="23">
<title>
v:23
</title>
</circle>
<circle cx="94" cy="130" i="24" r="0.5" tabindex="24">
<title>
v:24
</title>
</circle>
<circle cx="96" cy="146" i="25" r="0.5" tabindex="25">
<title>
v:25
</title>
</circle>
<circle cx="98" cy="79" i="26" r="0.5" tabindex="26">
<title>
v:26
</title>
</circle>
<circle cx="98" cy="177" i="27" r="0.5" tabindex="27">
<title>
v:27
</title>
</circle>
<circle cx="102" cy="34" i="28" r="0.5" tabindex="28">
<title>
v:28
</title>
</circle>
<circle cx="103" cy="166" i="29" r="0.5" tabindex="29">
<title>
v:29
</title>
</circle>
<circle cx="107" cy="7" i="30" r="0.5" tabindex="30">
<title>
v:30
</title>
</circle>
<circle cx="108" cy="111" i="31" r="0.5" tabindex="31">
<title>
v:31
</title>
</circle>
<circle cx="109" cy="186" i="32" r="0.5" tabindex="32">
<title>
v:32
</title>
</circle>
<circle cx="110" cy="228" i="33" r="0.5" tabindex="33">
<title>
v:33
</title>
</circle>
<circle cx="116" cy="156" i="34" r="0.5" tabindex="34">
<title>
v:34
</title>
</circle>
<circle cx="117" cy="129" i="35" r="0.5" tabindex="35">
<title>
v:35
</title>
</circle>
<circle cx="118" cy="7" i="36" r="0.5" tabindex="36">
<title>
v:36
</title>
</circle>
<circle cx="118" cy="99" i="37" r="0.5" tabindex="37">
<title>
v:37
</title>
</circle>
<circle cx="119" cy="207" i="38" r="0.5" tabindex="38">
<title>
v:38
</title>
</circle>
<circle cx="123" cy="75" i="39" r="0.5" tabindex="39">
<title>
v:39
</title>
</circle>
<circle cx="124" cy="171" i="40" r="0.5" tabindex="40">
<title>
v:40
</title>
</circle>
<circle cx="127" cy="47" i="41" r="0.5" tabindex="41">
<title>
v:41
</title>
</circle>
<circle cx="136" cy="145" i="42" r="0.5" tabindex="42">
<title>
v:42
</title>
</circle>
<circle cx="138" cy="22" i="43" r="0.5" tabindex="43">
<title>
v:43
</title>
</circle>
<circle cx="139" cy="161" i="44" r="0.5" tabindex="44">
<title>
v:44
</title>
</circle>
<circle cx="141" cy="124" i="45" r="0.5" tabindex="45">
<title>
v:45
</title>
</circle>
<circle cx="142" cy="109" i="46" r="0.5" tabindex="46">
<title>
v:46
</title>
</circle>
<circle cx="143" cy="118" i="47" r="0.5" tabindex="47">
<title>
v:47
</title>
</circle>
<circle cx="146" cy="117" i="48" r="0.5" tabindex="48">
<title>
v:48
</title>
</circle>
<circle cx="149" cy="64" i="49" r="0.5" tabindex="49">
<title>
v:49
</title>
</circle>
<circle cx="157" cy="144" i="50" r="0.5" tabindex="50">
<title>
v:50
</title>
</circle>
<circle cx="159" cy="90" i="51" r="0.5" tabindex="51">
<title>
v:51
</title>
</circle>
<circle cx="161" cy="43" i="52" r="0.5" tabindex="52">
<title>
v:52
</title>
</circle>
<circle cx="165" cy="139" i="53" r="0.5" tabindex="53">
<title>
v:53
</title>
</circle>
<circle cx="178" cy="68" i="54" r="0.5" tabindex="54">
<title>
v:54
</title>
</circle>
<circle cx="185" cy="28" i="55" r="0.5" tabindex="55">
<title>
v:55
</title>
</circle>
<circle cx="191" cy="96" i="56" r="0.5" tabindex="56">
<title>
v:56
</title>
</circle>
<circle cx="193" cy="132" i="57" r="0.5" tabindex="57">
<title>
v:57
</title>
</circle>
<circle cx="201" cy="48" i="58" r="0.5" tabindex="58">
<title>
v:58
</title>
</circle>
<circle cx="206" cy="15" i="59" r="0.5" tabindex="59">
<title>
v:59
</title>
</circle>
<circle cx="221" cy="92" i="60" r="0.5" tabindex="60">
<title>
v:60
</title>
</circle>
<circle cx="225" cy="116" i="61" r="0.5" tabindex="61">
<title>
v:61
</title>
</circle>
<circle cx="230" cy="61" i="62" r="0.5" tabindex="62">
<title>
v:62
</title>
</circle>
<circle cx="235" cy="5" i="63" r="0.5" tabindex="63">
<title>
v:63
</title>
</circle>
<circle cx="255" cy="38" i="64" r="0.5" tabindex="64">
<title>
v:64
</title>
</circle>
</g>
</svg>