<svg height="500" viewBox="0 -2 179 147" width="500" xmlns="http://www.w3.org/2000/svg">
<path class="hole" d="M2 17L14 28L14 68L54 47L30 65L37 67L39 67L54 73L59 77L63 92L102 66L88 54L101 60L97 47L131 26L118 18L110 0L77 17L72 25L83 7L37 12L47 26M0 -2L179 -2L179 145L0 145" style="fill:#00000066;fill-rule:evenodd;"/>
<circle cx="29" cy="43" fill="#ffff0066" r="5">
<title>
BreakALeg@27
</title>
</circle>
<circle cx="113" cy="36" fill="#ffff0066" r="5">
<title>
WallHack@43
</title>
</circle>
<circle cx="59" cy="12" fill="#ffff0066" r="5">
<title>
SuperFlex@69
</title>
</circle>
<path class="ok" d="M47 67L88 64" style="stroke:#0000ff;stroke-linecap:round"/>
<path class="out" d="M2 53L3 44M2 53L9 50M2 53L25 89M3 44L11 44M9 50L11 44M9 50L53 81M11 44L47 67M22 71L24 62M22 71L32 72M22 71L66 120M24 62L36 64M25 89L86 99M32 72L36 64M32 72L68 100M36 64L64 83M41 102L43 114M41 102L50 99M43 114L53 107M43 114L91 143M50 99L53 107M50 99L93 106M53 81L110 66M53 107L112 117M64 83L105 81M66 120L138 109M68 100L127 86M86 99L126 77M88 64L132 34M91 143L154 123M93 106L129 91M105 81L139 45M110 66L137 36M112 117L150 87M126 77L143 37M127 86L148 44M129 91L152 52M132 34L138 13M137 36L145 16M138 13L145 16M138 13L150 0M138 109L161 68M139 45L145 16M143 37L153 19M145 16L153 19M148 44L153 19M150 0L159 4M150 87L161 47M152 52L153 19M153 19L159 4M153 19L159 21M154 123L177 76M159 4L166 8M159 21L161 47M159 21L165 20M161 68L165 20M165 20L166 8M165 20L169 47M169 47L177 76" style="stroke:#ff0000;stroke-linecap:round"/>
<g fill="#333333">
<circle cx="2" cy="17" r="0.5">
<title>
hole:0
</title>
</circle>
<circle cx="14" cy="28" r="0.5">
<title>
hole:1
</title>
</circle>
<circle cx="14" cy="68" r="0.5">
<title>
hole:2
</title>
</circle>
<circle cx="54" cy="47" r="0.5">
<title>
hole:3
</title>
</circle>
<circle cx="30" cy="65" r="0.5">
<title>
hole:4
</title>
</circle>
<circle cx="37" cy="67" r="0.5">
<title>
hole:5
</title>
</circle>
<circle cx="39" cy="67" r="0.5">
<title>
hole:6
</title>
</circle>
<circle cx="54" cy="73" r="0.5">
<title>
hole:7
</title>
</circle>
<circle cx="59" cy="77" r="0.5">
<title>
hole:8
</title>
</circle>
<circle cx="63" cy="92" r="0.5">
<title>
hole:9
</title>
</circle>
<circle cx="102" cy="66" r="0.5">
<title>
hole:10
</title>
</circle>
<circle cx="88" cy="54" r="0.5">
<title>
hole:11
</title>
</circle>
<circle cx="101" cy="60" r="0.5">
<title>
hole:12
</title>
</circle>
<circle cx="97" cy="47" r="0.5">
<title>
hole:13
</title>
</circle>
<circle cx="131" cy="26" r="0.5">
<title>
hole:14
</title>
</circle>
<circle cx="118" cy="18" r="0.5">
<title>
hole:15
</title>
</circle>
<circle cx="110" cy="0" r="0.5">
<title>
hole:16
</title>
</circle>
<circle cx="77" cy="17" r="0.5">
<title>
hole:17
</title>
</circle>
<circle cx="72" cy="25" r="0.5">
<title>
hole:18
</title>
</circle>
<circle cx="83" cy="7" r="0.5">
<title>
hole:19
</title>
</circle>
<circle cx="37" cy="12" r="0.5">
<title>
hole:20
</title>
</circle>
<circle cx="47" cy="26" r="0.5">
<title>
hole:21
</title>
</circle>
</g>
<g fill="#999999">
<circle cx="2" cy="53" i="0" r="0.5" tabindex="0">
<title>
v:0
</title>
</circle>
<circle cx="3" cy="44" i="1" r="0.5" tabindex="1">
<title>
v:1
</title>
</circle>
<circle cx="9" cy="50" i="2" r="0.5" tabindex="2">
<title>
v:2
</title>
</circle>
<circle cx="11" cy="44" i="3" r="0.5" tabindex="3">
<title>
v:3
</title>
</circle>
<circle cx="22" cy="71" i="4" r="0.5" tabindex="4">
<title>
v:4
</title>
</circle>
<circle cx="24" cy="62" i="5" r="0.5" tabindex="5">
<title>
v:5
</title>
</circle>
<circle cx="25" cy="89" i="6" r="0.5" tabindex="6">
<title>
v:6
</title>
</circle>
<circle cx="32" cy="72" i="7" r="0.5" tabindex="7">
<title>
v:7
</title>
</circle>
<circle cx="36" cy="64" i="8" r="0.5" tabindex="8">
<title>
v:8
</title>
</circle>
<circle cx="41" cy="102" i="9" r="0.5" tabindex="9">
<title>
v:9
</title>
</circle>
<circle cx="43" cy="114" i="10" r="0.5" tabindex="10">
<title>
v:10
</title>
</circle>
<circle cx="47" cy="67" i="11" r="0.5" tabindex="11">
<title>
v:11
</title>
</circle>
<circle cx="50" cy="99" i="12" r="0.5" tabindex="12">
<title>
v:12
</title>
</circle>
<circle cx="53" cy="81" i="13" r="0.5" tabindex="13">
<title>
v:13
</title>
</circle>
<circle cx="53" cy="107" i="14" r="0.5" tabindex="14">
<title>
v:14
</title>
</circle>
<circle cx="64" cy="83" i="15" r="0.5" tabindex="15">
<title>
v:15
</title>
</circle>
<circle cx="66" cy="120" i="16" r="0.5" tabindex="16">
<title>
v:16
</title>
</circle>
<circle cx="68" cy="100" i="17" r="0.5" tabindex="17">
<title>
v:17
</title>
</circle>
<circle cx="86" cy="99" i="18" r="0.5" tabindex="18">
<title>
v:18
</title>
</circle>
<circle cx="88" cy="64" i="19" r="0.5" tabindex="19">
<title>
v:19
</title>
</circle>
<circle cx="91" cy="143" i="20" r="0.5" tabindex="20">
<title>
v:20
</title>
</circle>
<circle cx="93" cy="106" i="21" r="0.5" tabindex="21">
<title>
v:21
</title>
</circle>
<circle cx="105" cy="81" i="22" r="0.5" tabindex="22">
<title>
v:22
</title>
</circle>
<circle cx="110" cy="66" i="23" r="0.5" tabindex="23">
<title>
v:23
</title>
</circle>
<circle cx="112" cy="117" i="24" r="0.5" tabindex="24">
<title>
v:24
</title>
</circle>
<circle cx="126" cy="77" i="25" r="0.5" tabindex="25">
<title>
v:25
</title>
</circle>
<circle cx="127" cy="86" i="26" r="0.5" tabindex="26">
<title>
v:26
</title>
</circle>
<circle cx="129" cy="91" i="27" r="0.5" tabindex="27">
<title>
v:27
</title>
</circle>
<circle cx="132" cy="34" i="28" r="0.5" tabindex="28">
<title>
v:28
</title>
</circle>
<circle cx="137" cy="36" i="29" r="0.5" tabindex="29">
<title>
v:29
</title>
</circle>
<circle cx="138" cy="13" i="30" r="0.5" tabindex="30">
<title>
v:30
</title>
</circle>
<circle cx="138" cy="109" i="31" r="0.5" tabindex="31">
<title>
v:31
</title>
</circle>
<circle cx="139" cy="45" i="32" r="0.5" tabindex="32">
<title>
v:32
</title>
</circle>
<circle cx="143" cy="37" i="33" r="0.5" tabindex="33">
<title>
v:33
</title>
</circle>
<circle cx="145" cy="16" i="34" r="0.5" tabindex="34">
<title>
v:34
</title>
</circle>
<circle cx="148" cy="44" i="35" r="0.5" tabindex="35">
<title>
v:35
</title>
</circle>
<circle cx="150" cy="0" i="36" r="0.5" tabindex="36">
<title>
v:36
</title>
</circle>
<circle cx="150" cy="87" i="37" r="0.5" tabindex="37">
<title>
v:37
</title>
</circle>
<circle cx="152" cy="52" i="38" r="0.5" tabindex="38">
<title>
v:38
</title>
</circle>
<circle cx="153" cy="19" i="39" r="0.5" tabindex="39">
<title>
v:39
</title>
</circle>
<circle cx="154" cy="123" i="40" r="0.5" tabindex="40">
<title>
v:40
</title>
</circle>
<circle cx="159" cy="4" i="41" r="0.5" tabindex="41">
<title>
v:41
</title>
</circle>
<circle cx="159" cy="21" i="42" r="0.5" tabindex="42">
<title>
v:42
</title>
</circle>
<circle cx="161" cy="47" i="43" r="0.5" tabindex="43">
<title>
v:43
</title>
</circle>
<circle cx="161" cy="68" i="44" r="0.5" tabindex="44">
<title>
v:44
</title>
</circle>
<circle cx="165" cy="20" i="45" r="0.5" tabindex="45">
<title>
v:45
</title>
</circle>
<circle cx="166" cy="8" i="46" r="0.5" tabindex="46">
<title>
v:46
</title>
</circle>
<circle cx="169" cy="47" i="47" r="0.5" tabindex="47">
<title>
v:47
</title>
</circle>
<circle cx="177" cy="76" i="48" r="0.5" tabindex="48">
<title>
v:48
</title>
</circle>
</g>
</svg>