<svg height="500" viewBox="-2 -2 179 147" width="500" xmlns="http://www.w3.org/2000/svg">
<path class="hole" d="M2 17L14 28L14 68L54 47L30 65L37 67L39 67L54 73L59 77L63 92L102 66L88 54L101 60L97 47L131 26L118 18L110 0L77 17L72 25L83 7L37 12L47 26M-2 -2L177 -2L177 145L-2 145" style="fill:#00000066;fill-rule:evenodd;"/>
<circle cx="29" cy="43" r="5" style="fill:#ffff0066;" title="BreakALeg"/>
<circle cx="113" cy="36" r="5" style="fill:#ffff0066;" title="WallHack"/>
<path class="ok" d="M45 67L86 64" style="stroke:#0000ff;stroke-linecap:round"/>
<path class="out" d="M0 53L1 44M0 53L7 50M0 53L23 89M1 44L9 44M7 50L9 44M7 50L51 81M9 44L45 67M20 71L22 62M20 71L30 72M20 71L64 120M22 62L34 64M23 89L84 99M30 72L34 64M30 72L66 100M34 64L62 83M39 102L41 114M39 102L48 99M41 114L51 107M41 114L89 143M48 99L51 107M48 99L91 106M51 81L108 66M51 107L110 117M62 83L103 81M64 120L136 109M66 100L125 86M84 99L124 77M86 64L130 34M89 143L152 123M91 106L127 91M103 81L137 45M108 66L135 36M110 117L148 87M124 77L141 37M125 86L146 44M127 91L150 52M130 34L136 13M135 36L143 16M136 13L143 16M136 13L148 0M136 109L159 68M137 45L143 16M141 37L151 19M143 16L151 19M146 44L151 19M148 0L157 4M148 87L159 47M150 52L151 19M151 19L157 4M151 19L157 21M152 123L175 76M157 4L164 8M157 21L159 47M157 21L163 20M159 68L163 20M163 20L164 8M163 20L167 47M167 47L175 76" style="stroke:#ff0000;stroke-linecap:round"/>
<g fill="#333333">
<circle cx="2" cy="17" r="0.5" tabindex="0">
<title>
hole:0
</title>
</circle>
<circle cx="14" cy="28" r="0.5" tabindex="1">
<title>
hole:1
</title>
</circle>
<circle cx="14" cy="68" r="0.5" tabindex="2">
<title>
hole:2
</title>
</circle>
<circle cx="54" cy="47" r="0.5" tabindex="3">
<title>
hole:3
</title>
</circle>
<circle cx="30" cy="65" r="0.5" tabindex="4">
<title>
hole:4
</title>
</circle>
<circle cx="37" cy="67" r="0.5" tabindex="5">
<title>
hole:5
</title>
</circle>
<circle cx="39" cy="67" r="0.5" tabindex="6">
<title>
hole:6
</title>
</circle>
<circle cx="54" cy="73" r="0.5" tabindex="7">
<title>
hole:7
</title>
</circle>
<circle cx="59" cy="77" r="0.5" tabindex="8">
<title>
hole:8
</title>
</circle>
<circle cx="63" cy="92" r="0.5" tabindex="9">
<title>
hole:9
</title>
</circle>
<circle cx="102" cy="66" r="0.5" tabindex="10">
<title>
hole:10
</title>
</circle>
<circle cx="88" cy="54" r="0.5" tabindex="11">
<title>
hole:11
</title>
</circle>
<circle cx="101" cy="60" r="0.5" tabindex="12">
<title>
hole:12
</title>
</circle>
<circle cx="97" cy="47" r="0.5" tabindex="13">
<title>
hole:13
</title>
</circle>
<circle cx="131" cy="26" r="0.5" tabindex="14">
<title>
hole:14
</title>
</circle>
<circle cx="118" cy="18" r="0.5" tabindex="15">
<title>
hole:15
</title>
</circle>
<circle cx="110" cy="0" r="0.5" tabindex="16">
<title>
hole:16
</title>
</circle>
<circle cx="77" cy="17" r="0.5" tabindex="17">
<title>
hole:17
</title>
</circle>
<circle cx="72" cy="25" r="0.5" tabindex="18">
<title>
hole:18
</title>
</circle>
<circle cx="83" cy="7" r="0.5" tabindex="19">
<title>
hole:19
</title>
</circle>
<circle cx="37" cy="12" r="0.5" tabindex="20">
<title>
hole:20
</title>
</circle>
<circle cx="47" cy="26" r="0.5" tabindex="21">
<title>
hole:21
</title>
</circle>
</g>
<g fill="#999999">
<circle cx="0" cy="53" r="0.5" tabindex="22">
<title>
v:0
</title>
</circle>
<circle cx="1" cy="44" r="0.5" tabindex="23">
<title>
v:1
</title>
</circle>
<circle cx="7" cy="50" r="0.5" tabindex="24">
<title>
v:2
</title>
</circle>
<circle cx="9" cy="44" r="0.5" tabindex="25">
<title>
v:3
</title>
</circle>
<circle cx="20" cy="71" r="0.5" tabindex="26">
<title>
v:4
</title>
</circle>
<circle cx="22" cy="62" r="0.5" tabindex="27">
<title>
v:5
</title>
</circle>
<circle cx="23" cy="89" r="0.5" tabindex="28">
<title>
v:6
</title>
</circle>
<circle cx="30" cy="72" r="0.5" tabindex="29">
<title>
v:7
</title>
</circle>
<circle cx="34" cy="64" r="0.5" tabindex="30">
<title>
v:8
</title>
</circle>
<circle cx="39" cy="102" r="0.5" tabindex="31">
<title>
v:9
</title>
</circle>
<circle cx="41" cy="114" r="0.5" tabindex="32">
<title>
v:10
</title>
</circle>
<circle cx="45" cy="67" r="0.5" tabindex="33">
<title>
v:11
</title>
</circle>
<circle cx="48" cy="99" r="0.5" tabindex="34">
<title>
v:12
</title>
</circle>
<circle cx="51" cy="81" r="0.5" tabindex="35">
<title>
v:13
</title>
</circle>
<circle cx="51" cy="107" r="0.5" tabindex="36">
<title>
v:14
</title>
</circle>
<circle cx="62" cy="83" r="0.5" tabindex="37">
<title>
v:15
</title>
</circle>
<circle cx="64" cy="120" r="0.5" tabindex="38">
<title>
v:16
</title>
</circle>
<circle cx="66" cy="100" r="0.5" tabindex="39">
<title>
v:17
</title>
</circle>
<circle cx="84" cy="99" r="0.5" tabindex="40">
<title>
v:18
</title>
</circle>
<circle cx="86" cy="64" r="0.5" tabindex="41">
<title>
v:19
</title>
</circle>
<circle cx="89" cy="143" r="0.5" tabindex="42">
<title>
v:20
</title>
</circle>
<circle cx="91" cy="106" r="0.5" tabindex="43">
<title>
v:21
</title>
</circle>
<circle cx="103" cy="81" r="0.5" tabindex="44">
<title>
v:22
</title>
</circle>
<circle cx="108" cy="66" r="0.5" tabindex="45">
<title>
v:23
</title>
</circle>
<circle cx="110" cy="117" r="0.5" tabindex="46">
<title>
v:24
</title>
</circle>
<circle cx="124" cy="77" r="0.5" tabindex="47">
<title>
v:25
</title>
</circle>
<circle cx="125" cy="86" r="0.5" tabindex="48">
<title>
v:26
</title>
</circle>
<circle cx="127" cy="91" r="0.5" tabindex="49">
<title>
v:27
</title>
</circle>
<circle cx="130" cy="34" r="0.5" tabindex="50">
<title>
v:28
</title>
</circle>
<circle cx="135" cy="36" r="0.5" tabindex="51">
<title>
v:29
</title>
</circle>
<circle cx="136" cy="13" r="0.5" tabindex="52">
<title>
v:30
</title>
</circle>
<circle cx="136" cy="109" r="0.5" tabindex="53">
<title>
v:31
</title>
</circle>
<circle cx="137" cy="45" r="0.5" tabindex="54">
<title>
v:32
</title>
</circle>
<circle cx="141" cy="37" r="0.5" tabindex="55">
<title>
v:33
</title>
</circle>
<circle cx="143" cy="16" r="0.5" tabindex="56">
<title>
v:34
</title>
</circle>
<circle cx="146" cy="44" r="0.5" tabindex="57">
<title>
v:35
</title>
</circle>
<circle cx="148" cy="0" r="0.5" tabindex="58">
<title>
v:36
</title>
</circle>
<circle cx="148" cy="87" r="0.5" tabindex="59">
<title>
v:37
</title>
</circle>
<circle cx="150" cy="52" r="0.5" tabindex="60">
<title>
v:38
</title>
</circle>
<circle cx="151" cy="19" r="0.5" tabindex="61">
<title>
v:39
</title>
</circle>
<circle cx="152" cy="123" r="0.5" tabindex="62">
<title>
v:40
</title>
</circle>
<circle cx="157" cy="4" r="0.5" tabindex="63">
<title>
v:41
</title>
</circle>
<circle cx="157" cy="21" r="0.5" tabindex="64">
<title>
v:42
</title>
</circle>
<circle cx="159" cy="47" r="0.5" tabindex="65">
<title>
v:43
</title>
</circle>
<circle cx="159" cy="68" r="0.5" tabindex="66">
<title>
v:44
</title>
</circle>
<circle cx="163" cy="20" r="0.5" tabindex="67">
<title>
v:45
</title>
</circle>
<circle cx="164" cy="8" r="0.5" tabindex="68">
<title>
v:46
</title>
</circle>
<circle cx="167" cy="47" r="0.5" tabindex="69">
<title>
v:47
</title>
</circle>
<circle cx="175" cy="76" r="0.5" tabindex="70">
<title>
v:48
</title>
</circle>
</g>
</svg>