<svg height="500" viewBox="-2 -2 179 147" width="500" xmlns="http://www.w3.org/2000/svg">
<path class="hole" d="M0 17L12 28L12 68L52 47L28 65L35 67L37 67L52 73L57 77L61 92L100 66L86 54L99 60L95 47L129 26L116 18L108 0L75 17L70 25L81 7L35 12L45 26M-2 -2L177 -2L177 145L-2 145" style="fill:#00000066;fill-rule:evenodd;stroke:none;"/>
<circle cx="27" cy="43" r="5" style="fill:#ffff0066;stroke:none;"/>
<path class="ok" d="M45 67L86 64" style="fill:none;stroke:#0000ff;stroke-linecap:round"/>
<path class="out" d="M0 53L1 44M0 53L7 50M0 53L23 89M1 44L9 44M7 50L9 44M7 50L51 81M9 44L45 67M20 71L22 62M20 71L30 72M20 71L64 120M22 62L34 64M23 89L84 99M30 72L34 64M30 72L66 100M34 64L62 83M39 102L41 114M39 102L48 99M41 114L51 107M41 114L89 143M48 99L51 107M48 99L91 106M51 81L108 66M51 107L110 117M62 83L103 81M64 120L136 109M66 100L125 86M84 99L124 77M86 64L130 34M89 143L152 123M91 106L127 91M103 81L137 45M108 66L135 36M110 117L148 87M124 77L141 37M125 86L146 44M127 91L150 52M130 34L136 13M135 36L143 16M136 13L143 16M136 13L148 0M136 109L159 68M137 45L143 16M141 37L151 19M143 16L151 19M146 44L151 19M148 0L157 4M148 87L159 47M150 52L151 19M151 19L157 4M151 19L157 21M152 123L175 76M157 4L164 8M157 21L159 47M157 21L163 20M159 68L163 20M163 20L164 8M163 20L167 47M167 47L175 76" style="fill:none;stroke:#ff0000;stroke-linecap:round"/>
</svg>