<svg height="500" viewBox="-2 -2 200 271" width="500" xmlns="http://www.w3.org/2000/svg">
<path class="hole" d="M2 80L17 111L2 153L36 161L63 207L89 128L121 154L133 217L196 218L186 152L157 71L182 39L156 0L124 34L118 77L41 0L27 20L24 25M-2 -2L198 -2L198 269L-2 269" style="fill:#00000066;fill-rule:evenodd;"/>
<circle cx="196" cy="218" r="5" style="fill:#ffff0066;" title="Globalist"/>
<path class="ok" d="M15 143L31 152M24 132L31 152M24 132L43 123M31 152L51 152M41 37L55 17M41 37L56 56M43 123L58 130M51 152L58 130M51 152L59 172M55 17L79 47M56 56L76 71M56 56L79 47M62 123L82 103M62 123L82 143M75 167L82 143M76 71L79 47M76 71L86 93M76 71L101 74M82 103L102 123M86 93L101 74M101 74L116 96M102 123L116 96M102 123L126 137M116 96L137 113M116 96L142 84M118 112L142 84M118 112L145 125M124 79L150 75M126 137L137 113M131 183L154 199M133 35L160 48M137 53L142 84M137 53L165 47M137 113L142 84M142 84L165 106M145 125L165 106M150 75L160 48" style="stroke:#0000ff;stroke-linecap:round"/>
<path class="out" d="M0 155L7 177M0 155L15 143M0 155L27 171M0 155L41 37M7 177L27 171M7 177L42 184M7 177L53 219M27 171L31 152M27 171L42 184M41 37L70 28M42 184L59 172M42 184L60 199M53 219L60 199M53 219L76 215M53 219L106 252M55 17L79 21M55 17L98 0M59 172L73 185M60 199L73 185M60 199L76 215M70 28L79 47M70 28L82 19M73 185L75 167M73 185L88 200M75 167L96 165M76 15L96 35M76 15L98 0M76 215L88 200M79 21L79 47M79 47L96 35M82 19L96 35M82 143L96 165M82 143L102 123M88 200L102 186M93 192L96 165M93 192L112 201M93 222L106 252M93 222L112 201M93 222L125 227M96 35L112 53M96 35L114 19M96 165L102 186M96 165L120 162M98 0L114 19M98 0L140 13M101 74L112 53M106 252L125 227M106 252L131 267M112 53L124 79M112 53L133 35M112 53L137 53M112 201L125 227M112 201L131 183M114 19L133 35M114 19L140 13M120 162L126 137M120 162L131 183M125 227L151 245M125 227L153 222M131 267L151 245M133 35L140 13M140 13L165 47M142 84L173 78M151 245L194 98M153 222L154 199M165 47L173 78M165 47L194 98M165 106L173 78M165 106L194 98M173 78L194 98" style="stroke:#ff0000;stroke-linecap:round"/>
<g fill="#333333">
<circle cx="2" cy="80" r="0.5" tabindex="0">
<title>
hole:0
</title>
</circle>
<circle cx="17" cy="111" r="0.5" tabindex="1">
<title>
hole:1
</title>
</circle>
<circle cx="2" cy="153" r="0.5" tabindex="2">
<title>
hole:2
</title>
</circle>
<circle cx="36" cy="161" r="0.5" tabindex="3">
<title>
hole:3
</title>
</circle>
<circle cx="63" cy="207" r="0.5" tabindex="4">
<title>
hole:4
</title>
</circle>
<circle cx="89" cy="128" r="0.5" tabindex="5">
<title>
hole:5
</title>
</circle>
<circle cx="121" cy="154" r="0.5" tabindex="6">
<title>
hole:6
</title>
</circle>
<circle cx="133" cy="217" r="0.5" tabindex="7">
<title>
hole:7
</title>
</circle>
<circle cx="196" cy="218" r="0.5" tabindex="8">
<title>
hole:8
</title>
</circle>
<circle cx="186" cy="152" r="0.5" tabindex="9">
<title>
hole:9
</title>
</circle>
<circle cx="157" cy="71" r="0.5" tabindex="10">
<title>
hole:10
</title>
</circle>
<circle cx="182" cy="39" r="0.5" tabindex="11">
<title>
hole:11
</title>
</circle>
<circle cx="156" cy="0" r="0.5" tabindex="12">
<title>
hole:12
</title>
</circle>
<circle cx="124" cy="34" r="0.5" tabindex="13">
<title>
hole:13
</title>
</circle>
<circle cx="118" cy="77" r="0.5" tabindex="14">
<title>
hole:14
</title>
</circle>
<circle cx="41" cy="0" r="0.5" tabindex="15">
<title>
hole:15
</title>
</circle>
<circle cx="27" cy="20" r="0.5" tabindex="16">
<title>
hole:16
</title>
</circle>
<circle cx="24" cy="25" r="0.5" tabindex="17">
<title>
hole:17
</title>
</circle>
</g>
<g fill="#999999">
<circle cx="0" cy="155" r="0.5" tabindex="18">
<title>
v:0
</title>
</circle>
<circle cx="7" cy="177" r="0.5" tabindex="19">
<title>
v:1
</title>
</circle>
<circle cx="15" cy="143" r="0.5" tabindex="20">
<title>
v:2
</title>
</circle>
<circle cx="24" cy="132" r="0.5" tabindex="21">
<title>
v:3
</title>
</circle>
<circle cx="27" cy="171" r="0.5" tabindex="22">
<title>
v:4
</title>
</circle>
<circle cx="31" cy="152" r="0.5" tabindex="23">
<title>
v:5
</title>
</circle>
<circle cx="41" cy="37" r="0.5" tabindex="24">
<title>
v:6
</title>
</circle>
<circle cx="42" cy="184" r="0.5" tabindex="25">
<title>
v:7
</title>
</circle>
<circle cx="43" cy="123" r="0.5" tabindex="26">
<title>
v:8
</title>
</circle>
<circle cx="51" cy="152" r="0.5" tabindex="27">
<title>
v:9
</title>
</circle>
<circle cx="53" cy="219" r="0.5" tabindex="28">
<title>
v:10
</title>
</circle>
<circle cx="55" cy="17" r="0.5" tabindex="29">
<title>
v:11
</title>
</circle>
<circle cx="56" cy="56" r="0.5" tabindex="30">
<title>
v:12
</title>
</circle>
<circle cx="58" cy="130" r="0.5" tabindex="31">
<title>
v:13
</title>
</circle>
<circle cx="59" cy="172" r="0.5" tabindex="32">
<title>
v:14
</title>
</circle>
<circle cx="60" cy="199" r="0.5" tabindex="33">
<title>
v:15
</title>
</circle>
<circle cx="62" cy="123" r="0.5" tabindex="34">
<title>
v:16
</title>
</circle>
<circle cx="70" cy="28" r="0.5" tabindex="35">
<title>
v:17
</title>
</circle>
<circle cx="73" cy="185" r="0.5" tabindex="36">
<title>
v:18
</title>
</circle>
<circle cx="75" cy="167" r="0.5" tabindex="37">
<title>
v:19
</title>
</circle>
<circle cx="76" cy="15" r="0.5" tabindex="38">
<title>
v:20
</title>
</circle>
<circle cx="76" cy="71" r="0.5" tabindex="39">
<title>
v:21
</title>
</circle>
<circle cx="76" cy="215" r="0.5" tabindex="40">
<title>
v:22
</title>
</circle>
<circle cx="79" cy="21" r="0.5" tabindex="41">
<title>
v:23
</title>
</circle>
<circle cx="79" cy="47" r="0.5" tabindex="42">
<title>
v:24
</title>
</circle>
<circle cx="82" cy="19" r="0.5" tabindex="43">
<title>
v:25
</title>
</circle>
<circle cx="82" cy="103" r="0.5" tabindex="44">
<title>
v:26
</title>
</circle>
<circle cx="82" cy="143" r="0.5" tabindex="45">
<title>
v:27
</title>
</circle>
<circle cx="86" cy="93" r="0.5" tabindex="46">
<title>
v:28
</title>
</circle>
<circle cx="88" cy="200" r="0.5" tabindex="47">
<title>
v:29
</title>
</circle>
<circle cx="93" cy="192" r="0.5" tabindex="48">
<title>
v:30
</title>
</circle>
<circle cx="93" cy="222" r="0.5" tabindex="49">
<title>
v:31
</title>
</circle>
<circle cx="96" cy="35" r="0.5" tabindex="50">
<title>
v:32
</title>
</circle>
<circle cx="96" cy="165" r="0.5" tabindex="51">
<title>
v:33
</title>
</circle>
<circle cx="98" cy="0" r="0.5" tabindex="52">
<title>
v:34
</title>
</circle>
<circle cx="101" cy="74" r="0.5" tabindex="53">
<title>
v:35
</title>
</circle>
<circle cx="102" cy="123" r="0.5" tabindex="54">
<title>
v:36
</title>
</circle>
<circle cx="102" cy="186" r="0.5" tabindex="55">
<title>
v:37
</title>
</circle>
<circle cx="106" cy="252" r="0.5" tabindex="56">
<title>
v:38
</title>
</circle>
<circle cx="112" cy="53" r="0.5" tabindex="57">
<title>
v:39
</title>
</circle>
<circle cx="112" cy="201" r="0.5" tabindex="58">
<title>
v:40
</title>
</circle>
<circle cx="114" cy="19" r="0.5" tabindex="59">
<title>
v:41
</title>
</circle>
<circle cx="116" cy="96" r="0.5" tabindex="60">
<title>
v:42
</title>
</circle>
<circle cx="118" cy="112" r="0.5" tabindex="61">
<title>
v:43
</title>
</circle>
<circle cx="120" cy="162" r="0.5" tabindex="62">
<title>
v:44
</title>
</circle>
<circle cx="124" cy="79" r="0.5" tabindex="63">
<title>
v:45
</title>
</circle>
<circle cx="125" cy="227" r="0.5" tabindex="64">
<title>
v:46
</title>
</circle>
<circle cx="126" cy="137" r="0.5" tabindex="65">
<title>
v:47
</title>
</circle>
<circle cx="131" cy="183" r="0.5" tabindex="66">
<title>
v:48
</title>
</circle>
<circle cx="131" cy="267" r="0.5" tabindex="67">
<title>
v:49
</title>
</circle>
<circle cx="133" cy="35" r="0.5" tabindex="68">
<title>
v:50
</title>
</circle>
<circle cx="137" cy="53" r="0.5" tabindex="69">
<title>
v:51
</title>
</circle>
<circle cx="137" cy="113" r="0.5" tabindex="70">
<title>
v:52
</title>
</circle>
<circle cx="140" cy="13" r="0.5" tabindex="71">
<title>
v:53
</title>
</circle>
<circle cx="142" cy="84" r="0.5" tabindex="72">
<title>
v:54
</title>
</circle>
<circle cx="145" cy="125" r="0.5" tabindex="73">
<title>
v:55
</title>
</circle>
<circle cx="150" cy="75" r="0.5" tabindex="74">
<title>
v:56
</title>
</circle>
<circle cx="151" cy="245" r="0.5" tabindex="75">
<title>
v:57
</title>
</circle>
<circle cx="153" cy="222" r="0.5" tabindex="76">
<title>
v:58
</title>
</circle>
<circle cx="154" cy="199" r="0.5" tabindex="77">
<title>
v:59
</title>
</circle>
<circle cx="160" cy="48" r="0.5" tabindex="78">
<title>
v:60
</title>
</circle>
<circle cx="165" cy="47" r="0.5" tabindex="79">
<title>
v:61
</title>
</circle>
<circle cx="165" cy="106" r="0.5" tabindex="80">
<title>
v:62
</title>
</circle>
<circle cx="173" cy="78" r="0.5" tabindex="81">
<title>
v:63
</title>
</circle>
<circle cx="194" cy="98" r="0.5" tabindex="82">
<title>
v:64
</title>
</circle>
</g>
</svg>