<svg height="500" viewBox="-2 -2 221 218" width="500" xmlns="http://www.w3.org/2000/svg">
<path class="hole" d="M0 51L32 70L2 93L23 133L2 157L0 214L42 214L37 183L72 138L114 135L114 174L104 214L153 208L199 192L150 146L192 121L215 86L179 64L217 49L177 8L135 0L144 44L136 87L105 90L63 97L65 63L100 6L63 0L28 0M-2 -2L219 -2L219 216L-2 216" style="fill:#00000066;fill-rule:evenodd;stroke:none;"/>
<circle cx="75" cy="2" r="5" style="fill:#ffff0066;stroke:none;"/>
<path class="ok" d="M21 90L22 81M21 90L28 87M21 90L44 126M22 81L30 81M28 87L30 81M28 87L72 118M30 81L66 104M41 108L43 99M41 108L51 109M43 99L55 101M51 109L55 101M55 101L83 120M60 139L69 136M66 104L107 101M72 118L129 103M83 120L124 118M124 118L158 82M129 103L156 73M131 154L169 124M145 114L162 74M146 123L167 81M148 128L171 89M151 71L157 50M156 73L164 53M157 50L164 53M157 50L169 37M158 82L164 53M162 74L172 56M164 53L172 56M167 81L172 56M169 37L178 41M169 124L180 84M171 89L172 56M172 56L178 41M172 56L178 58M178 41L185 45M178 58L180 84M178 58L184 57M184 57L185 45M188 84L196 113" style="fill:none;stroke:#0000ff;stroke-linecap:round"/>
<path class="out" d="M41 108L85 157M44 126L105 136M51 109L87 137M60 139L62 151M62 151L72 144M62 151L110 180M69 136L72 144M69 136L112 143M72 144L131 154M85 157L157 146M87 137L146 123M105 136L145 114M107 101L151 71M110 180L173 160M112 143L148 128M157 146L180 105M173 160L196 113M180 105L184 57M184 57L188 84" style="fill:none;stroke:#ff0000;stroke-linecap:round"/>
</svg>