<svg height="500" viewBox="-2 -2 105 136" width="500" xmlns="http://www.w3.org/2000/svg">
<path class="hole" d="M0 110L27 114L54 129L60 98L65 84L68 72L74 63L72 58L90 33L101 15L77 0L45 13L27 22L15 54L17 71L2 100M-2 -2L103 -2L103 134L-2 134" style="fill:#00000066;fill-rule:evenodd;stroke:none;"/>
<circle cx="40" cy="98" r="5" style="fill:#ffff0066;stroke:none;"/>
<path class="ok" d="M21 89L39 91M22 50L29 48M23 42L29 48M26 63L29 48M26 63L32 67M32 67L38 64M38 50L38 64M38 50L45 47M38 50L45 54M39 27L57 40M39 91L52 78M45 47L51 52M45 54L51 52M46 17L64 36M51 52L57 40M52 78L52 91M52 78L60 66M56 62L57 40M56 62L60 66M60 66L64 36M62 15L64 36" style="fill:none;stroke:#0000ff;stroke-linecap:round"/>
<path class="out" d="M0 32L0 61M0 32L8 7M0 32L17 17M0 61L9 76M0 61L17 32M4 114L12 108M4 114L31 118M8 7L38 0M9 76L12 108M9 76L21 89M16 48L17 32M16 48L22 50M16 48L23 42M17 17L46 17M17 32L39 27M31 118L58 132M31 118L63 100M38 0L62 15M52 91L63 100M58 132L63 100" style="fill:none;stroke:#ff0000;stroke-linecap:round"/>
</svg>