<svg height="500" viewBox="-2 -2 147 159" width="500" xmlns="http://www.w3.org/2000/svg">
<path class="hole" d="M0 46L9 53L16 59L24 54L25 49L43 45L46 56L43 69L51 74L65 82L55 81L37 96L17 103L1 104L20 105L36 102L60 90L73 76L81 70L101 83L96 97L83 109L73 112L68 101L72 91L65 98L56 99L70 116L86 115L103 99L103 105L92 115L95 127L95 117L102 109L108 91L109 78L106 73L121 72L121 77L122 86L138 95L133 82L135 91L125 85L136 68L143 67L129 63L122 64L92 47L116 29L119 26L136 0L114 5L110 6L100 0L107 7L98 9L76 2L65 6L52 35L27 43L14 43L2 40M-2 -2L145 -2L145 157L-2 157" style="fill:#00000066;fill-rule:evenodd;stroke:none;"/>
<circle cx="60" cy="62" r="5" style="fill:#ffff0066;stroke:none;"/>
<path class="ok" d="M5 48L14 53M14 53L14 57M14 53L22 49M14 57L25 49M20 43L22 49M22 49L25 49M45 52L49 55M45 52L50 43M49 55L54 43M50 43L54 43M57 59L59 58M59 58L61 35M59 58L67 53M61 35L66 24M61 35L69 38M66 24L75 24M67 53L69 38M67 53L76 58M67 53L82 22M69 38L75 24M76 58L80 59M76 58L88 28M80 59L88 66M80 59L94 42M82 22L88 28M82 22L102 14M88 28L100 21M88 66L117 62M100 21L102 14M100 21L108 25M102 14L114 23M108 25L114 23M114 70L117 62" style="fill:none;stroke:#0000ff;stroke-linecap:round"/>
<path class="out" d="M0 49L5 48M0 49L8 29M0 49L14 57M5 48L10 33M8 29L10 33M8 29L31 28M10 33L28 33M14 41L20 43M14 41L21 41M19 68L22 56M19 68L41 90M19 68L49 55M20 43L21 41M21 41L25 49M22 56L43 77M22 56L45 52M28 33L31 28M28 33L47 72M29 114L37 119M29 114L38 140M29 114L41 90M30 11L34 12M30 11L36 28M30 11L49 0M31 28L57 59M34 12L39 25M34 12L47 5M34 37L44 36M34 37L45 33M36 28L39 25M36 28L51 25M37 119L41 135M37 119L52 98M38 140L41 135M38 140L55 138M39 25L48 23M40 18L47 18M40 18L49 16M41 90L43 77M41 90L52 98M41 135L52 135M43 77L47 72M44 36L45 33M44 36L50 43M45 33L54 43M47 5L49 0M47 5L66 24M47 18L48 23M47 18L49 16M47 72L57 59M48 23L51 25M49 0L75 24M49 16L51 25M52 98L57 78M52 98L57 109M52 135L54 121M52 135L55 138M54 121L58 125M54 121L68 119M55 138L58 125M57 78L59 58M57 78L69 71M57 109L68 115M58 125L66 123M66 123L68 119M66 123L69 127M68 115L76 110M68 119L73 127M69 71L80 80M69 127L70 139M69 127L73 127M70 139L73 127M76 58L80 80M76 110L85 97M80 80L85 97M83 124L89 124M83 124L93 103M83 124L97 139M85 97L90 88M85 97L93 103M88 66L91 78M88 66L98 48M89 124L100 137M89 124L103 102M90 88L91 78M90 88L103 102M91 78L114 70M93 103L103 102M94 42L98 48M94 42L112 40M96 155L97 139M96 155L100 137M97 139L100 137M98 48L110 46M107 100L109 88M107 100L111 99M107 100L122 109M108 25L111 37M109 88L111 91M109 88L121 88M110 46L112 40M110 46L124 57M111 37L115 34M111 37L124 40M111 91L111 99M111 91L118 90M111 99L122 104M112 40L126 53M114 23L115 34M114 70L127 79M115 34L123 37M117 62L134 76M118 29L127 26M118 29L131 22M118 90L120 98M118 90L121 88M120 98L121 88M122 104L122 109M122 104L129 96M122 109L135 99M123 37L124 40M123 37L127 26M124 40L131 22M124 57L126 53M124 57L138 54M126 53L136 51M127 26L131 22M127 79L129 96M127 79L134 76M129 96L135 99M134 76L135 99M136 51L138 54M136 51L140 41M138 54L140 41" style="fill:none;stroke:#ff0000;stroke-linecap:round"/>
</svg>