<svg height="500" viewBox="0 -2 92 103" width="500" xmlns="http://www.w3.org/2000/svg">
<path class="hole" d="M4 31L10 47L23 36L41 39L24 54L15 65L2 77L11 92L23 84L32 99L43 74L50 99L63 63L71 97L85 91L82 71L75 56L65 39L74 20L90 23L90 0L74 0L63 9L53 22L46 8L28 4L20 15L2 8M0 -2L92 -2L92 101L0 101" style="fill:#00000066;fill-rule:evenodd;"/>
<circle cx="71" cy="97" r="5" style="fill:#ffff0066;" title="BreakALeg"/>
<path class="ok" d="M17 65L17 72M17 65L23 62M17 72L23 76M23 34L29 30M23 62L29 65M23 76L29 72M29 23L29 30M29 23L35 20M29 30L35 34M29 51L35 55M29 65L29 72M29 65L35 62M35 20L41 23M35 34L41 30M35 55L35 62M35 55L41 51M35 62L41 65M41 23L41 30M41 23L48 20M41 30L48 34M41 44L41 51M41 44L48 41M41 51L48 55M41 65L41 72M41 65L48 62M41 72L48 76M48 20L54 23M48 34L48 41M48 34L54 30M48 41L54 44M48 55L48 62M48 55L54 51M48 62L54 65M48 76L54 72M54 23L54 30M54 23L60 20M54 30L60 34M54 44L54 51M54 44L60 41M54 51L60 55M54 65L54 72M54 65L60 62M60 20L66 23M60 34L60 41M60 34L66 30M60 41L66 44M60 55L60 62M60 55L66 51M66 23L66 30M66 44L66 51M66 51L72 55M66 65L66 72M66 65L72 62M66 72L72 76M72 55L72 62M72 62L78 65M72 76L78 72M78 65L78 72" style="stroke:#0000ff;stroke-linecap:round"/>
<path class="out" d="M17 44L17 51M17 44L23 41M17 51L23 55M23 34L23 41M23 41L29 44M23 55L23 62M23 55L29 51M29 44L29 51M29 44L35 41M35 34L35 41M35 41L41 44M60 62L66 65M66 30L72 34M66 44L72 41M72 34L72 41M72 41L78 44M72 55L78 51M78 44L78 51" style="stroke:#ff0000;stroke-linecap:round"/>
<g fill="#333333">
<circle cx="4" cy="31" r="0.5" tabindex="0">
<title>
hole:0
</title>
</circle>
<circle cx="10" cy="47" r="0.5" tabindex="1">
<title>
hole:1
</title>
</circle>
<circle cx="23" cy="36" r="0.5" tabindex="2">
<title>
hole:2
</title>
</circle>
<circle cx="41" cy="39" r="0.5" tabindex="3">
<title>
hole:3
</title>
</circle>
<circle cx="24" cy="54" r="0.5" tabindex="4">
<title>
hole:4
</title>
</circle>
<circle cx="15" cy="65" r="0.5" tabindex="5">
<title>
hole:5
</title>
</circle>
<circle cx="2" cy="77" r="0.5" tabindex="6">
<title>
hole:6
</title>
</circle>
<circle cx="11" cy="92" r="0.5" tabindex="7">
<title>
hole:7
</title>
</circle>
<circle cx="23" cy="84" r="0.5" tabindex="8">
<title>
hole:8
</title>
</circle>
<circle cx="32" cy="99" r="0.5" tabindex="9">
<title>
hole:9
</title>
</circle>
<circle cx="43" cy="74" r="0.5" tabindex="10">
<title>
hole:10
</title>
</circle>
<circle cx="50" cy="99" r="0.5" tabindex="11">
<title>
hole:11
</title>
</circle>
<circle cx="63" cy="63" r="0.5" tabindex="12">
<title>
hole:12
</title>
</circle>
<circle cx="71" cy="97" r="0.5" tabindex="13">
<title>
hole:13
</title>
</circle>
<circle cx="85" cy="91" r="0.5" tabindex="14">
<title>
hole:14
</title>
</circle>
<circle cx="82" cy="71" r="0.5" tabindex="15">
<title>
hole:15
</title>
</circle>
<circle cx="75" cy="56" r="0.5" tabindex="16">
<title>
hole:16
</title>
</circle>
<circle cx="65" cy="39" r="0.5" tabindex="17">
<title>
hole:17
</title>
</circle>
<circle cx="74" cy="20" r="0.5" tabindex="18">
<title>
hole:18
</title>
</circle>
<circle cx="90" cy="23" r="0.5" tabindex="19">
<title>
hole:19
</title>
</circle>
<circle cx="90" cy="0" r="0.5" tabindex="20">
<title>
hole:20
</title>
</circle>
<circle cx="74" cy="0" r="0.5" tabindex="21">
<title>
hole:21
</title>
</circle>
<circle cx="63" cy="9" r="0.5" tabindex="22">
<title>
hole:22
</title>
</circle>
<circle cx="53" cy="22" r="0.5" tabindex="23">
<title>
hole:23
</title>
</circle>
<circle cx="46" cy="8" r="0.5" tabindex="24">
<title>
hole:24
</title>
</circle>
<circle cx="28" cy="4" r="0.5" tabindex="25">
<title>
hole:25
</title>
</circle>
<circle cx="20" cy="15" r="0.5" tabindex="26">
<title>
hole:26
</title>
</circle>
<circle cx="2" cy="8" r="0.5" tabindex="27">
<title>
hole:27
</title>
</circle>
</g>
<g fill="#999999">
<circle cx="17" cy="44" r="0.5" tabindex="28">
<title>
v:0
</title>
</circle>
<circle cx="17" cy="51" r="0.5" tabindex="29">
<title>
v:1
</title>
</circle>
<circle cx="17" cy="65" r="0.5" tabindex="30">
<title>
v:2
</title>
</circle>
<circle cx="17" cy="72" r="0.5" tabindex="31">
<title>
v:3
</title>
</circle>
<circle cx="23" cy="34" r="0.5" tabindex="32">
<title>
v:4
</title>
</circle>
<circle cx="23" cy="41" r="0.5" tabindex="33">
<title>
v:5
</title>
</circle>
<circle cx="23" cy="55" r="0.5" tabindex="34">
<title>
v:6
</title>
</circle>
<circle cx="23" cy="62" r="0.5" tabindex="35">
<title>
v:7
</title>
</circle>
<circle cx="23" cy="76" r="0.5" tabindex="36">
<title>
v:8
</title>
</circle>
<circle cx="29" cy="23" r="0.5" tabindex="37">
<title>
v:9
</title>
</circle>
<circle cx="29" cy="30" r="0.5" tabindex="38">
<title>
v:10
</title>
</circle>
<circle cx="29" cy="44" r="0.5" tabindex="39">
<title>
v:11
</title>
</circle>
<circle cx="29" cy="51" r="0.5" tabindex="40">
<title>
v:12
</title>
</circle>
<circle cx="29" cy="65" r="0.5" tabindex="41">
<title>
v:13
</title>
</circle>
<circle cx="29" cy="72" r="0.5" tabindex="42">
<title>
v:14
</title>
</circle>
<circle cx="35" cy="20" r="0.5" tabindex="43">
<title>
v:15
</title>
</circle>
<circle cx="35" cy="34" r="0.5" tabindex="44">
<title>
v:16
</title>
</circle>
<circle cx="35" cy="41" r="0.5" tabindex="45">
<title>
v:17
</title>
</circle>
<circle cx="35" cy="55" r="0.5" tabindex="46">
<title>
v:18
</title>
</circle>
<circle cx="35" cy="62" r="0.5" tabindex="47">
<title>
v:19
</title>
</circle>
<circle cx="41" cy="23" r="0.5" tabindex="48">
<title>
v:20
</title>
</circle>
<circle cx="41" cy="30" r="0.5" tabindex="49">
<title>
v:21
</title>
</circle>
<circle cx="41" cy="44" r="0.5" tabindex="50">
<title>
v:22
</title>
</circle>
<circle cx="41" cy="51" r="0.5" tabindex="51">
<title>
v:23
</title>
</circle>
<circle cx="41" cy="65" r="0.5" tabindex="52">
<title>
v:24
</title>
</circle>
<circle cx="41" cy="72" r="0.5" tabindex="53">
<title>
v:25
</title>
</circle>
<circle cx="48" cy="20" r="0.5" tabindex="54">
<title>
v:26
</title>
</circle>
<circle cx="48" cy="34" r="0.5" tabindex="55">
<title>
v:27
</title>
</circle>
<circle cx="48" cy="41" r="0.5" tabindex="56">
<title>
v:28
</title>
</circle>
<circle cx="48" cy="55" r="0.5" tabindex="57">
<title>
v:29
</title>
</circle>
<circle cx="48" cy="62" r="0.5" tabindex="58">
<title>
v:30
</title>
</circle>
<circle cx="48" cy="76" r="0.5" tabindex="59">
<title>
v:31
</title>
</circle>
<circle cx="54" cy="23" r="0.5" tabindex="60">
<title>
v:32
</title>
</circle>
<circle cx="54" cy="30" r="0.5" tabindex="61">
<title>
v:33
</title>
</circle>
<circle cx="54" cy="44" r="0.5" tabindex="62">
<title>
v:34
</title>
</circle>
<circle cx="54" cy="51" r="0.5" tabindex="63">
<title>
v:35
</title>
</circle>
<circle cx="54" cy="65" r="0.5" tabindex="64">
<title>
v:36
</title>
</circle>
<circle cx="54" cy="72" r="0.5" tabindex="65">
<title>
v:37
</title>
</circle>
<circle cx="60" cy="20" r="0.5" tabindex="66">
<title>
v:38
</title>
</circle>
<circle cx="60" cy="34" r="0.5" tabindex="67">
<title>
v:39
</title>
</circle>
<circle cx="60" cy="41" r="0.5" tabindex="68">
<title>
v:40
</title>
</circle>
<circle cx="60" cy="55" r="0.5" tabindex="69">
<title>
v:41
</title>
</circle>
<circle cx="60" cy="62" r="0.5" tabindex="70">
<title>
v:42
</title>
</circle>
<circle cx="66" cy="23" r="0.5" tabindex="71">
<title>
v:43
</title>
</circle>
<circle cx="66" cy="30" r="0.5" tabindex="72">
<title>
v:44
</title>
</circle>
<circle cx="66" cy="44" r="0.5" tabindex="73">
<title>
v:45
</title>
</circle>
<circle cx="66" cy="51" r="0.5" tabindex="74">
<title>
v:46
</title>
</circle>
<circle cx="66" cy="65" r="0.5" tabindex="75">
<title>
v:47
</title>
</circle>
<circle cx="66" cy="72" r="0.5" tabindex="76">
<title>
v:48
</title>
</circle>
<circle cx="72" cy="34" r="0.5" tabindex="77">
<title>
v:49
</title>
</circle>
<circle cx="72" cy="41" r="0.5" tabindex="78">
<title>
v:50
</title>
</circle>
<circle cx="72" cy="55" r="0.5" tabindex="79">
<title>
v:51
</title>
</circle>
<circle cx="72" cy="62" r="0.5" tabindex="80">
<title>
v:52
</title>
</circle>
<circle cx="72" cy="76" r="0.5" tabindex="81">
<title>
v:53
</title>
</circle>
<circle cx="78" cy="44" r="0.5" tabindex="82">
<title>
v:54
</title>
</circle>
<circle cx="78" cy="51" r="0.5" tabindex="83">
<title>
v:55
</title>
</circle>
<circle cx="78" cy="65" r="0.5" tabindex="84">
<title>
v:56
</title>
</circle>
<circle cx="78" cy="72" r="0.5" tabindex="85">
<title>
v:57
</title>
</circle>
</g>
</svg>