<svg height="500" viewBox="-2 -2 92 103" width="500" xmlns="http://www.w3.org/2000/svg">
<path class="hole" d="M2 31L8 47L21 36L39 39L22 54L13 65L0 77L9 92L21 84L30 99L41 74L48 99L61 63L69 97L83 91L80 71L73 56L63 39L72 20L88 23L88 0L72 0L61 9L51 22L44 8L26 4L18 15L0 8M-2 -2L90 -2L90 101L-2 101" style="fill:#00000066;fill-rule:evenodd;stroke:none;"/>
<circle cx="69" cy="97" r="5" style="fill:#ffff0066;stroke:none;"/>
<path class="ok" d="M17 65L17 72M17 65L23 62M17 72L23 76M23 34L29 30M23 55L23 62M23 55L29 51M23 62L29 65M23 76L29 72M29 23L29 30M29 23L35 20M29 30L35 34M29 51L35 55M29 65L29 72M29 65L35 62M35 20L41 23M35 34L41 30M35 55L35 62M35 55L41 51M35 62L41 65M41 23L41 30M41 23L48 20M41 30L48 34M41 44L41 51M41 44L48 41M41 51L48 55M41 65L41 72M41 65L48 62M41 72L48 76M48 34L48 41M48 34L54 30M48 41L54 44M48 55L48 62M48 55L54 51M48 62L54 65M48 76L54 72M54 23L54 30M54 23L60 20M54 30L60 34M54 44L54 51M54 44L60 41M54 51L60 55M54 65L54 72M54 65L60 62M60 20L66 23M60 34L60 41M60 34L66 30M60 55L60 62M60 55L66 51M60 62L66 65M66 23L66 30M66 51L72 55M66 65L66 72M66 65L72 62M66 72L72 76M72 55L72 62M72 76L78 72" style="fill:none;stroke:#0000ff;stroke-linecap:round"/>
<path class="out" d="M17 44L17 51M17 44L23 41M17 51L23 55M23 34L23 41M23 41L29 44M29 44L29 51M29 44L35 41M35 34L35 41M35 41L41 44M48 20L54 23M60 41L66 44M66 30L72 34M66 44L66 51M66 44L72 41M72 34L72 41M72 41L78 44M72 55L78 51M72 62L78 65M78 44L78 51M78 65L78 72" style="fill:none;stroke:#ff0000;stroke-linecap:round"/>
</svg>