<svg height="500" viewBox="0 -2 214 209" width="500" xmlns="http://www.w3.org/2000/svg">
<path class="hole" d="M27 72L13 99L33 121L30 156L2 178L50 201L114 205L68 169L73 133L87 105L127 119L127 158L168 160L149 191L209 205L199 156L193 123L210 89L212 35L192 1L169 23L141 0L105 0L101 42L54 44L73 0L23 0L3 35M0 -2L214 -2L214 207L0 207" style="fill:#00000066;fill-rule:evenodd;"/>
<circle cx="209" cy="205" r="5" style="fill:#ffff0066;" title="Globalist"/>
<path class="ok" d="M15 100L25 80M15 100L40 125M25 80L25 95M25 95L30 100M30 100L40 120M35 70L35 105M35 70L45 75M35 70L60 60M35 105L40 105M35 105L45 115M40 105L45 95M40 105L60 105M40 120L65 120M45 75L45 95M45 75L60 60M45 115L65 120M45 130L50 135M50 75L50 90M50 75L60 85M50 75L75 55M50 90L60 100M55 150L60 140M55 150L65 165M60 85L60 90M60 85L80 70M60 90L65 90M60 100L60 105M60 100L65 90M60 105L65 120M60 140L65 150M65 90L105 80M75 55L80 60M75 55L85 55M80 60L80 65M80 60L100 60M80 65L80 70M80 65L95 65M80 70L95 65M85 55L100 60M105 80L105 110M105 80L120 80M105 110L155 100M115 60L130 55M115 60L130 60M115 70L120 65M115 70L135 70M120 65L135 65M120 80L145 90M130 55L140 60M130 60L135 65M130 150L150 145M135 65L135 70M135 65L140 60M135 70L150 80M140 60L165 80M140 130L150 120M140 130L165 130M140 130L175 125M145 90L155 90M145 90L155 100M150 55L170 55M150 55L170 60M150 80L155 90M150 80L165 80M150 120L155 110M150 120L170 120M150 145L155 140M155 100L155 110M155 100L165 90M155 100L170 95M155 110L175 100M155 140L160 145M165 80L165 90M165 130L170 135M165 130L190 125M170 55L180 60M170 60L170 85M170 60L180 60M170 85L170 95M170 95L175 100M170 120L175 125M170 120L190 100M175 100L180 95M175 125L195 105M180 60L180 95M180 80L185 85M180 80L190 85M185 85L190 85M185 85L190 100M190 85L195 105M190 125L195 110" style="stroke:#0000ff;stroke-linecap:round"/>
<path class="out" d="M15 110L25 120M15 110L25 125M25 120L25 125M25 120L45 130M25 125L50 135M40 125L75 130M45 130L75 130M50 135L85 140M60 105L105 110M60 140L85 140M65 120L75 130M65 150L70 160M65 150L85 150M65 165L70 160M65 165L85 165M70 160L85 165M75 130L85 140M85 140L95 145M85 150L95 145M95 145L105 110M95 145L115 145M105 110L115 145M115 145L125 140M115 145L130 150M125 140L140 130M125 140L155 140M125 140L170 135M135 165L150 160M135 165L155 165M150 145L150 160M150 160L155 165M155 165L160 145M170 135L195 125M190 125L195 125M195 110L195 125" style="stroke:#ff0000;stroke-linecap:round"/>
<g fill="#333333">
<circle cx="27" cy="72" r="0.5" tabindex="0">
<title>
hole:0
</title>
</circle>
<circle cx="13" cy="99" r="0.5" tabindex="1">
<title>
hole:1
</title>
</circle>
<circle cx="33" cy="121" r="0.5" tabindex="2">
<title>
hole:2
</title>
</circle>
<circle cx="30" cy="156" r="0.5" tabindex="3">
<title>
hole:3
</title>
</circle>
<circle cx="2" cy="178" r="0.5" tabindex="4">
<title>
hole:4
</title>
</circle>
<circle cx="50" cy="201" r="0.5" tabindex="5">
<title>
hole:5
</title>
</circle>
<circle cx="114" cy="205" r="0.5" tabindex="6">
<title>
hole:6
</title>
</circle>
<circle cx="68" cy="169" r="0.5" tabindex="7">
<title>
hole:7
</title>
</circle>
<circle cx="73" cy="133" r="0.5" tabindex="8">
<title>
hole:8
</title>
</circle>
<circle cx="87" cy="105" r="0.5" tabindex="9">
<title>
hole:9
</title>
</circle>
<circle cx="127" cy="119" r="0.5" tabindex="10">
<title>
hole:10
</title>
</circle>
<circle cx="127" cy="158" r="0.5" tabindex="11">
<title>
hole:11
</title>
</circle>
<circle cx="168" cy="160" r="0.5" tabindex="12">
<title>
hole:12
</title>
</circle>
<circle cx="149" cy="191" r="0.5" tabindex="13">
<title>
hole:13
</title>
</circle>
<circle cx="209" cy="205" r="0.5" tabindex="14">
<title>
hole:14
</title>
</circle>
<circle cx="199" cy="156" r="0.5" tabindex="15">
<title>
hole:15
</title>
</circle>
<circle cx="193" cy="123" r="0.5" tabindex="16">
<title>
hole:16
</title>
</circle>
<circle cx="210" cy="89" r="0.5" tabindex="17">
<title>
hole:17
</title>
</circle>
<circle cx="212" cy="35" r="0.5" tabindex="18">
<title>
hole:18
</title>
</circle>
<circle cx="192" cy="1" r="0.5" tabindex="19">
<title>
hole:19
</title>
</circle>
<circle cx="169" cy="23" r="0.5" tabindex="20">
<title>
hole:20
</title>
</circle>
<circle cx="141" cy="0" r="0.5" tabindex="21">
<title>
hole:21
</title>
</circle>
<circle cx="105" cy="0" r="0.5" tabindex="22">
<title>
hole:22
</title>
</circle>
<circle cx="101" cy="42" r="0.5" tabindex="23">
<title>
hole:23
</title>
</circle>
<circle cx="54" cy="44" r="0.5" tabindex="24">
<title>
hole:24
</title>
</circle>
<circle cx="73" cy="0" r="0.5" tabindex="25">
<title>
hole:25
</title>
</circle>
<circle cx="23" cy="0" r="0.5" tabindex="26">
<title>
hole:26
</title>
</circle>
<circle cx="3" cy="35" r="0.5" tabindex="27">
<title>
hole:27
</title>
</circle>
</g>
<g fill="#999999">
<circle cx="15" cy="100" r="0.5" tabindex="28">
<title>
v:0
</title>
</circle>
<circle cx="15" cy="110" r="0.5" tabindex="29">
<title>
v:1
</title>
</circle>
<circle cx="25" cy="80" r="0.5" tabindex="30">
<title>
v:2
</title>
</circle>
<circle cx="25" cy="95" r="0.5" tabindex="31">
<title>
v:3
</title>
</circle>
<circle cx="25" cy="120" r="0.5" tabindex="32">
<title>
v:4
</title>
</circle>
<circle cx="25" cy="125" r="0.5" tabindex="33">
<title>
v:5
</title>
</circle>
<circle cx="30" cy="100" r="0.5" tabindex="34">
<title>
v:6
</title>
</circle>
<circle cx="35" cy="70" r="0.5" tabindex="35">
<title>
v:7
</title>
</circle>
<circle cx="35" cy="105" r="0.5" tabindex="36">
<title>
v:8
</title>
</circle>
<circle cx="40" cy="105" r="0.5" tabindex="37">
<title>
v:9
</title>
</circle>
<circle cx="40" cy="120" r="0.5" tabindex="38">
<title>
v:10
</title>
</circle>
<circle cx="40" cy="125" r="0.5" tabindex="39">
<title>
v:11
</title>
</circle>
<circle cx="45" cy="75" r="0.5" tabindex="40">
<title>
v:12
</title>
</circle>
<circle cx="45" cy="95" r="0.5" tabindex="41">
<title>
v:13
</title>
</circle>
<circle cx="45" cy="115" r="0.5" tabindex="42">
<title>
v:14
</title>
</circle>
<circle cx="45" cy="130" r="0.5" tabindex="43">
<title>
v:15
</title>
</circle>
<circle cx="50" cy="75" r="0.5" tabindex="44">
<title>
v:16
</title>
</circle>
<circle cx="50" cy="90" r="0.5" tabindex="45">
<title>
v:17
</title>
</circle>
<circle cx="50" cy="135" r="0.5" tabindex="46">
<title>
v:18
</title>
</circle>
<circle cx="55" cy="150" r="0.5" tabindex="47">
<title>
v:19
</title>
</circle>
<circle cx="60" cy="60" r="0.5" tabindex="48">
<title>
v:20
</title>
</circle>
<circle cx="60" cy="85" r="0.5" tabindex="49">
<title>
v:21
</title>
</circle>
<circle cx="60" cy="90" r="0.5" tabindex="50">
<title>
v:22
</title>
</circle>
<circle cx="60" cy="100" r="0.5" tabindex="51">
<title>
v:23
</title>
</circle>
<circle cx="60" cy="105" r="0.5" tabindex="52">
<title>
v:24
</title>
</circle>
<circle cx="60" cy="140" r="0.5" tabindex="53">
<title>
v:25
</title>
</circle>
<circle cx="65" cy="90" r="0.5" tabindex="54">
<title>
v:26
</title>
</circle>
<circle cx="65" cy="120" r="0.5" tabindex="55">
<title>
v:27
</title>
</circle>
<circle cx="65" cy="150" r="0.5" tabindex="56">
<title>
v:28
</title>
</circle>
<circle cx="65" cy="165" r="0.5" tabindex="57">
<title>
v:29
</title>
</circle>
<circle cx="70" cy="160" r="0.5" tabindex="58">
<title>
v:30
</title>
</circle>
<circle cx="75" cy="55" r="0.5" tabindex="59">
<title>
v:31
</title>
</circle>
<circle cx="75" cy="130" r="0.5" tabindex="60">
<title>
v:32
</title>
</circle>
<circle cx="80" cy="60" r="0.5" tabindex="61">
<title>
v:33
</title>
</circle>
<circle cx="80" cy="65" r="0.5" tabindex="62">
<title>
v:34
</title>
</circle>
<circle cx="80" cy="70" r="0.5" tabindex="63">
<title>
v:35
</title>
</circle>
<circle cx="85" cy="55" r="0.5" tabindex="64">
<title>
v:36
</title>
</circle>
<circle cx="85" cy="140" r="0.5" tabindex="65">
<title>
v:37
</title>
</circle>
<circle cx="85" cy="150" r="0.5" tabindex="66">
<title>
v:38
</title>
</circle>
<circle cx="85" cy="165" r="0.5" tabindex="67">
<title>
v:39
</title>
</circle>
<circle cx="95" cy="65" r="0.5" tabindex="68">
<title>
v:40
</title>
</circle>
<circle cx="95" cy="145" r="0.5" tabindex="69">
<title>
v:41
</title>
</circle>
<circle cx="100" cy="60" r="0.5" tabindex="70">
<title>
v:42
</title>
</circle>
<circle cx="105" cy="80" r="0.5" tabindex="71">
<title>
v:43
</title>
</circle>
<circle cx="105" cy="110" r="0.5" tabindex="72">
<title>
v:44
</title>
</circle>
<circle cx="115" cy="60" r="0.5" tabindex="73">
<title>
v:45
</title>
</circle>
<circle cx="115" cy="70" r="0.5" tabindex="74">
<title>
v:46
</title>
</circle>
<circle cx="115" cy="145" r="0.5" tabindex="75">
<title>
v:47
</title>
</circle>
<circle cx="120" cy="65" r="0.5" tabindex="76">
<title>
v:48
</title>
</circle>
<circle cx="120" cy="80" r="0.5" tabindex="77">
<title>
v:49
</title>
</circle>
<circle cx="125" cy="140" r="0.5" tabindex="78">
<title>
v:50
</title>
</circle>
<circle cx="130" cy="55" r="0.5" tabindex="79">
<title>
v:51
</title>
</circle>
<circle cx="130" cy="60" r="0.5" tabindex="80">
<title>
v:52
</title>
</circle>
<circle cx="130" cy="150" r="0.5" tabindex="81">
<title>
v:53
</title>
</circle>
<circle cx="135" cy="65" r="0.5" tabindex="82">
<title>
v:54
</title>
</circle>
<circle cx="135" cy="70" r="0.5" tabindex="83">
<title>
v:55
</title>
</circle>
<circle cx="135" cy="165" r="0.5" tabindex="84">
<title>
v:56
</title>
</circle>
<circle cx="140" cy="60" r="0.5" tabindex="85">
<title>
v:57
</title>
</circle>
<circle cx="140" cy="130" r="0.5" tabindex="86">
<title>
v:58
</title>
</circle>
<circle cx="145" cy="90" r="0.5" tabindex="87">
<title>
v:59
</title>
</circle>
<circle cx="150" cy="55" r="0.5" tabindex="88">
<title>
v:60
</title>
</circle>
<circle cx="150" cy="80" r="0.5" tabindex="89">
<title>
v:61
</title>
</circle>
<circle cx="150" cy="120" r="0.5" tabindex="90">
<title>
v:62
</title>
</circle>
<circle cx="150" cy="145" r="0.5" tabindex="91">
<title>
v:63
</title>
</circle>
<circle cx="150" cy="160" r="0.5" tabindex="92">
<title>
v:64
</title>
</circle>
<circle cx="155" cy="90" r="0.5" tabindex="93">
<title>
v:65
</title>
</circle>
<circle cx="155" cy="100" r="0.5" tabindex="94">
<title>
v:66
</title>
</circle>
<circle cx="155" cy="110" r="0.5" tabindex="95">
<title>
v:67
</title>
</circle>
<circle cx="155" cy="140" r="0.5" tabindex="96">
<title>
v:68
</title>
</circle>
<circle cx="155" cy="165" r="0.5" tabindex="97">
<title>
v:69
</title>
</circle>
<circle cx="160" cy="145" r="0.5" tabindex="98">
<title>
v:70
</title>
</circle>
<circle cx="165" cy="80" r="0.5" tabindex="99">
<title>
v:71
</title>
</circle>
<circle cx="165" cy="90" r="0.5" tabindex="100">
<title>
v:72
</title>
</circle>
<circle cx="165" cy="130" r="0.5" tabindex="101">
<title>
v:73
</title>
</circle>
<circle cx="170" cy="55" r="0.5" tabindex="102">
<title>
v:74
</title>
</circle>
<circle cx="170" cy="60" r="0.5" tabindex="103">
<title>
v:75
</title>
</circle>
<circle cx="170" cy="85" r="0.5" tabindex="104">
<title>
v:76
</title>
</circle>
<circle cx="170" cy="95" r="0.5" tabindex="105">
<title>
v:77
</title>
</circle>
<circle cx="170" cy="120" r="0.5" tabindex="106">
<title>
v:78
</title>
</circle>
<circle cx="170" cy="135" r="0.5" tabindex="107">
<title>
v:79
</title>
</circle>
<circle cx="175" cy="100" r="0.5" tabindex="108">
<title>
v:80
</title>
</circle>
<circle cx="175" cy="125" r="0.5" tabindex="109">
<title>
v:81
</title>
</circle>
<circle cx="180" cy="60" r="0.5" tabindex="110">
<title>
v:82
</title>
</circle>
<circle cx="180" cy="80" r="0.5" tabindex="111">
<title>
v:83
</title>
</circle>
<circle cx="180" cy="95" r="0.5" tabindex="112">
<title>
v:84
</title>
</circle>
<circle cx="185" cy="85" r="0.5" tabindex="113">
<title>
v:85
</title>
</circle>
<circle cx="190" cy="85" r="0.5" tabindex="114">
<title>
v:86
</title>
</circle>
<circle cx="190" cy="100" r="0.5" tabindex="115">
<title>
v:87
</title>
</circle>
<circle cx="190" cy="125" r="0.5" tabindex="116">
<title>
v:88
</title>
</circle>
<circle cx="195" cy="105" r="0.5" tabindex="117">
<title>
v:89
</title>
</circle>
<circle cx="195" cy="110" r="0.5" tabindex="118">
<title>
v:90
</title>
</circle>
<circle cx="195" cy="125" r="0.5" tabindex="119">
<title>
v:91
</title>
</circle>
</g>
</svg>