<svg height="500" viewBox="-2 -2 214 209" width="500" xmlns="http://www.w3.org/2000/svg">
<path class="hole" d="M25 72L11 99L31 121L28 156L0 178L48 201L112 205L66 169L71 133L85 105L125 119L125 158L166 160L147 191L207 205L197 156L191 123L208 89L210 35L190 1L167 23L139 0L103 0L99 42L52 44L71 0L21 0L1 35M-2 -2L212 -2L212 207L-2 207" style="fill:#00000066;fill-rule:evenodd;stroke:none;"/>
<circle cx="207" cy="205" r="5" style="fill:#ffff0066;stroke:none;"/>
<path class="ok" d="M15 100L25 80M15 100L40 125M25 80L25 95M25 95L30 100M30 100L40 120M35 70L35 105M35 70L45 75M35 70L60 60M35 105L40 105M35 105L45 115M40 105L45 95M40 105L60 105M40 120L65 120M45 75L45 95M45 75L60 60M45 115L65 120M45 130L50 135M50 75L50 90M50 75L60 85M50 75L75 55M50 90L60 100M55 150L60 140M55 150L65 165M60 85L60 90M60 85L80 70M60 90L65 90M60 100L60 105M60 100L65 90M60 105L65 120M60 140L65 150M65 90L105 80M75 55L80 60M75 55L85 55M80 60L80 65M80 60L100 60M80 65L80 70M80 65L95 65M80 70L95 65M85 55L100 60M105 80L105 110M105 80L120 80M105 110L155 100M115 60L130 55M115 60L130 60M115 70L120 65M115 70L135 70M120 65L135 65M120 80L145 90M125 140L140 130M125 140L155 140M125 140L170 135M130 55L140 60M130 60L135 65M130 150L150 145M135 65L135 70M135 65L140 60M135 70L150 80M140 60L165 80M140 130L150 120M140 130L165 130M140 130L175 125M145 90L155 90M145 90L155 100M150 55L170 55M150 55L170 60M150 80L155 90M150 80L165 80M150 120L155 110M150 120L170 120M150 145L155 140M155 100L155 110M155 100L165 90M155 100L170 95M155 110L175 100M155 140L160 145M165 80L165 90M165 130L170 135M165 130L190 125M170 55L180 60M170 60L170 85M170 60L180 60M170 85L170 95M170 95L175 100M170 120L175 125M170 120L190 100M175 100L180 95M175 125L195 105M180 60L180 95M180 80L185 85M180 80L190 85M185 85L190 85M185 85L190 100M190 85L195 105M190 125L195 110" style="fill:none;stroke:#0000ff;stroke-linecap:round"/>
<path class="out" d="M15 110L25 120M15 110L25 125M25 120L25 125M25 120L45 130M25 125L50 135M40 125L75 130M45 130L75 130M50 135L85 140M60 105L105 110M60 140L85 140M65 120L75 130M65 150L70 160M65 150L85 150M65 165L70 160M65 165L85 165M70 160L85 165M75 130L85 140M85 140L95 145M85 150L95 145M95 145L105 110M95 145L115 145M105 110L115 145M115 145L125 140M115 145L130 150M135 165L150 160M135 165L155 165M150 145L150 160M150 160L155 165M155 165L160 145M170 135L195 125M190 125L195 125M195 110L195 125" style="fill:none;stroke:#ff0000;stroke-linecap:round"/>
</svg>