<svg height="500" viewBox="0 -2 119 120" width="500" xmlns="http://www.w3.org/2000/svg">
<path class="hole" d="M2 18L2 52L5 72L24 59L43 47L47 67L31 75L19 109L38 108L56 116L65 93L76 71L95 99L117 101L106 77L117 63L102 44L117 34L117 16L96 19L71 34L58 0L45 28L31 16L21 0M0 -2L119 -2L119 118L0 118" style="fill:#00000066;fill-rule:evenodd;"/>
<circle cx="117" cy="101" fill="#ffff0066" r="5">
<title>
Globalist@59
</title>
</circle>
<circle cx="47" cy="87" fill="#ffff0066" r="5">
<title>
BreakALeg@27
</title>
</circle>
<circle cx="92" cy="60" fill="#ffff0066" r="5">
<title>
BreakALeg@123
</title>
</circle>
<path class="ok" d="M48 79L51 94M48 79L62 84M51 94L62 89M62 26L62 84M62 26L79 67M62 84L62 89M62 84L79 67" style="stroke:#0000ff;stroke-linecap:round"/>
<path class="out" d="M18 74L27 60M18 74L32 60M27 60L32 60M27 60L51 94M32 60L62 89M45 67L48 79M45 67L62 26M45 67L62 84M62 84L77 79M62 89L74 94M62 89L107 47M74 94L77 79M74 94L107 47M77 79L79 67" style="stroke:#ff0000;stroke-linecap:round"/>
<g fill="#333333">
<circle cx="2" cy="18" r="0.5">
<title>
hole:0
</title>
</circle>
<circle cx="2" cy="52" r="0.5">
<title>
hole:1
</title>
</circle>
<circle cx="5" cy="72" r="0.5">
<title>
hole:2
</title>
</circle>
<circle cx="24" cy="59" r="0.5">
<title>
hole:3
</title>
</circle>
<circle cx="43" cy="47" r="0.5">
<title>
hole:4
</title>
</circle>
<circle cx="47" cy="67" r="0.5">
<title>
hole:5
</title>
</circle>
<circle cx="31" cy="75" r="0.5">
<title>
hole:6
</title>
</circle>
<circle cx="19" cy="109" r="0.5">
<title>
hole:7
</title>
</circle>
<circle cx="38" cy="108" r="0.5">
<title>
hole:8
</title>
</circle>
<circle cx="56" cy="116" r="0.5">
<title>
hole:9
</title>
</circle>
<circle cx="65" cy="93" r="0.5">
<title>
hole:10
</title>
</circle>
<circle cx="76" cy="71" r="0.5">
<title>
hole:11
</title>
</circle>
<circle cx="95" cy="99" r="0.5">
<title>
hole:12
</title>
</circle>
<circle cx="117" cy="101" r="0.5">
<title>
hole:13
</title>
</circle>
<circle cx="106" cy="77" r="0.5">
<title>
hole:14
</title>
</circle>
<circle cx="117" cy="63" r="0.5">
<title>
hole:15
</title>
</circle>
<circle cx="102" cy="44" r="0.5">
<title>
hole:16
</title>
</circle>
<circle cx="117" cy="34" r="0.5">
<title>
hole:17
</title>
</circle>
<circle cx="117" cy="16" r="0.5">
<title>
hole:18
</title>
</circle>
<circle cx="96" cy="19" r="0.5">
<title>
hole:19
</title>
</circle>
<circle cx="71" cy="34" r="0.5">
<title>
hole:20
</title>
</circle>
<circle cx="58" cy="0" r="0.5">
<title>
hole:21
</title>
</circle>
<circle cx="45" cy="28" r="0.5">
<title>
hole:22
</title>
</circle>
<circle cx="31" cy="16" r="0.5">
<title>
hole:23
</title>
</circle>
<circle cx="21" cy="0" r="0.5">
<title>
hole:24
</title>
</circle>
</g>
<g fill="#999999">
<circle cx="18" cy="74" i="0" r="0.5" tabindex="0">
<title>
v:0
</title>
</circle>
<circle cx="27" cy="60" i="1" r="0.5" tabindex="1">
<title>
v:1
</title>
</circle>
<circle cx="32" cy="60" i="2" r="0.5" tabindex="2">
<title>
v:2
</title>
</circle>
<circle cx="45" cy="67" i="3" r="0.5" tabindex="3">
<title>
v:3
</title>
</circle>
<circle cx="48" cy="79" i="4" r="0.5" tabindex="4">
<title>
v:4
</title>
</circle>
<circle cx="51" cy="94" i="5" r="0.5" tabindex="5">
<title>
v:5
</title>
</circle>
<circle cx="62" cy="26" i="6" r="0.5" tabindex="6">
<title>
v:6
</title>
</circle>
<circle cx="62" cy="84" i="7" r="0.5" tabindex="7">
<title>
v:7
</title>
</circle>
<circle cx="62" cy="89" i="8" r="0.5" tabindex="8">
<title>
v:8
</title>
</circle>
<circle cx="74" cy="94" i="9" r="0.5" tabindex="9">
<title>
v:9
</title>
</circle>
<circle cx="77" cy="79" i="10" r="0.5" tabindex="10">
<title>
v:10
</title>
</circle>
<circle cx="79" cy="67" i="11" r="0.5" tabindex="11">
<title>
v:11
</title>
</circle>
<circle cx="107" cy="47" i="12" r="0.5" tabindex="12">
<title>
v:12
</title>
</circle>
</g>
</svg>