<svg height="500" viewBox="0 -2 143 142" width="500" xmlns="http://www.w3.org/2000/svg">
<path class="hole" d="M21 20L12 27L13 38L2 34L5 46L7 66L8 73L10 80L16 73L16 66L25 64L35 63L35 70L27 78L16 84L9 93L2 103L19 95L33 100L2 116L9 123L23 122L32 127L43 125L55 124L42 135L71 125L77 122L85 134L98 126L95 138L105 137L115 137L133 138L123 131L105 125L117 122L125 118L141 112L141 99L134 103L127 108L121 113L112 107L104 102L80 94L112 95L123 98L113 82L127 88L140 88L141 79L124 80L141 65L115 74L117 66L104 49L118 54L132 60L127 50L141 16L124 41L129 13L121 0L117 17L111 8L106 1L97 0L89 0L82 13L90 17L104 13L101 30L93 49L85 69L79 51L65 40L44 32L34 31L24 35L28 26L36 20L36 11L44 9L45 0L28 6L26 12L2 0L10 12L6 18M0 -2L143 -2L143 140L0 140" style="fill:#00000066;fill-rule:evenodd;"/>
<circle cx="89" cy="111" r="5" style="fill:#ffff0066;" title="BreakALeg"/>
<circle cx="95" cy="84" r="5" style="fill:#ffff0066;" title="Globalist"/>
<path class="ok" d="M33 37L35 32M33 37L36 46M35 32L43 40M36 46L38 60M36 46L43 40M38 60L43 76M38 60L47 63M43 40L52 41M43 76L50 80M46 86L46 88M46 86L50 85M46 88L53 88M47 63L60 53M50 80L50 85M50 80L57 81M52 41L55 48M53 88L57 81M54 90L54 92M54 90L58 86M54 92L60 92M55 48L60 53M55 48L62 40M57 81L58 86M57 81L64 81M60 53L64 81M60 53L72 54M60 92L64 81M64 81L84 75M83 81L83 83M83 81L87 80M83 83L89 83M84 75L88 76M87 80L88 76M87 86L87 88M87 86L90 85M87 88L93 88M88 76L92 78M89 83L92 78M90 85L92 78M92 78L96 78M93 88L96 78M96 78L104 62M98 53L104 62" style="stroke:#0000ff;stroke-linecap:round"/>
<path class="out" d="M52 41L60 36M60 36L62 40M72 54L87 51M84 75L87 51M87 51L98 53" style="stroke:#ff0000;stroke-linecap:round"/>
<g fill="#333333">
<circle cx="21" cy="20" r="0.5" tabindex="0">
<title>
hole:0
</title>
</circle>
<circle cx="12" cy="27" r="0.5" tabindex="1">
<title>
hole:1
</title>
</circle>
<circle cx="13" cy="38" r="0.5" tabindex="2">
<title>
hole:2
</title>
</circle>
<circle cx="2" cy="34" r="0.5" tabindex="3">
<title>
hole:3
</title>
</circle>
<circle cx="5" cy="46" r="0.5" tabindex="4">
<title>
hole:4
</title>
</circle>
<circle cx="7" cy="66" r="0.5" tabindex="5">
<title>
hole:5
</title>
</circle>
<circle cx="8" cy="73" r="0.5" tabindex="6">
<title>
hole:6
</title>
</circle>
<circle cx="10" cy="80" r="0.5" tabindex="7">
<title>
hole:7
</title>
</circle>
<circle cx="16" cy="73" r="0.5" tabindex="8">
<title>
hole:8
</title>
</circle>
<circle cx="16" cy="66" r="0.5" tabindex="9">
<title>
hole:9
</title>
</circle>
<circle cx="25" cy="64" r="0.5" tabindex="10">
<title>
hole:10
</title>
</circle>
<circle cx="35" cy="63" r="0.5" tabindex="11">
<title>
hole:11
</title>
</circle>
<circle cx="35" cy="70" r="0.5" tabindex="12">
<title>
hole:12
</title>
</circle>
<circle cx="27" cy="78" r="0.5" tabindex="13">
<title>
hole:13
</title>
</circle>
<circle cx="16" cy="84" r="0.5" tabindex="14">
<title>
hole:14
</title>
</circle>
<circle cx="9" cy="93" r="0.5" tabindex="15">
<title>
hole:15
</title>
</circle>
<circle cx="2" cy="103" r="0.5" tabindex="16">
<title>
hole:16
</title>
</circle>
<circle cx="19" cy="95" r="0.5" tabindex="17">
<title>
hole:17
</title>
</circle>
<circle cx="33" cy="100" r="0.5" tabindex="18">
<title>
hole:18
</title>
</circle>
<circle cx="2" cy="116" r="0.5" tabindex="19">
<title>
hole:19
</title>
</circle>
<circle cx="9" cy="123" r="0.5" tabindex="20">
<title>
hole:20
</title>
</circle>
<circle cx="23" cy="122" r="0.5" tabindex="21">
<title>
hole:21
</title>
</circle>
<circle cx="32" cy="127" r="0.5" tabindex="22">
<title>
hole:22
</title>
</circle>
<circle cx="43" cy="125" r="0.5" tabindex="23">
<title>
hole:23
</title>
</circle>
<circle cx="55" cy="124" r="0.5" tabindex="24">
<title>
hole:24
</title>
</circle>
<circle cx="42" cy="135" r="0.5" tabindex="25">
<title>
hole:25
</title>
</circle>
<circle cx="71" cy="125" r="0.5" tabindex="26">
<title>
hole:26
</title>
</circle>
<circle cx="77" cy="122" r="0.5" tabindex="27">
<title>
hole:27
</title>
</circle>
<circle cx="85" cy="134" r="0.5" tabindex="28">
<title>
hole:28
</title>
</circle>
<circle cx="98" cy="126" r="0.5" tabindex="29">
<title>
hole:29
</title>
</circle>
<circle cx="95" cy="138" r="0.5" tabindex="30">
<title>
hole:30
</title>
</circle>
<circle cx="105" cy="137" r="0.5" tabindex="31">
<title>
hole:31
</title>
</circle>
<circle cx="115" cy="137" r="0.5" tabindex="32">
<title>
hole:32
</title>
</circle>
<circle cx="133" cy="138" r="0.5" tabindex="33">
<title>
hole:33
</title>
</circle>
<circle cx="123" cy="131" r="0.5" tabindex="34">
<title>
hole:34
</title>
</circle>
<circle cx="105" cy="125" r="0.5" tabindex="35">
<title>
hole:35
</title>
</circle>
<circle cx="117" cy="122" r="0.5" tabindex="36">
<title>
hole:36
</title>
</circle>
<circle cx="125" cy="118" r="0.5" tabindex="37">
<title>
hole:37
</title>
</circle>
<circle cx="141" cy="112" r="0.5" tabindex="38">
<title>
hole:38
</title>
</circle>
<circle cx="141" cy="99" r="0.5" tabindex="39">
<title>
hole:39
</title>
</circle>
<circle cx="134" cy="103" r="0.5" tabindex="40">
<title>
hole:40
</title>
</circle>
<circle cx="127" cy="108" r="0.5" tabindex="41">
<title>
hole:41
</title>
</circle>
<circle cx="121" cy="113" r="0.5" tabindex="42">
<title>
hole:42
</title>
</circle>
<circle cx="112" cy="107" r="0.5" tabindex="43">
<title>
hole:43
</title>
</circle>
<circle cx="104" cy="102" r="0.5" tabindex="44">
<title>
hole:44
</title>
</circle>
<circle cx="80" cy="94" r="0.5" tabindex="45">
<title>
hole:45
</title>
</circle>
<circle cx="112" cy="95" r="0.5" tabindex="46">
<title>
hole:46
</title>
</circle>
<circle cx="123" cy="98" r="0.5" tabindex="47">
<title>
hole:47
</title>
</circle>
<circle cx="113" cy="82" r="0.5" tabindex="48">
<title>
hole:48
</title>
</circle>
<circle cx="127" cy="88" r="0.5" tabindex="49">
<title>
hole:49
</title>
</circle>
<circle cx="140" cy="88" r="0.5" tabindex="50">
<title>
hole:50
</title>
</circle>
<circle cx="141" cy="79" r="0.5" tabindex="51">
<title>
hole:51
</title>
</circle>
<circle cx="124" cy="80" r="0.5" tabindex="52">
<title>
hole:52
</title>
</circle>
<circle cx="141" cy="65" r="0.5" tabindex="53">
<title>
hole:53
</title>
</circle>
<circle cx="115" cy="74" r="0.5" tabindex="54">
<title>
hole:54
</title>
</circle>
<circle cx="117" cy="66" r="0.5" tabindex="55">
<title>
hole:55
</title>
</circle>
<circle cx="104" cy="49" r="0.5" tabindex="56">
<title>
hole:56
</title>
</circle>
<circle cx="118" cy="54" r="0.5" tabindex="57">
<title>
hole:57
</title>
</circle>
<circle cx="132" cy="60" r="0.5" tabindex="58">
<title>
hole:58
</title>
</circle>
<circle cx="127" cy="50" r="0.5" tabindex="59">
<title>
hole:59
</title>
</circle>
<circle cx="141" cy="16" r="0.5" tabindex="60">
<title>
hole:60
</title>
</circle>
<circle cx="124" cy="41" r="0.5" tabindex="61">
<title>
hole:61
</title>
</circle>
<circle cx="129" cy="13" r="0.5" tabindex="62">
<title>
hole:62
</title>
</circle>
<circle cx="121" cy="0" r="0.5" tabindex="63">
<title>
hole:63
</title>
</circle>
<circle cx="117" cy="17" r="0.5" tabindex="64">
<title>
hole:64
</title>
</circle>
<circle cx="111" cy="8" r="0.5" tabindex="65">
<title>
hole:65
</title>
</circle>
<circle cx="106" cy="1" r="0.5" tabindex="66">
<title>
hole:66
</title>
</circle>
<circle cx="97" cy="0" r="0.5" tabindex="67">
<title>
hole:67
</title>
</circle>
<circle cx="89" cy="0" r="0.5" tabindex="68">
<title>
hole:68
</title>
</circle>
<circle cx="82" cy="13" r="0.5" tabindex="69">
<title>
hole:69
</title>
</circle>
<circle cx="90" cy="17" r="0.5" tabindex="70">
<title>
hole:70
</title>
</circle>
<circle cx="104" cy="13" r="0.5" tabindex="71">
<title>
hole:71
</title>
</circle>
<circle cx="101" cy="30" r="0.5" tabindex="72">
<title>
hole:72
</title>
</circle>
<circle cx="93" cy="49" r="0.5" tabindex="73">
<title>
hole:73
</title>
</circle>
<circle cx="85" cy="69" r="0.5" tabindex="74">
<title>
hole:74
</title>
</circle>
<circle cx="79" cy="51" r="0.5" tabindex="75">
<title>
hole:75
</title>
</circle>
<circle cx="65" cy="40" r="0.5" tabindex="76">
<title>
hole:76
</title>
</circle>
<circle cx="44" cy="32" r="0.5" tabindex="77">
<title>
hole:77
</title>
</circle>
<circle cx="34" cy="31" r="0.5" tabindex="78">
<title>
hole:78
</title>
</circle>
<circle cx="24" cy="35" r="0.5" tabindex="79">
<title>
hole:79
</title>
</circle>
<circle cx="28" cy="26" r="0.5" tabindex="80">
<title>
hole:80
</title>
</circle>
<circle cx="36" cy="20" r="0.5" tabindex="81">
<title>
hole:81
</title>
</circle>
<circle cx="36" cy="11" r="0.5" tabindex="82">
<title>
hole:82
</title>
</circle>
<circle cx="44" cy="9" r="0.5" tabindex="83">
<title>
hole:83
</title>
</circle>
<circle cx="45" cy="0" r="0.5" tabindex="84">
<title>
hole:84
</title>
</circle>
<circle cx="28" cy="6" r="0.5" tabindex="85">
<title>
hole:85
</title>
</circle>
<circle cx="26" cy="12" r="0.5" tabindex="86">
<title>
hole:86
</title>
</circle>
<circle cx="2" cy="0" r="0.5" tabindex="87">
<title>
hole:87
</title>
</circle>
<circle cx="10" cy="12" r="0.5" tabindex="88">
<title>
hole:88
</title>
</circle>
<circle cx="6" cy="18" r="0.5" tabindex="89">
<title>
hole:89
</title>
</circle>
</g>
<g fill="#999999">
<circle cx="33" cy="37" r="0.5" tabindex="90">
<title>
v:0
</title>
</circle>
<circle cx="35" cy="32" r="0.5" tabindex="91">
<title>
v:1
</title>
</circle>
<circle cx="36" cy="46" r="0.5" tabindex="92">
<title>
v:2
</title>
</circle>
<circle cx="38" cy="60" r="0.5" tabindex="93">
<title>
v:3
</title>
</circle>
<circle cx="43" cy="40" r="0.5" tabindex="94">
<title>
v:4
</title>
</circle>
<circle cx="43" cy="76" r="0.5" tabindex="95">
<title>
v:5
</title>
</circle>
<circle cx="46" cy="86" r="0.5" tabindex="96">
<title>
v:6
</title>
</circle>
<circle cx="46" cy="88" r="0.5" tabindex="97">
<title>
v:7
</title>
</circle>
<circle cx="47" cy="63" r="0.5" tabindex="98">
<title>
v:8
</title>
</circle>
<circle cx="50" cy="80" r="0.5" tabindex="99">
<title>
v:9
</title>
</circle>
<circle cx="50" cy="85" r="0.5" tabindex="100">
<title>
v:10
</title>
</circle>
<circle cx="52" cy="41" r="0.5" tabindex="101">
<title>
v:11
</title>
</circle>
<circle cx="53" cy="88" r="0.5" tabindex="102">
<title>
v:12
</title>
</circle>
<circle cx="54" cy="90" r="0.5" tabindex="103">
<title>
v:13
</title>
</circle>
<circle cx="54" cy="92" r="0.5" tabindex="104">
<title>
v:14
</title>
</circle>
<circle cx="55" cy="48" r="0.5" tabindex="105">
<title>
v:15
</title>
</circle>
<circle cx="57" cy="81" r="0.5" tabindex="106">
<title>
v:16
</title>
</circle>
<circle cx="58" cy="86" r="0.5" tabindex="107">
<title>
v:17
</title>
</circle>
<circle cx="60" cy="36" r="0.5" tabindex="108">
<title>
v:18
</title>
</circle>
<circle cx="60" cy="53" r="0.5" tabindex="109">
<title>
v:19
</title>
</circle>
<circle cx="60" cy="92" r="0.5" tabindex="110">
<title>
v:20
</title>
</circle>
<circle cx="62" cy="40" r="0.5" tabindex="111">
<title>
v:21
</title>
</circle>
<circle cx="64" cy="81" r="0.5" tabindex="112">
<title>
v:22
</title>
</circle>
<circle cx="72" cy="54" r="0.5" tabindex="113">
<title>
v:23
</title>
</circle>
<circle cx="83" cy="81" r="0.5" tabindex="114">
<title>
v:24
</title>
</circle>
<circle cx="83" cy="83" r="0.5" tabindex="115">
<title>
v:25
</title>
</circle>
<circle cx="84" cy="75" r="0.5" tabindex="116">
<title>
v:26
</title>
</circle>
<circle cx="87" cy="51" r="0.5" tabindex="117">
<title>
v:27
</title>
</circle>
<circle cx="87" cy="80" r="0.5" tabindex="118">
<title>
v:28
</title>
</circle>
<circle cx="87" cy="86" r="0.5" tabindex="119">
<title>
v:29
</title>
</circle>
<circle cx="87" cy="88" r="0.5" tabindex="120">
<title>
v:30
</title>
</circle>
<circle cx="88" cy="76" r="0.5" tabindex="121">
<title>
v:31
</title>
</circle>
<circle cx="89" cy="83" r="0.5" tabindex="122">
<title>
v:32
</title>
</circle>
<circle cx="90" cy="85" r="0.5" tabindex="123">
<title>
v:33
</title>
</circle>
<circle cx="92" cy="78" r="0.5" tabindex="124">
<title>
v:34
</title>
</circle>
<circle cx="93" cy="88" r="0.5" tabindex="125">
<title>
v:35
</title>
</circle>
<circle cx="96" cy="78" r="0.5" tabindex="126">
<title>
v:36
</title>
</circle>
<circle cx="98" cy="53" r="0.5" tabindex="127">
<title>
v:37
</title>
</circle>
<circle cx="104" cy="62" r="0.5" tabindex="128">
<title>
v:38
</title>
</circle>
</g>
</svg>