<svg height="500" viewBox="0 -2 143 142" width="500" xmlns="http://www.w3.org/2000/svg">
<path class="hole" d="M21 20L12 27L13 38L2 34L5 46L7 66L8 73L10 80L16 73L16 66L25 64L35 63L35 70L27 78L16 84L9 93L2 103L19 95L33 100L2 116L9 123L23 122L32 127L43 125L55 124L42 135L71 125L77 122L85 134L98 126L95 138L105 137L115 137L133 138L123 131L105 125L117 122L125 118L141 112L141 99L134 103L127 108L121 113L112 107L104 102L80 94L112 95L123 98L113 82L127 88L140 88L141 79L124 80L141 65L115 74L117 66L104 49L118 54L132 60L127 50L141 16L124 41L129 13L121 0L117 17L111 8L106 1L97 0L89 0L82 13L90 17L104 13L101 30L93 49L85 69L79 51L65 40L44 32L34 31L24 35L28 26L36 20L36 11L44 9L45 0L28 6L26 12L2 0L10 12L6 18M0 -2L143 -2L143 140L0 140" style="fill:#00000066;fill-rule:evenodd;"/>
<circle cx="89" cy="111" fill="#ffff0066" r="5">
<title>
BreakALeg@103
</title>
</circle>
<circle cx="95" cy="84" fill="#ffff0066" r="5">
<title>
Globalist@18
</title>
</circle>
<circle cx="101" cy="66" fill="#ffff0066" r="5">
<title>
SuperFlex@95
</title>
</circle>
<path class="ok" d="M35 37L37 32M35 37L38 46M37 32L45 40M38 46L40 60M38 46L45 40M40 60L45 76M40 60L49 63M45 40L54 41M45 76L52 80M48 86L48 88M48 86L52 85M48 88L55 88M49 63L62 53M52 80L52 85M52 80L59 81M54 41L57 48M55 88L59 81M56 90L56 92M56 90L60 86M56 92L62 92M57 48L62 53M57 48L64 40M59 81L60 86M59 81L66 81M62 53L66 81M62 53L74 54M62 92L66 81M66 81L86 75M85 81L85 83M85 81L89 80M85 83L91 83M86 75L90 76M89 80L90 76M89 86L89 88M89 86L92 85M89 88L95 88M90 76L94 78M91 83L94 78M92 85L94 78M94 78L98 78M95 88L98 78M98 78L106 62M100 53L106 62" style="stroke:#0000ff;stroke-linecap:round"/>
<path class="out" d="M54 41L62 36M62 36L64 40M74 54L89 51M86 75L89 51M89 51L100 53" style="stroke:#ff0000;stroke-linecap:round"/>
<g fill="#333333">
<circle cx="21" cy="20" r="0.5">
<title>
hole:0
</title>
</circle>
<circle cx="12" cy="27" r="0.5">
<title>
hole:1
</title>
</circle>
<circle cx="13" cy="38" r="0.5">
<title>
hole:2
</title>
</circle>
<circle cx="2" cy="34" r="0.5">
<title>
hole:3
</title>
</circle>
<circle cx="5" cy="46" r="0.5">
<title>
hole:4
</title>
</circle>
<circle cx="7" cy="66" r="0.5">
<title>
hole:5
</title>
</circle>
<circle cx="8" cy="73" r="0.5">
<title>
hole:6
</title>
</circle>
<circle cx="10" cy="80" r="0.5">
<title>
hole:7
</title>
</circle>
<circle cx="16" cy="73" r="0.5">
<title>
hole:8
</title>
</circle>
<circle cx="16" cy="66" r="0.5">
<title>
hole:9
</title>
</circle>
<circle cx="25" cy="64" r="0.5">
<title>
hole:10
</title>
</circle>
<circle cx="35" cy="63" r="0.5">
<title>
hole:11
</title>
</circle>
<circle cx="35" cy="70" r="0.5">
<title>
hole:12
</title>
</circle>
<circle cx="27" cy="78" r="0.5">
<title>
hole:13
</title>
</circle>
<circle cx="16" cy="84" r="0.5">
<title>
hole:14
</title>
</circle>
<circle cx="9" cy="93" r="0.5">
<title>
hole:15
</title>
</circle>
<circle cx="2" cy="103" r="0.5">
<title>
hole:16
</title>
</circle>
<circle cx="19" cy="95" r="0.5">
<title>
hole:17
</title>
</circle>
<circle cx="33" cy="100" r="0.5">
<title>
hole:18
</title>
</circle>
<circle cx="2" cy="116" r="0.5">
<title>
hole:19
</title>
</circle>
<circle cx="9" cy="123" r="0.5">
<title>
hole:20
</title>
</circle>
<circle cx="23" cy="122" r="0.5">
<title>
hole:21
</title>
</circle>
<circle cx="32" cy="127" r="0.5">
<title>
hole:22
</title>
</circle>
<circle cx="43" cy="125" r="0.5">
<title>
hole:23
</title>
</circle>
<circle cx="55" cy="124" r="0.5">
<title>
hole:24
</title>
</circle>
<circle cx="42" cy="135" r="0.5">
<title>
hole:25
</title>
</circle>
<circle cx="71" cy="125" r="0.5">
<title>
hole:26
</title>
</circle>
<circle cx="77" cy="122" r="0.5">
<title>
hole:27
</title>
</circle>
<circle cx="85" cy="134" r="0.5">
<title>
hole:28
</title>
</circle>
<circle cx="98" cy="126" r="0.5">
<title>
hole:29
</title>
</circle>
<circle cx="95" cy="138" r="0.5">
<title>
hole:30
</title>
</circle>
<circle cx="105" cy="137" r="0.5">
<title>
hole:31
</title>
</circle>
<circle cx="115" cy="137" r="0.5">
<title>
hole:32
</title>
</circle>
<circle cx="133" cy="138" r="0.5">
<title>
hole:33
</title>
</circle>
<circle cx="123" cy="131" r="0.5">
<title>
hole:34
</title>
</circle>
<circle cx="105" cy="125" r="0.5">
<title>
hole:35
</title>
</circle>
<circle cx="117" cy="122" r="0.5">
<title>
hole:36
</title>
</circle>
<circle cx="125" cy="118" r="0.5">
<title>
hole:37
</title>
</circle>
<circle cx="141" cy="112" r="0.5">
<title>
hole:38
</title>
</circle>
<circle cx="141" cy="99" r="0.5">
<title>
hole:39
</title>
</circle>
<circle cx="134" cy="103" r="0.5">
<title>
hole:40
</title>
</circle>
<circle cx="127" cy="108" r="0.5">
<title>
hole:41
</title>
</circle>
<circle cx="121" cy="113" r="0.5">
<title>
hole:42
</title>
</circle>
<circle cx="112" cy="107" r="0.5">
<title>
hole:43
</title>
</circle>
<circle cx="104" cy="102" r="0.5">
<title>
hole:44
</title>
</circle>
<circle cx="80" cy="94" r="0.5">
<title>
hole:45
</title>
</circle>
<circle cx="112" cy="95" r="0.5">
<title>
hole:46
</title>
</circle>
<circle cx="123" cy="98" r="0.5">
<title>
hole:47
</title>
</circle>
<circle cx="113" cy="82" r="0.5">
<title>
hole:48
</title>
</circle>
<circle cx="127" cy="88" r="0.5">
<title>
hole:49
</title>
</circle>
<circle cx="140" cy="88" r="0.5">
<title>
hole:50
</title>
</circle>
<circle cx="141" cy="79" r="0.5">
<title>
hole:51
</title>
</circle>
<circle cx="124" cy="80" r="0.5">
<title>
hole:52
</title>
</circle>
<circle cx="141" cy="65" r="0.5">
<title>
hole:53
</title>
</circle>
<circle cx="115" cy="74" r="0.5">
<title>
hole:54
</title>
</circle>
<circle cx="117" cy="66" r="0.5">
<title>
hole:55
</title>
</circle>
<circle cx="104" cy="49" r="0.5">
<title>
hole:56
</title>
</circle>
<circle cx="118" cy="54" r="0.5">
<title>
hole:57
</title>
</circle>
<circle cx="132" cy="60" r="0.5">
<title>
hole:58
</title>
</circle>
<circle cx="127" cy="50" r="0.5">
<title>
hole:59
</title>
</circle>
<circle cx="141" cy="16" r="0.5">
<title>
hole:60
</title>
</circle>
<circle cx="124" cy="41" r="0.5">
<title>
hole:61
</title>
</circle>
<circle cx="129" cy="13" r="0.5">
<title>
hole:62
</title>
</circle>
<circle cx="121" cy="0" r="0.5">
<title>
hole:63
</title>
</circle>
<circle cx="117" cy="17" r="0.5">
<title>
hole:64
</title>
</circle>
<circle cx="111" cy="8" r="0.5">
<title>
hole:65
</title>
</circle>
<circle cx="106" cy="1" r="0.5">
<title>
hole:66
</title>
</circle>
<circle cx="97" cy="0" r="0.5">
<title>
hole:67
</title>
</circle>
<circle cx="89" cy="0" r="0.5">
<title>
hole:68
</title>
</circle>
<circle cx="82" cy="13" r="0.5">
<title>
hole:69
</title>
</circle>
<circle cx="90" cy="17" r="0.5">
<title>
hole:70
</title>
</circle>
<circle cx="104" cy="13" r="0.5">
<title>
hole:71
</title>
</circle>
<circle cx="101" cy="30" r="0.5">
<title>
hole:72
</title>
</circle>
<circle cx="93" cy="49" r="0.5">
<title>
hole:73
</title>
</circle>
<circle cx="85" cy="69" r="0.5">
<title>
hole:74
</title>
</circle>
<circle cx="79" cy="51" r="0.5">
<title>
hole:75
</title>
</circle>
<circle cx="65" cy="40" r="0.5">
<title>
hole:76
</title>
</circle>
<circle cx="44" cy="32" r="0.5">
<title>
hole:77
</title>
</circle>
<circle cx="34" cy="31" r="0.5">
<title>
hole:78
</title>
</circle>
<circle cx="24" cy="35" r="0.5">
<title>
hole:79
</title>
</circle>
<circle cx="28" cy="26" r="0.5">
<title>
hole:80
</title>
</circle>
<circle cx="36" cy="20" r="0.5">
<title>
hole:81
</title>
</circle>
<circle cx="36" cy="11" r="0.5">
<title>
hole:82
</title>
</circle>
<circle cx="44" cy="9" r="0.5">
<title>
hole:83
</title>
</circle>
<circle cx="45" cy="0" r="0.5">
<title>
hole:84
</title>
</circle>
<circle cx="28" cy="6" r="0.5">
<title>
hole:85
</title>
</circle>
<circle cx="26" cy="12" r="0.5">
<title>
hole:86
</title>
</circle>
<circle cx="2" cy="0" r="0.5">
<title>
hole:87
</title>
</circle>
<circle cx="10" cy="12" r="0.5">
<title>
hole:88
</title>
</circle>
<circle cx="6" cy="18" r="0.5">
<title>
hole:89
</title>
</circle>
</g>
<g fill="#999999">
<circle cx="35" cy="37" i="0" r="0.5" tabindex="0">
<title>
v:0
</title>
</circle>
<circle cx="37" cy="32" i="1" r="0.5" tabindex="1">
<title>
v:1
</title>
</circle>
<circle cx="38" cy="46" i="2" r="0.5" tabindex="2">
<title>
v:2
</title>
</circle>
<circle cx="40" cy="60" i="3" r="0.5" tabindex="3">
<title>
v:3
</title>
</circle>
<circle cx="45" cy="40" i="4" r="0.5" tabindex="4">
<title>
v:4
</title>
</circle>
<circle cx="45" cy="76" i="5" r="0.5" tabindex="5">
<title>
v:5
</title>
</circle>
<circle cx="48" cy="86" i="6" r="0.5" tabindex="6">
<title>
v:6
</title>
</circle>
<circle cx="48" cy="88" i="7" r="0.5" tabindex="7">
<title>
v:7
</title>
</circle>
<circle cx="49" cy="63" i="8" r="0.5" tabindex="8">
<title>
v:8
</title>
</circle>
<circle cx="52" cy="80" i="9" r="0.5" tabindex="9">
<title>
v:9
</title>
</circle>
<circle cx="52" cy="85" i="10" r="0.5" tabindex="10">
<title>
v:10
</title>
</circle>
<circle cx="54" cy="41" i="11" r="0.5" tabindex="11">
<title>
v:11
</title>
</circle>
<circle cx="55" cy="88" i="12" r="0.5" tabindex="12">
<title>
v:12
</title>
</circle>
<circle cx="56" cy="90" i="13" r="0.5" tabindex="13">
<title>
v:13
</title>
</circle>
<circle cx="56" cy="92" i="14" r="0.5" tabindex="14">
<title>
v:14
</title>
</circle>
<circle cx="57" cy="48" i="15" r="0.5" tabindex="15">
<title>
v:15
</title>
</circle>
<circle cx="59" cy="81" i="16" r="0.5" tabindex="16">
<title>
v:16
</title>
</circle>
<circle cx="60" cy="86" i="17" r="0.5" tabindex="17">
<title>
v:17
</title>
</circle>
<circle cx="62" cy="36" i="18" r="0.5" tabindex="18">
<title>
v:18
</title>
</circle>
<circle cx="62" cy="53" i="19" r="0.5" tabindex="19">
<title>
v:19
</title>
</circle>
<circle cx="62" cy="92" i="20" r="0.5" tabindex="20">
<title>
v:20
</title>
</circle>
<circle cx="64" cy="40" i="21" r="0.5" tabindex="21">
<title>
v:21
</title>
</circle>
<circle cx="66" cy="81" i="22" r="0.5" tabindex="22">
<title>
v:22
</title>
</circle>
<circle cx="74" cy="54" i="23" r="0.5" tabindex="23">
<title>
v:23
</title>
</circle>
<circle cx="85" cy="81" i="24" r="0.5" tabindex="24">
<title>
v:24
</title>
</circle>
<circle cx="85" cy="83" i="25" r="0.5" tabindex="25">
<title>
v:25
</title>
</circle>
<circle cx="86" cy="75" i="26" r="0.5" tabindex="26">
<title>
v:26
</title>
</circle>
<circle cx="89" cy="51" i="27" r="0.5" tabindex="27">
<title>
v:27
</title>
</circle>
<circle cx="89" cy="80" i="28" r="0.5" tabindex="28">
<title>
v:28
</title>
</circle>
<circle cx="89" cy="86" i="29" r="0.5" tabindex="29">
<title>
v:29
</title>
</circle>
<circle cx="89" cy="88" i="30" r="0.5" tabindex="30">
<title>
v:30
</title>
</circle>
<circle cx="90" cy="76" i="31" r="0.5" tabindex="31">
<title>
v:31
</title>
</circle>
<circle cx="91" cy="83" i="32" r="0.5" tabindex="32">
<title>
v:32
</title>
</circle>
<circle cx="92" cy="85" i="33" r="0.5" tabindex="33">
<title>
v:33
</title>
</circle>
<circle cx="94" cy="78" i="34" r="0.5" tabindex="34">
<title>
v:34
</title>
</circle>
<circle cx="95" cy="88" i="35" r="0.5" tabindex="35">
<title>
v:35
</title>
</circle>
<circle cx="98" cy="78" i="36" r="0.5" tabindex="36">
<title>
v:36
</title>
</circle>
<circle cx="100" cy="53" i="37" r="0.5" tabindex="37">
<title>
v:37
</title>
</circle>
<circle cx="106" cy="62" i="38" r="0.5" tabindex="38">
<title>
v:38
</title>
</circle>
</g>
</svg>