<svg height="500" viewBox="-1 3 162 154" width="500" xmlns="http://www.w3.org/2000/svg">
<path class="hole" d="M90 155L155 155L155 80L120 75L155 60L155 5L95 5L85 35L75 5L5 5L5 60L45 70L5 80L5 155L70 155L80 125M-1 3L161 3L161 157L-1 157" style="fill:#00000066;fill-rule:evenodd;stroke:none;"/>
<circle cx="119" cy="5" r="5" style="fill:#ffff0066;stroke:none;"/>
<path class="ok" d="M6 118L8 123M6 118L22 115M8 103L19 94M8 123L17 119M9 80L13 86M9 128L13 131M9 128L20 121M13 86L19 94M13 131L25 118M17 119L20 121M17 119L22 115M20 121L25 118M22 115L25 118M22 115L37 98M25 118L42 102M37 98L42 102M37 98L56 92M42 102L58 109M46 145L48 152M46 145L54 143M48 152L64 152M54 12L61 7M54 12L61 18M54 143L58 109M54 143L67 143M56 92L60 55M56 92L69 82M56 92L114 87M58 109L102 108M60 55L61 32M60 55L65 64M60 55L111 58M61 7L68 13M61 18L61 32M61 18L68 13M61 32L78 33M64 152L67 143M65 64L71 71M65 64L72 57M69 74L69 82M69 74L75 74M69 82L75 82M71 71L77 65M72 57L77 65M74 24L75 21M74 24L78 24M75 74L75 82M75 74L81 74M75 82L81 82M77 65L82 66M78 24L78 33M78 33L82 34M81 74L81 82M81 74L87 74M81 82L87 82M82 34L101 41M82 66L85 63M82 66L85 70M85 63L88 66M85 70L87 74M85 70L88 66M87 74L87 82M87 74L93 74M87 82L93 81M88 66L94 65M89 147L91 152M89 147L95 146M91 152L104 152M93 74L93 81M93 74L99 74M93 81L99 80M94 65L98 70M94 65L99 59M95 146L102 108M95 146L105 144M98 14L103 22M98 14L106 12M98 70L103 65M99 59L103 65M99 74L99 80M99 74L105 74M99 80L105 79M101 41L103 22M101 41L111 58M101 41L125 70M102 108L125 85M103 22L112 20M103 65L111 58M104 152L105 144M105 74L105 79M105 79L114 87M106 12L112 20M111 58L114 87M114 87L125 85M125 25L130 43M125 25L133 26M125 70L138 47M125 85L133 91M129 105L133 91M129 105L133 105M130 43L138 47M133 26L140 43M133 91L133 105M133 91L138 98M133 91L145 89M138 47L140 43M138 47L148 48M138 98L138 104M138 98L144 98M138 104L144 104M140 43L154 33M144 98L144 104M145 89L148 85M145 89L149 92M148 85L152 89M149 92L152 89" style="fill:none;stroke:#0000ff;stroke-linecap:round"/>
<path class="out" d="M1 93L8 103M1 93L9 80M13 86L33 69M33 69L37 98M33 69L61 32M75 21L85 23M78 24L82 24M82 24L82 34M82 24L85 23M125 70L125 85M148 48L159 36M154 33L159 36" style="fill:none;stroke:#ff0000;stroke-linecap:round"/>
</svg>