<svg height="500" viewBox="1 3 162 154" width="500" xmlns="http://www.w3.org/2000/svg">
<path class="hole" d="M92 155L157 155L157 80L122 75L157 60L157 5L97 5L87 35L77 5L7 5L7 60L47 70L7 80L7 155L72 155L82 125M1 3L163 3L163 157L1 157" style="fill:#00000066;fill-rule:evenodd;"/>
<circle cx="121" cy="5" fill="#ffff0066" r="5">
<title>
BreakALeg@14
</title>
</circle>
<circle cx="7" cy="32" fill="#ffff0066" r="5">
<title>
SuperFlex@60
</title>
</circle>
<circle cx="109" cy="134" fill="#ffff0066" r="5">
<title>
Globalist@64
</title>
</circle>
<path class="ok" d="M8 118L10 123M8 118L24 115M10 103L21 94M10 123L19 119M11 80L15 86M11 128L15 131M11 128L22 121M15 86L21 94M15 131L27 118M19 119L22 121M19 119L24 115M22 121L27 118M24 115L27 118M24 115L39 98M27 118L44 102M39 98L44 102M39 98L58 92M44 102L60 109M48 145L50 152M48 145L56 143M50 152L66 152M56 12L63 7M56 12L63 18M56 143L60 109M56 143L69 143M58 92L62 55M58 92L71 82M58 92L116 87M60 109L104 108M62 55L63 32M62 55L67 64M62 55L113 58M63 7L70 13M63 18L63 32M63 18L70 13M63 32L80 33M66 152L69 143M67 64L73 71M67 64L74 57M71 74L71 82M71 74L77 74M71 82L77 82M73 71L79 65M74 57L79 65M76 24L77 21M76 24L80 24M77 74L77 82M77 74L83 74M77 82L83 82M79 65L84 66M80 24L80 33M80 33L84 34M83 74L83 82M83 74L89 74M83 82L89 82M84 34L103 41M84 66L87 63M84 66L87 70M87 63L90 66M87 70L89 74M87 70L90 66M89 74L89 82M89 74L95 74M89 82L95 81M90 66L96 65M91 147L93 152M91 147L97 146M93 152L106 152M95 74L95 81M95 74L101 74M95 81L101 80M96 65L100 70M96 65L101 59M97 146L104 108M97 146L107 144M100 14L105 22M100 14L108 12M100 70L105 65M101 59L105 65M101 74L101 80M101 74L107 74M101 80L107 79M103 41L105 22M103 41L113 58M103 41L127 70M104 108L127 85M105 22L114 20M105 65L113 58M106 152L107 144M107 74L107 79M107 79L116 87M108 12L114 20M113 58L116 87M116 87L127 85M127 25L132 43M127 25L135 26M127 70L140 47M127 85L135 91M131 105L135 91M131 105L135 105M132 43L140 47M135 26L142 43M135 91L135 105M135 91L140 98M135 91L147 89M140 47L142 43M140 47L150 48M140 98L140 104M140 98L146 98M140 104L146 104M142 43L156 33M146 98L146 104M147 89L150 85M147 89L151 92M150 85L154 89M151 92L154 89" style="stroke:#0000ff;stroke-linecap:round"/>
<path class="out" d="M3 93L10 103M3 93L11 80M15 86L35 69M35 69L39 98M35 69L63 32M77 21L87 23M80 24L84 24M84 24L84 34M84 24L87 23M127 70L127 85M150 48L161 36M156 33L161 36" style="stroke:#ff0000;stroke-linecap:round"/>
<g fill="#333333">
<circle cx="92" cy="155" r="0.5">
<title>
hole:0
</title>
</circle>
<circle cx="157" cy="155" r="0.5">
<title>
hole:1
</title>
</circle>
<circle cx="157" cy="80" r="0.5">
<title>
hole:2
</title>
</circle>
<circle cx="122" cy="75" r="0.5">
<title>
hole:3
</title>
</circle>
<circle cx="157" cy="60" r="0.5">
<title>
hole:4
</title>
</circle>
<circle cx="157" cy="5" r="0.5">
<title>
hole:5
</title>
</circle>
<circle cx="97" cy="5" r="0.5">
<title>
hole:6
</title>
</circle>
<circle cx="87" cy="35" r="0.5">
<title>
hole:7
</title>
</circle>
<circle cx="77" cy="5" r="0.5">
<title>
hole:8
</title>
</circle>
<circle cx="7" cy="5" r="0.5">
<title>
hole:9
</title>
</circle>
<circle cx="7" cy="60" r="0.5">
<title>
hole:10
</title>
</circle>
<circle cx="47" cy="70" r="0.5">
<title>
hole:11
</title>
</circle>
<circle cx="7" cy="80" r="0.5">
<title>
hole:12
</title>
</circle>
<circle cx="7" cy="155" r="0.5">
<title>
hole:13
</title>
</circle>
<circle cx="72" cy="155" r="0.5">
<title>
hole:14
</title>
</circle>
<circle cx="82" cy="125" r="0.5">
<title>
hole:15
</title>
</circle>
</g>
<g fill="#999999">
<circle cx="3" cy="93" i="0" r="0.5" tabindex="0">
<title>
v:0
</title>
</circle>
<circle cx="8" cy="118" i="1" r="0.5" tabindex="1">
<title>
v:1
</title>
</circle>
<circle cx="10" cy="103" i="2" r="0.5" tabindex="2">
<title>
v:2
</title>
</circle>
<circle cx="10" cy="123" i="3" r="0.5" tabindex="3">
<title>
v:3
</title>
</circle>
<circle cx="11" cy="80" i="4" r="0.5" tabindex="4">
<title>
v:4
</title>
</circle>
<circle cx="11" cy="128" i="5" r="0.5" tabindex="5">
<title>
v:5
</title>
</circle>
<circle cx="15" cy="86" i="6" r="0.5" tabindex="6">
<title>
v:6
</title>
</circle>
<circle cx="15" cy="131" i="7" r="0.5" tabindex="7">
<title>
v:7
</title>
</circle>
<circle cx="19" cy="119" i="8" r="0.5" tabindex="8">
<title>
v:8
</title>
</circle>
<circle cx="21" cy="94" i="9" r="0.5" tabindex="9">
<title>
v:9
</title>
</circle>
<circle cx="22" cy="121" i="10" r="0.5" tabindex="10">
<title>
v:10
</title>
</circle>
<circle cx="24" cy="115" i="11" r="0.5" tabindex="11">
<title>
v:11
</title>
</circle>
<circle cx="27" cy="118" i="12" r="0.5" tabindex="12">
<title>
v:12
</title>
</circle>
<circle cx="35" cy="69" i="13" r="0.5" tabindex="13">
<title>
v:13
</title>
</circle>
<circle cx="39" cy="98" i="14" r="0.5" tabindex="14">
<title>
v:14
</title>
</circle>
<circle cx="44" cy="102" i="15" r="0.5" tabindex="15">
<title>
v:15
</title>
</circle>
<circle cx="48" cy="145" i="16" r="0.5" tabindex="16">
<title>
v:16
</title>
</circle>
<circle cx="50" cy="152" i="17" r="0.5" tabindex="17">
<title>
v:17
</title>
</circle>
<circle cx="56" cy="12" i="18" r="0.5" tabindex="18">
<title>
v:18
</title>
</circle>
<circle cx="56" cy="143" i="19" r="0.5" tabindex="19">
<title>
v:19
</title>
</circle>
<circle cx="58" cy="92" i="20" r="0.5" tabindex="20">
<title>
v:20
</title>
</circle>
<circle cx="60" cy="109" i="21" r="0.5" tabindex="21">
<title>
v:21
</title>
</circle>
<circle cx="62" cy="55" i="22" r="0.5" tabindex="22">
<title>
v:22
</title>
</circle>
<circle cx="63" cy="7" i="23" r="0.5" tabindex="23">
<title>
v:23
</title>
</circle>
<circle cx="63" cy="18" i="24" r="0.5" tabindex="24">
<title>
v:24
</title>
</circle>
<circle cx="63" cy="32" i="25" r="0.5" tabindex="25">
<title>
v:25
</title>
</circle>
<circle cx="66" cy="152" i="26" r="0.5" tabindex="26">
<title>
v:26
</title>
</circle>
<circle cx="67" cy="64" i="27" r="0.5" tabindex="27">
<title>
v:27
</title>
</circle>
<circle cx="69" cy="143" i="28" r="0.5" tabindex="28">
<title>
v:28
</title>
</circle>
<circle cx="70" cy="13" i="29" r="0.5" tabindex="29">
<title>
v:29
</title>
</circle>
<circle cx="71" cy="74" i="30" r="0.5" tabindex="30">
<title>
v:30
</title>
</circle>
<circle cx="71" cy="82" i="31" r="0.5" tabindex="31">
<title>
v:31
</title>
</circle>
<circle cx="73" cy="71" i="32" r="0.5" tabindex="32">
<title>
v:32
</title>
</circle>
<circle cx="74" cy="57" i="33" r="0.5" tabindex="33">
<title>
v:33
</title>
</circle>
<circle cx="76" cy="24" i="34" r="0.5" tabindex="34">
<title>
v:34
</title>
</circle>
<circle cx="77" cy="21" i="35" r="0.5" tabindex="35">
<title>
v:35
</title>
</circle>
<circle cx="77" cy="74" i="36" r="0.5" tabindex="36">
<title>
v:36
</title>
</circle>
<circle cx="77" cy="82" i="37" r="0.5" tabindex="37">
<title>
v:37
</title>
</circle>
<circle cx="79" cy="65" i="38" r="0.5" tabindex="38">
<title>
v:38
</title>
</circle>
<circle cx="80" cy="24" i="39" r="0.5" tabindex="39">
<title>
v:39
</title>
</circle>
<circle cx="80" cy="33" i="40" r="0.5" tabindex="40">
<title>
v:40
</title>
</circle>
<circle cx="83" cy="74" i="41" r="0.5" tabindex="41">
<title>
v:41
</title>
</circle>
<circle cx="83" cy="82" i="42" r="0.5" tabindex="42">
<title>
v:42
</title>
</circle>
<circle cx="84" cy="24" i="43" r="0.5" tabindex="43">
<title>
v:43
</title>
</circle>
<circle cx="84" cy="34" i="44" r="0.5" tabindex="44">
<title>
v:44
</title>
</circle>
<circle cx="84" cy="66" i="45" r="0.5" tabindex="45">
<title>
v:45
</title>
</circle>
<circle cx="87" cy="23" i="46" r="0.5" tabindex="46">
<title>
v:46
</title>
</circle>
<circle cx="87" cy="63" i="47" r="0.5" tabindex="47">
<title>
v:47
</title>
</circle>
<circle cx="87" cy="70" i="48" r="0.5" tabindex="48">
<title>
v:48
</title>
</circle>
<circle cx="89" cy="74" i="49" r="0.5" tabindex="49">
<title>
v:49
</title>
</circle>
<circle cx="89" cy="82" i="50" r="0.5" tabindex="50">
<title>
v:50
</title>
</circle>
<circle cx="90" cy="66" i="51" r="0.5" tabindex="51">
<title>
v:51
</title>
</circle>
<circle cx="91" cy="147" i="52" r="0.5" tabindex="52">
<title>
v:52
</title>
</circle>
<circle cx="93" cy="152" i="53" r="0.5" tabindex="53">
<title>
v:53
</title>
</circle>
<circle cx="95" cy="74" i="54" r="0.5" tabindex="54">
<title>
v:54
</title>
</circle>
<circle cx="95" cy="81" i="55" r="0.5" tabindex="55">
<title>
v:55
</title>
</circle>
<circle cx="96" cy="65" i="56" r="0.5" tabindex="56">
<title>
v:56
</title>
</circle>
<circle cx="97" cy="146" i="57" r="0.5" tabindex="57">
<title>
v:57
</title>
</circle>
<circle cx="100" cy="14" i="58" r="0.5" tabindex="58">
<title>
v:58
</title>
</circle>
<circle cx="100" cy="70" i="59" r="0.5" tabindex="59">
<title>
v:59
</title>
</circle>
<circle cx="101" cy="59" i="60" r="0.5" tabindex="60">
<title>
v:60
</title>
</circle>
<circle cx="101" cy="74" i="61" r="0.5" tabindex="61">
<title>
v:61
</title>
</circle>
<circle cx="101" cy="80" i="62" r="0.5" tabindex="62">
<title>
v:62
</title>
</circle>
<circle cx="103" cy="41" i="63" r="0.5" tabindex="63">
<title>
v:63
</title>
</circle>
<circle cx="104" cy="108" i="64" r="0.5" tabindex="64">
<title>
v:64
</title>
</circle>
<circle cx="105" cy="22" i="65" r="0.5" tabindex="65">
<title>
v:65
</title>
</circle>
<circle cx="105" cy="65" i="66" r="0.5" tabindex="66">
<title>
v:66
</title>
</circle>
<circle cx="106" cy="152" i="67" r="0.5" tabindex="67">
<title>
v:67
</title>
</circle>
<circle cx="107" cy="74" i="68" r="0.5" tabindex="68">
<title>
v:68
</title>
</circle>
<circle cx="107" cy="79" i="69" r="0.5" tabindex="69">
<title>
v:69
</title>
</circle>
<circle cx="107" cy="144" i="70" r="0.5" tabindex="70">
<title>
v:70
</title>
</circle>
<circle cx="108" cy="12" i="71" r="0.5" tabindex="71">
<title>
v:71
</title>
</circle>
<circle cx="113" cy="58" i="72" r="0.5" tabindex="72">
<title>
v:72
</title>
</circle>
<circle cx="114" cy="20" i="73" r="0.5" tabindex="73">
<title>
v:73
</title>
</circle>
<circle cx="116" cy="87" i="74" r="0.5" tabindex="74">
<title>
v:74
</title>
</circle>
<circle cx="127" cy="25" i="75" r="0.5" tabindex="75">
<title>
v:75
</title>
</circle>
<circle cx="127" cy="70" i="76" r="0.5" tabindex="76">
<title>
v:76
</title>
</circle>
<circle cx="127" cy="85" i="77" r="0.5" tabindex="77">
<title>
v:77
</title>
</circle>
<circle cx="131" cy="105" i="78" r="0.5" tabindex="78">
<title>
v:78
</title>
</circle>
<circle cx="132" cy="43" i="79" r="0.5" tabindex="79">
<title>
v:79
</title>
</circle>
<circle cx="135" cy="26" i="80" r="0.5" tabindex="80">
<title>
v:80
</title>
</circle>
<circle cx="135" cy="91" i="81" r="0.5" tabindex="81">
<title>
v:81
</title>
</circle>
<circle cx="135" cy="105" i="82" r="0.5" tabindex="82">
<title>
v:82
</title>
</circle>
<circle cx="140" cy="47" i="83" r="0.5" tabindex="83">
<title>
v:83
</title>
</circle>
<circle cx="140" cy="98" i="84" r="0.5" tabindex="84">
<title>
v:84
</title>
</circle>
<circle cx="140" cy="104" i="85" r="0.5" tabindex="85">
<title>
v:85
</title>
</circle>
<circle cx="142" cy="43" i="86" r="0.5" tabindex="86">
<title>
v:86
</title>
</circle>
<circle cx="146" cy="98" i="87" r="0.5" tabindex="87">
<title>
v:87
</title>
</circle>
<circle cx="146" cy="104" i="88" r="0.5" tabindex="88">
<title>
v:88
</title>
</circle>
<circle cx="147" cy="89" i="89" r="0.5" tabindex="89">
<title>
v:89
</title>
</circle>
<circle cx="150" cy="48" i="90" r="0.5" tabindex="90">
<title>
v:90
</title>
</circle>
<circle cx="150" cy="85" i="91" r="0.5" tabindex="91">
<title>
v:91
</title>
</circle>
<circle cx="151" cy="92" i="92" r="0.5" tabindex="92">
<title>
v:92
</title>
</circle>
<circle cx="154" cy="89" i="93" r="0.5" tabindex="93">
<title>
v:93
</title>
</circle>
<circle cx="156" cy="33" i="94" r="0.5" tabindex="94">
<title>
v:94
</title>
</circle>
<circle cx="161" cy="36" i="95" r="0.5" tabindex="95">
<title>
v:95
</title>
</circle>
</g>
</svg>