<svg height="500" viewBox="0 -2 819 1157" width="500" xmlns="http://www.w3.org/2000/svg">
<path class="hole" d="M2 249L32 338L120 331L206 342L171 413L112 453L144 523L191 527L173 597L102 569L76 635L145 669L223 685L222 773L260 827L300 878L248 834L206 780L145 802L148 874L210 890L161 921L167 979L235 986L257 929L273 1000L318 945L391 926L461 924L408 977L480 997L436 1062L489 1105L541 1153L554 1082L579 1142L616 1082L680 1043L615 1009L606 945L542 946L549 1013L531 942L550 879L612 921L648 857L592 818L624 751L554 757L624 728L684 779L760 815L817 759L775 681L697 696L676 623L612 562L662 474L627 446L657 368L642 302L657 166L570 144L480 168L539 86L435 82L406 0L323 32L355 114L389 205L310 245L293 162L213 168L221 261L140 248L73 197M0 -2L819 -2L819 1155L0 1155" style="fill:#00000066;fill-rule:evenodd;"/>
<circle cx="71" cy="276" fill="#ffff0066" r="5">
<title>
SuperFlex@106
</title>
</circle>
<circle cx="746" cy="747" fill="#ffff0066" r="5">
<title>
WallHack@6
</title>
</circle>
<circle cx="413" cy="144" fill="#ffff0066" r="5">
<title>
Globalist@53
</title>
</circle>
<path class="ok" d="M78 299L48 238M68 321L131 253M68 321L116 257M64 217L128 241M64 217L75 284M75 226L136 260M24 253L112 254M99 319L39 265M99 319L118 243M64 229L133 254M128 241L75 284M39 265L118 243M75 284L136 260M112 254L62 308M62 308L125 274M125 274L66 307M117 258L66 307M121 255L51 267M66 307L136 322M109 259L136 322M136 322L193 286M145 264L72 262" style="stroke:#0000ff;stroke-linecap:round"/>
<path class="out" d="M92 158L2 183M92 158L156 218M2 183L32 266M156 218L76 193M114 221L48 194M114 221L46 184M48 194L123 183M213 254L147 215M213 254L148 225M32 266L76 193M32 266L76 191M76 193L131 253M147 215L102 262M46 184L123 183M46 184L126 187M13 301L57 244M13 301L78 299M57 244L106 203M145 246L135 189M145 246L106 203M135 189L84 234M148 225L76 191M148 225L113 168M148 225L85 196M123 183L56 209M123 183L74 233M56 209L127 221M56 209L113 174M127 221L64 217M76 191L131 253M76 191L24 253M102 262L85 196M106 203L48 238M106 203L47 186M131 253L117 342M135 208L116 144M135 208L62 192M126 187L74 233M126 187L64 229M113 168L64 217M113 168L75 226M85 196L64 217M85 196L24 253M85 196L146 141M84 234L47 186M29 173L122 204M29 173L39 265M74 233L113 174M74 233L117 183M48 238L110 209M113 174L128 241M47 186L116 209M47 186L110 209M47 186L93 142M116 144L64 229M116 144L62 192M116 144L110 209M138 202L62 192M138 202L90 261M116 209L93 142M24 253L88 207M116 257L117 342M146 141L88 207M62 192L133 254M62 192L90 261M62 192L136 194M128 241L78 193M122 204L37 167M110 209L93 142M110 209L89 141M117 183L133 254M92 254L78 193M92 254L138 206M117 342L112 254M117 342L177 407M39 265L37 167M93 142L77 216M103 204L63 141M103 204L89 141M172 231L203 313M172 231L105 290M75 284L20 233M63 141L128 145M90 261L136 194M112 254L112 342M203 313L177 407M203 313L139 371M78 193L138 206M78 193L20 233M78 193L92 259M118 243L20 215M89 141L136 194M89 141L77 216M89 141L148 117M89 141L118 77M89 141L137 188M136 194L103 250M116 218L103 155M116 218L171 169M138 206L92 259M138 206L102 145M37 167L126 148M37 167L115 213M62 308L20 233M177 407L112 342M177 407L92 456M20 233L92 259M20 233L84 185M77 216L146 204M148 117L137 188M103 155L90 72M128 145L118 77M105 290L139 371M126 148L34 171M73 189L146 204M73 189L122 132M171 169L104 147M92 259L115 213M92 259L84 185M92 259L56 198M102 145L31 120M102 145L56 198M118 77L104 147M112 342L125 274M112 342L164 287M112 342L169 404M103 250L137 188M139 371L92 456M139 371L35 373M81 199L122 132M81 199L121 255M125 274L164 210M125 274L126 342M117 258L118 186M31 120L90 72M31 120L86 73M115 213L20 215M115 213L34 171M115 213L84 125M146 204L122 132M146 204L104 147M146 204L75 191M84 185L164 210M84 185L84 125M56 198L87 135M118 186L109 259M92 456L169 404M92 456L35 373M92 456L109 548M122 132L75 191M122 132L148 198M90 72L104 147M90 72L67 0M104 147L34 139M121 255L79 200M34 171L128 137M164 287L126 342M66 307L126 342M169 404L126 342M169 404L185 500M126 342L165 404M84 125L95 235M84 125L95 225M86 73L87 135M86 73L67 0M86 73L128 137M75 191L148 198M75 191L34 139M51 267L79 200M142 265L148 198M142 265L112 209M148 198L79 200M148 198L145 264M34 139L37 65M34 139L8 69M67 0L37 65M67 0L79 75M67 0L110 55M67 0L189 587M79 200L136 231M79 200L72 262M136 322L196 350M109 548L185 500M109 548L189 587M95 235L192 195M136 231L72 262M165 404L185 500M165 404L196 350M165 404L129 355M37 65L110 55M37 65L43 133M128 137L95 225M128 137L79 75M128 137L42 155M185 500L189 587M196 350L193 286M196 350L171 302M112 209L145 264M95 225L192 195M95 225L42 155M8 69L43 133M145 264L112 199M72 262L112 199M79 75L34 139M79 75L118 145M129 355L171 302M42 155L118 145M34 139L118 145M34 139L104 185M118 145L148 218M104 185L68 256M148 218L68 256" style="stroke:#ff0000;stroke-linecap:round"/>
<g fill="#333333">
<circle cx="2" cy="249" r="0.5">
<title>
hole:0
</title>
</circle>
<circle cx="32" cy="338" r="0.5">
<title>
hole:1
</title>
</circle>
<circle cx="120" cy="331" r="0.5">
<title>
hole:2
</title>
</circle>
<circle cx="206" cy="342" r="0.5">
<title>
hole:3
</title>
</circle>
<circle cx="171" cy="413" r="0.5">
<title>
hole:4
</title>
</circle>
<circle cx="112" cy="453" r="0.5">
<title>
hole:5
</title>
</circle>
<circle cx="144" cy="523" r="0.5">
<title>
hole:6
</title>
</circle>
<circle cx="191" cy="527" r="0.5">
<title>
hole:7
</title>
</circle>
<circle cx="173" cy="597" r="0.5">
<title>
hole:8
</title>
</circle>
<circle cx="102" cy="569" r="0.5">
<title>
hole:9
</title>
</circle>
<circle cx="76" cy="635" r="0.5">
<title>
hole:10
</title>
</circle>
<circle cx="145" cy="669" r="0.5">
<title>
hole:11
</title>
</circle>
<circle cx="223" cy="685" r="0.5">
<title>
hole:12
</title>
</circle>
<circle cx="222" cy="773" r="0.5">
<title>
hole:13
</title>
</circle>
<circle cx="260" cy="827" r="0.5">
<title>
hole:14
</title>
</circle>
<circle cx="300" cy="878" r="0.5">
<title>
hole:15
</title>
</circle>
<circle cx="248" cy="834" r="0.5">
<title>
hole:16
</title>
</circle>
<circle cx="206" cy="780" r="0.5">
<title>
hole:17
</title>
</circle>
<circle cx="145" cy="802" r="0.5">
<title>
hole:18
</title>
</circle>
<circle cx="148" cy="874" r="0.5">
<title>
hole:19
</title>
</circle>
<circle cx="210" cy="890" r="0.5">
<title>
hole:20
</title>
</circle>
<circle cx="161" cy="921" r="0.5">
<title>
hole:21
</title>
</circle>
<circle cx="167" cy="979" r="0.5">
<title>
hole:22
</title>
</circle>
<circle cx="235" cy="986" r="0.5">
<title>
hole:23
</title>
</circle>
<circle cx="257" cy="929" r="0.5">
<title>
hole:24
</title>
</circle>
<circle cx="273" cy="1000" r="0.5">
<title>
hole:25
</title>
</circle>
<circle cx="318" cy="945" r="0.5">
<title>
hole:26
</title>
</circle>
<circle cx="391" cy="926" r="0.5">
<title>
hole:27
</title>
</circle>
<circle cx="461" cy="924" r="0.5">
<title>
hole:28
</title>
</circle>
<circle cx="408" cy="977" r="0.5">
<title>
hole:29
</title>
</circle>
<circle cx="480" cy="997" r="0.5">
<title>
hole:30
</title>
</circle>
<circle cx="436" cy="1062" r="0.5">
<title>
hole:31
</title>
</circle>
<circle cx="489" cy="1105" r="0.5">
<title>
hole:32
</title>
</circle>
<circle cx="541" cy="1153" r="0.5">
<title>
hole:33
</title>
</circle>
<circle cx="554" cy="1082" r="0.5">
<title>
hole:34
</title>
</circle>
<circle cx="579" cy="1142" r="0.5">
<title>
hole:35
</title>
</circle>
<circle cx="616" cy="1082" r="0.5">
<title>
hole:36
</title>
</circle>
<circle cx="680" cy="1043" r="0.5">
<title>
hole:37
</title>
</circle>
<circle cx="615" cy="1009" r="0.5">
<title>
hole:38
</title>
</circle>
<circle cx="606" cy="945" r="0.5">
<title>
hole:39
</title>
</circle>
<circle cx="542" cy="946" r="0.5">
<title>
hole:40
</title>
</circle>
<circle cx="549" cy="1013" r="0.5">
<title>
hole:41
</title>
</circle>
<circle cx="531" cy="942" r="0.5">
<title>
hole:42
</title>
</circle>
<circle cx="550" cy="879" r="0.5">
<title>
hole:43
</title>
</circle>
<circle cx="612" cy="921" r="0.5">
<title>
hole:44
</title>
</circle>
<circle cx="648" cy="857" r="0.5">
<title>
hole:45
</title>
</circle>
<circle cx="592" cy="818" r="0.5">
<title>
hole:46
</title>
</circle>
<circle cx="624" cy="751" r="0.5">
<title>
hole:47
</title>
</circle>
<circle cx="554" cy="757" r="0.5">
<title>
hole:48
</title>
</circle>
<circle cx="624" cy="728" r="0.5">
<title>
hole:49
</title>
</circle>
<circle cx="684" cy="779" r="0.5">
<title>
hole:50
</title>
</circle>
<circle cx="760" cy="815" r="0.5">
<title>
hole:51
</title>
</circle>
<circle cx="817" cy="759" r="0.5">
<title>
hole:52
</title>
</circle>
<circle cx="775" cy="681" r="0.5">
<title>
hole:53
</title>
</circle>
<circle cx="697" cy="696" r="0.5">
<title>
hole:54
</title>
</circle>
<circle cx="676" cy="623" r="0.5">
<title>
hole:55
</title>
</circle>
<circle cx="612" cy="562" r="0.5">
<title>
hole:56
</title>
</circle>
<circle cx="662" cy="474" r="0.5">
<title>
hole:57
</title>
</circle>
<circle cx="627" cy="446" r="0.5">
<title>
hole:58
</title>
</circle>
<circle cx="657" cy="368" r="0.5">
<title>
hole:59
</title>
</circle>
<circle cx="642" cy="302" r="0.5">
<title>
hole:60
</title>
</circle>
<circle cx="657" cy="166" r="0.5">
<title>
hole:61
</title>
</circle>
<circle cx="570" cy="144" r="0.5">
<title>
hole:62
</title>
</circle>
<circle cx="480" cy="168" r="0.5">
<title>
hole:63
</title>
</circle>
<circle cx="539" cy="86" r="0.5">
<title>
hole:64
</title>
</circle>
<circle cx="435" cy="82" r="0.5">
<title>
hole:65
</title>
</circle>
<circle cx="406" cy="0" r="0.5">
<title>
hole:66
</title>
</circle>
<circle cx="323" cy="32" r="0.5">
<title>
hole:67
</title>
</circle>
<circle cx="355" cy="114" r="0.5">
<title>
hole:68
</title>
</circle>
<circle cx="389" cy="205" r="0.5">
<title>
hole:69
</title>
</circle>
<circle cx="310" cy="245" r="0.5">
<title>
hole:70
</title>
</circle>
<circle cx="293" cy="162" r="0.5">
<title>
hole:71
</title>
</circle>
<circle cx="213" cy="168" r="0.5">
<title>
hole:72
</title>
</circle>
<circle cx="221" cy="261" r="0.5">
<title>
hole:73
</title>
</circle>
<circle cx="140" cy="248" r="0.5">
<title>
hole:74
</title>
</circle>
<circle cx="73" cy="197" r="0.5">
<title>
hole:75
</title>
</circle>
</g>
<g fill="#999999">
<circle cx="92" cy="158" i="0" r="0.5" tabindex="0">
<title>
v:0
</title>
</circle>
<circle cx="2" cy="183" i="1" r="0.5" tabindex="1">
<title>
v:1
</title>
</circle>
<circle cx="156" cy="218" i="2" r="0.5" tabindex="2">
<title>
v:2
</title>
</circle>
<circle cx="114" cy="221" i="3" r="0.5" tabindex="3">
<title>
v:3
</title>
</circle>
<circle cx="48" cy="194" i="4" r="0.5" tabindex="4">
<title>
v:4
</title>
</circle>
<circle cx="213" cy="254" i="5" r="0.5" tabindex="5">
<title>
v:5
</title>
</circle>
<circle cx="32" cy="266" i="6" r="0.5" tabindex="6">
<title>
v:6
</title>
</circle>
<circle cx="76" cy="193" i="7" r="0.5" tabindex="7">
<title>
v:7
</title>
</circle>
<circle cx="147" cy="215" i="8" r="0.5" tabindex="8">
<title>
v:8
</title>
</circle>
<circle cx="46" cy="184" i="9" r="0.5" tabindex="9">
<title>
v:9
</title>
</circle>
<circle cx="13" cy="301" i="10" r="0.5" tabindex="10">
<title>
v:10
</title>
</circle>
<circle cx="57" cy="244" i="11" r="0.5" tabindex="11">
<title>
v:11
</title>
</circle>
<circle cx="145" cy="246" i="12" r="0.5" tabindex="12">
<title>
v:12
</title>
</circle>
<circle cx="135" cy="189" i="13" r="0.5" tabindex="13">
<title>
v:13
</title>
</circle>
<circle cx="148" cy="225" i="14" r="0.5" tabindex="14">
<title>
v:14
</title>
</circle>
<circle cx="123" cy="183" i="15" r="0.5" tabindex="15">
<title>
v:15
</title>
</circle>
<circle cx="56" cy="209" i="16" r="0.5" tabindex="16">
<title>
v:16
</title>
</circle>
<circle cx="127" cy="221" i="17" r="0.5" tabindex="17">
<title>
v:17
</title>
</circle>
<circle cx="76" cy="191" i="18" r="0.5" tabindex="18">
<title>
v:18
</title>
</circle>
<circle cx="78" cy="299" i="19" r="0.5" tabindex="19">
<title>
v:19
</title>
</circle>
<circle cx="102" cy="262" i="20" r="0.5" tabindex="20">
<title>
v:20
</title>
</circle>
<circle cx="106" cy="203" i="21" r="0.5" tabindex="21">
<title>
v:21
</title>
</circle>
<circle cx="68" cy="321" i="22" r="0.5" tabindex="22">
<title>
v:22
</title>
</circle>
<circle cx="131" cy="253" i="23" r="0.5" tabindex="23">
<title>
v:23
</title>
</circle>
<circle cx="135" cy="208" i="24" r="0.5" tabindex="24">
<title>
v:24
</title>
</circle>
<circle cx="126" cy="187" i="25" r="0.5" tabindex="25">
<title>
v:25
</title>
</circle>
<circle cx="113" cy="168" i="26" r="0.5" tabindex="26">
<title>
v:26
</title>
</circle>
<circle cx="85" cy="196" i="27" r="0.5" tabindex="27">
<title>
v:27
</title>
</circle>
<circle cx="84" cy="234" i="28" r="0.5" tabindex="28">
<title>
v:28
</title>
</circle>
<circle cx="29" cy="173" i="29" r="0.5" tabindex="29">
<title>
v:29
</title>
</circle>
<circle cx="74" cy="233" i="30" r="0.5" tabindex="30">
<title>
v:30
</title>
</circle>
<circle cx="48" cy="238" i="31" r="0.5" tabindex="31">
<title>
v:31
</title>
</circle>
<circle cx="113" cy="174" i="32" r="0.5" tabindex="32">
<title>
v:32
</title>
</circle>
<circle cx="47" cy="186" i="33" r="0.5" tabindex="33">
<title>
v:33
</title>
</circle>
<circle cx="64" cy="217" i="34" r="0.5" tabindex="34">
<title>
v:34
</title>
</circle>
<circle cx="116" cy="144" i="35" r="0.5" tabindex="35">
<title>
v:35
</title>
</circle>
<circle cx="138" cy="202" i="36" r="0.5" tabindex="36">
<title>
v:36
</title>
</circle>
<circle cx="116" cy="209" i="37" r="0.5" tabindex="37">
<title>
v:37
</title>
</circle>
<circle cx="75" cy="226" i="38" r="0.5" tabindex="38">
<title>
v:38
</title>
</circle>
<circle cx="24" cy="253" i="39" r="0.5" tabindex="39">
<title>
v:39
</title>
</circle>
<circle cx="99" cy="319" i="40" r="0.5" tabindex="40">
<title>
v:40
</title>
</circle>
<circle cx="64" cy="229" i="41" r="0.5" tabindex="41">
<title>
v:41
</title>
</circle>
<circle cx="116" cy="257" i="42" r="0.5" tabindex="42">
<title>
v:42
</title>
</circle>
<circle cx="146" cy="141" i="43" r="0.5" tabindex="43">
<title>
v:43
</title>
</circle>
<circle cx="62" cy="192" i="44" r="0.5" tabindex="44">
<title>
v:44
</title>
</circle>
<circle cx="128" cy="241" i="45" r="0.5" tabindex="45">
<title>
v:45
</title>
</circle>
<circle cx="122" cy="204" i="46" r="0.5" tabindex="46">
<title>
v:46
</title>
</circle>
<circle cx="110" cy="209" i="47" r="0.5" tabindex="47">
<title>
v:47
</title>
</circle>
<circle cx="117" cy="183" i="48" r="0.5" tabindex="48">
<title>
v:48
</title>
</circle>
<circle cx="92" cy="254" i="49" r="0.5" tabindex="49">
<title>
v:49
</title>
</circle>
<circle cx="117" cy="342" i="50" r="0.5" tabindex="50">
<title>
v:50
</title>
</circle>
<circle cx="39" cy="265" i="51" r="0.5" tabindex="51">
<title>
v:51
</title>
</circle>
<circle cx="93" cy="142" i="52" r="0.5" tabindex="52">
<title>
v:52
</title>
</circle>
<circle cx="103" cy="204" i="53" r="0.5" tabindex="53">
<title>
v:53
</title>
</circle>
<circle cx="172" cy="231" i="54" r="0.5" tabindex="54">
<title>
v:54
</title>
</circle>
<circle cx="75" cy="284" i="55" r="0.5" tabindex="55">
<title>
v:55
</title>
</circle>
<circle cx="136" cy="260" i="56" r="0.5" tabindex="56">
<title>
v:56
</title>
</circle>
<circle cx="133" cy="254" i="57" r="0.5" tabindex="57">
<title>
v:57
</title>
</circle>
<circle cx="63" cy="141" i="58" r="0.5" tabindex="58">
<title>
v:58
</title>
</circle>
<circle cx="88" cy="207" i="59" r="0.5" tabindex="59">
<title>
v:59
</title>
</circle>
<circle cx="90" cy="261" i="60" r="0.5" tabindex="60">
<title>
v:60
</title>
</circle>
<circle cx="112" cy="254" i="61" r="0.5" tabindex="61">
<title>
v:61
</title>
</circle>
<circle cx="203" cy="313" i="62" r="0.5" tabindex="62">
<title>
v:62
</title>
</circle>
<circle cx="78" cy="193" i="63" r="0.5" tabindex="63">
<title>
v:63
</title>
</circle>
<circle cx="118" cy="243" i="64" r="0.5" tabindex="64">
<title>
v:64
</title>
</circle>
<circle cx="89" cy="141" i="65" r="0.5" tabindex="65">
<title>
v:65
</title>
</circle>
<circle cx="136" cy="194" i="66" r="0.5" tabindex="66">
<title>
v:66
</title>
</circle>
<circle cx="116" cy="218" i="67" r="0.5" tabindex="67">
<title>
v:67
</title>
</circle>
<circle cx="138" cy="206" i="68" r="0.5" tabindex="68">
<title>
v:68
</title>
</circle>
<circle cx="37" cy="167" i="69" r="0.5" tabindex="69">
<title>
v:69
</title>
</circle>
<circle cx="62" cy="308" i="70" r="0.5" tabindex="70">
<title>
v:70
</title>
</circle>
<circle cx="177" cy="407" i="71" r="0.5" tabindex="71">
<title>
v:71
</title>
</circle>
<circle cx="20" cy="233" i="72" r="0.5" tabindex="72">
<title>
v:72
</title>
</circle>
<circle cx="77" cy="216" i="73" r="0.5" tabindex="73">
<title>
v:73
</title>
</circle>
<circle cx="148" cy="117" i="74" r="0.5" tabindex="74">
<title>
v:74
</title>
</circle>
<circle cx="103" cy="155" i="75" r="0.5" tabindex="75">
<title>
v:75
</title>
</circle>
<circle cx="128" cy="145" i="76" r="0.5" tabindex="76">
<title>
v:76
</title>
</circle>
<circle cx="105" cy="290" i="77" r="0.5" tabindex="77">
<title>
v:77
</title>
</circle>
<circle cx="126" cy="148" i="78" r="0.5" tabindex="78">
<title>
v:78
</title>
</circle>
<circle cx="73" cy="189" i="79" r="0.5" tabindex="79">
<title>
v:79
</title>
</circle>
<circle cx="171" cy="169" i="80" r="0.5" tabindex="80">
<title>
v:80
</title>
</circle>
<circle cx="92" cy="259" i="81" r="0.5" tabindex="81">
<title>
v:81
</title>
</circle>
<circle cx="102" cy="145" i="82" r="0.5" tabindex="82">
<title>
v:82
</title>
</circle>
<circle cx="118" cy="77" i="83" r="0.5" tabindex="83">
<title>
v:83
</title>
</circle>
<circle cx="112" cy="342" i="84" r="0.5" tabindex="84">
<title>
v:84
</title>
</circle>
<circle cx="103" cy="250" i="85" r="0.5" tabindex="85">
<title>
v:85
</title>
</circle>
<circle cx="137" cy="188" i="86" r="0.5" tabindex="86">
<title>
v:86
</title>
</circle>
<circle cx="139" cy="371" i="87" r="0.5" tabindex="87">
<title>
v:87
</title>
</circle>
<circle cx="81" cy="199" i="88" r="0.5" tabindex="88">
<title>
v:88
</title>
</circle>
<circle cx="125" cy="274" i="89" r="0.5" tabindex="89">
<title>
v:89
</title>
</circle>
<circle cx="117" cy="258" i="90" r="0.5" tabindex="90">
<title>
v:90
</title>
</circle>
<circle cx="31" cy="120" i="91" r="0.5" tabindex="91">
<title>
v:91
</title>
</circle>
<circle cx="115" cy="213" i="92" r="0.5" tabindex="92">
<title>
v:92
</title>
</circle>
<circle cx="20" cy="215" i="93" r="0.5" tabindex="93">
<title>
v:93
</title>
</circle>
<circle cx="146" cy="204" i="94" r="0.5" tabindex="94">
<title>
v:94
</title>
</circle>
<circle cx="84" cy="185" i="95" r="0.5" tabindex="95">
<title>
v:95
</title>
</circle>
<circle cx="56" cy="198" i="96" r="0.5" tabindex="96">
<title>
v:96
</title>
</circle>
<circle cx="118" cy="186" i="97" r="0.5" tabindex="97">
<title>
v:97
</title>
</circle>
<circle cx="92" cy="456" i="98" r="0.5" tabindex="98">
<title>
v:98
</title>
</circle>
<circle cx="122" cy="132" i="99" r="0.5" tabindex="99">
<title>
v:99
</title>
</circle>
<circle cx="90" cy="72" i="100" r="0.5" tabindex="100">
<title>
v:100
</title>
</circle>
<circle cx="104" cy="147" i="101" r="0.5" tabindex="101">
<title>
v:101
</title>
</circle>
<circle cx="121" cy="255" i="102" r="0.5" tabindex="102">
<title>
v:102
</title>
</circle>
<circle cx="34" cy="171" i="103" r="0.5" tabindex="103">
<title>
v:103
</title>
</circle>
<circle cx="164" cy="287" i="104" r="0.5" tabindex="104">
<title>
v:104
</title>
</circle>
<circle cx="66" cy="307" i="105" r="0.5" tabindex="105">
<title>
v:105
</title>
</circle>
<circle cx="164" cy="210" i="106" r="0.5" tabindex="106">
<title>
v:106
</title>
</circle>
<circle cx="169" cy="404" i="107" r="0.5" tabindex="107">
<title>
v:107
</title>
</circle>
<circle cx="126" cy="342" i="108" r="0.5" tabindex="108">
<title>
v:108
</title>
</circle>
<circle cx="84" cy="125" i="109" r="0.5" tabindex="109">
<title>
v:109
</title>
</circle>
<circle cx="86" cy="73" i="110" r="0.5" tabindex="110">
<title>
v:110
</title>
</circle>
<circle cx="75" cy="191" i="111" r="0.5" tabindex="111">
<title>
v:111
</title>
</circle>
<circle cx="87" cy="135" i="112" r="0.5" tabindex="112">
<title>
v:112
</title>
</circle>
<circle cx="35" cy="373" i="113" r="0.5" tabindex="113">
<title>
v:113
</title>
</circle>
<circle cx="51" cy="267" i="114" r="0.5" tabindex="114">
<title>
v:114
</title>
</circle>
<circle cx="142" cy="265" i="115" r="0.5" tabindex="115">
<title>
v:115
</title>
</circle>
<circle cx="148" cy="198" i="116" r="0.5" tabindex="116">
<title>
v:116
</title>
</circle>
<circle cx="109" cy="259" i="117" r="0.5" tabindex="117">
<title>
v:117
</title>
</circle>
<circle cx="34" cy="139" i="118" r="0.5" tabindex="118">
<title>
v:118
</title>
</circle>
<circle cx="67" cy="0" i="119" r="0.5" tabindex="119">
<title>
v:119
</title>
</circle>
<circle cx="79" cy="200" i="120" r="0.5" tabindex="120">
<title>
v:120
</title>
</circle>
<circle cx="136" cy="322" i="121" r="0.5" tabindex="121">
<title>
v:121
</title>
</circle>
<circle cx="109" cy="548" i="122" r="0.5" tabindex="122">
<title>
v:122
</title>
</circle>
<circle cx="95" cy="235" i="123" r="0.5" tabindex="123">
<title>
v:123
</title>
</circle>
<circle cx="136" cy="231" i="124" r="0.5" tabindex="124">
<title>
v:124
</title>
</circle>
<circle cx="165" cy="404" i="125" r="0.5" tabindex="125">
<title>
v:125
</title>
</circle>
<circle cx="37" cy="65" i="126" r="0.5" tabindex="126">
<title>
v:126
</title>
</circle>
<circle cx="128" cy="137" i="127" r="0.5" tabindex="127">
<title>
v:127
</title>
</circle>
<circle cx="185" cy="500" i="128" r="0.5" tabindex="128">
<title>
v:128
</title>
</circle>
<circle cx="196" cy="350" i="129" r="0.5" tabindex="129">
<title>
v:129
</title>
</circle>
<circle cx="112" cy="209" i="130" r="0.5" tabindex="130">
<title>
v:130
</title>
</circle>
<circle cx="95" cy="225" i="131" r="0.5" tabindex="131">
<title>
v:131
</title>
</circle>
<circle cx="8" cy="69" i="132" r="0.5" tabindex="132">
<title>
v:132
</title>
</circle>
<circle cx="145" cy="264" i="133" r="0.5" tabindex="133">
<title>
v:133
</title>
</circle>
<circle cx="72" cy="262" i="134" r="0.5" tabindex="134">
<title>
v:134
</title>
</circle>
<circle cx="79" cy="75" i="135" r="0.5" tabindex="135">
<title>
v:135
</title>
</circle>
<circle cx="110" cy="55" i="136" r="0.5" tabindex="136">
<title>
v:136
</title>
</circle>
<circle cx="193" cy="286" i="137" r="0.5" tabindex="137">
<title>
v:137
</title>
</circle>
<circle cx="129" cy="355" i="138" r="0.5" tabindex="138">
<title>
v:138
</title>
</circle>
<circle cx="43" cy="133" i="139" r="0.5" tabindex="139">
<title>
v:139
</title>
</circle>
<circle cx="189" cy="587" i="140" r="0.5" tabindex="140">
<title>
v:140
</title>
</circle>
<circle cx="171" cy="302" i="141" r="0.5" tabindex="141">
<title>
v:141
</title>
</circle>
<circle cx="192" cy="195" i="142" r="0.5" tabindex="142">
<title>
v:142
</title>
</circle>
<circle cx="42" cy="155" i="143" r="0.5" tabindex="143">
<title>
v:143
</title>
</circle>
<circle cx="112" cy="199" i="144" r="0.5" tabindex="144">
<title>
v:144
</title>
</circle>
<circle cx="34" cy="139" i="145" r="0.5" tabindex="145">
<title>
v:145
</title>
</circle>
<circle cx="118" cy="145" i="146" r="0.5" tabindex="146">
<title>
v:146
</title>
</circle>
<circle cx="104" cy="185" i="147" r="0.5" tabindex="147">
<title>
v:147
</title>
</circle>
<circle cx="148" cy="218" i="148" r="0.5" tabindex="148">
<title>
v:148
</title>
</circle>
<circle cx="68" cy="256" i="149" r="0.5" tabindex="149">
<title>
v:149
</title>
</circle>
</g>
</svg>