<svg height="500" viewBox="-2 -2 821 1157" width="500" xmlns="http://www.w3.org/2000/svg">
<path class="hole" d="M2 249L32 338L120 331L206 342L171 413L112 453L144 523L191 527L173 597L102 569L76 635L145 669L223 685L222 773L260 827L300 878L248 834L206 780L145 802L148 874L210 890L161 921L167 979L235 986L257 929L273 1000L318 945L391 926L461 924L408 977L480 997L436 1062L489 1105L541 1153L554 1082L579 1142L616 1082L680 1043L615 1009L606 945L542 946L549 1013L531 942L550 879L612 921L648 857L592 818L624 751L554 757L624 728L684 779L760 815L817 759L775 681L697 696L676 623L612 562L662 474L627 446L657 368L642 302L657 166L570 144L480 168L539 86L435 82L406 0L323 32L355 114L389 205L310 245L293 162L213 168L221 261L140 248L73 197M-2 -2L819 -2L819 1155L-2 1155" style="fill:#00000066;fill-rule:evenodd;"/>
<circle cx="746" cy="747" r="5" style="fill:#ffff0066;" title="WallHack"/>
<path class="ok" d="M76 299L46 238M66 321L129 253M66 321L114 257M62 217L126 241M62 217L73 284M73 226L134 260M22 253L86 207M22 253L110 254M97 319L37 265M97 319L116 243M62 229L131 254M126 241L73 284M37 265L116 243M73 284L134 260M110 254L60 308M60 308L123 274M123 274L64 307M115 258L64 307M119 255L49 267M64 307L134 322M107 259L134 322M134 322L191 286M143 264L70 262" style="stroke:#0000ff;stroke-linecap:round"/>
<path class="out" d="M90 158L0 183M90 158L154 218M0 183L30 266M154 218L74 193M112 221L46 194M112 221L44 184M46 194L121 183M211 254L145 215M211 254L146 225M30 266L74 193M30 266L74 191M74 193L129 253M145 215L100 262M44 184L121 183M44 184L124 187M11 301L55 244M11 301L76 299M55 244L104 203M143 246L133 189M143 246L104 203M133 189L82 234M146 225L74 191M146 225L111 168M146 225L83 196M121 183L54 209M121 183L72 233M54 209L125 221M54 209L111 174M125 221L62 217M74 191L129 253M74 191L22 253M100 262L83 196M104 203L46 238M104 203L45 186M129 253L115 342M133 208L114 144M133 208L60 192M124 187L72 233M124 187L62 229M111 168L62 217M111 168L73 226M83 196L62 217M83 196L22 253M83 196L144 141M82 234L45 186M27 173L120 204M27 173L37 265M72 233L111 174M72 233L115 183M46 238L108 209M111 174L126 241M45 186L114 209M45 186L108 209M45 186L91 142M114 144L62 229M114 144L60 192M114 144L108 209M136 202L60 192M136 202L88 261M114 209L91 142M114 257L115 342M144 141L86 207M60 192L131 254M60 192L88 261M60 192L134 194M126 241L76 193M120 204L35 167M108 209L91 142M108 209L87 141M115 183L131 254M90 254L76 193M90 254L136 206M115 342L110 254M115 342L175 407M37 265L35 167M91 142L75 216M101 204L61 141M101 204L87 141M170 231L201 313M170 231L103 290M73 284L18 233M61 141L126 145M88 261L134 194M110 254L110 342M201 313L175 407M201 313L137 371M76 193L136 206M76 193L18 233M76 193L90 259M116 243L18 215M87 141L134 194M87 141L75 216M87 141L146 117M87 141L116 77M87 141L135 188M134 194L101 250M114 218L101 155M114 218L169 169M136 206L90 259M136 206L100 145M35 167L124 148M35 167L113 213M60 308L18 233M175 407L110 342M175 407L90 456M18 233L90 259M18 233L82 185M75 216L144 204M146 117L135 188M101 155L88 72M126 145L116 77M103 290L137 371M124 148L32 171M71 189L144 204M71 189L120 132M169 169L102 147M90 259L113 213M90 259L82 185M90 259L54 198M100 145L29 120M100 145L54 198M116 77L102 147M110 342L123 274M110 342L162 287M110 342L167 404M101 250L135 188M137 371L90 456M137 371L33 373M79 199L120 132M79 199L119 255M123 274L162 210M123 274L124 342M115 258L116 186M29 120L88 72M29 120L84 73M113 213L18 215M113 213L32 171M113 213L82 125M144 204L120 132M144 204L102 147M144 204L73 191M82 185L162 210M82 185L82 125M54 198L85 135M116 186L107 259M90 456L167 404M90 456L33 373M90 456L107 548M120 132L73 191M120 132L146 198M88 72L102 147M88 72L65 0M102 147L32 139M119 255L77 200M32 171L126 137M162 287L124 342M64 307L124 342M167 404L124 342M167 404L183 500M124 342L163 404M82 125L93 235M82 125L93 225M84 73L85 135M84 73L65 0M84 73L126 137M73 191L146 198M73 191L32 139M49 267L77 200M140 265L146 198M140 265L110 209M146 198L77 200M146 198L143 264M32 139L35 65M32 139L6 69M65 0L35 65M65 0L77 75M65 0L108 55M65 0L187 587M77 200L134 231M77 200L70 262M134 322L194 350M107 548L183 500M107 548L187 587M93 235L190 195M134 231L70 262M163 404L183 500M163 404L194 350M163 404L127 355M35 65L108 55M35 65L41 133M126 137L93 225M126 137L77 75M126 137L40 155M183 500L187 587M194 350L191 286M194 350L169 302M110 209L143 264M93 225L190 195M93 225L40 155M6 69L41 133M143 264L110 199M70 262L110 199M77 75L32 139M77 75L116 145M127 355L169 302M40 155L116 145M32 139L116 145M32 139L102 185M116 145L146 218M102 185L66 256M146 218L66 256" style="stroke:#ff0000;stroke-linecap:round"/>
<g fill="#333333">
<circle cx="2" cy="249" r="0.5" tabindex="0">
<title>
hole:0
</title>
</circle>
<circle cx="32" cy="338" r="0.5" tabindex="1">
<title>
hole:1
</title>
</circle>
<circle cx="120" cy="331" r="0.5" tabindex="2">
<title>
hole:2
</title>
</circle>
<circle cx="206" cy="342" r="0.5" tabindex="3">
<title>
hole:3
</title>
</circle>
<circle cx="171" cy="413" r="0.5" tabindex="4">
<title>
hole:4
</title>
</circle>
<circle cx="112" cy="453" r="0.5" tabindex="5">
<title>
hole:5
</title>
</circle>
<circle cx="144" cy="523" r="0.5" tabindex="6">
<title>
hole:6
</title>
</circle>
<circle cx="191" cy="527" r="0.5" tabindex="7">
<title>
hole:7
</title>
</circle>
<circle cx="173" cy="597" r="0.5" tabindex="8">
<title>
hole:8
</title>
</circle>
<circle cx="102" cy="569" r="0.5" tabindex="9">
<title>
hole:9
</title>
</circle>
<circle cx="76" cy="635" r="0.5" tabindex="10">
<title>
hole:10
</title>
</circle>
<circle cx="145" cy="669" r="0.5" tabindex="11">
<title>
hole:11
</title>
</circle>
<circle cx="223" cy="685" r="0.5" tabindex="12">
<title>
hole:12
</title>
</circle>
<circle cx="222" cy="773" r="0.5" tabindex="13">
<title>
hole:13
</title>
</circle>
<circle cx="260" cy="827" r="0.5" tabindex="14">
<title>
hole:14
</title>
</circle>
<circle cx="300" cy="878" r="0.5" tabindex="15">
<title>
hole:15
</title>
</circle>
<circle cx="248" cy="834" r="0.5" tabindex="16">
<title>
hole:16
</title>
</circle>
<circle cx="206" cy="780" r="0.5" tabindex="17">
<title>
hole:17
</title>
</circle>
<circle cx="145" cy="802" r="0.5" tabindex="18">
<title>
hole:18
</title>
</circle>
<circle cx="148" cy="874" r="0.5" tabindex="19">
<title>
hole:19
</title>
</circle>
<circle cx="210" cy="890" r="0.5" tabindex="20">
<title>
hole:20
</title>
</circle>
<circle cx="161" cy="921" r="0.5" tabindex="21">
<title>
hole:21
</title>
</circle>
<circle cx="167" cy="979" r="0.5" tabindex="22">
<title>
hole:22
</title>
</circle>
<circle cx="235" cy="986" r="0.5" tabindex="23">
<title>
hole:23
</title>
</circle>
<circle cx="257" cy="929" r="0.5" tabindex="24">
<title>
hole:24
</title>
</circle>
<circle cx="273" cy="1000" r="0.5" tabindex="25">
<title>
hole:25
</title>
</circle>
<circle cx="318" cy="945" r="0.5" tabindex="26">
<title>
hole:26
</title>
</circle>
<circle cx="391" cy="926" r="0.5" tabindex="27">
<title>
hole:27
</title>
</circle>
<circle cx="461" cy="924" r="0.5" tabindex="28">
<title>
hole:28
</title>
</circle>
<circle cx="408" cy="977" r="0.5" tabindex="29">
<title>
hole:29
</title>
</circle>
<circle cx="480" cy="997" r="0.5" tabindex="30">
<title>
hole:30
</title>
</circle>
<circle cx="436" cy="1062" r="0.5" tabindex="31">
<title>
hole:31
</title>
</circle>
<circle cx="489" cy="1105" r="0.5" tabindex="32">
<title>
hole:32
</title>
</circle>
<circle cx="541" cy="1153" r="0.5" tabindex="33">
<title>
hole:33
</title>
</circle>
<circle cx="554" cy="1082" r="0.5" tabindex="34">
<title>
hole:34
</title>
</circle>
<circle cx="579" cy="1142" r="0.5" tabindex="35">
<title>
hole:35
</title>
</circle>
<circle cx="616" cy="1082" r="0.5" tabindex="36">
<title>
hole:36
</title>
</circle>
<circle cx="680" cy="1043" r="0.5" tabindex="37">
<title>
hole:37
</title>
</circle>
<circle cx="615" cy="1009" r="0.5" tabindex="38">
<title>
hole:38
</title>
</circle>
<circle cx="606" cy="945" r="0.5" tabindex="39">
<title>
hole:39
</title>
</circle>
<circle cx="542" cy="946" r="0.5" tabindex="40">
<title>
hole:40
</title>
</circle>
<circle cx="549" cy="1013" r="0.5" tabindex="41">
<title>
hole:41
</title>
</circle>
<circle cx="531" cy="942" r="0.5" tabindex="42">
<title>
hole:42
</title>
</circle>
<circle cx="550" cy="879" r="0.5" tabindex="43">
<title>
hole:43
</title>
</circle>
<circle cx="612" cy="921" r="0.5" tabindex="44">
<title>
hole:44
</title>
</circle>
<circle cx="648" cy="857" r="0.5" tabindex="45">
<title>
hole:45
</title>
</circle>
<circle cx="592" cy="818" r="0.5" tabindex="46">
<title>
hole:46
</title>
</circle>
<circle cx="624" cy="751" r="0.5" tabindex="47">
<title>
hole:47
</title>
</circle>
<circle cx="554" cy="757" r="0.5" tabindex="48">
<title>
hole:48
</title>
</circle>
<circle cx="624" cy="728" r="0.5" tabindex="49">
<title>
hole:49
</title>
</circle>
<circle cx="684" cy="779" r="0.5" tabindex="50">
<title>
hole:50
</title>
</circle>
<circle cx="760" cy="815" r="0.5" tabindex="51">
<title>
hole:51
</title>
</circle>
<circle cx="817" cy="759" r="0.5" tabindex="52">
<title>
hole:52
</title>
</circle>
<circle cx="775" cy="681" r="0.5" tabindex="53">
<title>
hole:53
</title>
</circle>
<circle cx="697" cy="696" r="0.5" tabindex="54">
<title>
hole:54
</title>
</circle>
<circle cx="676" cy="623" r="0.5" tabindex="55">
<title>
hole:55
</title>
</circle>
<circle cx="612" cy="562" r="0.5" tabindex="56">
<title>
hole:56
</title>
</circle>
<circle cx="662" cy="474" r="0.5" tabindex="57">
<title>
hole:57
</title>
</circle>
<circle cx="627" cy="446" r="0.5" tabindex="58">
<title>
hole:58
</title>
</circle>
<circle cx="657" cy="368" r="0.5" tabindex="59">
<title>
hole:59
</title>
</circle>
<circle cx="642" cy="302" r="0.5" tabindex="60">
<title>
hole:60
</title>
</circle>
<circle cx="657" cy="166" r="0.5" tabindex="61">
<title>
hole:61
</title>
</circle>
<circle cx="570" cy="144" r="0.5" tabindex="62">
<title>
hole:62
</title>
</circle>
<circle cx="480" cy="168" r="0.5" tabindex="63">
<title>
hole:63
</title>
</circle>
<circle cx="539" cy="86" r="0.5" tabindex="64">
<title>
hole:64
</title>
</circle>
<circle cx="435" cy="82" r="0.5" tabindex="65">
<title>
hole:65
</title>
</circle>
<circle cx="406" cy="0" r="0.5" tabindex="66">
<title>
hole:66
</title>
</circle>
<circle cx="323" cy="32" r="0.5" tabindex="67">
<title>
hole:67
</title>
</circle>
<circle cx="355" cy="114" r="0.5" tabindex="68">
<title>
hole:68
</title>
</circle>
<circle cx="389" cy="205" r="0.5" tabindex="69">
<title>
hole:69
</title>
</circle>
<circle cx="310" cy="245" r="0.5" tabindex="70">
<title>
hole:70
</title>
</circle>
<circle cx="293" cy="162" r="0.5" tabindex="71">
<title>
hole:71
</title>
</circle>
<circle cx="213" cy="168" r="0.5" tabindex="72">
<title>
hole:72
</title>
</circle>
<circle cx="221" cy="261" r="0.5" tabindex="73">
<title>
hole:73
</title>
</circle>
<circle cx="140" cy="248" r="0.5" tabindex="74">
<title>
hole:74
</title>
</circle>
<circle cx="73" cy="197" r="0.5" tabindex="75">
<title>
hole:75
</title>
</circle>
</g>
<g fill="#999999">
<circle cx="90" cy="158" r="0.5" tabindex="76">
<title>
v:0
</title>
</circle>
<circle cx="0" cy="183" r="0.5" tabindex="77">
<title>
v:1
</title>
</circle>
<circle cx="154" cy="218" r="0.5" tabindex="78">
<title>
v:2
</title>
</circle>
<circle cx="112" cy="221" r="0.5" tabindex="79">
<title>
v:3
</title>
</circle>
<circle cx="46" cy="194" r="0.5" tabindex="80">
<title>
v:4
</title>
</circle>
<circle cx="211" cy="254" r="0.5" tabindex="81">
<title>
v:5
</title>
</circle>
<circle cx="30" cy="266" r="0.5" tabindex="82">
<title>
v:6
</title>
</circle>
<circle cx="74" cy="193" r="0.5" tabindex="83">
<title>
v:7
</title>
</circle>
<circle cx="145" cy="215" r="0.5" tabindex="84">
<title>
v:8
</title>
</circle>
<circle cx="44" cy="184" r="0.5" tabindex="85">
<title>
v:9
</title>
</circle>
<circle cx="11" cy="301" r="0.5" tabindex="86">
<title>
v:10
</title>
</circle>
<circle cx="55" cy="244" r="0.5" tabindex="87">
<title>
v:11
</title>
</circle>
<circle cx="143" cy="246" r="0.5" tabindex="88">
<title>
v:12
</title>
</circle>
<circle cx="133" cy="189" r="0.5" tabindex="89">
<title>
v:13
</title>
</circle>
<circle cx="146" cy="225" r="0.5" tabindex="90">
<title>
v:14
</title>
</circle>
<circle cx="121" cy="183" r="0.5" tabindex="91">
<title>
v:15
</title>
</circle>
<circle cx="54" cy="209" r="0.5" tabindex="92">
<title>
v:16
</title>
</circle>
<circle cx="125" cy="221" r="0.5" tabindex="93">
<title>
v:17
</title>
</circle>
<circle cx="74" cy="191" r="0.5" tabindex="94">
<title>
v:18
</title>
</circle>
<circle cx="76" cy="299" r="0.5" tabindex="95">
<title>
v:19
</title>
</circle>
<circle cx="100" cy="262" r="0.5" tabindex="96">
<title>
v:20
</title>
</circle>
<circle cx="104" cy="203" r="0.5" tabindex="97">
<title>
v:21
</title>
</circle>
<circle cx="66" cy="321" r="0.5" tabindex="98">
<title>
v:22
</title>
</circle>
<circle cx="129" cy="253" r="0.5" tabindex="99">
<title>
v:23
</title>
</circle>
<circle cx="133" cy="208" r="0.5" tabindex="100">
<title>
v:24
</title>
</circle>
<circle cx="124" cy="187" r="0.5" tabindex="101">
<title>
v:25
</title>
</circle>
<circle cx="111" cy="168" r="0.5" tabindex="102">
<title>
v:26
</title>
</circle>
<circle cx="83" cy="196" r="0.5" tabindex="103">
<title>
v:27
</title>
</circle>
<circle cx="82" cy="234" r="0.5" tabindex="104">
<title>
v:28
</title>
</circle>
<circle cx="27" cy="173" r="0.5" tabindex="105">
<title>
v:29
</title>
</circle>
<circle cx="72" cy="233" r="0.5" tabindex="106">
<title>
v:30
</title>
</circle>
<circle cx="46" cy="238" r="0.5" tabindex="107">
<title>
v:31
</title>
</circle>
<circle cx="111" cy="174" r="0.5" tabindex="108">
<title>
v:32
</title>
</circle>
<circle cx="45" cy="186" r="0.5" tabindex="109">
<title>
v:33
</title>
</circle>
<circle cx="62" cy="217" r="0.5" tabindex="110">
<title>
v:34
</title>
</circle>
<circle cx="114" cy="144" r="0.5" tabindex="111">
<title>
v:35
</title>
</circle>
<circle cx="136" cy="202" r="0.5" tabindex="112">
<title>
v:36
</title>
</circle>
<circle cx="114" cy="209" r="0.5" tabindex="113">
<title>
v:37
</title>
</circle>
<circle cx="73" cy="226" r="0.5" tabindex="114">
<title>
v:38
</title>
</circle>
<circle cx="22" cy="253" r="0.5" tabindex="115">
<title>
v:39
</title>
</circle>
<circle cx="97" cy="319" r="0.5" tabindex="116">
<title>
v:40
</title>
</circle>
<circle cx="62" cy="229" r="0.5" tabindex="117">
<title>
v:41
</title>
</circle>
<circle cx="114" cy="257" r="0.5" tabindex="118">
<title>
v:42
</title>
</circle>
<circle cx="144" cy="141" r="0.5" tabindex="119">
<title>
v:43
</title>
</circle>
<circle cx="60" cy="192" r="0.5" tabindex="120">
<title>
v:44
</title>
</circle>
<circle cx="126" cy="241" r="0.5" tabindex="121">
<title>
v:45
</title>
</circle>
<circle cx="120" cy="204" r="0.5" tabindex="122">
<title>
v:46
</title>
</circle>
<circle cx="108" cy="209" r="0.5" tabindex="123">
<title>
v:47
</title>
</circle>
<circle cx="115" cy="183" r="0.5" tabindex="124">
<title>
v:48
</title>
</circle>
<circle cx="90" cy="254" r="0.5" tabindex="125">
<title>
v:49
</title>
</circle>
<circle cx="115" cy="342" r="0.5" tabindex="126">
<title>
v:50
</title>
</circle>
<circle cx="37" cy="265" r="0.5" tabindex="127">
<title>
v:51
</title>
</circle>
<circle cx="91" cy="142" r="0.5" tabindex="128">
<title>
v:52
</title>
</circle>
<circle cx="101" cy="204" r="0.5" tabindex="129">
<title>
v:53
</title>
</circle>
<circle cx="170" cy="231" r="0.5" tabindex="130">
<title>
v:54
</title>
</circle>
<circle cx="73" cy="284" r="0.5" tabindex="131">
<title>
v:55
</title>
</circle>
<circle cx="134" cy="260" r="0.5" tabindex="132">
<title>
v:56
</title>
</circle>
<circle cx="131" cy="254" r="0.5" tabindex="133">
<title>
v:57
</title>
</circle>
<circle cx="61" cy="141" r="0.5" tabindex="134">
<title>
v:58
</title>
</circle>
<circle cx="86" cy="207" r="0.5" tabindex="135">
<title>
v:59
</title>
</circle>
<circle cx="88" cy="261" r="0.5" tabindex="136">
<title>
v:60
</title>
</circle>
<circle cx="110" cy="254" r="0.5" tabindex="137">
<title>
v:61
</title>
</circle>
<circle cx="201" cy="313" r="0.5" tabindex="138">
<title>
v:62
</title>
</circle>
<circle cx="76" cy="193" r="0.5" tabindex="139">
<title>
v:63
</title>
</circle>
<circle cx="116" cy="243" r="0.5" tabindex="140">
<title>
v:64
</title>
</circle>
<circle cx="87" cy="141" r="0.5" tabindex="141">
<title>
v:65
</title>
</circle>
<circle cx="134" cy="194" r="0.5" tabindex="142">
<title>
v:66
</title>
</circle>
<circle cx="114" cy="218" r="0.5" tabindex="143">
<title>
v:67
</title>
</circle>
<circle cx="136" cy="206" r="0.5" tabindex="144">
<title>
v:68
</title>
</circle>
<circle cx="35" cy="167" r="0.5" tabindex="145">
<title>
v:69
</title>
</circle>
<circle cx="60" cy="308" r="0.5" tabindex="146">
<title>
v:70
</title>
</circle>
<circle cx="175" cy="407" r="0.5" tabindex="147">
<title>
v:71
</title>
</circle>
<circle cx="18" cy="233" r="0.5" tabindex="148">
<title>
v:72
</title>
</circle>
<circle cx="75" cy="216" r="0.5" tabindex="149">
<title>
v:73
</title>
</circle>
<circle cx="146" cy="117" r="0.5" tabindex="150">
<title>
v:74
</title>
</circle>
<circle cx="101" cy="155" r="0.5" tabindex="151">
<title>
v:75
</title>
</circle>
<circle cx="126" cy="145" r="0.5" tabindex="152">
<title>
v:76
</title>
</circle>
<circle cx="103" cy="290" r="0.5" tabindex="153">
<title>
v:77
</title>
</circle>
<circle cx="124" cy="148" r="0.5" tabindex="154">
<title>
v:78
</title>
</circle>
<circle cx="71" cy="189" r="0.5" tabindex="155">
<title>
v:79
</title>
</circle>
<circle cx="169" cy="169" r="0.5" tabindex="156">
<title>
v:80
</title>
</circle>
<circle cx="90" cy="259" r="0.5" tabindex="157">
<title>
v:81
</title>
</circle>
<circle cx="100" cy="145" r="0.5" tabindex="158">
<title>
v:82
</title>
</circle>
<circle cx="116" cy="77" r="0.5" tabindex="159">
<title>
v:83
</title>
</circle>
<circle cx="110" cy="342" r="0.5" tabindex="160">
<title>
v:84
</title>
</circle>
<circle cx="101" cy="250" r="0.5" tabindex="161">
<title>
v:85
</title>
</circle>
<circle cx="135" cy="188" r="0.5" tabindex="162">
<title>
v:86
</title>
</circle>
<circle cx="137" cy="371" r="0.5" tabindex="163">
<title>
v:87
</title>
</circle>
<circle cx="79" cy="199" r="0.5" tabindex="164">
<title>
v:88
</title>
</circle>
<circle cx="123" cy="274" r="0.5" tabindex="165">
<title>
v:89
</title>
</circle>
<circle cx="115" cy="258" r="0.5" tabindex="166">
<title>
v:90
</title>
</circle>
<circle cx="29" cy="120" r="0.5" tabindex="167">
<title>
v:91
</title>
</circle>
<circle cx="113" cy="213" r="0.5" tabindex="168">
<title>
v:92
</title>
</circle>
<circle cx="18" cy="215" r="0.5" tabindex="169">
<title>
v:93
</title>
</circle>
<circle cx="144" cy="204" r="0.5" tabindex="170">
<title>
v:94
</title>
</circle>
<circle cx="82" cy="185" r="0.5" tabindex="171">
<title>
v:95
</title>
</circle>
<circle cx="54" cy="198" r="0.5" tabindex="172">
<title>
v:96
</title>
</circle>
<circle cx="116" cy="186" r="0.5" tabindex="173">
<title>
v:97
</title>
</circle>
<circle cx="90" cy="456" r="0.5" tabindex="174">
<title>
v:98
</title>
</circle>
<circle cx="120" cy="132" r="0.5" tabindex="175">
<title>
v:99
</title>
</circle>
<circle cx="88" cy="72" r="0.5" tabindex="176">
<title>
v:100
</title>
</circle>
<circle cx="102" cy="147" r="0.5" tabindex="177">
<title>
v:101
</title>
</circle>
<circle cx="119" cy="255" r="0.5" tabindex="178">
<title>
v:102
</title>
</circle>
<circle cx="32" cy="171" r="0.5" tabindex="179">
<title>
v:103
</title>
</circle>
<circle cx="162" cy="287" r="0.5" tabindex="180">
<title>
v:104
</title>
</circle>
<circle cx="64" cy="307" r="0.5" tabindex="181">
<title>
v:105
</title>
</circle>
<circle cx="162" cy="210" r="0.5" tabindex="182">
<title>
v:106
</title>
</circle>
<circle cx="167" cy="404" r="0.5" tabindex="183">
<title>
v:107
</title>
</circle>
<circle cx="124" cy="342" r="0.5" tabindex="184">
<title>
v:108
</title>
</circle>
<circle cx="82" cy="125" r="0.5" tabindex="185">
<title>
v:109
</title>
</circle>
<circle cx="84" cy="73" r="0.5" tabindex="186">
<title>
v:110
</title>
</circle>
<circle cx="73" cy="191" r="0.5" tabindex="187">
<title>
v:111
</title>
</circle>
<circle cx="85" cy="135" r="0.5" tabindex="188">
<title>
v:112
</title>
</circle>
<circle cx="33" cy="373" r="0.5" tabindex="189">
<title>
v:113
</title>
</circle>
<circle cx="49" cy="267" r="0.5" tabindex="190">
<title>
v:114
</title>
</circle>
<circle cx="140" cy="265" r="0.5" tabindex="191">
<title>
v:115
</title>
</circle>
<circle cx="146" cy="198" r="0.5" tabindex="192">
<title>
v:116
</title>
</circle>
<circle cx="107" cy="259" r="0.5" tabindex="193">
<title>
v:117
</title>
</circle>
<circle cx="32" cy="139" r="0.5" tabindex="194">
<title>
v:118
</title>
</circle>
<circle cx="65" cy="0" r="0.5" tabindex="195">
<title>
v:119
</title>
</circle>
<circle cx="77" cy="200" r="0.5" tabindex="196">
<title>
v:120
</title>
</circle>
<circle cx="134" cy="322" r="0.5" tabindex="197">
<title>
v:121
</title>
</circle>
<circle cx="107" cy="548" r="0.5" tabindex="198">
<title>
v:122
</title>
</circle>
<circle cx="93" cy="235" r="0.5" tabindex="199">
<title>
v:123
</title>
</circle>
<circle cx="134" cy="231" r="0.5" tabindex="200">
<title>
v:124
</title>
</circle>
<circle cx="163" cy="404" r="0.5" tabindex="201">
<title>
v:125
</title>
</circle>
<circle cx="35" cy="65" r="0.5" tabindex="202">
<title>
v:126
</title>
</circle>
<circle cx="126" cy="137" r="0.5" tabindex="203">
<title>
v:127
</title>
</circle>
<circle cx="183" cy="500" r="0.5" tabindex="204">
<title>
v:128
</title>
</circle>
<circle cx="194" cy="350" r="0.5" tabindex="205">
<title>
v:129
</title>
</circle>
<circle cx="110" cy="209" r="0.5" tabindex="206">
<title>
v:130
</title>
</circle>
<circle cx="93" cy="225" r="0.5" tabindex="207">
<title>
v:131
</title>
</circle>
<circle cx="6" cy="69" r="0.5" tabindex="208">
<title>
v:132
</title>
</circle>
<circle cx="143" cy="264" r="0.5" tabindex="209">
<title>
v:133
</title>
</circle>
<circle cx="70" cy="262" r="0.5" tabindex="210">
<title>
v:134
</title>
</circle>
<circle cx="77" cy="75" r="0.5" tabindex="211">
<title>
v:135
</title>
</circle>
<circle cx="108" cy="55" r="0.5" tabindex="212">
<title>
v:136
</title>
</circle>
<circle cx="191" cy="286" r="0.5" tabindex="213">
<title>
v:137
</title>
</circle>
<circle cx="127" cy="355" r="0.5" tabindex="214">
<title>
v:138
</title>
</circle>
<circle cx="41" cy="133" r="0.5" tabindex="215">
<title>
v:139
</title>
</circle>
<circle cx="187" cy="587" r="0.5" tabindex="216">
<title>
v:140
</title>
</circle>
<circle cx="169" cy="302" r="0.5" tabindex="217">
<title>
v:141
</title>
</circle>
<circle cx="190" cy="195" r="0.5" tabindex="218">
<title>
v:142
</title>
</circle>
<circle cx="40" cy="155" r="0.5" tabindex="219">
<title>
v:143
</title>
</circle>
<circle cx="110" cy="199" r="0.5" tabindex="220">
<title>
v:144
</title>
</circle>
<circle cx="32" cy="139" r="0.5" tabindex="221">
<title>
v:145
</title>
</circle>
<circle cx="116" cy="145" r="0.5" tabindex="222">
<title>
v:146
</title>
</circle>
<circle cx="102" cy="185" r="0.5" tabindex="223">
<title>
v:147
</title>
</circle>
<circle cx="146" cy="218" r="0.5" tabindex="224">
<title>
v:148
</title>
</circle>
<circle cx="66" cy="256" r="0.5" tabindex="225">
<title>
v:149
</title>
</circle>
</g>
</svg>