<svg height="500" viewBox="0 -2 112 158" width="500" xmlns="http://www.w3.org/2000/svg">
<path class="hole" d="M14 35L25 53L13 58L2 64L4 91L42 68L33 99L14 102L7 113L12 132L49 112L19 145L43 154L58 154L54 130L68 134L74 111L86 144L104 154L110 119L93 120L93 106L91 93L108 88L104 71L106 54L91 65L89 45L106 41L110 22L110 0L92 4L80 0L74 15L77 33L59 57L62 30L45 30L37 50L30 22L24 4L8 2L7 15M0 -2L112 -2L112 156L0 156" style="fill:#00000066;fill-rule:evenodd;"/>
<circle cx="29" cy="120" fill="#ffff0066" r="5">
<title>
Globalist@93
</title>
</circle>
<circle cx="20" cy="78" fill="#ffff0066" r="5">
<title>
SuperFlex@23
</title>
</circle>
<circle cx="77" cy="81" fill="#ffff0066" r="5">
<title>
SuperFlex@54
</title>
</circle>
<path class="ok" d="M50 44L52 37M50 44L55 49M50 44L57 42M52 37L57 42M52 37L59 36M53 133L55 136M54 55L55 49M54 55L58 64M54 55L63 85M54 86L57 82M54 86L58 88M55 49L57 42M57 42L59 36M57 82L58 73M57 82L61 84M58 64L58 73M58 64L64 63M58 73L64 74M58 88L61 84M59 103L61 114M59 103L63 85M59 103L68 106M61 84L64 74M61 114L64 130M61 114L69 113M63 85L66 107M63 85L78 91M64 63L64 74M65 87L66 83M65 87L71 86M66 64L66 73M66 64L68 52M66 64L71 66M66 73L66 83M66 73L71 74M66 83L71 83M66 107L66 112M66 107L74 106M66 112L69 128M68 52L72 59M68 106L69 113M68 106L78 91M71 66L71 74M71 66L72 59M71 74L71 83M71 83L71 86M72 59L81 83M74 106L75 112M74 106L78 91M78 91L81 83" style="stroke:#0000ff;stroke-linecap:round"/>
<path class="out" d="M53 133L64 130M54 55L60 50M55 49L62 46M55 136L73 137M57 42L62 46M57 42L63 41M59 36L63 41M60 50L62 46M60 50L64 63M60 50L68 52M61 133L63 136M61 133L69 128M62 46L63 41M62 46L68 52M63 136L78 134M64 130L71 130M66 112L75 112M69 113L71 130M69 128L77 127M71 130L73 137M75 112L77 127M77 127L78 134" style="stroke:#ff0000;stroke-linecap:round"/>
<g fill="#333333">
<circle cx="14" cy="35" r="0.5">
<title>
hole:0
</title>
</circle>
<circle cx="25" cy="53" r="0.5">
<title>
hole:1
</title>
</circle>
<circle cx="13" cy="58" r="0.5">
<title>
hole:2
</title>
</circle>
<circle cx="2" cy="64" r="0.5">
<title>
hole:3
</title>
</circle>
<circle cx="4" cy="91" r="0.5">
<title>
hole:4
</title>
</circle>
<circle cx="42" cy="68" r="0.5">
<title>
hole:5
</title>
</circle>
<circle cx="33" cy="99" r="0.5">
<title>
hole:6
</title>
</circle>
<circle cx="14" cy="102" r="0.5">
<title>
hole:7
</title>
</circle>
<circle cx="7" cy="113" r="0.5">
<title>
hole:8
</title>
</circle>
<circle cx="12" cy="132" r="0.5">
<title>
hole:9
</title>
</circle>
<circle cx="49" cy="112" r="0.5">
<title>
hole:10
</title>
</circle>
<circle cx="19" cy="145" r="0.5">
<title>
hole:11
</title>
</circle>
<circle cx="43" cy="154" r="0.5">
<title>
hole:12
</title>
</circle>
<circle cx="58" cy="154" r="0.5">
<title>
hole:13
</title>
</circle>
<circle cx="54" cy="130" r="0.5">
<title>
hole:14
</title>
</circle>
<circle cx="68" cy="134" r="0.5">
<title>
hole:15
</title>
</circle>
<circle cx="74" cy="111" r="0.5">
<title>
hole:16
</title>
</circle>
<circle cx="86" cy="144" r="0.5">
<title>
hole:17
</title>
</circle>
<circle cx="104" cy="154" r="0.5">
<title>
hole:18
</title>
</circle>
<circle cx="110" cy="119" r="0.5">
<title>
hole:19
</title>
</circle>
<circle cx="93" cy="120" r="0.5">
<title>
hole:20
</title>
</circle>
<circle cx="93" cy="106" r="0.5">
<title>
hole:21
</title>
</circle>
<circle cx="91" cy="93" r="0.5">
<title>
hole:22
</title>
</circle>
<circle cx="108" cy="88" r="0.5">
<title>
hole:23
</title>
</circle>
<circle cx="104" cy="71" r="0.5">
<title>
hole:24
</title>
</circle>
<circle cx="106" cy="54" r="0.5">
<title>
hole:25
</title>
</circle>
<circle cx="91" cy="65" r="0.5">
<title>
hole:26
</title>
</circle>
<circle cx="89" cy="45" r="0.5">
<title>
hole:27
</title>
</circle>
<circle cx="106" cy="41" r="0.5">
<title>
hole:28
</title>
</circle>
<circle cx="110" cy="22" r="0.5">
<title>
hole:29
</title>
</circle>
<circle cx="110" cy="0" r="0.5">
<title>
hole:30
</title>
</circle>
<circle cx="92" cy="4" r="0.5">
<title>
hole:31
</title>
</circle>
<circle cx="80" cy="0" r="0.5">
<title>
hole:32
</title>
</circle>
<circle cx="74" cy="15" r="0.5">
<title>
hole:33
</title>
</circle>
<circle cx="77" cy="33" r="0.5">
<title>
hole:34
</title>
</circle>
<circle cx="59" cy="57" r="0.5">
<title>
hole:35
</title>
</circle>
<circle cx="62" cy="30" r="0.5">
<title>
hole:36
</title>
</circle>
<circle cx="45" cy="30" r="0.5">
<title>
hole:37
</title>
</circle>
<circle cx="37" cy="50" r="0.5">
<title>
hole:38
</title>
</circle>
<circle cx="30" cy="22" r="0.5">
<title>
hole:39
</title>
</circle>
<circle cx="24" cy="4" r="0.5">
<title>
hole:40
</title>
</circle>
<circle cx="8" cy="2" r="0.5">
<title>
hole:41
</title>
</circle>
<circle cx="7" cy="15" r="0.5">
<title>
hole:42
</title>
</circle>
</g>
<g fill="#999999">
<circle cx="50" cy="44" i="0" r="0.5" tabindex="0">
<title>
v:0
</title>
</circle>
<circle cx="52" cy="37" i="1" r="0.5" tabindex="1">
<title>
v:1
</title>
</circle>
<circle cx="53" cy="133" i="2" r="0.5" tabindex="2">
<title>
v:2
</title>
</circle>
<circle cx="54" cy="55" i="3" r="0.5" tabindex="3">
<title>
v:3
</title>
</circle>
<circle cx="54" cy="86" i="4" r="0.5" tabindex="4">
<title>
v:4
</title>
</circle>
<circle cx="55" cy="49" i="5" r="0.5" tabindex="5">
<title>
v:5
</title>
</circle>
<circle cx="55" cy="136" i="6" r="0.5" tabindex="6">
<title>
v:6
</title>
</circle>
<circle cx="57" cy="42" i="7" r="0.5" tabindex="7">
<title>
v:7
</title>
</circle>
<circle cx="57" cy="82" i="8" r="0.5" tabindex="8">
<title>
v:8
</title>
</circle>
<circle cx="58" cy="64" i="9" r="0.5" tabindex="9">
<title>
v:9
</title>
</circle>
<circle cx="58" cy="73" i="10" r="0.5" tabindex="10">
<title>
v:10
</title>
</circle>
<circle cx="58" cy="88" i="11" r="0.5" tabindex="11">
<title>
v:11
</title>
</circle>
<circle cx="59" cy="36" i="12" r="0.5" tabindex="12">
<title>
v:12
</title>
</circle>
<circle cx="59" cy="103" i="13" r="0.5" tabindex="13">
<title>
v:13
</title>
</circle>
<circle cx="60" cy="50" i="14" r="0.5" tabindex="14">
<title>
v:14
</title>
</circle>
<circle cx="61" cy="84" i="15" r="0.5" tabindex="15">
<title>
v:15
</title>
</circle>
<circle cx="61" cy="114" i="16" r="0.5" tabindex="16">
<title>
v:16
</title>
</circle>
<circle cx="61" cy="133" i="17" r="0.5" tabindex="17">
<title>
v:17
</title>
</circle>
<circle cx="62" cy="46" i="18" r="0.5" tabindex="18">
<title>
v:18
</title>
</circle>
<circle cx="63" cy="41" i="19" r="0.5" tabindex="19">
<title>
v:19
</title>
</circle>
<circle cx="63" cy="85" i="20" r="0.5" tabindex="20">
<title>
v:20
</title>
</circle>
<circle cx="63" cy="136" i="21" r="0.5" tabindex="21">
<title>
v:21
</title>
</circle>
<circle cx="64" cy="63" i="22" r="0.5" tabindex="22">
<title>
v:22
</title>
</circle>
<circle cx="64" cy="74" i="23" r="0.5" tabindex="23">
<title>
v:23
</title>
</circle>
<circle cx="64" cy="130" i="24" r="0.5" tabindex="24">
<title>
v:24
</title>
</circle>
<circle cx="65" cy="87" i="25" r="0.5" tabindex="25">
<title>
v:25
</title>
</circle>
<circle cx="66" cy="64" i="26" r="0.5" tabindex="26">
<title>
v:26
</title>
</circle>
<circle cx="66" cy="73" i="27" r="0.5" tabindex="27">
<title>
v:27
</title>
</circle>
<circle cx="66" cy="83" i="28" r="0.5" tabindex="28">
<title>
v:28
</title>
</circle>
<circle cx="66" cy="107" i="29" r="0.5" tabindex="29">
<title>
v:29
</title>
</circle>
<circle cx="66" cy="112" i="30" r="0.5" tabindex="30">
<title>
v:30
</title>
</circle>
<circle cx="68" cy="52" i="31" r="0.5" tabindex="31">
<title>
v:31
</title>
</circle>
<circle cx="68" cy="106" i="32" r="0.5" tabindex="32">
<title>
v:32
</title>
</circle>
<circle cx="69" cy="113" i="33" r="0.5" tabindex="33">
<title>
v:33
</title>
</circle>
<circle cx="69" cy="128" i="34" r="0.5" tabindex="34">
<title>
v:34
</title>
</circle>
<circle cx="71" cy="66" i="35" r="0.5" tabindex="35">
<title>
v:35
</title>
</circle>
<circle cx="71" cy="74" i="36" r="0.5" tabindex="36">
<title>
v:36
</title>
</circle>
<circle cx="71" cy="83" i="37" r="0.5" tabindex="37">
<title>
v:37
</title>
</circle>
<circle cx="71" cy="86" i="38" r="0.5" tabindex="38">
<title>
v:38
</title>
</circle>
<circle cx="71" cy="130" i="39" r="0.5" tabindex="39">
<title>
v:39
</title>
</circle>
<circle cx="72" cy="59" i="40" r="0.5" tabindex="40">
<title>
v:40
</title>
</circle>
<circle cx="73" cy="137" i="41" r="0.5" tabindex="41">
<title>
v:41
</title>
</circle>
<circle cx="74" cy="106" i="42" r="0.5" tabindex="42">
<title>
v:42
</title>
</circle>
<circle cx="75" cy="112" i="43" r="0.5" tabindex="43">
<title>
v:43
</title>
</circle>
<circle cx="77" cy="127" i="44" r="0.5" tabindex="44">
<title>
v:44
</title>
</circle>
<circle cx="78" cy="91" i="45" r="0.5" tabindex="45">
<title>
v:45
</title>
</circle>
<circle cx="78" cy="134" i="46" r="0.5" tabindex="46">
<title>
v:46
</title>
</circle>
<circle cx="81" cy="83" i="47" r="0.5" tabindex="47">
<title>
v:47
</title>
</circle>
</g>
</svg>