<svg height="500" viewBox="0 -2 112 158" width="500" xmlns="http://www.w3.org/2000/svg">
<path class="hole" d="M14 35L25 53L13 58L2 64L4 91L42 68L33 99L14 102L7 113L12 132L49 112L19 145L43 154L58 154L54 130L68 134L74 111L86 144L104 154L110 119L93 120L93 106L91 93L108 88L104 71L106 54L91 65L89 45L106 41L110 22L110 0L92 4L80 0L74 15L77 33L59 57L62 30L45 30L37 50L30 22L24 4L8 2L7 15M0 -2L112 -2L112 156L0 156" style="fill:#00000066;fill-rule:evenodd;"/>
<circle cx="29" cy="120" r="5" style="fill:#ffff0066;" title="Globalist"/>
<path class="ok" d="M48 44L50 37M48 44L53 49M48 44L55 42M50 37L55 42M50 37L57 36M51 133L53 136M52 55L53 49M52 55L56 64M52 55L58 50M52 55L61 85M52 86L55 82M52 86L56 88M53 49L55 42M53 49L60 46M55 42L57 36M55 42L60 46M55 82L56 73M55 82L59 84M56 64L56 73M56 64L62 63M56 73L62 74M56 88L59 84M57 103L59 114M57 103L61 85M57 103L66 106M58 50L60 46M59 84L62 74M59 114L62 130M59 114L67 113M61 85L64 107M61 85L76 91M62 63L62 74M62 130L69 130M63 87L64 83M63 87L69 86M64 64L64 73M64 64L66 52M64 64L69 66M64 73L64 83M64 73L69 74M64 83L69 83M64 107L64 112M64 107L72 106M64 112L67 128M64 112L73 112M66 52L70 59M66 106L67 113M66 106L76 91M67 113L69 130M69 66L69 74M69 66L70 59M69 74L69 83M69 83L69 86M70 59L79 83M72 106L73 112M72 106L76 91M76 91L79 83" style="stroke:#0000ff;stroke-linecap:round"/>
<path class="out" d="M51 133L62 130M53 136L71 137M55 42L61 41M57 36L61 41M58 50L62 63M58 50L66 52M59 133L61 136M59 133L67 128M60 46L61 41M60 46L66 52M61 136L76 134M67 128L75 127M69 130L71 137M73 112L75 127M75 127L76 134" style="stroke:#ff0000;stroke-linecap:round"/>
<g fill="#333333">
<circle cx="14" cy="35" r="0.5" tabindex="0">
<title>
hole:0
</title>
</circle>
<circle cx="25" cy="53" r="0.5" tabindex="1">
<title>
hole:1
</title>
</circle>
<circle cx="13" cy="58" r="0.5" tabindex="2">
<title>
hole:2
</title>
</circle>
<circle cx="2" cy="64" r="0.5" tabindex="3">
<title>
hole:3
</title>
</circle>
<circle cx="4" cy="91" r="0.5" tabindex="4">
<title>
hole:4
</title>
</circle>
<circle cx="42" cy="68" r="0.5" tabindex="5">
<title>
hole:5
</title>
</circle>
<circle cx="33" cy="99" r="0.5" tabindex="6">
<title>
hole:6
</title>
</circle>
<circle cx="14" cy="102" r="0.5" tabindex="7">
<title>
hole:7
</title>
</circle>
<circle cx="7" cy="113" r="0.5" tabindex="8">
<title>
hole:8
</title>
</circle>
<circle cx="12" cy="132" r="0.5" tabindex="9">
<title>
hole:9
</title>
</circle>
<circle cx="49" cy="112" r="0.5" tabindex="10">
<title>
hole:10
</title>
</circle>
<circle cx="19" cy="145" r="0.5" tabindex="11">
<title>
hole:11
</title>
</circle>
<circle cx="43" cy="154" r="0.5" tabindex="12">
<title>
hole:12
</title>
</circle>
<circle cx="58" cy="154" r="0.5" tabindex="13">
<title>
hole:13
</title>
</circle>
<circle cx="54" cy="130" r="0.5" tabindex="14">
<title>
hole:14
</title>
</circle>
<circle cx="68" cy="134" r="0.5" tabindex="15">
<title>
hole:15
</title>
</circle>
<circle cx="74" cy="111" r="0.5" tabindex="16">
<title>
hole:16
</title>
</circle>
<circle cx="86" cy="144" r="0.5" tabindex="17">
<title>
hole:17
</title>
</circle>
<circle cx="104" cy="154" r="0.5" tabindex="18">
<title>
hole:18
</title>
</circle>
<circle cx="110" cy="119" r="0.5" tabindex="19">
<title>
hole:19
</title>
</circle>
<circle cx="93" cy="120" r="0.5" tabindex="20">
<title>
hole:20
</title>
</circle>
<circle cx="93" cy="106" r="0.5" tabindex="21">
<title>
hole:21
</title>
</circle>
<circle cx="91" cy="93" r="0.5" tabindex="22">
<title>
hole:22
</title>
</circle>
<circle cx="108" cy="88" r="0.5" tabindex="23">
<title>
hole:23
</title>
</circle>
<circle cx="104" cy="71" r="0.5" tabindex="24">
<title>
hole:24
</title>
</circle>
<circle cx="106" cy="54" r="0.5" tabindex="25">
<title>
hole:25
</title>
</circle>
<circle cx="91" cy="65" r="0.5" tabindex="26">
<title>
hole:26
</title>
</circle>
<circle cx="89" cy="45" r="0.5" tabindex="27">
<title>
hole:27
</title>
</circle>
<circle cx="106" cy="41" r="0.5" tabindex="28">
<title>
hole:28
</title>
</circle>
<circle cx="110" cy="22" r="0.5" tabindex="29">
<title>
hole:29
</title>
</circle>
<circle cx="110" cy="0" r="0.5" tabindex="30">
<title>
hole:30
</title>
</circle>
<circle cx="92" cy="4" r="0.5" tabindex="31">
<title>
hole:31
</title>
</circle>
<circle cx="80" cy="0" r="0.5" tabindex="32">
<title>
hole:32
</title>
</circle>
<circle cx="74" cy="15" r="0.5" tabindex="33">
<title>
hole:33
</title>
</circle>
<circle cx="77" cy="33" r="0.5" tabindex="34">
<title>
hole:34
</title>
</circle>
<circle cx="59" cy="57" r="0.5" tabindex="35">
<title>
hole:35
</title>
</circle>
<circle cx="62" cy="30" r="0.5" tabindex="36">
<title>
hole:36
</title>
</circle>
<circle cx="45" cy="30" r="0.5" tabindex="37">
<title>
hole:37
</title>
</circle>
<circle cx="37" cy="50" r="0.5" tabindex="38">
<title>
hole:38
</title>
</circle>
<circle cx="30" cy="22" r="0.5" tabindex="39">
<title>
hole:39
</title>
</circle>
<circle cx="24" cy="4" r="0.5" tabindex="40">
<title>
hole:40
</title>
</circle>
<circle cx="8" cy="2" r="0.5" tabindex="41">
<title>
hole:41
</title>
</circle>
<circle cx="7" cy="15" r="0.5" tabindex="42">
<title>
hole:42
</title>
</circle>
</g>
<g fill="#999999">
<circle cx="48" cy="44" r="0.5" tabindex="43">
<title>
v:0
</title>
</circle>
<circle cx="50" cy="37" r="0.5" tabindex="44">
<title>
v:1
</title>
</circle>
<circle cx="51" cy="133" r="0.5" tabindex="45">
<title>
v:2
</title>
</circle>
<circle cx="52" cy="55" r="0.5" tabindex="46">
<title>
v:3
</title>
</circle>
<circle cx="52" cy="86" r="0.5" tabindex="47">
<title>
v:4
</title>
</circle>
<circle cx="53" cy="49" r="0.5" tabindex="48">
<title>
v:5
</title>
</circle>
<circle cx="53" cy="136" r="0.5" tabindex="49">
<title>
v:6
</title>
</circle>
<circle cx="55" cy="42" r="0.5" tabindex="50">
<title>
v:7
</title>
</circle>
<circle cx="55" cy="82" r="0.5" tabindex="51">
<title>
v:8
</title>
</circle>
<circle cx="56" cy="64" r="0.5" tabindex="52">
<title>
v:9
</title>
</circle>
<circle cx="56" cy="73" r="0.5" tabindex="53">
<title>
v:10
</title>
</circle>
<circle cx="56" cy="88" r="0.5" tabindex="54">
<title>
v:11
</title>
</circle>
<circle cx="57" cy="36" r="0.5" tabindex="55">
<title>
v:12
</title>
</circle>
<circle cx="57" cy="103" r="0.5" tabindex="56">
<title>
v:13
</title>
</circle>
<circle cx="58" cy="50" r="0.5" tabindex="57">
<title>
v:14
</title>
</circle>
<circle cx="59" cy="84" r="0.5" tabindex="58">
<title>
v:15
</title>
</circle>
<circle cx="59" cy="114" r="0.5" tabindex="59">
<title>
v:16
</title>
</circle>
<circle cx="59" cy="133" r="0.5" tabindex="60">
<title>
v:17
</title>
</circle>
<circle cx="60" cy="46" r="0.5" tabindex="61">
<title>
v:18
</title>
</circle>
<circle cx="61" cy="41" r="0.5" tabindex="62">
<title>
v:19
</title>
</circle>
<circle cx="61" cy="85" r="0.5" tabindex="63">
<title>
v:20
</title>
</circle>
<circle cx="61" cy="136" r="0.5" tabindex="64">
<title>
v:21
</title>
</circle>
<circle cx="62" cy="63" r="0.5" tabindex="65">
<title>
v:22
</title>
</circle>
<circle cx="62" cy="74" r="0.5" tabindex="66">
<title>
v:23
</title>
</circle>
<circle cx="62" cy="130" r="0.5" tabindex="67">
<title>
v:24
</title>
</circle>
<circle cx="63" cy="87" r="0.5" tabindex="68">
<title>
v:25
</title>
</circle>
<circle cx="64" cy="64" r="0.5" tabindex="69">
<title>
v:26
</title>
</circle>
<circle cx="64" cy="73" r="0.5" tabindex="70">
<title>
v:27
</title>
</circle>
<circle cx="64" cy="83" r="0.5" tabindex="71">
<title>
v:28
</title>
</circle>
<circle cx="64" cy="107" r="0.5" tabindex="72">
<title>
v:29
</title>
</circle>
<circle cx="64" cy="112" r="0.5" tabindex="73">
<title>
v:30
</title>
</circle>
<circle cx="66" cy="52" r="0.5" tabindex="74">
<title>
v:31
</title>
</circle>
<circle cx="66" cy="106" r="0.5" tabindex="75">
<title>
v:32
</title>
</circle>
<circle cx="67" cy="113" r="0.5" tabindex="76">
<title>
v:33
</title>
</circle>
<circle cx="67" cy="128" r="0.5" tabindex="77">
<title>
v:34
</title>
</circle>
<circle cx="69" cy="66" r="0.5" tabindex="78">
<title>
v:35
</title>
</circle>
<circle cx="69" cy="74" r="0.5" tabindex="79">
<title>
v:36
</title>
</circle>
<circle cx="69" cy="83" r="0.5" tabindex="80">
<title>
v:37
</title>
</circle>
<circle cx="69" cy="86" r="0.5" tabindex="81">
<title>
v:38
</title>
</circle>
<circle cx="69" cy="130" r="0.5" tabindex="82">
<title>
v:39
</title>
</circle>
<circle cx="70" cy="59" r="0.5" tabindex="83">
<title>
v:40
</title>
</circle>
<circle cx="71" cy="137" r="0.5" tabindex="84">
<title>
v:41
</title>
</circle>
<circle cx="72" cy="106" r="0.5" tabindex="85">
<title>
v:42
</title>
</circle>
<circle cx="73" cy="112" r="0.5" tabindex="86">
<title>
v:43
</title>
</circle>
<circle cx="75" cy="127" r="0.5" tabindex="87">
<title>
v:44
</title>
</circle>
<circle cx="76" cy="91" r="0.5" tabindex="88">
<title>
v:45
</title>
</circle>
<circle cx="76" cy="134" r="0.5" tabindex="89">
<title>
v:46
</title>
</circle>
<circle cx="79" cy="83" r="0.5" tabindex="90">
<title>
v:47
</title>
</circle>
</g>
</svg>