<svg height="500" viewBox="-2 -2 144 175" width="500" xmlns="http://www.w3.org/2000/svg">
<path class="hole" d="M2 31L14 55L13 64L16 77L39 97L28 122L13 144L19 157L22 160L25 149L28 153L28 165L32 153L27 145L24 130L41 111L46 121L57 128L64 121L78 114L78 124L85 146L85 167L70 171L88 169L86 152L88 126L86 107L86 97L98 118L97 121L95 133L107 146L123 147L112 127L108 120L99 109L83 85L96 73L99 75L111 65L114 77L127 83L132 85L121 76L117 76L114 69L110 61L108 59L112 52L111 45L93 57L62 72L57 57L61 43L52 9L32 0L32 18L46 23L48 17L55 37L56 49L53 72L51 71L39 53L33 45L29 44L19 42M-2 -2L142 -2L142 173L-2 173" style="fill:#00000066;fill-rule:evenodd;"/>
<circle cx="56" cy="108" r="5" style="fill:#ffff0066;" title="Globalist"/>
<circle cx="29" cy="72" r="5" style="fill:#ffff0066;" title="Globalist"/>
<path class="ok" d="M14 41L20 43M14 53L14 57M14 53L22 49M14 57L25 49M19 68L22 56M19 68L41 90M20 43L22 49M22 49L25 49M22 56L43 77M40 18L47 18M40 18L49 16M41 90L43 77M41 90L52 98M43 77L47 72M47 18L49 16M49 16L51 25M52 98L57 78M52 98L57 109M54 121L58 125M54 121L68 119M57 78L69 71M57 109L68 115M68 115L76 110M69 71L80 80M76 110L85 97M80 80L85 97" style="stroke:#0000ff;stroke-linecap:round"/>
<path class="out" d="M0 49L5 48M0 49L8 29M0 49L14 57M5 48L10 33M5 48L14 53M8 29L10 33M8 29L31 28M10 33L28 33M14 41L21 41M19 68L49 55M20 43L21 41M21 41L25 49M22 56L45 52M28 33L31 28M28 33L47 72M29 114L37 119M29 114L38 140M29 114L41 90M30 11L34 12M30 11L36 28M30 11L49 0M31 28L57 59M34 12L39 25M34 12L47 5M34 37L44 36M34 37L45 33M36 28L39 25M36 28L51 25M37 119L41 135M37 119L52 98M38 140L41 135M38 140L55 138M39 25L48 23M41 135L52 135M44 36L45 33M44 36L50 43M45 33L54 43M45 52L49 55M45 52L50 43M47 5L49 0M47 5L66 24M47 18L48 23M47 72L57 59M48 23L51 25M49 0L75 24M49 55L54 43M50 43L54 43M52 135L54 121M52 135L55 138M55 138L58 125M57 59L59 58M57 78L59 58M58 125L66 123M59 58L61 35M59 58L67 53M61 35L66 24M61 35L69 38M66 24L75 24M66 123L68 119M66 123L69 127M67 53L69 38M67 53L76 58M67 53L82 22M68 119L73 127M69 38L75 24M69 127L70 139M69 127L73 127M70 139L73 127M76 58L80 59M76 58L80 80M76 58L88 28M80 59L88 66M80 59L94 42M82 22L88 28M82 22L102 14M83 124L89 124M83 124L93 103M83 124L97 139M85 97L90 88M85 97L93 103M88 28L100 21M88 66L91 78M88 66L98 48M88 66L117 62M89 124L100 137M89 124L103 102M90 88L91 78M90 88L103 102M91 78L114 70M93 103L103 102M94 42L98 48M94 42L112 40M96 155L97 139M96 155L100 137M97 139L100 137M98 48L110 46M100 21L102 14M100 21L108 25M102 14L114 23M107 100L109 88M107 100L111 99M107 100L122 109M108 25L111 37M108 25L114 23M109 88L111 91M109 88L121 88M110 46L112 40M110 46L124 57M111 37L115 34M111 37L124 40M111 91L111 99M111 91L118 90M111 99L122 104M112 40L126 53M114 23L115 34M114 70L117 62M114 70L127 79M115 34L123 37M117 62L134 76M118 29L127 26M118 29L131 22M118 90L120 98M118 90L121 88M120 98L121 88M122 104L122 109M122 104L129 96M122 109L135 99M123 37L124 40M123 37L127 26M124 40L131 22M124 57L126 53M124 57L138 54M126 53L136 51M127 26L131 22M127 79L129 96M127 79L134 76M129 96L135 99M134 76L135 99M136 51L138 54M136 51L140 41M138 54L140 41" style="stroke:#ff0000;stroke-linecap:round"/>
<g fill="#333333">
<circle cx="2" cy="31" r="0.5" tabindex="0">
<title>
hole:0
</title>
</circle>
<circle cx="14" cy="55" r="0.5" tabindex="1">
<title>
hole:1
</title>
</circle>
<circle cx="13" cy="64" r="0.5" tabindex="2">
<title>
hole:2
</title>
</circle>
<circle cx="16" cy="77" r="0.5" tabindex="3">
<title>
hole:3
</title>
</circle>
<circle cx="39" cy="97" r="0.5" tabindex="4">
<title>
hole:4
</title>
</circle>
<circle cx="28" cy="122" r="0.5" tabindex="5">
<title>
hole:5
</title>
</circle>
<circle cx="13" cy="144" r="0.5" tabindex="6">
<title>
hole:6
</title>
</circle>
<circle cx="19" cy="157" r="0.5" tabindex="7">
<title>
hole:7
</title>
</circle>
<circle cx="22" cy="160" r="0.5" tabindex="8">
<title>
hole:8
</title>
</circle>
<circle cx="25" cy="149" r="0.5" tabindex="9">
<title>
hole:9
</title>
</circle>
<circle cx="28" cy="153" r="0.5" tabindex="10">
<title>
hole:10
</title>
</circle>
<circle cx="28" cy="165" r="0.5" tabindex="11">
<title>
hole:11
</title>
</circle>
<circle cx="32" cy="153" r="0.5" tabindex="12">
<title>
hole:12
</title>
</circle>
<circle cx="27" cy="145" r="0.5" tabindex="13">
<title>
hole:13
</title>
</circle>
<circle cx="24" cy="130" r="0.5" tabindex="14">
<title>
hole:14
</title>
</circle>
<circle cx="41" cy="111" r="0.5" tabindex="15">
<title>
hole:15
</title>
</circle>
<circle cx="46" cy="121" r="0.5" tabindex="16">
<title>
hole:16
</title>
</circle>
<circle cx="57" cy="128" r="0.5" tabindex="17">
<title>
hole:17
</title>
</circle>
<circle cx="64" cy="121" r="0.5" tabindex="18">
<title>
hole:18
</title>
</circle>
<circle cx="78" cy="114" r="0.5" tabindex="19">
<title>
hole:19
</title>
</circle>
<circle cx="78" cy="124" r="0.5" tabindex="20">
<title>
hole:20
</title>
</circle>
<circle cx="85" cy="146" r="0.5" tabindex="21">
<title>
hole:21
</title>
</circle>
<circle cx="85" cy="167" r="0.5" tabindex="22">
<title>
hole:22
</title>
</circle>
<circle cx="70" cy="171" r="0.5" tabindex="23">
<title>
hole:23
</title>
</circle>
<circle cx="88" cy="169" r="0.5" tabindex="24">
<title>
hole:24
</title>
</circle>
<circle cx="86" cy="152" r="0.5" tabindex="25">
<title>
hole:25
</title>
</circle>
<circle cx="88" cy="126" r="0.5" tabindex="26">
<title>
hole:26
</title>
</circle>
<circle cx="86" cy="107" r="0.5" tabindex="27">
<title>
hole:27
</title>
</circle>
<circle cx="86" cy="97" r="0.5" tabindex="28">
<title>
hole:28
</title>
</circle>
<circle cx="98" cy="118" r="0.5" tabindex="29">
<title>
hole:29
</title>
</circle>
<circle cx="97" cy="121" r="0.5" tabindex="30">
<title>
hole:30
</title>
</circle>
<circle cx="95" cy="133" r="0.5" tabindex="31">
<title>
hole:31
</title>
</circle>
<circle cx="107" cy="146" r="0.5" tabindex="32">
<title>
hole:32
</title>
</circle>
<circle cx="123" cy="147" r="0.5" tabindex="33">
<title>
hole:33
</title>
</circle>
<circle cx="112" cy="127" r="0.5" tabindex="34">
<title>
hole:34
</title>
</circle>
<circle cx="108" cy="120" r="0.5" tabindex="35">
<title>
hole:35
</title>
</circle>
<circle cx="99" cy="109" r="0.5" tabindex="36">
<title>
hole:36
</title>
</circle>
<circle cx="83" cy="85" r="0.5" tabindex="37">
<title>
hole:37
</title>
</circle>
<circle cx="96" cy="73" r="0.5" tabindex="38">
<title>
hole:38
</title>
</circle>
<circle cx="99" cy="75" r="0.5" tabindex="39">
<title>
hole:39
</title>
</circle>
<circle cx="111" cy="65" r="0.5" tabindex="40">
<title>
hole:40
</title>
</circle>
<circle cx="114" cy="77" r="0.5" tabindex="41">
<title>
hole:41
</title>
</circle>
<circle cx="127" cy="83" r="0.5" tabindex="42">
<title>
hole:42
</title>
</circle>
<circle cx="132" cy="85" r="0.5" tabindex="43">
<title>
hole:43
</title>
</circle>
<circle cx="121" cy="76" r="0.5" tabindex="44">
<title>
hole:44
</title>
</circle>
<circle cx="117" cy="76" r="0.5" tabindex="45">
<title>
hole:45
</title>
</circle>
<circle cx="114" cy="69" r="0.5" tabindex="46">
<title>
hole:46
</title>
</circle>
<circle cx="110" cy="61" r="0.5" tabindex="47">
<title>
hole:47
</title>
</circle>
<circle cx="108" cy="59" r="0.5" tabindex="48">
<title>
hole:48
</title>
</circle>
<circle cx="112" cy="52" r="0.5" tabindex="49">
<title>
hole:49
</title>
</circle>
<circle cx="111" cy="45" r="0.5" tabindex="50">
<title>
hole:50
</title>
</circle>
<circle cx="93" cy="57" r="0.5" tabindex="51">
<title>
hole:51
</title>
</circle>
<circle cx="62" cy="72" r="0.5" tabindex="52">
<title>
hole:52
</title>
</circle>
<circle cx="57" cy="57" r="0.5" tabindex="53">
<title>
hole:53
</title>
</circle>
<circle cx="61" cy="43" r="0.5" tabindex="54">
<title>
hole:54
</title>
</circle>
<circle cx="52" cy="9" r="0.5" tabindex="55">
<title>
hole:55
</title>
</circle>
<circle cx="32" cy="0" r="0.5" tabindex="56">
<title>
hole:56
</title>
</circle>
<circle cx="32" cy="18" r="0.5" tabindex="57">
<title>
hole:57
</title>
</circle>
<circle cx="46" cy="23" r="0.5" tabindex="58">
<title>
hole:58
</title>
</circle>
<circle cx="48" cy="17" r="0.5" tabindex="59">
<title>
hole:59
</title>
</circle>
<circle cx="55" cy="37" r="0.5" tabindex="60">
<title>
hole:60
</title>
</circle>
<circle cx="56" cy="49" r="0.5" tabindex="61">
<title>
hole:61
</title>
</circle>
<circle cx="53" cy="72" r="0.5" tabindex="62">
<title>
hole:62
</title>
</circle>
<circle cx="51" cy="71" r="0.5" tabindex="63">
<title>
hole:63
</title>
</circle>
<circle cx="39" cy="53" r="0.5" tabindex="64">
<title>
hole:64
</title>
</circle>
<circle cx="33" cy="45" r="0.5" tabindex="65">
<title>
hole:65
</title>
</circle>
<circle cx="29" cy="44" r="0.5" tabindex="66">
<title>
hole:66
</title>
</circle>
<circle cx="19" cy="42" r="0.5" tabindex="67">
<title>
hole:67
</title>
</circle>
</g>
<g fill="#999999">
<circle cx="0" cy="49" r="0.5" tabindex="68">
<title>
v:0
</title>
</circle>
<circle cx="5" cy="48" r="0.5" tabindex="69">
<title>
v:1
</title>
</circle>
<circle cx="8" cy="29" r="0.5" tabindex="70">
<title>
v:2
</title>
</circle>
<circle cx="10" cy="33" r="0.5" tabindex="71">
<title>
v:3
</title>
</circle>
<circle cx="14" cy="41" r="0.5" tabindex="72">
<title>
v:4
</title>
</circle>
<circle cx="14" cy="53" r="0.5" tabindex="73">
<title>
v:5
</title>
</circle>
<circle cx="14" cy="57" r="0.5" tabindex="74">
<title>
v:6
</title>
</circle>
<circle cx="19" cy="68" r="0.5" tabindex="75">
<title>
v:7
</title>
</circle>
<circle cx="20" cy="43" r="0.5" tabindex="76">
<title>
v:8
</title>
</circle>
<circle cx="21" cy="41" r="0.5" tabindex="77">
<title>
v:9
</title>
</circle>
<circle cx="22" cy="49" r="0.5" tabindex="78">
<title>
v:10
</title>
</circle>
<circle cx="22" cy="56" r="0.5" tabindex="79">
<title>
v:11
</title>
</circle>
<circle cx="25" cy="49" r="0.5" tabindex="80">
<title>
v:12
</title>
</circle>
<circle cx="28" cy="33" r="0.5" tabindex="81">
<title>
v:13
</title>
</circle>
<circle cx="29" cy="114" r="0.5" tabindex="82">
<title>
v:14
</title>
</circle>
<circle cx="30" cy="11" r="0.5" tabindex="83">
<title>
v:15
</title>
</circle>
<circle cx="31" cy="28" r="0.5" tabindex="84">
<title>
v:16
</title>
</circle>
<circle cx="34" cy="12" r="0.5" tabindex="85">
<title>
v:17
</title>
</circle>
<circle cx="34" cy="37" r="0.5" tabindex="86">
<title>
v:18
</title>
</circle>
<circle cx="36" cy="28" r="0.5" tabindex="87">
<title>
v:19
</title>
</circle>
<circle cx="37" cy="119" r="0.5" tabindex="88">
<title>
v:20
</title>
</circle>
<circle cx="38" cy="140" r="0.5" tabindex="89">
<title>
v:21
</title>
</circle>
<circle cx="39" cy="25" r="0.5" tabindex="90">
<title>
v:22
</title>
</circle>
<circle cx="40" cy="18" r="0.5" tabindex="91">
<title>
v:23
</title>
</circle>
<circle cx="41" cy="90" r="0.5" tabindex="92">
<title>
v:24
</title>
</circle>
<circle cx="41" cy="135" r="0.5" tabindex="93">
<title>
v:25
</title>
</circle>
<circle cx="43" cy="77" r="0.5" tabindex="94">
<title>
v:26
</title>
</circle>
<circle cx="44" cy="36" r="0.5" tabindex="95">
<title>
v:27
</title>
</circle>
<circle cx="45" cy="33" r="0.5" tabindex="96">
<title>
v:28
</title>
</circle>
<circle cx="45" cy="52" r="0.5" tabindex="97">
<title>
v:29
</title>
</circle>
<circle cx="47" cy="5" r="0.5" tabindex="98">
<title>
v:30
</title>
</circle>
<circle cx="47" cy="18" r="0.5" tabindex="99">
<title>
v:31
</title>
</circle>
<circle cx="47" cy="72" r="0.5" tabindex="100">
<title>
v:32
</title>
</circle>
<circle cx="48" cy="23" r="0.5" tabindex="101">
<title>
v:33
</title>
</circle>
<circle cx="49" cy="0" r="0.5" tabindex="102">
<title>
v:34
</title>
</circle>
<circle cx="49" cy="16" r="0.5" tabindex="103">
<title>
v:35
</title>
</circle>
<circle cx="49" cy="55" r="0.5" tabindex="104">
<title>
v:36
</title>
</circle>
<circle cx="50" cy="43" r="0.5" tabindex="105">
<title>
v:37
</title>
</circle>
<circle cx="51" cy="25" r="0.5" tabindex="106">
<title>
v:38
</title>
</circle>
<circle cx="52" cy="98" r="0.5" tabindex="107">
<title>
v:39
</title>
</circle>
<circle cx="52" cy="135" r="0.5" tabindex="108">
<title>
v:40
</title>
</circle>
<circle cx="54" cy="43" r="0.5" tabindex="109">
<title>
v:41
</title>
</circle>
<circle cx="54" cy="121" r="0.5" tabindex="110">
<title>
v:42
</title>
</circle>
<circle cx="55" cy="138" r="0.5" tabindex="111">
<title>
v:43
</title>
</circle>
<circle cx="57" cy="59" r="0.5" tabindex="112">
<title>
v:44
</title>
</circle>
<circle cx="57" cy="78" r="0.5" tabindex="113">
<title>
v:45
</title>
</circle>
<circle cx="57" cy="109" r="0.5" tabindex="114">
<title>
v:46
</title>
</circle>
<circle cx="58" cy="125" r="0.5" tabindex="115">
<title>
v:47
</title>
</circle>
<circle cx="59" cy="58" r="0.5" tabindex="116">
<title>
v:48
</title>
</circle>
<circle cx="61" cy="35" r="0.5" tabindex="117">
<title>
v:49
</title>
</circle>
<circle cx="66" cy="24" r="0.5" tabindex="118">
<title>
v:50
</title>
</circle>
<circle cx="66" cy="123" r="0.5" tabindex="119">
<title>
v:51
</title>
</circle>
<circle cx="67" cy="53" r="0.5" tabindex="120">
<title>
v:52
</title>
</circle>
<circle cx="68" cy="115" r="0.5" tabindex="121">
<title>
v:53
</title>
</circle>
<circle cx="68" cy="119" r="0.5" tabindex="122">
<title>
v:54
</title>
</circle>
<circle cx="69" cy="38" r="0.5" tabindex="123">
<title>
v:55
</title>
</circle>
<circle cx="69" cy="71" r="0.5" tabindex="124">
<title>
v:56
</title>
</circle>
<circle cx="69" cy="127" r="0.5" tabindex="125">
<title>
v:57
</title>
</circle>
<circle cx="70" cy="139" r="0.5" tabindex="126">
<title>
v:58
</title>
</circle>
<circle cx="73" cy="127" r="0.5" tabindex="127">
<title>
v:59
</title>
</circle>
<circle cx="75" cy="24" r="0.5" tabindex="128">
<title>
v:60
</title>
</circle>
<circle cx="76" cy="58" r="0.5" tabindex="129">
<title>
v:61
</title>
</circle>
<circle cx="76" cy="110" r="0.5" tabindex="130">
<title>
v:62
</title>
</circle>
<circle cx="80" cy="59" r="0.5" tabindex="131">
<title>
v:63
</title>
</circle>
<circle cx="80" cy="80" r="0.5" tabindex="132">
<title>
v:64
</title>
</circle>
<circle cx="82" cy="22" r="0.5" tabindex="133">
<title>
v:65
</title>
</circle>
<circle cx="83" cy="124" r="0.5" tabindex="134">
<title>
v:66
</title>
</circle>
<circle cx="85" cy="97" r="0.5" tabindex="135">
<title>
v:67
</title>
</circle>
<circle cx="88" cy="28" r="0.5" tabindex="136">
<title>
v:68
</title>
</circle>
<circle cx="88" cy="66" r="0.5" tabindex="137">
<title>
v:69
</title>
</circle>
<circle cx="89" cy="124" r="0.5" tabindex="138">
<title>
v:70
</title>
</circle>
<circle cx="90" cy="88" r="0.5" tabindex="139">
<title>
v:71
</title>
</circle>
<circle cx="91" cy="78" r="0.5" tabindex="140">
<title>
v:72
</title>
</circle>
<circle cx="93" cy="103" r="0.5" tabindex="141">
<title>
v:73
</title>
</circle>
<circle cx="94" cy="42" r="0.5" tabindex="142">
<title>
v:74
</title>
</circle>
<circle cx="96" cy="155" r="0.5" tabindex="143">
<title>
v:75
</title>
</circle>
<circle cx="97" cy="139" r="0.5" tabindex="144">
<title>
v:76
</title>
</circle>
<circle cx="98" cy="48" r="0.5" tabindex="145">
<title>
v:77
</title>
</circle>
<circle cx="100" cy="21" r="0.5" tabindex="146">
<title>
v:78
</title>
</circle>
<circle cx="100" cy="137" r="0.5" tabindex="147">
<title>
v:79
</title>
</circle>
<circle cx="102" cy="14" r="0.5" tabindex="148">
<title>
v:80
</title>
</circle>
<circle cx="103" cy="102" r="0.5" tabindex="149">
<title>
v:81
</title>
</circle>
<circle cx="107" cy="100" r="0.5" tabindex="150">
<title>
v:82
</title>
</circle>
<circle cx="108" cy="25" r="0.5" tabindex="151">
<title>
v:83
</title>
</circle>
<circle cx="109" cy="88" r="0.5" tabindex="152">
<title>
v:84
</title>
</circle>
<circle cx="110" cy="46" r="0.5" tabindex="153">
<title>
v:85
</title>
</circle>
<circle cx="111" cy="37" r="0.5" tabindex="154">
<title>
v:86
</title>
</circle>
<circle cx="111" cy="91" r="0.5" tabindex="155">
<title>
v:87
</title>
</circle>
<circle cx="111" cy="99" r="0.5" tabindex="156">
<title>
v:88
</title>
</circle>
<circle cx="112" cy="40" r="0.5" tabindex="157">
<title>
v:89
</title>
</circle>
<circle cx="114" cy="23" r="0.5" tabindex="158">
<title>
v:90
</title>
</circle>
<circle cx="114" cy="70" r="0.5" tabindex="159">
<title>
v:91
</title>
</circle>
<circle cx="115" cy="34" r="0.5" tabindex="160">
<title>
v:92
</title>
</circle>
<circle cx="117" cy="62" r="0.5" tabindex="161">
<title>
v:93
</title>
</circle>
<circle cx="118" cy="29" r="0.5" tabindex="162">
<title>
v:94
</title>
</circle>
<circle cx="118" cy="90" r="0.5" tabindex="163">
<title>
v:95
</title>
</circle>
<circle cx="120" cy="98" r="0.5" tabindex="164">
<title>
v:96
</title>
</circle>
<circle cx="121" cy="88" r="0.5" tabindex="165">
<title>
v:97
</title>
</circle>
<circle cx="122" cy="104" r="0.5" tabindex="166">
<title>
v:98
</title>
</circle>
<circle cx="122" cy="109" r="0.5" tabindex="167">
<title>
v:99
</title>
</circle>
<circle cx="123" cy="37" r="0.5" tabindex="168">
<title>
v:100
</title>
</circle>
<circle cx="124" cy="40" r="0.5" tabindex="169">
<title>
v:101
</title>
</circle>
<circle cx="124" cy="57" r="0.5" tabindex="170">
<title>
v:102
</title>
</circle>
<circle cx="126" cy="53" r="0.5" tabindex="171">
<title>
v:103
</title>
</circle>
<circle cx="127" cy="26" r="0.5" tabindex="172">
<title>
v:104
</title>
</circle>
<circle cx="127" cy="79" r="0.5" tabindex="173">
<title>
v:105
</title>
</circle>
<circle cx="129" cy="96" r="0.5" tabindex="174">
<title>
v:106
</title>
</circle>
<circle cx="131" cy="22" r="0.5" tabindex="175">
<title>
v:107
</title>
</circle>
<circle cx="134" cy="76" r="0.5" tabindex="176">
<title>
v:108
</title>
</circle>
<circle cx="135" cy="99" r="0.5" tabindex="177">
<title>
v:109
</title>
</circle>
<circle cx="136" cy="51" r="0.5" tabindex="178">
<title>
v:110
</title>
</circle>
<circle cx="138" cy="54" r="0.5" tabindex="179">
<title>
v:111
</title>
</circle>
<circle cx="140" cy="41" r="0.5" tabindex="180">
<title>
v:112
</title>
</circle>
</g>
</svg>