<svg height="500" viewBox="7 3 85 133" width="500" xmlns="http://www.w3.org/2000/svg">
<path class="hole" d="M40 12L28 21L16 37L9 57L12 73L27 81L43 86L46 103L49 121L34 126L34 134L68 133L67 121L62 98L60 82L77 72L90 52L77 24L85 15L78 5L56 18L64 30L70 45L72 55L54 64L37 65L27 57L37 61L48 54L45 41L35 40L26 45L34 33L49 20M7 3L92 3L92 136L7 136" style="fill:#00000066;fill-rule:evenodd;"/>
<circle cx="81" cy="38" fill="#ffff0066" r="5">
<title>
BreakALeg@102
</title>
</circle>
<circle cx="69" cy="14" fill="#ffff0066" r="5">
<title>
WallHack@91
</title>
</circle>
<circle cx="57" cy="131" fill="#ffff0066" r="5">
<title>
SuperFlex@122
</title>
</circle>
<path class="ok" d="M43 123L45 126M43 123L54 120M44 45L48 54M44 76L47 72M44 76L48 78M45 126L63 127M47 72L51 74M48 78L51 74M49 93L51 104M49 93L53 75M49 93L58 96M51 74L54 64M51 104L54 120M51 104L59 103M51 123L53 126M51 123L59 118M53 75L56 97M54 120L61 120M55 77L56 73M55 77L61 76M56 63L56 73M56 63L61 64M56 73L61 73M56 97L56 102M56 102L59 118M58 96L59 103M59 103L61 120M61 64L61 73M61 73L61 76M61 120L63 127" style="stroke:#0000ff;stroke-linecap:round"/>
<path class="out" d="M40 34L42 27M40 34L45 39M40 34L47 32M42 27L47 32M42 27L49 26M44 45L45 39M44 45L50 40M44 45L53 75M45 39L47 32M45 39L52 36M47 32L49 26M47 32L52 36M47 32L53 31M47 72L48 63M48 54L48 63M48 54L54 53M48 63L54 64M49 26L53 31M50 40L52 36M50 40L54 53M50 40L58 42M52 36L53 31M52 36L58 42M53 75L68 81M53 126L68 124M54 53L54 64M56 54L56 63M56 54L58 42M56 54L61 56M56 97L64 96M56 102L65 102M58 42L62 49M58 96L68 81M59 118L67 117M61 56L61 64M61 56L62 49M62 49L71 73M64 96L65 102M64 96L68 81M65 102L67 117M67 117L68 124M68 81L71 73" style="stroke:#ff0000;stroke-linecap:round"/>
<g fill="#333333">
<circle cx="40" cy="12" r="0.5">
<title>
hole:0
</title>
</circle>
<circle cx="28" cy="21" r="0.5">
<title>
hole:1
</title>
</circle>
<circle cx="16" cy="37" r="0.5">
<title>
hole:2
</title>
</circle>
<circle cx="9" cy="57" r="0.5">
<title>
hole:3
</title>
</circle>
<circle cx="12" cy="73" r="0.5">
<title>
hole:4
</title>
</circle>
<circle cx="27" cy="81" r="0.5">
<title>
hole:5
</title>
</circle>
<circle cx="43" cy="86" r="0.5">
<title>
hole:6
</title>
</circle>
<circle cx="46" cy="103" r="0.5">
<title>
hole:7
</title>
</circle>
<circle cx="49" cy="121" r="0.5">
<title>
hole:8
</title>
</circle>
<circle cx="34" cy="126" r="0.5">
<title>
hole:9
</title>
</circle>
<circle cx="34" cy="134" r="0.5">
<title>
hole:10
</title>
</circle>
<circle cx="68" cy="133" r="0.5">
<title>
hole:11
</title>
</circle>
<circle cx="67" cy="121" r="0.5">
<title>
hole:12
</title>
</circle>
<circle cx="62" cy="98" r="0.5">
<title>
hole:13
</title>
</circle>
<circle cx="60" cy="82" r="0.5">
<title>
hole:14
</title>
</circle>
<circle cx="77" cy="72" r="0.5">
<title>
hole:15
</title>
</circle>
<circle cx="90" cy="52" r="0.5">
<title>
hole:16
</title>
</circle>
<circle cx="77" cy="24" r="0.5">
<title>
hole:17
</title>
</circle>
<circle cx="85" cy="15" r="0.5">
<title>
hole:18
</title>
</circle>
<circle cx="78" cy="5" r="0.5">
<title>
hole:19
</title>
</circle>
<circle cx="56" cy="18" r="0.5">
<title>
hole:20
</title>
</circle>
<circle cx="64" cy="30" r="0.5">
<title>
hole:21
</title>
</circle>
<circle cx="70" cy="45" r="0.5">
<title>
hole:22
</title>
</circle>
<circle cx="72" cy="55" r="0.5">
<title>
hole:23
</title>
</circle>
<circle cx="54" cy="64" r="0.5">
<title>
hole:24
</title>
</circle>
<circle cx="37" cy="65" r="0.5">
<title>
hole:25
</title>
</circle>
<circle cx="27" cy="57" r="0.5">
<title>
hole:26
</title>
</circle>
<circle cx="37" cy="61" r="0.5">
<title>
hole:27
</title>
</circle>
<circle cx="48" cy="54" r="0.5">
<title>
hole:28
</title>
</circle>
<circle cx="45" cy="41" r="0.5">
<title>
hole:29
</title>
</circle>
<circle cx="35" cy="40" r="0.5">
<title>
hole:30
</title>
</circle>
<circle cx="26" cy="45" r="0.5">
<title>
hole:31
</title>
</circle>
<circle cx="34" cy="33" r="0.5">
<title>
hole:32
</title>
</circle>
<circle cx="49" cy="20" r="0.5">
<title>
hole:33
</title>
</circle>
</g>
<g fill="#999999">
<circle cx="40" cy="34" i="0" r="0.5" tabindex="0">
<title>
v:0
</title>
</circle>
<circle cx="42" cy="27" i="1" r="0.5" tabindex="1">
<title>
v:1
</title>
</circle>
<circle cx="43" cy="123" i="2" r="0.5" tabindex="2">
<title>
v:2
</title>
</circle>
<circle cx="44" cy="45" i="3" r="0.5" tabindex="3">
<title>
v:3
</title>
</circle>
<circle cx="44" cy="76" i="4" r="0.5" tabindex="4">
<title>
v:4
</title>
</circle>
<circle cx="45" cy="39" i="5" r="0.5" tabindex="5">
<title>
v:5
</title>
</circle>
<circle cx="45" cy="126" i="6" r="0.5" tabindex="6">
<title>
v:6
</title>
</circle>
<circle cx="47" cy="32" i="7" r="0.5" tabindex="7">
<title>
v:7
</title>
</circle>
<circle cx="47" cy="72" i="8" r="0.5" tabindex="8">
<title>
v:8
</title>
</circle>
<circle cx="48" cy="54" i="9" r="0.5" tabindex="9">
<title>
v:9
</title>
</circle>
<circle cx="48" cy="63" i="10" r="0.5" tabindex="10">
<title>
v:10
</title>
</circle>
<circle cx="48" cy="78" i="11" r="0.5" tabindex="11">
<title>
v:11
</title>
</circle>
<circle cx="49" cy="26" i="12" r="0.5" tabindex="12">
<title>
v:12
</title>
</circle>
<circle cx="49" cy="93" i="13" r="0.5" tabindex="13">
<title>
v:13
</title>
</circle>
<circle cx="50" cy="40" i="14" r="0.5" tabindex="14">
<title>
v:14
</title>
</circle>
<circle cx="51" cy="74" i="15" r="0.5" tabindex="15">
<title>
v:15
</title>
</circle>
<circle cx="51" cy="104" i="16" r="0.5" tabindex="16">
<title>
v:16
</title>
</circle>
<circle cx="51" cy="123" i="17" r="0.5" tabindex="17">
<title>
v:17
</title>
</circle>
<circle cx="52" cy="36" i="18" r="0.5" tabindex="18">
<title>
v:18
</title>
</circle>
<circle cx="53" cy="31" i="19" r="0.5" tabindex="19">
<title>
v:19
</title>
</circle>
<circle cx="53" cy="75" i="20" r="0.5" tabindex="20">
<title>
v:20
</title>
</circle>
<circle cx="53" cy="126" i="21" r="0.5" tabindex="21">
<title>
v:21
</title>
</circle>
<circle cx="54" cy="53" i="22" r="0.5" tabindex="22">
<title>
v:22
</title>
</circle>
<circle cx="54" cy="64" i="23" r="0.5" tabindex="23">
<title>
v:23
</title>
</circle>
<circle cx="54" cy="120" i="24" r="0.5" tabindex="24">
<title>
v:24
</title>
</circle>
<circle cx="55" cy="77" i="25" r="0.5" tabindex="25">
<title>
v:25
</title>
</circle>
<circle cx="56" cy="54" i="26" r="0.5" tabindex="26">
<title>
v:26
</title>
</circle>
<circle cx="56" cy="63" i="27" r="0.5" tabindex="27">
<title>
v:27
</title>
</circle>
<circle cx="56" cy="73" i="28" r="0.5" tabindex="28">
<title>
v:28
</title>
</circle>
<circle cx="56" cy="97" i="29" r="0.5" tabindex="29">
<title>
v:29
</title>
</circle>
<circle cx="56" cy="102" i="30" r="0.5" tabindex="30">
<title>
v:30
</title>
</circle>
<circle cx="58" cy="42" i="31" r="0.5" tabindex="31">
<title>
v:31
</title>
</circle>
<circle cx="58" cy="96" i="32" r="0.5" tabindex="32">
<title>
v:32
</title>
</circle>
<circle cx="59" cy="103" i="33" r="0.5" tabindex="33">
<title>
v:33
</title>
</circle>
<circle cx="59" cy="118" i="34" r="0.5" tabindex="34">
<title>
v:34
</title>
</circle>
<circle cx="61" cy="56" i="35" r="0.5" tabindex="35">
<title>
v:35
</title>
</circle>
<circle cx="61" cy="64" i="36" r="0.5" tabindex="36">
<title>
v:36
</title>
</circle>
<circle cx="61" cy="73" i="37" r="0.5" tabindex="37">
<title>
v:37
</title>
</circle>
<circle cx="61" cy="76" i="38" r="0.5" tabindex="38">
<title>
v:38
</title>
</circle>
<circle cx="61" cy="120" i="39" r="0.5" tabindex="39">
<title>
v:39
</title>
</circle>
<circle cx="62" cy="49" i="40" r="0.5" tabindex="40">
<title>
v:40
</title>
</circle>
<circle cx="63" cy="127" i="41" r="0.5" tabindex="41">
<title>
v:41
</title>
</circle>
<circle cx="64" cy="96" i="42" r="0.5" tabindex="42">
<title>
v:42
</title>
</circle>
<circle cx="65" cy="102" i="43" r="0.5" tabindex="43">
<title>
v:43
</title>
</circle>
<circle cx="67" cy="117" i="44" r="0.5" tabindex="44">
<title>
v:44
</title>
</circle>
<circle cx="68" cy="81" i="45" r="0.5" tabindex="45">
<title>
v:45
</title>
</circle>
<circle cx="68" cy="124" i="46" r="0.5" tabindex="46">
<title>
v:46
</title>
</circle>
<circle cx="71" cy="73" i="47" r="0.5" tabindex="47">
<title>
v:47
</title>
</circle>
</g>
</svg>