<svg height="500" viewBox="7 3 85 133" width="500" xmlns="http://www.w3.org/2000/svg">
<path class="hole" d="M40 12L28 21L16 37L9 57L12 73L27 81L43 86L46 103L49 121L34 126L34 134L68 133L67 121L62 98L60 82L77 72L90 52L77 24L85 15L78 5L56 18L64 30L70 45L72 55L54 64L37 65L27 57L37 61L48 54L45 41L35 40L26 45L34 33L49 20M7 3L92 3L92 136L7 136" style="fill:#00000066;fill-rule:evenodd;"/>
<circle cx="81" cy="38" r="5" style="fill:#ffff0066;" title="BreakALeg"/>
<circle cx="69" cy="14" r="5" style="fill:#ffff0066;" title="WallHack"/>
<path class="ok" d="M42 45L46 54M42 76L45 72M42 76L46 78M43 126L61 127M45 72L49 74M46 78L49 74M47 93L49 104M47 93L51 75M47 93L56 96M49 104L52 120M49 104L57 103M49 123L51 126M49 123L57 118M51 75L54 97M51 126L66 124M52 120L59 120M53 77L54 73M53 77L59 76M54 73L59 73M54 97L54 102M54 102L57 118M56 96L57 103M57 103L59 120M57 118L65 117M59 64L59 73M59 73L59 76M59 120L61 127M65 117L66 124" style="stroke:#0000ff;stroke-linecap:round"/>
<path class="out" d="M38 34L40 27M38 34L43 39M38 34L45 32M40 27L45 32M40 27L47 26M41 123L43 126M41 123L52 120M42 45L43 39M42 45L48 40M42 45L51 75M43 39L45 32M43 39L50 36M45 32L47 26M45 32L50 36M45 32L51 31M45 72L46 63M46 54L46 63M46 54L52 53M46 63L52 64M47 26L51 31M48 40L50 36M48 40L52 53M48 40L56 42M49 74L52 64M50 36L51 31M50 36L56 42M51 75L66 81M52 53L52 64M54 54L54 63M54 54L56 42M54 54L59 56M54 63L54 73M54 63L59 64M54 97L62 96M54 102L63 102M56 42L60 49M56 96L66 81M59 56L59 64M59 56L60 49M60 49L69 73M62 96L63 102M62 96L66 81M63 102L65 117M66 81L69 73" style="stroke:#ff0000;stroke-linecap:round"/>
<g fill="#333333">
<circle cx="40" cy="12" r="0.5" tabindex="0">
<title>
hole:0
</title>
</circle>
<circle cx="28" cy="21" r="0.5" tabindex="1">
<title>
hole:1
</title>
</circle>
<circle cx="16" cy="37" r="0.5" tabindex="2">
<title>
hole:2
</title>
</circle>
<circle cx="9" cy="57" r="0.5" tabindex="3">
<title>
hole:3
</title>
</circle>
<circle cx="12" cy="73" r="0.5" tabindex="4">
<title>
hole:4
</title>
</circle>
<circle cx="27" cy="81" r="0.5" tabindex="5">
<title>
hole:5
</title>
</circle>
<circle cx="43" cy="86" r="0.5" tabindex="6">
<title>
hole:6
</title>
</circle>
<circle cx="46" cy="103" r="0.5" tabindex="7">
<title>
hole:7
</title>
</circle>
<circle cx="49" cy="121" r="0.5" tabindex="8">
<title>
hole:8
</title>
</circle>
<circle cx="34" cy="126" r="0.5" tabindex="9">
<title>
hole:9
</title>
</circle>
<circle cx="34" cy="134" r="0.5" tabindex="10">
<title>
hole:10
</title>
</circle>
<circle cx="68" cy="133" r="0.5" tabindex="11">
<title>
hole:11
</title>
</circle>
<circle cx="67" cy="121" r="0.5" tabindex="12">
<title>
hole:12
</title>
</circle>
<circle cx="62" cy="98" r="0.5" tabindex="13">
<title>
hole:13
</title>
</circle>
<circle cx="60" cy="82" r="0.5" tabindex="14">
<title>
hole:14
</title>
</circle>
<circle cx="77" cy="72" r="0.5" tabindex="15">
<title>
hole:15
</title>
</circle>
<circle cx="90" cy="52" r="0.5" tabindex="16">
<title>
hole:16
</title>
</circle>
<circle cx="77" cy="24" r="0.5" tabindex="17">
<title>
hole:17
</title>
</circle>
<circle cx="85" cy="15" r="0.5" tabindex="18">
<title>
hole:18
</title>
</circle>
<circle cx="78" cy="5" r="0.5" tabindex="19">
<title>
hole:19
</title>
</circle>
<circle cx="56" cy="18" r="0.5" tabindex="20">
<title>
hole:20
</title>
</circle>
<circle cx="64" cy="30" r="0.5" tabindex="21">
<title>
hole:21
</title>
</circle>
<circle cx="70" cy="45" r="0.5" tabindex="22">
<title>
hole:22
</title>
</circle>
<circle cx="72" cy="55" r="0.5" tabindex="23">
<title>
hole:23
</title>
</circle>
<circle cx="54" cy="64" r="0.5" tabindex="24">
<title>
hole:24
</title>
</circle>
<circle cx="37" cy="65" r="0.5" tabindex="25">
<title>
hole:25
</title>
</circle>
<circle cx="27" cy="57" r="0.5" tabindex="26">
<title>
hole:26
</title>
</circle>
<circle cx="37" cy="61" r="0.5" tabindex="27">
<title>
hole:27
</title>
</circle>
<circle cx="48" cy="54" r="0.5" tabindex="28">
<title>
hole:28
</title>
</circle>
<circle cx="45" cy="41" r="0.5" tabindex="29">
<title>
hole:29
</title>
</circle>
<circle cx="35" cy="40" r="0.5" tabindex="30">
<title>
hole:30
</title>
</circle>
<circle cx="26" cy="45" r="0.5" tabindex="31">
<title>
hole:31
</title>
</circle>
<circle cx="34" cy="33" r="0.5" tabindex="32">
<title>
hole:32
</title>
</circle>
<circle cx="49" cy="20" r="0.5" tabindex="33">
<title>
hole:33
</title>
</circle>
</g>
<g fill="#999999">
<circle cx="38" cy="34" r="0.5" tabindex="34">
<title>
v:0
</title>
</circle>
<circle cx="40" cy="27" r="0.5" tabindex="35">
<title>
v:1
</title>
</circle>
<circle cx="41" cy="123" r="0.5" tabindex="36">
<title>
v:2
</title>
</circle>
<circle cx="42" cy="45" r="0.5" tabindex="37">
<title>
v:3
</title>
</circle>
<circle cx="42" cy="76" r="0.5" tabindex="38">
<title>
v:4
</title>
</circle>
<circle cx="43" cy="39" r="0.5" tabindex="39">
<title>
v:5
</title>
</circle>
<circle cx="43" cy="126" r="0.5" tabindex="40">
<title>
v:6
</title>
</circle>
<circle cx="45" cy="32" r="0.5" tabindex="41">
<title>
v:7
</title>
</circle>
<circle cx="45" cy="72" r="0.5" tabindex="42">
<title>
v:8
</title>
</circle>
<circle cx="46" cy="54" r="0.5" tabindex="43">
<title>
v:9
</title>
</circle>
<circle cx="46" cy="63" r="0.5" tabindex="44">
<title>
v:10
</title>
</circle>
<circle cx="46" cy="78" r="0.5" tabindex="45">
<title>
v:11
</title>
</circle>
<circle cx="47" cy="26" r="0.5" tabindex="46">
<title>
v:12
</title>
</circle>
<circle cx="47" cy="93" r="0.5" tabindex="47">
<title>
v:13
</title>
</circle>
<circle cx="48" cy="40" r="0.5" tabindex="48">
<title>
v:14
</title>
</circle>
<circle cx="49" cy="74" r="0.5" tabindex="49">
<title>
v:15
</title>
</circle>
<circle cx="49" cy="104" r="0.5" tabindex="50">
<title>
v:16
</title>
</circle>
<circle cx="49" cy="123" r="0.5" tabindex="51">
<title>
v:17
</title>
</circle>
<circle cx="50" cy="36" r="0.5" tabindex="52">
<title>
v:18
</title>
</circle>
<circle cx="51" cy="31" r="0.5" tabindex="53">
<title>
v:19
</title>
</circle>
<circle cx="51" cy="75" r="0.5" tabindex="54">
<title>
v:20
</title>
</circle>
<circle cx="51" cy="126" r="0.5" tabindex="55">
<title>
v:21
</title>
</circle>
<circle cx="52" cy="53" r="0.5" tabindex="56">
<title>
v:22
</title>
</circle>
<circle cx="52" cy="64" r="0.5" tabindex="57">
<title>
v:23
</title>
</circle>
<circle cx="52" cy="120" r="0.5" tabindex="58">
<title>
v:24
</title>
</circle>
<circle cx="53" cy="77" r="0.5" tabindex="59">
<title>
v:25
</title>
</circle>
<circle cx="54" cy="54" r="0.5" tabindex="60">
<title>
v:26
</title>
</circle>
<circle cx="54" cy="63" r="0.5" tabindex="61">
<title>
v:27
</title>
</circle>
<circle cx="54" cy="73" r="0.5" tabindex="62">
<title>
v:28
</title>
</circle>
<circle cx="54" cy="97" r="0.5" tabindex="63">
<title>
v:29
</title>
</circle>
<circle cx="54" cy="102" r="0.5" tabindex="64">
<title>
v:30
</title>
</circle>
<circle cx="56" cy="42" r="0.5" tabindex="65">
<title>
v:31
</title>
</circle>
<circle cx="56" cy="96" r="0.5" tabindex="66">
<title>
v:32
</title>
</circle>
<circle cx="57" cy="103" r="0.5" tabindex="67">
<title>
v:33
</title>
</circle>
<circle cx="57" cy="118" r="0.5" tabindex="68">
<title>
v:34
</title>
</circle>
<circle cx="59" cy="56" r="0.5" tabindex="69">
<title>
v:35
</title>
</circle>
<circle cx="59" cy="64" r="0.5" tabindex="70">
<title>
v:36
</title>
</circle>
<circle cx="59" cy="73" r="0.5" tabindex="71">
<title>
v:37
</title>
</circle>
<circle cx="59" cy="76" r="0.5" tabindex="72">
<title>
v:38
</title>
</circle>
<circle cx="59" cy="120" r="0.5" tabindex="73">
<title>
v:39
</title>
</circle>
<circle cx="60" cy="49" r="0.5" tabindex="74">
<title>
v:40
</title>
</circle>
<circle cx="61" cy="127" r="0.5" tabindex="75">
<title>
v:41
</title>
</circle>
<circle cx="62" cy="96" r="0.5" tabindex="76">
<title>
v:42
</title>
</circle>
<circle cx="63" cy="102" r="0.5" tabindex="77">
<title>
v:43
</title>
</circle>
<circle cx="65" cy="117" r="0.5" tabindex="78">
<title>
v:44
</title>
</circle>
<circle cx="66" cy="81" r="0.5" tabindex="79">
<title>
v:45
</title>
</circle>
<circle cx="66" cy="124" r="0.5" tabindex="80">
<title>
v:46
</title>
</circle>
<circle cx="69" cy="73" r="0.5" tabindex="81">
<title>
v:47
</title>
</circle>
</g>
</svg>