<svg height="500" viewBox="0 -2 214 218" width="500" xmlns="http://www.w3.org/2000/svg">
<path class="hole" d="M2 60L23 96L2 131L49 131L2 177L49 179L13 214L57 214L81 197L106 181L131 209L140 166L169 203L204 214L194 175L162 133L140 106L112 85L165 43L171 92L212 41L187 20L163 1L117 0L115 35L70 48L43 63L39 31L35 0L2 17M0 -2L214 -2L214 216L0 216" style="fill:#00000066;fill-rule:evenodd;"/>
<circle cx="191" cy="66" fill="#ffff0066" r="5">
<title>
BreakALeg@101
</title>
</circle>
<circle cx="137" cy="57" fill="#ffff0066" r="5">
<title>
SuperFlex@45
</title>
</circle>
<circle cx="128" cy="138" fill="#ffff0066" r="5">
<title>
BreakALeg@2
</title>
</circle>
<path class="ok" d="M41 74L46 73M41 74L55 82M46 73L55 78M55 66L61 68M55 66L62 66M55 78L55 82M55 78L63 74M55 82L66 74M60 93L63 81M60 93L82 115M60 93L90 80M61 68L62 66M61 68L63 74M62 66L66 74M63 74L66 74M63 81L84 102M63 81L86 77M69 58L72 53M69 58L88 97M70 139L78 144M70 139L79 165M70 139L82 115M72 53L98 84M75 62L85 61M75 62L86 58M77 53L80 50M77 53L92 50M78 144L82 160M78 144L93 123M79 165L82 160M79 165L96 163M80 50L89 48M82 115L84 102M82 115L93 123M82 160L93 160M84 102L88 97M85 61L86 58M85 61L91 68M86 58L95 68M86 77L90 80M86 77L91 68M88 43L89 48M88 97L98 84M89 48L92 50M90 80L95 68M91 68L95 68M93 123L98 103M93 123L98 134M93 160L95 146M93 160L96 163M95 146L99 150M95 146L109 144M96 163L99 150M98 84L100 83M98 103L100 83M98 103L110 96M98 134L109 140M99 150L107 148M100 83L102 60M100 83L108 78M102 60L107 49M102 60L110 63M107 49L116 49M107 148L109 144M107 148L110 152M108 78L110 63M108 78L123 47M109 140L117 135M109 144L114 152M110 63L116 49M110 96L121 105M110 152L111 164M110 152L114 152M111 164L114 152M117 135L126 122M121 105L126 122M123 47L129 53M123 47L143 39M124 149L130 149M124 149L134 128M124 149L138 164M126 122L131 113M126 122L134 128M129 53L141 46M130 149L141 162M130 149L144 127M131 113L132 103M131 113L144 127M134 128L144 127M137 180L138 164M138 164L141 162M141 46L143 39M141 46L149 50M143 39L155 48M148 125L152 124M149 50L155 48M168 51L172 47M177 76L179 79M177 76L181 66M179 79L181 66" style="stroke:#0000ff;stroke-linecap:round"/>
<path class="out" d="M41 74L49 54M46 73L51 58M49 54L51 58M49 54L72 53M51 58L69 58M71 36L75 37M71 36L77 53M71 36L90 25M75 37L80 50M75 37L88 30M81 43L88 43M81 43L90 41M88 30L90 25M88 30L107 49M88 43L90 41M90 25L116 49M90 41L92 50M108 78L117 83M117 83L121 84M117 83L121 105M117 83L129 53M121 84L129 91M121 84L135 67M129 91L132 103M129 91L139 73M129 91L158 87M132 103L155 95M135 67L139 73M135 67L153 65M137 180L141 162M139 73L151 71M148 125L150 113M148 125L163 134M149 50L152 62M150 113L152 116M150 113L162 113M151 71L153 65M151 71L165 82M152 62L156 59M152 62L165 65M152 116L152 124M152 116L159 115M152 124L163 129M153 65L167 78M155 48L156 59M155 95L158 87M155 95L168 104M156 59L164 62M158 87L175 101M159 54L168 51M159 54L172 47M159 115L161 123M159 115L162 113M161 123L162 113M163 129L163 134M163 129L170 121M163 134L176 124M164 62L165 65M164 62L168 51M165 65L172 47M165 82L167 78M165 82L179 79M167 78L177 76M168 104L170 121M168 104L175 101M170 121L176 124M175 101L176 124" style="stroke:#ff0000;stroke-linecap:round"/>
<g fill="#333333">
<circle cx="2" cy="60" r="0.5">
<title>
hole:0
</title>
</circle>
<circle cx="23" cy="96" r="0.5">
<title>
hole:1
</title>
</circle>
<circle cx="2" cy="131" r="0.5">
<title>
hole:2
</title>
</circle>
<circle cx="49" cy="131" r="0.5">
<title>
hole:3
</title>
</circle>
<circle cx="2" cy="177" r="0.5">
<title>
hole:4
</title>
</circle>
<circle cx="49" cy="179" r="0.5">
<title>
hole:5
</title>
</circle>
<circle cx="13" cy="214" r="0.5">
<title>
hole:6
</title>
</circle>
<circle cx="57" cy="214" r="0.5">
<title>
hole:7
</title>
</circle>
<circle cx="81" cy="197" r="0.5">
<title>
hole:8
</title>
</circle>
<circle cx="106" cy="181" r="0.5">
<title>
hole:9
</title>
</circle>
<circle cx="131" cy="209" r="0.5">
<title>
hole:10
</title>
</circle>
<circle cx="140" cy="166" r="0.5">
<title>
hole:11
</title>
</circle>
<circle cx="169" cy="203" r="0.5">
<title>
hole:12
</title>
</circle>
<circle cx="204" cy="214" r="0.5">
<title>
hole:13
</title>
</circle>
<circle cx="194" cy="175" r="0.5">
<title>
hole:14
</title>
</circle>
<circle cx="162" cy="133" r="0.5">
<title>
hole:15
</title>
</circle>
<circle cx="140" cy="106" r="0.5">
<title>
hole:16
</title>
</circle>
<circle cx="112" cy="85" r="0.5">
<title>
hole:17
</title>
</circle>
<circle cx="165" cy="43" r="0.5">
<title>
hole:18
</title>
</circle>
<circle cx="171" cy="92" r="0.5">
<title>
hole:19
</title>
</circle>
<circle cx="212" cy="41" r="0.5">
<title>
hole:20
</title>
</circle>
<circle cx="187" cy="20" r="0.5">
<title>
hole:21
</title>
</circle>
<circle cx="163" cy="1" r="0.5">
<title>
hole:22
</title>
</circle>
<circle cx="117" cy="0" r="0.5">
<title>
hole:23
</title>
</circle>
<circle cx="115" cy="35" r="0.5">
<title>
hole:24
</title>
</circle>
<circle cx="70" cy="48" r="0.5">
<title>
hole:25
</title>
</circle>
<circle cx="43" cy="63" r="0.5">
<title>
hole:26
</title>
</circle>
<circle cx="39" cy="31" r="0.5">
<title>
hole:27
</title>
</circle>
<circle cx="35" cy="0" r="0.5">
<title>
hole:28
</title>
</circle>
<circle cx="2" cy="17" r="0.5">
<title>
hole:29
</title>
</circle>
</g>
<g fill="#999999">
<circle cx="41" cy="74" i="0" r="0.5" tabindex="0">
<title>
v:0
</title>
</circle>
<circle cx="46" cy="73" i="1" r="0.5" tabindex="1">
<title>
v:1
</title>
</circle>
<circle cx="49" cy="54" i="2" r="0.5" tabindex="2">
<title>
v:2
</title>
</circle>
<circle cx="51" cy="58" i="3" r="0.5" tabindex="3">
<title>
v:3
</title>
</circle>
<circle cx="55" cy="66" i="4" r="0.5" tabindex="4">
<title>
v:4
</title>
</circle>
<circle cx="55" cy="78" i="5" r="0.5" tabindex="5">
<title>
v:5
</title>
</circle>
<circle cx="55" cy="82" i="6" r="0.5" tabindex="6">
<title>
v:6
</title>
</circle>
<circle cx="60" cy="93" i="7" r="0.5" tabindex="7">
<title>
v:7
</title>
</circle>
<circle cx="61" cy="68" i="8" r="0.5" tabindex="8">
<title>
v:8
</title>
</circle>
<circle cx="62" cy="66" i="9" r="0.5" tabindex="9">
<title>
v:9
</title>
</circle>
<circle cx="63" cy="74" i="10" r="0.5" tabindex="10">
<title>
v:10
</title>
</circle>
<circle cx="63" cy="81" i="11" r="0.5" tabindex="11">
<title>
v:11
</title>
</circle>
<circle cx="66" cy="74" i="12" r="0.5" tabindex="12">
<title>
v:12
</title>
</circle>
<circle cx="69" cy="58" i="13" r="0.5" tabindex="13">
<title>
v:13
</title>
</circle>
<circle cx="70" cy="139" i="14" r="0.5" tabindex="14">
<title>
v:14
</title>
</circle>
<circle cx="71" cy="36" i="15" r="0.5" tabindex="15">
<title>
v:15
</title>
</circle>
<circle cx="72" cy="53" i="16" r="0.5" tabindex="16">
<title>
v:16
</title>
</circle>
<circle cx="75" cy="37" i="17" r="0.5" tabindex="17">
<title>
v:17
</title>
</circle>
<circle cx="75" cy="62" i="18" r="0.5" tabindex="18">
<title>
v:18
</title>
</circle>
<circle cx="77" cy="53" i="19" r="0.5" tabindex="19">
<title>
v:19
</title>
</circle>
<circle cx="78" cy="144" i="20" r="0.5" tabindex="20">
<title>
v:20
</title>
</circle>
<circle cx="79" cy="165" i="21" r="0.5" tabindex="21">
<title>
v:21
</title>
</circle>
<circle cx="80" cy="50" i="22" r="0.5" tabindex="22">
<title>
v:22
</title>
</circle>
<circle cx="81" cy="43" i="23" r="0.5" tabindex="23">
<title>
v:23
</title>
</circle>
<circle cx="82" cy="115" i="24" r="0.5" tabindex="24">
<title>
v:24
</title>
</circle>
<circle cx="82" cy="160" i="25" r="0.5" tabindex="25">
<title>
v:25
</title>
</circle>
<circle cx="84" cy="102" i="26" r="0.5" tabindex="26">
<title>
v:26
</title>
</circle>
<circle cx="85" cy="61" i="27" r="0.5" tabindex="27">
<title>
v:27
</title>
</circle>
<circle cx="86" cy="58" i="28" r="0.5" tabindex="28">
<title>
v:28
</title>
</circle>
<circle cx="86" cy="77" i="29" r="0.5" tabindex="29">
<title>
v:29
</title>
</circle>
<circle cx="88" cy="30" i="30" r="0.5" tabindex="30">
<title>
v:30
</title>
</circle>
<circle cx="88" cy="43" i="31" r="0.5" tabindex="31">
<title>
v:31
</title>
</circle>
<circle cx="88" cy="97" i="32" r="0.5" tabindex="32">
<title>
v:32
</title>
</circle>
<circle cx="89" cy="48" i="33" r="0.5" tabindex="33">
<title>
v:33
</title>
</circle>
<circle cx="90" cy="25" i="34" r="0.5" tabindex="34">
<title>
v:34
</title>
</circle>
<circle cx="90" cy="41" i="35" r="0.5" tabindex="35">
<title>
v:35
</title>
</circle>
<circle cx="90" cy="80" i="36" r="0.5" tabindex="36">
<title>
v:36
</title>
</circle>
<circle cx="91" cy="68" i="37" r="0.5" tabindex="37">
<title>
v:37
</title>
</circle>
<circle cx="92" cy="50" i="38" r="0.5" tabindex="38">
<title>
v:38
</title>
</circle>
<circle cx="93" cy="123" i="39" r="0.5" tabindex="39">
<title>
v:39
</title>
</circle>
<circle cx="93" cy="160" i="40" r="0.5" tabindex="40">
<title>
v:40
</title>
</circle>
<circle cx="95" cy="68" i="41" r="0.5" tabindex="41">
<title>
v:41
</title>
</circle>
<circle cx="95" cy="146" i="42" r="0.5" tabindex="42">
<title>
v:42
</title>
</circle>
<circle cx="96" cy="163" i="43" r="0.5" tabindex="43">
<title>
v:43
</title>
</circle>
<circle cx="98" cy="84" i="44" r="0.5" tabindex="44">
<title>
v:44
</title>
</circle>
<circle cx="98" cy="103" i="45" r="0.5" tabindex="45">
<title>
v:45
</title>
</circle>
<circle cx="98" cy="134" i="46" r="0.5" tabindex="46">
<title>
v:46
</title>
</circle>
<circle cx="99" cy="150" i="47" r="0.5" tabindex="47">
<title>
v:47
</title>
</circle>
<circle cx="100" cy="83" i="48" r="0.5" tabindex="48">
<title>
v:48
</title>
</circle>
<circle cx="102" cy="60" i="49" r="0.5" tabindex="49">
<title>
v:49
</title>
</circle>
<circle cx="107" cy="49" i="50" r="0.5" tabindex="50">
<title>
v:50
</title>
</circle>
<circle cx="107" cy="148" i="51" r="0.5" tabindex="51">
<title>
v:51
</title>
</circle>
<circle cx="108" cy="78" i="52" r="0.5" tabindex="52">
<title>
v:52
</title>
</circle>
<circle cx="109" cy="140" i="53" r="0.5" tabindex="53">
<title>
v:53
</title>
</circle>
<circle cx="109" cy="144" i="54" r="0.5" tabindex="54">
<title>
v:54
</title>
</circle>
<circle cx="110" cy="63" i="55" r="0.5" tabindex="55">
<title>
v:55
</title>
</circle>
<circle cx="110" cy="96" i="56" r="0.5" tabindex="56">
<title>
v:56
</title>
</circle>
<circle cx="110" cy="152" i="57" r="0.5" tabindex="57">
<title>
v:57
</title>
</circle>
<circle cx="111" cy="164" i="58" r="0.5" tabindex="58">
<title>
v:58
</title>
</circle>
<circle cx="114" cy="152" i="59" r="0.5" tabindex="59">
<title>
v:59
</title>
</circle>
<circle cx="116" cy="49" i="60" r="0.5" tabindex="60">
<title>
v:60
</title>
</circle>
<circle cx="117" cy="83" i="61" r="0.5" tabindex="61">
<title>
v:61
</title>
</circle>
<circle cx="117" cy="135" i="62" r="0.5" tabindex="62">
<title>
v:62
</title>
</circle>
<circle cx="121" cy="84" i="63" r="0.5" tabindex="63">
<title>
v:63
</title>
</circle>
<circle cx="121" cy="105" i="64" r="0.5" tabindex="64">
<title>
v:64
</title>
</circle>
<circle cx="123" cy="47" i="65" r="0.5" tabindex="65">
<title>
v:65
</title>
</circle>
<circle cx="124" cy="149" i="66" r="0.5" tabindex="66">
<title>
v:66
</title>
</circle>
<circle cx="126" cy="122" i="67" r="0.5" tabindex="67">
<title>
v:67
</title>
</circle>
<circle cx="129" cy="53" i="68" r="0.5" tabindex="68">
<title>
v:68
</title>
</circle>
<circle cx="129" cy="91" i="69" r="0.5" tabindex="69">
<title>
v:69
</title>
</circle>
<circle cx="130" cy="149" i="70" r="0.5" tabindex="70">
<title>
v:70
</title>
</circle>
<circle cx="131" cy="113" i="71" r="0.5" tabindex="71">
<title>
v:71
</title>
</circle>
<circle cx="132" cy="103" i="72" r="0.5" tabindex="72">
<title>
v:72
</title>
</circle>
<circle cx="134" cy="128" i="73" r="0.5" tabindex="73">
<title>
v:73
</title>
</circle>
<circle cx="135" cy="67" i="74" r="0.5" tabindex="74">
<title>
v:74
</title>
</circle>
<circle cx="137" cy="180" i="75" r="0.5" tabindex="75">
<title>
v:75
</title>
</circle>
<circle cx="138" cy="164" i="76" r="0.5" tabindex="76">
<title>
v:76
</title>
</circle>
<circle cx="139" cy="73" i="77" r="0.5" tabindex="77">
<title>
v:77
</title>
</circle>
<circle cx="141" cy="46" i="78" r="0.5" tabindex="78">
<title>
v:78
</title>
</circle>
<circle cx="141" cy="162" i="79" r="0.5" tabindex="79">
<title>
v:79
</title>
</circle>
<circle cx="143" cy="39" i="80" r="0.5" tabindex="80">
<title>
v:80
</title>
</circle>
<circle cx="144" cy="127" i="81" r="0.5" tabindex="81">
<title>
v:81
</title>
</circle>
<circle cx="148" cy="125" i="82" r="0.5" tabindex="82">
<title>
v:82
</title>
</circle>
<circle cx="149" cy="50" i="83" r="0.5" tabindex="83">
<title>
v:83
</title>
</circle>
<circle cx="150" cy="113" i="84" r="0.5" tabindex="84">
<title>
v:84
</title>
</circle>
<circle cx="151" cy="71" i="85" r="0.5" tabindex="85">
<title>
v:85
</title>
</circle>
<circle cx="152" cy="62" i="86" r="0.5" tabindex="86">
<title>
v:86
</title>
</circle>
<circle cx="152" cy="116" i="87" r="0.5" tabindex="87">
<title>
v:87
</title>
</circle>
<circle cx="152" cy="124" i="88" r="0.5" tabindex="88">
<title>
v:88
</title>
</circle>
<circle cx="153" cy="65" i="89" r="0.5" tabindex="89">
<title>
v:89
</title>
</circle>
<circle cx="155" cy="48" i="90" r="0.5" tabindex="90">
<title>
v:90
</title>
</circle>
<circle cx="155" cy="95" i="91" r="0.5" tabindex="91">
<title>
v:91
</title>
</circle>
<circle cx="156" cy="59" i="92" r="0.5" tabindex="92">
<title>
v:92
</title>
</circle>
<circle cx="158" cy="87" i="93" r="0.5" tabindex="93">
<title>
v:93
</title>
</circle>
<circle cx="159" cy="54" i="94" r="0.5" tabindex="94">
<title>
v:94
</title>
</circle>
<circle cx="159" cy="115" i="95" r="0.5" tabindex="95">
<title>
v:95
</title>
</circle>
<circle cx="161" cy="123" i="96" r="0.5" tabindex="96">
<title>
v:96
</title>
</circle>
<circle cx="162" cy="113" i="97" r="0.5" tabindex="97">
<title>
v:97
</title>
</circle>
<circle cx="163" cy="129" i="98" r="0.5" tabindex="98">
<title>
v:98
</title>
</circle>
<circle cx="163" cy="134" i="99" r="0.5" tabindex="99">
<title>
v:99
</title>
</circle>
<circle cx="164" cy="62" i="100" r="0.5" tabindex="100">
<title>
v:100
</title>
</circle>
<circle cx="165" cy="65" i="101" r="0.5" tabindex="101">
<title>
v:101
</title>
</circle>
<circle cx="165" cy="82" i="102" r="0.5" tabindex="102">
<title>
v:102
</title>
</circle>
<circle cx="167" cy="78" i="103" r="0.5" tabindex="103">
<title>
v:103
</title>
</circle>
<circle cx="168" cy="51" i="104" r="0.5" tabindex="104">
<title>
v:104
</title>
</circle>
<circle cx="168" cy="104" i="105" r="0.5" tabindex="105">
<title>
v:105
</title>
</circle>
<circle cx="170" cy="121" i="106" r="0.5" tabindex="106">
<title>
v:106
</title>
</circle>
<circle cx="172" cy="47" i="107" r="0.5" tabindex="107">
<title>
v:107
</title>
</circle>
<circle cx="175" cy="101" i="108" r="0.5" tabindex="108">
<title>
v:108
</title>
</circle>
<circle cx="176" cy="124" i="109" r="0.5" tabindex="109">
<title>
v:109
</title>
</circle>
<circle cx="177" cy="76" i="110" r="0.5" tabindex="110">
<title>
v:110
</title>
</circle>
<circle cx="179" cy="79" i="111" r="0.5" tabindex="111">
<title>
v:111
</title>
</circle>
<circle cx="181" cy="66" i="112" r="0.5" tabindex="112">
<title>
v:112
</title>
</circle>
</g>
</svg>