<svg height="500" viewBox="-2 -2 416 382" width="500" xmlns="http://www.w3.org/2000/svg">
<path class="hole" d="M2 223L30 235L7 272L49 271L42 314L80 337L83 299L116 273L112 257L109 215L142 254L187 231L240 212L241 154L284 186L338 152L393 130L378 69L316 97L335 37L285 0L232 39L256 100L198 88L215 60L192 47L170 71L150 85L128 82L128 111L81 107L68 71L77 35L48 27L31 63L43 99L31 140L30 155L10 175L30 195L50 175L34 205L5 202M-2 -2L414 -2L414 380L-2 380" style="fill:#00000066;fill-rule:evenodd;"/>
<circle cx="284" cy="54" r="5" style="fill:#ffff0066;" title="Globalist"/>
<circle cx="290" cy="138" r="5" style="fill:#ffff0066;" title="WallHack"/>
<path class="ok" d="M285 2L277 39M277 39L313 31M277 39L241 52M149 110L191 90M149 110L192 132M241 52L267 91M191 90L192 132M191 90L174 138M191 90L230 127M292 106L267 91M292 106L314 106M267 91L290 109M284 117L230 127M284 117L268 168M174 138L201 180M314 106L290 109M314 106L298 124M230 127L268 168M230 127L201 180M278 135L290 109M278 135L307 148M290 109L256 108M290 109L307 129M298 124L330 120M298 124L327 138M307 148L307 129M307 129L319 142M307 129L327 138M330 120L356 123M327 138L356 123" style="stroke:#0000ff;stroke-linecap:round"/>
<path class="out" d="M112 15L127 0M112 15L88 34M127 0L118 28M45 41L88 34M45 41L73 72M141 20L168 11M141 20L124 42M168 11L151 34M168 11L179 37M124 42L151 34M88 34L118 28M88 34L73 72M88 34L112 64M285 2L249 14M285 2L325 3M215 39L249 14M215 39L201 11M118 28L151 34M118 28L137 54M38 46L73 72M38 46L0 69M38 46L32 89M249 14L277 39M249 14L241 52M201 11L161 32M201 11L202 56M325 3L313 31M73 72L112 64M73 72L32 89M151 34L179 37M151 34L159 62M179 37L205 25M179 37L202 56M137 54L112 64M137 54L159 62M205 25L202 56M112 64L78 71M149 110L159 62M159 62L202 56M159 62L191 90M0 69L32 89M241 52L202 56M32 89L73 99M161 32L202 56M202 56L235 84M78 71L73 99M267 91L235 84M235 84L230 127M235 84L256 108M268 168L317 179M268 168L303 212M201 180L257 175M319 142L332 168M327 138L332 168M317 179L358 221M395 166L358 221M395 166L412 230M257 175L303 212M303 212L358 221M303 212L306 265M358 221L336 277M306 265L308 329M412 230L397 290M336 277L397 290M336 277L308 329M336 277L380 328M308 329L342 378M380 328L342 378" style="stroke:#ff0000;stroke-linecap:round"/>
<g fill="#333333">
<circle cx="2" cy="223" r="0.5" tabindex="0">
<title>
hole:0
</title>
</circle>
<circle cx="30" cy="235" r="0.5" tabindex="1">
<title>
hole:1
</title>
</circle>
<circle cx="7" cy="272" r="0.5" tabindex="2">
<title>
hole:2
</title>
</circle>
<circle cx="49" cy="271" r="0.5" tabindex="3">
<title>
hole:3
</title>
</circle>
<circle cx="42" cy="314" r="0.5" tabindex="4">
<title>
hole:4
</title>
</circle>
<circle cx="80" cy="337" r="0.5" tabindex="5">
<title>
hole:5
</title>
</circle>
<circle cx="83" cy="299" r="0.5" tabindex="6">
<title>
hole:6
</title>
</circle>
<circle cx="116" cy="273" r="0.5" tabindex="7">
<title>
hole:7
</title>
</circle>
<circle cx="112" cy="257" r="0.5" tabindex="8">
<title>
hole:8
</title>
</circle>
<circle cx="109" cy="215" r="0.5" tabindex="9">
<title>
hole:9
</title>
</circle>
<circle cx="142" cy="254" r="0.5" tabindex="10">
<title>
hole:10
</title>
</circle>
<circle cx="187" cy="231" r="0.5" tabindex="11">
<title>
hole:11
</title>
</circle>
<circle cx="240" cy="212" r="0.5" tabindex="12">
<title>
hole:12
</title>
</circle>
<circle cx="241" cy="154" r="0.5" tabindex="13">
<title>
hole:13
</title>
</circle>
<circle cx="284" cy="186" r="0.5" tabindex="14">
<title>
hole:14
</title>
</circle>
<circle cx="338" cy="152" r="0.5" tabindex="15">
<title>
hole:15
</title>
</circle>
<circle cx="393" cy="130" r="0.5" tabindex="16">
<title>
hole:16
</title>
</circle>
<circle cx="378" cy="69" r="0.5" tabindex="17">
<title>
hole:17
</title>
</circle>
<circle cx="316" cy="97" r="0.5" tabindex="18">
<title>
hole:18
</title>
</circle>
<circle cx="335" cy="37" r="0.5" tabindex="19">
<title>
hole:19
</title>
</circle>
<circle cx="285" cy="0" r="0.5" tabindex="20">
<title>
hole:20
</title>
</circle>
<circle cx="232" cy="39" r="0.5" tabindex="21">
<title>
hole:21
</title>
</circle>
<circle cx="256" cy="100" r="0.5" tabindex="22">
<title>
hole:22
</title>
</circle>
<circle cx="198" cy="88" r="0.5" tabindex="23">
<title>
hole:23
</title>
</circle>
<circle cx="215" cy="60" r="0.5" tabindex="24">
<title>
hole:24
</title>
</circle>
<circle cx="192" cy="47" r="0.5" tabindex="25">
<title>
hole:25
</title>
</circle>
<circle cx="170" cy="71" r="0.5" tabindex="26">
<title>
hole:26
</title>
</circle>
<circle cx="150" cy="85" r="0.5" tabindex="27">
<title>
hole:27
</title>
</circle>
<circle cx="128" cy="82" r="0.5" tabindex="28">
<title>
hole:28
</title>
</circle>
<circle cx="128" cy="111" r="0.5" tabindex="29">
<title>
hole:29
</title>
</circle>
<circle cx="81" cy="107" r="0.5" tabindex="30">
<title>
hole:30
</title>
</circle>
<circle cx="68" cy="71" r="0.5" tabindex="31">
<title>
hole:31
</title>
</circle>
<circle cx="77" cy="35" r="0.5" tabindex="32">
<title>
hole:32
</title>
</circle>
<circle cx="48" cy="27" r="0.5" tabindex="33">
<title>
hole:33
</title>
</circle>
<circle cx="31" cy="63" r="0.5" tabindex="34">
<title>
hole:34
</title>
</circle>
<circle cx="43" cy="99" r="0.5" tabindex="35">
<title>
hole:35
</title>
</circle>
<circle cx="31" cy="140" r="0.5" tabindex="36">
<title>
hole:36
</title>
</circle>
<circle cx="30" cy="155" r="0.5" tabindex="37">
<title>
hole:37
</title>
</circle>
<circle cx="10" cy="175" r="0.5" tabindex="38">
<title>
hole:38
</title>
</circle>
<circle cx="30" cy="195" r="0.5" tabindex="39">
<title>
hole:39
</title>
</circle>
<circle cx="50" cy="175" r="0.5" tabindex="40">
<title>
hole:40
</title>
</circle>
<circle cx="34" cy="205" r="0.5" tabindex="41">
<title>
hole:41
</title>
</circle>
<circle cx="5" cy="202" r="0.5" tabindex="42">
<title>
hole:42
</title>
</circle>
</g>
<g fill="#999999">
<circle cx="112" cy="15" r="0.5" tabindex="43">
<title>
v:0
</title>
</circle>
<circle cx="127" cy="0" r="0.5" tabindex="44">
<title>
v:1
</title>
</circle>
<circle cx="45" cy="41" r="0.5" tabindex="45">
<title>
v:2
</title>
</circle>
<circle cx="141" cy="20" r="0.5" tabindex="46">
<title>
v:3
</title>
</circle>
<circle cx="168" cy="11" r="0.5" tabindex="47">
<title>
v:4
</title>
</circle>
<circle cx="124" cy="42" r="0.5" tabindex="48">
<title>
v:5
</title>
</circle>
<circle cx="88" cy="34" r="0.5" tabindex="49">
<title>
v:6
</title>
</circle>
<circle cx="285" cy="2" r="0.5" tabindex="50">
<title>
v:7
</title>
</circle>
<circle cx="215" cy="39" r="0.5" tabindex="51">
<title>
v:8
</title>
</circle>
<circle cx="118" cy="28" r="0.5" tabindex="52">
<title>
v:9
</title>
</circle>
<circle cx="38" cy="46" r="0.5" tabindex="53">
<title>
v:10
</title>
</circle>
<circle cx="249" cy="14" r="0.5" tabindex="54">
<title>
v:11
</title>
</circle>
<circle cx="201" cy="11" r="0.5" tabindex="55">
<title>
v:12
</title>
</circle>
<circle cx="325" cy="3" r="0.5" tabindex="56">
<title>
v:13
</title>
</circle>
<circle cx="73" cy="72" r="0.5" tabindex="57">
<title>
v:14
</title>
</circle>
<circle cx="151" cy="34" r="0.5" tabindex="58">
<title>
v:15
</title>
</circle>
<circle cx="179" cy="37" r="0.5" tabindex="59">
<title>
v:16
</title>
</circle>
<circle cx="137" cy="54" r="0.5" tabindex="60">
<title>
v:17
</title>
</circle>
<circle cx="277" cy="39" r="0.5" tabindex="61">
<title>
v:18
</title>
</circle>
<circle cx="205" cy="25" r="0.5" tabindex="62">
<title>
v:19
</title>
</circle>
<circle cx="112" cy="64" r="0.5" tabindex="63">
<title>
v:20
</title>
</circle>
<circle cx="149" cy="110" r="0.5" tabindex="64">
<title>
v:21
</title>
</circle>
<circle cx="159" cy="62" r="0.5" tabindex="65">
<title>
v:22
</title>
</circle>
<circle cx="313" cy="31" r="0.5" tabindex="66">
<title>
v:23
</title>
</circle>
<circle cx="0" cy="69" r="0.5" tabindex="67">
<title>
v:24
</title>
</circle>
<circle cx="241" cy="52" r="0.5" tabindex="68">
<title>
v:25
</title>
</circle>
<circle cx="32" cy="89" r="0.5" tabindex="69">
<title>
v:26
</title>
</circle>
<circle cx="161" cy="32" r="0.5" tabindex="70">
<title>
v:27
</title>
</circle>
<circle cx="202" cy="56" r="0.5" tabindex="71">
<title>
v:28
</title>
</circle>
<circle cx="78" cy="71" r="0.5" tabindex="72">
<title>
v:29
</title>
</circle>
<circle cx="191" cy="90" r="0.5" tabindex="73">
<title>
v:30
</title>
</circle>
<circle cx="192" cy="132" r="0.5" tabindex="74">
<title>
v:31
</title>
</circle>
<circle cx="73" cy="99" r="0.5" tabindex="75">
<title>
v:32
</title>
</circle>
<circle cx="292" cy="106" r="0.5" tabindex="76">
<title>
v:33
</title>
</circle>
<circle cx="267" cy="91" r="0.5" tabindex="77">
<title>
v:34
</title>
</circle>
<circle cx="235" cy="84" r="0.5" tabindex="78">
<title>
v:35
</title>
</circle>
<circle cx="284" cy="117" r="0.5" tabindex="79">
<title>
v:36
</title>
</circle>
<circle cx="174" cy="138" r="0.5" tabindex="80">
<title>
v:37
</title>
</circle>
<circle cx="314" cy="106" r="0.5" tabindex="81">
<title>
v:38
</title>
</circle>
<circle cx="230" cy="127" r="0.5" tabindex="82">
<title>
v:39
</title>
</circle>
<circle cx="278" cy="135" r="0.5" tabindex="83">
<title>
v:40
</title>
</circle>
<circle cx="290" cy="109" r="0.5" tabindex="84">
<title>
v:41
</title>
</circle>
<circle cx="256" cy="108" r="0.5" tabindex="85">
<title>
v:42
</title>
</circle>
<circle cx="298" cy="124" r="0.5" tabindex="86">
<title>
v:43
</title>
</circle>
<circle cx="307" cy="148" r="0.5" tabindex="87">
<title>
v:44
</title>
</circle>
<circle cx="307" cy="129" r="0.5" tabindex="88">
<title>
v:45
</title>
</circle>
<circle cx="268" cy="168" r="0.5" tabindex="89">
<title>
v:46
</title>
</circle>
<circle cx="201" cy="180" r="0.5" tabindex="90">
<title>
v:47
</title>
</circle>
<circle cx="330" cy="120" r="0.5" tabindex="91">
<title>
v:48
</title>
</circle>
<circle cx="319" cy="142" r="0.5" tabindex="92">
<title>
v:49
</title>
</circle>
<circle cx="327" cy="138" r="0.5" tabindex="93">
<title>
v:50
</title>
</circle>
<circle cx="317" cy="179" r="0.5" tabindex="94">
<title>
v:51
</title>
</circle>
<circle cx="356" cy="123" r="0.5" tabindex="95">
<title>
v:52
</title>
</circle>
<circle cx="332" cy="168" r="0.5" tabindex="96">
<title>
v:53
</title>
</circle>
<circle cx="395" cy="166" r="0.5" tabindex="97">
<title>
v:54
</title>
</circle>
<circle cx="257" cy="175" r="0.5" tabindex="98">
<title>
v:55
</title>
</circle>
<circle cx="303" cy="212" r="0.5" tabindex="99">
<title>
v:56
</title>
</circle>
<circle cx="358" cy="221" r="0.5" tabindex="100">
<title>
v:57
</title>
</circle>
<circle cx="306" cy="265" r="0.5" tabindex="101">
<title>
v:58
</title>
</circle>
<circle cx="412" cy="230" r="0.5" tabindex="102">
<title>
v:59
</title>
</circle>
<circle cx="336" cy="277" r="0.5" tabindex="103">
<title>
v:60
</title>
</circle>
<circle cx="397" cy="290" r="0.5" tabindex="104">
<title>
v:61
</title>
</circle>
<circle cx="308" cy="329" r="0.5" tabindex="105">
<title>
v:62
</title>
</circle>
<circle cx="380" cy="328" r="0.5" tabindex="106">
<title>
v:63
</title>
</circle>
<circle cx="342" cy="378" r="0.5" tabindex="107">
<title>
v:64
</title>
</circle>
</g>
</svg>