<svg height="500" viewBox="0 -2 416 382" width="500" xmlns="http://www.w3.org/2000/svg">
<path class="hole" d="M2 223L30 235L7 272L49 271L42 314L80 337L83 299L116 273L112 257L109 215L142 254L187 231L240 212L241 154L284 186L338 152L393 130L378 69L316 97L335 37L285 0L232 39L256 100L198 88L215 60L192 47L170 71L150 85L128 82L128 111L81 107L68 71L77 35L48 27L31 63L43 99L31 140L30 155L10 175L30 195L50 175L34 205L5 202M0 -2L416 -2L416 380L0 380" style="fill:#00000066;fill-rule:evenodd;"/>
<circle cx="284" cy="54" fill="#ffff0066" r="5">
<title>
Globalist@100
</title>
</circle>
<circle cx="290" cy="138" fill="#ffff0066" r="5">
<title>
WallHack@61
</title>
</circle>
<circle cx="200" cy="186" fill="#ffff0066" r="5">
<title>
WallHack@1
</title>
</circle>
<path class="ok" d="M287 2L279 39M279 39L315 31M279 39L243 52M151 110L193 90M151 110L194 132M243 52L269 91M193 90L194 132M193 90L176 138M193 90L232 127M294 106L269 91M294 106L316 106M269 91L292 109M286 117L232 127M286 117L270 168M176 138L203 180M316 106L292 109M316 106L300 124M232 127L270 168M232 127L203 180M280 135L292 109M280 135L309 148M292 109L258 108M292 109L309 129M300 124L332 120M300 124L329 138M309 148L309 129M309 129L321 142M309 129L329 138M332 120L358 123M329 138L358 123" style="stroke:#0000ff;stroke-linecap:round"/>
<path class="out" d="M114 15L129 0M114 15L90 34M129 0L120 28M47 41L90 34M47 41L75 72M143 20L170 11M143 20L126 42M170 11L153 34M170 11L181 37M126 42L153 34M90 34L120 28M90 34L75 72M90 34L114 64M287 2L251 14M287 2L327 3M217 39L251 14M217 39L203 11M120 28L153 34M120 28L139 54M40 46L75 72M40 46L2 69M40 46L34 89M251 14L279 39M251 14L243 52M203 11L163 32M203 11L204 56M327 3L315 31M75 72L114 64M75 72L34 89M153 34L181 37M153 34L161 62M181 37L207 25M181 37L204 56M139 54L114 64M139 54L161 62M207 25L204 56M114 64L80 71M151 110L161 62M161 62L204 56M161 62L193 90M2 69L34 89M243 52L204 56M34 89L75 99M163 32L204 56M204 56L237 84M80 71L75 99M269 91L237 84M237 84L232 127M237 84L258 108M270 168L319 179M270 168L305 212M203 180L259 175M321 142L334 168M329 138L334 168M319 179L360 221M397 166L360 221M397 166L414 230M259 175L305 212M305 212L360 221M305 212L308 265M360 221L338 277M308 265L310 329M414 230L399 290M338 277L399 290M338 277L310 329M338 277L382 328M310 329L344 378M382 328L344 378" style="stroke:#ff0000;stroke-linecap:round"/>
<g fill="#333333">
<circle cx="2" cy="223" r="0.5">
<title>
hole:0
</title>
</circle>
<circle cx="30" cy="235" r="0.5">
<title>
hole:1
</title>
</circle>
<circle cx="7" cy="272" r="0.5">
<title>
hole:2
</title>
</circle>
<circle cx="49" cy="271" r="0.5">
<title>
hole:3
</title>
</circle>
<circle cx="42" cy="314" r="0.5">
<title>
hole:4
</title>
</circle>
<circle cx="80" cy="337" r="0.5">
<title>
hole:5
</title>
</circle>
<circle cx="83" cy="299" r="0.5">
<title>
hole:6
</title>
</circle>
<circle cx="116" cy="273" r="0.5">
<title>
hole:7
</title>
</circle>
<circle cx="112" cy="257" r="0.5">
<title>
hole:8
</title>
</circle>
<circle cx="109" cy="215" r="0.5">
<title>
hole:9
</title>
</circle>
<circle cx="142" cy="254" r="0.5">
<title>
hole:10
</title>
</circle>
<circle cx="187" cy="231" r="0.5">
<title>
hole:11
</title>
</circle>
<circle cx="240" cy="212" r="0.5">
<title>
hole:12
</title>
</circle>
<circle cx="241" cy="154" r="0.5">
<title>
hole:13
</title>
</circle>
<circle cx="284" cy="186" r="0.5">
<title>
hole:14
</title>
</circle>
<circle cx="338" cy="152" r="0.5">
<title>
hole:15
</title>
</circle>
<circle cx="393" cy="130" r="0.5">
<title>
hole:16
</title>
</circle>
<circle cx="378" cy="69" r="0.5">
<title>
hole:17
</title>
</circle>
<circle cx="316" cy="97" r="0.5">
<title>
hole:18
</title>
</circle>
<circle cx="335" cy="37" r="0.5">
<title>
hole:19
</title>
</circle>
<circle cx="285" cy="0" r="0.5">
<title>
hole:20
</title>
</circle>
<circle cx="232" cy="39" r="0.5">
<title>
hole:21
</title>
</circle>
<circle cx="256" cy="100" r="0.5">
<title>
hole:22
</title>
</circle>
<circle cx="198" cy="88" r="0.5">
<title>
hole:23
</title>
</circle>
<circle cx="215" cy="60" r="0.5">
<title>
hole:24
</title>
</circle>
<circle cx="192" cy="47" r="0.5">
<title>
hole:25
</title>
</circle>
<circle cx="170" cy="71" r="0.5">
<title>
hole:26
</title>
</circle>
<circle cx="150" cy="85" r="0.5">
<title>
hole:27
</title>
</circle>
<circle cx="128" cy="82" r="0.5">
<title>
hole:28
</title>
</circle>
<circle cx="128" cy="111" r="0.5">
<title>
hole:29
</title>
</circle>
<circle cx="81" cy="107" r="0.5">
<title>
hole:30
</title>
</circle>
<circle cx="68" cy="71" r="0.5">
<title>
hole:31
</title>
</circle>
<circle cx="77" cy="35" r="0.5">
<title>
hole:32
</title>
</circle>
<circle cx="48" cy="27" r="0.5">
<title>
hole:33
</title>
</circle>
<circle cx="31" cy="63" r="0.5">
<title>
hole:34
</title>
</circle>
<circle cx="43" cy="99" r="0.5">
<title>
hole:35
</title>
</circle>
<circle cx="31" cy="140" r="0.5">
<title>
hole:36
</title>
</circle>
<circle cx="30" cy="155" r="0.5">
<title>
hole:37
</title>
</circle>
<circle cx="10" cy="175" r="0.5">
<title>
hole:38
</title>
</circle>
<circle cx="30" cy="195" r="0.5">
<title>
hole:39
</title>
</circle>
<circle cx="50" cy="175" r="0.5">
<title>
hole:40
</title>
</circle>
<circle cx="34" cy="205" r="0.5">
<title>
hole:41
</title>
</circle>
<circle cx="5" cy="202" r="0.5">
<title>
hole:42
</title>
</circle>
</g>
<g fill="#999999">
<circle cx="114" cy="15" i="0" r="0.5" tabindex="0">
<title>
v:0
</title>
</circle>
<circle cx="129" cy="0" i="1" r="0.5" tabindex="1">
<title>
v:1
</title>
</circle>
<circle cx="47" cy="41" i="2" r="0.5" tabindex="2">
<title>
v:2
</title>
</circle>
<circle cx="143" cy="20" i="3" r="0.5" tabindex="3">
<title>
v:3
</title>
</circle>
<circle cx="170" cy="11" i="4" r="0.5" tabindex="4">
<title>
v:4
</title>
</circle>
<circle cx="126" cy="42" i="5" r="0.5" tabindex="5">
<title>
v:5
</title>
</circle>
<circle cx="90" cy="34" i="6" r="0.5" tabindex="6">
<title>
v:6
</title>
</circle>
<circle cx="287" cy="2" i="7" r="0.5" tabindex="7">
<title>
v:7
</title>
</circle>
<circle cx="217" cy="39" i="8" r="0.5" tabindex="8">
<title>
v:8
</title>
</circle>
<circle cx="120" cy="28" i="9" r="0.5" tabindex="9">
<title>
v:9
</title>
</circle>
<circle cx="40" cy="46" i="10" r="0.5" tabindex="10">
<title>
v:10
</title>
</circle>
<circle cx="251" cy="14" i="11" r="0.5" tabindex="11">
<title>
v:11
</title>
</circle>
<circle cx="203" cy="11" i="12" r="0.5" tabindex="12">
<title>
v:12
</title>
</circle>
<circle cx="327" cy="3" i="13" r="0.5" tabindex="13">
<title>
v:13
</title>
</circle>
<circle cx="75" cy="72" i="14" r="0.5" tabindex="14">
<title>
v:14
</title>
</circle>
<circle cx="153" cy="34" i="15" r="0.5" tabindex="15">
<title>
v:15
</title>
</circle>
<circle cx="181" cy="37" i="16" r="0.5" tabindex="16">
<title>
v:16
</title>
</circle>
<circle cx="139" cy="54" i="17" r="0.5" tabindex="17">
<title>
v:17
</title>
</circle>
<circle cx="279" cy="39" i="18" r="0.5" tabindex="18">
<title>
v:18
</title>
</circle>
<circle cx="207" cy="25" i="19" r="0.5" tabindex="19">
<title>
v:19
</title>
</circle>
<circle cx="114" cy="64" i="20" r="0.5" tabindex="20">
<title>
v:20
</title>
</circle>
<circle cx="151" cy="110" i="21" r="0.5" tabindex="21">
<title>
v:21
</title>
</circle>
<circle cx="161" cy="62" i="22" r="0.5" tabindex="22">
<title>
v:22
</title>
</circle>
<circle cx="315" cy="31" i="23" r="0.5" tabindex="23">
<title>
v:23
</title>
</circle>
<circle cx="2" cy="69" i="24" r="0.5" tabindex="24">
<title>
v:24
</title>
</circle>
<circle cx="243" cy="52" i="25" r="0.5" tabindex="25">
<title>
v:25
</title>
</circle>
<circle cx="34" cy="89" i="26" r="0.5" tabindex="26">
<title>
v:26
</title>
</circle>
<circle cx="163" cy="32" i="27" r="0.5" tabindex="27">
<title>
v:27
</title>
</circle>
<circle cx="204" cy="56" i="28" r="0.5" tabindex="28">
<title>
v:28
</title>
</circle>
<circle cx="80" cy="71" i="29" r="0.5" tabindex="29">
<title>
v:29
</title>
</circle>
<circle cx="193" cy="90" i="30" r="0.5" tabindex="30">
<title>
v:30
</title>
</circle>
<circle cx="194" cy="132" i="31" r="0.5" tabindex="31">
<title>
v:31
</title>
</circle>
<circle cx="75" cy="99" i="32" r="0.5" tabindex="32">
<title>
v:32
</title>
</circle>
<circle cx="294" cy="106" i="33" r="0.5" tabindex="33">
<title>
v:33
</title>
</circle>
<circle cx="269" cy="91" i="34" r="0.5" tabindex="34">
<title>
v:34
</title>
</circle>
<circle cx="237" cy="84" i="35" r="0.5" tabindex="35">
<title>
v:35
</title>
</circle>
<circle cx="286" cy="117" i="36" r="0.5" tabindex="36">
<title>
v:36
</title>
</circle>
<circle cx="176" cy="138" i="37" r="0.5" tabindex="37">
<title>
v:37
</title>
</circle>
<circle cx="316" cy="106" i="38" r="0.5" tabindex="38">
<title>
v:38
</title>
</circle>
<circle cx="232" cy="127" i="39" r="0.5" tabindex="39">
<title>
v:39
</title>
</circle>
<circle cx="280" cy="135" i="40" r="0.5" tabindex="40">
<title>
v:40
</title>
</circle>
<circle cx="292" cy="109" i="41" r="0.5" tabindex="41">
<title>
v:41
</title>
</circle>
<circle cx="258" cy="108" i="42" r="0.5" tabindex="42">
<title>
v:42
</title>
</circle>
<circle cx="300" cy="124" i="43" r="0.5" tabindex="43">
<title>
v:43
</title>
</circle>
<circle cx="309" cy="148" i="44" r="0.5" tabindex="44">
<title>
v:44
</title>
</circle>
<circle cx="309" cy="129" i="45" r="0.5" tabindex="45">
<title>
v:45
</title>
</circle>
<circle cx="270" cy="168" i="46" r="0.5" tabindex="46">
<title>
v:46
</title>
</circle>
<circle cx="203" cy="180" i="47" r="0.5" tabindex="47">
<title>
v:47
</title>
</circle>
<circle cx="332" cy="120" i="48" r="0.5" tabindex="48">
<title>
v:48
</title>
</circle>
<circle cx="321" cy="142" i="49" r="0.5" tabindex="49">
<title>
v:49
</title>
</circle>
<circle cx="329" cy="138" i="50" r="0.5" tabindex="50">
<title>
v:50
</title>
</circle>
<circle cx="319" cy="179" i="51" r="0.5" tabindex="51">
<title>
v:51
</title>
</circle>
<circle cx="358" cy="123" i="52" r="0.5" tabindex="52">
<title>
v:52
</title>
</circle>
<circle cx="334" cy="168" i="53" r="0.5" tabindex="53">
<title>
v:53
</title>
</circle>
<circle cx="397" cy="166" i="54" r="0.5" tabindex="54">
<title>
v:54
</title>
</circle>
<circle cx="259" cy="175" i="55" r="0.5" tabindex="55">
<title>
v:55
</title>
</circle>
<circle cx="305" cy="212" i="56" r="0.5" tabindex="56">
<title>
v:56
</title>
</circle>
<circle cx="360" cy="221" i="57" r="0.5" tabindex="57">
<title>
v:57
</title>
</circle>
<circle cx="308" cy="265" i="58" r="0.5" tabindex="58">
<title>
v:58
</title>
</circle>
<circle cx="414" cy="230" i="59" r="0.5" tabindex="59">
<title>
v:59
</title>
</circle>
<circle cx="338" cy="277" i="60" r="0.5" tabindex="60">
<title>
v:60
</title>
</circle>
<circle cx="399" cy="290" i="61" r="0.5" tabindex="61">
<title>
v:61
</title>
</circle>
<circle cx="310" cy="329" i="62" r="0.5" tabindex="62">
<title>
v:62
</title>
</circle>
<circle cx="382" cy="328" i="63" r="0.5" tabindex="63">
<title>
v:63
</title>
</circle>
<circle cx="344" cy="378" i="64" r="0.5" tabindex="64">
<title>
v:64
</title>
</circle>
</g>
</svg>