<svg height="500" viewBox="0 -2 233 245" width="500" xmlns="http://www.w3.org/2000/svg">
<path class="hole" d="M42 27L66 44L97 81L39 56L88 106L12 69L5 97L16 130L2 156L3 197L43 166L42 195L9 241L67 214L90 193L96 236L118 203L148 238L164 222L190 194L194 228L231 232L231 175L212 161L231 136L208 114L180 85L220 87L197 43L222 40L230 14L201 17L182 0L171 47L145 34L137 0L95 0L83 26L56 0L19 11M0 -2L233 -2L233 243L0 243" style="fill:#00000066;fill-rule:evenodd;"/>
<circle cx="41" cy="99" r="5" style="fill:#ffff0066;" title="Globalist"/>
<circle cx="113" cy="33" r="5" style="fill:#ffff0066;" title="WallHack"/>
<path class="ok" d="M30 142L40 156M30 142L44 130M35 94L51 117M40 156L49 177M40 156L55 145M44 130L55 145M49 177L53 196M49 177L65 164M51 117L56 142M51 117L75 108M53 196L80 196M55 145L65 164M55 145L75 149M56 142L75 149M56 142L79 132M65 164L75 149M65 164L83 166M65 164L86 178M75 108L92 132M75 108L97 115M75 149L83 166M75 149L89 155M75 149L92 132M79 132L89 155M79 132L97 115M80 196L86 178M83 166L109 169M89 155L93 185M89 155L115 149M92 132L112 144M93 185L105 210M93 185L121 176M97 77L111 96M97 77L121 73M97 115L111 96M97 115L119 127M102 54L119 127M102 54L121 73M102 54L130 46M109 169L112 144M109 169L137 176M111 96L121 73M111 96L130 106M111 96L131 113M112 144L138 142M115 149L119 127M115 149L121 176M115 149L138 157M119 127L131 113M119 127L139 131M119 127L141 130M121 73L130 46M121 73L147 83M121 176L129 200M130 46L137 176M130 46L157 56M130 106L147 83M131 113L139 131M131 113L146 100M137 176L138 142M137 176L142 211M137 176L170 187M138 142L171 133M138 157L141 130M139 131L143 146M139 131L158 127M142 211L170 187M143 146L164 142M146 100L161 113M147 83L157 56M158 127L161 113M158 127L164 142M167 102L171 133M167 102L196 103M170 187L188 156M171 133L188 156M171 133L199 129M188 156L199 129M196 103L199 129" style="stroke:#0000ff;stroke-linecap:round"/>
<path class="out" d="M35 94L52 76M52 76L75 84M75 84L75 108M75 84L97 77M105 210L129 200M130 46L152 30M152 30L157 56" style="stroke:#ff0000;stroke-linecap:round"/>
<g fill="#333333">
<circle cx="42" cy="27" r="0.5" tabindex="0">
<title>
hole:0
</title>
</circle>
<circle cx="66" cy="44" r="0.5" tabindex="1">
<title>
hole:1
</title>
</circle>
<circle cx="97" cy="81" r="0.5" tabindex="2">
<title>
hole:2
</title>
</circle>
<circle cx="39" cy="56" r="0.5" tabindex="3">
<title>
hole:3
</title>
</circle>
<circle cx="88" cy="106" r="0.5" tabindex="4">
<title>
hole:4
</title>
</circle>
<circle cx="12" cy="69" r="0.5" tabindex="5">
<title>
hole:5
</title>
</circle>
<circle cx="5" cy="97" r="0.5" tabindex="6">
<title>
hole:6
</title>
</circle>
<circle cx="16" cy="130" r="0.5" tabindex="7">
<title>
hole:7
</title>
</circle>
<circle cx="2" cy="156" r="0.5" tabindex="8">
<title>
hole:8
</title>
</circle>
<circle cx="3" cy="197" r="0.5" tabindex="9">
<title>
hole:9
</title>
</circle>
<circle cx="43" cy="166" r="0.5" tabindex="10">
<title>
hole:10
</title>
</circle>
<circle cx="42" cy="195" r="0.5" tabindex="11">
<title>
hole:11
</title>
</circle>
<circle cx="9" cy="241" r="0.5" tabindex="12">
<title>
hole:12
</title>
</circle>
<circle cx="67" cy="214" r="0.5" tabindex="13">
<title>
hole:13
</title>
</circle>
<circle cx="90" cy="193" r="0.5" tabindex="14">
<title>
hole:14
</title>
</circle>
<circle cx="96" cy="236" r="0.5" tabindex="15">
<title>
hole:15
</title>
</circle>
<circle cx="118" cy="203" r="0.5" tabindex="16">
<title>
hole:16
</title>
</circle>
<circle cx="148" cy="238" r="0.5" tabindex="17">
<title>
hole:17
</title>
</circle>
<circle cx="164" cy="222" r="0.5" tabindex="18">
<title>
hole:18
</title>
</circle>
<circle cx="190" cy="194" r="0.5" tabindex="19">
<title>
hole:19
</title>
</circle>
<circle cx="194" cy="228" r="0.5" tabindex="20">
<title>
hole:20
</title>
</circle>
<circle cx="231" cy="232" r="0.5" tabindex="21">
<title>
hole:21
</title>
</circle>
<circle cx="231" cy="175" r="0.5" tabindex="22">
<title>
hole:22
</title>
</circle>
<circle cx="212" cy="161" r="0.5" tabindex="23">
<title>
hole:23
</title>
</circle>
<circle cx="231" cy="136" r="0.5" tabindex="24">
<title>
hole:24
</title>
</circle>
<circle cx="208" cy="114" r="0.5" tabindex="25">
<title>
hole:25
</title>
</circle>
<circle cx="180" cy="85" r="0.5" tabindex="26">
<title>
hole:26
</title>
</circle>
<circle cx="220" cy="87" r="0.5" tabindex="27">
<title>
hole:27
</title>
</circle>
<circle cx="197" cy="43" r="0.5" tabindex="28">
<title>
hole:28
</title>
</circle>
<circle cx="222" cy="40" r="0.5" tabindex="29">
<title>
hole:29
</title>
</circle>
<circle cx="230" cy="14" r="0.5" tabindex="30">
<title>
hole:30
</title>
</circle>
<circle cx="201" cy="17" r="0.5" tabindex="31">
<title>
hole:31
</title>
</circle>
<circle cx="182" cy="0" r="0.5" tabindex="32">
<title>
hole:32
</title>
</circle>
<circle cx="171" cy="47" r="0.5" tabindex="33">
<title>
hole:33
</title>
</circle>
<circle cx="145" cy="34" r="0.5" tabindex="34">
<title>
hole:34
</title>
</circle>
<circle cx="137" cy="0" r="0.5" tabindex="35">
<title>
hole:35
</title>
</circle>
<circle cx="95" cy="0" r="0.5" tabindex="36">
<title>
hole:36
</title>
</circle>
<circle cx="83" cy="26" r="0.5" tabindex="37">
<title>
hole:37
</title>
</circle>
<circle cx="56" cy="0" r="0.5" tabindex="38">
<title>
hole:38
</title>
</circle>
<circle cx="19" cy="11" r="0.5" tabindex="39">
<title>
hole:39
</title>
</circle>
</g>
<g fill="#999999">
<circle cx="30" cy="142" r="0.5" tabindex="40">
<title>
v:0
</title>
</circle>
<circle cx="35" cy="94" r="0.5" tabindex="41">
<title>
v:1
</title>
</circle>
<circle cx="40" cy="156" r="0.5" tabindex="42">
<title>
v:2
</title>
</circle>
<circle cx="44" cy="130" r="0.5" tabindex="43">
<title>
v:3
</title>
</circle>
<circle cx="49" cy="177" r="0.5" tabindex="44">
<title>
v:4
</title>
</circle>
<circle cx="51" cy="117" r="0.5" tabindex="45">
<title>
v:5
</title>
</circle>
<circle cx="52" cy="76" r="0.5" tabindex="46">
<title>
v:6
</title>
</circle>
<circle cx="53" cy="196" r="0.5" tabindex="47">
<title>
v:7
</title>
</circle>
<circle cx="55" cy="145" r="0.5" tabindex="48">
<title>
v:8
</title>
</circle>
<circle cx="56" cy="142" r="0.5" tabindex="49">
<title>
v:9
</title>
</circle>
<circle cx="65" cy="164" r="0.5" tabindex="50">
<title>
v:10
</title>
</circle>
<circle cx="75" cy="84" r="0.5" tabindex="51">
<title>
v:11
</title>
</circle>
<circle cx="75" cy="108" r="0.5" tabindex="52">
<title>
v:12
</title>
</circle>
<circle cx="75" cy="149" r="0.5" tabindex="53">
<title>
v:13
</title>
</circle>
<circle cx="79" cy="132" r="0.5" tabindex="54">
<title>
v:14
</title>
</circle>
<circle cx="80" cy="196" r="0.5" tabindex="55">
<title>
v:15
</title>
</circle>
<circle cx="83" cy="166" r="0.5" tabindex="56">
<title>
v:16
</title>
</circle>
<circle cx="86" cy="178" r="0.5" tabindex="57">
<title>
v:17
</title>
</circle>
<circle cx="89" cy="155" r="0.5" tabindex="58">
<title>
v:18
</title>
</circle>
<circle cx="92" cy="132" r="0.5" tabindex="59">
<title>
v:19
</title>
</circle>
<circle cx="93" cy="185" r="0.5" tabindex="60">
<title>
v:20
</title>
</circle>
<circle cx="97" cy="77" r="0.5" tabindex="61">
<title>
v:21
</title>
</circle>
<circle cx="97" cy="115" r="0.5" tabindex="62">
<title>
v:22
</title>
</circle>
<circle cx="102" cy="54" r="0.5" tabindex="63">
<title>
v:23
</title>
</circle>
<circle cx="105" cy="210" r="0.5" tabindex="64">
<title>
v:24
</title>
</circle>
<circle cx="109" cy="169" r="0.5" tabindex="65">
<title>
v:25
</title>
</circle>
<circle cx="111" cy="96" r="0.5" tabindex="66">
<title>
v:26
</title>
</circle>
<circle cx="112" cy="144" r="0.5" tabindex="67">
<title>
v:27
</title>
</circle>
<circle cx="115" cy="149" r="0.5" tabindex="68">
<title>
v:28
</title>
</circle>
<circle cx="119" cy="127" r="0.5" tabindex="69">
<title>
v:29
</title>
</circle>
<circle cx="121" cy="73" r="0.5" tabindex="70">
<title>
v:30
</title>
</circle>
<circle cx="121" cy="176" r="0.5" tabindex="71">
<title>
v:31
</title>
</circle>
<circle cx="129" cy="200" r="0.5" tabindex="72">
<title>
v:32
</title>
</circle>
<circle cx="130" cy="46" r="0.5" tabindex="73">
<title>
v:33
</title>
</circle>
<circle cx="130" cy="106" r="0.5" tabindex="74">
<title>
v:34
</title>
</circle>
<circle cx="131" cy="113" r="0.5" tabindex="75">
<title>
v:35
</title>
</circle>
<circle cx="137" cy="176" r="0.5" tabindex="76">
<title>
v:36
</title>
</circle>
<circle cx="138" cy="142" r="0.5" tabindex="77">
<title>
v:37
</title>
</circle>
<circle cx="138" cy="157" r="0.5" tabindex="78">
<title>
v:38
</title>
</circle>
<circle cx="139" cy="131" r="0.5" tabindex="79">
<title>
v:39
</title>
</circle>
<circle cx="141" cy="130" r="0.5" tabindex="80">
<title>
v:40
</title>
</circle>
<circle cx="142" cy="211" r="0.5" tabindex="81">
<title>
v:41
</title>
</circle>
<circle cx="143" cy="146" r="0.5" tabindex="82">
<title>
v:42
</title>
</circle>
<circle cx="146" cy="100" r="0.5" tabindex="83">
<title>
v:43
</title>
</circle>
<circle cx="147" cy="83" r="0.5" tabindex="84">
<title>
v:44
</title>
</circle>
<circle cx="152" cy="30" r="0.5" tabindex="85">
<title>
v:45
</title>
</circle>
<circle cx="157" cy="56" r="0.5" tabindex="86">
<title>
v:46
</title>
</circle>
<circle cx="158" cy="127" r="0.5" tabindex="87">
<title>
v:47
</title>
</circle>
<circle cx="161" cy="113" r="0.5" tabindex="88">
<title>
v:48
</title>
</circle>
<circle cx="164" cy="142" r="0.5" tabindex="89">
<title>
v:49
</title>
</circle>
<circle cx="167" cy="102" r="0.5" tabindex="90">
<title>
v:50
</title>
</circle>
<circle cx="170" cy="187" r="0.5" tabindex="91">
<title>
v:51
</title>
</circle>
<circle cx="171" cy="133" r="0.5" tabindex="92">
<title>
v:52
</title>
</circle>
<circle cx="188" cy="156" r="0.5" tabindex="93">
<title>
v:53
</title>
</circle>
<circle cx="196" cy="103" r="0.5" tabindex="94">
<title>
v:54
</title>
</circle>
<circle cx="199" cy="129" r="0.5" tabindex="95">
<title>
v:55
</title>
</circle>
</g>
</svg>