<svg height="500" viewBox="0 -2 233 245" width="500" xmlns="http://www.w3.org/2000/svg">
<path class="hole" d="M42 27L66 44L97 81L39 56L88 106L12 69L5 97L16 130L2 156L3 197L43 166L42 195L9 241L67 214L90 193L96 236L118 203L148 238L164 222L190 194L194 228L231 232L231 175L212 161L231 136L208 114L180 85L220 87L197 43L222 40L230 14L201 17L182 0L171 47L145 34L137 0L95 0L83 26L56 0L19 11M0 -2L233 -2L233 243L0 243" style="fill:#00000066;fill-rule:evenodd;"/>
<circle cx="41" cy="99" fill="#ffff0066" r="5">
<title>
Globalist@97
</title>
</circle>
<circle cx="113" cy="33" fill="#ffff0066" r="5">
<title>
WallHack@34
</title>
</circle>
<circle cx="35" cy="225" fill="#ffff0066" r="5">
<title>
WallHack@93
</title>
</circle>
<path class="ok" d="M32 142L42 156M32 142L46 130M37 94L53 117M42 156L51 177M42 156L57 145M46 130L57 145M51 177L55 196M51 177L67 164M53 117L58 142M53 117L77 108M55 196L82 196M57 145L67 164M57 145L77 149M58 142L77 149M58 142L81 132M67 164L77 149M67 164L85 166M67 164L88 178M77 108L94 132M77 108L99 115M77 149L85 166M77 149L91 155M77 149L94 132M81 132L91 155M81 132L99 115M82 196L88 178M85 166L111 169M91 155L95 185M91 155L117 149M94 132L114 144M95 185L107 210M95 185L123 176M99 77L113 96M99 77L123 73M99 115L113 96M99 115L121 127M104 54L121 127M104 54L123 73M104 54L132 46M111 169L114 144M111 169L139 176M113 96L123 73M113 96L132 106M113 96L133 113M114 144L140 142M117 149L121 127M117 149L123 176M117 149L140 157M121 127L133 113M121 127L141 131M121 127L143 130M123 73L132 46M123 73L149 83M123 176L131 200M132 46L139 176M132 46L159 56M132 106L149 83M133 113L141 131M133 113L148 100M139 176L140 142M139 176L144 211M139 176L172 187M140 142L173 133M140 157L143 130M141 131L145 146M141 131L160 127M144 211L172 187M145 146L166 142M148 100L163 113M149 83L159 56M160 127L163 113M160 127L166 142M169 102L173 133M172 187L190 156M173 133L190 156M173 133L201 129M190 156L201 129" style="stroke:#0000ff;stroke-linecap:round"/>
<path class="out" d="M37 94L54 76M54 76L77 84M77 84L77 108M77 84L99 77M107 210L131 200M132 46L154 30M154 30L159 56M169 102L198 103M198 103L201 129" style="stroke:#ff0000;stroke-linecap:round"/>
<g fill="#333333">
<circle cx="42" cy="27" r="0.5">
<title>
hole:0
</title>
</circle>
<circle cx="66" cy="44" r="0.5">
<title>
hole:1
</title>
</circle>
<circle cx="97" cy="81" r="0.5">
<title>
hole:2
</title>
</circle>
<circle cx="39" cy="56" r="0.5">
<title>
hole:3
</title>
</circle>
<circle cx="88" cy="106" r="0.5">
<title>
hole:4
</title>
</circle>
<circle cx="12" cy="69" r="0.5">
<title>
hole:5
</title>
</circle>
<circle cx="5" cy="97" r="0.5">
<title>
hole:6
</title>
</circle>
<circle cx="16" cy="130" r="0.5">
<title>
hole:7
</title>
</circle>
<circle cx="2" cy="156" r="0.5">
<title>
hole:8
</title>
</circle>
<circle cx="3" cy="197" r="0.5">
<title>
hole:9
</title>
</circle>
<circle cx="43" cy="166" r="0.5">
<title>
hole:10
</title>
</circle>
<circle cx="42" cy="195" r="0.5">
<title>
hole:11
</title>
</circle>
<circle cx="9" cy="241" r="0.5">
<title>
hole:12
</title>
</circle>
<circle cx="67" cy="214" r="0.5">
<title>
hole:13
</title>
</circle>
<circle cx="90" cy="193" r="0.5">
<title>
hole:14
</title>
</circle>
<circle cx="96" cy="236" r="0.5">
<title>
hole:15
</title>
</circle>
<circle cx="118" cy="203" r="0.5">
<title>
hole:16
</title>
</circle>
<circle cx="148" cy="238" r="0.5">
<title>
hole:17
</title>
</circle>
<circle cx="164" cy="222" r="0.5">
<title>
hole:18
</title>
</circle>
<circle cx="190" cy="194" r="0.5">
<title>
hole:19
</title>
</circle>
<circle cx="194" cy="228" r="0.5">
<title>
hole:20
</title>
</circle>
<circle cx="231" cy="232" r="0.5">
<title>
hole:21
</title>
</circle>
<circle cx="231" cy="175" r="0.5">
<title>
hole:22
</title>
</circle>
<circle cx="212" cy="161" r="0.5">
<title>
hole:23
</title>
</circle>
<circle cx="231" cy="136" r="0.5">
<title>
hole:24
</title>
</circle>
<circle cx="208" cy="114" r="0.5">
<title>
hole:25
</title>
</circle>
<circle cx="180" cy="85" r="0.5">
<title>
hole:26
</title>
</circle>
<circle cx="220" cy="87" r="0.5">
<title>
hole:27
</title>
</circle>
<circle cx="197" cy="43" r="0.5">
<title>
hole:28
</title>
</circle>
<circle cx="222" cy="40" r="0.5">
<title>
hole:29
</title>
</circle>
<circle cx="230" cy="14" r="0.5">
<title>
hole:30
</title>
</circle>
<circle cx="201" cy="17" r="0.5">
<title>
hole:31
</title>
</circle>
<circle cx="182" cy="0" r="0.5">
<title>
hole:32
</title>
</circle>
<circle cx="171" cy="47" r="0.5">
<title>
hole:33
</title>
</circle>
<circle cx="145" cy="34" r="0.5">
<title>
hole:34
</title>
</circle>
<circle cx="137" cy="0" r="0.5">
<title>
hole:35
</title>
</circle>
<circle cx="95" cy="0" r="0.5">
<title>
hole:36
</title>
</circle>
<circle cx="83" cy="26" r="0.5">
<title>
hole:37
</title>
</circle>
<circle cx="56" cy="0" r="0.5">
<title>
hole:38
</title>
</circle>
<circle cx="19" cy="11" r="0.5">
<title>
hole:39
</title>
</circle>
</g>
<g fill="#999999">
<circle cx="32" cy="142" i="0" r="0.5" tabindex="0">
<title>
v:0
</title>
</circle>
<circle cx="37" cy="94" i="1" r="0.5" tabindex="1">
<title>
v:1
</title>
</circle>
<circle cx="42" cy="156" i="2" r="0.5" tabindex="2">
<title>
v:2
</title>
</circle>
<circle cx="46" cy="130" i="3" r="0.5" tabindex="3">
<title>
v:3
</title>
</circle>
<circle cx="51" cy="177" i="4" r="0.5" tabindex="4">
<title>
v:4
</title>
</circle>
<circle cx="53" cy="117" i="5" r="0.5" tabindex="5">
<title>
v:5
</title>
</circle>
<circle cx="54" cy="76" i="6" r="0.5" tabindex="6">
<title>
v:6
</title>
</circle>
<circle cx="55" cy="196" i="7" r="0.5" tabindex="7">
<title>
v:7
</title>
</circle>
<circle cx="57" cy="145" i="8" r="0.5" tabindex="8">
<title>
v:8
</title>
</circle>
<circle cx="58" cy="142" i="9" r="0.5" tabindex="9">
<title>
v:9
</title>
</circle>
<circle cx="67" cy="164" i="10" r="0.5" tabindex="10">
<title>
v:10
</title>
</circle>
<circle cx="77" cy="84" i="11" r="0.5" tabindex="11">
<title>
v:11
</title>
</circle>
<circle cx="77" cy="108" i="12" r="0.5" tabindex="12">
<title>
v:12
</title>
</circle>
<circle cx="77" cy="149" i="13" r="0.5" tabindex="13">
<title>
v:13
</title>
</circle>
<circle cx="81" cy="132" i="14" r="0.5" tabindex="14">
<title>
v:14
</title>
</circle>
<circle cx="82" cy="196" i="15" r="0.5" tabindex="15">
<title>
v:15
</title>
</circle>
<circle cx="85" cy="166" i="16" r="0.5" tabindex="16">
<title>
v:16
</title>
</circle>
<circle cx="88" cy="178" i="17" r="0.5" tabindex="17">
<title>
v:17
</title>
</circle>
<circle cx="91" cy="155" i="18" r="0.5" tabindex="18">
<title>
v:18
</title>
</circle>
<circle cx="94" cy="132" i="19" r="0.5" tabindex="19">
<title>
v:19
</title>
</circle>
<circle cx="95" cy="185" i="20" r="0.5" tabindex="20">
<title>
v:20
</title>
</circle>
<circle cx="99" cy="77" i="21" r="0.5" tabindex="21">
<title>
v:21
</title>
</circle>
<circle cx="99" cy="115" i="22" r="0.5" tabindex="22">
<title>
v:22
</title>
</circle>
<circle cx="104" cy="54" i="23" r="0.5" tabindex="23">
<title>
v:23
</title>
</circle>
<circle cx="107" cy="210" i="24" r="0.5" tabindex="24">
<title>
v:24
</title>
</circle>
<circle cx="111" cy="169" i="25" r="0.5" tabindex="25">
<title>
v:25
</title>
</circle>
<circle cx="113" cy="96" i="26" r="0.5" tabindex="26">
<title>
v:26
</title>
</circle>
<circle cx="114" cy="144" i="27" r="0.5" tabindex="27">
<title>
v:27
</title>
</circle>
<circle cx="117" cy="149" i="28" r="0.5" tabindex="28">
<title>
v:28
</title>
</circle>
<circle cx="121" cy="127" i="29" r="0.5" tabindex="29">
<title>
v:29
</title>
</circle>
<circle cx="123" cy="73" i="30" r="0.5" tabindex="30">
<title>
v:30
</title>
</circle>
<circle cx="123" cy="176" i="31" r="0.5" tabindex="31">
<title>
v:31
</title>
</circle>
<circle cx="131" cy="200" i="32" r="0.5" tabindex="32">
<title>
v:32
</title>
</circle>
<circle cx="132" cy="46" i="33" r="0.5" tabindex="33">
<title>
v:33
</title>
</circle>
<circle cx="132" cy="106" i="34" r="0.5" tabindex="34">
<title>
v:34
</title>
</circle>
<circle cx="133" cy="113" i="35" r="0.5" tabindex="35">
<title>
v:35
</title>
</circle>
<circle cx="139" cy="176" i="36" r="0.5" tabindex="36">
<title>
v:36
</title>
</circle>
<circle cx="140" cy="142" i="37" r="0.5" tabindex="37">
<title>
v:37
</title>
</circle>
<circle cx="140" cy="157" i="38" r="0.5" tabindex="38">
<title>
v:38
</title>
</circle>
<circle cx="141" cy="131" i="39" r="0.5" tabindex="39">
<title>
v:39
</title>
</circle>
<circle cx="143" cy="130" i="40" r="0.5" tabindex="40">
<title>
v:40
</title>
</circle>
<circle cx="144" cy="211" i="41" r="0.5" tabindex="41">
<title>
v:41
</title>
</circle>
<circle cx="145" cy="146" i="42" r="0.5" tabindex="42">
<title>
v:42
</title>
</circle>
<circle cx="148" cy="100" i="43" r="0.5" tabindex="43">
<title>
v:43
</title>
</circle>
<circle cx="149" cy="83" i="44" r="0.5" tabindex="44">
<title>
v:44
</title>
</circle>
<circle cx="154" cy="30" i="45" r="0.5" tabindex="45">
<title>
v:45
</title>
</circle>
<circle cx="159" cy="56" i="46" r="0.5" tabindex="46">
<title>
v:46
</title>
</circle>
<circle cx="160" cy="127" i="47" r="0.5" tabindex="47">
<title>
v:47
</title>
</circle>
<circle cx="163" cy="113" i="48" r="0.5" tabindex="48">
<title>
v:48
</title>
</circle>
<circle cx="166" cy="142" i="49" r="0.5" tabindex="49">
<title>
v:49
</title>
</circle>
<circle cx="169" cy="102" i="50" r="0.5" tabindex="50">
<title>
v:50
</title>
</circle>
<circle cx="172" cy="187" i="51" r="0.5" tabindex="51">
<title>
v:51
</title>
</circle>
<circle cx="173" cy="133" i="52" r="0.5" tabindex="52">
<title>
v:52
</title>
</circle>
<circle cx="190" cy="156" i="53" r="0.5" tabindex="53">
<title>
v:53
</title>
</circle>
<circle cx="198" cy="103" i="54" r="0.5" tabindex="54">
<title>
v:54
</title>
</circle>
<circle cx="201" cy="129" i="55" r="0.5" tabindex="55">
<title>
v:55
</title>
</circle>
</g>
</svg>