<svg height="500" viewBox="6 4 153 150" width="500" xmlns="http://www.w3.org/2000/svg">
<path class="hole" d="M52 97L35 87L25 73L14 77L15 84L8 87L8 98L30 100L50 110L58 123L42 128L29 126L28 138L38 142L40 151L51 152L57 137L68 130L81 133L93 130L105 138L111 152L122 152L124 144L136 134L130 126L114 127L101 122L108 111L136 100L155 99L157 88L148 85L147 75L135 72L126 88L110 97L111 86L119 83L119 67L126 39L101 11L78 6L51 15L36 37L43 69L42 80L51 85M6 4L159 4L159 154L6 154" style="fill:#00000066;fill-rule:evenodd;"/>
<circle cx="95" cy="51" fill="#ffff0066" r="5">
<title>
BreakALeg@91
</title>
</circle>
<circle cx="68" cy="69" fill="#ffff0066" r="5">
<title>
Globalist@25
</title>
</circle>
<circle cx="71" cy="111" fill="#ffff0066" r="5">
<title>
Globalist@22
</title>
</circle>
<path class="ok" d="M29 135L52 135M34 102L46 104M46 104L50 110M50 110L59 110M57 67L70 65M57 67L74 90M59 110L66 110M62 45L66 50M62 45L70 42M65 59L66 50M65 59L82 54M66 110L70 115M66 110L74 90M66 110L92 110M69 25L69 36M69 25L84 24M69 36L70 42M69 36L84 34M70 42L70 65M70 42L78 41M70 42L116 63M70 65L70 115M70 65L85 63M70 115L85 116M78 41L84 47M82 54L84 47M84 24L84 34M85 63L99 86M85 116L92 110M85 116L97 115M85 116L105 136M92 110L99 86M97 115L99 109M97 115L105 136M99 109L108 108M106 73L116 72M108 108L113 103M108 108L117 106M116 63L116 72M147 97L155 93" style="stroke:#0000ff;stroke-linecap:round"/>
<path class="out" d="M10 103L19 91M10 103L24 107M19 91L21 66M19 91L47 87M21 66L32 75M22 100L24 107M22 100L34 102M24 107L29 112M24 107L50 110M29 112L29 135M29 112L31 126M29 112L52 135M31 57L32 66M31 126L52 135M32 66L32 75M32 66L70 42M32 75L34 102M32 75L47 87M47 87L59 110M50 110L52 135M52 135L73 136M70 115L73 136M73 136L85 116M73 136L105 136M105 136L114 125M106 73L114 88M108 108L114 125M113 103L114 88M113 103L132 104M114 125L128 115M114 125L132 104M116 63L147 97M116 72L117 106M116 72L127 71M117 106L132 104M127 71L135 87M128 115L155 93M132 104L135 87M132 104L147 97" style="stroke:#ff0000;stroke-linecap:round"/>
<g fill="#333333">
<circle cx="52" cy="97" r="0.5">
<title>
hole:0
</title>
</circle>
<circle cx="35" cy="87" r="0.5">
<title>
hole:1
</title>
</circle>
<circle cx="25" cy="73" r="0.5">
<title>
hole:2
</title>
</circle>
<circle cx="14" cy="77" r="0.5">
<title>
hole:3
</title>
</circle>
<circle cx="15" cy="84" r="0.5">
<title>
hole:4
</title>
</circle>
<circle cx="8" cy="87" r="0.5">
<title>
hole:5
</title>
</circle>
<circle cx="8" cy="98" r="0.5">
<title>
hole:6
</title>
</circle>
<circle cx="30" cy="100" r="0.5">
<title>
hole:7
</title>
</circle>
<circle cx="50" cy="110" r="0.5">
<title>
hole:8
</title>
</circle>
<circle cx="58" cy="123" r="0.5">
<title>
hole:9
</title>
</circle>
<circle cx="42" cy="128" r="0.5">
<title>
hole:10
</title>
</circle>
<circle cx="29" cy="126" r="0.5">
<title>
hole:11
</title>
</circle>
<circle cx="28" cy="138" r="0.5">
<title>
hole:12
</title>
</circle>
<circle cx="38" cy="142" r="0.5">
<title>
hole:13
</title>
</circle>
<circle cx="40" cy="151" r="0.5">
<title>
hole:14
</title>
</circle>
<circle cx="51" cy="152" r="0.5">
<title>
hole:15
</title>
</circle>
<circle cx="57" cy="137" r="0.5">
<title>
hole:16
</title>
</circle>
<circle cx="68" cy="130" r="0.5">
<title>
hole:17
</title>
</circle>
<circle cx="81" cy="133" r="0.5">
<title>
hole:18
</title>
</circle>
<circle cx="93" cy="130" r="0.5">
<title>
hole:19
</title>
</circle>
<circle cx="105" cy="138" r="0.5">
<title>
hole:20
</title>
</circle>
<circle cx="111" cy="152" r="0.5">
<title>
hole:21
</title>
</circle>
<circle cx="122" cy="152" r="0.5">
<title>
hole:22
</title>
</circle>
<circle cx="124" cy="144" r="0.5">
<title>
hole:23
</title>
</circle>
<circle cx="136" cy="134" r="0.5">
<title>
hole:24
</title>
</circle>
<circle cx="130" cy="126" r="0.5">
<title>
hole:25
</title>
</circle>
<circle cx="114" cy="127" r="0.5">
<title>
hole:26
</title>
</circle>
<circle cx="101" cy="122" r="0.5">
<title>
hole:27
</title>
</circle>
<circle cx="108" cy="111" r="0.5">
<title>
hole:28
</title>
</circle>
<circle cx="136" cy="100" r="0.5">
<title>
hole:29
</title>
</circle>
<circle cx="155" cy="99" r="0.5">
<title>
hole:30
</title>
</circle>
<circle cx="157" cy="88" r="0.5">
<title>
hole:31
</title>
</circle>
<circle cx="148" cy="85" r="0.5">
<title>
hole:32
</title>
</circle>
<circle cx="147" cy="75" r="0.5">
<title>
hole:33
</title>
</circle>
<circle cx="135" cy="72" r="0.5">
<title>
hole:34
</title>
</circle>
<circle cx="126" cy="88" r="0.5">
<title>
hole:35
</title>
</circle>
<circle cx="110" cy="97" r="0.5">
<title>
hole:36
</title>
</circle>
<circle cx="111" cy="86" r="0.5">
<title>
hole:37
</title>
</circle>
<circle cx="119" cy="83" r="0.5">
<title>
hole:38
</title>
</circle>
<circle cx="119" cy="67" r="0.5">
<title>
hole:39
</title>
</circle>
<circle cx="126" cy="39" r="0.5">
<title>
hole:40
</title>
</circle>
<circle cx="101" cy="11" r="0.5">
<title>
hole:41
</title>
</circle>
<circle cx="78" cy="6" r="0.5">
<title>
hole:42
</title>
</circle>
<circle cx="51" cy="15" r="0.5">
<title>
hole:43
</title>
</circle>
<circle cx="36" cy="37" r="0.5">
<title>
hole:44
</title>
</circle>
<circle cx="43" cy="69" r="0.5">
<title>
hole:45
</title>
</circle>
<circle cx="42" cy="80" r="0.5">
<title>
hole:46
</title>
</circle>
<circle cx="51" cy="85" r="0.5">
<title>
hole:47
</title>
</circle>
</g>
<g fill="#999999">
<circle cx="10" cy="103" i="0" r="0.5" tabindex="0">
<title>
v:0
</title>
</circle>
<circle cx="19" cy="91" i="1" r="0.5" tabindex="1">
<title>
v:1
</title>
</circle>
<circle cx="21" cy="66" i="2" r="0.5" tabindex="2">
<title>
v:2
</title>
</circle>
<circle cx="22" cy="100" i="3" r="0.5" tabindex="3">
<title>
v:3
</title>
</circle>
<circle cx="24" cy="107" i="4" r="0.5" tabindex="4">
<title>
v:4
</title>
</circle>
<circle cx="29" cy="112" i="5" r="0.5" tabindex="5">
<title>
v:5
</title>
</circle>
<circle cx="29" cy="135" i="6" r="0.5" tabindex="6">
<title>
v:6
</title>
</circle>
<circle cx="31" cy="57" i="7" r="0.5" tabindex="7">
<title>
v:7
</title>
</circle>
<circle cx="31" cy="126" i="8" r="0.5" tabindex="8">
<title>
v:8
</title>
</circle>
<circle cx="32" cy="66" i="9" r="0.5" tabindex="9">
<title>
v:9
</title>
</circle>
<circle cx="32" cy="75" i="10" r="0.5" tabindex="10">
<title>
v:10
</title>
</circle>
<circle cx="34" cy="102" i="11" r="0.5" tabindex="11">
<title>
v:11
</title>
</circle>
<circle cx="46" cy="104" i="12" r="0.5" tabindex="12">
<title>
v:12
</title>
</circle>
<circle cx="47" cy="87" i="13" r="0.5" tabindex="13">
<title>
v:13
</title>
</circle>
<circle cx="50" cy="110" i="14" r="0.5" tabindex="14">
<title>
v:14
</title>
</circle>
<circle cx="52" cy="135" i="15" r="0.5" tabindex="15">
<title>
v:15
</title>
</circle>
<circle cx="57" cy="67" i="16" r="0.5" tabindex="16">
<title>
v:16
</title>
</circle>
<circle cx="59" cy="110" i="17" r="0.5" tabindex="17">
<title>
v:17
</title>
</circle>
<circle cx="62" cy="45" i="18" r="0.5" tabindex="18">
<title>
v:18
</title>
</circle>
<circle cx="65" cy="59" i="19" r="0.5" tabindex="19">
<title>
v:19
</title>
</circle>
<circle cx="66" cy="50" i="20" r="0.5" tabindex="20">
<title>
v:20
</title>
</circle>
<circle cx="66" cy="110" i="21" r="0.5" tabindex="21">
<title>
v:21
</title>
</circle>
<circle cx="69" cy="25" i="22" r="0.5" tabindex="22">
<title>
v:22
</title>
</circle>
<circle cx="69" cy="36" i="23" r="0.5" tabindex="23">
<title>
v:23
</title>
</circle>
<circle cx="70" cy="42" i="24" r="0.5" tabindex="24">
<title>
v:24
</title>
</circle>
<circle cx="70" cy="65" i="25" r="0.5" tabindex="25">
<title>
v:25
</title>
</circle>
<circle cx="70" cy="115" i="26" r="0.5" tabindex="26">
<title>
v:26
</title>
</circle>
<circle cx="73" cy="136" i="27" r="0.5" tabindex="27">
<title>
v:27
</title>
</circle>
<circle cx="74" cy="90" i="28" r="0.5" tabindex="28">
<title>
v:28
</title>
</circle>
<circle cx="78" cy="41" i="29" r="0.5" tabindex="29">
<title>
v:29
</title>
</circle>
<circle cx="82" cy="54" i="30" r="0.5" tabindex="30">
<title>
v:30
</title>
</circle>
<circle cx="84" cy="24" i="31" r="0.5" tabindex="31">
<title>
v:31
</title>
</circle>
<circle cx="84" cy="34" i="32" r="0.5" tabindex="32">
<title>
v:32
</title>
</circle>
<circle cx="84" cy="47" i="33" r="0.5" tabindex="33">
<title>
v:33
</title>
</circle>
<circle cx="85" cy="63" i="34" r="0.5" tabindex="34">
<title>
v:34
</title>
</circle>
<circle cx="85" cy="116" i="35" r="0.5" tabindex="35">
<title>
v:35
</title>
</circle>
<circle cx="92" cy="110" i="36" r="0.5" tabindex="36">
<title>
v:36
</title>
</circle>
<circle cx="97" cy="115" i="37" r="0.5" tabindex="37">
<title>
v:37
</title>
</circle>
<circle cx="99" cy="86" i="38" r="0.5" tabindex="38">
<title>
v:38
</title>
</circle>
<circle cx="99" cy="109" i="39" r="0.5" tabindex="39">
<title>
v:39
</title>
</circle>
<circle cx="105" cy="136" i="40" r="0.5" tabindex="40">
<title>
v:40
</title>
</circle>
<circle cx="106" cy="73" i="41" r="0.5" tabindex="41">
<title>
v:41
</title>
</circle>
<circle cx="108" cy="108" i="42" r="0.5" tabindex="42">
<title>
v:42
</title>
</circle>
<circle cx="113" cy="103" i="43" r="0.5" tabindex="43">
<title>
v:43
</title>
</circle>
<circle cx="114" cy="88" i="44" r="0.5" tabindex="44">
<title>
v:44
</title>
</circle>
<circle cx="114" cy="125" i="45" r="0.5" tabindex="45">
<title>
v:45
</title>
</circle>
<circle cx="116" cy="63" i="46" r="0.5" tabindex="46">
<title>
v:46
</title>
</circle>
<circle cx="116" cy="72" i="47" r="0.5" tabindex="47">
<title>
v:47
</title>
</circle>
<circle cx="117" cy="106" i="48" r="0.5" tabindex="48">
<title>
v:48
</title>
</circle>
<circle cx="127" cy="71" i="49" r="0.5" tabindex="49">
<title>
v:49
</title>
</circle>
<circle cx="128" cy="115" i="50" r="0.5" tabindex="50">
<title>
v:50
</title>
</circle>
<circle cx="132" cy="104" i="51" r="0.5" tabindex="51">
<title>
v:51
</title>
</circle>
<circle cx="135" cy="87" i="52" r="0.5" tabindex="52">
<title>
v:52
</title>
</circle>
<circle cx="147" cy="97" i="53" r="0.5" tabindex="53">
<title>
v:53
</title>
</circle>
<circle cx="155" cy="93" i="54" r="0.5" tabindex="54">
<title>
v:54
</title>
</circle>
</g>
</svg>